<?xml version="1.0" encoding="UTF-8" standalone="no"?>
<svg
   id="flag-icons-ac"
   viewBox="0 0 640 480"
   version="1.1"
   sodipodi:docname="glb.svg"
   xml:space="preserve"
   inkscape:version="1.2.1 (9c6d41e410, 2022-07-14)"
   xmlns:inkscape="http://www.inkscape.org/namespaces/inkscape"
   xmlns:sodipodi="http://sodipodi.sourceforge.net/DTD/sodipodi-0.dtd"
   xmlns="http://www.w3.org/2000/svg"
   xmlns:svg="http://www.w3.org/2000/svg"><defs
     id="defs22079" /><sodipodi:namedview
     id="namedview22077"
     pagecolor="#505050"
     bordercolor="#ffffff"
     borderopacity="1"
     inkscape:showpageshadow="0"
     inkscape:pageopacity="0"
     inkscape:pagecheckerboard="1"
     inkscape:deskcolor="#505050"
     showgrid="false"
     inkscape:zoom="1.5129139"
     inkscape:cx="333.79296"
     inkscape:cy="228.36726"
     inkscape:window-width="2560"
     inkscape:window-height="1351"
     inkscape:window-x="-9"
     inkscape:window-y="-9"
     inkscape:window-maximized="1"
     inkscape:current-layer="flag-icons-ac" /><path
     style="fill:#0085ff;fill-opacity:1;stroke-width:0.911969"
     d="m 302.06257,471.67239 c -1.75553,-0.20433 -7.09057,-0.81183 -11.85561,-1.34996 -39.62554,-4.47518 -79.4584,-20.60931 -112.85707,-45.7123 -11.02916,-8.2897 -30.92695,-27.51549 -39.8448,-38.49913 -15.06222,-18.55134 -30.1584,-45.06188 -38.26401,-67.19572 -4.66414,-12.73627 -9.390515,-31.37859 -11.656345,-45.97619 -2.64481,-17.03922 -2.85394,-49.22004 -0.42672,-65.66183 6.078535,-41.17539 20.959545,-77.08133 45.450105,-109.665185 8.28971,-11.029168 27.51549,-30.926952 38.49914,-39.844794 36.21124,-29.40068 80.26663,-47.18101 127.76342,-51.5641034 41.81967,-3.859183 86.83581,4.9693834 125.20823,24.5558514 23.62788,12.060401 39.1373,23.447982 59.03484,43.345503 20.99441,20.994433 33.08536,37.819428 45.14864,62.825888 10.84227,22.47537 17.32702,43.24575 21.10897,67.61092 2.64481,17.03922 2.85393,49.22005 0.42671,65.66185 -4.05105,27.44128 -11.10869,49.88524 -23.29961,74.09489 -10.86848,21.58344 -22.87773,38.31949 -40.58074,56.55333 -20.19944,20.80512 -39.00306,34.56293 -63.9311,46.77569 -33.36636,16.34686 -62.33266,23.39706 -98.94873,24.08344 -9.78088,0.18336 -19.21977,0.16619 -20.97532,-0.0381 z m -2.7359,-79.72122 c 0,-16.05067 -0.30779,-29.17952 -0.68398,-29.17524 -7.71783,0.088 -45.8265,4.57704 -45.8265,5.39816 0,1.42707 10.77814,19.41196 15.29379,25.51992 6.60723,8.93705 16.66166,18.83371 24.01571,23.63885 3.19979,2.09074 6.12903,3.80135 6.50939,3.80135 0.38037,0 0.69159,-13.13237 0.69159,-29.18304 z m 42.58247,27.1928 c 9.94215,-5.69904 22.00726,-17.7836 30.71951,-30.76898 4.52183,-6.73966 11.91711,-20.06153 11.38795,-20.51422 -0.80252,-0.68658 -39.72168,-5.01663 -45.70322,-5.08484 -0.37618,-0.004 -0.68397,13.12457 -0.68397,29.17524 0,16.05067 0.18173,29.18304 0.40385,29.18304 0.22212,0 1.96627,-0.89561 3.87588,-1.99024 z M 231.89847,408.3801 c -2.95936,-4.50684 -8.09129,-13.52504 -11.40431,-20.04043 l -6.02367,-11.84616 -11.55454,4.07495 c -6.355,2.24123 -11.8727,4.39313 -12.26157,4.78199 -0.87393,0.87393 10.63669,10.0472 21.40564,17.05899 6.28449,4.0919 23.89646,14.0553 25.00789,14.14742 0.11616,0.01 -2.21009,-3.66992 -5.16944,-8.17676 z m 188.96821,-3.40798 c 6.95889,-4.30459 14.61678,-9.80287 24.32791,-17.46717 l 2.23266,-1.76207 -3.60061,-1.51336 c -1.98034,-0.83235 -7.60486,-2.91098 -12.49896,-4.61919 l -8.89832,-3.10583 -5.0753,10.11985 c -4.45695,8.88689 -11.89683,21.48543 -16.53468,27.99946 -1.39999,1.96633 -0.95006,1.85969 5.18136,-1.22804 3.69296,-1.85975 10.38264,-5.65039 14.86594,-8.42365 z M 189.92849,344.90217 c 9.43848,-3.38618 11.7761,-4.55927 11.4283,-5.73506 -5.24803,-17.74236 -10.02216,-45.10663 -11.79315,-67.59598 l -1.04132,-13.22356 -32.14694,-0.23966 c -31.13759,-0.23213 -32.14695,-0.18487 -32.14695,1.50532 0,3.98323 3.76564,23.12723 6.34295,32.24674 6.10021,21.58485 16.28253,42.91175 28.50103,59.69549 l 3.45566,4.7468 7.76744,-3.57158 c 4.27209,-1.96439 13.10693,-5.48721 19.63298,-7.82851 z m 292.51423,-0.23669 c 15.44309,-23.68497 26.59915,-54.20527 29.8016,-81.53006 l 0.61455,-5.24384 h -32.31076 -32.31074 l -0.6413,10.25968 c -1.19899,19.18159 -5.43619,45.72284 -10.13163,63.46319 -1.23984,4.68435 -2.25425,8.63648 -2.25425,8.78253 0,0.14606 5.31365,2.17188 11.80811,4.50185 6.49445,2.32997 15.21516,5.81229 19.37936,7.73851 4.16419,1.9262 7.92793,3.29764 8.36387,3.04763 0.43595,-0.25 3.8925,-5.20877 7.68119,-11.01949 z M 248.25635,329.96464 c 7.55546,-1.44054 36.23784,-4.58555 41.9494,-4.59972 2.75938,-0.008 5.94042,-0.25992 7.06899,-0.56236 l 2.05193,-0.54989 V 291.07212 257.89158 H 262.8399 226.35314 l 0.45626,4.78785 c 1.82693,19.1708 2.73419,26.33823 4.70412,37.16277 2.12403,11.67139 6.31985,29.63602 7.28741,31.20159 0.24613,0.39822 1.34571,0.53351 2.44355,0.30062 1.09782,-0.23288 4.25316,-0.85378 7.01187,-1.37977 z m 151.63492,-4.66151 c 4.18298,-15.15311 8.34594,-40.39438 10.17793,-61.71173 l 0.48984,-5.69982 h -36.46482 -36.46481 v 33.18054 33.18055 l 2.05193,0.54989 c 1.12856,0.30244 4.3096,0.5555 7.06898,0.56236 6.09895,0.0151 33.42763,3.14541 42.86137,4.90941 3.76189,0.70342 7.25016,1.18972 7.75175,1.08067 0.50158,-0.10902 1.6391,-2.83241 2.52783,-6.05187 z M 188.4556,217.53692 c 0.23321,-1.12857 0.67094,-5.95061 0.97274,-10.71565 1.10288,-17.41274 5.37027,-43.90737 9.93666,-61.69272 l 2.14191,-8.34246 -11.84001,-4.26748 c -6.51202,-2.34713 -14.92241,-5.67219 -18.68976,-7.38902 -3.76736,-1.71684 -7.42914,-3.12153 -8.1373,-3.12153 -3.36739,0 -21.28772,31.87698 -27.68492,49.24638 -4.73103,12.84553 -10.90565,39.26653 -10.92281,46.73847 -0.003,1.4896 2.12203,1.59594 31.8979,1.59594 h 31.90158 z m 110.87107,-31.1791 v -33.23101 l -3.87588,-0.45798 c -2.13172,-0.25189 -9.41609,-0.89544 -16.18746,-1.43013 -11.45032,-0.90413 -35.92427,-4.09464 -39.35195,-5.13004 -1.25291,-0.37847 -1.97432,1.49971 -4.30405,11.20559 -4.54704,18.94336 -6.3062,30.26496 -8.79061,56.57479 l -0.53822,5.69981 h 36.52408 36.52409 z m 110.7345,26.61925 c -1.62343,-19.93011 -4.36585,-37.42724 -8.72435,-55.66282 -2.31695,-9.69391 -3.04076,-11.58559 -4.29212,-11.21747 -3.77541,1.11064 -27.35344,4.21101 -38.89597,5.11459 -7.02217,0.54971 -14.51172,1.20557 -16.64345,1.45746 l -3.87587,0.45798 v 33.23101 33.23103 h 36.48516 36.48516 z m 102.25209,1.36796 c -2.44924,-20.56431 -9.92286,-44.83498 -19.72772,-64.06589 -5.79837,-11.37272 -16.83795,-28.27108 -18.4693,-28.27108 -0.70817,0 -4.36996,1.40469 -8.1373,3.12153 -3.76736,1.71683 -12.17963,5.04256 -18.69393,7.3905 l -11.8442,4.269 1.70642,6.51703 c 4.78006,18.25559 9.25252,46.1329 10.40945,64.88311 0.30947,5.01583 0.72315,9.63268 0.91925,10.25966 0.27638,0.88358 7.56524,1.13996 32.40923,1.13996 h 32.05265 z M 299.32667,85.049874 V 55.38743 l -2.96391,1.519614 c -9.26743,4.751503 -20.98971,15.748377 -29.12147,27.31935 -5.61946,7.996154 -14.4251,23.000536 -14.4251,24.579716 0,1.33616 28.66837,5.14072 43.54657,5.77904 l 2.96391,0.12716 z M 349.941,113.82296 c 18.12936,-1.60448 34.19887,-3.96181 34.19887,-5.01685 0,-1.46821 -8.63917,-16.367236 -13.49704,-23.276834 C 362.28312,73.63879 350.89843,62.542328 342.20352,57.80997 l -4.57411,-2.489541 v 29.695939 c 0,23.149172 0.25131,29.695772 1.13996,29.695162 0.62698,-4.1e-4 5.65421,-0.40027 11.17163,-0.88857 z M 219.86519,89.568106 c 3.02994,-6.054778 7.98239,-14.775486 11.00546,-19.37937 3.02307,-4.603874 5.19626,-8.363832 4.82932,-8.355447 -0.36696,0.0088 -4.15547,1.884686 -8.41893,4.169569 -16.10969,8.633541 -38.61173,25.047963 -36.29789,26.477994 1.21599,0.751532 22.96821,8.460438 23.22369,8.230408 0.0822,-0.074 2.62842,-5.088385 5.65835,-11.143154 z m 225.6094,3.132367 c 1.48699,-0.795808 0.97525,-1.482408 -4.37124,-5.864833 -10.21431,-8.372497 -36.59975,-24.928181 -39.84724,-25.002351 -0.36695,-0.0088 1.77096,3.69785 4.75091,8.236059 2.97996,4.538219 7.98209,13.316469 11.11587,19.507219 l 5.69779,11.255913 10.48488,-3.615335 c 5.76668,-1.98844 11.24275,-4.020937 12.16903,-4.516672 z"
     id="path22374" /></svg>
