<?xml version="1.0" encoding="UTF-8" standalone="no"?>
<!-- Created with Inkscape (http://www.inkscape.org/) -->

<svg
   width="64"
   height="64"
   viewBox="0 0 16.933333 16.933333"
   version="1.1"
   id="svg5"
   inkscape:version="1.1 (c68e22c387, 2021-05-23)"
   sodipodi:docname="affirmate_active.svg"
   xmlns:inkscape="http://www.inkscape.org/namespaces/inkscape"
   xmlns:sodipodi="http://sodipodi.sourceforge.net/DTD/sodipodi-0.dtd"
   xmlns="http://www.w3.org/2000/svg"
   xmlns:svg="http://www.w3.org/2000/svg">
  <sodipodi:namedview
     id="namedview7"
     pagecolor="#ffffff"
     bordercolor="#666666"
     borderopacity="1.0"
     inkscape:pageshadow="2"
     inkscape:pageopacity="0.0"
     inkscape:pagecheckerboard="0"
     inkscape:document-units="px"
     showgrid="false"
     inkscape:zoom="8.0000001"
     inkscape:cx="25.625"
     inkscape:cy="38.3125"
     inkscape:window-width="1600"
     inkscape:window-height="837"
     inkscape:window-x="-8"
     inkscape:window-y="-8"
     inkscape:window-maximized="1"
     inkscape:current-layer="layer1"
     units="px"
     width="64px" />
  <defs
     id="defs2" />
  <g
     inkscape:label="Слой 1"
     inkscape:groupmode="layer"
     id="layer1">
    <g
       id="g3064"
       transform="matrix(0.96875017,0,0,0.96875017,0.46034657,0.23380347)">
      <path
         id="path3055"
         style="fill:#b25844;stroke-width:0.0332099"
         d="m 13.330841,5.5725136 c 0.0016,-6.689e-4 0.0044,-4.366e-4 0.0084,5.298e-4 0.004,9.683e-4 0.0093,0.00278 0.01557,0.00527 0.01239,0.00499 0.029,0.012664 0.0493,0.023196 0.04059,0.021065 0.09562,0.052299 0.160359,0.090678 0.06474,0.038378 0.139006,0.084103 0.21796,0.1333795 0.07896,0.049275 0.162743,0.1022897 0.245984,0.1560482 0.08323,0.053759 0.166313,0.1079082 0.243908,0.159739 0.07759,0.05183 0.149712,0.1014886 0.211736,0.1449777 0.06201,0.043488 0.11398,0.080924 0.150493,0.1096558 0.01827,0.014366 0.03254,0.026375 0.04256,0.035848 0.01005,0.00948 0.01554,0.016779 0.01609,0.020561 4.58e-4,0.00322 -0.0047,0.014705 -0.01505,0.033741 -0.01029,0.019036 -0.02565,0.045399 -0.04567,0.078551 -0.04002,0.066304 -0.0985,0.1589222 -0.170737,0.2715033 -0.07223,0.1125812 -0.158544,0.2448503 -0.254286,0.3901213 -0.09575,0.1452708 -0.20085,0.3037723 -0.311372,0.4681458 -0.11053,0.1643733 -0.217434,0.3212099 -0.316045,0.4644552 -0.09861,0.1432453 -0.188863,0.2727203 -0.266222,0.3816861 -0.07736,0.1089658 -0.141607,0.1978422 -0.188378,0.2593787 -0.02339,0.030771 -0.04259,0.054725 -0.05657,0.071172 -0.007,0.00823 -0.01269,0.014649 -0.01712,0.018977 -0.0045,0.00437 -0.0076,0.0066 -0.0093,0.00691 -0.0081,0.00112 -0.02109,-5.577e-4 -0.03788,-0.00427 -0.0168,-0.00366 -0.03754,-0.00955 -0.06176,-0.017402 -0.02421,-0.00782 -0.05159,-0.017504 -0.082,-0.028993 -0.03041,-0.0115 -0.06372,-0.025011 -0.09912,-0.039538 -0.07079,-0.029064 -0.150145,-0.063543 -0.233527,-0.1012205 -0.08339,-0.037674 -0.170665,-0.078094 -0.256883,-0.1196717 -0.08622,-0.041577 -0.171355,-0.084167 -0.250655,-0.1249446 -0.0793,-0.040776 -0.152742,-0.080185 -0.215367,-0.115455 -0.0313,-0.017635 -0.05979,-0.034179 -0.08511,-0.049557 -0.02532,-0.015376 -0.04781,-0.029646 -0.06591,-0.042175 -0.0181,-0.01253 -0.03186,-0.023064 -0.04152,-0.032158 -0.0048,-0.00455 -0.009,-0.00854 -0.01138,-0.012124 -0.0024,-0.00359 -0.0035,-0.00696 -0.0035,-0.00948 0,-0.00256 0.0015,-0.0076 0.0047,-0.014762 0.003,-0.00717 0.008,-0.01647 0.01401,-0.027942 0.01218,-0.022939 0.03018,-0.053911 0.05292,-0.092258 0.04551,-0.076693 0.110555,-0.1818574 0.188897,-0.3057706 0.07836,-0.1239133 0.169783,-0.2666685 0.2683,-0.4185895 0.09851,-0.1519215 0.204321,-0.3132271 0.310337,-0.4739451 0.106015,-0.1607178 0.212609,-0.3210054 0.313448,-0.4713086 0.100835,-0.1503028 0.195692,-0.2905324 0.278676,-0.411209 0.08299,-0.1206764 0.154082,-0.2218066 0.206545,-0.2936452 0.02623,-0.035918 0.0476,-0.06477 0.06383,-0.084877 0.0081,-0.010047 0.01493,-0.017545 0.02024,-0.023196 0.0053,-0.00565 0.0091,-0.00907 0.01138,-0.010027 z" />
      <path
         id="path3051"
         style="fill:#b25844;stroke-width:0.0332099"
         d="m 4.6198363,3.8599136 c -0.00234,-1.3e-5 -0.00701,0.00308 -0.01349,0.00948 -0.00639,0.00642 -0.015027,0.016034 -0.02543,0.028468 -0.020819,0.024869 -0.049164,0.061048 -0.084063,0.1075467 C 4.4619547,4.0519095 4.4206357,4.1087147 4.3738615,4.1735831 4.3270832,4.2384511 4.2751403,4.3113408 4.2186918,4.3913135 4.1058168,4.5512589 3.9755331,4.7382792 3.837262,4.9390649 3.6989901,5.1398507 3.552512,5.3545921 3.4065297,5.5701126 3.2605485,5.7856336 3.1149203,6.0022821 2.9789132,6.2064322 2.8429014,6.4105822 2.7167333,6.6022711 2.6083789,6.768945 2.5541982,6.8522825 2.5044311,6.9292001 2.4604767,6.9982734 c -0.04395,0.069073 -0.082144,0.1303345 -0.1136498,0.1818809 -0.031518,0.051547 -0.056321,0.093662 -0.073167,0.1244166 -0.00849,0.015377 -0.014843,0.027861 -0.019196,0.037431 -0.00431,0.00957 -0.00677,0.016153 -0.00677,0.019506 0,0.00334 0.01156,0.021993 0.033215,0.0543 0.021655,0.032308 0.053332,0.078323 0.094454,0.1365426 0.08223,0.1164389 0.201484,0.2816156 0.3482189,0.4834343 0.1467363,0.2018185 0.3212639,0.439905 0.5148026,0.7027454 0.193539,0.2628407 0.4058211,0.5503275 0.6284525,0.849832 0.4673803,0.6287578 0.8135308,1.0944398 1.0700849,1.4413418 0.128277,0.17345 0.2344341,0.317344 0.321752,0.43704 0.087322,0.1197 0.1559848,0.214984 0.2101757,0.292065 0.054193,0.07707 0.093569,0.135747 0.1224789,0.181353 0.01445,0.0228 0.026205,0.04254 0.035809,0.05958 0.00959,0.01704 0.017118,0.03113 0.022836,0.04376 0.00577,0.01263 0.00959,0.02358 0.012457,0.03322 0.00283,0.0096 0.00479,0.01833 0.00577,0.02636 0.00184,0.01607 5.214e-4,0.02996 5.214e-4,0.04797 0,0.0075 -0.00332,0.02772 -0.00934,0.05905 -0.00603,0.03133 -0.014977,0.07404 -0.026464,0.126525 -0.02297,0.104956 -0.056063,0.249483 -0.097036,0.423336 -0.040998,0.173854 -0.089695,0.37713 -0.1437517,0.598889 -0.054058,0.221759 -0.113219,0.461969 -0.1754068,0.710652 -0.062187,0.248685 -0.1213969,0.487924 -0.174369,0.706965 -0.052964,0.219039 -0.1000368,0.418289 -0.1390776,0.58729 -0.039031,0.169001 -0.069909,0.307373 -0.090297,0.405936 -0.010204,0.04929 -0.017659,0.08867 -0.022319,0.116516 -0.00467,0.02785 -0.00615,0.04464 -0.00467,0.04851 6.677e-4,0.0017 0.00849,0.003 0.022836,0.0048 0.014412,0.0016 0.035514,0.0031 0.062788,0.0048 0.05455,0.0029 0.1338599,0.0059 0.2345667,0.0085 0.1007013,0.0024 0.2224273,0.0048 0.3622304,0.0069 0.1398031,0.0019 0.2972931,0.0036 0.4691325,0.0053 0.3436814,0.003 0.7444053,0.0055 1.1738748,0.0069 0.4294683,0.0013 0.8879048,0.0015 1.3466858,10e-4 0.4587833,-3.71e-4 0.9181813,-0.0015 1.3498003,-0.0037 0.4316188,-0.0021 0.8352368,-0.0052 1.1832138,-0.0089 0.34798,-0.0037 0.640111,-0.0083 0.847973,-0.01369 0.103933,-0.0027 0.187152,-0.0054 0.245465,-0.0085 0.02916,-0.0015 0.05208,-0.003 0.06849,-0.0048 0.01643,-0.0016 0.02626,-0.0035 0.02906,-0.0053 0.0021,-0.0012 0.0042,-0.01193 0.0063,-0.03112 0.0019,-0.01927 0.0034,-0.04721 0.0052,-0.08277 0.0035,-0.07111 0.0073,-0.173454 0.0098,-0.299445 0.0027,-0.125988 0.0047,-0.275607 0.0063,-0.44284 0.0015,-0.167234 0.0021,-0.351857 0.0021,-0.546697 8e-6,-0.205485 -5.58e-4,-0.382954 -5.21e-4,-0.537207 4e-5,-0.154255 9.83e-4,-0.285183 0.003,-0.396976 0.0011,-0.05589 0.0022,-0.107009 0.0041,-0.153939 0.0019,-0.04692 0.0047,-0.08958 0.0077,-0.128635 0.003,-0.03905 0.0069,-0.07476 0.01138,-0.107022 0.0046,-0.03226 0.0098,-0.06145 0.01609,-0.08804 0.0063,-0.02659 0.01362,-0.05022 0.02179,-0.07223 0.0082,-0.022 0.01712,-0.04212 0.02751,-0.06063 0.01029,-0.01851 0.02192,-0.03556 0.03477,-0.05167 0.01283,-0.01612 0.02701,-0.03157 0.04255,-0.04639 0.01554,-0.01482 0.03285,-0.02915 0.05137,-0.04376 0.01852,-0.01462 0.03846,-0.02931 0.0602,-0.04481 0.04349,-0.03102 0.09358,-0.06479 0.151537,-0.105977 0.03874,-0.02752 0.07645,-0.0557 0.113133,-0.08382 0.03667,-0.02812 0.07225,-0.05614 0.106899,-0.08488 0.03464,-0.02874 0.06856,-0.05812 0.101197,-0.08751 0.03262,-0.0294 0.06433,-0.05899 0.09498,-0.08909 0.03065,-0.0301 0.06005,-0.06036 0.08875,-0.09121 0.02868,-0.03084 0.0563,-0.06222 0.08303,-0.09384 0.02674,-0.03161 0.0525,-0.06352 0.07733,-0.09595 0.02483,-0.03243 0.04867,-0.06531 0.07161,-0.09858 0.02295,-0.03328 0.04484,-0.06706 0.06591,-0.101232 0.02107,-0.03416 0.04147,-0.06876 0.06072,-0.103862 0.01925,-0.03509 0.03757,-0.07045 0.055,-0.106493 0.01744,-0.03604 0.03416,-0.07261 0.04981,-0.109653 0.01565,-0.03704 0.03021,-0.07474 0.04411,-0.112813 0.0139,-0.03808 0.02675,-0.07683 0.03892,-0.115974 0.01218,-0.03915 0.0238,-0.07888 0.03424,-0.119147 0.01041,-0.04026 0.01977,-0.0809 0.02854,-0.122307 0.0028,-0.01359 0.0056,-0.03133 0.0084,-0.05218 0.0027,-0.02086 0.0058,-0.04467 0.0084,-0.07169 0.0051,-0.05409 0.0094,-0.119577 0.0135,-0.191899 0.0041,-0.07232 0.0074,-0.151642 0.01029,-0.233546 0.0029,-0.0819 0.0056,-0.166528 0.0073,-0.24936 0.0017,-0.08283 0.0028,-0.163712 0.003,-0.238818 2.76e-4,-0.075104 -1.82e-4,-0.1442432 -0.0016,-0.2029688 -0.0013,-0.058727 -0.0041,-0.1070699 -0.0073,-0.1407602 -0.0016,-0.016843 -0.003,-0.030049 -0.0052,-0.039009 -10e-4,-0.00447 -0.0024,-0.00823 -0.0036,-0.010535 -0.0012,-0.00234 -0.0023,-0.00315 -0.0036,-0.00315 -0.0025,0 -0.0096,0.00457 -0.01973,0.013176 -0.01005,0.00863 -0.02312,0.021039 -0.03892,0.036378 -0.03161,0.030669 -0.07293,0.073143 -0.115724,0.1196718 -0.03535,0.03842 -0.06305,0.072625 -0.0903,0.1012215 -0.01363,0.014293 -0.02741,0.027398 -0.04152,0.038481 -0.007,0.00559 -0.01431,0.010646 -0.02179,0.015289 -0.0075,0.00467 -0.01523,0.00843 -0.02335,0.012119 -0.0081,0.00366 -0.01644,0.00681 -0.02543,0.00945 -0.009,0.00264 -0.0185,0.00528 -0.02854,0.00691 -0.01005,0.00152 -0.02086,0.00223 -0.03217,0.00264 -0.01126,4.185e-4 -0.02301,2.692e-4 -0.03581,-5.293e-4 -0.01281,-7.995e-4 -0.0265,-0.00213 -0.041,-0.00427 -0.01449,-0.00203 -0.0298,-0.00498 -0.04619,-0.00843 C 13.193798,9.972893 13.157158,9.963297 13.115527,9.95071 13.073887,9.938123 13.027047,9.922621 12.974889,9.903787 12.922729,9.884953 12.864879,9.862949 12.800521,9.837359 12.736161,9.811769 12.665462,9.782695 12.587231,9.749842 12.509001,9.716989 12.423606,9.680285 12.329831,9.6396585 12.142329,9.558331 11.921766,9.4612867 11.66199,9.3459334 11.40214,9.2305202 11.102774,9.0971352 10.757382,8.9436267 10.195829,8.6940463 9.7594372,8.5005173 9.4200382,8.3515908 9.2503342,8.2771282 9.1052732,8.2138956 8.9804822,8.1602207 8.8556912,8.1065465 8.7514052,8.0621176 8.6644402,8.0263141 8.5774747,7.99051 8.5078929,7.9633394 8.4516657,7.9424897 c -0.028111,-0.010419 -0.052976,-0.019127 -0.074729,-0.02636 -0.021753,-0.00723 -0.040802,-0.012991 -0.057083,-0.017397 -0.016293,-0.00442 -0.029821,-0.00755 -0.041515,-0.00948 -0.011681,-0.00194 -0.021582,-0.0028 -0.029587,-0.00263 -0.00799,1.581e-4 -0.014019,0.00128 -0.019196,0.00316 -0.00517,0.00188 -0.00922,0.00465 -0.012457,0.0079 -0.00136,0.00139 0.00332,0.015328 0.014007,0.040594 0.010701,0.025266 0.027263,0.061403 0.048771,0.1080743 0.043027,0.093342 0.1065298,0.2270676 0.1857843,0.3911759 0.079267,0.1641085 0.1743086,0.3590419 0.2802377,0.5741112 0.105926,0.2150683 0.222594,0.450196 0.345623,0.696419 0.12099,0.2421474 0.226711,0.4544699 0.319156,0.6405379 0.09244,0.186069 0.171618,0.346091 0.238719,0.48449 0.0671,0.138398 0.122147,0.255135 0.167102,0.354273 0.02249,0.04957 0.04265,0.09468 0.06021,0.136014 0.01755,0.04132 0.03266,0.07868 0.04566,0.112814 0.01301,0.03413 0.02381,0.06531 0.0327,0.09331 0.0088,0.02802 0.0156,0.05299 0.02076,0.07593 0.0052,0.02292 0.0085,0.04333 0.01033,0.06221 0.0018,0.01889 0.0021,0.03629 10e-4,0.05218 -0.0011,0.0159 -0.0036,0.03031 -0.0073,0.04428 -0.0036,0.01397 -0.0082,0.02751 -0.01401,0.0406 -0.0058,0.01309 -0.01274,0.02576 -0.02024,0.03901 -0.0075,0.01326 -0.01557,0.02717 -0.0244,0.04165 -0.01274,0.0209 -0.02537,0.04006 -0.0384,0.05747 -0.01305,0.01741 -0.02629,0.03283 -0.03997,0.04692 -0.01366,0.01409 -0.02791,0.02649 -0.04255,0.03742 -0.01463,0.01094 -0.02975,0.02051 -0.04567,0.02846 -0.01591,0.008 -0.03281,0.01436 -0.05033,0.01951 -0.01754,0.0052 -0.03605,0.0091 -0.05553,0.01156 -0.01947,0.0024 -0.04,0.0037 -0.06176,0.0037 -0.02175,-1.2e-5 -0.04466,-0.0013 -0.06902,-0.0037 -0.01836,-0.0017 -0.03519,-0.0029 -0.05138,-0.0048 -0.01618,-0.0017 -0.03147,-0.0041 -0.04619,-0.0069 -0.01471,-0.0028 -0.02912,-0.0065 -0.04308,-0.01156 -0.01396,-0.0051 -0.02762,-0.01106 -0.04152,-0.0195 -0.01391,-0.0083 -0.028,-0.01879 -0.04256,-0.03163 -0.01456,-0.01284 -0.02975,-0.02849 -0.04566,-0.04692 -0.01592,-0.01842 -0.03234,-0.03971 -0.05035,-0.06484 -0.01799,-0.02513 -0.03736,-0.05403 -0.05812,-0.08699 -0.02077,-0.03296 -0.04321,-0.06986 -0.06746,-0.111769 -0.02425,-0.0419 -0.05044,-0.08879 -0.07889,-0.140759 -0.05687,-0.10387 -0.1224409,-0.22907 -0.2003139,-0.380025 -0.07788,-0.150958 -0.16792,-0.327636 -0.2724511,-0.534572 C 8.4155307,10.439514 8.2962342,10.202417 8.1593959,9.9305252 7.8808177,9.37701 7.6226516,8.8678955 7.4307837,8.4934029 7.3348541,8.3061566 7.2551814,8.1523017 7.1982913,8.0437089 7.1698484,7.9894126 7.1473323,7.9465241 7.1308296,7.9161287 c -0.016515,-0.030395 -0.026968,-0.047994 -0.030091,-0.051665 -0.00505,-0.00584 -0.011318,-0.011153 -0.020241,-0.015815 -0.00898,-0.00466 -0.0205,-0.00904 -0.035809,-0.012653 -0.01531,-0.00361 -0.034431,-0.00629 -0.058633,-0.00896 -0.0242,-0.00267 -0.05316,-0.00498 -0.088736,-0.00686 -0.071163,-0.00376 -0.1678589,-0.00601 -0.2994389,-0.00737 -0.1315763,-0.00136 -0.29824,-0.00209 -0.5101311,-0.00211 -0.1523202,-2.09e-5 -0.2867593,-6.504e-4 -0.4058209,-0.00263 -0.05953,-9.953e-4 -0.1151498,-0.00242 -0.1671039,-0.00421 -0.051956,-0.0018 -0.1004301,-0.00405 -0.145306,-0.00686 -0.044884,-0.0028 -0.086252,-0.00603 -0.1245523,-0.010027 -0.038305,-0.00398 -0.073648,-0.00833 -0.1058652,-0.013707 -0.032219,-0.00539 -0.061596,-0.011977 -0.08822,-0.018979 -0.026624,-0.007 -0.050086,-0.014384 -0.071618,-0.023197 -0.02152,-0.00882 -0.040679,-0.018696 -0.057599,-0.029523 -0.00849,-0.00542 -0.016466,-0.011449 -0.023869,-0.017397 -0.00738,-0.00596 -0.01435,-0.011928 -0.020758,-0.018451 -0.00639,-0.00652 -0.012174,-0.013449 -0.017647,-0.020561 -0.00541,-0.00711 -0.010447,-0.014413 -0.015051,-0.022141 -0.00922,-0.015459 -0.016748,-0.032006 -0.022836,-0.050084 -0.00615,-0.018079 -0.011064,-0.037617 -0.014536,-0.058518 -0.00357,-0.020903 -0.00541,-0.043553 -0.00677,-0.06748 -0.00136,-0.023928 -0.00184,-0.049287 -0.0016,-0.076442 2.927e-4,-0.027155 0.00121,-0.055872 0.00258,-0.08646 2.557e-4,-0.00545 0.00121,-0.011621 0.00307,-0.018451 0.00197,-0.00684 0.00479,-0.014183 0.00836,-0.022141 0.00689,-0.015919 0.017068,-0.033963 0.029058,-0.05272 0.012057,-0.018757 0.025885,-0.038588 0.041515,-0.057991 0.01563,-0.019402 0.032993,-0.038554 0.050848,-0.05641 l 0.128722,-0.1286538 1.5070409,-5.297e-4 c 0.2071861,-6.58e-5 0.4067987,-5.482e-4 0.5905699,-0.00158 0.1837726,-0.00104 0.3514741,-0.00296 0.4945642,-0.00474 0.1430863,-0.0018 0.2615246,-0.00346 0.3466597,-0.00579 0.042573,-0.00117 0.076869,-0.00242 0.1017217,-0.0037 0.024841,-0.00127 0.040187,-0.00289 0.045155,-0.00421 0.00775,-0.00209 0.017547,-0.00742 0.028541,-0.015816 0.010943,-0.0084 0.023143,-0.019853 0.036842,-0.033741 0.013699,-0.013886 0.02875,-0.029946 0.044626,-0.048501 0.015888,-0.018555 0.032796,-0.03928 0.050345,-0.061681 0.035084,-0.044805 0.073032,-0.096574 0.1115715,-0.151831 0.038539,-0.055257 0.077398,-0.1143176 0.1152115,-0.1734457 0.037814,-0.059128 0.074569,-0.1186093 0.1074265,-0.1750277 0.03286,-0.056419 0.06192,-0.1094466 0.08562,-0.1565754 0.0118,-0.023565 0.02236,-0.04589 0.03114,-0.065899 0.0087,-0.020009 0.0161,-0.037616 0.02127,-0.053245 0.0052,-0.015631 0.0084,-0.029111 0.0093,-0.03954 5.22e-4,-0.00521 6.04e-4,-0.00995 0,-0.013706 -6.13e-4,-0.00376 -0.0018,-0.00677 -0.0036,-0.00896 -0.0038,-0.00463 -0.02327,-0.016638 -0.05605,-0.035322 -0.03277,-0.018693 -0.07909,-0.04405 -0.137001,-0.074872 C 8.477958,5.7572957 8.3158419,5.6735822 8.1225736,5.5748507 7.9293076,5.4761193 7.7049719,5.3627173 7.4650594,5.2421929 7.2251484,5.1216688 6.9693737,4.9938552 6.7136142,4.8668328 6.4578544,4.7398107 6.2019422,4.6133885 5.9611309,4.4951633 5.7203207,4.3769377 5.4950482,4.2671828 5.2999843,4.1730496 5.1049169,4.0789155 4.9400314,4.0005767 4.8215085,3.9458303 4.7622489,3.9184573 4.7147082,3.8966983 4.6803502,3.882041 4.6459922,3.8673827 4.6252224,3.859931 4.6196396,3.8598998 Z" />
      <path
         id="path3047"
         style="fill:#b25844;stroke-width:0.0332099"
         d="m 8.8103222,2.6428982 c 0.0047,-5.93e-5 0.01021,5.204e-4 0.01661,0.00211 0.0063,0.00158 0.01359,0.00379 0.02232,0.00737 0.01746,0.00718 0.04033,0.01907 0.0711,0.036376 0.03077,0.017307 0.06925,0.040402 0.118323,0.070643 0.04908,0.030239 0.108718,0.067356 0.181114,0.1133461 0.144793,0.091981 0.341164,0.2182526 0.609253,0.3901217 0.067281,0.043137 0.1320575,0.086063 0.1914968,0.1259985 0.05943,0.039935 0.113797,0.076879 0.159837,0.1096558 0.04602,0.032777 0.08398,0.061106 0.111051,0.082769 0.01353,0.010833 0.02391,0.020102 0.03165,0.027414 0.0077,0.00731 0.01272,0.012519 0.01401,0.015815 6.86e-4,0.00175 3.84e-4,0.00495 -5.22e-4,0.00895 -9.04e-4,0.00401 -0.0022,0.00911 -0.0047,0.015288 -0.0048,0.012343 -0.01271,0.029109 -0.02335,0.049556 -0.02129,0.040899 -0.05373,0.097144 -0.0955,0.1660651 -0.04176,0.068922 -0.09284,0.1503457 -0.151535,0.2414538 -0.05868,0.091106 -0.1251153,0.1919863 -0.1972033,0.2994444 -0.067561,0.1007045 -0.1333485,0.196786 -0.1946065,0.2846832 -0.06126,0.087897 -0.118065,0.1675974 -0.167102,0.2345999 -0.04904,0.067002 -0.09053,0.1211904 -0.121433,0.1592119 -0.01546,0.01901 -0.02807,0.034034 -0.03788,0.044284 -0.0098,0.010243 -0.01681,0.015867 -0.02024,0.016344 -0.0039,5.39e-4 -0.009,4.924e-4 -0.01557,-5.298e-4 -0.0065,-0.00102 -0.01441,-0.00279 -0.02335,-0.00527 -0.01788,-0.00497 -0.04037,-0.012936 -0.06695,-0.023197 -0.02659,-0.010256 -0.05696,-0.023164 -0.09083,-0.037957 -0.03382,-0.014783 -0.07129,-0.031507 -0.111009,-0.050075 C 8.9358662,4.9902304 8.8465302,4.9464179 8.7521962,4.898732 8.6578652,4.8510466 8.5589184,4.7995985 8.4610606,4.7474282 8.3632127,4.695258 8.2661568,4.6419685 8.1761569,4.5913796 8.0861545,4.5407897 8.0030188,4.4925095 7.9322492,4.4495652 c -0.035391,-0.021472 -0.06756,-0.04115 -0.096004,-0.059572 -0.028443,-0.018424 -0.053098,-0.035467 -0.073167,-0.050084 -0.020069,-0.014616 -0.035895,-0.026852 -0.046188,-0.036904 -0.00517,-0.00503 -0.00898,-0.00943 -0.011439,-0.013179 -0.00246,-0.00375 -0.00307,-0.00712 -0.00258,-0.00948 9.911e-4,-0.00515 0.00553,-0.015349 0.013502,-0.030576 0.00799,-0.015226 0.019158,-0.035082 0.033215,-0.059046 0.028111,-0.047923 0.06761,-0.112382 0.114683,-0.1871492 C 7.9113461,3.9288048 7.9662519,3.8434299 8.025149,3.7526291 8.084052,3.6618274 8.1468532,3.565554 8.2104169,3.4695276 8.2739679,3.3735013 8.3382464,3.2779253 8.3993136,3.1874802 8.4603806,3.097035 8.5181033,3.0121752 8.5695324,2.9381189 8.6209594,2.8640618 8.6656714,2.8004624 8.7003072,2.753602 c 0.01731,-0.023431 0.03234,-0.042332 0.04411,-0.056936 0.0118,-0.014605 0.02061,-0.024567 0.02595,-0.028995 0.0075,-0.00629 0.01281,-0.012789 0.01868,-0.017397 0.003,-0.00232 0.0059,-0.00392 0.0093,-0.00527 0.0034,-0.00136 0.0074,-0.00205 0.01192,-0.00211 z m 2.3607218,1.5151469 c 0.0059,0 0.01654,0.00333 0.03113,0.00948 0.0146,0.00615 0.03348,0.01484 0.05553,0.02636 0.04409,0.023039 0.101512,0.056173 0.168144,0.095948 0.06663,0.039776 0.142029,0.086336 0.221593,0.1365426 0.07957,0.050207 0.163622,0.103822 0.246504,0.1581573 0.08288,0.054335 0.164732,0.1091601 0.241313,0.1613206 0.07659,0.052161 0.147432,0.1018237 0.2081,0.1455046 0.06066,0.043681 0.111208,0.08181 0.146344,0.1107109 0.01758,0.014449 0.03109,0.026277 0.04048,0.035848 0.0047,0.00478 0.0085,0.00923 0.01089,0.012653 0.0024,0.00342 0.0035,0.00596 0.0035,0.0079 -2e-6,0.0037 -0.02551,0.045887 -0.07213,0.1191454 -0.04663,0.073259 -0.114488,0.1778121 -0.197721,0.3052434 -0.166459,0.254863 -0.396133,0.6023535 -0.648694,0.9816298 -0.183117,0.2749953 -0.332497,0.4987445 -0.455123,0.6795492 -0.06131,0.0904 -0.11605,0.1703752 -0.164508,0.240399 -0.04846,0.070025 -0.09105,0.1301229 -0.128181,0.1818811 -0.03713,0.051759 -0.06871,0.09514 -0.096,0.1307431 -0.02731,0.035605 -0.05002,0.063313 -0.06902,0.084877 -0.019,0.021564 -0.03448,0.036756 -0.0467,0.046392 -0.0062,0.00481 -0.01138,0.00833 -0.01609,0.010539 -0.0047,0.00223 -0.009,0.00325 -0.01246,0.00316 -0.01089,-2.788e-4 -0.0261,-0.00311 -0.04515,-0.0079 -0.01905,-0.00479 -0.04198,-0.011805 -0.06799,-0.020561 -0.026,-0.00876 -0.0549,-0.018956 -0.08667,-0.031104 -0.03177,-0.012138 -0.06638,-0.026143 -0.102759,-0.04112 -0.07264,-0.029949 -0.152962,-0.064914 -0.237052,-0.1027979 -0.08409,-0.037883 -0.1718844,-0.078372 -0.2579198,-0.1196723 -0.08603,-0.0413 -0.1705191,-0.083156 -0.249099,-0.1233622 -0.07858,-0.040205 -0.151047,-0.078748 -0.2127701,-0.1133462 -0.03087,-0.017299 -0.05919,-0.033978 -0.08408,-0.049028 -0.02489,-0.01505 -0.04662,-0.028882 -0.06435,-0.04112 -0.01773,-0.012247 -0.03159,-0.02277 -0.041,-0.031632 -0.0047,-0.00443 -0.008,-0.00812 -0.01033,-0.011596 -0.0025,-0.00346 -0.0037,-0.00649 -0.0036,-0.00895 6.41e-5,-0.00333 0.002,-0.00936 0.0058,-0.017925 0.0037,-0.00857 0.009,-0.019751 0.01609,-0.033213 0.01421,-0.026925 0.03528,-0.063658 0.06174,-0.1080744 0.02648,-0.044417 0.05861,-0.096894 0.09549,-0.1560487 0.0369,-0.059155 0.07859,-0.124979 0.124038,-0.196116 0.09089,-0.1422736 0.196773,-0.3055476 0.310853,-0.4792168 C 9.9032667,5.9755721 10.025274,5.7918918 10.147785,5.6088702 10.2703,5.4258486 10.393308,5.2435751 10.509496,5.0732441 10.625679,4.9029134 10.7351,4.7443861 10.83021,4.6087889 c 0.04755,-0.067799 0.09177,-0.130062 0.131294,-0.1850441 0.03952,-0.054983 0.07468,-0.1029317 0.10432,-0.1423415 0.02963,-0.039411 0.0537,-0.070122 0.0716,-0.091204 0.009,-0.010539 0.01612,-0.018809 0.02179,-0.024251 0.0058,-0.00545 0.0097,-0.0079 0.01198,-0.0079 z" />
      <path
         id="path1650"
         style="fill:#814231;stroke-width:0.0332099"
         d="m 11.169275,4.1605895 c -0.0022,0 -0.0058,0.00247 -0.01138,0.0079 -0.0058,0.00545 -0.01335,0.013709 -0.02232,0.02425 -0.01792,0.021083 -0.04198,0.051794 -0.0716,0.091204 -0.02963,0.039411 -0.0648,0.08736 -0.104321,0.1423413 -0.03952,0.054983 -0.08321,0.1172467 -0.130774,0.185044 -0.09511,0.1355993 -0.204531,0.2941267 -0.320718,0.4644573 -0.116184,0.170331 -0.239198,0.3526046 -0.36171,0.5356262 -0.122572,0.183022 -0.2445724,0.366702 -0.3586539,0.5403712 -0.11408,0.1736693 -0.22048,0.3369431 -0.311372,0.4792166 -0.04544,0.071137 -0.08715,0.1369603 -0.124031,0.1961149 -0.03688,0.059154 -0.06901,0.1116307 -0.0955,0.1560489 -0.02648,0.044417 -0.04702,0.081149 -0.06124,0.1080744 -0.0071,0.013461 -0.0129,0.024114 -0.01661,0.032686 -0.0037,0.00857 -0.0057,0.014586 -0.0058,0.017925 -4.8e-5,0.00246 0.0012,0.00549 0.0036,0.00895 0.0025,0.00346 0.0063,0.0077 0.01094,0.012124 0.0095,0.00887 0.02327,0.019392 0.041,0.031632 0.01773,0.012248 0.03946,0.026069 0.06435,0.041121 0.02489,0.01505 0.05269,0.031202 0.08355,0.048501 0.06172,0.0346 0.134193,0.073141 0.212771,0.1133461 0.07858,0.040206 0.163583,0.082588 0.249617,0.1238895 0.086028,0.041301 0.1733129,0.081788 0.2574009,0.1196717 0.0841,0.037883 0.164938,0.072848 0.237684,0.1028026 0.03637,0.014977 0.07046,0.028972 0.102238,0.041122 0.03178,0.012138 0.06119,0.022349 0.08719,0.031104 0.026,0.00876 0.04893,0.015761 0.06799,0.02056 0.01905,0.00479 0.03422,0.00764 0.04515,0.0079 0.0035,8.84e-5 0.0073,-9.302e-4 0.01198,-0.00316 0.0047,-0.00223 0.01041,-0.00572 0.01661,-0.010539 0.01218,-0.00964 0.02719,-0.024828 0.04619,-0.046392 0.01902,-0.021565 0.04171,-0.049272 0.06902,-0.084877 0.0273,-0.035605 0.0594,-0.078984 0.09654,-0.1307432 0.03713,-0.051759 0.0792,-0.1123844 0.127661,-0.1824081 0.04847,-0.070025 0.103195,-0.1494694 0.164508,-0.239872 0.122627,-0.1808047 0.272524,-0.4045537 0.455642,-0.6795491 0.252561,-0.3792761 0.482234,-0.7272938 0.648694,-0.9821569 0.08322,-0.1274315 0.150566,-0.2314577 0.197203,-0.3047165 0.04663,-0.073259 0.07265,-0.115439 0.07265,-0.1191453 0,-0.00194 -0.0012,-0.00449 -0.0035,-0.0079 -0.0024,-0.00342 -0.0063,-0.00787 -0.01089,-0.012653 -0.0093,-0.00957 -0.02342,-0.021927 -0.04099,-0.036376 -0.03514,-0.0289 -0.08516,-0.066502 -0.145826,-0.1101833 -0.06066,-0.043675 -0.132043,-0.093338 -0.208626,-0.145498 C 12.057004,4.6962468 11.975159,4.6414226 11.89228,4.5870867 11.809397,4.532752 11.725857,4.4791378 11.646296,4.4289294 11.566726,4.378723 11.49133,4.3321636 11.424701,4.2923872 c -0.06663,-0.039776 -0.12458,-0.072908 -0.16866,-0.095948 -0.02203,-0.011522 -0.04093,-0.020733 -0.05553,-0.026886 -0.0146,-0.00615 -0.02517,-0.00895 -0.03115,-0.00895 z" />
      <path
         id="path3084"
         style="fill:#814231;stroke-width:0.0332099"
         d="M 4.7972954,7.5118418 C 4.7429793,7.633315 4.6599443,7.7957131 4.688835,7.9641709 4.8536171,8.2086471 4.8632457,8.2101303 6.1278939,8.2219675 l 1.1318384,0.010539 0.1261053,0.2588516 c 0.1534729,0.314722 0.2684101,0.076497 -0.828769,1.7249729 -0.5114825,0.768485 -0.9467231,1.397621 -0.9673306,1.39811 l -0.1312948,0.141816 c 0.054193,0.07708 0.094098,0.135748 0.1229919,0.181353 0.01445,0.0228 0.026217,0.04253 0.035809,0.05957 0.00959,0.01703 0.017118,0.03164 0.022836,0.04428 0.00577,0.01264 0.00959,0.02358 0.012457,0.03322 0.00283,0.0096 0.00431,0.01833 0.00517,0.02635 0.00184,0.01608 0.001,0.02996 0.001,0.04798 0,0.0075 -0.00332,0.02771 -0.00935,0.05905 -0.00603,0.03133 -0.014978,0.07404 -0.026476,0.126525 -0.02297,0.104956 -0.05605,0.24948 -0.097036,0.423336 -0.040998,0.173852 -0.090211,0.377128 -0.1442696,0.598887 -0.054058,0.221762 -0.1132189,0.461971 -0.1754068,0.710655 -0.062199,0.248684 -0.1208802,0.487924 -0.1738488,0.706962 -0.052964,0.219042 -0.1000487,0.417763 -0.1390789,0.586764 -0.039031,0.169001 -0.069909,0.3079 -0.090297,0.406464 -0.010204,0.04929 -0.018188,0.08868 -0.022836,0.116516 -0.00467,0.02785 -0.00615,0.04411 -0.00467,0.04798 6.678e-4,0.0017 0.00849,0.0036 0.022836,0.0054 0.014412,0.0016 0.035527,0.0031 0.062802,0.0048 0.05455,0.0029 0.1338635,0.0059 0.234568,0.0085 0.1007013,0.0024 0.2229462,0.0043 0.3627493,0.0064 0.1398019,0.0019 0.2972943,0.0043 0.4691338,0.0059 0.3436789,0.003 0.744404,0.0055 1.1738748,0.0069 0.4294694,0.0013 0.8873834,0.0015 1.3461656,0.001 0.4351466,-3.72e-4 0.8692736,-0.0017 1.2812986,-0.0036 -0.0025,-2.8e-4 -0.006,-1.87e-4 -0.0084,-5.58e-4 -0.0098,-0.0016 -0.01772,-0.0035 -0.02387,-0.0059 -0.0061,-0.0023 -0.0107,-0.0048 -0.01401,-0.0074 -0.0033,-0.0025 -0.005,-0.0054 -0.0063,-0.008 -0.0012,-0.0024 -0.0021,-0.0054 -0.0021,-0.0074 7e-6,-0.0043 0.0021,-0.0069 0.0021,-0.0069 10e-4,-0.0023 0.0016,-0.0083 0.0026,-0.01739 9.53e-4,-0.0091 0.0022,-0.02111 0.0031,-0.03638 0.0017,-0.03054 0.0032,-0.07312 0.0047,-0.125999 0.0014,-0.05288 0.0025,-0.116441 0.0036,-0.188206 0.0011,-0.07176 0.0023,-0.152141 0.0031,-0.239345 0.0017,-0.17441 0.0025,-0.376109 0.0031,-0.591508 5.67e-4,-0.215398 9.71e-4,-0.444493 5.22e-4,-0.673222 -4.49e-4,-0.228731 -0.0017,-0.457241 -0.0031,-0.671642 -0.0014,-0.214402 -0.0031,-0.41435 -0.0052,-0.586765 -0.0022,-0.172413 -0.0048,-0.316875 -0.0079,-0.419644 -0.0015,-0.05137 -0.0031,-0.09247 -0.0047,-0.121249 -8.32e-4,-0.01438 -0.0017,-0.02565 -0.0026,-0.03375 -8.69e-4,-0.008 -0.0017,-0.01286 -0.0026,-0.01422 -0.01338,-0.101759 -0.02168,-0.125389 -0.02168,-0.125389 -0.02175,-1.1e-5 -0.116823,5.8e-5 -0.141177,-0.0022 -0.01835,-0.0017 -0.03571,-0.0036 -0.05189,-0.0053 -0.01618,-0.0017 -0.03147,-0.0035 -0.04619,-0.0064 -0.01471,-0.0028 -0.0286,-0.0065 -0.04255,-0.01156 -0.01396,-0.0051 -0.02762,-0.01156 -0.04152,-0.02003 -0.01391,-0.0083 -0.028,-0.01826 -0.04255,-0.0311 -0.01456,-0.01284 -0.02976,-0.0285 -0.04566,-0.04692 -0.01592,-0.01842 -0.03287,-0.03971 -0.05085,-0.06484 -0.018,-0.02513 -0.03683,-0.05403 -0.0576,-0.08699 -0.02077,-0.03296 -0.04321,-0.07038 -0.06746,-0.112297 -0.02425,-0.0419 -0.05044,-0.08826 -0.07889,-0.140233 -0.0569,-0.10412 -0.122971,-0.229322 -0.200849,-0.380278 -0.07788,-0.150956 -0.1674,-0.327635 -0.2719315,-0.53457 C 8.4056795,10.437024 8.2863707,10.199927 8.1495324,9.9280353 7.8709554,9.3745191 7.6122703,8.8654066 7.4204014,8.4909134 7.3244717,8.3036671 7.2453191,8.1498121 7.1884293,8.0412193 7.1315429,7.9326266 7.0971355,7.868788 7.0908641,7.8614469 c -0.00505,-0.0058 -0.011318,-0.010625 -0.020241,-0.015293 -0.00898,-0.00469 -0.0205,-0.00909 -0.035809,-0.012652 -0.01531,-0.00358 -0.034444,-0.00684 -0.058633,-0.00948 -0.0242,-0.00264 -0.053677,-0.00449 -0.089252,-0.00632 -0.071163,-0.00377 -0.1673387,-0.00653 -0.2989176,-0.00795 C 6.4564328,7.8084306 6.2897704,7.808329 6.0778793,7.8082172 5.925559,7.808197 5.790601,7.8075855 5.6715382,7.8055658 c -0.05953,-9.951e-4 -0.1151376,-0.00245 -0.1671027,-0.00419 -0.051956,-0.00183 -0.099901,-0.00408 -0.1447883,-0.00684 -0.044884,-0.00274 -0.086768,-0.00602 -0.1250688,-0.01 -0.038305,-0.00398 -0.073143,-0.00888 -0.1053495,-0.014231 -0.032219,-0.00541 -0.061596,-0.011449 -0.08822,-0.018454 -0.026624,-0.00703 -0.050615,-0.014915 -0.072135,-0.023719 -0.02152,-0.00877 -0.040679,-0.018169 -0.057599,-0.028993 -0.00849,-0.00541 -0.016466,-0.011449 -0.023869,-0.017395 -0.00738,-0.00592 -0.01435,-0.011928 -0.020758,-0.018454 -0.00639,-0.00653 -0.012174,-0.013446 -0.017647,-0.020557 -0.00541,-0.00714 -0.010447,-0.014415 -0.015051,-0.022137 -0.00922,-0.015455 -0.016748,-0.032533 -0.022836,-0.050611 -0.00615,-0.018078 -0.01058,-0.037092 -0.014007,-0.057987 z"
         sodipodi:nodetypes="cccccsccscccsssccsssssccscsscscccccccccccsccsssscccccssccccsssssssssccsscccccssccccccccccc" />
      <path
         id="path1642"
         style="fill:#814231;stroke-width:0.0332099"
         d="m 6.4590472,1.1047335 c -0.00197,-5.23e-5 -0.00517,0.0013 -0.00934,0.00474 -0.00418,0.00344 -0.00922,0.00854 -0.015568,0.015288 -0.012641,0.013472 -0.029635,0.033758 -0.049816,0.059045 -0.040376,0.05058 -0.094409,0.1225496 -0.157769,0.2098254 C 6.1631992,1.4809132 6.0905466,1.5831928 6.0137821,1.6930818 5.9370114,1.8029713 5.8561642,1.9205028 5.7755814,2.0389191 5.6949987,2.1573358 5.6147933,2.2766439 5.5399766,2.3895012 5.4651611,2.5023587 5.3954909,2.6089129 5.3360282,2.7021253 5.2765722,2.7953377 5.2273221,2.8751354 5.1927968,2.9346166 c -0.017265,0.029741 -0.030731,0.054612 -0.039954,0.07328 -0.00467,0.00934 -0.00799,0.016961 -0.010326,0.023197 -0.00246,0.00624 -0.00357,0.010797 -0.00357,0.013707 0,0.00191 0.0012,0.00463 0.00406,0.0079 0.00295,0.00328 0.00738,0.00758 0.012973,0.012124 0.011318,0.00912 0.028074,0.020589 0.049299,0.034267 0.04245,0.027358 0.1032469,0.062731 0.1764447,0.1038564 0.073205,0.041127 0.158898,0.088132 0.251174,0.1370695 0.092277,0.048939 0.1909504,0.099983 0.2906134,0.1507768 0.099655,0.050795 0.1999199,0.1009178 0.2952849,0.1476134 0.095364,0.046696 0.1858042,0.089884 0.2651854,0.1265259 0.079391,0.03664 0.148084,0.066883 0.1997981,0.087513 0.025861,0.010317 0.047602,0.018527 0.064351,0.023723 0.016748,0.0052 0.028591,0.00753 0.034764,0.00686 0.00295,-3.16e-4 0.00627,-0.00192 0.010326,-0.00421 0.00406,-0.0023 0.00824,-0.00516 0.013502,-0.00948 0.010447,-0.00866 0.023549,-0.021488 0.03892,-0.038485 0.015371,-0.016998 0.033448,-0.038638 0.053972,-0.064318 0.020524,-0.02568 0.043618,-0.055455 0.069539,-0.090149 0.051861,-0.069395 0.11449,-0.1572095 0.1894285,-0.2646538 0.074938,-0.1074447 0.1620545,-0.2345865 0.2620717,-0.3827406 0.08271,-0.1225129 0.1595804,-0.2381981 0.2283383,-0.3437284 0.068765,-0.1055311 0.1294047,-0.20102 0.1795596,-0.2820472 0.050147,-0.081027 0.089867,-0.1476378 0.1167609,-0.1966423 0.01344,-0.024502 0.023856,-0.044486 0.03062,-0.059572 0.00677,-0.015088 0.00984,-0.02532 0.00934,-0.03005 -2.374e-4,-0.00226 -0.00184,-0.0056 -0.00467,-0.00948 -0.00295,-0.00389 -0.00701,-0.0083 -0.012457,-0.013707 -0.010822,-0.010821 -0.02639,-0.024861 -0.046188,-0.041122 C 7.8823634,2.0201232 7.8261167,1.9777844 7.7584888,1.9287585 7.6908671,1.8797314 7.6115633,1.824352 7.5265167,1.7658565 7.4414699,1.7073616 7.3506043,1.6454336 7.2587365,1.5845028 7.166865,1.5235717 7.0743713,1.4631742 6.9862861,1.4068394 6.898202,1.3505043 6.8145204,1.2986601 6.7408203,1.2539541 6.6671238,1.209248 6.6032282,1.1719248 6.5545156,1.1458797 c -0.024348,-0.013023 -0.045106,-0.02301 -0.061239,-0.03005 -0.016121,-0.00703 -0.027693,-0.010895 -0.03426,-0.011068 z" />
      <path
         id="path7872"
         style="fill:#1c1208;stroke-width:0.0332099"
         d="m 10.034292,16.132243 c 0.822368,-0.02438 1.343263,-0.145426 2.14741,-0.203896 0.0051,-0.0128 0.0041,-0.02077 0.0062,-0.03135 0.0019,-0.01927 0.22531,0.494368 0.0057,-0.08264 0.04195,-0.828538 0.08462,-1.616249 0.127741,-2.457213 0.0031,-0.03906 0.0069,-0.07443 0.01138,-0.106702 0.0046,-0.03226 0.0099,-0.06142 0.01617,-0.08803 0.0063,-0.02659 0.01336,-0.0506 0.02156,-0.0726 1.582035,-0.74589 1.73562,-2.835163 1.641144,-3.5872942 C 12.716437,9.5659478 11.131319,8.8521412 9.2510504,8.0367743 9.0813484,7.9623117 8.9358684,7.8989995 8.8110774,7.8453243 8.6862864,7.79165 8.5821494,7.7476361 8.4951834,7.7118331 8.0476911,7.6426156 7.9379136,7.6051104 8.3045564,8.3710118 c 0.4988198,1.0317514 1.620977,2.8542142 1.4171468,3.5049702 -0.01303,0.01741 -0.02632,0.03311 -0.03999,0.0472 -0.013681,0.01409 -0.027771,0.02656 -0.042401,0.03751 -0.01463,0.01094 -0.0298,0.02038 -0.04571,0.02833 -0.01591,0.008 -0.03257,0.01445 -0.05011,0.01959 -0.01753,0.0052 -0.03597,0.0089 -0.05545,0.01132 -0.0014,1.85e-4 -0.0028,8.5e-5 -0.0042,2.79e-4 -0.04829,1.234686 0.1172937,2.891405 0.097354,4.144132 0.1668585,4.24e-4 0.1454472,-0.0031 0.4530958,-0.0321 z"
         sodipodi:nodetypes="ccccccccccsccccccccccc" />
      <path
         style="fill:#000000;stroke-width:0.03321"
         d="M 4.0742023,16.91796 C 3.9074794,16.917825 3.7285045,16.724202 3.7577567,16.53506 3.7433207,16.45811 3.8822179,15.850722 4.2556865,14.357731 4.7691232,12.305173 4.773121,12.286332 4.7145179,12.195955 4.6820005,12.1458 3.9006217,11.086145 2.9781226,9.8411488 1.2642766,7.5281569 1.216441,7.45602 1.2734331,7.2704555 1.3119099,7.1451888 5.8604276,0.30768476 6.0109158,0.14889845 6.1692739,8.4097042e-4 6.2532274,-0.03693535 6.4548244,0.04112294 c 0.039781,0.01602844 0.4921417,0.3027349 1.0052498,0.63712549 0.5131095,0.33439027 1.0784003,0.70067977 1.256204,0.81397717 0.872908,0.556226 1.4458618,0.9256626 2.0726828,1.3364533 0.377618,0.247477 0.863362,0.5611013 1.079428,0.6969443 0.216067,0.135844 0.747343,0.4795338 1.180614,0.763756 0.43327,0.2842221 1.140908,0.7409132 1.572531,1.0148692 1.437178,0.9121936 1.39963,0.7984511 0.638228,1.9332894 l -0.507533,0.7564588 -0.01865,1.5109076 c -0.02796,2.2664458 -0.242398,2.8841898 -1.294416,3.7291418 l -0.281168,0.225826 -0.01661,1.556649 c -0.01861,1.744823 0.03617,1.702954 -0.224476,1.835861 l -0.124262,0.05764 c -0.107129,0.02727 -8.5800771,0.03498 -8.7184685,0.008 z m 8.1074967,-0.989687 c 0.01675,-0.01033 0.02977,-0.62344 0.02979,-1.402802 6.6e-5,-1.643873 -0.03185,-1.508075 0.431721,-1.837413 0.619931,-0.440424 0.973803,-0.953731 1.114245,-1.616258 0.04611,-0.217497 0.07112,-1.4340644 0.02949,-1.4340644 -0.01029,0 -0.08878,0.07613 -0.174371,0.1691915 C 13.329837,10.114305 13.520534,10.17195 10.757405,8.9438827 8.5111897,7.9455615 8.2689015,7.8458113 8.216789,7.8979133 8.205725,7.9089934 8.5992882,8.7238718 9.0914042,9.7087644 10.059342,11.645943 10.062444,11.654079 9.9211947,11.885691 9.8192882,12.052793 9.7129761,12.105957 9.5181602,12.087243 9.2245192,12.059032 9.2541442,12.106047 8.1594328,9.9309133 7.6022803,8.8238828 7.125917,7.8941073 7.1008468,7.8647467 7.0609058,7.817977 6.9354094,7.8113472 6.0878437,7.8112373 4.8692764,7.8110515 4.778337,7.7738468 4.8012208,7.2844482 c 0.00197,-0.043556 0.06119,-0.136119 0.1326215,-0.2075421 L 5.0627883,6.9479855 6.5695931,6.9475209 C 7.3983368,6.9472423 8.1088439,6.9383642 8.1484995,6.9277332 8.2726079,6.8944502 8.8443842,6.0002847 8.7866252,5.9298093 8.7259022,5.855715 4.7088685,3.8606658 4.6193653,3.8601482 4.5470093,3.8597764 2.2474791,7.2546481 2.2474791,7.3618936 c 0,0.026812 0.7286157,1.028943 1.619146,2.2269633 1.8695072,2.5150281 1.8018168,2.4187461 1.8018168,2.5628731 0,0.06038 -0.2035316,0.923649 -0.4522929,1.918384 -0.2487589,0.994737 -0.4425794,1.83391 -0.4307116,1.864833 0.021335,0.05561 7.3061266,0.04901 7.3962646,-0.0066 z m 1.713695,-8.2331341 c 0.442092,-0.6574937 0.800796,-1.2165174 0.797117,-1.2422743 -0.0086,-0.060489 -1.310151,-0.9010393 -1.362219,-0.8797538 -0.07415,0.030313 -1.733296,2.5455924 -1.733296,2.6276924 0,0.081141 1.314224,0.7149023 1.444775,0.6967182 0.02741,-0.00386 0.411533,-0.5448889 0.853623,-1.2023825 z m -2.270218,-1.229756 c 0.505119,-0.7585524 0.918397,-1.3913159 0.918397,-1.4061406 0,-0.062505 -1.278407,-0.9006238 -1.373745,-0.9006238 -0.06947,0 -1.9939148,2.8749326 -1.9959458,2.981757 -0.0015,0.078753 1.2883758,0.6979667 1.4631988,0.7024186 0.0556,0.00142 0.255617,-0.2774286 0.988095,-1.3774112 z M 9.8630397,4.4058177 C 10.15139,3.9759868 10.346694,3.6536045 10.335792,3.6254585 10.325585,3.5990811 10.097004,3.436324 9.8278572,3.263776 8.7555062,2.5763004 8.8296772,2.6180156 8.7690472,2.668278 8.6835822,2.7391327 7.717328,4.1990134 7.7014684,4.2812517 7.6868714,4.3568976 9.1978272,5.1624373 9.3218912,5.1451576 9.3493012,5.141338 9.5928092,4.8086384 9.8630397,4.4058177 Z M 7.4191545,3.0295885 C 7.7499855,2.539534 7.9878431,2.1552671 7.9837788,2.1174201 7.9760315,2.0454859 6.5625162,1.1079616 6.4575383,1.1051473 6.3951796,1.1034748 5.1370259,2.9523159 5.1370259,3.0456259 c 0,0.061077 1.5451717,0.8485916 1.644055,0.8379102 0.046483,-0.00502 0.2380038,-0.2613317 0.6380736,-0.8539476 z"
         id="path4955"
         sodipodi:nodetypes="ccssssccsssssscccsccccccccsssccssssssccccccscsssssccssssssssscssscsssssscssss" />
    </g>
  </g>
</svg>
