<?xml version="1.0" encoding="UTF-8" standalone="no"?>
<svg
   id="Icons"
   viewBox="0 0 32 32"
   version="1.1"
   sodipodi:docname="family_active.svg"
   xml:space="preserve"
   width="32"
   height="32"
   inkscape:version="1.2.1 (9c6d41e410, 2022-07-14)"
   xmlns:inkscape="http://www.inkscape.org/namespaces/inkscape"
   xmlns:sodipodi="http://sodipodi.sourceforge.net/DTD/sodipodi-0.dtd"
   xmlns="http://www.w3.org/2000/svg"
   xmlns:svg="http://www.w3.org/2000/svg"
   xmlns:rdf="http://www.w3.org/1999/02/22-rdf-syntax-ns#"
   xmlns:cc="http://creativecommons.org/ns#"
   xmlns:dc="http://purl.org/dc/elements/1.1/"><sodipodi:namedview
     id="namedview29"
     pagecolor="#505050"
     bordercolor="#ffffff"
     borderopacity="1"
     inkscape:showpageshadow="0"
     inkscape:pageopacity="0"
     inkscape:pagecheckerboard="1"
     inkscape:deskcolor="#505050"
     showgrid="false"
     inkscape:zoom="15.129139"
     inkscape:cx="8.6918363"
     inkscape:cy="12.128912"
     inkscape:window-width="2560"
     inkscape:window-height="1351"
     inkscape:window-x="-9"
     inkscape:window-y="1341"
     inkscape:window-maximized="1"
     inkscape:current-layer="Icons" /><defs
     id="defs4"><style
       id="style2">.cls-1{fill:#ffda8f;}.cls-2{fill:#ffe9bd;}.cls-3{fill:none;stroke:#45413c;stroke-linecap:round;stroke-linejoin:round;}.cls-4{fill:#ff6242;}.cls-5{fill:#ffa694;}.cls-6{fill:#ffbe3d;}.cls-7{fill:#614b44;}.cls-8{fill:#947063;}.cls-9{fill:#45413c;opacity:0.15;}</style></defs><title
     id="title6">109-baby-2</title><path
     id="path1768"
     style="fill:#fdd1b2;stroke-width:0.0660651"
     d="m 15.828504,29.215485 c 2.973542,0.07017 5.874141,-1.548995 8.011743,-3.619412 1.588077,-1.507212 2.760107,-3.467803 3.253296,-5.606674 0.715314,-0.729337 2.22706,-0.09349 2.703425,-1.261689 1.005418,-1.341584 -0.101357,-3.874454 -1.852388,-3.731455 -1.198886,0.09722 -0.804675,-1.452408 -1.263569,-2.150141 -1.034135,-2.526944 -3.913874,-6.9544604 -10.868964,-7.0729698 -0.12562,9.8154538 -0.081,15.6302388 0.01646,23.4423408 z"
     sodipodi:nodetypes="cssccccc" /><path
     id="path1768-0"
     style="fill:#fde7d4;fill-opacity:1;stroke-width:0.0660651"
     d="M 15.860383,29.178101 C 12.886841,29.248268 9.9862418,27.629107 7.8486393,25.55869 6.2605629,24.051478 5.0885326,22.090886 4.5953435,19.952015 3.8800301,19.222678 2.368283,19.858528 1.8919183,18.690327 0.88650034,17.348743 1.9932761,14.815873 3.7443066,14.958871 4.9431929,15.056095 4.5489818,13.506463 5.0078758,12.808731 6.0420111,10.281786 8.9217493,5.8542704 15.87684,5.7357611 c 0.12562,9.8154539 0.081,15.6302379 -0.01646,23.4423399 z"
     sodipodi:nodetypes="cssccccc" /><path
     style="fill:#333333;stroke-width:0.0625445"
     d="M 14.588912,30.531824 C 9.5027015,30.011215 4.9261458,26.32202 3.370605,21.445803 1.4178122,21.013316 -0.1972653,19.1616 0.01957151,17.10511 0.02439995,15.25579 1.5334432,13.653803 3.2889369,13.244778 3.910351,11.871586 4.5334407,10.414024 5.5035136,9.2100298 6.6135591,7.7991095 8.0106684,6.6250727 9.5493453,5.7077505 7.7500517,5.0253186 6.4653193,3.2564611 6.418045,1.3255157 h 1.859023 c 0.074323,1.6550096 1.6812183,3.0270248 3.336481,2.7194434 -0.290188,-0.6007844 -1.559651,-2.6840295 -0.454748,-2.7194434 0.448944,0.1013834 1.247608,-0.2119503 1.459305,0.1707752 0.108408,1.5855553 1.65339,2.7314107 3.19803,2.577712 5.596175,-0.1488316 11.00279,3.66147 12.744037,8.9826251 1.367981,0.57456 2.98393,1.600887 3.322903,3.282162 0.54205,2.146369 -0.857365,4.512604 -3.022436,5.024215 -0.797644,0.575618 -0.983217,1.964177 -1.495932,2.795064 -2.447587,4.105945 -7.202332,6.695404 -11.988571,6.41521 -0.262715,-0.0049 -0.525847,-0.0128 -0.787225,-0.04145 z M 27.092978,19.961688 c 0.361678,-0.597638 1.4178,-0.168932 2.289068,-0.98207 1.245458,-1.259866 0.630863,-3.770958 -1.22869,-3.902702 -0.66628,0.02719 -1.187983,-0.07158 -1.194339,-0.835959 -0.913214,-3.233653 -3.317552,-6.0545782 -6.439053,-7.3323781 0.954714,2.1749215 0.206111,4.9606771 -1.834354,6.2378861 -2.448456,1.741125 -6.188759,0.524397 -7.262927,-2.24119 -0.178802,-0.637213 -0.920102,-2.2252911 0.321016,-1.8867846 0.661309,0.018398 1.48905,-0.2381532 1.279159,0.7796198 0.487961,2.1462348 3.461426,3.0556488 5.028633,1.4747598 C 19.70989,9.9090942 19.192459,6.9984991 17.229648,6.2020811 15.598607,5.6639888 13.797006,6.099752 12.200287,6.5884979 8.4903629,7.8654917 5.6415017,11.172666 4.8088705,14.991491 c -1.2330838,-0.05071 -2.6401758,0.49286 -2.8902819,1.84132 -0.3855557,1.524826 1.0861167,2.790639 2.5813833,2.823315 0.4561265,0.472687 0.6652296,1.511198 0.9829439,2.072592 4.7038212,10.069647 18.7926532,9.163763 21.6100622,-1.76703 z m -11.697236,5.065577 c -1.593797,-0.199476 -3.119926,-1.132165 -3.90462,-2.550345 0.5291,-0.310641 1.0582,-0.621281 1.5873,-0.931921 1.021355,1.706776 3.572682,2.229946 5.065907,0.839627 0.485398,-0.704386 0.889115,-1.024053 1.554228,-0.373667 0.985082,0.266201 0.798626,0.923113 0.02271,1.480289 -1.099208,1.134562 -2.758383,1.731074 -4.325525,1.536017 z M 7.5481549,17.430426 c 0.098818,-2.03058 2.5168391,-3.446191 4.3347451,-2.517252 0.876242,0.1993 2.522389,2.458768 1.448092,2.799003 -0.48091,-0.0579 -1.193581,0.115954 -1.52981,-0.08663 -0.01986,-1.458891 -2.3613278,-1.453444 -2.4092788,0.0066 -0.5386602,0.123513 -1.2422127,0.03917 -1.8437483,0.08342 z m 10.7576561,0.04293 c 0.07835,-2.173563 2.748352,-3.565528 4.583442,-2.447824 0.876049,0.487199 1.777931,1.788323 1.459305,2.688357 -0.581584,-0.01099 -1.163168,-0.02199 -1.744752,-0.03298 -0.02292,-1.434122 -2.288139,-1.574149 -2.421659,-0.127581 -0.181647,0.35729 -1.014983,0.06289 -1.457956,0.158853 -0.22634,-0.03455 -0.514278,0.129727 -0.41838,-0.238825 z"
     id="path846-8"
     sodipodi:nodetypes="cccccccccccccccccccccccccccccccccccccccccccccccccccccccc" /><metadata
     id="metadata1802"><rdf:RDF><cc:Work
         rdf:about=""><dc:title>109-baby-2</dc:title></cc:Work></rdf:RDF></metadata></svg>
