<?xml version="1.0" encoding="UTF-8" standalone="no"?>
<svg
   id="Icons"
   viewBox="0 0 32 32"
   version="1.1"
   sodipodi:docname="family.svg"
   xml:space="preserve"
   width="32"
   height="32"
   inkscape:version="1.2.1 (9c6d41e410, 2022-07-14)"
   xmlns:inkscape="http://www.inkscape.org/namespaces/inkscape"
   xmlns:sodipodi="http://sodipodi.sourceforge.net/DTD/sodipodi-0.dtd"
   xmlns="http://www.w3.org/2000/svg"
   xmlns:svg="http://www.w3.org/2000/svg"
   xmlns:rdf="http://www.w3.org/1999/02/22-rdf-syntax-ns#"
   xmlns:cc="http://creativecommons.org/ns#"
   xmlns:dc="http://purl.org/dc/elements/1.1/"><sodipodi:namedview
     id="namedview29"
     pagecolor="#505050"
     bordercolor="#ffffff"
     borderopacity="1"
     inkscape:showpageshadow="0"
     inkscape:pageopacity="0"
     inkscape:pagecheckerboard="1"
     inkscape:deskcolor="#505050"
     showgrid="false"
     inkscape:zoom="15.129139"
     inkscape:cx="11.996717"
     inkscape:cy="12.062815"
     inkscape:window-width="2560"
     inkscape:window-height="1351"
     inkscape:window-x="-9"
     inkscape:window-y="1341"
     inkscape:window-maximized="1"
     inkscape:current-layer="Icons" /><defs
     id="defs4"><style
       id="style2">.cls-1{fill:#ffda8f;}.cls-2{fill:#ffe9bd;}.cls-3{fill:none;stroke:#45413c;stroke-linecap:round;stroke-linejoin:round;}.cls-4{fill:#ff6242;}.cls-5{fill:#ffa694;}.cls-6{fill:#ffbe3d;}.cls-7{fill:#614b44;}.cls-8{fill:#947063;}.cls-9{fill:#45413c;opacity:0.15;}</style></defs><title
     id="title6">109-baby-2</title><path
     id="path1768"
     style="fill:#4d4d4d;stroke-width:0.0660651;fill-opacity:0.26503339"
     d="M 15.876953 5.7363281 C 8.9218694 5.8548373 6.0419468 10.281651 5.0078125 12.808594 C 4.548919 13.506325 4.9430257 15.056208 3.7441406 14.958984 C 1.9931119 14.815987 0.88716117 17.34787 1.8925781 18.689453 C 2.3689423 19.857653 3.8803904 19.221836 4.5957031 19.951172 C 5.0888917 22.090041 6.2615346 24.051383 7.8496094 25.558594 C 9.9792415 27.621291 12.866222 29.235109 15.828125 29.177734 C 15.828287 29.190715 15.827963 29.201852 15.828125 29.214844 C 18.801664 29.285014 21.702244 27.666118 23.839844 25.595703 C 25.427919 24.088493 26.600561 22.129103 27.09375 19.990234 C 27.809063 19.260898 29.32051 19.896713 29.796875 18.728516 C 30.802292 17.386933 29.696342 14.853095 27.945312 14.996094 C 26.746428 15.093314 27.140534 13.543435 26.681641 12.845703 C 25.650757 10.326705 22.784656 5.9204703 15.876953 5.7753906 C 15.876771 5.7611132 15.877136 5.7506225 15.876953 5.7363281 z " /><path
     style="fill:#333333;stroke-width:0.0625445;fill-opacity:1"
     d="M 14.588912,30.531824 C 9.5027015,30.011215 4.9261458,26.32202 3.370605,21.445803 1.4178122,21.013316 -0.1972653,19.1616 0.01957151,17.10511 0.02439995,15.25579 1.5334432,13.653803 3.2889369,13.244778 3.910351,11.871586 4.5334407,10.414024 5.5035136,9.2100298 6.6135591,7.7991095 8.0106684,6.6250727 9.5493453,5.7077505 7.7500517,5.0253186 6.4653193,3.2564611 6.418045,1.3255157 h 1.859023 c 0.074323,1.6550096 1.6812183,3.0270248 3.336481,2.7194434 -0.290188,-0.6007844 -1.559651,-2.6840295 -0.454748,-2.7194434 0.448944,0.1013834 1.247608,-0.2119503 1.459305,0.1707752 0.108408,1.5855553 1.65339,2.7314107 3.19803,2.577712 5.596175,-0.1488316 11.00279,3.66147 12.744037,8.9826251 1.367981,0.57456 2.98393,1.600887 3.322903,3.282162 0.54205,2.146369 -0.857365,4.512604 -3.022436,5.024215 -0.797644,0.575618 -0.983217,1.964177 -1.495932,2.795064 -2.447587,4.105945 -7.202332,6.695404 -11.988571,6.41521 -0.262715,-0.0049 -0.525847,-0.0128 -0.787225,-0.04145 z M 27.092978,19.961688 c 0.361678,-0.597638 1.4178,-0.168932 2.289068,-0.98207 1.245458,-1.259866 0.630863,-3.770958 -1.22869,-3.902702 -0.66628,0.02719 -1.187983,-0.07158 -1.194339,-0.835959 -0.913214,-3.233653 -3.317552,-6.0545782 -6.439053,-7.3323781 0.954714,2.1749215 0.206111,4.9606771 -1.834354,6.2378861 -2.448456,1.741125 -6.188759,0.524397 -7.262927,-2.24119 -0.178802,-0.637213 -0.920102,-2.2252911 0.321016,-1.8867846 0.661309,0.018398 1.48905,-0.2381532 1.279159,0.7796198 0.487961,2.1462348 3.461426,3.0556488 5.028633,1.4747598 C 19.70989,9.9090942 19.192459,6.9984991 17.229648,6.2020811 15.598607,5.6639888 13.797006,6.099752 12.200287,6.5884979 8.4903629,7.8654917 5.6415017,11.172666 4.8088705,14.991491 c -1.2330838,-0.05071 -2.6401758,0.49286 -2.8902819,1.84132 -0.3855557,1.524826 1.0861167,2.790639 2.5813833,2.823315 0.4561265,0.472687 0.6652296,1.511198 0.9829439,2.072592 4.7038212,10.069647 18.7926532,9.163763 21.6100622,-1.76703 z m -11.697236,5.065577 c -1.593797,-0.199476 -3.119926,-1.132165 -3.90462,-2.550345 0.5291,-0.310641 1.0582,-0.621281 1.5873,-0.931921 1.021355,1.706776 3.572682,2.229946 5.065907,0.839627 0.485398,-0.704386 0.889115,-1.024053 1.554228,-0.373667 0.985082,0.266201 0.798626,0.923113 0.02271,1.480289 -1.099208,1.134562 -2.758383,1.731074 -4.325525,1.536017 z M 7.5481549,17.430426 c 0.098818,-2.03058 2.5168391,-3.446191 4.3347451,-2.517252 0.876242,0.1993 2.522389,2.458768 1.448092,2.799003 -0.48091,-0.0579 -1.193581,0.115954 -1.52981,-0.08663 -0.01986,-1.458891 -2.3613278,-1.453444 -2.4092788,0.0066 -0.5386602,0.123513 -1.2422127,0.03917 -1.8437483,0.08342 z m 10.7576561,0.04293 c 0.07835,-2.173563 2.748352,-3.565528 4.583442,-2.447824 0.876049,0.487199 1.777931,1.788323 1.459305,2.688357 -0.581584,-0.01099 -1.163168,-0.02199 -1.744752,-0.03298 -0.02292,-1.434122 -2.288139,-1.574149 -2.421659,-0.127581 -0.181647,0.35729 -1.014983,0.06289 -1.457956,0.158853 -0.22634,-0.03455 -0.514278,0.129727 -0.41838,-0.238825 z"
     id="path846-8"
     sodipodi:nodetypes="cccccccccccccccccccccccccccccccccccccccccccccccccccccccc" /><metadata
     id="metadata1802"><rdf:RDF><cc:Work
         rdf:about=""><dc:title>109-baby-2</dc:title></cc:Work></rdf:RDF></metadata></svg>
