<?xml version="1.0" encoding="UTF-8" standalone="no"?>
<!-- Created with Inkscape (http://www.inkscape.org/) -->

<svg
   width="64"
   height="64"
   viewBox="0 0 16.933333 16.933333"
   version="1.1"
   id="svg5"
   inkscape:version="1.1 (c68e22c387, 2021-05-23)"
   sodipodi:docname="good.svg"
   xmlns:inkscape="http://www.inkscape.org/namespaces/inkscape"
   xmlns:sodipodi="http://sodipodi.sourceforge.net/DTD/sodipodi-0.dtd"
   xmlns="http://www.w3.org/2000/svg"
   xmlns:svg="http://www.w3.org/2000/svg">
  <sodipodi:namedview
     id="namedview7"
     pagecolor="#ffffff"
     bordercolor="#666666"
     borderopacity="1.0"
     inkscape:pageshadow="2"
     inkscape:pageopacity="0.0"
     inkscape:pagecheckerboard="0"
     inkscape:document-units="px"
     showgrid="false"
     inkscape:zoom="4"
     inkscape:cx="43.25"
     inkscape:cy="27.375"
     inkscape:window-width="1600"
     inkscape:window-height="837"
     inkscape:window-x="-8"
     inkscape:window-y="-8"
     inkscape:window-maximized="1"
     inkscape:current-layer="layer1"
     units="px"
     width="64px"
     showguides="false" />
  <defs
     id="defs2">
    <pattern
       id="EMFhbasepattern"
       patternUnits="userSpaceOnUse"
       width="6"
       height="6"
       x="0"
       y="0" />
    <pattern
       id="EMFhbasepattern-0"
       patternUnits="userSpaceOnUse"
       width="6"
       height="6"
       x="0"
       y="0" />
    <pattern
       id="EMFhbasepattern-3"
       patternUnits="userSpaceOnUse"
       width="6"
       height="6"
       x="0"
       y="0" />
    <pattern
       id="EMFhbasepattern-35"
       patternUnits="userSpaceOnUse"
       width="6"
       height="6"
       x="0"
       y="0" />
    <pattern
       id="EMFhbasepattern-2"
       patternUnits="userSpaceOnUse"
       width="6"
       height="6"
       x="0"
       y="0" />
    <pattern
       id="EMFhbasepattern-1"
       patternUnits="userSpaceOnUse"
       width="6"
       height="6"
       x="0"
       y="0" />
    <pattern
       id="EMFhbasepattern-4"
       patternUnits="userSpaceOnUse"
       width="6"
       height="6"
       x="0"
       y="0" />
    <pattern
       id="EMFhbasepattern-8"
       patternUnits="userSpaceOnUse"
       width="6"
       height="6"
       x="0"
       y="0" />
    <pattern
       id="EMFhbasepattern-6"
       patternUnits="userSpaceOnUse"
       width="6"
       height="6"
       x="0"
       y="0" />
  </defs>
  <g
     inkscape:label="Слой 1"
     inkscape:groupmode="layer"
     id="layer1">
    <path
       style="fill:#aeaeae;stroke-width:0.0634734;fill-opacity:1"
       d="m 4.9738667,15.980556 c -0.949943,-0.08167 -1.912432,-0.396936 -2.455359,-0.80425 -0.11113,-0.08338 -0.229702,-0.151583 -0.263493,-0.151583 -0.117641,0 -0.945129,-0.947306 -1.202547,-1.376671 -0.39927996,-0.66599 -0.55385796,-1.205255 -0.55148696,-1.923945 0.0027,-0.805858 0.193385,-1.381845 0.77766996,-2.3485173 0.343182,-0.567777 0.494234,-0.76066 1.279562,-1.633892 l 0.599333,-0.66642 -0.01609,-0.603631 -0.01608,-0.603631 0.260589,0.223054 c 0.258863,0.221578 0.480619,0.30127 0.838329,0.30127 0.370713,0 0.790674,-0.330729 1.557587,-1.226636 1.63087,-1.905183 2.623337,-2.769307 3.945103,-3.434938 l 0.4284843,-0.215781 0.252483,0.29645 c 0.345084,0.405178 0.532417,0.682745 1.035436,1.534182 l 0.431244,0.729944 0.62907,0.0387 c 0.345989,0.02128 0.685617,0.05583 0.75473,0.07676 0.06911,0.02093 0.256283,0.05299 0.41593,0.07124 0.159646,0.01824 0.413165,0.07653 0.563372,0.129525 0.150209,0.05299 0.313173,0.09636 0.362141,0.09636 0.144122,0 1.035236,0.442879 1.358711,0.675274 0.992873,0.713308 0.734705,2.654178 -0.620366,4.663831 -0.402287,0.5966153 -0.800019,1.1651323 -0.838577,1.1986573 -0.02008,0.01745 -0.149321,0.174551 -0.287212,0.349104 -0.860365,1.089099 -2.633706,2.696715 -3.621166,3.282754 -0.9762653,0.579395 -1.5687733,0.810507 -2.7141113,1.058653 -1.217058,0.263685 -2.038928,0.338461 -2.903285,0.264145 z m 2.070543,-3.657528 c 0.384527,-0.08918 0.917267,-0.281243 1.357021,-0.489237 0.530064,-0.250709 1.6131143,-1.088159 2.3171913,-1.79173 1.394824,-1.3938193 2.006364,-2.2799333 2.131913,-3.0891123 0.07817,-0.503752 0.02813,-0.794873 -0.272823,-1.587425 -0.24346,-0.64115 -0.335117,-0.717838 -0.469997,-0.393234 -0.145621,0.350453 -0.974094,1.573591 -1.370278,2.023048 -1.4607923,1.657214 -2.7595783,2.684767 -3.8276313,3.0282833 -0.382248,0.122942 -0.999014,0.221819 -1.257925,0.201664 -0.761871,-0.05931 -1.590255,-0.3666313 -2.003781,-0.7433933 l -0.151508,-0.138038 0.03934,0.190419 c 0.02164,0.104732 0.0702,0.418926 0.107929,0.6982093 0.03773,0.279283 0.125411,0.653269 0.194854,0.831083 0.237693,0.608632 0.918172,1.083143 1.80619,1.259492 0.592452,0.117653 0.892104,0.117647 1.399511,-2.9e-5 z M 3.6999717,5.9225457 c -0.123374,-0.08384 -0.297804,-0.263474 -0.387622,-0.399199 l -0.163307,-0.246772 0.08425,-0.600507 c 0.08545,-0.60903 0.272099,-1.26464 0.461916,-1.622465 0.156719,-0.295433 0.513097,-0.573611 1.000614,-0.78105 1.421565,-0.604876 4.658777,-1.26305 5.03671,-1.024038 0.119212,0.07539 0.114291,0.07926 -0.389691,0.306644 -0.375089,0.169229 -0.615888,0.332557 -1.666295,1.130212 -0.304078,0.230911 -1.33141,1.291845 -1.813326,1.87264 -0.645247,0.777637 -1.106026,1.268938 -1.306036,1.392552 -0.271656,0.167893 -0.583927,0.157686 -0.857214,-0.02801 z"
       id="path870" />
  </g>
</svg>
