<?xml version="1.0" encoding="UTF-8" standalone="no"?>
<!-- Created with Inkscape (http://www.inkscape.org/) -->

<svg
   width="64"
   height="64"
   viewBox="0 0 16.933333 16.933333"
   version="1.1"
   id="svg5"
   inkscape:version="1.1 (c68e22c387, 2021-05-23)"
   sodipodi:docname="good_active.svg"
   xmlns:inkscape="http://www.inkscape.org/namespaces/inkscape"
   xmlns:sodipodi="http://sodipodi.sourceforge.net/DTD/sodipodi-0.dtd"
   xmlns="http://www.w3.org/2000/svg"
   xmlns:svg="http://www.w3.org/2000/svg">
  <sodipodi:namedview
     id="namedview7"
     pagecolor="#ffffff"
     bordercolor="#666666"
     borderopacity="1.0"
     inkscape:pageshadow="2"
     inkscape:pageopacity="0.0"
     inkscape:pagecheckerboard="0"
     inkscape:document-units="px"
     showgrid="false"
     inkscape:zoom="4"
     inkscape:cx="43.375"
     inkscape:cy="27.375"
     inkscape:window-width="1600"
     inkscape:window-height="837"
     inkscape:window-x="-8"
     inkscape:window-y="-8"
     inkscape:window-maximized="1"
     inkscape:current-layer="layer1"
     units="px"
     width="64px"
     showguides="false" />
  <defs
     id="defs2">
    <pattern
       id="EMFhbasepattern"
       patternUnits="userSpaceOnUse"
       width="6"
       height="6"
       x="0"
       y="0" />
    <pattern
       id="EMFhbasepattern-0"
       patternUnits="userSpaceOnUse"
       width="6"
       height="6"
       x="0"
       y="0" />
    <pattern
       id="EMFhbasepattern-3"
       patternUnits="userSpaceOnUse"
       width="6"
       height="6"
       x="0"
       y="0" />
    <pattern
       id="EMFhbasepattern-35"
       patternUnits="userSpaceOnUse"
       width="6"
       height="6"
       x="0"
       y="0" />
    <pattern
       id="EMFhbasepattern-2"
       patternUnits="userSpaceOnUse"
       width="6"
       height="6"
       x="0"
       y="0" />
    <pattern
       id="EMFhbasepattern-1"
       patternUnits="userSpaceOnUse"
       width="6"
       height="6"
       x="0"
       y="0" />
    <pattern
       id="EMFhbasepattern-4"
       patternUnits="userSpaceOnUse"
       width="6"
       height="6"
       x="0"
       y="0" />
    <pattern
       id="EMFhbasepattern-8"
       patternUnits="userSpaceOnUse"
       width="6"
       height="6"
       x="0"
       y="0" />
    <pattern
       id="EMFhbasepattern-6"
       patternUnits="userSpaceOnUse"
       width="6"
       height="6"
       x="0"
       y="0" />
  </defs>
  <g
     inkscape:label="Слой 1"
     inkscape:groupmode="layer"
     id="layer1">
    <g
       id="g18205">
      <path
         id="path7927"
         style="fill:#fc5440;fill-opacity:1;stroke-width:0.265165"
         d="M 8.2646115,0.62786864 C 8.0698628,0.6305793 7.8754234,0.64057711 7.6817013,0.65784096 7.4879554,0.67523424 7.2950676,0.69988394 7.103442,0.73173824 6.9119191,0.76352074 6.7217893,0.80247754 6.5334509,0.84852704 6.3450176,0.89455154 6.1585075,0.94764304 5.974312,1.0076905 5.7901819,1.0678342 5.6084983,1.1348882 5.4296424,1.2087118 5.2506951,1.2824875 5.0747001,1.3629868 4.9020262,1.4500407 4.7294914,1.5369854 4.5603914,1.6304127 4.3950803,1.730127 4.2296461,1.8300809 4.0681304,1.9362641 3.9108721,2.0484538 3.7536184,2.1604347 3.6007215,2.2783394 3.4525022,2.4019206 3.3042992,2.5256109 3.1608829,2.6548924 3.0225542,2.7894938 2.8842991,2.9240692 2.7512256,3.0638655 2.6236123,3.2085897 2.4960273,3.3532156 2.3739859,3.5026647 2.2577431,3.6566242 2.1413542,3.8107956 2.0308615,3.9693813 1.9264972,4.1320477 1.8222344,4.2944322 1.7241531,4.4607742 1.6324583,4.6307251 1.5406595,4.8009797 1.4553338,4.9747342 1.3766599,5.1516235 1.2980932,5.328236 1.2262128,5.5078508 1.1611692,5.6900918 1.0960074,5.8725443 1.0377446,6.0575031 0.98650298,6.2445799 0.93532833,6.4315205 0.89120033,6.6204438 0.85421132,6.8109539 0.81722098,7.0015258 0.78739979,7.193552 0.76481099,7.3866293 0.74240078,7.579642 0.7272309,7.7735641 0.71933573,7.9679889 c -0.008154,0.1945799 -0.009017,0.3895366 -0.002593,0.5844607 0.006511,0.1947833 0.0203015,0.3893949 0.0413411,0.5834268 0.0210291,0.1941206 0.0492977,0.3875257 0.0847495,0.5798095 0.0355933,0.192253 0.0783423,0.3832451 0.12815755,0.5725751 0.049681,0.189333 0.10639262,0.376878 0.17001542,0.56224 0.063634,0.185375 0.134135,0.368437 0.2113566,0.548803 0.07711,0.180365 0.1608841,0.357911 0.2511475,0.532267 0.090449,0.174317 0.1873242,0.345313 0.2904215,0.512631 0.1029726,0.167199 0.212086,0.330611 0.3271118,0.489892 0.1151562,0.159564 0.2361639,0.314874 0.3627686,0.465605 0.1265452,0.150507 0.2585847,0.296337 0.3958415,0.437182 0.1372566,0.140915 0.2796387,0.276747 0.4268473,0.407211 0.1471419,0.130427 0.2990043,0.255399 0.4552693,0.374654 0.1563518,0.119403 0.3170058,0.232999 0.4816245,0.340547 0.1645655,0.107474 0.3329762,0.208831 0.5048787,0.303858 0.171935,0.095 0.3472405,0.1836 0.5255493,0.265617 0.1782905,0.08197 0.3594568,0.157295 0.5431192,0.225826 0.1836248,0.06855 0.3696176,0.130264 0.5575887,0.185002 0.1881087,0.05477 0.3780665,0.102516 0.5694743,0.143143 0.19123,0.04058 0.3837729,0.07402 0.5772259,0.100252 0.1934874,0.02636 0.3877542,0.04549 0.5823931,0.05736 0.1947244,0.01176 0.389681,0.01625 0.5844606,0.01344 0.066009,-8.73e-4 0.1319877,-0.0026 0.1979208,-0.0052 0.065858,-0.0026 0.1316649,-0.0061 0.1974038,-0.01033 0.065708,-0.0043 0.1313423,-0.0095 0.1968873,-0.0155 0.065557,-0.0061 0.1310193,-0.01295 0.1963703,-0.02067 0.065405,-0.0076 0.1306946,-0.01605 0.1958538,-0.02532 0.065252,-0.0092 0.1303698,-0.01915 0.1953374,-0.02997 0.06476,-0.01089 0.1293569,-0.02261 0.1937859,-0.03514 0.06461,-0.01262 0.129036,-0.02605 0.19327,-0.04031 0.06411,-0.01417 0.128021,-0.02916 0.19172,-0.04496 0.06379,-0.0159 0.127354,-0.03261 0.190686,-0.05013 0.06329,-0.01746 0.12634,-0.03572 0.189136,-0.05478 0.06279,-0.01901 0.125325,-0.03882 0.187585,-0.05943 0.0623,-0.02074 0.124314,-0.04227 0.186035,-0.0646 0.06162,-0.02213 0.122953,-0.04504 0.183968,-0.06873 0.06113,-0.02386 0.121942,-0.04849 0.182418,-0.0739 0.06046,-0.02541 0.120583,-0.0516 0.180351,-0.07855 0.05979,-0.0268 0.119222,-0.05436 0.178284,-0.08268 0.05895,-0.02836 0.117518,-0.05748 0.175699,-0.08733 0.05828,-0.02992 0.116161,-0.06058 0.173633,-0.09198 0.05744,-0.03148 0.114458,-0.06369 0.171049,-0.09664 0.05659,-0.03287 0.112752,-0.06646 0.168465,-0.100769 0.05575,-0.03426 0.111047,-0.06923 0.165882,-0.104903 0.05473,-0.03565 0.108995,-0.072 0.162781,-0.109038 0.05389,-0.03721 0.107294,-0.07511 0.160197,-0.113688 0.05287,-0.03843 0.10524,-0.07753 0.157096,-0.117305 0.05185,-0.03982 0.103191,-0.0803 0.153996,-0.12144 0.05084,-0.04104 0.101138,-0.08273 0.150895,-0.125057 0.04965,-0.04243 0.09874,-0.0855 0.147278,-0.129191 0.04863,-0.04382 0.0967,-0.08826 0.144177,-0.133325 0.04744,-0.04487 0.0943,-0.09035 0.14056,-0.136426 0.04625,-0.04609 0.0919,-0.09278 0.136942,-0.140043 0.04506,-0.04748 0.08951,-0.09554 0.133325,-0.144177 0.04386,-0.04836 0.0871,-0.09728 0.129708,-0.146761 0.0425,-0.04958 0.08436,-0.09971 0.125574,-0.150379 0.04131,-0.0508 0.08197,-0.102137 0.121956,-0.153996 0.03994,-0.05168 0.07922,-0.103878 0.117823,-0.156579 0.03875,-0.05273 0.07682,-0.10596 0.114205,-0.15968 0.03721,-0.05378 0.07373,-0.108047 0.109554,-0.162781 0.03585,-0.05466 0.07099,-0.109787 0.10542,-0.165365 0.03448,-0.05571 0.06824,-0.11187 0.101285,-0.168465 0.03294,-0.05642 0.06515,-0.113269 0.09663,-0.170532 0.03157,-0.0573 0.06241,-0.115009 0.0925,-0.173116 0.03003,-0.05818 0.05932,-0.11675 0.08785,-0.1757 0.02866,-0.05889 0.05657,-0.118146 0.08372,-0.177767 0.02712,-0.05977 0.05348,-0.119887 0.07906,-0.180351 0.0254,-0.0603 0.05004,-0.120943 0.0739,-0.181901 0.02404,-0.06101 0.04729,-0.122338 0.06976,-0.183968 0.02232,-0.06155 0.04385,-0.123394 0.0646,-0.185518 0.02095,-0.06226 0.04111,-0.124789 0.06046,-0.187586 0.01924,-0.06279 0.03767,-0.125843 0.05529,-0.189135 0.01751,-0.06316 0.03422,-0.126555 0.05013,-0.19017 0.01614,-0.06369 0.03148,-0.127605 0.04599,-0.191719 0.01443,-0.06423 0.02804,-0.128661 0.04082,-0.19327 0.01271,-0.06443 0.02459,-0.1290279 0.03566,-0.1937871 0.01116,-0.06479 0.0215,-0.129736 0.03101,-0.19482 0.0094,-0.065157 0.01806,-0.1304467 0.02584,-0.1958535 0.0077,-0.065351 0.01461,-0.1308129 0.02067,-0.1963703 0.0062,-0.065543 0.01151,-0.1311773 0.01602,-0.1968873 0.0045,-0.065737 0.0081,-0.1315435 0.01085,-0.1974041 0.0027,-0.065931 0.0046,-0.1319096 0.0057,-0.1979207 0.0012,-0.065951 0.0015,-0.1319295 0.001,-0.1979208 -5.43e-4,-0.065972 -0.0019,-0.1319511 -0.0041,-0.1979205 -0.0065,-0.1947833 -0.0203,-0.389395 -0.04134,-0.5834269 -0.02103,-0.1941205 -0.0493,-0.3875257 -0.08475,-0.5798097 C 16.174262,6.9732022 16.131512,6.7822103 16.081697,6.5928803 16.032016,6.4035471 15.975305,6.2160028 15.911682,6.0306407 15.848048,5.8452655 15.777547,5.6622029 15.700325,5.481837 15.623034,5.3016393 15.539087,5.1242653 15.448661,4.9500864 15.358382,4.7757778 15.261679,4.6047816 15.158756,4.4374562 15.055795,4.2700818 14.946681,4.1064976 14.831645,3.947047 14.716478,3.7876588 14.59547,3.6325209 14.468876,3.4819591 14.342341,3.3312767 14.210301,3.1852748 14.073034,3.0442597 13.935778,2.9033448 13.793396,2.7675131 13.646187,2.6370494 13.499045,2.5066226 13.347183,2.3816506 13.190918,2.2623953 13.034557,2.1431669 12.873904,2.0297439 12.709293,1.9223644 12.544728,1.8148905 12.376317,1.7135339 12.204415,1.6185069 12.03248,1.5235081 11.857174,1.4349072 11.678865,1.3528901 11.500575,1.2709228 11.319409,1.1955948 11.135746,1.1270641 10.952121,1.0585109 10.766129,0.99680058 10.578157,0.94206244 10.390219,0.88730624 10.200434,0.83955824 10.0092,0.79891864 9.8178052,0.75815624 9.6250896,0.72454304 9.4314572,0.69814964 9.2379632,0.67196114 9.0436963,0.65299982 8.8490638,0.64130556 8.6543394,0.62954165 8.4593831,0.62505988 8.2646034,0.62786975 Z m 0.052193,1.56424566 c 0.1722366,-0.00247 0.3446388,0.00218 0.5167643,0.013952 0.1719604,0.011699 0.3435001,0.03049 0.5141804,0.056327 0.1708248,0.025894 0.3406407,0.058823 0.5090128,0.098702 0.168305,0.039982 0.335018,0.086875 0.499712,0.1405599 0.164557,0.053606 0.326959,0.113947 0.486792,0.1808675 0.160112,0.066899 0.317516,0.1403429 0.471805,0.2201416 0.154092,0.079757 0.304944,0.1657852 0.452169,0.2578654 0.147192,0.092125 0.290631,0.1902218 0.429948,0.2940389 0.05922,0.046338 0.117621,0.093716 0.175183,0.1421102 L 3.5811764,12.157397 C 3.5232216,12.084041 3.4668804,12.009436 3.4121945,11.933639 3.3132184,11.790672 3.2201213,11.643786 3.1331419,11.493355 3.0461093,11.343159 2.9652526,11.189549 2.8907793,11.032918 2.8162234,10.876166 2.7481247,10.716522 2.6866575,10.554394 2.6253231,10.392261 2.5706716,10.22779 2.5228431,10.061401 2.4751263,9.8950789 2.4342672,9.7269869 2.4003701,9.557556 2.3663072,9.3880795 2.33924,9.2174016 2.319238,9.0459593 2.299225,8.8745201 2.2862956,8.7024629 2.2804808,8.5302284 2.274742,8.3580259 2.2761231,8.1857962 2.2846163,8.0139808 2.2930168,7.8420556 2.3085319,7.6706879 2.331125,7.5003172 2.353731,7.3300483 2.3833831,7.1609221 2.4200083,6.9933715 2.456683,6.8257995 2.5003006,6.6599487 2.5507498,6.4962441 2.6012029,6.3325903 2.6584402,6.171222 2.7223154,6.0125527 2.7862424,5.8538641 2.856755,5.6980126 2.9336722,5.5453977 3.0104302,5.3927379 3.0935282,5.2434378 3.1827526,5.0978799 3.272218,4.9524612 3.3677286,4.8109192 3.4690399,4.6736163 3.5702084,4.5361705 3.6770977,4.4030761 3.7894339,4.2746744 3.9016631,4.1462663 4.019241,4.022654 4.1418671,3.9041543 4.2646703,3.7856614 4.3924204,3.6723933 4.5247893,3.5646402 4.6570069,3.4569833 4.7937216,3.3549215 4.9345837,3.2587157 5.0755404,3.1624305 5.2205305,3.0720918 5.3691824,2.9879312 5.5178769,2.903752 5.6701079,2.8258262 5.8254852,2.7543537 5.9809068,2.6828396 6.1393443,2.617844 6.3003917,2.5595336 6.4611977,2.501445 6.6244621,2.4500693 6.7897674,2.4055378 6.9552547,2.3607089 7.1226574,2.3227804 7.2915457,2.2918497 7.4603779,2.2612137 7.6305386,2.2375947 7.801592,2.221053 7.9727213,2.2042995 8.144606,2.1946449 8.3168061,2.1921142 Z m 5.1552415,2.5326619 c 0.05777,0.073191 0.113943,0.1476235 0.168465,0.2232422 0.09898,0.1429663 0.192073,0.2898529 0.279053,0.4402831 0.08703,0.150196 0.167889,0.3038062 0.242362,0.4604371 0.07456,0.1567516 0.142655,0.3163959 0.204122,0.4785236 0.06133,0.162133 0.115986,0.3266046 0.163814,0.4929934 0.04772,0.1663223 0.08858,0.3344142 0.122473,0.5038452 0.03406,0.1694762 0.06113,0.3401542 0.08113,0.5115965 0.02001,0.1714391 0.03294,0.3434963 0.03876,0.5157308 0.0021,0.059424 0.0033,0.118858 0.0036,0.1782837 1.65e-4,0.059623 -5.29e-4,0.1192294 -0.0021,0.1788004 -0.0014,0.059301 -0.0036,0.1185627 -0.0067,0.1777672 -0.0031,0.059325 -0.0071,0.118587 -0.01189,0.1777666 -0.0047,0.059348 -0.01018,0.1186098 -0.01654,0.1777672 -0.0066,0.058857 -0.01398,0.1176023 -0.02222,0.1762165 -0.0081,0.05888 -0.01707,0.117625 -0.02687,0.1762167 -0.0098,0.058388 -0.02053,0.1166155 -0.03204,0.1746665 -0.01157,0.05824 -0.02397,0.116296 -0.03721,0.174149 -0.01313,0.05775 -0.02708,0.1152851 -0.04186,0.1726001 -0.01486,0.05725 -0.03053,0.114275 -0.04703,0.171049 -0.01659,0.05676 -0.03398,0.113265 -0.05219,0.169498 -0.01814,0.05644 -0.03709,0.1126 -0.05684,0.168465 -0.0197,0.05577 -0.0402,0.111243 -0.0615,0.166399 -0.02126,0.0551 -0.04331,0.109886 -0.06615,0.164331 -0.02282,0.05444 -0.04642,0.10853 -0.0708,0.162264 -0.02455,0.05377 -0.04987,0.107177 -0.07596,0.160197 -0.02594,0.05293 -0.05264,0.105473 -0.0801,0.157613 -0.0275,0.05226 -0.05575,0.104118 -0.08475,0.155546 -0.02906,0.05143 -0.05886,0.102417 -0.0894,0.152962 -0.03046,0.05041 -0.06164,0.100369 -0.09353,0.149862 -0.03185,0.04957 -0.0644,0.09867 -0.09767,0.147278 -0.03341,0.04873 -0.06752,0.09697 -0.102319,0.144694 -0.03463,0.04754 -0.06995,0.09457 -0.105937,0.141076 -0.03619,0.0467 -0.07306,0.09287 -0.110588,0.138493 -0.03741,0.04551 -0.07549,0.09047 -0.114204,0.134876 -0.03864,0.04432 -0.07792,0.08808 -0.117823,0.131258 -0.04003,0.04331 -0.08068,0.08603 -0.121956,0.128157 l -5.29e-4,5.29e-4 v 5.3e-4 h -5.29e-4 l -5.3e-4,5.29e-4 -5.29e-4,5.29e-4 -5.29e-4,5.29e-4 -5.29e-4,5.29e-4 -5.29e-4,5.29e-4 -5.29e-4,5.3e-4 -5.3e-4,5.29e-4 -5.29e-4,5.29e-4 -5.29e-4,5.29e-4 -5.29e-4,5.29e-4 -5.29e-4,5.29e-4 -0.0016,0.0021 -0.0021,0.0016 -5.29e-4,5.29e-4 v 5.3e-4 h -5.29e-4 l -5.3e-4,5.29e-4 -0.0016,0.0021 -0.0021,0.0016 -5.29e-4,5.29e-4 v 5.29e-4 h -5.3e-4 l -5.29e-4,5.29e-4 -0.0016,0.0021 -5.29e-4,5.29e-4 v 5.29e-4 h -5.29e-4 l -5.29e-4,5.29e-4 -0.0021,0.0016 -0.0016,0.0021 -5.29e-4,5.29e-4 v 5.29e-4 h -5.29e-4 l -5.3e-4,5.3e-4 -0.0021,0.0016 -0.0016,0.0021 -5.3e-4,5.3e-4 v 5.29e-4 h -5.29e-4 l -5.29e-4,5.29e-4 -0.0021,0.0016 -0.0016,0.0021 -5.29e-4,5.29e-4 v 5.29e-4 h -5.29e-4 l -5.29e-4,5.29e-4 -5.29e-4,5.29e-4 v 5.29e-4 h -5.3e-4 l -5.29e-4,5.3e-4 -5.29e-4,5.29e-4 -5.29e-4,5.29e-4 -5.29e-4,5.29e-4 -5.29e-4,5.29e-4 -5.3e-4,5.29e-4 v 5.3e-4 h -5.29e-4 l -5.29e-4,5.29e-4 -5.29e-4,5.29e-4 v 5.29e-4 h -5.29e-4 l -5.29e-4,5.29e-4 -5.3e-4,5.29e-4 -5.29e-4,5.3e-4 -5.29e-4,5.29e-4 -5.29e-4,5.29e-4 -5.29e-4,5.29e-4 v 5.29e-4 h -5.29e-4 l -5.3e-4,5.29e-4 -5.29e-4,5.3e-4 v 5.29e-4 h -5.29e-4 l -5.29e-4,5.29e-4 -0.0021,0.0016 -0.0016,0.0021 -5.29e-4,5.29e-4 -5.29e-4,5.29e-4 -5.29e-4,5.29e-4 -0.0021,0.0016 -0.0016,0.0021 -5.29e-4,5.29e-4 v 5.29e-4 h -5.29e-4 l -5.3e-4,5.3e-4 -0.0021,0.0016 -0.0016,0.0021 -5.3e-4,5.3e-4 -5.29e-4,5.29e-4 -5.29e-4,5.29e-4 -0.0021,0.0016 -0.0016,0.0021 -5.29e-4,5.29e-4 v 5.29e-4 h -5.29e-4 l -5.29e-4,5.29e-4 -0.0021,0.0016 -5.29e-4,5.29e-4 v 5.3e-4 h -5.29e-4 l -5.29e-4,5.29e-4 -0.0016,0.0021 -0.0021,0.0016 -5.29e-4,5.3e-4 v 5.29e-4 h -5.3e-4 l -5.29e-4,5.29e-4 -0.0016,0.0021 -0.0021,0.0016 -5.29e-4,5.29e-4 v 5.29e-4 h -5.29e-4 l -5.29e-4,5.29e-4 -5.29e-4,5.29e-4 v 5.3e-4 h -5.29e-4 l -5.3e-4,5.29e-4 -5.29e-4,5.29e-4 -5.29e-4,5.29e-4 -5.29e-4,5.29e-4 -5.29e-4,5.29e-4 -5.29e-4,5.3e-4 v 5.29e-4 h -5.3e-4 l -5.29e-4,5.29e-4 -5.29e-4,5.29e-4 v 5.29e-4 h -5.29e-4 l -5.29e-4,5.29e-4 -5.29e-4,5.3e-4 -5.3e-4,5.29e-4 -5.29e-4,5.29e-4 -5.29e-4,5.29e-4 -5.29e-4,5.29e-4 v 5.29e-4 h -5.29e-4 l -5.29e-4,5.3e-4 -5.3e-4,5.29e-4 -5.29e-4,5.29e-4 -5.29e-4,5.29e-4 -0.0021,0.0016 -0.0016,0.0021 -5.29e-4,5.29e-4 v 5.29e-4 h -5.29e-4 l -5.29e-4,5.29e-4 -0.0021,0.0016 -5.29e-4,5.3e-4 v 5.29e-4 h -5.29e-4 l -5.29e-4,5.29e-4 -5.3e-4,5.29e-4 -5.29e-4,5.29e-4 -5.29e-4,5.29e-4 -5.29e-4,5.3e-4 -5.29e-4,5.29e-4 -5.29e-4,5.29e-4 -5.3e-4,5.29e-4 -5.29e-4,5.29e-4 v 5.29e-4 h -5.29e-4 l -5.29e-4,5.3e-4 -5.29e-4,5.29e-4 -5.29e-4,5.29e-4 -5.3e-4,5.29e-4 -5.29e-4,5.29e-4 -5.29e-4,5.29e-4 v 5.3e-4 h -5.29e-4 l -5.29e-4,5.29e-4 -5.29e-4,5.29e-4 v 5.29e-4 h -5.3e-4 l -5.29e-4,5.29e-4 -0.0021,0.0016 -0.0016,0.0021 -5.29e-4,5.29e-4 v 5.29e-4 h -5.29e-4 l -5.29e-4,5.3e-4 -0.0021,0.0016 -5.29e-4,5.29e-4 v 5.29e-4 h -5.29e-4 l -5.29e-4,5.29e-4 -5.29e-4,5.29e-4 -5.3e-4,5.29e-4 -5.29e-4,5.3e-4 -5.29e-4,5.29e-4 -5.29e-4,5.29e-4 v 5.29e-4 h -5.29e-4 l -5.29e-4,5.29e-4 c -0.04248,0.04076 -0.08555,0.0809 -0.129191,0.120406 -0.0437,0.03957 -0.08797,0.0785 -0.132809,0.116789 -0.04475,0.03838 -0.09006,0.07611 -0.135909,0.113172 -0.0458,0.03701 -0.09214,0.07336 -0.139009,0.109037 -0.04703,0.03566 -0.09457,0.07063 -0.142627,0.104903 -0.04791,0.03429 -0.09632,0.06788 -0.145211,0.100769 -0.04896,0.03293 -0.0984,0.06514 -0.148312,0.09664 -0.04984,0.03139 -0.100148,0.06205 -0.150895,0.09198 -0.0509,0.03002 -0.102233,0.05931 -0.153996,0.08785 -0.05161,0.02848 -0.103634,0.05622 -0.156062,0.0832 -0.05249,0.02694 -0.105379,0.05313 -0.158647,0.07855 -0.0532,0.02557 -0.106776,0.05038 -0.160714,0.07441 -0.05409,0.02387 -0.108523,0.04695 -0.163297,0.06925 -0.05462,0.02249 -0.109577,0.0442 -0.164848,0.06511 -0.05533,0.02078 -0.110979,0.04076 -0.166915,0.05995 -0.05588,0.01906 -0.112037,0.03732 -0.168465,0.05478 -0.05658,0.0177 -0.113434,0.03458 -0.170532,0.05064 -0.05695,0.01598 -0.114148,0.03114 -0.171566,0.04548 -0.05749,0.01426 -0.115206,0.0277 -0.1731169,0.04031 -0.057864,0.01254 -0.1159192,0.02426 -0.1741492,0.03514 -0.05823,0.011 -0.1166304,0.02116 -0.175183,0.03049 -0.058599,0.0093 -0.117344,0.01772 -0.1762167,0.02532 -0.058794,0.0077 -0.1177108,0.01462 -0.1767335,0.02067 -0.059165,0.0058 -0.1184267,0.01084 -0.1777669,0.01499 -0.059187,0.0043 -0.1184489,0.0077 -0.1777669,0.01033 -0.059384,0.0026 -0.1188181,0.0043 -0.1782837,0.0052 -0.1722366,0.0025 -0.3446388,-0.0022 -0.5167643,-0.01395 -0.1719604,-0.0117 -0.3435001,-0.03049 -0.5141804,-0.05633 -0.1708248,-0.0259 -0.3406407,-0.05882 -0.5090128,-0.0987 C 7.0258463,14.482404 6.8591334,14.435511 6.6944398,14.381826 6.5298825,14.32822 6.3674802,14.267879 6.2076478,14.200959 6.0475349,14.134059 5.8901317,14.060616 5.735842,13.980817 5.58175,13.90106 5.4308983,13.815032 5.2836731,13.722952 5.1364809,13.630826 4.9930426,13.53273 4.8537252,13.428913 4.7946863,13.382741 4.7364549,13.335535 4.6790589,13.287319 Z"
         sodipodi:nodetypes="ccccccccccccccccccccccccccccccccccccccccccccccccccccccccccccccccccccccccccccccccccscccccccccccccccccccccccccccccccccccccccccccccccccccccccccccccccccccccccccccccccccccccccccccccccccccccccccccccsccccccsccccccccccccccccccccccccccccccccccccccccccccccccccccccccccccccccccccccccccccccccccccccccccccccccccccccccccccccccccccccccccccccccccccccccccccccccccccccccccccccccccccccccccccccccccccccccccccccccccccccccccccscccccccccccccccccccccccccccc" />
      <path
         id="rect10291"
         style="fill:#fdc042;fill-opacity:1;stroke-width:0.261139"
         d="m 7.6481118,3.6483559 v 2.6665042 h -3.325895 v 1.7936887 h 3.325895 v 7.1478842 h 1.78232 V 8.1085488 H 12.731006 V 6.3148601 H 9.4304318 V 3.6483559 Z" />
      <path
         id="path8354"
         style="fill:#000000;fill-opacity:1;stroke-width:0.252615"
         d="M 8.3168048,2.1921143 C 8.1446047,2.1946463 7.97272,2.2042997 7.8015906,2.2210531 7.6305373,2.2375948 7.4603766,2.2612139 7.2915444,2.2918498 7.1226561,2.3227805 6.9552534,2.360709 6.789766,2.4055379 6.6244607,2.4500694 6.4611964,2.5014451 6.3003903,2.5595337 6.139343,2.6178441 5.9809054,2.6828397 5.8254839,2.7543538 5.6701065,2.8258263 5.5178756,2.9037521 5.3691811,2.9879313 5.2205292,3.0720919 5.0755391,3.1624306 4.9345824,3.2587158 4.7937203,3.3549216 4.6570056,3.4569834 4.524788,3.5646403 4.3924191,3.6723934 4.264669,3.7856615 4.1418658,3.9041544 4.0192397,4.0226541 3.9016617,4.1462664 3.7894326,4.2746745 3.6770964,4.4030762 3.5702071,4.5361706 3.4690386,4.6736164 3.3677273,4.8109193 3.2722167,4.9524613 3.1827513,5.09788 3.0935269,5.2434379 3.0104289,5.392738 2.9336709,5.5453978 2.8567536,5.6980127 2.7862411,5.8538642 2.7223141,6.0125528 2.6584389,6.1712221 2.6012016,6.3325904 2.5507485,6.4962442 2.5002993,6.6599488 2.4566817,6.8257996 2.420007,6.9933716 2.383382,7.1609222 2.353729,7.3300484 2.331124,7.5003173 2.308531,7.670688 2.293016,7.8420557 2.284615,8.0139809 2.276125,8.1857963 2.274745,8.358026 2.280475,8.5302285 2.286295,8.702463 2.299221,8.8745202 2.319232,9.0459594 2.339234,9.2174017 2.366301,9.3880796 2.400364,9.5575561 2.434261,9.7269869 2.47512,9.8950789 2.522837,10.061401 c 0.047829,0.166389 0.10248,0.330861 0.1638144,0.492994 0.061467,0.162127 0.1295659,0.321772 0.2041218,0.478523 0.074473,0.156631 0.15533,0.310241 0.2423626,0.460437 0.086979,0.150431 0.1800764,0.297317 0.2790526,0.440284 0.054686,0.0758 0.1110271,0.150402 0.1689819,0.223759 L 3.851443,11.894364 C 3.7740426,11.792174 3.7014854,11.686009 3.6307856,11.579137 3.5460662,11.449236 3.464872,11.317704 3.3904891,11.181746 3.3162264,11.045909 3.2472715,10.907309 3.1837834,10.766268 3.1203419,10.625173 3.0624195,10.481746 3.0101506,10.33632 2.9577459,10.190993 2.9110289,10.043774 2.8701074,9.8950029 2.8292774,9.7461159 2.7942829,9.5957934 2.7652044,9.4443846 2.7361785,9.2931337 2.7130785,9.1409154 2.6959579,8.9880818 2.6787388,8.8349864 2.6675342,8.6813889 2.6623682,8.5276449 c -0.00516,-0.1535695 -0.0043,-0.307167 0.00259,-0.4604372 0.00691,-0.1531811 0.019844,-0.3059163 0.038757,-0.457853 C 2.7227252,7.45725 2.7477232,7.306066 2.7786462,7.1561523 2.8094739,7.0063455 2.8461925,6.8579198 2.8887201,6.7112181 2.9312045,6.5644035 2.9794729,6.4194253 3.0334141,6.2766194 3.0874301,6.1338383 3.1470762,5.9933422 3.2122145,5.8554564 3.2772818,5.7175916 3.3477883,5.5824398 3.423571,5.4503132 3.4993787,5.3182398 3.5804009,5.1892941 3.6664503,5.0637736 3.7526751,4.9381902 3.8438683,4.8161398 3.9398186,4.6979044 4.0354742,4.5797224 4.1358037,4.4654295 4.2405755,4.3552898 4.3454971,4.2450221 4.4547909,4.1390036 4.568204,4.0374798 4.6815827,3.9362047 4.7989786,3.8394952 4.9201205,3.7475747 5.0414359,3.6554717 5.1664171,3.5682435 5.2947747,3.4860921 5.4228603,3.4039125 5.5542196,3.3268553 5.6885491,3.2550985 5.823073,3.1833602 5.9604661,3.1169909 6.1004103,3.0561442 6.2403646,2.9954116 6.3827567,2.9402475 6.5272576,2.8907796 6.6716174,2.8412688 6.8179743,2.7974824 6.9659905,2.7595215 7.1140717,2.7214235 7.2637041,2.6891875 7.414542,2.6628865 7.5653341,2.6367665 7.7172076,2.6165965 7.8698113,2.6024255 8.0224466,2.5881395 8.175699,2.5798645 8.3292148,2.5776205 l 5.292e-4,-0.0031 c 0.153625,-0.00225 0.3073947,0.00155 0.4609536,0.011369 0.1534104,0.00985 0.3064904,0.025706 0.4588867,0.047542 0.152508,0.021958 0.3042092,0.049885 0.4547526,0.083716 0.1503791,0.033613 0.2994941,0.073089 0.4470011,0.1183391 0.147571,0.045454 0.293411,0.096653 0.437183,0.153479 0.143883,0.056814 0.285585,0.1192181 0.42478,0.1870686 0.139139,0.067705 0.27567,0.1407969 0.409277,0.2191081 0.133522,0.078283 0.264019,0.161719 0.391191,0.250114 0.09754,0.069306 0.193013,0.141514 0.286288,0.2165242 L 12.372391,3.5966797 C 12.314829,3.5482853 12.256425,3.5009076 12.197208,3.4545695 12.057891,3.3507524 11.914452,3.2526558 11.76726,3.1605306 11.620035,3.0684504 11.469183,2.9824218 11.315091,2.9026652 11.160802,2.8228665 11.003399,2.7494231 10.843286,2.6825236 10.683453,2.6156031 10.521051,2.5552625 10.356494,2.5016561 10.1918,2.4479711 10.025087,2.4010778 9.8567824,2.3610962 9.6884103,2.3212168 9.5185944,2.288288 9.3477696,2.2623942 9.1770893,2.2365574 9.0055496,2.2177656 8.8335892,2.2060669 8.6614637,2.1942953 8.4890615,2.1896403 8.3168249,2.1921144 Z m 3.7847822,1.6681153 c -0.03297,-0.026533 -0.06622,-0.052717 -0.09974,-0.078548 -0.06183,-0.046685 -0.124538,-0.092169 -0.188102,-0.1364258 -0.0071,-0.00467 -0.01412,-0.00932 -0.02119,-0.013954 L 3.6307856,11.579137 c 0.072709,0.113724 0.083039,0.225641 0.2206574,0.315227 z"
         sodipodi:nodetypes="scccccccccccccccccccccccccccccccccccccccccccccccccccccccccccccccccccccccccccssccccccc" />
      <path
         id="path8358"
         style="fill:#000000;fill-opacity:1;stroke-width:0.252615"
         d="m 13.472046,4.7247762 -0.271818,0.2645834 c 0.07777,0.1025146 0.152221,0.2074735 0.223242,0.3147094 0.08453,0.12974 0.164003,0.2626508 0.238228,0.3984252 0.07428,0.1360075 0.14323,0.2747796 0.206706,0.4159954 0.06343,0.1409252 0.121351,0.2841791 0.173633,0.4294311 0.05242,0.1454971 0.09913,0.2928885 0.140043,0.4418336 0.04083,0.1488873 0.07582,0.2992096 0.104903,0.4506184 0.02903,0.151251 0.05213,0.3034692 0.06925,0.4563028 0.01721,0.1529234 0.02841,0.3063484 0.03359,0.4599202 0.0017,0.051329 0.0027,0.1026655 0.0031,0.153996 5.03e-4,0.051172 3.18e-4,0.1023366 -5.29e-4,0.1534789 -0.0011,0.051193 -0.0028,0.102357 -0.0052,0.153479 -0.0022,0.051036 -0.0052,0.1020281 -0.0088,0.1529623 -0.0036,0.050882 -0.0079,0.1017015 -0.01292,0.1524455 -0.005,0.0509 -0.0107,0.1017198 -0.01705,0.1524455 -0.0062,0.050744 -0.01311,0.1013909 -0.02067,0.1519285 -0.0078,0.050419 -0.01622,0.1007221 -0.02532,0.1508953 -0.0088,0.050261 -0.01829,0.1003912 -0.02842,0.1503782 -0.01037,0.04994 -0.02139,0.09972 -0.03307,0.149345 -0.01158,0.04961 -0.02381,0.09905 -0.03669,0.1483111 -0.01279,0.04928 -0.02623,0.09838 -0.04031,0.147278 -0.01434,0.04895 -0.02933,0.09771 -0.04496,0.146244 -0.01539,0.04845 -0.03141,0.09669 -0.04806,0.144694 -0.01676,0.04813 -0.03416,0.09602 -0.05219,0.143661 -0.01798,0.04762 -0.03658,0.095 -0.05581,0.14211 -0.01919,0.04695 -0.039,0.09363 -0.05943,0.140043 -0.02057,0.04663 -0.04176,0.09297 -0.06356,0.13901 -0.02162,0.04595 -0.04384,0.0916 -0.06666,0.136942 -0.023,0.04528 -0.0466,0.09024 -0.0708,0.134876 -0.02404,0.04477 -0.04868,0.08922 -0.0739,0.133325 -0.02526,0.04393 -0.0511,0.08751 -0.07752,0.130742 -0.02647,0.04343 -0.05352,0.08649 -0.08113,0.129191 -0.02752,0.04258 -0.0556,0.08478 -0.08423,0.126607 -0.02873,0.04191 -0.05802,0.08342 -0.08785,0.12454 -0.02978,0.04106 -0.06009,0.08171 -0.09095,0.121956 -0.03082,0.04021 -0.06217,0.08 -0.09405,0.119373 -0.03204,0.03936 -0.0646,0.0783 -0.09767,0.116789 -0.03291,0.03851 -0.06633,0.07658 -0.100252,0.114205 -0.03395,0.03767 -0.06841,0.07488 -0.103353,0.111621 l -0.0016,0.0016 -0.0016,0.0016 -0.0016,0.0016 -10e-4,0.0016 -0.0016,0.0016 -0.0016,0.0021 -0.0016,0.0016 -0.0016,0.0016 -0.0016,0.0016 -0.0016,0.0016 -0.0016,0.0016 -10e-4,0.0016 -0.0016,0.0016 -0.0016,0.0016 -0.0016,0.0016 -0.0016,0.0021 -0.0016,0.0016 -0.0016,0.0016 -0.0016,0.0016 -10e-4,0.0016 -0.0016,0.0016 -0.0016,0.0016 -0.0016,0.0016 -0.0016,0.0016 -0.0016,0.0016 -0.0016,0.0021 -0.0016,0.0016 -0.0016,10e-4 -10e-4,0.0016 -0.0016,0.0016 -0.0016,0.0016 -0.0021,0.0016 -0.0016,0.0016 -0.0016,0.0016 -0.0016,0.0016 -0.0016,0.0016 -0.0016,0.0016 -0.0016,0.0016 -10e-4,0.0021 -0.0016,0.0016 -0.0016,0.0016 -0.0016,0.0016 -0.0016,0.0016 -0.0016,0.0016 -0.0016,0.0016 -0.0016,0.0016 -0.0016,0.0016 -0.0016,0.0016 -0.0016,0.0021 -10e-4,5.29e-4 -0.0016,0.0021 -0.0016,0.0016 -0.0016,0.0016 -0.0016,0.0016 -0.0016,0.0016 -0.0016,0.0016 -0.0016,0.0016 -0.0016,0.0016 -0.0016,0.0016 -0.0016,0.0016 -0.0016,0.0021 -0.0016,0.0016 -0.0016,0.0016 -0.001,0.0016 -0.0016,10e-4 -0.0016,0.0016 -0.0016,0.0016 -0.0016,0.0016 -0.0016,0.0016 -0.0016,0.0016 -0.0016,0.0016 c -0.03587,0.0358 -0.07222,0.07111 -0.109037,0.105936 -0.03692,0.03477 -0.0743,0.06906 -0.112138,0.102836 -0.03779,0.03393 -0.07603,0.06735 -0.114722,0.100252 -0.03867,0.03273 -0.07777,0.06494 -0.117305,0.09663 -0.03954,0.03171 -0.07951,0.06289 -0.11989,0.09353 -0.04042,0.03069 -0.08124,0.06083 -0.122472,0.09043 -0.04112,0.02966 -0.08264,0.05877 -0.124541,0.08733 -0.042,0.02847 -0.08437,0.05637 -0.127124,0.08372 -0.04287,0.02745 -0.08611,0.05432 -0.129707,0.08061 -0.0434,0.02624 -0.08716,0.05191 -0.131259,0.077 -0.04411,0.02504 -0.08855,0.04951 -0.133325,0.07338 -0.04481,0.02385 -0.08995,0.04711 -0.135392,0.06976 -0.04552,0.02265 -0.09134,0.0447 -0.137459,0.06615 -0.04605,0.02145 -0.09239,0.0423 -0.13901,0.06253 -0.04658,0.02043 -0.09344,0.04024 -0.14056,0.05943 -0.04712,0.01888 -0.09449,0.03714 -0.14211,0.05478 -0.04765,0.01786 -0.09554,0.03508 -0.143661,0.05168 -0.04818,0.01648 -0.09659,0.03233 -0.14521,0.04754 -0.04854,0.01528 -0.09729,0.02993 -0.146245,0.04392 -0.04908,0.01391 -0.09835,0.02718 -0.147794,0.03979 -0.04927,0.01271 -0.09871,0.02477 -0.1483117,0.03617 -0.049799,0.01134 -0.099757,0.02202 -0.1498616,0.03204 -0.049987,0.01013 -0.1001178,0.01961 -0.1503786,0.02842 -0.05018,0.0086 -0.1004826,0.0165 -0.150895,0.02377 -0.050538,0.0076 -0.1011849,0.01445 -0.1519288,0.02067 -0.05073,0.006 -0.1015497,0.01135 -0.1524455,0.01602 -0.050918,0.0048 -0.1019101,0.0089 -0.1529622,0.0124 -0.050937,0.0034 -0.1019281,0.0062 -0.1529623,0.0083 -0.051127,0.002 -0.1022905,0.0034 -0.1534789,0.0041 -0.1534531,0.0022 -0.3070503,-0.0016 -0.4604372,-0.01137 -0.1535896,-0.01 -0.3068423,-0.02604 -0.4594035,-0.04806 -0.152328,-0.0218 -0.3038564,-0.04955 -0.4542356,-0.0832 C 7.1971553,14.134483 7.0478676,14.094834 6.900197,14.049397 6.7526334,14.004113 6.6067937,13.953086 6.4630146,13.896435 6.3191318,13.839621 6.1774289,13.777217 6.0382343,13.709366 5.8990952,13.641662 5.7625644,13.568569 5.628957,13.490258 5.4954273,13.411806 5.3649298,13.328198 5.2377663,13.239627 5.1398768,13.170338 5.044059,13.09813 4.9504454,13.023103 l -0.2702679,0.263033 c 0.057396,0.04822 0.1156275,0.09542 0.1746663,0.141594 0.1393174,0.103817 0.2827557,0.201913 0.4299479,0.294039 0.1472253,0.09208 0.298077,0.178108 0.452169,0.257865 0.1542896,0.0798 0.3116929,0.153242 0.4718058,0.220142 0.1598324,0.06692 0.3222347,0.127261 0.486792,0.180867 0.1646936,0.05368 0.3314065,0.100579 0.4997111,0.14056 0.1683721,0.03988 0.3381881,0.07281 0.5090129,0.0987 0.1706803,0.02584 0.34222,0.04463 0.5141803,0.05633 0.1721255,0.01177 0.3445278,0.01643 0.5167644,0.01395 0.059466,-8.73e-4 0.1188997,-0.0026 0.1782836,-0.0052 0.059318,-0.0026 0.1185797,-0.006 0.1777669,-0.01033 0.05934,-0.0041 0.1186022,-0.0091 0.177767,-0.01499 0.059023,-0.006 0.1179398,-0.01294 0.1767334,-0.02067 0.058873,-0.0076 0.1176176,-0.01604 0.1762168,-0.02532 0.058552,-0.0093 0.1169527,-0.01949 0.175183,-0.03049 0.05823,-0.01088 0.1162857,-0.02259 0.1741492,-0.03514 0.05791,-0.01261 0.1156219,-0.02604 0.1731169,-0.04031 0.05742,-0.01434 0.114612,-0.0295 0.171565,-0.04548 0.0571,-0.01606 0.113949,-0.03294 0.170533,-0.05064 0.05643,-0.01745 0.112588,-0.03571 0.168465,-0.05478 0.05594,-0.01918 0.11158,-0.03917 0.166915,-0.05995 0.05527,-0.02091 0.110226,-0.04262 0.164847,-0.06511 0.05477,-0.0223 0.109213,-0.04538 0.163298,-0.06925 0.05394,-0.02403 0.107514,-0.04884 0.160714,-0.07441 0.05327,-0.02542 0.106155,-0.0516 0.158646,-0.07855 0.05243,-0.02698 0.104455,-0.05472 0.156063,-0.0832 0.05176,-0.02854 0.1031,-0.05783 0.153996,-0.08785 0.05075,-0.02993 0.10105,-0.0606 0.150895,-0.09198 0.04991,-0.03149 0.09935,-0.06371 0.148311,-0.09663 0.04889,-0.03289 0.0973,-0.06648 0.145211,-0.100769 0.04805,-0.03428 0.0956,-0.06925 0.142627,-0.104903 0.04687,-0.03567 0.09321,-0.07202 0.13901,-0.109037 0.04585,-0.03707 0.09116,-0.07479 0.135909,-0.113172 0.04484,-0.03828 0.08911,-0.07722 0.132808,-0.116789 0.04365,-0.03951 0.08671,-0.07965 0.129191,-0.120406 0.04246,-0.0409 0.08432,-0.08242 0.125574,-0.12454 0.04127,-0.04212 0.08193,-0.08485 0.121956,-0.128157 0.03991,-0.04318 0.07918,-0.08694 0.117823,-0.131259 0.03872,-0.0444 0.07679,-0.08936 0.114204,-0.134875 0.03753,-0.04562 0.0744,-0.09179 0.110588,-0.138493 0.03599,-0.04651 0.07131,-0.09354 0.105937,-0.141077 0.0348,-0.04773 0.06891,-0.09596 0.102319,-0.144694 0.03326,-0.04861 0.06582,-0.09771 0.09767,-0.147277 0.0319,-0.04949 0.06308,-0.09945 0.09353,-0.149862 0.03054,-0.05054 0.06034,-0.101537 0.0894,-0.152962 0.029,-0.05143 0.05725,-0.103283 0.08475,-0.155546 0.02745,-0.05214 0.05416,-0.104683 0.0801,-0.157614 0.02609,-0.05302 0.05142,-0.106424 0.07596,-0.160197 0.02438,-0.05373 0.04798,-0.107827 0.0708,-0.162263 0.02284,-0.05445 0.04489,-0.109228 0.06615,-0.164332 0.0213,-0.05516 0.0418,-0.110626 0.0615,-0.166398 0.01976,-0.05586 0.03871,-0.112026 0.05684,-0.168465 0.01821,-0.05623 0.03561,-0.112738 0.05219,-0.169499 0.01649,-0.05677 0.03217,-0.113796 0.04703,-0.171048 0.01478,-0.05732 0.02873,-0.114855 0.04186,-0.1726001 0.01323,-0.05785 0.02564,-0.115909 0.03721,-0.174149 0.01151,-0.05805 0.02219,-0.1162792 0.03204,-0.1746666 0.0098,-0.058592 0.01876,-0.1173366 0.02687,-0.1762167 0.0082,-0.058614 0.01565,-0.1173591 0.02222,-0.1762165 0.0064,-0.059157 0.01187,-0.1184193 0.01654,-0.1777672 0.0048,-0.05918 0.0088,-0.1184413 0.01188,-0.1777667 0.0031,-0.059204 0.0053,-0.1184663 0.0067,-0.1777671 0.0015,-0.059571 0.0022,-0.1191771 0.0021,-0.1788004 -3.71e-4,-0.059426 -0.0016,-0.1188599 -0.0036,-0.1782837 -0.0058,-0.1722345 -0.01875,-0.3442917 -0.03876,-0.5157308 -0.02,-0.1714424 -0.04707,-0.3421203 -0.08113,-0.5115965 -0.0339,-0.169431 -0.07476,-0.3375229 -0.122473,-0.5038453 C 14.481356,6.6545087 14.426704,6.490037 14.36537,6.3279041 14.303903,6.1657764 14.235804,6.0061321 14.161248,5.8493805 14.086775,5.6927496 14.005918,5.5391394 13.918886,5.3889434 13.831906,5.2385132 13.738809,5.0916266 13.639833,4.9486603 13.585311,4.8730416 13.529143,4.7986093 13.471368,4.7254181 Z M 4.9504454,13.023103 c 0.052784,0.08193 0.2802486,0.211889 0.2873209,0.216524 L 13.422437,5.3020007 c -0.04202,-0.064201 -0.08526,-0.1276027 -0.129708,-0.1901692 -0.02996,-0.041553 -0.06045,-0.082725 -0.09147,-0.1235065 z"
         sodipodi:nodetypes="ccccccccccccccccccccccccccccccccccccccccccccccccccccccccccccccccccccccccccccccccccccccccccccccccccccccccccccccscccccccccccccccccccccccccccccccccccccccccccccccccccccccccccccccccscccccccccsccccccsccccccccccccccccccccccccccccccccccc" />
      <path
         id="path11085"
         style="fill:#000000;fill-opacity:1;stroke-width:0.261139"
         d="M 7.2486479,3.3224651 C 7.1439881,3.4271249 7.1463338,3.6394592 7.1463338,3.6394592 V 5.9055825 H 4.3284179 c 0,0 -0.2036176,0.00931 -0.3017905,0.107487 -0.098173,0.098173 -0.095085,0.3286621 -0.095085,0.3286621 v 1.7611328 c 0,0 -0.00578,0.2495067 0.099219,0.3545005 0.09257,0.09257 0.2935227,0.09095 0.2935227,0.09095 H 7.1463334 V 15.1722 c 0,0 -0.026482,0.291846 0.099219,0.417546 0.1182704,0.11827 0.4025597,0.115755 0.4025597,0.115755 h 1.7940193 c 0,0 0.2725718,0.0099 0.3818725,-0.09939 0.1010084,-0.101008 0.081851,-0.329151 0.081851,-0.329151 V 8.5483154 H 12.72067 c 0,0 0.215539,-0.033639 0.310058,-0.1281575 0.11084,-0.1108403 0.09095,-0.3420982 0.09095,-0.3420982 V 6.1184895 c 0,-0.070969 -0.0325,-0.1089808 -0.08268,-0.1591635 -0.05262,-0.052619 -0.14056,-0.053743 -0.14056,-0.053743 H 9.9058549 V 3.6669596 c 0,0 -7.951e-4,-0.2374732 -0.1033529,-0.340031 C 9.690322,3.2147486 9.4299152,3.231844 9.4299152,3.231844 H 7.6267864 c 0,0 -0.2734787,-0.014039 -0.3781385,0.090621 z m 0.3994639,0.3258908 h 1.78232 V 6.3148601 H 12.731006 V 8.1085488 H 9.4304318 v 7.1478842 h -1.78232 V 8.1085488 H 4.3222168 V 6.3148601 h 3.325895 z"
         sodipodi:nodetypes="zccczccscccsccscccscsscccscczccccccccccccc" />
      <path
         id="path10572"
         style="fill:#fc5440;fill-opacity:1;stroke-width:0.265165"
         d="m 7.641718,8.2074281 v 2.1998659 l 4.204587,-4.0965683 -2.2654949,0.00206 z"
         sodipodi:nodetypes="ccccc" />
      <path
         id="path7927-7"
         style="fill:#e3250f;fill-opacity:1;stroke-width:0.265165"
         d="m 13.166,14.820447 c 0.01526,-0.01095 0.03082,-0.02149 0.04599,-0.03255 0.05287,-0.03843 0.105241,-0.07753 0.157097,-0.117305 0.05185,-0.03982 0.103191,-0.0803 0.153995,-0.121441 0.05084,-0.04104 0.10114,-0.08273 0.150896,-0.125056 0.04965,-0.04243 0.09874,-0.0855 0.147277,-0.12919 0.04863,-0.04382 0.0967,-0.08826 0.144178,-0.133327 0.04744,-0.04487 0.0943,-0.09035 0.14056,-0.136427 0.04625,-0.04609 0.0919,-0.09277 0.136942,-0.140041 0.04506,-0.04748 0.08951,-0.09554 0.133326,-0.144177 0.04386,-0.04836 0.0871,-0.09728 0.129707,-0.146762 0.0425,-0.04958 0.08436,-0.09971 0.125574,-0.150378 0.04131,-0.0508 0.08197,-0.102137 0.121956,-0.153996 0.03994,-0.05168 0.07922,-0.103878 0.117823,-0.15658 0.03875,-0.05273 0.07682,-0.10596 0.114205,-0.159679 0.03721,-0.05378 0.07373,-0.108048 0.109554,-0.162782 0.03585,-0.05466 0.07099,-0.109786 0.10542,-0.165364 0.03448,-0.05571 0.06825,-0.111872 0.101286,-0.168466 0.03294,-0.05642 0.06515,-0.113268 0.09663,-0.170532 0.03157,-0.0573 0.06241,-0.115006 0.0925,-0.173117 0.03003,-0.05818 0.05932,-0.116747 0.08785,-0.175699 0.02866,-0.05889 0.05657,-0.118144 0.08372,-0.177766 0.02712,-0.05977 0.05348,-0.119888 0.07906,-0.18035 0.0254,-0.0603 0.05004,-0.120944 0.0739,-0.181901 0.02404,-0.06101 0.04729,-0.122341 0.06976,-0.18397 0.02232,-0.06155 0.04385,-0.123391 0.06459,-0.185518 0.02095,-0.06226 0.04111,-0.124788 0.06046,-0.187585 0.01923,-0.06279 0.03767,-0.125844 0.05529,-0.189138 0.01751,-0.06316 0.03422,-0.126555 0.05013,-0.190169 0.01614,-0.06369 0.03148,-0.127603 0.04599,-0.19172 0.01443,-0.06423 0.02804,-0.128659 0.04082,-0.193267 0.01271,-0.06443 0.02459,-0.1290299 0.03566,-0.1937891 0.01116,-0.06479 0.0215,-0.129733 0.03101,-0.194818 0.0094,-0.06516 0.01806,-0.1304483 0.02584,-0.1958553 0.0077,-0.06535 0.01461,-0.130813 0.02067,-0.196371 0.0062,-0.06554 0.01151,-0.131176 0.01602,-0.196887 0.0045,-0.06574 0.0081,-0.131543 0.01085,-0.197403 0.0027,-0.06593 0.0046,-0.131911 0.0057,-0.197922 0.0012,-0.06595 0.0015,-0.131929 0.001,-0.197919 -5.43e-4,-0.06597 -0.0019,-0.131953 -0.0041,-0.197921 -0.0065,-0.194789 -0.0203,-0.389401 -0.04134,-0.583433 -0.02102,-0.194085 -0.0493,-0.387525 -0.08475,-0.579809 -0.03559,-0.1922532 -0.07834,-0.3832452 -0.128158,-0.5725752 -0.04968,-0.189333 -0.106393,-0.376878 -0.170015,-0.56224 -0.06363,-0.185375 -0.134136,-0.368437 -0.211357,-0.548803 -0.07729,-0.180198 -0.161238,-0.357573 -0.251664,-0.531751 -0.09028,-0.174309 -0.186982,-0.345304 -0.289905,-0.51263 -0.102962,-0.167374 -0.212075,-0.330958 -0.327112,-0.490409 -0.115167,-0.159388 -0.236174,-0.314526 -0.362769,-0.465088 -0.126535,-0.150682 -0.258574,-0.296685 -0.395841,-0.4377 -0.137256,-0.140915 -0.279639,-0.276747 -0.426847,-0.40721 -0.147142,-0.130427 -0.299005,-0.255398 -0.45527,-0.374654 -0.151042,-0.115172 -0.306337,-0.224539 -0.465087,-0.328662 a 6.8531451,8.2065822 0 0 1 0.12299,0.109037 6.8531451,8.2065822 0 0 1 0.134875,0.125574 6.8531451,8.2065822 0 0 1 0.132292,0.129191 6.8531451,8.2065822 0 0 1 0.129191,0.133842 6.8531451,8.2065822 0 0 1 0.126607,0.136942 6.8531451,8.2065822 0 0 1 0.124023,0.141077 6.8531451,8.2065822 0 0 1 0.120923,0.144694 6.8531451,8.2065822 0 0 1 0.117823,0.148311 6.8531451,8.2065822 0 0 1 0.114721,0.151929 6.8531451,8.2065822 0 0 1 0.111104,0.15503 6.8531451,8.2065822 0 0 1 0.108521,0.158129 6.8531451,8.2065822 0 0 1 0.104903,0.161748 6.8531451,8.2065822 0 0 1 0.101286,0.164331 6.8531451,8.2065822 0 0 1 0.09819,0.167948 6.8531451,8.2065822 0 0 1 0.09405,0.170532 6.8531451,8.2065822 0 0 1 0.09095,0.173116 6.8531451,8.2065822 0 0 1 0.08733,0.1757 6.8531451,8.2065822 0 0 1 0.08372,0.178801 6.8531451,8.2065822 0 0 1 0.07958,0.180867 6.8531451,8.2065822 0 0 1 0.07648,0.182935 6.8531451,8.2065822 0 0 1 0.07183,0.185518 6.8531451,8.2065822 0 0 1 0.06873,0.187586 6.8531451,8.2065822 0 0 1 0.06408,0.189652 6.8531451,8.2065822 0 0 1 0.06046,0.191203 6.8531451,8.2065822 0 0 1 0.05633,0.19327 6.8531451,8.2065822 0 0 1 0.05271,0.19482 6.8531451,8.2065822 0 0 1 0.04806,0.195854 6.8531451,8.2065822 0 0 1 0.04444,0.19792 6.8531451,8.2065822 0 0 1 0.03979,0.198955 6.8531451,8.2065822 0 0 1 0.03617,0.199987 6.8531451,8.2065822 0 0 1 0.03152,0.2010222 6.8531451,8.2065822 0 0 1 0.0279,0.202055 6.8531451,8.2065822 0 0 1 0.02325,0.202571 6.8531451,8.2065822 0 0 1 0.01912,0.203088 6.8531451,8.2065822 0 0 1 0.01499,0.204123 6.8531451,8.2065822 0 0 1 0.01033,0.204121 6.8531451,8.2065822 0 0 1 0.0067,0.204639 6.8531451,8.2065822 0 0 1 0.0021,0.20464 6.8531451,8.2065822 0 0 1 -0.01912,0.612881 6.8531451,8.2065822 0 0 1 -0.05736,0.6102983 6.8531451,8.2065822 0 0 1 -0.0956,0.6025491 6.8531451,8.2065822 0 0 1 -0.132292,0.593244 6.8531451,8.2065822 0 0 1 -0.169499,0.579295 6.8531451,8.2065822 0 0 1 -0.204638,0.56224 6.8531451,8.2065822 0 0 1 -0.239779,0.542602 6.8531451,8.2065822 0 0 1 -0.272335,0.519864 6.8531451,8.2065822 0 0 1 -0.304374,0.493511 6.8531451,8.2065822 0 0 1 -0.334346,0.465087 6.8531451,8.2065822 0 0 1 -0.362769,0.434081 6.8531451,8.2065822 0 0 1 -0.214974,0.221692 z" />
      <path
         id="path7925"
         style="fill:#000000;fill-opacity:1;stroke-width:0.265165"
         d="M 8.2516924,0.23977863 A 8.2804298,8.1229808 44.999998 0 0 0.32917877,8.5581339 8.2804298,8.1229808 44.999998 0 0 8.8010129,16.641878 8.2804298,8.1229808 44.999998 0 0 16.724043,8.3235228 8.2804298,8.1229808 44.999998 0 0 8.2516924,0.23977863 Z m 0.012919,0.38809001 a 7.8884745,7.7384787 44.999921 0 1 0.5844603,0.0134359 7.8884745,7.7384787 44.999921 0 1 0.5823934,0.056844 7.8884745,7.7384787 44.999921 0 1 0.5777429,0.1007691 7.8884745,7.7384787 44.999921 0 1 0.568958,0.1431437 7.8884745,7.7384787 44.999921 0 1 0.557588,0.18500166 7.8884745,7.7384787 44.999921 0 1 0.543119,0.225826 7.8884745,7.7384787 44.999921 0 1 0.52555,0.2656169 7.8884745,7.7384787 44.999921 0 1 0.504878,0.3038574 7.8884745,7.7384787 44.999921 0 1 0.481625,0.3400309 7.8884745,7.7384787 44.999921 0 1 0.455269,0.3746542 7.8884745,7.7384787 44.999921 0 1 0.426847,0.4072102 7.8884745,7.7384787 44.999921 0 1 0.395842,0.4376994 7.8884745,7.7384787 44.999921 0 1 0.362769,0.465088 7.8884745,7.7384787 44.999921 0 1 0.327111,0.4904091 7.8884745,7.7384787 44.999921 0 1 0.289905,0.5126302 7.8884745,7.7384787 44.999921 0 1 0.251664,0.5317506 7.8884745,7.7384787 44.999921 0 1 0.211357,0.5488038 7.8884745,7.7384787 44.999921 0 1 0.170015,0.5622396 7.8884745,7.7384787 44.999921 0 1 0.128158,0.5725747 7.8884745,7.7384787 44.999921 0 1 0.08475,0.5798098 7.8884745,7.7384787 44.999921 0 1 0.04134,0.5834268 7.8884745,7.7384787 44.999921 0 1 0.0041,0.1979205 7.8884745,7.7384787 44.999921 0 1 -0.001,0.1979208 7.8884745,7.7384787 44.999921 0 1 -0.0057,0.1979208 7.8884745,7.7384787 44.999921 0 1 -0.01085,0.197404 7.8884745,7.7384787 44.999921 0 1 -0.01602,0.1968873 7.8884745,7.7384787 44.999921 0 1 -0.02067,0.1963703 7.8884745,7.7384787 44.999921 0 1 -0.02584,0.1958536 7.8884745,7.7384787 44.999921 0 1 -0.03101,0.19482 7.8884745,7.7384787 44.999921 0 1 -0.03566,0.1937871 7.8884745,7.7384787 44.999921 0 1 -0.04082,0.19327 7.8884745,7.7384787 44.999921 0 1 -0.04599,0.191719 7.8884745,7.7384787 44.999921 0 1 -0.05013,0.19017 7.8884745,7.7384787 44.999921 0 1 -0.05529,0.189135 7.8884745,7.7384787 44.999921 0 1 -0.06046,0.187586 7.8884745,7.7384787 44.999921 0 1 -0.0646,0.185518 7.8884745,7.7384787 44.999921 0 1 -0.06976,0.183968 7.8884745,7.7384787 44.999921 0 1 -0.0739,0.181901 7.8884745,7.7384787 44.999921 0 1 -0.07906,0.180351 7.8884745,7.7384787 44.999921 0 1 -0.08372,0.177767 7.8884745,7.7384787 44.999921 0 1 -0.08785,0.1757 7.8884745,7.7384787 44.999921 0 1 -0.0925,0.173116 7.8884745,7.7384787 44.999921 0 1 -0.09664,0.170532 7.8884745,7.7384787 44.999921 0 1 -0.101285,0.168465 7.8884745,7.7384787 44.999921 0 1 -0.10542,0.165365 7.8884745,7.7384787 44.999921 0 1 -0.109554,0.16278 7.8884745,7.7384787 44.999921 0 1 -0.114205,0.159681 7.8884745,7.7384787 44.999921 0 1 -0.117823,0.156579 7.8884745,7.7384787 44.999921 0 1 -0.121956,0.153996 7.8884745,7.7384787 44.999921 0 1 -0.125574,0.150379 7.8884745,7.7384787 44.999921 0 1 -0.129708,0.146761 7.8884745,7.7384787 44.999921 0 1 -0.133325,0.144177 7.8884745,7.7384787 44.999921 0 1 -0.136942,0.140043 7.8884745,7.7384787 44.999921 0 1 -0.14056,0.136426 7.8884745,7.7384787 44.999921 0 1 -0.144177,0.133325 7.8884745,7.7384787 44.999921 0 1 -0.147278,0.129191 7.8884745,7.7384787 44.999921 0 1 -0.150895,0.125057 7.8884745,7.7384787 44.999921 0 1 -0.153996,0.12144 7.8884745,7.7384787 44.999921 0 1 -0.157096,0.117305 7.8884745,7.7384787 44.999921 0 1 -0.160197,0.113688 7.8884745,7.7384787 44.999921 0 1 -0.162781,0.109037 7.8884745,7.7384787 44.999921 0 1 -0.165882,0.104904 7.8884745,7.7384787 44.999921 0 1 -0.168465,0.100769 7.8884745,7.7384787 44.999921 0 1 -0.171049,0.09663 7.8884745,7.7384787 44.999921 0 1 -0.173633,0.09198 7.8884745,7.7384787 44.999921 0 1 -0.175699,0.08733 7.8884745,7.7384787 44.999921 0 1 -0.178284,0.08268 7.8884745,7.7384787 44.999921 0 1 -0.180351,0.07855 7.8884745,7.7384787 44.999921 0 1 -0.182418,0.0739 7.8884745,7.7384787 44.999921 0 1 -0.183968,0.06873 7.8884745,7.7384787 44.999921 0 1 -0.186035,0.0646 7.8884745,7.7384787 44.999921 0 1 -0.187585,0.05943 7.8884745,7.7384787 44.999921 0 1 -0.189136,0.05478 7.8884745,7.7384787 44.999921 0 1 -0.190686,0.05013 7.8884745,7.7384787 44.999921 0 1 -0.19172,0.04496 7.8884745,7.7384787 44.999921 0 1 -0.19327,0.04031 7.8884745,7.7384787 44.999921 0 1 -0.1937859,0.03514 7.8884745,7.7384787 44.999921 0 1 -0.1953374,0.02997 7.8884745,7.7384787 44.999921 0 1 -0.1958538,0.02532 7.8884745,7.7384787 44.999921 0 1 -0.1963703,0.02067 7.8884745,7.7384787 44.999921 0 1 -0.1968873,0.0155 7.8884745,7.7384787 44.999921 0 1 -0.1974038,0.01034 7.8884745,7.7384787 44.999921 0 1 -0.1979208,0.0052 A 7.8884745,7.7384787 44.999921 0 1 8.2036332,16.240352 7.8884745,7.7384787 44.999921 0 1 7.6212401,16.182991 7.8884745,7.7384787 44.999921 0 1 7.0440142,16.082739 7.8884745,7.7384787 44.999921 0 1 6.4745399,15.939596 7.8884745,7.7384787 44.999921 0 1 5.9169512,15.754594 7.8884745,7.7384787 44.999921 0 1 5.373832,15.528768 7.8884745,7.7384787 44.999921 0 1 4.8482827,15.263151 7.8884745,7.7384787 44.999921 0 1 4.343404,14.959293 7.8884745,7.7384787 44.999921 0 1 3.8617795,14.618746 7.8884745,7.7384787 44.999921 0 1 3.4065102,14.244092 7.8884745,7.7384787 44.999921 0 1 2.9796629,13.836881 7.8884745,7.7384787 44.999921 0 1 2.5838214,13.399699 7.8884745,7.7384787 44.999921 0 1 2.2210528,12.934094 7.8884745,7.7384787 44.999921 0 1 1.893941,12.444202 7.8884745,7.7384787 44.999921 0 1 1.6035195,11.931571 7.8884745,7.7384787 44.999921 0 1 1.352372,11.399304 7.8884745,7.7384787 44.999921 0 1 1.1410154,10.850501 7.8884745,7.7384787 44.999921 0 1 0.97099998,10.288261 7.8884745,7.7384787 44.999921 0 1 0.84284244,9.7156859 7.8884745,7.7384787 44.999921 0 1 0.75809296,9.1358764 7.8884745,7.7384787 44.999921 0 1 0.71675181,8.5524496 7.8884745,7.7384787 44.999921 0 1 0.71933573,7.9679889 7.8884745,7.7384787 44.999921 0 1 0.76481099,7.3866293 7.8884745,7.7384787 44.999921 0 1 0.85421132,6.8109539 7.8884745,7.7384787 44.999921 0 1 0.98650298,6.2445799 7.8884745,7.7384787 44.999921 0 1 1.1611692,5.6900918 7.8884745,7.7384787 44.999921 0 1 1.3766599,5.1516235 7.8884745,7.7384787 44.999921 0 1 1.6324583,4.6307251 7.8884745,7.7384787 44.999921 0 1 1.9264972,4.1320477 7.8884745,7.7384787 44.999921 0 1 2.2577431,3.6566242 7.8884745,7.7384787 44.999921 0 1 2.6236123,3.2085897 7.8884745,7.7384787 44.999921 0 1 3.0225542,2.7894938 7.8884745,7.7384787 44.999921 0 1 3.4525022,2.4019206 7.8884745,7.7384787 44.999921 0 1 3.9108721,2.0484538 7.8884745,7.7384787 44.999921 0 1 4.3950803,1.730127 7.8884745,7.7384787 44.999921 0 1 4.9020262,1.4500407 7.8884745,7.7384787 44.999921 0 1 5.4296424,1.2087118 7.8884745,7.7384787 44.999921 0 1 5.974312,1.0076905 7.8884745,7.7384787 44.999921 0 1 6.5334509,0.84852704 7.8884745,7.7384787 44.999921 0 1 7.103442,0.73173824 7.8884745,7.7384787 44.999921 0 1 7.6817013,0.65784096 7.8884745,7.7384787 44.999921 0 1 8.2646114,0.62786864 Z" />
      <path
         id="path13589"
         style="fill:#8dd3ff;fill-opacity:1;stroke-width:0.264583"
         d="m 11.589474,13.507185 c 0.01234,-0.0073 0.02492,-0.01428 0.03721,-0.0217 0.0436,-0.02629 0.08684,-0.05316 0.129708,-0.08062 0.04275,-0.02735 0.08513,-0.05525 0.127124,-0.08371 0.0419,-0.02856 0.08342,-0.05767 0.12454,-0.08733 0.04123,-0.0296 0.08206,-0.05974 0.122473,-0.09043 0.04038,-0.03064 0.08034,-0.06131 0.119889,-0.09302 0.03953,-0.03169 0.07864,-0.06442 0.117306,-0.09715 0.03869,-0.0329 0.07693,-0.06632 0.114722,-0.10025 0.03784,-0.03378 0.07522,-0.06807 0.112138,-0.102839 0.03682,-0.03482 0.07316,-0.07014 0.109037,-0.105936 l 0.0015,-0.0016 0.0021,-0.0015 0.0015,-0.0015 0.0015,-0.0015 0.0015,-0.0016 0.0015,-0.0015 0.0015,-10e-4 10e-4,-0.0015 0.0015,-0.0016 0.0015,-0.0015 0.0015,-0.0021 0.0015,-0.0016 0.0015,-0.0021 0.0015,-0.0016 0.0015,-0.0015 0.0015,-0.0016 0.0015,-0.0015 0.0015,-0.0016 0.0015,-0.0015 0.0015,-0.0016 0.0015,-0.0021 0.001,-5.16e-4 0.0015,-0.0021 0.0015,-0.0015 0.0015,-0.0021 0.0015,-0.0015 0.0015,-0.0016 0.0016,-0.0015 0.0015,-0.0016 0.0015,-0.0015 0.0015,-0.0015 0.0015,-0.0015 10e-4,-0.0021 0.0015,-0.0016 0.0015,-0.0021 0.0015,-0.0016 0.0015,-0.0015 0.0015,-0.0016 0.0015,-0.0015 0.0021,-0.0016 0.0015,-0.0015 0.0015,-0.0016 0.001,-0.0015 0.0015,-10e-4 0.0015,-0.0015 0.0015,-0.0021 0.0015,-0.0015 0.0015,-0.0021 0.0015,-0.0016 0.0015,-0.0015 0.0015,-0.0016 0.001,-0.0015 0.0015,-0.0016 0.0015,-0.0015 0.0015,-0.0016 0.0015,-0.0021 0.0015,-0.0016 0.0015,-0.0015 0.0015,-0.0021 10e-4,-0.0016 0.0015,-0.0015 0.0015,-0.0016 0.0015,-0.0015 0.0015,-0.0016 0.0016,-0.0015 0.0021,-0.0021 0.0015,-0.0015 10e-4,-0.0015 0.0015,-0.0021 0.0015,-0.0015 0.0015,-0.0016 c 0.03495,-0.03674 0.0694,-0.07395 0.103353,-0.111622 0.03392,-0.03762 0.06734,-0.0757 0.100252,-0.114205 0.03307,-0.03849 0.06563,-0.07743 0.09767,-0.116787 0.03188,-0.03937 0.06323,-0.07916 0.09405,-0.119375 0.03085,-0.04025 0.06118,-0.0809 0.09095,-0.121954 0.02983,-0.04112 0.05912,-0.08263 0.08785,-0.124542 0.02863,-0.04182 0.05672,-0.08403 0.08423,-0.126606 0.02762,-0.0427 0.05466,-0.08576 0.08113,-0.129191 0.02641,-0.04323 0.05226,-0.08681 0.07752,-0.130741 0.02522,-0.04411 0.04985,-0.08856 0.0739,-0.133326 0.02419,-0.04463 0.04779,-0.0896 0.0708,-0.134874 0.02282,-0.04534 0.04505,-0.09099 0.06666,-0.136943 0.0218,-0.04604 0.04299,-0.09238 0.06356,-0.139011 0.02042,-0.0464 0.04023,-0.09309 0.05943,-0.140043 0.01923,-0.04711 0.03783,-0.09449 0.05581,-0.14211 0.01803,-0.04764 0.03543,-0.09553 0.05219,-0.143661 0.01665,-0.048 0.03267,-0.09624 0.04806,-0.144694 0.01563,-0.04853 0.03062,-0.09729 0.04496,-0.146244 0.01408,-0.0489 0.02752,-0.098 0.04031,-0.147278 0.01288,-0.04926 0.02511,-0.0987 0.03669,-0.1483111 0.01168,-0.04963 0.0227,-0.09941 0.03307,-0.149345 0.01013,-0.04999 0.0196,-0.1001183 0.02842,-0.1503783 0.0091,-0.050173 0.01754,-0.1004752 0.02532,-0.1508953 0.0076,-0.050537 0.01444,-0.1011886 0.02067,-0.1519285 0.0064,-0.050726 0.01203,-0.1015455 0.01705,-0.1524455 0.005,-0.050743 0.0093,-0.1015656 0.01292,-0.1524455 0.0036,-0.050934 0.0065,-0.1019223 0.0088,-0.1529622 0.0024,-0.051122 0.0041,-0.102289 0.0052,-0.153479 8.46e-4,-0.051143 0.001,-0.1023091 5.17e-4,-0.153479 -3.6e-4,-0.051331 -0.0014,-0.1026657 -0.0031,-0.153996 -0.0026,-0.076786 -0.0068,-0.1532919 -0.0124,-0.2299599 -0.0056,-0.076668 -0.01258,-0.1534988 -0.02119,-0.2299602 -0.0086,-0.076417 -0.01895,-0.1523447 -0.03049,-0.2284098 -0.01154,-0.076065 -0.02424,-0.1522677 -0.03876,-0.227893 -0.01454,-0.075705 -0.03057,-0.1512253 -0.04806,-0.2263429 -0.01749,-0.075117 -0.03643,-0.1498316 -0.05684,-0.2242756 -0.02045,-0.074472 -0.0428,-0.1485556 -0.06615,-0.2222087 -0.02334,-0.073653 -0.04769,-0.1468763 -0.0739,-0.2196248 -0.02614,-0.072626 -0.05374,-0.144422 -0.08268,-0.2160074 -0.02894,-0.071586 -0.05924,-0.1429613 -0.09095,-0.2134238 -0.03174,-0.070608 -0.06528,-0.1404604 -0.09974,-0.2098064 -0.03446,-0.069346 -0.06983,-0.138185 -0.106971,-0.206189 -0.03711,-0.067887 -0.07553,-0.1351208 -0.115238,-0.2015379 -0.03971,-0.066417 -0.08072,-0.1320173 -0.12299,-0.1968873 -4.21e-4,-6.363e-4 -6.12e-4,-0.00143 -10e-4,-0.00207 l -0.34985,0.3389974 a 5.8201332,6.8738971 0 0 1 0.0067,0.01757 5.8201332,6.8738971 0 0 1 0.05271,0.1514118 5.8201332,6.8738971 0 0 1 0.05013,0.1524455 5.8201332,6.8738971 0 0 1 0.04703,0.153996 5.8201332,6.8738971 0 0 1 0.04341,0.1550291 5.8201332,6.8738971 0 0 1 0.04082,0.1565797 5.8201332,6.8738971 0 0 1 0.03721,0.157613 5.8201332,6.8738971 0 0 1 0.03462,0.1581298 5.8201332,6.8738971 0 0 1 0.03101,0.1596803 5.8201332,6.8738971 0 0 1 0.0279,0.160197 5.8201332,6.8738971 0 0 1 0.02429,0.1612305 5.8201332,6.8738971 0 0 1 0.02119,0.1612305 5.8201332,6.8738971 0 0 1 0.01809,0.1622639 5.8201332,6.8738971 0 0 1 0.01499,0.1627806 5.8201332,6.8738971 0 0 1 0.01137,0.1632977 5.8201332,6.8738971 0 0 1 0.0083,0.1632974 5.8201332,6.8738971 0 0 1 0.0052,0.1632977 5.8201332,6.8738971 0 0 1 0.0015,0.1632973 5.8201332,6.8738971 0 0 1 -0.01499,0.4904095 5.8201332,6.8738971 0 0 1 -0.04444,0.4878255 5.8201332,6.8738971 0 0 1 -0.07338,0.4831748 5.8201332,6.8738971 0 0 1 -0.102836,0.4754231 5.8201332,6.8738971 0 0 1 -0.131258,0.465605 5.8201332,6.8738971 0 0 1 -0.159163,0.453202 5.8201332,6.8738971 0 0 1 -0.186035,0.438732 5.8201332,6.8738971 0 0 1 -0.211874,0.422198 5.8201332,6.8738971 0 0 1 -0.236678,0.403075 5.8201332,6.8738971 0 0 1 -0.260966,0.381889 5.8201332,6.8738971 0 0 1 -0.283187,0.35915 5.8201332,6.8738971 0 0 1 -0.254764,0.282155 z" />
    </g>
  </g>
</svg>
