<?xml version="1.0" encoding="UTF-8" standalone="no"?>
<!-- Created with Inkscape (http://www.inkscape.org/) -->

<svg
   width="64"
   height="64"
   viewBox="0 0 16.933333 16.933333"
   version="1.1"
   id="svg5"
   inkscape:version="1.1 (c68e22c387, 2021-05-23)"
   sodipodi:docname="lgbt_active.svg"
   xmlns:inkscape="http://www.inkscape.org/namespaces/inkscape"
   xmlns:sodipodi="http://sodipodi.sourceforge.net/DTD/sodipodi-0.dtd"
   xmlns="http://www.w3.org/2000/svg"
   xmlns:svg="http://www.w3.org/2000/svg">
  <sodipodi:namedview
     id="namedview7"
     pagecolor="#ffffff"
     bordercolor="#666666"
     borderopacity="1.0"
     inkscape:pageshadow="2"
     inkscape:pageopacity="0.0"
     inkscape:pagecheckerboard="0"
     inkscape:document-units="px"
     showgrid="false"
     inkscape:zoom="6.5714107"
     inkscape:cx="22.5218"
     inkscape:cy="37.206623"
     inkscape:window-width="1600"
     inkscape:window-height="837"
     inkscape:window-x="-8"
     inkscape:window-y="-8"
     inkscape:window-maximized="1"
     inkscape:current-layer="layer1"
     units="px"
     width="64px" />
  <defs
     id="defs2">
    <pattern
       id="EMFhbasepattern"
       patternUnits="userSpaceOnUse"
       width="6"
       height="6"
       x="0"
       y="0" />
    <pattern
       id="EMFhbasepattern-0"
       patternUnits="userSpaceOnUse"
       width="6"
       height="6"
       x="0"
       y="0" />
    <pattern
       id="EMFhbasepattern-3"
       patternUnits="userSpaceOnUse"
       width="6"
       height="6"
       x="0"
       y="0" />
    <pattern
       id="EMFhbasepattern-35"
       patternUnits="userSpaceOnUse"
       width="6"
       height="6"
       x="0"
       y="0" />
  </defs>
  <g
     inkscape:label="Слой 1"
     inkscape:groupmode="layer"
     id="layer1">
    <g
       id="g1618"
       transform="matrix(1.0271199,0,0,1.0271199,-0.83117268,-0.26254207)">
      <path
         id="path13216"
         style="fill:#f3ac4e;stroke-width:0.0320539"
         d="m 15.963962,3.0755737 c -0.0507,-7.851e-4 -0.114325,0.00239 -0.194067,0.00365 -5.7359,0.090125 -11.0024042,4.8000933 -11.8660995,10.6121383 -0.096159,0.647083 -0.1804934,2.010935 -0.1354469,2.19042 l 0.021399,0.0854 H 4.461655 5.1335633 l 0.014605,-0.07216 c 0.00802,-0.03967 0.022383,-0.317672 0.031898,-0.6178 C 5.3614393,9.5556984 9.9363809,4.8385516 15.635766,4.4965248 c 0.581547,-0.034899 0.525508,0.042486 0.525508,-0.7258131 0,-0.6159174 0.02242,-0.6918837 -0.197313,-0.6951327 z"
         sodipodi:nodetypes="ccsccccscsscc" />
      <path
         id="path12502"
         style="fill:#f7df79;stroke-width:0.030745"
         d="m 16.035886,4.8550388 c -0.03048,-6.673e-4 -0.07002,-6.56e-5 -0.116685,0.00162 -0.04666,0.00169 -0.100417,0.00443 -0.159432,0.00816 -0.05902,0.00373 -0.123285,0.00843 -0.190822,0.013894 -0.06754,0.00546 -0.138364,0.011724 -0.210598,0.018611 -0.07223,0.00689 -0.145866,0.014414 -0.218966,0.022414 -0.0731,0.008 -0.145682,0.01645 -0.215822,0.025254 -0.07014,0.0088 -0.137815,0.017933 -0.201168,0.027231 -0.07403,0.010865 -0.147815,0.022505 -0.22135,0.034889 -0.07353,0.012383 -0.146808,0.025516 -0.219828,0.039401 -0.07302,0.013886 -0.145764,0.028544 -0.218254,0.043915 -0.07249,0.015372 -0.144737,0.031486 -0.216684,0.048327 -0.07195,0.01684 -0.143626,0.034395 -0.215012,0.052688 -0.07138,0.018293 -0.142478,0.03732 -0.213286,0.057049 -0.07081,0.019729 -0.141345,0.040161 -0.211561,0.061308 -0.07022,0.021148 -0.140131,0.043017 -0.209739,0.065568 -0.06961,0.022551 -0.138878,0.04579 -0.207859,0.069726 -0.06898,0.023937 -0.137646,0.048527 -0.205983,0.073834 -0.06834,0.025306 -0.136377,0.051333 -0.204059,0.077992 -0.06768,0.026659 -0.13502,0.053952 -0.202027,0.081947 -0.06701,0.027996 -0.133684,0.056689 -0.200003,0.086004 -0.06632,0.029316 -0.132258,0.05929 -0.19787,0.089909 -0.06561,0.030619 -0.130851,0.061857 -0.19574,0.093763 -0.06489,0.031906 -0.129412,0.064492 -0.19356,0.097668 -0.06415,0.033176 -0.127935,0.06694 -0.191328,0.1013694 -0.06339,0.03443 -0.126375,0.069506 -0.188996,0.1051726 -0.06263,0.035667 -0.124882,0.071937 -0.186715,0.1088238 -0.06184,0.036887 -0.123251,0.074384 -0.184281,0.1124749 -0.06103,0.038091 -0.121686,0.076797 -0.181898,0.1160752 -0.06021,0.039278 -0.119985,0.079125 -0.179362,0.1195743 -0.05937,0.040449 -0.118354,0.08147 -0.176876,0.1230732 C 10.0416,6.8743846 9.983535,6.9165623 9.9258827,6.959303 9.8682314,7.0020438 9.8109971,7.0453604 9.75423,7.0892222 9.6974608,7.1330839 9.6411303,7.1775219 9.585265,7.2224881 9.5293966,7.2674544 9.4739856,7.3129454 9.4190358,7.3589996 9.364087,7.4050537 9.3096151,7.451631 9.2555985,7.4987564 9.2015809,7.5458819 9.1480157,7.5935786 9.094949,7.6417588 9.0418813,7.689939 8.9892896,7.738636 8.9371885,7.7878544 8.8850883,7.8370728 8.8334907,7.8868033 8.7823709,7.9370433 8.731254,7.9872834 8.680615,8.0380298 8.6304942,8.0892749 8.5803743,8.14052 8.5307687,8.1922647 8.4816615,8.2444983 8.4325534,8.2967318 8.3839447,8.3494574 8.3358709,8.4026629 8.2877941,8.4558684 8.2402521,8.5095572 8.1932214,8.5637181 8.1461936,8.617879 8.0996859,8.6725128 8.0537199,8.7276128 8.0077539,8.7827127 7.9623492,8.8382749 7.9174606,8.8942963 7.872575,8.9503186 7.8282389,9.0067914 7.7844494,9.0637185 7.740659,9.1206466 7.6974121,9.1780124 7.6547325,9.2358286 7.6120538,9.2936448 7.5699149,9.3518869 7.5283627,9.4105754 7.4868106,9.469265 7.4458482,9.5284147 7.4054413,9.587959 7.3650343,9.6475042 7.3252161,9.707443 7.28597,9.7678282 7.246724,9.8282124 7.2080667,9.8890245 7.1699962,9.9502321 c -0.03807,0.061207 -0.075549,0.1228239 -0.1124245,0.1848379 -0.036879,0.06201 -0.073155,0.124419 -0.1088241,0.187222 -0.035668,0.0628 -0.07073,0.126028 -0.1051728,0.189604 -0.034444,0.06358 -0.068269,0.127503 -0.1014712,0.191836 -0.033202,0.06433 -0.065825,0.129046 -0.097768,0.194118 -0.031945,0.06507 -0.063245,0.130503 -0.093915,0.196299 -0.030671,0.06579 -0.060683,0.131976 -0.090063,0.198479 -0.02938,0.0665 -0.058132,0.133315 -0.086206,0.200508 -0.028075,0.06719 -0.0555,0.13477 -0.08225,0.202637 -0.026752,0.06787 -0.052833,0.13604 -0.078246,0.204565 -0.025414,0.06852 -0.050131,0.137377 -0.074188,0.206541 -0.024061,0.06916 -0.047446,0.138631 -0.070134,0.208419 -0.022687,0.06979 -0.044673,0.139899 -0.065973,0.210294 -0.021301,0.07039 -0.041918,0.141083 -0.061817,0.21207 -0.019896,0.07099 -0.039077,0.142283 -0.057556,0.213843 -0.018475,0.07156 -0.036255,0.1434 -0.053295,0.215518 -0.017042,0.07212 -0.033344,0.144482 -0.048935,0.217141 -0.015589,0.07266 -0.030453,0.145579 -0.044575,0.218763 -0.014122,0.07318 -0.027524,0.146643 -0.040163,0.220335 -0.012637,0.07369 -0.024513,0.147623 -0.035649,0.221806 -0.011136,0.07418 -0.021516,0.148618 -0.031136,0.223276 -0.00678,0.05265 -0.013459,0.116525 -0.019877,0.188185 -0.00642,0.07166 -0.012592,0.151094 -0.018359,0.234838 -0.00577,0.08374 -0.011094,0.171797 -0.015924,0.2607 -0.00483,0.0889 -0.00913,0.178683 -0.012727,0.265822 -0.0036,0.08714 -0.00653,0.171652 -0.00862,0.250102 -0.00209,0.07845 -0.00336,0.150855 -0.00365,0.213693 -2.944e-4,0.06284 2.944e-4,0.11609 0.00213,0.15639 8.832e-4,0.02015 0.00208,0.03709 0.00355,0.0503 0.00147,0.01322 0.00325,0.02273 0.00533,0.02814 l 0.019421,0.05066 h 0.673535 0.6735314 l 0.014604,-0.07211 c 0.00201,-0.0099 0.00445,-0.03606 0.0071,-0.0748 0.00265,-0.03873 0.00552,-0.09003 0.00847,-0.150305 0.00589,-0.120552 0.012024,-0.276937 0.016936,-0.440011 0.0022,-0.07288 0.00529,-0.145565 0.00923,-0.218053 0.00394,-0.07249 0.00873,-0.144762 0.0144,-0.216836 0.00567,-0.07207 0.012195,-0.143929 0.019576,-0.215569 0.00738,-0.07164 0.015625,-0.143065 0.024694,-0.214249 0.00908,-0.07118 0.018976,-0.142121 0.029718,-0.212831 0.010738,-0.07071 0.022347,-0.141197 0.034737,-0.211409 0.012387,-0.07021 0.025584,-0.140143 0.039602,-0.209838 0.01402,-0.0697 0.028845,-0.139159 0.044472,-0.208317 0.01563,-0.06916 0.032024,-0.138043 0.04924,-0.206644 0.01722,-0.0686 0.035269,-0.136897 0.054057,-0.204919 0.01879,-0.06802 0.038334,-0.135772 0.058672,-0.203196 0.020337,-0.06742 0.041469,-0.134514 0.063338,-0.201318 0.021867,-0.0668 0.044471,-0.13333 0.067848,-0.199493 0.023381,-0.06616 0.047495,-0.131962 0.072366,-0.197465 0.024868,-0.0655 0.050483,-0.130717 0.076823,-0.195539 0.02634,-0.06482 0.053449,-0.129288 0.081238,-0.193407 0.027791,-0.06412 0.056275,-0.127881 0.085498,-0.191279 0.029222,-0.0634 0.059176,-0.126443 0.089809,-0.189097 0.030631,-0.06266 0.061941,-0.124925 0.093964,-0.186816 0.032026,-0.06189 0.06473,-0.123377 0.098124,-0.184483 0.033397,-0.06111 0.067484,-0.121798 0.1022318,-0.1821 0.034749,-0.0603 0.070158,-0.120239 0.1062374,-0.179717 0.036081,-0.05948 0.072854,-0.118499 0.1102441,-0.177129 0.037392,-0.05863 0.075413,-0.116831 0.1140986,-0.174595 0.038684,-0.05776 0.077995,-0.115131 0.1179502,-0.172009 0.039957,-0.05688 0.080547,-0.1133 0.1217557,-0.16927 0.041207,-0.05597 0.083065,-0.111489 0.1255081,-0.1665315 0.04244,-0.055042 0.085453,-0.1095993 0.1291066,-0.1636925 0.043655,-0.054093 0.087912,-0.107677 0.132759,-0.1608015 0.044846,-0.053124 0.090288,-0.1057772 0.1363083,-0.1579107 0.046021,-0.052134 0.092636,-0.1037449 0.1398087,-0.1548687 0.047173,-0.051123 0.094896,-0.1017842 0.1432049,-0.1518766 0.048305,-0.050092 0.097181,-0.099641 0.1466032,-0.1486816 0.049418,-0.04904 0.099383,-0.09757 0.1498973,-0.1455374 0.050514,-0.047969 0.1016087,-0.095367 0.1531951,-0.1422423 0.05159,-0.046876 0.103698,-0.093233 0.15634,-0.1389961 0.05264,-0.045762 0.105807,-0.090919 0.159484,-0.1355477 0.05367,-0.044628 0.107834,-0.088727 0.162524,-0.1322011 0.05469,-0.043474 0.109885,-0.086352 0.165569,-0.1286513 0.05568,-0.042299 0.1119,-0.083998 0.16856,-0.1251017 0.05666,-0.041103 0.113786,-0.081614 0.171399,-0.1215013 0.05762,-0.039887 0.115691,-0.079149 0.174241,-0.1177994 0.05855,-0.03865 0.117563,-0.076654 0.177027,-0.1140468 0.05946,-0.037393 0.119409,-0.07418 0.179769,-0.1102943 0.06036,-0.036115 0.121117,-0.071573 0.182352,-0.1063898 0.06123,-0.034816 0.122951,-0.068988 0.185043,-0.102485 0.06209,-0.033497 0.124598,-0.066321 0.187524,-0.098479 0.06293,-0.032158 0.126269,-0.063625 0.190011,-0.094422 0.06374,-0.030797 0.127856,-0.060949 0.192393,-0.090365 0.06454,-0.029416 0.129462,-0.058091 0.194779,-0.086106 0.06531,-0.028015 0.131038,-0.055354 0.197109,-0.081947 0.06607,-0.026593 0.132534,-0.052487 0.199341,-0.077637 0.06681,-0.025151 0.133946,-0.049538 0.201472,-0.073225 0.06752,-0.023687 0.135428,-0.046661 0.20365,-0.068864 0.06822,-0.022204 0.136781,-0.043652 0.20568,-0.064351 0.0689,-0.020699 0.138104,-0.040663 0.207657,-0.059838 0.06956,-0.019175 0.139443,-0.037543 0.209637,-0.055173 0.07019,-0.017629 0.1407,-0.034495 0.211509,-0.050558 0.07081,-0.016063 0.14193,-0.031365 0.213338,-0.045842 0.07141,-0.014477 0.143127,-0.028155 0.215113,-0.041025 0.07199,-0.012869 0.14424,-0.024915 0.216785,-0.036156 0.07254,-0.011242 0.145378,-0.021644 0.21846,-0.031237 0.07308,-0.00959 0.146429,-0.018343 0.22003,-0.026268 0.0736,-0.00792 0.147452,-0.015013 0.221552,-0.021248 0.114593,-0.00964 0.22687,-0.020106 0.315468,-0.029158 0.0886,-0.00905 0.153494,-0.016699 0.173327,-0.020791 l 0.07216,-0.014909 V 5.551288 4.8809014 l -0.06298,-0.01998 c -0.0052,-0.00166 -0.0132,-0.00298 -0.02368,-0.00396 -0.01048,-9.813e-4 -0.0235,-0.0016 -0.03874,-0.00193 z" />
      <path
         id="path13222"
         style="fill:#f56fa0;stroke-width:0.0320538"
         d="m 15.912066,1.2879951 c -0.38275,0.00111 -1.241063,0.085352 -1.898381,0.1939153 C 7.7303249,2.5196727 2.8718998,7.5857644 2.0741575,13.931783 1.9781727,14.695347 1.946099,15.716306 2.01148,15.927781 c 0.00976,0.03158 0.1619948,0.03877 0.6784496,0.03205 l 0.6658734,-0.0087 0.02353,-0.608976 C 3.6425435,8.5273511 8.977355,2.9982314 15.568302,2.7092932 c 0.264444,-0.011593 0.506066,-0.034046 0.536918,-0.049899 l 0.05609,-0.028803 V 1.9767867 1.3229821 l -0.06856,-0.021755 c -0.02936,-0.00932 -0.09235,-0.013492 -0.18068,-0.013235 z"
         sodipodi:nodetypes="sssscccscccccs" />
      <path
         id="path12083"
         style="fill:#f7d134;stroke-width:0.0320538"
         d="m 8.2552935,10.86876 c 0.012177,-0.02043 0.023974,-0.04108 0.036307,-0.06141 0.036079,-0.05948 0.072802,-0.11855 0.110192,-0.177181 0.037392,-0.05863 0.075466,-0.11683 0.1141487,-0.174594 0.038683,-0.05776 0.077997,-0.115081 0.1179521,-0.171958 0.039956,-0.05688 0.080547,-0.1133 0.1217537,-0.16927 0.041209,-0.05597 0.083016,-0.11149 0.1254582,-0.1665319 0.04244,-0.055042 0.085503,-0.109599 0.1291586,-0.163692 0.043652,-0.054093 0.087913,-0.1077285 0.1327589,-0.1608523 0.044847,-0.053124 0.090288,-0.1057265 0.1363084,-0.1578603 0.046018,-0.052134 0.092633,-0.1037958 0.1398067,-0.1549192 0.047173,-0.051123 0.094898,-0.1017335 0.1432039,-0.1518259 0.048308,-0.050092 0.097184,-0.099641 0.1466032,-0.1486818 0.049422,-0.049041 0.099386,-0.097569 0.1499003,-0.1455378 0.050512,-0.047968 0.1015566,-0.095417 0.1531438,-0.1422924 0.05159,-0.046876 0.103699,-0.093183 0.156339,-0.1389455 0.05264,-0.045762 0.105807,-0.09097 0.159484,-0.1355987 0.05367,-0.044628 0.107886,-0.088676 0.162576,-0.1321503 0.05469,-0.043474 0.109883,-0.086353 0.165567,-0.1286514 0.05569,-0.042299 0.111851,-0.083998 0.168511,-0.1251016 0.05666,-0.041103 0.113785,-0.081614 0.171398,-0.1215013 0.05762,-0.039887 0.115743,-0.079149 0.174291,-0.1177994 0.05855,-0.03865 0.117566,-0.076705 0.17703,-0.1140976 0.05946,-0.037393 0.119357,-0.074129 0.179717,-0.1102437 0.06036,-0.036115 0.121167,-0.071573 0.182404,-0.1063896 0.06123,-0.034816 0.122899,-0.068988 0.18499,-0.102485 0.06209,-0.033497 0.1246,-0.066321 0.187525,-0.098479 0.06293,-0.032158 0.126268,-0.063676 0.190012,-0.094473 0.06374,-0.030797 0.127903,-0.060898 0.192443,-0.090315 0.06454,-0.029416 0.129463,-0.058141 0.194776,-0.086156 0.06532,-0.028015 0.130989,-0.055304 0.197061,-0.081897 0.06607,-0.026593 0.132534,-0.052486 0.19934,-0.077637 0.06681,-0.02515 0.133998,-0.049589 0.201522,-0.073276 0.06753,-0.023687 0.135379,-0.04661 0.2036,-0.068813 0.06822,-0.022204 0.136782,-0.043652 0.205681,-0.064351 0.0689,-0.020699 0.138152,-0.040663 0.207708,-0.059838 0.06956,-0.019175 0.139443,-0.037594 0.209635,-0.055223 0.0702,-0.017629 0.140702,-0.034444 0.211513,-0.050507 0.07081,-0.016063 0.141929,-0.031365 0.213337,-0.045842 0.07141,-0.014476 0.143074,-0.028155 0.21506,-0.041024 0.07199,-0.012869 0.144293,-0.024915 0.216838,-0.036156 0.07255,-0.011242 0.145326,-0.021695 0.218408,-0.031288 0.07308,-0.00959 0.146428,-0.018343 0.220031,-0.026268 0.0736,-0.00792 0.147452,-0.015013 0.221552,-0.021247 0.221502,-0.029824 0.433526,-0.041015 0.481896,-0.049138 9.81e-4,-1.767e-4 0.0062,-6.477e-4 0.0069,-8.145e-4 l 0.07211,-0.014858 V 5.5512514 4.8808647 l -0.06298,-0.01998 c -0.0052,-0.00166 -0.0132,-0.00298 -0.02368,-0.00396 -0.01049,-9.715e-4 -0.0235,-0.00159 -0.03874,-0.00193 -0.493761,0.026772 -0.811353,0.109994 -0.929313,0.1333674 C 13.408993,5.3068363 11.206254,6.647105 9.876594,8.4122101 8.944872,9.6490556 8.5371197,10.28366 8.2552935,10.868756 Z" />
      <path
         id="path10323"
         style="fill:#ba63d0;stroke-width:0.0320538"
         d="m 16.012459,10.208349 c 0.0138,3.5e-5 0.02598,5.89e-4 0.03676,0.0015 0.01079,9.82e-4 0.02022,0.0024 0.02845,0.0043 0.0082,0.0019 0.01527,0.0042 0.0214,0.007 0.0061,0.0028 0.01133,0.0061 0.01582,0.0098 l 0.0464,0.03849 v 0.637832 0.63783 l -0.07211,0.02794 c -0.0099,0.0038 -0.02714,0.0085 -0.04975,0.01369 -0.02261,0.0052 -0.0506,0.01077 -0.0821,0.01653 -0.063,0.01153 -0.140014,0.02361 -0.21577,0.03342 -0.05942,0.0077 -0.118368,0.01675 -0.176877,0.02713 -0.05851,0.01038 -0.116545,0.02204 -0.174088,0.03504 -0.05754,0.013 -0.114624,0.02729 -0.171147,0.04285 -0.05652,0.01556 -0.112502,0.0324 -0.16795,0.05046 -0.05545,0.01805 -0.110337,0.03732 -0.164655,0.05781 -0.05432,0.02049 -0.108074,0.0422 -0.161208,0.06506 -0.05313,0.02286 -0.105662,0.04688 -0.157558,0.07206 -0.0519,0.02518 -0.103147,0.05153 -0.153752,0.07896 -0.0506,0.02743 -0.100541,0.05593 -0.149798,0.08555 -0.04926,0.02962 -0.09783,0.06034 -0.145688,0.09209 -0.04786,0.03175 -0.09498,0.06456 -0.14138,0.09838 -0.0464,0.03381 -0.09208,0.06864 -0.136968,0.104462 -0.04489,0.03582 -0.08898,0.07258 -0.132302,0.110345 -0.04332,0.03776 -0.08583,0.07653 -0.127536,0.116177 -0.0417,0.03965 -0.08259,0.08019 -0.122618,0.121653 -0.04003,0.04147 -0.0792,0.08385 -0.117495,0.12708 -0.0383,0.04322 -0.07576,0.08728 -0.112272,0.1322 -0.03652,0.04492 -0.07212,0.09071 -0.106795,0.137272 -0.03468,0.04656 -0.06843,0.0939 -0.101216,0.142039 -0.03279,0.04814 -0.0646,0.09706 -0.09544,0.146705 -0.03084,0.04965 -0.06072,0.100015 -0.08955,0.151116 -0.02884,0.0511 -0.05664,0.102935 -0.08342,0.155426 -0.02678,0.05249 -0.05251,0.105663 -0.07718,0.159483 -0.02467,0.05382 -0.04828,0.108301 -0.07079,0.163388 -0.02251,0.05509 -0.04391,0.110796 -0.0642,0.16709 -0.02029,0.05629 -0.03944,0.113151 -0.05746,0.170588 -0.01801,0.05744 -0.03487,0.115415 -0.05056,0.173935 -0.01569,0.05852 -0.03021,0.117589 -0.04351,0.17713 -0.0133,0.05954 -0.02539,0.119571 -0.03626,0.180072 -0.01087,0.0605 -0.02053,0.121461 -0.02891,0.18286 -0.0084,0.0614 -0.01547,0.123211 -0.0213,0.185447 -0.0058,0.06224 -0.01036,0.12487 -0.01359,0.18788 l -0.02135,0.416684 -0.665874,0.0087 -0.665873,0.0087 -0.01998,-0.05213 c -0.0025,-0.0065 -0.0046,-0.01609 -0.0064,-0.0284 -0.0018,-0.0123 -0.0032,-0.02733 -0.0043,-0.04478 -0.0021,-0.03489 -0.0029,-0.07944 -0.0025,-0.130984 3.93e-4,-0.05155 0.0019,-0.110088 0.0045,-0.173074 0.0026,-0.06298 0.0061,-0.130381 0.01055,-0.199594 0.0044,-0.06921 0.0097,-0.14022 0.01562,-0.210447 0.0059,-0.07023 0.01259,-0.139701 0.01972,-0.205731 0.0071,-0.06603 0.01478,-0.128626 0.02277,-0.185244 0.008,-0.05662 0.01629,-0.107246 0.0248,-0.149239 0.01475,-0.07278 0.03091,-0.144966 0.04843,-0.216582 0.01752,-0.07162 0.03642,-0.142639 0.05664,-0.213033 0.02023,-0.0704 0.04178,-0.140212 0.06466,-0.209331 0.02287,-0.06912 0.04705,-0.137585 0.07252,-0.205376 0.02547,-0.06779 0.05222,-0.13491 0.08022,-0.201319 0.028,-0.06641 0.05725,-0.132085 0.08773,-0.197059 0.03047,-0.06497 0.06214,-0.129214 0.09503,-0.192698 0.03289,-0.06349 0.06698,-0.126242 0.102232,-0.188186 0.03525,-0.06194 0.07168,-0.12307 0.109228,-0.183417 0.03755,-0.06035 0.07619,-0.119903 0.115974,-0.178601 0.03979,-0.0587 0.0807,-0.116535 0.122667,-0.17353 0.04197,-0.05699 0.08501,-0.113118 0.129109,-0.168357 0.04409,-0.05524 0.08923,-0.109602 0.135395,-0.163033 0.04616,-0.05343 0.09336,-0.105937 0.141533,-0.157506 0.04817,-0.05157 0.09729,-0.102224 0.147412,-0.151876 0.05012,-0.04965 0.101235,-0.09831 0.153245,-0.145994 0.05201,-0.04768 0.104929,-0.09435 0.158775,-0.140011 0.05385,-0.04566 0.108629,-0.09029 0.164251,-0.133874 0.05562,-0.04358 0.112084,-0.08613 0.169419,-0.127587 0.05734,-0.04145 0.115548,-0.08182 0.174546,-0.121095 0.059,-0.03927 0.118765,-0.07747 0.179361,-0.114503 0.0606,-0.03703 0.12199,-0.07291 0.184128,-0.107658 0.06214,-0.03474 0.125069,-0.06831 0.188693,-0.10071 0.06362,-0.0324 0.127953,-0.06366 0.193003,-0.09366 0.06505,-0.03001 0.130793,-0.05881 0.197211,-0.08636 0.06642,-0.02755 0.133492,-0.05385 0.201217,-0.0789 0.06773,-0.02505 0.136093,-0.0488 0.205071,-0.0713 0.06898,-0.02249 0.138554,-0.04371 0.208723,-0.06359 0.07017,-0.01988 0.140918,-0.03846 0.212221,-0.05568 0.0713,-0.01722 0.143189,-0.03311 0.215568,-0.04762 0.07238,-0.0145 0.145262,-0.02762 0.218662,-0.03935 0.0734,-0.01173 0.147296,-0.02207 0.221653,-0.03098 0.06091,-0.0073 0.111693,-0.01276 0.15411,-0.01638 0.04242,-0.0036 0.07646,-0.0054 0.104056,-0.0053 z" />
      <path
         id="path11426"
         style="fill:#49d9c1;stroke-width:0.0320538"
         d="m 16.060841,6.6280836 -0.550762,0.054108 c -0.06583,0.00646 -0.131461,0.013576 -0.196856,0.0214 -0.0654,0.00782 -0.130537,0.016336 -0.195487,0.025507 -0.06495,0.00917 -0.129727,0.01901 -0.19422,0.029513 -0.06449,0.010504 -0.128728,0.021646 -0.192749,0.033469 -0.06402,0.011823 -0.127797,0.024347 -0.19133,0.037475 -0.06353,0.013127 -0.12683,0.02686 -0.189858,0.041278 -0.06303,0.014418 -0.125776,0.029489 -0.188285,0.045183 -0.06251,0.015694 -0.124789,0.032031 -0.186767,0.048986 -0.06198,0.016955 -0.123661,0.034535 -0.185091,0.052738 -0.06143,0.018203 -0.122602,0.037004 -0.183469,0.05644 -0.06087,0.019436 -0.121455,0.039487 -0.181745,0.060142 -0.06029,0.020655 -0.120273,0.041934 -0.179968,0.063793 -0.0597,0.021859 -0.119105,0.044344 -0.178196,0.067394 -0.05909,0.02305 -0.117851,0.046667 -0.176318,0.070893 -0.05847,0.024226 -0.116665,0.049055 -0.174494,0.074442 -0.05783,0.025388 -0.115338,0.051356 -0.172517,0.077891 -0.05718,0.026535 -0.114024,0.05362 -0.170536,0.081288 -0.05651,0.027668 -0.11268,0.055899 -0.168512,0.084686 -0.05583,0.028787 -0.111295,0.058141 -0.166428,0.088033 -0.05513,0.029892 -0.10993,0.060296 -0.164352,0.091278 -0.05442,0.030982 -0.108476,0.062516 -0.162171,0.094574 -0.05369,0.032058 -0.107035,0.064649 -0.15999,0.097769 -0.05295,0.03312 -0.105511,0.066797 -0.157708,0.1009636 -0.0522,0.034167 -0.104049,0.068857 -0.155477,0.1040573 -0.05143,0.0352 -0.102453,0.07088 -0.153094,0.1070996 -0.05064,0.036219 -0.100868,0.072969 -0.15071,0.1101929 -0.04984,0.037224 -0.0993,0.07492 -0.148328,0.113134 -0.04902,0.038214 -0.09765,0.076936 -0.145842,0.1161259 -0.04819,0.03919 -0.09596,0.078865 -0.143306,0.1190166 -0.04735,0.040152 -0.09428,0.080757 -0.140772,0.1218562 -0.04649,0.041099 -0.09252,0.082714 -0.138133,0.1247468 -0.04561,0.042032 -0.09082,0.084483 -0.135549,0.1274343 -0.04472,0.042951 -0.088989,0.086367 -0.1328081,0.1302232 -0.043819,0.043856 -0.087173,0.088165 -0.1300721,0.1329111 -0.0429,0.044746 -0.085316,0.089926 -0.1272814,0.1355481 -0.041964,0.045622 -0.083478,0.091701 -0.1244925,0.1381847 -0.041017,0.046484 -0.081551,0.093389 -0.1216026,0.1407205 -0.040052,0.047331 -0.07964,0.095092 -0.1187137,0.1432557 -0.039072,0.048164 -0.077641,0.096757 -0.1157187,0.1457399 -0.038078,0.04898 -0.075661,0.09834 -0.1127287,0.148124 -0.037071,0.04979 -0.073641,0.09998 -0.1096857,0.150559 -0.036045,0.05058 -0.071538,0.101536 -0.1065436,0.15289 -0.035005,0.05135 -0.069495,0.103108 -0.1034466,0.155224 -0.033953,0.05212 -0.06737,0.104591 -0.1002564,0.157454 -0.032882,0.05286 -0.065256,0.106141 -0.097056,0.159737 -0.031803,0.0536 -0.06306,0.107551 -0.093765,0.161867 -0.030702,0.05431 -0.060825,0.108976 -0.090415,0.163996 -0.029588,0.05502 -0.058608,0.110365 -0.087069,0.166075 -0.028462,0.05571 -0.056354,0.111769 -0.083673,0.168155 -0.027315,0.05639 -0.054061,0.113135 -0.080221,0.170183 -0.026161,0.05705 -0.051738,0.114414 -0.076726,0.17211 -0.024987,0.05769 -0.049424,0.115708 -0.073224,0.174036 -0.023801,0.05833 -0.046976,0.116966 -0.069574,0.175913 -0.022599,0.05895 -0.044593,0.118187 -0.065974,0.177739 -0.02138,0.05955 -0.042172,0.119422 -0.062323,0.179564 -0.020147,0.06014 -0.039667,0.120571 -0.058568,0.181289 -0.018905,0.06072 -0.03718,0.121733 -0.054819,0.183012 -0.01764,0.06128 -0.034652,0.122808 -0.051014,0.184636 -0.016364,0.06183 -0.032088,0.123948 -0.04716,0.186308 -0.015072,0.06236 -0.029492,0.124951 -0.043255,0.18783 -0.013766,0.06288 -0.026857,0.126019 -0.039301,0.189402 -0.012445,0.06338 -0.024237,0.12705 -0.035344,0.190924 -0.011107,0.06387 -0.021534,0.127942 -0.031289,0.192292 -0.00975,0.06435 -0.018842,0.128952 -0.02723,0.193763 -0.00531,0.04101 -0.010547,0.09337 -0.01562,0.153753 -0.00507,0.06038 -0.00996,0.128801 -0.014555,0.201877 -0.00459,0.07308 -0.00891,0.150826 -0.012777,0.229919 -0.00387,0.07909 -0.0073,0.159497 -0.010194,0.237932 -0.00289,0.07843 -0.00523,0.154916 -0.0069,0.226015 -0.00167,0.0711 -0.00264,0.136829 -0.00285,0.193914 -1.962e-4,0.05709 3.926e-4,0.105491 0.00187,0.141887 7.851e-4,0.0182 0.00172,0.03341 0.00294,0.04518 0.00123,0.01177 0.00273,0.02013 0.00446,0.02465 l 0.019727,0.05142 H 8.014725 c 0.1180749,0 0.217507,-6.87e-4 0.3006083,-0.0021 0.083101,-0.0014 0.1498983,-0.0037 0.2026383,-0.0068 0.02637,-0.0016 0.049219,-0.0034 0.068863,-0.0054 0.019647,-0.0021 0.03605,-0.0044 0.049546,-0.0069 0.013494,-0.0026 0.024076,-0.0054 0.031998,-0.0086 0.00792,-0.0031 0.0132,-0.0065 0.016126,-0.01019 0.00217,-0.0028 0.00443,-0.009 0.00674,-0.01851 0.00233,-0.0095 0.0047,-0.02211 0.0071,-0.03752 0.00479,-0.03083 0.00968,-0.07281 0.014349,-0.122921 0.00468,-0.05011 0.00914,-0.108367 0.013135,-0.171704 0.00399,-0.06334 0.00755,-0.131765 0.010292,-0.202283 0.0023,-0.05887 0.00526,-0.117571 0.00887,-0.176116 0.00362,-0.05855 0.0079,-0.116946 0.012831,-0.175152 0.00493,-0.05821 0.010507,-0.116237 0.016733,-0.174087 0.00623,-0.05785 0.013081,-0.115493 0.020589,-0.172973 0.00751,-0.05748 0.015667,-0.114813 0.024442,-0.171907 0.00877,-0.05709 0.018167,-0.113948 0.028194,-0.170639 0.01003,-0.05669 0.020681,-0.1132 0.031948,-0.169473 0.011268,-0.05627 0.02316,-0.112315 0.035649,-0.168155 0.012491,-0.05584 0.025602,-0.111497 0.039301,-0.166887 0.013701,-0.05539 0.028006,-0.110542 0.042901,-0.165466 0.014893,-0.05493 0.030375,-0.109605 0.046449,-0.164047 0.016075,-0.05444 0.032712,-0.108631 0.049952,-0.162577 0.017237,-0.05395 0.035056,-0.107622 0.053446,-0.161055 0.018391,-0.05343 0.037372,-0.10663 0.0569,-0.159534 0.019524,-0.0529 0.039593,-0.105551 0.060243,-0.157911 0.020646,-0.05236 0.041884,-0.104438 0.063639,-0.156237 0.021755,-0.0518 0.044039,-0.103291 0.066887,-0.154514 0.022848,-0.05122 0.046257,-0.102158 0.070182,-0.152789 0.023926,-0.05063 0.048391,-0.100992 0.073379,-0.151015 0.024987,-0.05002 0.050483,-0.09974 0.076522,-0.149138 0.026037,-0.0494 0.052595,-0.09845 0.079665,-0.147211 0.027072,-0.04876 0.054668,-0.09723 0.082758,-0.145335 0.028093,-0.0481 0.056655,-0.09587 0.085753,-0.143307 0.029094,-0.04743 0.058706,-0.09453 0.088793,-0.141278 0.030087,-0.04675 0.060672,-0.0931 0.091735,-0.139148 0.03106,-0.04604 0.0626,-0.09174 0.09462,-0.13707 0.03202,-0.04533 0.06455,-0.0903 0.09752,-0.134888 0.03297,-0.04459 0.0664,-0.08882 0.100305,-0.132658 0.0339,-0.04384 0.06827,-0.0873 0.103093,-0.130375 0.03482,-0.04308 0.07011,-0.08575 0.10583,-0.128043 0.03572,-0.04229 0.07186,-0.08421 0.108471,-0.12571 0.03661,-0.0415 0.07367,-0.08259 0.111155,-0.123276 0.03749,-0.04068 0.0754,-0.08094 0.113744,-0.120792 0.03834,-0.03985 0.07714,-0.0793 0.116326,-0.118306 0.03919,-0.03901 0.0788,-0.07757 0.118815,-0.115721 0.04002,-0.03815 0.08046,-0.07586 0.121299,-0.1131332 0.04084,-0.037271 0.08209,-0.074118 0.123732,-0.1104971 0.04164,-0.036379 0.08364,-0.072288 0.126066,-0.1077588 0.04242,-0.035471 0.08525,-0.070524 0.128449,-0.1050712 0.0432,-0.034547 0.08678,-0.068625 0.13073,-0.1022314 0.04395,-0.033607 0.08827,-0.06674 0.132961,-0.099392 0.0447,-0.032652 0.08977,-0.064821 0.135193,-0.096501 0.04542,-0.03168 0.09124,-0.062867 0.137373,-0.09356 0.04614,-0.030693 0.09262,-0.060879 0.139452,-0.090568 0.04684,-0.02969 0.09401,-0.058855 0.141533,-0.087526 0.04752,-0.028671 0.09537,-0.056847 0.14356,-0.084483 0.04819,-0.027636 0.09674,-0.054753 0.145588,-0.081339 0.04885,-0.026586 0.09803,-0.052624 0.147517,-0.078144 0.04949,-0.02552 0.09928,-0.050512 0.149391,-0.074949 0.05011,-0.024437 0.100542,-0.048314 0.151269,-0.071653 0.05073,-0.023339 0.10177,-0.046131 0.153092,-0.068357 0.05132,-0.022226 0.102912,-0.043914 0.154818,-0.06501 0.05191,-0.021096 0.104119,-0.041611 0.156593,-0.061562 0.05247,-0.019951 0.105239,-0.039324 0.158267,-0.058114 0.05303,-0.01879 0.10632,-0.037002 0.159888,-0.054615 0.05357,-0.017613 0.107419,-0.034644 0.161512,-0.051065 0.05409,-0.01642 0.108432,-0.032202 0.163032,-0.047414 0.0546,-0.015212 0.109457,-0.029826 0.164555,-0.043813 0.05509,-0.013988 0.110447,-0.027365 0.166023,-0.040112 0.05558,-0.012747 0.11135,-0.024868 0.167395,-0.036359 0.05604,-0.011491 0.112319,-0.022336 0.168813,-0.032556 0.0565,-0.01022 0.113253,-0.019821 0.170183,-0.028753 0.05693,-0.00893 0.114045,-0.01722 0.171401,-0.024848 0.05735,-0.00763 0.114904,-0.014583 0.172668,-0.020892 0.185109,-0.020219 0.415918,-0.046427 0.512881,-0.058215 l 0.176267,-0.02145 0.0087,-0.6444233 0.0087,-0.6444739 -0.05086,-0.042241 z" />
      <path
         id="path10692"
         style="fill:#34affa;stroke-width:0.0320538"
         d="m 16.072811,8.4219587 -0.377079,0.0393 c -0.05164,0.00539 -0.103125,0.011277 -0.154414,0.017648 -0.05129,0.00637 -0.102374,0.013239 -0.153296,0.020589 -0.05092,0.00735 -0.101683,0.015159 -0.152232,0.023479 -0.05055,0.00832 -0.100902,0.01714 -0.151063,0.026419 -0.05016,0.00928 -0.100134,0.019029 -0.149901,0.029259 -0.04977,0.010231 -0.09932,0.020927 -0.14868,0.032099 -0.04936,0.011173 -0.09852,0.022834 -0.147466,0.03494 -0.04895,0.012105 -0.09768,0.024647 -0.146198,0.037677 -0.04852,0.01303 -0.09684,0.026522 -0.144928,0.040467 -0.04809,0.013944 -0.09597,0.028355 -0.143612,0.043205 -0.04764,0.014851 -0.09505,0.030145 -0.142241,0.045892 -0.04719,0.015747 -0.09415,0.031946 -0.140874,0.048581 -0.04672,0.016634 -0.0932,0.033704 -0.139452,0.051217 -0.04625,0.017512 -0.09227,0.035472 -0.138033,0.053854 -0.04576,0.018382 -0.09129,0.037198 -0.13656,0.05644 -0.04527,0.019242 -0.09032,0.038933 -0.135091,0.059026 -0.04477,0.020093 -0.08927,0.040577 -0.13352,0.061512 -0.04425,0.020935 -0.08822,0.042329 -0.13195,0.064098 -0.04373,0.021767 -0.08723,0.04394 -0.130425,0.066531 -0.0432,0.022591 -0.0861,0.04556 -0.128753,0.068966 -0.04265,0.023406 -0.08503,0.04724 -0.127131,0.07145 -0.04209,0.024212 -0.08392,0.048827 -0.125455,0.073834 -0.04153,0.025007 -0.08277,0.050423 -0.123732,0.076218 -0.04096,0.025794 -0.08164,0.051976 -0.122008,0.07855 -0.04038,0.026573 -0.08045,0.053541 -0.120234,0.080883 -0.03978,0.027341 -0.07923,0.055063 -0.118407,0.083164 -0.03918,0.028102 -0.07807,0.056544 -0.116634,0.085396 -0.03857,0.028852 -0.07681,0.058084 -0.114758,0.087678 -0.03794,0.029594 -0.07557,0.059582 -0.11288,0.089908 -0.03731,0.03033 -0.07429,0.06099 -0.110953,0.09204 -0.03667,0.03105 -0.07301,0.06245 -0.109028,0.09422 -0.03601,0.03176 -0.0717,0.06388 -0.107048,0.09635 -0.03535,0.03247 -0.07039,0.06531 -0.105071,0.09848 -0.03468,0.03317 -0.069,0.06666 -0.102993,0.100507 -0.03399,0.03385 -0.06766,0.06806 -0.100965,0.102586 -0.0333,0.03453 -0.06623,0.06942 -0.09883,0.104616 -0.0326,0.0352 -0.06482,0.07073 -0.0967,0.106592 -0.03189,0.03586 -0.06341,0.07201 -0.09458,0.108519 -0.03116,0.03651 -0.06196,0.07335 -0.09239,0.110497 -0.03043,0.03715 -0.06053,0.07459 -0.09021,0.112374 -0.02969,0.03778 -0.059,0.0759 -0.08793,0.114301 -0.02894,0.03841 -0.05748,0.07711 -0.08565,0.116126 -0.02817,0.03902 -0.05597,0.07838 -0.08337,0.118002 -0.0274,0.03962 -0.05442,0.07951 -0.08103,0.119726 -0.02662,0.04022 -0.05282,0.08075 -0.07865,0.121552 -0.02583,0.04081 -0.05124,0.08189 -0.07627,0.123276 -0.02502,0.04138 -0.04967,0.08305 -0.07388,0.125 -0.02421,0.04195 -0.04801,0.08421 -0.0714,0.126725 -0.02339,0.04251 -0.046355,0.08529 -0.068914,0.128347 -0.022557,0.04306 -0.044712,0.08642 -0.066431,0.130021 -0.021715,0.0436 -0.043026,0.08746 -0.063893,0.131592 -0.020864,0.04413 -0.041305,0.08851 -0.061308,0.133165 -0.020005,0.04466 -0.039539,0.08962 -0.058672,0.134787 -0.019133,0.04517 -0.037835,0.09058 -0.056084,0.136258 -0.018252,0.04568 -0.036089,0.09161 -0.053448,0.137779 -0.017362,0.04617 -0.034254,0.09259 -0.050713,0.13925 -0.016458,0.04666 -0.032475,0.09354 -0.048022,0.140669 -0.015547,0.04713 -0.030606,0.09449 -0.045234,0.14209 -0.014625,0.0476 -0.028798,0.09545 -0.042494,0.14351 -0.013696,0.04806 -0.02695,0.09637 -0.039706,0.144878 -0.012753,0.04851 -0.02501,0.09725 -0.036813,0.146197 -0.011806,0.04895 -0.023133,0.09808 -0.033976,0.147465 -0.010842,0.04938 -0.021215,0.09898 -0.031087,0.148783 -0.00987,0.04981 -0.019252,0.09983 -0.028145,0.150051 -0.00812,0.04585 -0.016097,0.102373 -0.023783,0.16638 -0.00768,0.06401 -0.015048,0.135511 -0.021957,0.211309 -0.00691,0.0758 -0.013379,0.155896 -0.01917,0.23712 -0.00579,0.08122 -0.010936,0.163578 -0.015263,0.243865 -0.00433,0.08029 -0.00782,0.158505 -0.010344,0.231491 -0.00252,0.07299 -0.00404,0.140729 -0.00442,0.200051 -3.925e-4,0.05932 3.925e-4,0.11025 0.00253,0.149544 0.00106,0.01965 0.00241,0.03635 0.00416,0.0498 0.00175,0.01345 0.00387,0.02362 0.00634,0.03007 l 0.019574,0.05101 h 0.6074065 c 0.083516,0 0.1646787,-4.91e-4 0.2398555,-0.0015 0.07518,-9.92e-4 0.144365,-0.0024 0.204008,-0.0042 0.05964,-0.0018 0.109749,-0.0039 0.146654,-0.0062 0.0369,-0.0023 0.06062,-0.0049 0.06759,-0.0076 0.0049,-0.0019 0.0094,-0.0043 0.01344,-0.0076 0.0041,-0.0032 0.0077,-0.0072 0.011,-0.01197 0.0033,-0.0048 0.0062,-0.01047 0.0088,-0.01719 0.0026,-0.0067 0.0048,-0.01446 0.0068,-0.02338 0.0039,-0.01783 0.0066,-0.04034 0.0083,-0.06866 0.0017,-0.02833 0.0025,-0.06247 0.0025,-0.1036 2.6e-5,-0.04799 5.89e-4,-0.09589 0.0018,-0.143612 0.0011,-0.04772 0.0028,-0.0953 0.0051,-0.142748 0.0022,-0.04745 0.005,-0.09478 0.0084,-0.141938 0.0033,-0.04716 0.0072,-0.09416 0.01161,-0.141025 0.0044,-0.04686 0.0094,-0.09356 0.01486,-0.140112 0.0055,-0.04655 0.01151,-0.09293 0.01805,-0.139148 0.0065,-0.04622 0.01356,-0.09231 0.02115,-0.138184 0.0076,-0.04588 0.01572,-0.09154 0.02434,-0.137069 0.0086,-0.04553 0.0177,-0.0909 0.02733,-0.136056 0.0096,-0.04516 0.01979,-0.09011 0.03043,-0.134889 0.01064,-0.04478 0.02178,-0.08934 0.03342,-0.133722 0.01164,-0.04438 0.02379,-0.08858 0.03641,-0.132556 0.01262,-0.04397 0.02571,-0.08774 0.0393,-0.131288 0.01359,-0.04355 0.02764,-0.0869 0.04219,-0.130021 0.01455,-0.04312 0.02959,-0.08603 0.04508,-0.128702 0.0155,-0.04267 0.03149,-0.08512 0.04792,-0.127333 0.01643,-0.04221 0.03331,-0.08418 0.05066,-0.125913 0.01735,-0.04173 0.03518,-0.0832 0.05345,-0.124442 0.01826,-0.04125 0.03697,-0.08228 0.05613,-0.123023 0.01916,-0.04075 0.03877,-0.08122 0.05882,-0.12145 0.02005,-0.04023 0.04054,-0.08023 0.06146,-0.11993 0.02092,-0.0397 0.04226,-0.07909 0.06405,-0.118255 0.02178,-0.03916 0.04399,-0.07808 0.06663,-0.116684 0.02264,-0.03861 0.04569,-0.07692 0.06917,-0.11496 0.02348,-0.03804 0.0474,-0.07578 0.0717,-0.113236 0.0243,-0.03745 0.04897,-0.0746 0.07409,-0.11146 0.02512,-0.03686 0.05065,-0.07343 0.07657,-0.109686 0.02592,-0.03625 0.05225,-0.07218 0.07896,-0.10781 0.02671,-0.03563 0.0538,-0.07094 0.08129,-0.105933 0.02749,-0.03499 0.05537,-0.06966 0.08362,-0.104006 0.02825,-0.03435 0.0569,-0.0684 0.0859,-0.10208 0.02901,-0.03368 0.05839,-0.06704 0.08813,-0.10005 0.02975,-0.03301 0.05984,-0.06565 0.09032,-0.09797 0.03048,-0.03232 0.06135,-0.06428 0.09254,-0.09589 0.0312,-0.03162 0.06272,-0.06291 0.09462,-0.09381 0.0319,-0.0309 0.06416,-0.06141 0.09675,-0.09158 0.0326,-0.03017 0.06556,-0.05997 0.09884,-0.0894 0.03327,-0.02943 0.06686,-0.0585 0.100812,-0.08717 0.03394,-0.02867 0.06823,-0.05698 0.102839,-0.08489 0.0346,-0.02791 0.06952,-0.05538 0.104768,-0.08251 0.03525,-0.02712 0.07081,-0.05385 0.106692,-0.08017 0.03588,-0.02633 0.07207,-0.05227 0.108572,-0.07779 0.0365,-0.02552 0.07333,-0.05061 0.110446,-0.0753 0.03711,-0.02469 0.07451,-0.04896 0.11222,-0.07282 0.03771,-0.02386 0.07575,-0.04733 0.114047,-0.07033 0.0383,-0.02301 0.07685,-0.04555 0.115722,-0.0677 0.03887,-0.02214 0.07802,-0.04389 0.117443,-0.06516 0.03943,-0.02127 0.07914,-0.04209 0.119119,-0.06247 0.03998,-0.02038 0.08022,-0.04031 0.12074,-0.05979 0.04051,-0.01948 0.08132,-0.03849 0.122364,-0.05705 0.04104,-0.01856 0.08233,-0.03668 0.123882,-0.05431 0.04156,-0.01763 0.08335,-0.03478 0.125408,-0.05147 0.04205,-0.01669 0.08433,-0.0329 0.126876,-0.04863 0.04254,-0.01573 0.08533,-0.03098 0.128348,-0.04574 0.04302,-0.01476 0.08628,-0.02902 0.129768,-0.0428 0.04348,-0.01378 0.0872,-0.02703 0.131134,-0.03981 0.04393,-0.01278 0.08808,-0.025096 0.132455,-0.036866 0.04438,-0.01177 0.08897,-0.023025 0.133772,-0.033772 0.04481,-0.010747 0.08982,-0.020969 0.135042,-0.030679 0.04522,-0.00971 0.09063,-0.018927 0.136259,-0.027586 0.04562,-0.00866 0.09146,-0.016745 0.137475,-0.024341 0.04602,-0.0076 0.09225,-0.014677 0.13864,-0.021197 0.0464,-0.00652 0.09294,-0.012471 0.139706,-0.0179 0.04676,-0.00543 0.09375,-0.010331 0.140874,-0.014656 0.04865,-0.00446 0.09232,-0.00938 0.130781,-0.014706 0.03846,-0.00532 0.07168,-0.011036 0.09939,-0.017089 0.02771,-0.00605 0.04993,-0.012454 0.06633,-0.019118 0.0082,-0.00334 0.01497,-0.00673 0.02023,-0.010193 0.0053,-0.00346 0.009,-0.00697 0.01131,-0.010548 0.0031,-0.00485 0.0059,-0.013771 0.0085,-0.026217 0.0026,-0.012446 0.0049,-0.028438 0.007,-0.047464 0.0042,-0.038052 0.0076,-0.088232 0.01,-0.1465011 0.0024,-0.05827 0.004,-0.1246289 0.0047,-0.1949802 6.87e-4,-0.07035 5.89e-4,-0.144721 -2.94e-4,-0.2190162 -8.83e-4,-0.074295 -0.0026,-0.1485078 -0.005,-0.2186108 -0.0024,-0.070103 -0.0056,-0.1360905 -0.0094,-0.1938645 -0.0038,-0.057774 -0.0083,-0.1073169 -0.01349,-0.1446249 -0.0026,-0.018655 -0.0053,-0.034236 -0.0082,-0.046248 -0.0029,-0.012013 -0.0059,-0.020496 -0.0091,-0.024849 z" />
      <path
         id="path13206"
         style="fill:#fb4972;stroke-width:0.0320538"
         d="M 15.912061,1.2879952 C 15.3514,1.3302529 14.776303,1.4186265 14.22905,1.5747576 11.127174,2.4565073 8.3467241,4.4077844 6.4237613,7.0524053 4.4053986,9.8282299 3.3973453,12.539316 3.3854186,15.222148 3.706323,8.4626373 9.0161664,2.9965803 15.568303,2.7093441 c 0.264444,-0.011593 0.506066,-0.034046 0.536918,-0.049899 l 0.05608,-0.028854 V 1.9767868 1.3229823 l -0.06851,-0.021755 c -0.06905,-0.01191 -0.126142,-0.013289 -0.180736,-0.013233 z M 3.9038223,13.691417 c 10.7252717,-11.3673695 5.3626362,-5.6836845 0,0 z"
         sodipodi:nodetypes="ccscscccccccc" />
      <path
         id="path11073"
         style="fill:#3092f0;stroke-width:0.0320538"
         d="m 11.399189,12.534977 c 0.01592,-0.02537 0.03173,-0.05081 0.04802,-0.07591 0.0243,-0.03745 0.04902,-0.0746 0.07414,-0.111461 0.02512,-0.03686 0.05065,-0.07343 0.07657,-0.109685 0.02592,-0.03625 0.05225,-0.07218 0.07896,-0.10781 0.02671,-0.03563 0.0538,-0.07094 0.08129,-0.105933 0.02749,-0.03499 0.05537,-0.06966 0.08362,-0.104007 0.02825,-0.03435 0.05685,-0.0684 0.08585,-0.102079 0.02901,-0.03368 0.05838,-0.06704 0.08813,-0.100051 0.02975,-0.03301 0.05989,-0.06565 0.09037,-0.09797 0.03048,-0.03232 0.0613,-0.06428 0.09249,-0.09589 0.0312,-0.03162 0.06277,-0.06291 0.09467,-0.09381 0.0319,-0.0309 0.06416,-0.06141 0.09675,-0.09158 0.0326,-0.03017 0.06551,-0.05997 0.09878,-0.0894 0.03328,-0.02943 0.06692,-0.0585 0.100864,-0.08717 0.03394,-0.02867 0.06823,-0.05698 0.102839,-0.08489 0.0346,-0.02791 0.06952,-0.05538 0.104765,-0.08251 0.03525,-0.02712 0.07081,-0.05385 0.106694,-0.08017 0.03589,-0.02633 0.07207,-0.05227 0.108572,-0.07779 0.0365,-0.02552 0.07333,-0.05061 0.110446,-0.07531 0.03711,-0.02469 0.07451,-0.04896 0.112221,-0.07282 0.03771,-0.02386 0.07575,-0.04733 0.114046,-0.07034 0.0383,-0.02301 0.07685,-0.0456 0.11572,-0.06775 0.03887,-0.02215 0.07802,-0.04384 0.117447,-0.06511 0.03943,-0.02127 0.07914,-0.0421 0.119118,-0.06247 0.03998,-0.02038 0.08022,-0.04031 0.120741,-0.05979 0.04051,-0.01948 0.08132,-0.03849 0.122363,-0.05705 0.04104,-0.01856 0.08233,-0.03668 0.123882,-0.05431 0.04156,-0.01763 0.08335,-0.03478 0.125407,-0.05147 0.04205,-0.01669 0.08433,-0.0329 0.126876,-0.04863 0.04254,-0.01573 0.08533,-0.03098 0.128348,-0.04574 0.04302,-0.01476 0.08629,-0.02902 0.129766,-0.0428 0.04348,-0.01378 0.0872,-0.02708 0.131136,-0.03986 0.04394,-0.01278 0.08808,-0.025045 0.132456,-0.036816 0.04437,-0.01177 0.08897,-0.023026 0.133772,-0.033773 0.04481,-0.010747 0.08982,-0.020969 0.135041,-0.030679 0.04522,-0.00971 0.09063,-0.018927 0.136257,-0.027586 0.04563,-0.00866 0.09146,-0.016745 0.137477,-0.024341 0.04601,-0.0076 0.09219,-0.014678 0.138591,-0.021197 0.04639,-0.00652 0.09299,-0.012522 0.139757,-0.017951 0.04676,-0.00543 0.0937,-0.01028 0.14082,-0.014604 0.04865,-0.00447 0.09237,-0.00939 0.130833,-0.014706 0.03846,-0.00532 0.07168,-0.011035 0.09939,-0.017089 0.02771,-0.00605 0.04992,-0.012454 0.06633,-0.019118 0.0082,-0.00333 0.01491,-0.00673 0.02018,-0.010193 0.0053,-0.00346 0.0091,-0.00697 0.01136,-0.010548 0.0031,-0.00485 0.0059,-0.013771 0.0085,-0.026217 0.0026,-0.012446 0.0049,-0.028439 0.007,-0.047465 0.0042,-0.038052 0.0076,-0.088231 0.01,-0.1465014 0.0024,-0.05827 0.004,-0.1246294 0.0047,-0.1949799 6.87e-4,-0.070351 5.89e-4,-0.1447216 -2.95e-4,-0.2190167 -8.83e-4,-0.074295 -0.0026,-0.1485081 -0.005,-0.218611 -0.0024,-0.070103 -0.0056,-0.1360904 -0.0094,-0.1938645 -0.0038,-0.057774 -0.0083,-0.1073165 -0.01349,-0.144625 -0.0026,-0.018654 -0.0053,-0.034286 -0.0082,-0.046298 -0.0029,-0.012012 -0.0059,-0.020444 -0.0091,-0.024797 l -0.04422,-0.060497 -0.377079,0.0393 c -0.0335,0.00349 -0.0668,0.00755 -0.100154,0.011461 -1.511998,0.6398808 -2.462084,1.4629671 -3.591589,3.1010205 -0.2426,0.351831 -0.441196,0.665241 -0.604768,0.96126 z" />
      <path
         id="path13200"
         style="fill:#9f4da5;stroke-width:0.0320538"
         d="m 12.288096,15.534445 c 0.103235,-2.016341 1.552018,-3.651498 3.453454,-3.897726 0.151513,-0.01962 0.307951,-0.04827 0.347618,-0.06364 l 0.07211,-0.02794 v -0.637831 c -3.143521,0.467069 -3.875295,3.177729 -3.873182,4.627139 z"
         sodipodi:nodetypes="cssccc" />
      <path
         id="path12222"
         style="fill:#fba11f;stroke-width:0.0320538"
         d="m 16.074604,3.0913455 c -0.0031,-8.832e-4 -0.006,-0.00195 -0.0092,-0.00274 -0.01166,-0.00283 -0.02448,-0.00476 -0.03864,-0.00608 -0.01416,-0.00132 -0.02965,-0.00203 -0.04655,-0.00228 -0.0169,-1.963e-4 -0.03524,-4.32e-5 -0.05512,3.925e-4 -0.03978,7.85e-4 -0.08573,0.00246 -0.138894,0.0033 -0.04481,6.87e-4 -0.08958,0.00168 -0.134333,0.00294 -0.04475,0.00127 -0.08949,0.00284 -0.134177,0.00466 -0.0082,2.944e-4 -0.01646,7.851e-4 -0.0247,0.00117 -0.149979,0.025758 -0.28771,0.057053 -0.41065,0.085345 L 14.84205,3.242355 C 10.886415,4.3902068 8.7402191,6.4862864 6.8901581,9.742875 6.9076471,9.714972 6.9247111,9.686792 6.9424411,9.659051 6.9880201,9.587734 7.0343991,9.5169504 7.0815383,9.446728 7.1286753,9.376506 7.1765783,9.3068031 7.2252486,9.2377012 7.2739226,9.1685996 7.3233438,9.1000788 7.3735265,9.0321231 7.4237062,8.9641673 7.4746493,8.8967766 7.5263138,8.8299928 7.5779811,8.763209 7.6303913,8.6970492 7.6835159,8.631463 7.7366425,8.5658768 7.7904668,8.5008964 7.845027,8.4365336 7.8995862,8.3721707 7.9548815,8.3084198 8.0108509,8.245306 8.0668183,8.1821922 8.1234755,8.1197208 8.1808286,8.0578818 8.2381826,7.9960427 8.2962028,7.9348499 8.3549169,7.8743114 8.413631,7.8137729 8.4730644,7.753858 8.533113,7.6946457 8.5931617,7.6354333 8.653854,7.5768972 8.7152127,7.5190368 8.7765704,7.4611768 8.8385738,7.4040181 8.901216,7.3475355 8.9638582,7.2910529 9.0271206,7.2352719 9.0910248,7.1801925 9.154927,7.1251132 9.2194454,7.070708 9.2845831,7.0170584 9.3497227,6.9634078 9.4154992,6.9104805 9.4818468,6.8582852 9.5481934,6.8060899 9.6151249,6.7546384 9.6826589,6.7039239 9.7501899,6.6532084 9.8183265,6.6032338 9.8870203,6.5540245 c 0.068692,-0.049208 0.1379317,-0.097658 0.2077577,-0.1453343 0.06983,-0.047677 0.140219,-0.094551 0.211156,-0.1406702 0.07094,-0.046119 0.142432,-0.091468 0.214454,-0.1360042 0.07202,-0.044535 0.144614,-0.08826 0.217699,-0.1311869 0.07308,-0.042927 0.146671,-0.085078 0.220792,-0.1263698 0.07412,-0.041291 0.148755,-0.081768 0.223883,-0.1213994 0.07513,-0.039632 0.150763,-0.078384 0.226878,-0.1163291 0.07611,-0.037945 0.152691,-0.075075 0.229767,-0.1113078 0.07707,-0.036234 0.154646,-0.071591 0.232659,-0.1060863 0.07801,-0.034495 0.156471,-0.06813 0.235395,-0.1008619 0.07892,-0.032732 0.158274,-0.064544 0.238084,-0.095487 0.07981,-0.030942 0.160052,-0.060984 0.24072,-0.090112 0.08067,-0.029128 0.161803,-0.057347 0.243308,-0.084635 0.0815,-0.027287 0.163424,-0.053636 0.245739,-0.079056 0.08231,-0.025421 0.165022,-0.04995 0.248123,-0.073479 0.0831,-0.02353 0.166595,-0.046087 0.250458,-0.067698 0.04193,-0.010806 0.08395,-0.021373 0.126065,-0.031694 0.04212,-0.010321 0.08432,-0.02039 0.126624,-0.030223 0.0423,-0.00983 0.08465,-0.019409 0.127129,-0.028753 0.04248,-0.00934 0.08508,-0.018483 0.12774,-0.027332 0.04265,-0.00885 0.08537,-0.017408 0.128195,-0.025761 0.04283,-0.00835 0.08576,-0.016489 0.128751,-0.024341 0.043,-0.00785 0.0861,-0.01542 0.129262,-0.022768 0.04317,-0.00735 0.08639,-0.014456 0.129714,-0.021299 0.04333,-0.00684 0.08674,-0.013445 0.130226,-0.019776 0.04349,-0.00633 0.08708,-0.012387 0.130728,-0.018205 0.04365,-0.00582 0.08739,-0.011381 0.131189,-0.016684 0.0438,-0.0053 0.08764,-0.010379 0.13159,-0.015162 0.04396,-0.00478 0.088,-0.00928 0.132101,-0.01354 0.0441,-0.00426 0.08826,-0.00828 0.132505,-0.012018 0.04425,-0.00373 0.08857,-0.00719 0.132962,-0.010396 0.04439,-0.00321 0.08884,-0.00615 0.133366,-0.00882 0.0727,-0.00436 0.135431,-0.00696 0.189555,-0.00969 0.02706,-0.00136 0.05197,-0.00276 0.0749,-0.00442 0.02293,-0.00166 0.04385,-0.00357 0.06298,-0.00599 0.01913,-0.00241 0.03646,-0.00533 0.05213,-0.00898 0.0078,-0.00183 0.01527,-0.00382 0.02231,-0.00604 0.007,-0.00222 0.0137,-0.00463 0.01998,-0.0073 0.0063,-0.00267 0.01219,-0.00559 0.01775,-0.00877 0.0056,-0.00318 0.01078,-0.00659 0.01567,-0.010345 0.0049,-0.00375 0.0094,-0.00784 0.01369,-0.012221 0.0043,-0.00438 0.0082,-0.00909 0.01187,-0.014147 0.0037,-0.00506 0.0071,-0.010467 0.01019,-0.016279 0.0022,-0.00403 0.004,-0.00852 0.0059,-0.012931 0.01862,-0.1017558 0.01156,-0.268505 0.01156,-0.5482263 0,-0.2237608 0.01118,-0.3730144 0.01587,-0.4780439 -9.8e-5,-0.00349 -8.6e-5,-0.0078 -1.97e-4,-0.011206 -8.83e-4,-0.025221 -0.0021,-0.048119 -0.0038,-0.068865 -0.0017,-0.020745 -0.0038,-0.039339 -0.0066,-0.056034 -0.0014,-0.00835 -0.0029,-0.016217 -0.0046,-0.023631 -0.0017,-0.00742 -0.0035,-0.014409 -0.0055,-0.020944 -0.002,-0.00654 -0.0042,-0.012649 -0.0066,-0.018356 -0.0024,-0.00571 -0.005,-0.010989 -0.0078,-0.015923 -0.0028,-0.00494 -0.0058,-0.00953 -0.009,-0.013742 -0.0018,-0.00239 -0.0039,-0.00442 -0.0059,-0.00659 -0.01372,-0.011295 -0.03073,-0.021399 -0.05183,-0.031187 z" />
      <path
         id="path11723"
         style="fill:#44c7b6;stroke-width:0.0320538"
         d="m 16.060783,6.6280811 -0.410548,0.040315 c -0.03343,0.013767 -0.0886,0.032608 -0.168966,0.058165 -1.745648,0.5551278 -3.380017,1.7312376 -4.524705,3.256041 -0.92573,1.2331389 -1.4820848,2.1832809 -1.7995979,3.1663349 0.015474,-0.04442 0.031055,-0.08876 0.047313,-0.13281 0.019527,-0.0529 0.039646,-0.105551 0.060295,-0.157911 0.020646,-0.05236 0.041835,-0.104438 0.06359,-0.156237 0.021754,-0.0518 0.044039,-0.103342 0.066887,-0.154565 0.022845,-0.05122 0.046257,-0.102158 0.070182,-0.152789 0.023926,-0.05063 0.048389,-0.100941 0.073379,-0.150964 0.024987,-0.05002 0.050483,-0.09974 0.07652,-0.149138 0.026039,-0.0494 0.052594,-0.0985 0.079666,-0.147262 0.027073,-0.04876 0.054666,-0.09718 0.082759,-0.145284 0.028091,-0.0481 0.056704,-0.09587 0.085802,-0.143307 0.029094,-0.04743 0.058654,-0.09453 0.088741,-0.141278 0.030087,-0.04675 0.060675,-0.09315 0.091735,-0.139199 0.03106,-0.04604 0.0626,-0.09174 0.09463,-0.137069 0.03202,-0.04533 0.06455,-0.09025 0.09751,-0.134838 0.03297,-0.04459 0.0664,-0.08882 0.100305,-0.132658 0.0339,-0.04384 0.06827,-0.0873 0.103094,-0.130375 0.03482,-0.04307 0.07011,-0.0858 0.105832,-0.128094 0.03572,-0.04229 0.07191,-0.08416 0.10852,-0.125659 0.03661,-0.0415 0.07367,-0.08259 0.111155,-0.123276 0.03749,-0.04068 0.0754,-0.08094 0.113744,-0.120792 0.03834,-0.03985 0.07709,-0.0793 0.116277,-0.118306 0.03919,-0.03901 0.07879,-0.07762 0.118815,-0.115771 0.04002,-0.03815 0.08046,-0.07586 0.121299,-0.1131342 0.04083,-0.037271 0.08209,-0.074067 0.123731,-0.1104466 0.04164,-0.036379 0.08364,-0.072339 0.126064,-0.1078095 0.04242,-0.035471 0.08525,-0.070474 0.12845,-0.1050204 0.04319,-0.034547 0.08678,-0.068625 0.130732,-0.1022314 0.04395,-0.033607 0.08826,-0.06674 0.132961,-0.099392 0.0447,-0.032651 0.08977,-0.064821 0.135192,-0.096501 0.04542,-0.03168 0.09124,-0.062867 0.137374,-0.09356 0.04614,-0.030693 0.09261,-0.060878 0.139452,-0.090568 0.04684,-0.02969 0.09401,-0.058905 0.141533,-0.087576 0.04752,-0.028671 0.09542,-0.056796 0.143609,-0.084432 0.04819,-0.027636 0.09669,-0.054753 0.145538,-0.081339 0.04885,-0.026586 0.09803,-0.052675 0.147515,-0.078195 0.04949,-0.02552 0.09928,-0.050461 0.149392,-0.074899 0.05011,-0.024437 0.100541,-0.048364 0.151268,-0.071704 0.05073,-0.023339 0.10177,-0.046131 0.153095,-0.068357 0.05133,-0.022226 0.102961,-0.043863 0.154867,-0.06496 0.05191,-0.021096 0.104067,-0.041611 0.156542,-0.061562 0.05248,-0.019951 0.105238,-0.039324 0.158266,-0.058114 0.05303,-0.01879 0.106323,-0.037001 0.159888,-0.054615 0.05357,-0.017613 0.107422,-0.034645 0.161512,-0.051065 0.05409,-0.01642 0.108432,-0.032253 0.163033,-0.047465 0.0546,-0.015212 0.109459,-0.029826 0.164554,-0.043814 0.0551,-0.013988 0.110449,-0.027314 0.166026,-0.040061 0.05558,-0.012747 0.111399,-0.024919 0.167444,-0.03641 0.05604,-0.011491 0.112319,-0.022336 0.168813,-0.032556 0.0565,-0.010219 0.113201,-0.01977 0.170134,-0.028702 0.05693,-0.00893 0.114045,-0.017219 0.171399,-0.024848 0.05736,-0.00763 0.114956,-0.014634 0.172719,-0.020943 0.185109,-0.020219 0.415869,-0.046376 0.512829,-0.058165 l 0.176319,-0.02145 0.0087,-0.6444739 0.0086,-0.6444232 -0.05086,-0.042241 z" />
      <path
         style="fill:#000000;fill-opacity:1;stroke-width:0.0320537"
         d="m 4.4190573,16.391897 c 1.4838981,-0.0046 3.9215856,-0.0046 5.4170846,-1e-6 1.4954981,0.0046 0.2814001,0.0084 -2.6979958,0.0084 -2.979397,10e-7 -4.2029859,-0.0038 -2.7190888,-0.0084 z M 1.6088735,16.223612 1.609266,15.558495 C 1.6131422,7.716422 7.9201415,1.2365399 15.860885,0.91620756 l 0.549,-0.0221469 c 0.11101,0.009039 0.132621,0.0781429 0.136072,0.13607184 v 5.4010574 5.4010561 l -0.05931,0.05931 c -0.04459,0.04456 -0.130289,0.06472 -0.344612,0.08108 -2.016503,0.153896 -3.397655,1.61709 -3.46508,3.670908 l -0.01937,0.589896 c -0.0011,0.04645 -0.05168,0.117338 -0.118385,0.118385 H 7.1381461 1.7370881 c -0.073358,-0.0017 -0.1239989,-0.043 -0.1282146,-0.128215 z M 3.3793257,15.342134 C 3.6425366,8.527307 8.9773373,2.9982269 15.568283,2.7092883 c 0.264444,-0.011593 0.506049,-0.034049 0.536901,-0.049902 l 0.05609,-0.028824 V 1.9767486 1.3229355 L 16.092739,1.301182 C 15.936144,1.2514812 14.822684,1.3482451 14.013676,1.4818598 7.730317,2.519622 2.8718654,7.5857503 2.0741232,13.931767 c -0.095985,0.763564 -0.1280321,1.784525 -0.062651,1.996 0.00976,0.03158 0.1620047,0.03878 0.6784595,0.03205 l 0.6658714,-0.0087 z m 1.768833,0.552926 c 0.00803,-0.03967 0.022379,-0.31768 0.031892,-0.617809 C 5.3614254,9.5557233 9.9363718,4.8385704 15.635758,4.4965434 c 0.581548,-0.034899 0.525519,0.042483 0.525519,-0.7258166 0,-0.7580522 0.03388,-0.69819 -0.391406,-0.6915074 C 10.033972,3.1693478 4.7674598,7.8793187 3.9037634,13.691364 3.8076049,14.338447 3.7232701,15.702303 3.7683166,15.881787 l 0.021432,0.08539 h 0.6719083 0.6719073 z m 1.7950347,0 c 0.00804,-0.03967 0.022658,-0.338968 0.032483,-0.665114 0.1405122,-4.664341 3.8823106,-8.5444691 8.6246606,-8.9435047 0.229184,-0.019284 0.449153,-0.041758 0.48882,-0.049942 l 0.07212,-0.014879 V 5.5512615 4.8809036 l -0.06297,-0.019987 c -0.08382,-0.026603 -0.869102,0.036925 -1.375916,0.1113098 -4.7377539,0.6953545 -8.4765186,4.5179914 -9.0921425,9.2961056 -0.054268,0.421195 -0.1014301,1.561493 -0.068167,1.648174 l 0.019446,0.05068 h 0.673523 0.6735245 z m 1.7412703,0.03205 c 0.017387,-0.02204 0.040608,-0.270855 0.051602,-0.552927 0.1468377,-3.767577 3.0232593,-6.8892849 6.7200283,-7.2930838 0.185112,-0.020219 0.415899,-0.046409 0.512861,-0.058197 l 0.176296,-0.021436 0.0087,-0.6444487 0.0087,-0.6444486 -0.05089,-0.042238 -0.05089,-0.042238 -0.550763,0.054063 c -4.21281,0.4135332 -7.5626315,3.6305531 -8.0995965,7.7784931 -0.042472,0.328084 -0.08134,1.382877 -0.05362,1.455115 l 0.019729,0.05141 H 8.014776 c 0.4722954,0 0.646373,-0.01041 0.6697701,-0.04007 z m 1.7525973,0.02061 c 0.03918,-0.01503 0.05073,-0.06786 0.05081,-0.23239 0.0016,-3.071023 2.30075,-5.622088 5.316419,-5.8988815 0.194588,-0.017861 0.309941,-0.043059 0.328059,-0.071664 0.04914,-0.077585 0.03561,-1.1926877 -0.01532,-1.2623403 l -0.04425,-0.060514 -0.377095,0.039307 c -3.305176,0.3445246 -5.8927777,2.7212908 -6.4618056,5.9353038 -0.064945,0.366827 -0.1215202,1.416394 -0.081911,1.519612 l 0.019579,0.05102 h 0.6074065 c 0.3340731,0 0.6302221,-0.0088 0.6581081,-0.01946 z m 1.85102,-0.41327 c 0.103236,-2.016342 1.552039,-3.651532 3.453477,-3.897759 0.151512,-0.01962 0.307931,-0.04825 0.347599,-0.06362 l 0.07212,-0.02794 v -0.637838 -0.637837 l -0.0464,-0.03851 c -0.03598,-0.02986 -0.116951,-0.03005 -0.360605,-8.83e-4 -2.37945,0.285069 -4.282437,2.029662 -4.754514,4.358778 -0.06809,0.335949 -0.124749,1.223277 -0.08476,1.32748 l 0.02001,0.05214 0.66587,-0.0087 0.665871,-0.0087 z m 4.305554,-9.1032661 c 0,-2.9793976 0.0038,-4.1934952 0.0084,-2.6979969 0.0046,1.4954997 0.0046,3.9331877 -1e-6,5.4170859 -0.0046,1.4838961 -0.0084,0.2603083 -0.0084,-2.719089 z"
         id="path13188"
         sodipodi:nodetypes="scsssccsccccccscccccssscccscssscsscssssscccscssscccsssscccccssscccccssscsccscssscssscssssscccscsscccssssss" />
    </g>
  </g>
</svg>
