<?xml version="1.0" encoding="UTF-8" standalone="no"?>
<!-- Created with Inkscape (http://www.inkscape.org/) -->

<svg
   width="64"
   height="64"
   viewBox="0 0 16.933333 16.933333"
   version="1.1"
   id="svg5"
   inkscape:version="1.1 (c68e22c387, 2021-05-23)"
   sodipodi:docname="miss.svg"
   xmlns:inkscape="http://www.inkscape.org/namespaces/inkscape"
   xmlns:sodipodi="http://sodipodi.sourceforge.net/DTD/sodipodi-0.dtd"
   xmlns="http://www.w3.org/2000/svg"
   xmlns:svg="http://www.w3.org/2000/svg">
  <sodipodi:namedview
     id="namedview7"
     pagecolor="#ffffff"
     bordercolor="#666666"
     borderopacity="1.0"
     inkscape:pageshadow="2"
     inkscape:pageopacity="0.0"
     inkscape:pagecheckerboard="0"
     inkscape:document-units="px"
     showgrid="false"
     inkscape:zoom="6.5714108"
     inkscape:cx="30.891388"
     inkscape:cy="28.076163"
     inkscape:window-width="1600"
     inkscape:window-height="837"
     inkscape:window-x="-8"
     inkscape:window-y="-8"
     inkscape:window-maximized="1"
     inkscape:current-layer="layer1"
     units="px"
     width="64px" />
  <defs
     id="defs2">
    <filter
       style="color-interpolation-filters:sRGB;"
       inkscape:label="Lightness-Contrast"
       id="filter1829"
       x="0"
       y="0"
       width="1"
       height="1">
      <feColorMatrix
         values="0.21 0.72 0.072 0 0 0.21 0.72 0.072 0 0 0.21 0.72 0.072 0 0 0 0 0 1 0 "
         id="feColorMatrix1827"
         result="fbSourceGraphic" />
      <feColorMatrix
         result="fbSourceGraphicAlpha"
         in="fbSourceGraphic"
         values="0 0 0 -1 0 0 0 0 -1 0 0 0 0 -1 0 0 0 0 1 0"
         id="feColorMatrix2034" />
      <feColorMatrix
         id="feColorMatrix2036"
         values="1 0 0 0.110429 -0 0 1 0 0.110429 -0 0 0 1 0.110429 -0 0 0 0 1 0"
         in="fbSourceGraphic" />
    </filter>
    <filter
       style="color-interpolation-filters:sRGB;"
       inkscape:label="Lightness-Contrast"
       id="filter2885"
       x="0"
       y="0"
       width="1"
       height="1">
      <feColorMatrix
         values="1 0 0 0.0797546 -0 0 1 0 0.0797546 -0 0 0 1 0.0797546 -0 0 0 0 1 0"
         id="feColorMatrix2883" />
    </filter>
  </defs>
  <g
     inkscape:label="Слой 1"
     inkscape:groupmode="layer"
     id="layer1">
    <g
       id="g2780"
       style="filter:url(#filter2885)"
       transform="matrix(1,0,0,0.96875002,0,0.32241368)">
      <path
         id="path6391"
         style="fill:#ffe4c2;fill-opacity:1;stroke-width:0.0320604;filter:url(#filter1829)"
         d="m 6.8295316,3.1854115 c -0.3671621,0 -0.4572063,0.1249707 -0.4572063,0.6347284 v 0.404522 L 6.765339,4.3508328 c 0.5727586,0.1842849 0.5207448,0.2243454 0.5207448,-0.401755 0,-0.6520818 -0.066293,-0.7636663 -0.4565522,-0.7636663 z m 1.2648517,0.00553 C 7.9307554,3.1971613 7.7726401,3.2635426 7.705299,3.3735601 7.6291827,3.4979098 7.6274597,4.5815254 7.703269,4.6347165 7.7711335,4.6823014 8.538443,4.945151 8.5803457,4.9352027 8.5984585,4.9308948 8.6094241,4.6140228 8.6052397,4.2207874 8.5968781,3.4342399 8.5772826,3.3516258 8.3759869,3.247945 8.2926968,3.2050467 8.1925029,3.187217 8.0943261,3.1909461 Z M 9.3939506,3.425578 C 9.2202913,3.4298553 9.0496792,3.4998892 8.9832508,3.6342028 8.9045741,3.7932856 8.910507,4.6676716 8.9911049,4.8112453 9.1063758,5.0164559 9.3886273,5.0769489 9.6710208,4.9567846 9.8840105,4.866158 9.9950653,3.8927132 9.8243019,3.6137313 9.7442937,3.4830282 9.5676099,3.4212989 9.3939506,3.4255815 Z m 1.2792624,0.2313135 c -0.137128,0.00317 -0.269374,0.048515 -0.350438,0.1355785 -0.08603,0.092408 -0.116543,1.1544521 -0.03669,1.2805247 0.09982,0.1575652 0.395397,0.2227743 0.631445,0.1394523 0.22577,-0.079695 0.243669,-0.1368595 0.243669,-0.7725208 V 3.8699444 L 11.050509,3.775869 C 10.952349,3.6929433 10.810343,3.6537267 10.673213,3.6568926 Z M 6.2092235,4.4963747 C 5.9509997,4.4921019 5.8566002,4.6376023 5.6504879,4.9484872 5.0899916,5.7939011 5.1260634,5.8971168 6.2445956,6.6573291 l 0.7310059,0.4969366 0.0099,0.609273 c 0.011419,0.699931 -0.0262,0.6348747 0.420526,0.7182892 0.5495965,0.1026225 1.0292118,0.1253743 1.6008789,0.075814 0.5682397,-0.049264 1.3545186,-0.2229528 1.4764246,-0.3259414 0.04537,-0.038334 0.05633,-0.1314984 0.05633,-0.4803352 0,-0.5192863 0.06361,-0.8109915 0.330787,-1.5234592 0.101826,-0.2715357 0.194216,-0.5513505 0.205677,-0.6220006 l 0.02098,-0.1283846 -0.324238,0.00333 c -0.36424,0.00391 -0.48552,-0.032625 -0.712027,-0.2158221 L 9.9285125,5.1582185 9.7385554,5.2102365 C 9.6025829,5.2478099 9.4799462,5.2585396 9.3062401,5.2467593 L 9.0638187,5.2301566 8.842421,5.4232864 C 8.7205461,5.5296248 8.5505767,5.6466879 8.4651261,5.6833758 c -0.1902223,0.081673 -0.1904162,0.090431 -0.011153,0.2910787 0.4483917,0.5017319 0.6374225,1.2877186 0.309827,1.2877186 -0.118212,0 -0.1464107,-0.049024 -0.206987,-0.3580377 C 8.4725452,6.4742724 8.0875423,5.8961786 7.8618312,5.8604579 7.8165923,5.8532938 7.6562905,5.8340827 7.5054977,5.8178473 7.19363,5.7842696 6.4525346,5.5534173 6.4188126,5.4791777 6.3376261,5.300449 6.5265291,5.2895159 7.0044039,5.4454211 7.6428518,5.6537116 8.1506524,5.6204482 8.4854134,5.348579 8.6202615,5.2390644 8.5944606,5.2261335 7.4661961,4.8466613 6.7928234,4.6201835 6.4370502,4.5001364 6.2092044,4.496371 Z" />
      <path
         id="path6389"
         style="fill:#fc91b9;stroke-width:0.0336001;filter:url(#filter1829)"
         d="m 9.8173425,14.030735 c 0,-0.416264 -0.3029995,-0.274223 0.6453415,-0.296126 0.636666,-0.0147 0.806866,-0.118701 0.926204,-0.163641 0.765331,-0.288187 0.800169,-1.029991 0.06288,-1.335863 -0.204827,-0.08497 -0.225481,-0.0867 -0.989086,-0.101817 -1.0183186,-0.02015 -0.9196551,0.08432 -0.9196551,-0.974505 0,-0.996725 -0.034579,-0.932984 0.5626651,-1.031503 4.178387,-0.6892673 6.442788,-4.1660215 4.514422,-6.9311112 -2.548741,-3.65464567 -9.74259,-3.70395797 -12.3080356,-0.055757 -1.93633714,2.7535731 0.3892317,6.4227541 4.5354534,7.0757902 0.6185601,0.09743 0.6118588,-0.05918 0.6118588,0.939806 0,1.061829 0.08519,0.899508 -1.0338688,0.914004 -1.0608274,0.01374 -1.5230128,0.32035 -1.4678011,0.882824 0.048801,0.497138 0.5336986,0.763847 1.58636,0.763847 0.9898938,0 0.8343204,-0.112022 0.8347843,1.199178 4.044e-4,1.145733 0.095826,1.232273 0.3955914,1.441768 0.7054443,0.493002 2.0683967,-0.02559 2.0683967,-0.777433 0.023301,-0.516114 -0.020685,-1.032994 -0.025513,-1.549465 z M 8.3128926,1.8544306 C 9.8083917,1.8395476 11.315617,2.1900477 12.320768,3.0478085 15.267358,5.5623274 12.36709,9.2268964 7.8923591,8.7658954 5.7804178,8.5483171 4.2193812,7.7570084 3.6641386,6.3200113 3.4107462,4.1141176 4.7617638,3.453351 5.2534376,2.7281603 6.098357,2.0143508 6.9933335,1.867563 8.3128926,1.8544306 Z"
         sodipodi:nodetypes="sscscscsssssssssccsssccss" />
      <path
         id="path6387"
         style="fill:#e2568a;fill-opacity:1;stroke-width:0.0336001;filter:url(#filter1829)"
         d="M 10.153719,9.9717954 C 9.5888985,10.105559 9.513028,10.103625 9.4587389,10.348095 c -0.020496,0.09235 -0.041778,0.115656 -0.1074252,0.115656 -0.1080971,0 -0.3179342,0.121094 -0.3753289,0.216926 -0.032919,0.05496 -0.045467,0.294349 -0.045846,0.857188 l -6.555e-4,0.781374 0.089743,0.07582 c 0.088805,0.07502 0.096574,0.07582 0.7657225,0.07582 0.7692102,0 0.9793072,0.02817 1.1927992,0.15882 0.254293,0.155588 0.377292,0.543965 0.243668,0.767541 l -0.04584,0.07748 -0.730351,0.0155 c -0.8172519,0.01728 -0.8910183,0.03502 -0.9687823,0.234081 -0.039509,0.101174 -0.048331,0.105693 -0.2207424,0.105693 -0.3367662,0 -0.3259858,-0.03853 -0.3262026,1.165421 -2.191e-4,1.117183 -0.052463,1.387161 -0.2024022,1.44488 -0.021003,0.01454 -0.042565,0.02729 -0.063542,0.03929 0.4922933,-0.05321 1.193967,-0.362505 1.193967,-0.838951 0.00998,-1.151921 0.00678,0.03991 -0.0063,-1.49502 0,-0.416265 -0.2966195,-0.478548 0.6517195,-0.50045 0.636667,-0.0147 0.806867,-0.02811 0.926204,-0.07305 0.765331,-0.288186 0.800169,-1.029438 0.06288,-1.33531 -0.204826,-0.08497 -0.22548,-0.08725 -0.989086,-0.102374 -1.0183177,-0.02016 -0.9196542,0.08432 -0.9196542,-0.974505 0,-0.996726 -0.035225,-0.932984 0.5620112,-1.031504 1.033634,-0.07669 2.060768,-0.4041263 2.806017,-0.8246802 1.6127,-0.9100926 2.396745,-2.3345844 2.479091,-3.6448522 0.175613,-2.7943424 -2.908702,-4.8107235 -5.29389,-5.12459272 6.364742,2.07820892 6.468276,7.90974472 0.01724,9.43750652 z"
         sodipodi:nodetypes="scsscccscccccscccccscscscsscs" />
      <path
         style="fill:#525252;fill-opacity:1;stroke-width:0.0336002;filter:url(#filter1829)"
         d="m 8.3464875,16.937857 c -0.070374,-0.006 -0.160847,-0.02343 -0.2010587,-0.03868 -0.040207,-0.01525 -0.15709,-0.05002 -0.2597296,-0.07727 -0.8327773,-0.221005 -1.0365434,-0.589535 -1.0374345,-1.876292 -6.731e-4,-0.979959 0.063923,-0.888983 -0.6312609,-0.888983 -1.1090042,0 -1.7815475,-0.43097 -1.7859573,-1.144449 -0.00457,-0.744632 0.6210758,-1.153697 1.8317526,-1.197588 l 0.5666171,-0.02054 0.010005,-0.538163 c 0.01166,-0.62885 0.041781,-0.581109 -0.4212435,-0.669179 C 3.2100406,9.8765142 0.81298354,7.4158145 1.0960147,5.0232466 1.5639697,1.0674573 7.2389271,-1.1879423 12.047408,0.67083287 c 4.054015,1.56712793 5.13524,5.48025453 2.224407,8.05048893 -0.967558,0.8543422 -2.501738,1.5805572 -3.772502,1.7857422 -0.344662,0.05565 -0.328104,0.02203 -0.316727,0.643175 l 0.01003,0.543822 0.548341,0.01915 c 1.226648,0.04285 1.82774,0.432669 1.82774,1.185294 0,0.738263 -0.572963,1.124056 -1.718073,1.156829 -0.650376,0.01861 -0.676287,0.02497 -0.676287,0.166107 0,0.138375 -0.08715,0.229172 -0.257074,0.267827 -0.2778102,0.06321 -0.3643749,-0.03463 -0.3643749,-0.411742 0,-0.416265 -0.028595,-0.403051 0.9197449,-0.424954 0.636668,-0.0147 0.806994,-0.02815 0.92633,-0.07308 0.765331,-0.288187 0.800322,-1.029508 0.06304,-1.33538 -0.204826,-0.08497 -0.225763,-0.08714 -0.989368,-0.102256 -1.0183173,-0.02016 -0.9197375,0.0843 -0.9197375,-0.974526 0,-0.996728 -0.034845,-0.932824 0.5623945,-1.031343 C 14.293635,9.4467352 16.558176,5.9701077 14.62981,3.2050183 12.08107,-0.44962742 4.9480463,-0.4586176 2.382601,3.1895833 0.4462638,5.9431563 2.7416938,9.481638 6.8879147,10.134675 c 0.6185602,0.09743 0.5812386,0.03127 0.5812386,1.030261 0,1.06183 0.095498,0.969982 -1.0235662,0.984478 -1.0608271,0.01374 -1.4731165,0.249986 -1.4179046,0.812462 0.048801,0.497138 0.4833609,0.693274 1.5360224,0.693274 0.9898924,0 0.9053406,-0.111943 0.9058045,1.199258 4.043e-4,1.145733 0.015021,1.211719 0.314792,1.421213 0.7054443,0.493003 1.768539,0.102964 1.768539,-0.648863 0,-0.373038 0.2629191,-0.522198 0.5300606,-0.300716 0.107497,0.08913 0.09901,0.528326 -0.01501,0.776515 -0.2255672,0.49098 -1.0530313,0.892501 -1.7213922,0.835296 z M 7.9078153,8.9907947 C 5.7958745,8.7732163 4.1722345,7.765998 3.6169922,6.3290009 3.1787309,5.1947547 3.7272945,3.3261883 4.3452754,3.8482728 4.4602167,3.9453816 4.4594435,3.9534859 4.3060701,4.255159 3.5592681,5.7240887 4.4279829,7.4201643 6.3149117,8.1772113 6.6746675,8.3215477 6.6649136,8.3332912 6.6649136,7.7557729 V 7.2646301 L 5.9794904,6.7988894 C 4.8351128,6.0212926 4.7471094,5.791764 5.277438,4.9678068 5.5631513,4.5238997 5.6633763,4.4146265 5.8653146,4.3268561 6.0385493,4.2515619 6.0434395,4.2364949 6.0436004,3.777663 6.0437146,3.433364 6.0531112,3.3735228 6.1213391,3.2788797 6.3434644,2.9710456 6.8467284,2.8748961 7.2643745,3.0605001 l 0.20477,0.091001 0.20477,-0.091001 c 0.3604909,-0.1602034 0.9175344,-0.089904 1.0943778,0.1381115 0.070323,0.090667 0.1532503,0.098476 0.3641465,0.034289 0.3093301,-0.094148 0.6703354,-0.023462 0.8996322,0.1761492 l 0.14626,0.1273239 0.171617,-0.051963 c 0.367921,-0.1114026 0.75839,-0.042138 0.983497,0.1744587 0.15844,0.1524516 0.167962,0.2214377 0.146848,1.0637877 -0.02011,0.8020341 -0.0304,0.85309 -0.337561,1.6749015 -0.203464,0.5443579 -0.27928,0.8929268 -0.278137,1.2787429 0.0012,0.4113924 0.0162,0.4279188 0.26715,0.2946859 C 13.764516,6.5731988 13.540937,3.758927 10.701614,2.556751 9.1348294,1.8933707 7.0125656,2.0367037 5.6296823,2.8992973 5.472472,2.997359 5.2931999,3.108861 5.2312993,3.1470792 4.8882701,3.3588707 4.5763583,3.0662625 4.8756351,2.8134256 6.6781292,1.290632 10.474183,1.3849699 12.366231,2.9995786 15.31282,5.5140975 12.382544,9.4517957 7.9078153,8.9907947 Z m 1.099216,-0.4331004 c 0.5682398,-0.049264 1.3545807,-0.2227377 1.4764847,-0.3257267 0.04537,-0.038334 0.05633,-0.1317797 0.05633,-0.4806166 0,-0.5192864 0.06322,-0.8107519 0.330405,-1.5232196 0.101826,-0.2715358 0.19452,-0.5515061 0.205983,-0.6221562 L 11.09708,5.47752 10.772771,5.481001 C 10.408538,5.484921 10.287106,5.44807 10.060601,5.2648726 L 9.9286361,5.1581363 9.7387772,5.2105998 C 9.6028048,5.2481732 9.4800781,5.2583956 9.3063718,5.2466144 L 9.0638239,5.2301665 8.8422398,5.4235086 C 8.720365,5.5298471 8.5507429,5.6468681 8.4652935,5.6835562 8.27507,5.7652295 8.2747302,5.7740362 8.4540077,5.9746835 8.902398,6.4764154 9.0916013,7.262293 8.7640058,7.262293 8.6457939,7.262293 8.61732,7.2130697 8.5567425,6.9040554 8.4724805,6.4741917 8.0878085,5.8964238 7.8620972,5.8607032 7.8168585,5.8535391 7.6564552,5.8344008 7.5056626,5.8181654 7.1937947,5.7845877 6.452565,5.5533378 6.4188431,5.4790981 6.3376566,5.3003694 6.5264707,5.2895065 7.0043494,5.4454121 7.6427975,5.6537025 8.1507347,5.6205202 8.4854958,5.3486515 8.6203439,5.2391375 8.5943402,5.226336 7.4660758,4.846864 6.0295459,4.3637115 6.0387926,4.3631946 5.6508174,4.9483899 5.0903212,5.7938038 5.1263271,5.8974018 6.2448581,6.6576143 l 0.7307434,0.4966514 0.0099,0.609176 C 6.9969205,8.4633724 6.9589465,8.3985016 7.4056763,8.4819161 7.955273,8.5845386 8.4353178,8.6072554 9.006985,8.5576941 Z M 10.917382,5.2127594 c 0.225772,-0.079695 0.243911,-0.1371749 0.243911,-0.772836 V 3.8698695 l -0.111081,-0.093852 c -0.196316,-0.1658521 -0.565609,-0.1573268 -0.727737,0.016801 -0.08603,0.092408 -0.116048,1.154363 -0.03619,1.2804356 0.09982,0.1575653 0.395052,0.222828 0.631099,0.1395059 z M 9.6710203,4.9566217 C 9.8840056,4.8659917 9.9951722,3.8927928 9.8244064,3.6138107 9.6644,3.3524045 9.1161913,3.3659238 8.9833358,3.6345521 8.9046591,3.7936347 8.9103371,4.6676096 8.9909483,4.8111834 9.1062192,5.016394 9.3885936,5.0767862 9.670987,4.9566219 Z M 8.6051422,4.2207463 C 8.5967763,3.4341966 8.5773956,3.3519226 8.3761038,3.2482417 8.1540101,3.1338466 7.8128949,3.1975858 7.7051482,3.3736149 c -0.076116,0.1243495 -0.07765,1.2080188 -0.00178,1.2612102 0.067865,0.047585 0.8348344,0.3105521 0.8767371,0.3006039 0.018113,-0.00431 0.029217,-0.3214471 0.025033,-0.7146827 z M 7.2863652,3.9491985 c 0,-0.6520816 -0.066686,-0.7635151 -0.456949,-0.7635151 -0.367162,0 -0.4569489,0.1246581 -0.4569489,0.634416 V 4.224588 l 0.3929758,0.12644 C 7.3382015,4.535313 7.2863652,4.5752989 7.2863652,3.9491985 Z"
         id="path6381" />
    </g>
  </g>
</svg>
