<?xml version="1.0" encoding="UTF-8" standalone="no"?>
<!-- Created with Inkscape (http://www.inkscape.org/) -->

<svg
   width="64"
   height="64"
   viewBox="0 0 16.933333 16.933333"
   version="1.1"
   id="svg5"
   inkscape:version="1.1 (c68e22c387, 2021-05-23)"
   sodipodi:docname="neo.svg"
   xmlns:inkscape="http://www.inkscape.org/namespaces/inkscape"
   xmlns:sodipodi="http://sodipodi.sourceforge.net/DTD/sodipodi-0.dtd"
   xmlns="http://www.w3.org/2000/svg"
   xmlns:svg="http://www.w3.org/2000/svg">
  <sodipodi:namedview
     id="namedview7"
     pagecolor="#ffffff"
     bordercolor="#666666"
     borderopacity="1.0"
     inkscape:pageshadow="2"
     inkscape:pageopacity="0.0"
     inkscape:pagecheckerboard="0"
     inkscape:document-units="px"
     showgrid="false"
     inkscape:zoom="5.6568542"
     inkscape:cx="14.142136"
     inkscape:cy="40.747028"
     inkscape:window-width="1600"
     inkscape:window-height="837"
     inkscape:window-x="-8"
     inkscape:window-y="-8"
     inkscape:window-maximized="1"
     inkscape:current-layer="layer1"
     units="px"
     width="64px" />
  <defs
     id="defs2">
    <filter
       style="color-interpolation-filters:sRGB;"
       inkscape:label="Lightness-Contrast"
       id="filter1643"
       x="0"
       y="0"
       width="1"
       height="1">
      <feColorMatrix
         values="0.21 0.72 0.072 0 0 0.21 0.72 0.072 0 0 0.21 0.72 0.072 0 0 0 0 0 1 0 "
         id="feColorMatrix1641"
         result="fbSourceGraphic" />
      <feColorMatrix
         result="fbSourceGraphicAlpha"
         in="fbSourceGraphic"
         values="0 0 0 -1 0 0 0 0 -1 0 0 0 0 -1 0 0 0 0 1 0"
         id="feColorMatrix1693" />
      <feColorMatrix
         id="feColorMatrix1695"
         values="1 0 0 0.257669 -0 0 1 0 0.257669 -0 0 0 1 0.257669 -0 0 0 0 1 0"
         in="fbSourceGraphic" />
    </filter>
    <filter
       style="color-interpolation-filters:sRGB;"
       inkscape:label="Lightness-Contrast"
       id="filter1647"
       x="0"
       y="0"
       width="1"
       height="1">
      <feColorMatrix
         values="0.21 0.72 0.072 0 0 0.21 0.72 0.072 0 0 0.21 0.72 0.072 0 0 0 0 0 1 0 "
         id="feColorMatrix1645"
         result="fbSourceGraphic" />
      <feColorMatrix
         result="fbSourceGraphicAlpha"
         in="fbSourceGraphic"
         values="0 0 0 -1 0 0 0 0 -1 0 0 0 0 -1 0 0 0 0 1 0"
         id="feColorMatrix1697" />
      <feColorMatrix
         id="feColorMatrix1699"
         values="1 0 0 0.257669 -0 0 1 0 0.257669 -0 0 0 1 0.257669 -0 0 0 0 1 0"
         in="fbSourceGraphic" />
    </filter>
  </defs>
  <g
     inkscape:label="Слой 1"
     inkscape:groupmode="layer"
     id="layer1">
    <g
       id="g2798"
       transform="matrix(0.96875002,0,0,0.96875002,0.24964259,0.28054981)">
      <ellipse
         style="fill:#a5a5a5;fill-opacity:1;stroke-width:0.28448;filter:url(#filter1643)"
         id="path852"
         cx="8.7808599"
         cy="8.8470049"
         rx="6.6972651"
         ry="6.5319014" />
      <path
         id="path867"
         style="fill:#fb54dd;stroke-width:0.0334022;filter:url(#filter1647)"
         d="m 7.5292431,4.1875385 c -0.013303,6.836e-4 -0.027017,0.00231 -0.041464,0.00494 -0.014448,0.00262 -0.029642,0.0064 -0.045864,0.011298 -0.016223,0.00494 -0.033485,0.011078 -0.052111,0.018585 -0.018627,0.00746 -0.038598,0.016348 -0.06027,0.026733 -0.021662,0.010395 -0.045035,0.022302 -0.070371,0.035868 -0.025336,0.013566 -0.052647,0.02877 -0.082278,0.045811 C 7.1176224,4.364852 7.0491548,4.4062013 6.96892,4.4560256 6.8886791,4.505848 6.7966739,4.5641157 6.6904192,4.6320927 6.5841655,4.7000697 6.4636475,4.7777549 6.3263317,4.8663046 5.9285939,5.122787 5.6286164,5.3162904 5.4017638,5.4636264 5.1749114,5.6109624 5.0211957,5.7121582 4.915951,5.7839698 c -0.052626,0.03591 -0.093146,0.064439 -0.1246045,0.087759 -0.031458,0.023331 -0.053865,0.041454 -0.070318,0.056406 -0.016453,0.014952 -0.026943,0.026765 -0.034555,0.037548 -0.00766,0.010783 -0.012348,0.020538 -0.017283,0.031353 -0.00714,0.015582 -0.01282,0.03024 -0.016516,0.045381 -0.00189,0.00756 -0.00325,0.015236 -0.00399,0.023205 -7.36e-4,0.00798 -9.46e-4,0.016222 -4.2e-4,0.024948 5.261e-4,0.00872 0.00168,0.017902 0.00357,0.02771 0.00189,0.00976 0.00462,0.020276 0.00809,0.031521 0.00703,0.022491 0.017294,0.048227 0.031573,0.078519 0.01428,0.030303 0.032561,0.065163 0.05543,0.1060206 0.022869,0.040856 0.050327,0.087717 0.083087,0.1418853 0.06552,0.1083411 0.1521261,0.2460412 0.2649696,0.4241359 0.078519,0.1239284 0.1463563,0.2320059 0.2062262,0.3253971 0.029935,0.046693 0.057887,0.089702 0.084178,0.1292246 0.026292,0.039522 0.050914,0.075537 0.074235,0.108194 0.02331,0.032665 0.045276,0.061982 0.066297,0.088084 0.021021,0.026103 0.041076,0.049046 0.06048,0.068901 0.019404,0.019866 0.038157,0.036666 0.056627,0.050589 0.00924,0.00693 0.018427,0.013209 0.027552,0.018753 0.00913,0.00557 0.018175,0.010395 0.027279,0.014511 0.00913,0.0042 0.018228,0.00756 0.027384,0.010395 0.00914,0.00284 0.018354,0.00494 0.027657,0.0064 0.00935,0.00147 0.018721,0.00231 0.028255,0.00252 0.00955,2.205e-4 0.019162,-1.796e-4 0.029022,-0.00116 0.00987,-0.00102 0.019908,-0.00262 0.030156,-0.00483 0.01029,-0.00221 0.020727,-0.00504 0.031468,-0.0084 0.021462,-0.00672 0.043964,-0.015708 0.067872,-0.026848 0.023909,-0.01113 0.049213,-0.024391 0.07624,-0.039617 0.027027,-0.015214 0.055797,-0.032414 0.086625,-0.051408 0.061639,-0.037979 0.131573,-0.083234 0.2124692,-0.1344856 C 6.5425971,7.3123905 6.9993187,7.0215952 7.3299983,6.810352 7.6606789,6.5991098 8.4422998,6.0997961 9.0669164,5.7008067 9.3873806,5.496104 9.6261127,5.3438141 9.8023752,5.2296654 9.8905023,5.1725874 9.9630233,5.1250434 10.022348,5.08528 c 0.05932,-0.039763 0.105449,-0.071747 0.140801,-0.097755 0.01767,-0.013009 0.03268,-0.024539 0.04527,-0.034776 0.01259,-0.010185 0.02276,-0.019205 0.03087,-0.027122 0.0081,-0.00787 0.01414,-0.014732 0.01836,-0.020758 0.0042,-0.00598 0.0066,-0.011224 0.0075,-0.015813 9.47e-4,-0.00462 3.16e-4,-0.00861 -0.0013,-0.012169 -0.0017,-0.00357 -0.0046,-0.00683 -0.0084,-0.00987 -0.0075,-0.00609 -0.01868,-0.011487 -0.03092,-0.018039 -0.01692,-0.00903 -0.03299,-0.017461 -0.04853,-0.025053 -0.01553,-0.00756 -0.03054,-0.014417 -0.04543,-0.020213 -0.01488,-0.00577 -0.0296,-0.010605 -0.04457,-0.014291 -0.01497,-0.00368 -0.03015,-0.0062 -0.04592,-0.00746 -0.01577,-0.00126 -0.03214,-0.00116 -0.04946,3.791e-4 -0.01731,0.00157 -0.03552,0.00451 -0.05511,0.00914 -0.01957,0.00462 -0.04052,0.010983 -0.06309,0.019079 -0.022578,0.00809 -0.046841,0.017923 -0.073143,0.029778 -0.026302,0.011854 -0.054611,0.025683 -0.085375,0.041622 -0.030765,0.015949 -0.063977,0.03403 -0.099928,0.0544 -0.071915,0.04074 -0.1549264,0.090667 -0.2519821,0.1510687 -0.097052,0.060407 -0.2081687,0.1312436 -0.336211,0.2139427 -0.1280434,0.082698 -0.2730116,0.1772284 -0.4378846,0.2848587 -0.035469,0.023153 -0.068345,0.043701 -0.098952,0.061677 -0.030608,0.017976 -0.058947,0.0334 -0.085375,0.046295 -0.026428,0.012894 -0.050946,0.023268 -0.073846,0.031195 -0.022911,0.00788 -0.044216,0.013366 -0.064291,0.016412 -0.01008,0.00157 -0.019729,0.00242 -0.029179,0.00273 -0.00945,3.265e-4 -0.018606,9.97e-5 -0.027552,-7.571e-4 -0.00892,-8.62e-4 -0.017713,-0.00231 -0.02625,-0.00431 -0.0085,-0.00199 -0.016853,-0.00472 -0.025053,-0.00787 -0.00819,-0.00315 -0.016233,-0.00693 -0.024182,-0.011298 -0.00798,-0.00431 -0.015803,-0.00924 -0.023583,-0.014732 -0.015571,-0.010952 -0.030933,-0.024192 -0.046358,-0.039617 -0.012873,-0.012873 -0.02456,-0.02541 -0.035049,-0.037716 -0.0105,-0.012295 -0.019803,-0.024328 -0.027773,-0.036246 -0.00798,-0.011917 -0.014595,-0.023709 -0.019887,-0.035427 -0.00525,-0.011718 -0.00924,-0.023383 -0.011686,-0.035101 -0.00252,-0.011718 -0.00357,-0.023468 -0.00305,-0.035375 5.261e-4,-0.011907 0.00252,-0.024003 0.00609,-0.036298 0.00357,-0.012295 0.00872,-0.024843 0.015592,-0.037716 0.00683,-0.012873 0.015362,-0.026029 0.025599,-0.039669 0.010185,-0.01364 0.022155,-0.02773 0.03592,-0.042336 0.013765,-0.014595 0.029337,-0.029736 0.046788,-0.045486 0.017451,-0.01575 0.03676,-0.03214 0.058033,-0.049234 0.021273,-0.017094 0.044531,-0.034892 0.069772,-0.053529 0.050484,-0.037265 0.1090089,-0.077815 0.1762299,-0.1223775 0.067221,-0.044562 0.1431212,-0.093167 0.2282342,-0.146559 0.062223,-0.039039 0.1216793,-0.077248 0.1758498,-0.1129758 0.05417,-0.035731 0.1030785,-0.068943 0.1442216,-0.09787 0.041149,-0.028927 0.074497,-0.053581 0.09765,-0.072219 0.011582,-0.00935 0.020591,-0.017168 0.026733,-0.023257 0.0062,-0.00609 0.00945,-0.0105 0.00955,-0.012884 1.05e-4,-0.00273 -0.00158,-0.00567 -0.00483,-0.00882 -0.00325,-0.00315 -0.00819,-0.00662 -0.014406,-0.010185 -0.012464,-0.00724 -0.030387,-0.015099 -0.052164,-0.023257 -0.021777,-0.00819 -0.047386,-0.016559 -0.075096,-0.024832 -0.02771,-0.00829 -0.05754,-0.016422 -0.087812,-0.023961 -0.030282,-0.00756 -0.061005,-0.0145 -0.090478,-0.020485 -0.029463,-0.00598 -0.057698,-0.010983 -0.082981,-0.014563 -0.025284,-0.00357 -0.047649,-0.00577 -0.065373,-0.00609 -0.00882,-1.69e-4 -0.016537,1.155e-4 -0.022879,9.251e-4 -0.0063,8.095e-4 -0.01133,0.0021 -0.014732,0.00399 -0.02141,0.011854 -0.254765,0.1572522 -0.5185827,0.3231143 -0.066906,0.042063 -0.1269785,0.079317 -0.181065,0.1119437 -0.054085,0.032634 -0.1022386,0.060627 -0.1453641,0.084336 -0.043124,0.023709 -0.081186,0.043113 -0.1152039,0.058422 -0.01701,0.00766 -0.033012,0.014248 -0.04809,0.019887 -0.015078,0.00567 -0.029274,0.01029 -0.042661,0.014017 -0.013388,0.00368 -0.026009,0.0064 -0.037926,0.00829 -0.011928,0.00179 -0.023163,0.00273 -0.033852,0.00273 -0.010689,1.26e-5 -0.02079,-8.725e-4 -0.030492,-0.00262 -0.00966,-0.00179 -0.018953,-0.00431 -0.027877,-0.00777 -0.00892,-0.00347 -0.017524,-0.00766 -0.025914,-0.012663 -0.0084,-0.00504 -0.016579,-0.010899 -0.024675,-0.017493 -0.00809,-0.00661 -0.016107,-0.013976 -0.024129,-0.02206 -0.00798,-0.00809 -0.016055,-0.016894 -0.024234,-0.026407 -0.00987,-0.011424 -0.018774,-0.02268 -0.026796,-0.033799 -0.00798,-0.01112 -0.01512,-0.02205 -0.021304,-0.032928 -0.0062,-0.010878 -0.011456,-0.021682 -0.01576,-0.032382 -0.00431,-0.01071 -0.00766,-0.021357 -0.01008,-0.031951 -0.00242,-0.010605 -0.00378,-0.021115 -0.0042,-0.031679 -4.2e-4,-0.010563 4.94e-5,-0.021147 0.00157,-0.031731 0.00157,-0.010594 0.00409,-0.02121 0.00756,-0.031899 0.00357,-0.010689 0.00809,-0.02143 0.01364,-0.032277 0.00557,-0.010846 0.012222,-0.021798 0.019887,-0.032876 0.00766,-0.011078 0.016359,-0.022312 0.026135,-0.033695 0.00976,-0.011372 0.020674,-0.022879 0.032603,-0.034618 0.011928,-0.011739 0.024906,-0.023698 0.039018,-0.035868 0.028224,-0.024339 0.060868,-0.049571 0.098028,-0.07602 0.03717,-0.02645 0.078876,-0.054096 0.1252566,-0.083202 0.068554,-0.043019 0.1203615,-0.076114 0.1568847,-0.1022699 0.01826,-0.013073 0.032729,-0.024413 0.043523,-0.034398 0.010794,-0.00998 0.017924,-0.018648 0.02163,-0.026302 0.00189,-0.00378 0.00284,-0.00746 0.00294,-0.010815 1.049e-4,-0.00336 -5.261e-4,-0.00662 -0.0021,-0.00966 -0.00147,-0.00305 -0.00388,-0.00588 -0.00703,-0.00872 -0.00315,-0.00284 -0.00703,-0.00546 -0.011739,-0.00809 -0.00945,-0.00525 -0.021924,-0.01029 -0.037338,-0.015435 -0.015414,-0.00514 -0.033726,-0.0105 -0.054779,-0.016307 -0.030051,-0.00829 -0.056742,-0.015466 -0.08254,-0.02016 -0.012905,-0.00231 -0.025578,-0.0041 -0.038367,-0.00514 -0.012789,-9.786e-4 -0.025662,-0.00116 -0.038966,-4.946e-4 z"
         transform="matrix(1.0320483,0,0,1.015873,-0.18040802,-0.21414426)" />
      <path
         id="path865"
         style="fill:#fb54dd;stroke-width:0.0334022;filter:url(#filter1647)"
         d="m 12.474361,2.9246869 c -0.0017,3.465e-4 -0.0028,0.00136 -0.0035,0.00305 -0.0012,0.00336 -4.22e-4,0.00966 0.0026,0.018806 0.003,0.00924 0.0085,0.021389 0.01636,0.036792 0.0079,0.015404 0.01821,0.03403 0.03125,0.05608 0.01304,0.02205 0.02875,0.047544 0.04739,0.076681 0.03605,0.056364 0.07096,0.1132719 0.104716,0.170687 0.03376,0.057414 0.0664,0.1153319 0.09787,0.1737298 0.03147,0.058401 0.06179,0.1172461 0.09097,0.1765553 0.02918,0.059304 0.05718,0.1190669 0.08406,0.1792183 0.02688,0.060155 0.05262,0.1206848 0.07722,0.18161 0.02459,0.060921 0.04801,0.1222631 0.07032,0.1838917 0.0223,0.061624 0.04346,0.1235861 0.06348,0.1858479 0.02001,0.062265 0.03891,0.1248146 0.05663,0.1876413 0.01772,0.062821 0.0343,0.125896 0.04973,0.1892173 0.01544,0.063325 0.02973,0.1268841 0.04287,0.1906295 0.01315,0.063746 0.02512,0.1276705 0.03597,0.191772 0.01085,0.064102 0.02056,0.1283625 0.02912,0.1927495 0.0086,0.064386 0.016,0.1289075 0.02228,0.1935097 0.0063,0.064607 0.01143,0.1293054 0.01544,0.1940536 0.004,0.064754 0.0068,0.1295543 0.0085,0.1943802 0.0017,0.064827 0.0023,0.1296551 0.0017,0.1944884 -5.26e-4,0.064827 -0.0022,0.1296634 -0.0052,0.1944336 -0.0028,0.064774 -0.0068,0.1295249 -0.01201,0.1941619 -0.0052,0.064638 -0.01143,0.1291835 -0.01886,0.1936199 -0.0074,0.064439 -0.01599,0.1287478 -0.02571,0.1929123 -0.0097,0.064165 -0.02056,0.1281651 -0.03255,0.1919882 -0.01199,0.063819 -0.02513,0.1274353 -0.03939,0.190848 -0.01427,0.06341 -0.02969,0.12661 -0.04624,0.1895428 -0.01654,0.062937 -0.03426,0.1256387 -0.05308,0.1880213 -0.01884,0.06238 -0.03877,0.124466 -0.05988,0.1862291 -0.02112,0.061761 -0.04335,0.1231986 -0.06673,0.1842718 -0.02339,0.061068 -0.04796,0.1217842 -0.07364,0.1820994 -0.02567,0.060312 -0.05242,0.1202208 -0.08037,0.1797075 -0.02794,0.059482 -0.05705,0.1185649 -0.08727,0.1771527 -0.03022,0.05859 -0.06157,0.1167075 -0.09407,0.1743284 -0.0325,0.057624 -0.06614,0.114702 -0.100911,0.1712844 -0.03477,0.056584 -0.0707,0.1126566 -0.107759,0.1681322 -0.02676,0.040078 -0.05396,0.079653 -0.08156,0.1187897 -0.02761,0.039144 -0.05559,0.077826 -0.08401,0.1160208 -0.02842,0.038188 -0.05724,0.075905 -0.08645,0.1131385 -0.02922,0.037233 -0.05885,0.073972 -0.08885,0.1102584 -0.03,0.036288 -0.06039,0.072114 -0.09113,0.1074342 -0.03076,0.035321 -0.06188,0.070194 -0.09335,0.1045485 -0.03149,0.034355 -0.06333,0.068233 -0.09553,0.101619 -0.0322,0.03339 -0.06475,0.066323 -0.09765,0.098747 -0.03289,0.032425 -0.0661,0.064352 -0.09966,0.095801 -0.03356,0.03145 -0.0675,0.0624 -0.101724,0.09287 -0.03422,0.03047 -0.06877,0.06045 -0.103624,0.08993 -0.03486,0.02949 -0.07001,0.0585 -0.105477,0.087 -0.03547,0.02851 -0.07121,0.0565 -0.107271,0.08401 -0.03605,0.02751 -0.07243,0.05451 -0.109063,0.08103 -0.03663,0.02652 -0.07351,0.05256 -0.110694,0.07809 -0.03718,0.02553 -0.07466,0.05052 -0.112378,0.07504 -0.03772,0.02452 -0.07567,0.04854 -0.113899,0.07205 -0.03822,0.02352 -0.07671,0.04656 -0.115422,0.06907 -0.03871,0.02251 -0.07765,0.04453 -0.116834,0.06603 -0.03918,0.02149 -0.07862,0.0425 -0.118248,0.06298 -0.03964,0.02048 -0.07948,0.04042 -0.119551,0.05988 -0.04006,0.01947 -0.08033,0.03846 -0.120801,0.0569 -0.04047,0.01844 -0.08114,0.03633 -0.121997,0.05374 -0.04086,0.01741 -0.08191,0.03432 -0.1231377,0.0507 -0.04122,0.01638 -0.08265,0.03225 -0.124225,0.04761 -0.041569,0.01535 -0.083307,0.0302 -0.1252037,0.04451 -0.041895,0.01431 -0.083916,0.02809 -0.126126,0.04135 -0.04221,0.01327 -0.084609,0.02598 -0.1271046,0.0382 -0.042494,0.01222 -0.085113,0.02393 -0.1278658,0.0351 -0.042756,0.01117 -0.085627,0.02183 -0.1286271,0.03195 -0.042998,0.01006 -0.0861,0.01969 -0.1293326,0.02875 -0.043228,0.009 -0.086604,0.0176 -0.1300383,0.0256 -0.043428,0.008 -0.086909,0.01546 -0.1305288,0.02238 -0.043617,0.0069 -0.08735,0.01337 -0.1311261,0.01924 -0.043775,0.0059 -0.087643,0.01119 -0.1315608,0.01598 -0.043921,0.0049 -0.087895,0.009 -0.1319409,0.01277 -0.044047,0.0037 -0.088179,0.0069 -0.132323,0.0096 -0.044142,0.0026 -0.088316,0.0047 -0.1325383,0.0063 -0.044226,0.0015 -0.088462,0.0026 -0.1327568,0.003 -0.044289,4.21e-4 -0.088641,3.16e-4 -0.132973,-3.15e-4 -0.044331,-6.31e-4 -0.088683,-0.0018 -0.1330286,-0.0035 -0.044352,-0.0017 -0.088673,-0.004 -0.1330277,-0.0068 -0.044352,-0.0028 -0.088694,-0.0062 -0.1330286,-0.01006 -0.044331,-0.0039 -0.088631,-0.0084 -0.1329185,-0.01342 -0.044289,-0.0051 -0.088588,-0.01061 -0.1328113,-0.01673 -0.044226,-0.0061 -0.088389,-0.0128 -0.1325384,-0.02006 -0.044142,-0.0072 -0.088273,-0.01506 -0.132322,-0.02342 -0.044047,-0.0084 -0.088021,-0.01731 -0.1319419,-0.02679 -0.043921,-0.0095 -0.08778,-0.0195 -0.1315608,-0.03011 -0.043775,-0.01061 -0.087454,-0.02178 -0.1310715,-0.03352 -0.043617,-0.01174 -0.08715,-0.02407 -0.1305821,-0.03695 -0.043428,-0.01287 -0.086761,-0.02626 -0.1299858,-0.04027 -0.043228,-0.014 -0.086383,-0.0286 -0.1293873,-0.04374 -0.042998,-0.01514 -0.085869,-0.03088 -0.1286261,-0.04717 -0.042756,-0.01629 -0.085375,-0.03316 -0.1278658,-0.05059 -0.042493,-0.01744 -0.08484,-0.03542 -0.1270499,-0.05402 -0.04221,-0.01858 -0.084284,-0.03775 -0.1261816,-0.0575 -0.041905,-0.01974 -0.083633,-0.04007 -0.1252021,-0.06098 -0.04157,-0.0209 -0.083003,-0.04239 -0.1242254,-0.06445 -0.041223,-0.02206 -0.082278,-0.04475 -0.1231388,-0.06798 -0.040856,-0.02324 -0.081522,-0.04701 -0.1219952,-0.0714 -0.040467,-0.0244 -0.080735,-0.04941 -0.1208025,-0.07499 -0.040058,-0.02558 -0.079916,-0.05171 -0.1195509,-0.07847 -0.039637,-0.02675 -0.079012,-0.05413 -0.1181921,-0.08205 -0.032214,-0.02297 -0.059724,-0.04351 -0.084011,-0.06064 -0.012149,-0.0086 -0.02353,-0.01628 -0.03424,-0.02299 -0.01071,-0.0067 -0.020737,-0.01242 -0.030376,-0.01701 -0.00966,-0.0046 -0.018837,-0.0081 -0.027773,-0.01029 -0.00892,-0.0022 -0.017608,-0.0031 -0.026198,-0.0027 -0.00861,4.21e-4 -0.017094,0.0023 -0.025704,0.0057 -0.00861,0.0034 -0.017304,0.0083 -0.026302,0.01483 -0.00903,0.0065 -0.018302,0.01473 -0.028035,0.02472 -0.00977,0.01 -0.01995,0.02177 -0.030817,0.03549 -0.010857,0.0137 -0.022386,0.02933 -0.034723,0.04701 -0.012338,0.01768 -0.025494,0.03742 -0.039669,0.05933 -0.02835,0.04385 -0.060722,0.09644 -0.098626,0.158841 -0.037905,0.0624 -0.081343,0.134561 -0.1317236,0.217638 -0.044646,0.07362 -0.083832,0.137001 -0.1173238,0.192152 -0.033485,0.05514 -0.061289,0.10208 -0.083034,0.142755 -0.010867,0.02033 -0.020223,0.0391 -0.028035,0.05658 -0.00777,0.01746 -0.014112,0.03365 -0.018805,0.04874 -0.00473,0.0151 -0.00777,0.0291 -0.00935,0.04233 -0.00147,0.01322 -0.00136,0.02565 4.316e-4,0.03749 0.00179,0.01185 0.00514,0.0231 0.01029,0.03407 0.00514,0.01098 0.011939,0.02168 0.020485,0.03228 0.00851,0.0106 0.018816,0.02112 0.03087,0.03185 0.012054,0.01072 0.025893,0.02158 0.041517,0.03292 0.031248,0.02268 0.069751,0.04711 0.1157477,0.07526 0.046,0.02816 0.099509,0.06007 0.1608506,0.0977 0.060081,0.03685 0.112372,0.06904 0.1581342,0.09683 0.045759,0.02779 0.084977,0.05117 0.1188452,0.07043 0.033863,0.01925 0.062391,0.03437 0.086782,0.04559 0.01219,0.0056 0.023352,0.01029 0.033632,0.01396 0.01029,0.0037 0.019698,0.0064 0.028371,0.0083 0.00872,0.0019 0.016601,0.0028 0.023961,0.0028 0.00735,7.6e-5 0.014133,-7.37e-4 0.020485,-0.0023 0.0063,-0.0017 0.012285,-0.0042 0.017934,-0.0074 0.00567,-0.0033 0.011057,-0.0073 0.016307,-0.01222 0.010511,-0.0098 0.020475,-0.02261 0.031195,-0.03832 0.01071,-0.01571 0.022134,-0.03429 0.035479,-0.05543 0.0229,-0.03628 0.043911,-0.06805 0.064071,-0.09543 0.01008,-0.01368 0.019929,-0.02629 0.029726,-0.03777 0.00976,-0.01147 0.01952,-0.02185 0.029285,-0.03114 0.00976,-0.0092 0.019593,-0.01751 0.02962,-0.02461 0.00998,-0.0071 0.020223,-0.0131 0.030754,-0.01804 0.010531,-0.005 0.02141,-0.0088 0.032718,-0.01164 0.011309,-0.0028 0.023027,-0.0045 0.035374,-0.0053 0.012348,-6.31e-4 0.025316,-2.1e-4 0.038966,0.0011 0.01365,0.0014 0.028035,0.004 0.04326,0.0074 0.015225,0.0036 0.031301,0.0082 0.048363,0.01381 0.017063,0.0057 0.03507,0.01238 0.054233,0.02011 0.038336,0.01544 0.081154,0.03502 0.1294954,0.05868 0.048342,0.02367 0.102228,0.05142 0.1626985,0.08319 0.066853,0.03513 0.1342572,0.06894 0.2022048,0.101399 0.067945,0.03246 0.1364317,0.06354 0.2053569,0.0933 0.068922,0.02976 0.1382871,0.0582 0.2080732,0.08526 0.069783,0.02706 0.139986,0.05273 0.2105197,0.07706 0.070539,0.02432 0.1414171,0.04728 0.2125841,0.06885 0.071169,0.02157 0.1426393,0.04179 0.2143227,0.06058 0.071684,0.0188 0.1435959,0.03618 0.2156815,0.05217 0.072082,0.016 0.1443404,0.03062 0.2167137,0.04379 0.072377,0.01318 0.1448748,0.02492 0.2174214,0.03527 0.072545,0.01039 0.1451425,0.0193 0.2177458,0.02678 0.072608,0.0074 0.1451992,0.01355 0.2177469,0.01816 0.072544,0.0046 0.1450449,0.0077 0.2174203,0.0094 0.072377,0.0017 0.1446248,0.002 0.2167147,7.36e-4 0.072093,-0.0012 0.1439938,-0.0039 0.2156804,-0.0081 0.071684,-0.0042 0.1431529,-0.0099 0.2143239,-0.01696 0.071169,-0.0071 0.1420441,-0.01571 0.2125831,-0.02581 0.065877,-0.0094 0.1312227,-0.01989 0.1960654,-0.0313 0.064837,-0.01141 0.129172,-0.02377 0.1929668,-0.03712 0.063798,-0.01334 0.1270868,-0.02768 0.1898149,-0.04293 0.062727,-0.01524 0.1249101,-0.03143 0.1865545,-0.04853 0.061646,-0.0171 0.1227512,-0.03516 0.1832939,-0.05407 0.06054,-0.01892 0.120502,-0.03876 0.179924,-0.05945 0.05942,-0.0207 0.118274,-0.04223 0.176557,-0.06467 0.05828,-0.02244 0.116005,-0.04576 0.173132,-0.06989 0.05713,-0.02413 0.113703,-0.0491 0.169654,-0.07489 0.05596,-0.02579 0.11131,-0.05237 0.166068,-0.07977 0.05476,-0.0274 0.108879,-0.05563 0.162426,-0.08461 0.05355,-0.02898 0.106524,-0.05871 0.158841,-0.08923 0.05231,-0.03051 0.103971,-0.06178 0.155036,-0.0938 0.05107,-0.03201 0.101532,-0.06473 0.151342,-0.0982 0.0498,-0.03346 0.09896,-0.06766 0.147483,-0.102542 0.04852,-0.03488 0.09641,-0.07048 0.143625,-0.106727 0.04722,-0.03626 0.09377,-0.07316 0.139657,-0.110747 0.0459,-0.03759 0.09114,-0.07583 0.135691,-0.114716 0.04455,-0.03888 0.08842,-0.07838 0.131615,-0.118519 0.0432,-0.04013 0.08571,-0.08093 0.12754,-0.122268 0.04182,-0.04135 0.08298,-0.08327 0.123409,-0.125802 0.04043,-0.04253 0.08015,-0.08563 0.119171,-0.129278 0.03902,-0.04365 0.07734,-0.08784 0.114932,-0.132593 0.03759,-0.04475 0.07444,-0.09006 0.110586,-0.135854 0.03614,-0.0458 0.07157,-0.09208 0.106238,-0.138897 0.03467,-0.04681 0.0686,-0.09415 0.101787,-0.141939 0.03319,-0.04779 0.06563,-0.096055 0.09732,-0.1447651 0.03169,-0.048723 0.0626,-0.097874 0.09275,-0.147483 0.03017,-0.049618 0.05957,-0.099631 0.0882,-0.1500919 0.02862,-0.050463 0.05646,-0.1013772 0.08353,-0.1526459 0.02707,-0.051272 0.05336,-0.1028895 0.07884,-0.1549275 0.02549,-0.052038 0.05022,-0.1044959 0.07412,-0.1572647 0.0239,-0.052773 0.047,-0.1059198 0.06929,-0.1593837 0.02228,-0.053466 0.04374,-0.1072259 0.06439,-0.1613398 0.02066,-0.054117 0.0405,-0.108572 0.0595,-0.163296 0.019,-0.054726 0.03716,-0.1097407 0.05451,-0.1650358 0.01733,-0.055293 0.03385,-0.1108412 0.04951,-0.1666644 0.01566,-0.055828 0.0305,-0.1119289 0.04446,-0.1682425 0.01395,-0.056312 0.02701,-0.1128372 0.03924,-0.1696002 0.01224,-0.056763 0.02364,-0.1137317 0.03412,-0.1709042 0.0105,-0.057173 0.02007,-0.1145582 0.0288,-0.1720993 0.0087,-0.05754 0.01657,-0.1152626 0.02353,-0.1731323 0.0069,-0.057866 0.01304,-0.1158979 0.01821,-0.1740553 0.0052,-0.058159 0.0095,-0.1164649 0.01277,-0.1748712 0.0034,-0.058401 0.0058,-0.116909 0.0073,-0.1755232 0.0015,-0.058611 0.0021,-0.1173395 0.0018,-0.1761217 -3.16e-4,-0.058779 -0.0015,-0.1175916 -0.0038,-0.1765008 -0.0022,-0.058905 -0.0054,-0.1178845 -0.0094,-0.1768819 -0.0041,-0.058999 -0.0091,-0.1180546 -0.01511,-0.1770992 -0.006,-0.059041 -0.01296,-0.1181023 -0.02086,-0.1771532 -0.0079,-0.059052 -0.01678,-0.1180819 -0.02663,-0.1770993 -0.0099,-0.059021 -0.02064,-0.1179916 -0.03244,-0.1769365 -0.01182,-0.058947 -0.02463,-0.1178341 -0.03842,-0.1766635 -0.01379,-0.058832 -0.02856,-0.1176084 -0.04434,-0.1762845 -0.01578,-0.058674 -0.03253,-0.1172587 -0.05032,-0.1757405 -0.01778,-0.058485 -0.03658,-0.1168409 -0.0564,-0.1750886 -0.01983,-0.058243 -0.04068,-0.1164093 -0.06255,-0.1743819 -0.02187,-0.05797 -0.04475,-0.1158003 -0.06869,-0.1734578 -0.02394,-0.057655 -0.04891,-0.115123 -0.07494,-0.1724258 -0.02603,-0.057298 -0.05311,-0.1144321 -0.08124,-0.1713389 -0.02813,-0.05691 -0.05735,-0.1136173 -0.0876,-0.1700885 -0.03025,-0.056469 -0.06157,-0.1126806 -0.09395,-0.1686761 -0.03239,-0.055997 -0.06582,-0.1117294 -0.100373,-0.1672093 -0.03455,-0.055482 -0.07021,-0.1107099 -0.106944,-0.1656333 -0.04298,-0.064291 -0.08753,-0.1278406 -0.131996,-0.1889453 -0.04447,-0.0611 -0.08885,-0.1197672 -0.131506,-0.1742192 -0.04265,-0.054453 -0.08357,-0.1047269 -0.121129,-0.149059 -0.03756,-0.044331 -0.07175,-0.082719 -0.100911,-0.1134651 -0.01458,-0.015372 -0.02791,-0.028833 -0.03977,-0.040163 -0.01187,-0.01133 -0.02228,-0.020538 -0.03103,-0.027384 -0.0087,-0.00683 -0.01582,-0.011319 -0.02103,-0.013262 -0.0026,-9.671e-4 -0.0047,-0.00136 -0.0064,-9.776e-4 z"
         transform="matrix(1.0320483,0,0,1.015873,-0.18040802,-0.21414426)" />
      <path
         id="path1112"
         style="fill:#ea27f8;stroke-width:0.0334022;filter:url(#filter1647)"
         d="m 3.4714998,11.931255 c 0.016947,-1.05e-4 0.034304,0.0014 0.052227,0.0047 0.017913,0.0033 0.036382,0.008 0.055702,0.01424 0.01932,0.0062 0.03948,0.01385 0.060648,0.02277 0.021158,0.0089 0.043344,0.01913 0.06678,0.03043 0.023446,0.0113 0.048122,0.02374 0.074287,0.03712 0.083213,0.04253 0.1594865,0.08338 0.2289944,0.122811 0.034755,0.01972 0.067809,0.03905 0.099225,0.05808 0.031427,0.01905 0.061173,0.0378 0.089334,0.05625 0.028161,0.01844 0.054705,0.0366 0.079663,0.05451 0.024958,0.0179 0.048331,0.03554 0.07015,0.05298 0.021819,0.01744 0.042116,0.03464 0.060858,0.05168 0.018753,0.01704 0.035994,0.03394 0.051733,0.05064 0.01574,0.01672 0.029967,0.03328 0.042767,0.04972 0.012799,0.01645 0.02415,0.03276 0.034073,0.04902 0.00998,0.01627 0.018427,0.03244 0.025536,0.04858 0.00714,0.01614 0.012862,0.03222 0.017231,0.04831 0.00441,0.01609 0.00735,0.03216 0.00903,0.04826 0.00168,0.0161 0.0021,0.03218 0.00116,0.04837 -9.461e-4,0.01618 -0.00315,0.03242 -0.00672,0.04874 -0.00347,0.01633 -0.00829,0.03279 -0.014238,0.04934 -0.00399,0.0111 -0.014878,0.03308 -0.031731,0.06461 -0.016852,0.03153 -0.03969,0.07257 -0.067704,0.121779 -0.056038,0.09841 -0.1327536,0.229453 -0.2233454,0.382076 -0.090594,0.152624 -0.1950742,0.32685 -0.3067575,0.511681 -0.1116832,0.184828 -0.2305369,0.380227 -0.3498505,0.575258 -0.1193135,0.19503 -0.239086,0.389696 -0.3525678,0.572924 -0.1134819,0.183226 -0.220667,0.355034 -0.3148551,0.504451 -0.094185,0.149419 -0.1753867,0.276461 -0.2368201,0.370066 -0.030712,0.0468 -0.056511,0.08523 -0.076513,0.113955 -0.020003,0.02873 -0.03423,0.0477 -0.041842,0.05558 v 5.4e-5 c -0.011539,0.01197 -0.023089,0.0231 -0.034776,0.03337 -0.011687,0.01029 -0.023489,0.01967 -0.035427,0.02821 -0.011938,0.0085 -0.024003,0.01625 -0.036298,0.02304 -0.012295,0.0068 -0.024832,0.01272 -0.037601,0.01776 -0.012768,0.0051 -0.02583,0.0092 -0.039176,0.0125 -0.013356,0.0033 -0.026985,0.0057 -0.041023,0.0071 -0.014039,0.0014 -0.028466,0.0021 -0.043313,0.0018 -0.014847,-3.15e-4 -0.030114,-0.0015 -0.045864,-0.0037 -0.01575,-0.0021 -0.031983,-0.0052 -0.048741,-0.009 -0.016768,-0.004 -0.034062,-0.0088 -0.051954,-0.01456 -0.017892,-0.0058 -0.036404,-0.01252 -0.055535,-0.02016 -0.019131,-0.0076 -0.038871,-0.01625 -0.059346,-0.02576 -0.04095,-0.01903 -0.084693,-0.04181 -0.1316689,-0.06842 -0.046977,-0.02661 -0.09724,-0.05699 -0.1511244,-0.0913 -0.078141,-0.04974 -0.1473044,-0.09533 -0.207965,-0.137918 -0.030334,-0.0213 -0.058527,-0.04183 -0.084662,-0.06178 -0.026135,-0.01995 -0.050169,-0.0393 -0.072219,-0.0582 -0.02205,-0.0189 -0.042074,-0.03733 -0.060155,-0.05548 -0.018081,-0.01815 -0.03424,-0.036 -0.048468,-0.05368 -0.014228,-0.01768 -0.026523,-0.0352 -0.037002,-0.05271 -0.0105,-0.01753 -0.019162,-0.03506 -0.026029,-0.05271 -0.00683,-0.01765 -0.011917,-0.03546 -0.015267,-0.05353 -0.00336,-0.01807 -0.00504,-0.03643 -0.00494,-0.05521 4.31e-5,-0.0188 0.00179,-0.03802 0.00514,-0.05783 0.00336,-0.0198 0.00819,-0.04019 0.014732,-0.0613 0.00651,-0.02111 0.014532,-0.04293 0.024076,-0.06564 0.00955,-0.02271 0.020611,-0.04631 0.033096,-0.07092 0.012484,-0.02461 0.026376,-0.0502 0.041685,-0.077 0.015299,-0.02679 0.031983,-0.05478 0.049991,-0.08406 0.023331,-0.03794 0.04348,-0.07105 0.061457,-0.0996 0.017976,-0.02856 0.033799,-0.05259 0.048531,-0.07222 0.00735,-0.0099 0.014469,-0.01852 0.02141,-0.0262 0.00693,-0.0076 0.013755,-0.0143 0.020538,-0.01989 0.00683,-0.0056 0.013545,-0.01018 0.020433,-0.01369 0.00693,-0.0036 0.013881,-0.0061 0.021136,-0.0077 0.00725,-0.0015 0.014826,-0.0022 0.022711,-0.0019 0.00788,3.16e-4 0.016149,0.0015 0.024938,0.0038 0.00882,0.0022 0.018091,0.0053 0.028035,0.0093 0.00998,0.004 0.020528,0.0089 0.031899,0.01461 0.022733,0.01148 0.048531,0.02635 0.078519,0.04444 0.029988,0.0181 0.064165,0.03941 0.1035194,0.06369 0.038336,0.02366 0.073122,0.04453 0.104937,0.06265 0.031805,0.01813 0.060627,0.03351 0.087003,0.04624 0.026376,0.01273 0.050295,0.02278 0.072324,0.03027 0.011015,0.0038 0.021599,0.0068 0.031742,0.0093 0.010185,0.0024 0.019845,0.0042 0.029232,0.0055 0.00935,0.0011 0.018438,0.0018 0.027226,0.0017 0.00882,-7.1e-5 0.017335,-7.36e-4 0.025651,-0.0021 0.00829,-0.0012 0.016422,-0.0033 0.024402,-0.0058 0.00798,-0.0025 0.015855,-0.0057 0.023635,-0.0094 0.015571,-0.0074 0.03086,-0.0173 0.046463,-0.02945 0.015603,-0.01216 0.031479,-0.02658 0.048205,-0.04332 0.010962,-0.01096 0.020989,-0.02175 0.030104,-0.03238 0.00914,-0.01064 0.017283,-0.02112 0.024507,-0.03152 0.00724,-0.01039 0.013545,-0.02071 0.018858,-0.03092 0.00536,-0.01018 0.00966,-0.02032 0.012988,-0.03043 0.00336,-0.01006 0.00577,-0.02019 0.00714,-0.03027 0.00136,-0.01006 0.00168,-0.02015 0.00105,-0.03027 -6.415e-4,-0.01006 -0.00231,-0.02025 -0.00504,-0.03049 -0.00273,-0.01018 -0.0064,-0.0205 -0.011193,-0.03092 -0.00483,-0.0104 -0.010605,-0.02096 -0.017504,-0.03162 -0.00693,-0.01067 -0.014858,-0.02149 -0.023909,-0.0325 -0.00903,-0.011 -0.019194,-0.02217 -0.030429,-0.03358 -0.011235,-0.0114 -0.023552,-0.023 -0.037002,-0.03489 -0.026901,-0.02376 -0.058306,-0.04855 -0.094279,-0.07466 -0.035973,-0.0261 -0.076576,-0.05356 -0.1218881,-0.0826 -0.036036,-0.02309 -0.067557,-0.04332 -0.094931,-0.06135 -0.027373,-0.01804 -0.050599,-0.0339 -0.069993,-0.04831 -0.019394,-0.01442 -0.034965,-0.0274 -0.047061,-0.03962 -0.00609,-0.0061 -0.011193,-0.012 -0.01554,-0.01782 -0.00431,-0.0058 -0.00787,-0.01156 -0.010647,-0.01728 -0.00273,-0.0057 -0.00462,-0.01144 -0.00588,-0.01722 -0.00126,-0.0058 -0.00168,-0.01162 -0.00147,-0.01766 2.31e-4,-0.006 0.00116,-0.01223 0.00273,-0.01869 0.00157,-0.0064 0.00378,-0.01321 0.00672,-0.02026 0.00577,-0.01412 0.013933,-0.02962 0.024234,-0.04722 0.01029,-0.0176 0.022743,-0.03727 0.036949,-0.05978 0.014343,-0.02272 0.026744,-0.04262 0.038094,-0.05967 0.01135,-0.01704 0.021609,-0.03124 0.031626,-0.04261 0.00504,-0.0057 0.00998,-0.01068 0.014941,-0.01494 0.00504,-0.0043 0.01008,-0.0077 0.015215,-0.01065 0.00514,-0.0028 0.010511,-0.005 0.016086,-0.0064 0.00557,-0.0014 0.011382,-0.0022 0.017556,-0.0022 0.0062,-6e-6 0.012684,7.35e-4 0.019677,0.0021 0.00703,0.0013 0.014437,0.0036 0.022449,0.0064 0.016012,0.0057 0.034251,0.01416 0.055587,0.02548 0.021336,0.01133 0.045791,0.02554 0.07412,0.04255 0.028329,0.017 0.060553,0.03683 0.097545,0.0595 0.040005,0.02452 0.077385,0.04626 0.1123783,0.06532 0.034997,0.01904 0.067609,0.03542 0.098091,0.04907 0.030482,0.01365 0.058811,0.02461 0.08526,0.03293 0.01323,0.0042 0.025998,0.0076 0.038314,0.0105 0.012316,0.0028 0.024192,0.0051 0.035648,0.0065 0.011456,0.0016 0.022481,0.0024 0.033148,0.0026 0.010668,2.09e-4 0.020926,-2.11e-4 0.03087,-0.0012 0.00998,-10e-4 0.01953,-0.0028 0.028801,-0.0052 0.00924,-0.0024 0.018238,-0.0054 0.026901,-0.009 0.00861,-0.0037 0.016989,-0.008 0.025106,-0.01289 0.00809,-0.005 0.01596,-0.0105 0.023583,-0.01668 0.00766,-0.0062 0.015025,-0.01299 0.022229,-0.02043 0.00724,-0.0074 0.014248,-0.01554 0.021084,-0.02424 0.00914,-0.01162 0.017325,-0.02315 0.02456,-0.03457 0.00725,-0.01142 0.013514,-0.02273 0.018806,-0.03402 0.00525,-0.01129 0.00955,-0.02249 0.012884,-0.03369 0.00336,-0.0112 0.00567,-0.02235 0.00693,-0.03352 0.00126,-0.01117 0.00157,-0.02239 8.2e-4,-0.03358 -7.465e-4,-0.0112 -0.00252,-0.02241 -0.00536,-0.03369 -0.00283,-0.01129 -0.00672,-0.0226 -0.011634,-0.03402 -0.00494,-0.01142 -0.010952,-0.02293 -0.018039,-0.03457 -0.00714,-0.01163 -0.015288,-0.02339 -0.02456,-0.03527 -0.00924,-0.01188 -0.019646,-0.02389 -0.031132,-0.03609 -0.011497,-0.01219 -0.024129,-0.02456 -0.037873,-0.03712 -0.013755,-0.01256 -0.028633,-0.02532 -0.044667,-0.03832 -0.032077,-0.02596 -0.068764,-0.05285 -0.1102048,-0.08086 -0.041433,-0.02801 -0.087601,-0.05715 -0.1386798,-0.08765 -0.032161,-0.01921 -0.060585,-0.03471 -0.08483,-0.04858 -0.012117,-0.0069 -0.023184,-0.01345 -0.033148,-0.01984 -0.00998,-0.0064 -0.018827,-0.01262 -0.026523,-0.01896 -0.00766,-0.0063 -0.014248,-0.01278 -0.019562,-0.01961 -0.00536,-0.0068 -0.00945,-0.01406 -0.012222,-0.02191 -0.00284,-0.0078 -0.00441,-0.01634 -0.00451,-0.02571 -2.11e-4,-0.0093 9.041e-4,-0.01961 0.00347,-0.03102 0.00252,-0.01141 0.0064,-0.02395 0.011791,-0.03792 0.00536,-0.01397 0.012222,-0.0294 0.020538,-0.04646 0.016642,-0.03412 0.039259,-0.07491 0.068418,-0.124495 0.058317,-0.09917 0.1426005,-0.233442 0.2564919,-0.419408 0.070424,-0.114986 0.132721,-0.216075 0.1886198,-0.304531 0.027951,-0.04422 0.054306,-0.08529 0.079286,-0.123354 0.024979,-0.03807 0.048531,-0.07314 0.070969,-0.105369 0.022438,-0.03222 0.043732,-0.06162 0.064071,-0.0883 0.020339,-0.02669 0.039732,-0.05069 0.058411,-0.07217 0.01868,-0.02147 0.036666,-0.04043 0.054127,-0.05701 0.017461,-0.01658 0.034408,-0.03078 0.051083,-0.04277 0.016674,-0.01199 0.033065,-0.02173 0.049392,-0.02945 0.016327,-0.0077 0.032602,-0.01335 0.049014,-0.01711 0.016422,-0.0038 0.032991,-0.0057 0.049938,-0.0058 z"
         transform="matrix(1.0320483,0,0,1.015873,-0.18040802,-0.21414426)" />
      <path
         id="path1108"
         style="fill:#ea27f8;stroke-width:0.0334022;filter:url(#filter1647)"
         d="m 12.572527,11.432958 c 0.0023,5.27e-4 0.01392,0.0142 0.03375,0.03952 0.01981,0.02531 0.04784,0.06227 0.08304,0.109388 0.07039,0.09426 0.169388,0.229216 0.288499,0.392889 0.238225,0.327347 0.556883,0.769729 0.887887,1.232087 0.331003,0.462356 0.674344,0.944641 0.961953,1.351799 0.143805,0.203579 0.273674,0.388378 0.381097,0.542491 0.107424,0.154115 0.192417,0.277565 0.246439,0.358438 0.01259,0.01885 0.02415,0.03727 0.03467,0.05533 0.01052,0.01805 0.02,0.0357 0.02842,0.05303 0.0084,0.01733 0.01581,0.03436 0.02212,0.05108 0.0063,0.0167 0.01149,0.03312 0.01565,0.04929 0.0042,0.01617 0.0072,0.03211 0.0092,0.04782 0.002,0.01572 0.0028,0.03123 0.0026,0.04657 -2.1e-4,0.01535 -0.0015,0.03054 -0.0041,0.04559 -0.0024,0.01506 -0.006,0.02997 -0.01076,0.04483 -0.0047,0.01486 -0.0106,0.02969 -0.01761,0.04444 -0.007,0.01475 -0.01513,0.02945 -0.02446,0.04418 -0.0093,0.01473 -0.01985,0.02945 -0.03152,0.04424 -0.01167,0.01479 -0.0245,0.02967 -0.03852,0.04462 -0.01403,0.01493 -0.02928,0.02994 -0.0457,0.0451 -0.01643,0.01517 -0.03407,0.03049 -0.05293,0.04597 -0.01886,0.01549 -0.03891,0.03118 -0.06021,0.04706 -0.02131,0.01588 -0.04381,0.03199 -0.0676,0.04837 v 5.5e-5 c -0.01669,0.01149 -0.03327,0.02221 -0.04967,0.03228 -0.01641,0.01006 -0.03265,0.01943 -0.04874,0.02803 -0.01609,0.0086 -0.03205,0.01651 -0.04782,0.0237 -0.01578,0.0071 -0.03141,0.01361 -0.04684,0.01934 -0.01544,0.0058 -0.03068,0.01075 -0.04576,0.01506 -0.01508,0.0043 -0.02997,0.0079 -0.04467,0.01076 -0.0147,0.0028 -0.02922,0.0051 -0.04352,0.0064 -0.0143,0.0014 -0.02839,0.0021 -0.04227,0.0021 -0.01389,-2.2e-5 -0.02758,-7.38e-4 -0.04102,-0.0022 -0.01346,-0.0014 -0.02671,-0.0036 -0.03972,-0.0065 -0.01301,-0.0029 -0.02577,-0.0065 -0.03832,-0.01086 -0.01255,-0.0043 -0.02484,-0.0093 -0.0369,-0.01516 -0.01206,-0.0058 -0.02388,-0.01229 -0.03542,-0.01951 -0.01156,-0.0072 -0.02287,-0.01514 -0.03391,-0.0238 -0.01104,-0.0086 -0.02183,-0.01805 -0.03233,-0.02815 -0.0105,-0.01006 -0.02071,-0.0209 -0.03065,-0.03244 -0.0087,-0.01006 -0.0606,-0.08148 -0.144712,-0.198728 -0.08411,-0.117243 -0.200406,-0.280364 -0.338057,-0.473858 -0.275303,-0.386989 -0.635868,-0.895549 -0.994234,-1.402175 -0.358365,-0.506625 -0.71454,-1.01128 -0.981136,-1.390383 -0.133298,-0.18955 -0.244234,-0.347694 -0.32181,-0.459023 -0.07757,-0.111327 -0.121834,-0.175865 -0.121834,-0.178076 0,-0.0018 0.0064,-0.0081 0.01783,-0.01783 0.01144,-0.0098 0.02798,-0.02298 0.04842,-0.03875 0.04087,-0.03155 0.09722,-0.07327 0.159221,-0.117487 0.062,-0.04422 0.142026,-0.104496 0.221008,-0.165961 0.07898,-0.06146 0.156926,-0.124097 0.214757,-0.173132 0.02892,-0.02452 0.05786,-0.04764 0.08531,-0.06842 0.02747,-0.02078 0.05347,-0.03925 0.07667,-0.05445 0.02322,-0.0152 0.04361,-0.02714 0.05978,-0.03495 0.0081,-0.0039 0.01513,-0.0068 0.02092,-0.0085 0.0058,-0.0017 0.01029,-0.0022 0.01347,-0.0015 z"
         transform="matrix(1.0320483,0,0,1.015873,-0.18040802,-0.21414426)" />
      <path
         id="path1082"
         style="fill:#ea27f8;stroke-width:0.0334022;filter:url(#filter1647)"
         d="m 10.151202,10.430798 c 0.04315,-0.02084 0.08637,-0.04165 0.128518,-0.06314 0.05783,-0.02949 0.114538,-0.0595 0.169763,-0.08977 0.05522,-0.03028 0.108953,-0.06088 0.160742,-0.09145 0.05178,-0.03059 0.101651,-0.06117 0.149167,-0.09156 0.04751,-0.03038 0.09268,-0.06055 0.135094,-0.09025 0.04241,-0.0297 0.0821,-0.058966 0.118573,-0.087489 0.03647,-0.028533 0.06976,-0.056344 0.09945,-0.083201 0.02969,-0.026846 0.05579,-0.052737 0.07787,-0.077439 0.01105,-0.012346 0.02107,-0.024367 0.03005,-0.036093 0.009,-0.011706 0.01693,-0.023107 0.02375,-0.034122 0.0068,-0.011015 0.01252,-0.021643 0.01706,-0.031896 0.0045,-0.010293 0.008,-0.020119 0.01006,-0.029559 0.0022,-0.00945 0.0031,-0.018449 0.0028,-0.027006 -3.16e-4,-0.00861 -0.0019,-0.016674 -0.0049,-0.024287 -0.0024,-0.00651 -0.01316,-0.024528 -0.03108,-0.052552 C 11.220199,9.49297 11.195119,9.45495 11.163779,9.4083338 11.101179,9.3150898 11.013773,9.1875838 10.90984,9.037439 10.805981,8.8872869 10.685506,8.7144716 10.556745,8.5306965 10.427982,8.3469223 10.290887,8.1521642 10.153748,7.9580455 10.016606,7.7639278 9.8793803,7.5704822 9.7503151,7.3893078 9.6212502,7.2081325 9.5003836,7.0392537 9.3958457,6.8943106 9.2913077,6.7493665 9.2031308,6.6283635 9.1395712,6.5429376 9.1077877,6.5002236 9.0821568,6.466414 9.063709,6.4429465 9.0452602,6.419479 9.0339517,6.4063221 9.030886,6.4050205 c -0.00252,-0.00105 -0.0084,9.76e-5 -0.017283,0.00325 -0.00882,0.00315 -0.020611,0.00829 -0.034881,0.015214 -0.02856,0.013765 -0.067148,0.034451 -0.1123795,0.059934 -0.045234,0.025494 -0.097083,0.055755 -0.15221,0.088736 -0.055125,0.03298 -0.1134945,0.06868 -0.1717191,0.1049371 -0.058222,0.036256 -0.1163127,0.07307 -0.1708508,0.1083567 -0.054537,0.03529 -0.1055386,0.069069 -0.1496018,0.099172 -0.044058,0.030104 -0.081175,0.056574 -0.1079757,0.077269 -0.013398,0.010395 -0.024255,0.019268 -0.032067,0.02646 -0.00777,0.00725 -0.01259,0.012663 -0.013965,0.016191 -9.46e-4,0.00252 0.00336,0.012527 0.012495,0.029179 0.00913,0.016653 0.023121,0.040026 0.041412,0.06929 0.036572,0.058517 0.090395,0.1407315 0.1574264,0.2406242 0.067032,0.099897 0.1472574,0.2174351 0.2366574,0.3466449 0.089397,0.1292088 0.187969,0.2700579 0.2916522,0.4165286 0.2878681,0.4066629 0.5017992,0.7086302 0.6604122,0.9346742 0.079307,0.1130209 0.1447529,0.2070589 0.1987272,0.285727 0.05397,0.078666 0.096474,0.1419947 0.1297674,0.1935108 0.033295,0.051513 0.057393,0.091245 0.074665,0.1228125 0.0086,0.01578 0.01559,0.029539 0.02108,0.041682 0.0055,0.012153 0.0096,0.02266 0.01256,0.032069 0.0029,0.00945 0.0047,0.017691 0.0057,0.025271 9.46e-4,0.00752 0.0011,0.014449 7.36e-4,0.021085 -8.41e-4,0.01326 -0.0039,0.025566 -0.0067,0.040483 -0.0022,0.01136 -0.005,0.022355 -0.0083,0.032984 -0.0034,0.010639 -0.0072,0.020892 -0.01168,0.030758 -0.0044,0.00986 -0.0093,0.019317 -0.01478,0.02836 -0.00549,0.00904 -0.011299,0.01767 -0.01761,0.025871 -0.0063,0.00823 -0.013041,0.015963 -0.02016,0.023259 -0.00714,0.00721 -0.014606,0.014134 -0.022438,0.020485 -0.00788,0.0063 -0.016044,0.012234 -0.024507,0.017609 -0.0085,0.0054 -0.017189,0.01018 -0.026198,0.01456 -0.00409,0.002 -0.0084,0.0035 -0.01261,0.0053 0.088127,-0.021999 0.4058761,0.308436 0.4058761,0.424354 0,9.46e-4 -7.36e-4,0.0022 -10e-4,0.0033 z"
         transform="matrix(1.0320483,0,0,1.015873,-0.18040802,-0.21414426)" />
      <path
         id="path1072"
         style="fill:#ea27f8;stroke-width:0.0334022;filter:url(#filter1647)"
         d="m 5.350736,1.0695736 c -0.00431,-3.161e-4 -0.00861,9.87e-5 -0.012936,0.00126 -0.00431,0.00116 -0.00872,0.00325 -0.013094,0.00588 -0.00882,0.00546 -0.017987,0.013881 -0.027877,0.025326 -0.00987,0.011445 -0.020496,0.025872 -0.032329,0.04326 -0.011834,0.017378 -0.024885,0.037716 -0.039564,0.060974 -0.015299,0.024223 -0.029883,0.046337 -0.044121,0.06657 -0.014238,0.020233 -0.028108,0.038588 -0.041948,0.055324 -0.013839,0.016737 -0.027636,0.031868 -0.041738,0.045591 -0.014102,0.013724 -0.028507,0.026061 -0.043523,0.037275 -0.015026,0.011214 -0.030671,0.021294 -0.047281,0.030482 -0.016601,0.00924 -0.034188,0.017451 -0.053036,0.025106 -0.018847,0.00766 -0.038955,0.014689 -0.060701,0.021304 -0.021745,0.00662 -0.045118,0.012842 -0.070424,0.01891 -0.030124,0.00724 -0.056511,0.013755 -0.079338,0.019992 -0.022827,0.0062 -0.042094,0.01219 -0.057876,0.018365 -0.015771,0.0062 -0.028088,0.012579 -0.037065,0.019614 -0.00451,0.00357 -0.00819,0.00714 -0.010972,0.011088 -0.00283,0.00388 -0.00483,0.00809 -0.00609,0.012442 -0.00126,0.00441 -0.00157,0.00914 -0.00126,0.014133 4.211e-4,0.00504 0.00147,0.010395 0.00347,0.016191 0.00388,0.011529 0.010826,0.024633 0.020706,0.039774 0.00987,0.015151 0.022712,0.032309 0.038367,0.052007 0.015656,0.019698 0.034146,0.041895 0.055324,0.067053 0.0359,0.042651 0.062821,0.074718 0.082929,0.1026479 0.01008,0.013965 0.018364,0.026901 0.025273,0.039617 0.00693,0.012716 0.012411,0.025179 0.016685,0.038251 0.00431,0.013083 0.00735,0.026775 0.00955,0.041842 0.00221,0.015067 0.00347,0.03149 0.00409,0.050158 0.00126,0.037338 -2.099e-4,0.083506 -0.00199,0.1449839 -0.00105,0.035459 -0.00199,0.066496 -0.00231,0.093408 -3.15e-4,0.026911 4.19e-5,0.049728 0.00157,0.068796 7.371e-4,0.00955 0.00179,0.018112 0.00325,0.025809 0.00147,0.00766 0.00325,0.014532 0.00546,0.020485 0.00221,0.00599 0.00494,0.011035 0.00809,0.015319 0.00315,0.00431 0.00683,0.00777 0.011035,0.010542 0.0042,0.00273 0.00903,0.00462 0.014406,0.00588 0.00546,0.00126 0.011456,0.00179 0.018207,0.00168 0.013503,-3.255e-4 0.029862,-0.00336 0.049508,-0.00872 0.019646,-0.00535 0.04263,-0.013157 0.069499,-0.022932 0.02687,-0.00976 0.057592,-0.021599 0.092757,-0.035049 l 0.1864464,-0.071347 0.1957389,0.071347 c 0.034471,0.012568 0.064565,0.023583 0.090856,0.03277 0.026302,0.00914 0.048804,0.016538 0.06804,0.021735 0.019225,0.00525 0.035207,0.00829 0.048468,0.00892 0.00662,3.055e-4 0.01259,-2.84e-5 0.017934,-9.775e-4 0.00535,-9.462e-4 0.01008,-0.00252 0.014291,-0.00483 0.0042,-0.00231 0.00788,-0.00525 0.011035,-0.00892 0.00315,-0.00368 0.00588,-0.00809 0.00829,-0.013262 0.00231,-0.00514 0.0042,-0.011141 0.00577,-0.017882 0.00157,-0.00672 0.00284,-0.014238 0.00388,-0.022607 0.00199,-0.016727 0.00294,-0.036824 0.00336,-0.060533 4.211e-4,-0.023709 4.211e-4,-0.05103 4.211e-4,-0.082331 0,-0.029589 4.199e-4,-0.056584 0.00136,-0.081459 9.461e-4,-0.024875 0.00252,-0.047649 0.00483,-0.068849 0.00231,-0.02121 0.00535,-0.040866 0.00945,-0.059451 0.00409,-0.018585 0.00903,-0.036089 0.015214,-0.053088 0.0062,-0.017 0.013419,-0.033474 0.02206,-0.049938 0.00861,-0.016474 0.018658,-0.032959 0.030156,-0.049938 0.011497,-0.016979 0.024497,-0.034451 0.039239,-0.052983 0.014742,-0.018532 0.031195,-0.038094 0.04956,-0.05923 0.015918,-0.018323 0.029746,-0.035122 0.041464,-0.050536 0.011718,-0.015425 0.021325,-0.029463 0.028801,-0.042273 0.00746,-0.012821 0.012789,-0.024434 0.01597,-0.034944 0.00157,-0.00525 0.00262,-0.01029 0.00315,-0.014994 5.261e-4,-0.00472 5.261e-4,-0.00924 -5.45e-5,-0.013482 -5.261e-4,-0.00431 -0.00168,-0.00829 -0.00336,-0.012064 -0.00168,-0.00378 -0.00378,-0.00746 -0.00662,-0.010868 -0.00546,-0.00683 -0.01324,-0.012842 -0.023153,-0.01826 -0.00987,-0.00546 -0.02205,-0.010185 -0.036414,-0.014511 -0.014364,-0.00431 -0.030933,-0.00819 -0.04978,-0.011739 -0.029694,-0.00557 -0.057173,-0.011413 -0.082813,-0.017766 -0.025641,-0.0064 -0.049476,-0.013188 -0.071726,-0.020758 -0.02226,-0.00756 -0.042956,-0.015897 -0.062496,-0.025106 -0.01953,-0.00924 -0.037853,-0.01931 -0.055324,-0.030597 -0.017472,-0.011277 -0.034093,-0.02372 -0.050158,-0.037495 -0.016048,-0.013765 -0.031556,-0.028885 -0.046876,-0.04558 -0.01532,-0.016695 -0.030461,-0.034997 -0.045707,-0.055052 -0.015236,-0.020044 -0.030587,-0.041874 -0.04641,-0.065699 -0.016968,-0.025557 -0.031983,-0.047933 -0.045539,-0.067168 -0.013555,-0.019225 -0.025651,-0.03529 -0.036687,-0.048258 -0.011035,-0.012968 -0.021021,-0.022796 -0.030429,-0.029557 -0.00473,-0.00336 -0.00924,-0.00598 -0.013744,-0.00788 -0.00441,-0.00189 -0.00882,-0.00294 -0.013146,-0.00325 z"
         transform="matrix(1.0320483,0,0,1.015873,-0.18040802,-0.21414426)" />
      <path
         style="fill:#3c3c3c;fill-opacity:1;stroke-width:0.0334021;filter:url(#filter1647)"
         d="M 14.545838,16.821265 C 14.267875,16.707 14.194399,16.62128 13.357571,15.434973 c -0.408211,-0.578688 -0.775689,-1.08974 -0.81662,-1.135667 -0.04093,-0.04593 -0.36336,-0.493097 -0.716511,-0.993709 -0.353152,-0.500613 -0.658578,-0.910203 -0.678723,-0.910203 -0.02015,0 -0.21111,0.07488 -0.424363,0.166393 C 9.1673112,13.228697 7.2839516,13.184788 5.6888695,12.444459 5.240192,12.236213 5.1701539,12.276851 5.1333261,12.7668 c -0.012306,0.16364 -0.045392,0.306739 -0.092673,0.400825 -0.089198,0.177469 -0.5513349,0.94218 -0.6536229,1.081578 -0.070969,0.09671 -0.179405,0.272235 -1.0061224,1.628564 -0.4886688,0.80172 -0.619714,0.910426 -1.094988,0.908327 -0.2984562,-0.0013 -0.2671053,0.01116 -0.864172,-0.3439 -0.94763728,-0.563531 -0.98426548,-0.895152 -0.232998,-2.109486 0.4380767,-0.7081 0.9175204,-1.490979 1.298939,-2.121025 0.304625,-0.503196 0.3907995,-0.602677 0.633655,-0.731496 l 0.1952233,-0.103552 0.5201384,-0.85175 C 4.4425345,9.5328125 4.4701714,9.508335 4.7497769,9.7162351 6.3069992,10.874093 7.636657,11.193853 9.2109072,10.789056 10.105355,10.559061 11.36142,9.8173175 11.269297,9.5735148 11.229932,9.4693337 9.0798997,6.42601 9.0308595,6.405051 8.99013,6.387642 8.0898894,6.9481539 8.0679034,7.0046061 8.0599268,7.0249764 8.392807,7.5209939 8.8075381,8.1068728 9.9590123,9.7335235 9.9275143,9.6847899 9.9044983,9.8041302 9.8694493,9.9858631 9.6798339,10.07736 9.5178819,9.9906861 9.4837989,9.9724381 9.040175,9.3713551 8.5320611,8.654935 8.0239473,7.9385159 7.5939398,7.3435304 7.5764899,7.3327448 7.5590389,7.3219613 7.2337857,7.5121572 6.8537068,7.7554064 5.6013667,8.5568996 5.4980804,8.5326152 4.6697428,7.2419303 3.7576783,5.820787 3.7223133,5.899916 5.8933338,4.5042153 6.6465481,4.0199911 7.2891396,3.6138019 7.3213147,3.6015704 7.4573044,3.5498784 11.201793,4.5145263 11.255629,4.6151194 11.377566,4.842961 11.342619,4.8774965 10.335797,5.5241558 9.7420695,5.9054947 9.5346115,6.0554924 9.5359335,6.102482 c 0.00157,0.057677 1.9773915,2.8833069 2.1211035,3.0334737 0.08131,0.084966 0.114044,0.05607 0.369983,-0.3265594 C 13.5545,6.5257894 12.994493,3.5326264 10.753323,2.0016562 10.337337,1.7174917 10.318258,1.6364391 10.600834,1.3538632 10.858489,1.0962079 10.953817,1.1092478 11.55497,1.484375 c 3.190648,1.9910074 3.971561,6.2335087 1.685667,9.157781 -0.13716,0.175463 -0.249381,0.334943 -0.249381,0.3544 0,0.03792 0.462369,0.705007 2.01132,2.901829 0.983087,1.394279 1.091626,1.577262 1.093973,1.844306 0.006,0.677423 -0.934806,1.331757 -1.550709,1.078577 z m 0.668666,-0.60422 c 0.380511,-0.262068 0.442122,-0.45597 0.240695,-0.757516 -0.432172,-0.646981 -2.84557,-4.018101 -2.882657,-4.026598 -0.02522,-0.0058 -0.140482,0.06973 -0.256145,0.167798 -0.115662,0.09807 -0.311755,0.250665 -0.435759,0.339107 -0.124006,0.08844 -0.225464,0.166773 -0.225464,0.174069 0,0.01768 2.832097,4.021453 2.901742,4.102228 0.159128,0.184559 0.390474,0.18488 0.657588,9.46e-4 z M 2.5679634,16.150184 c 0.1217339,-0.126312 1.9377904,-3.094837 2.001978,-3.272434 0.095707,-0.26479 -0.1230737,-0.497015 -0.7888092,-0.8373 -0.4185814,-0.213956 -0.4612093,-0.18331 -1.0245699,0.736572 -0.4555655,0.743866 -0.4370991,0.660287 -0.1798345,0.813941 0.4086095,0.244043 0.5043674,0.400992 0.3581046,0.586938 -0.1094163,0.139101 -0.2613566,0.118915 -0.5813576,-0.07724 -0.2959162,-0.181386 -0.2881841,-0.181394 -0.4029312,4.21e-4 -0.1136384,0.180016 -0.1133832,0.180546 0.1749174,0.365259 0.3625324,0.232273 0.4219182,0.361632 0.2465315,0.537018 -0.1337836,0.133784 -0.2141317,0.123672 -0.5208251,-0.06554 -0.314814,-0.194225 -0.2964359,-0.198229 -0.4831217,0.105293 -0.2881935,0.468562 -0.2370501,0.60009 0.3880527,0.997958 0.4310857,0.27438 0.6272132,0.300749 0.811865,0.109154 z M 9.0665195,12.446537 C 13.282277,11.842709 15.40863,7.1472172 13.05813,3.632117 12.714205,3.1177861 12.270433,2.6499661 12.568564,3.11602 13.722337,4.9196561 13.701392,7.2795276 12.515858,9.0547381 10.802709,11.619991 7.3539077,12.255279 4.8461742,10.467534 4.588457,10.283808 4.6310051,10.252841 4.2279973,10.917443 c -0.3571238,0.588932 -0.3670117,0.523062 0.1237131,0.824124 0.4806227,0.294863 0.4643908,0.291389 0.5711536,0.122267 0.1832115,-0.290226 0.2447666,-0.293551 0.7285341,-0.03936 1.069702,0.562078 2.2864858,0.783712 3.4151224,0.622057 z M 6.3145812,7.4569544 C 6.5421707,7.3127633 6.9989375,7.0219543 7.3296161,6.8107111 7.6602957,6.5994679 8.4419029,6.1001877 9.0665195,5.7011983 10.348373,4.8823853 10.322047,4.9017578 10.224133,4.8493555 9.9534563,4.7044933 9.9065203,4.7256403 8.5875399,5.5866801 8.3037765,5.7719221 8.1863035,5.7897784 8.0629422,5.6664171 7.8569291,5.4604029 7.9468426,5.3405212 8.6277477,4.9133541 8.8766584,4.7572002 9.0809665,4.6135539 9.0817666,4.5941415 9.0835516,4.550955 8.6253704,4.436736 8.5710245,4.4668144 8.5496045,4.4786688 8.3162379,4.6240686 8.0524202,4.7899297 7.5171555,5.1264515 7.4218806,5.1528044 7.2909288,5.0005629 7.1337522,4.8178355 7.2055008,4.6784313 7.576577,4.4455938 7.8507908,4.2735293 7.857116,4.2604431 7.6886876,4.2136678 7.4482576,4.1468983 7.4244384,4.1583118 6.3259044,4.8667078 4.7349573,5.8926374 4.7081813,5.9109074 4.6687642,5.9974211 4.6119488,6.1221096 4.6431968,6.188393 5.0945655,6.9007727 5.7227414,7.8921983 5.6674117,7.8669742 6.3145812,7.4569556 Z m 3.4977427,8.1104126 c -0.1337332,-0.07804 -0.097566,-0.329163 0.069121,-0.48002 0.09325,-0.08439 0.08874,-0.12317 -0.027283,-0.23432 -0.1186458,-0.113668 -0.152816,-0.232825 -0.1019655,-0.355579 0.08065,-0.194718 0.3253476,-0.200437 0.5026126,-0.01175 0.04176,0.04444 0.09323,0.08082 0.114384,0.08082 0.02114,0 0.07263,-0.03638 0.114384,-0.08082 0.315201,-0.335517 0.728303,0.0024 0.420048,0.343636 -0.141468,0.156588 -0.141185,0.151638 -0.01671,0.293419 0.278891,0.317639 -0.04525,0.651962 -0.366161,0.377661 -0.141575,-0.121012 -0.156017,-0.120882 -0.300616,0.0027 -0.120752,0.103215 -0.2942047,0.130531 -0.4078269,0.06423 z m 4.9884591,-5.119794 c -0.149753,-0.159404 -0.0339,-0.4571219 0.177888,-0.4571219 0.126396,0 0.250515,0.1387149 0.250515,0.2799729 0,0.221047 -0.278842,0.33635 -0.428403,0.177149 z M 1.5341567,7.522843 C 1.012163,7.3519293 0.78245985,6.8321321 1.0190857,6.3572865 1.3915772,5.6097917 2.5364319,5.8979262 2.5364319,6.7391673 c 0,0.5039883 -0.547955,0.9324323 -1.0022752,0.7836757 z M 1.9602488,6.9334351 c 0.164011,-0.1887616 0.022838,-0.5169968 -0.222368,-0.5169968 -0.158004,0 -0.3170737,0.1591936 -0.3170737,0.3173204 0,0.2818535 0.3541388,0.4129407 0.5394417,0.1996764 z M 4.4359551,3.1260149 C 4.3104161,3.0578069 4.3015457,3.0113088 4.3269221,2.5545767 L 4.3496651,2.1452511 4.1228043,1.8710395 C 3.6435686,1.2917777 3.6915126,1.2110548 4.6443182,0.99297508 c 0.06552,-0.014994 0.1455456,-0.1106953 0.3233767,-0.38670349 0.3461713,-0.53728912 0.4260197,-0.53420948 0.7913125,0.030513 0.1170634,0.1809738 0.2402684,0.33708255 0.2737895,0.34690845 0.033516,0.00987 0.2112558,0.057383 0.394967,0.10567196 0.6012089,0.1580461 0.6045026,0.2497436 0.033254,0.925664 L 6.355745,2.1395906 6.370865,2.5855139 6.385985,3.0314363 6.293816,3.1039393 C 6.1723976,3.1994467 6.1763907,3.2000032 5.7302353,3.0255562 L 5.344332,2.874666 4.9689445,3.0255562 C 4.5503557,3.1938103 4.5580596,3.1923582 4.4359561,3.1260097 Z m 0.7193465,-0.7557698 0.1864685,-0.071358 0.1957052,0.071358 c 0.2757762,0.1005581 0.272351,0.1024169 0.272351,-0.1479514 0,-0.2367077 0.025032,-0.3058544 0.1719081,-0.4749453 C 6.1090847,1.6007433 6.1025527,1.5519656 5.9517884,1.5237038 5.7142606,1.4791838 5.6168102,1.4162458 5.4902684,1.2256613 5.3545055,1.0211865 5.3423517,1.0203002 5.2249198,1.2063203 5.1025665,1.4001398 5.0245851,1.458336 4.822145,1.5069007 4.5811134,1.5647241 4.5779172,1.5762952 4.7473431,1.7775894 4.8909243,1.9481871 4.8912613,1.949214 4.8838945,2.1951019 c -0.0085,0.2837068 -0.00987,0.2827944 0.2714144,0.1751379 z"
         id="path2405"
         transform="matrix(1.0320483,0,0,1.015873,-0.18040802,-0.21414426)" />
    </g>
  </g>
</svg>
