<?xml version="1.0" encoding="UTF-8" standalone="no"?>
<!-- Created with Inkscape (http://www.inkscape.org/) -->

<svg
   width="64"
   height="64"
   viewBox="0 0 16.933333 16.933333"
   version="1.1"
   id="svg5"
   inkscape:version="1.1 (c68e22c387, 2021-05-23)"
   sodipodi:docname="overal.svg"
   xmlns:inkscape="http://www.inkscape.org/namespaces/inkscape"
   xmlns:sodipodi="http://sodipodi.sourceforge.net/DTD/sodipodi-0.dtd"
   xmlns="http://www.w3.org/2000/svg"
   xmlns:svg="http://www.w3.org/2000/svg">
  <sodipodi:namedview
     id="namedview7"
     pagecolor="#ffffff"
     bordercolor="#666666"
     borderopacity="1.0"
     inkscape:pageshadow="2"
     inkscape:pageopacity="0.0"
     inkscape:pagecheckerboard="0"
     inkscape:document-units="px"
     showgrid="false"
     inkscape:zoom="6.5714108"
     inkscape:cx="-8.2935007"
     inkscape:cy="46.032733"
     inkscape:window-width="1600"
     inkscape:window-height="837"
     inkscape:window-x="-8"
     inkscape:window-y="-8"
     inkscape:window-maximized="1"
     inkscape:current-layer="layer1"
     units="px"
     width="64px" />
  <defs
     id="defs2">
    <filter
       style="color-interpolation-filters:sRGB;"
       inkscape:label="Lightness-Contrast"
       id="filter4084"
       x="0"
       y="0"
       width="1"
       height="1">
      <feColorMatrix
         values="0.21 0.72 0.072 0 0 0.21 0.72 0.072 0 0 0.21 0.72 0.072 0 0 0 0 0 1 0 "
         id="feColorMatrix4082"
         result="fbSourceGraphic" />
      <feColorMatrix
         result="fbSourceGraphicAlpha"
         in="fbSourceGraphic"
         values="0 0 0 -1 0 0 0 0 -1 0 0 0 0 -1 0 0 0 0 1 0"
         id="feColorMatrix4280" />
      <feColorMatrix
         id="feColorMatrix4282"
         values="1 0 0 0.319018 -0 0 1 0 0.319018 -0 0 0 1 0.319018 -0 0 0 0 1 0"
         in="fbSourceGraphic" />
    </filter>
  </defs>
  <g
     inkscape:label="Слой 1"
     inkscape:groupmode="layer"
     id="layer1">
    <g
       id="g4070"
       transform="matrix(1.0616121,0,0,1.0616121,-0.31618152,-0.79242353)"
       style="filter:url(#filter4084)">
      <path
         id="path864"
         style="fill:#955b4e;stroke-width:0.0292793"
         d="m 7.6421467,2.125534 -0.112655,0.05839 c -0.01297,0.0067 -0.02569,0.01354 -0.03721,0.02067 -0.01152,0.0071 -0.02196,0.01459 -0.03204,0.02222 -0.01008,0.0076 -0.01978,0.01555 -0.02842,0.02377 -0.0086,0.0082 -0.01655,0.01695 -0.02377,0.02584 -0.0072,0.0089 -0.0133,0.01774 -0.01912,0.02739 -0.0058,0.0096 -0.01108,0.02 -0.0155,0.03049 -0.0044,0.01049 -0.0083,0.02115 -0.01137,0.03256 -0.003,0.01141 -0.0051,0.02324 -0.0067,0.03566 -0.0017,0.01241 -0.0028,0.02577 -0.0031,0.03927 -2.97e-4,0.0135 -2.2e-5,0.02718 0.001,0.04186 0.0011,0.01467 0.0028,0.03006 0.0052,0.04599 0.0024,0.01593 0.0056,0.03286 0.0093,0.05013 0.0075,0.03454 0.01727,0.07174 0.02997,0.112138 0.01271,0.04039 0.02812,0.08383 0.04599,0.130742 0.02346,0.06158 0.04535,0.122804 0.06563,0.183451 0.02028,0.06065 0.03919,0.120697 0.05633,0.180351 0.01713,0.05965 0.03248,0.118655 0.04651,0.17725 0.01403,0.0586 0.02676,0.116678 0.03772,0.174149 0.01096,0.05747 0.02049,0.114249 0.02842,0.170533 0.0079,0.05628 0.01418,0.111884 0.01912,0.166914 0.0049,0.05503 0.0083,0.109586 0.01034,0.163298 0.002,0.05371 0.0025,0.106834 0.0015,0.159163 -9.22e-4,0.05233 -0.0034,0.104147 -0.0072,0.15503 -0.0038,0.05088 -0.0089,0.101008 -0.0155,0.150378 -0.0066,0.04937 -0.01485,0.09793 -0.02429,0.145728 -0.0094,0.04779 -0.01984,0.09441 -0.03204,0.14056 -0.0122,0.04615 -0.0259,0.09146 -0.04082,0.135909 -0.01492,0.04444 -0.03148,0.08807 -0.04909,0.130741 -0.01761,0.04267 -0.03659,0.08474 -0.05684,0.125574 -0.02026,0.04084 -0.04173,0.08044 -0.06459,0.119372 -0.02287,0.03894 -0.04691,0.07723 -0.07235,0.114205 -0.02544,0.03697 -0.05213,0.07255 -0.0801,0.107487 -0.02797,0.03494 -0.05738,0.06896 -0.08785,0.101803 -0.03047,0.03284 -0.06216,0.06492 -0.09508,0.0956 -0.03293,0.03068 -0.06697,0.05991 -0.10232,0.08837 -0.03534,0.02846 -0.07183,0.056 -0.109554,0.08217 -0.03773,0.02617 -0.07672,0.05111 -0.116789,0.07493 -0.04007,0.02382 -0.08113,0.0463 -0.123506,0.0677 -0.04237,0.0214 -0.0861,0.04155 -0.130742,0.06046 -0.04464,0.01891 -0.09007,0.03686 -0.136942,0.05323 -0.04687,0.01636 -0.09511,0.03121 -0.144177,0.04496 -0.04906,0.01375 -0.09916,0.02614 -0.150379,0.03721 -0.05122,0.01107 -0.103248,0.02113 -0.156579,0.02946 -0.05333,0.0083 -0.107889,0.01515 -0.163298,0.02067 -0.05541,0.0055 -0.112051,0.0098 -0.169499,0.0124 -0.05745,0.0026 -0.115734,0.0039 -0.175183,0.0036 -0.107256,-5.25e-4 -0.19672,-3.47e-4 -0.273885,0.001 -0.07716,0.0014 -0.142265,0.0038 -0.199471,0.0078 -0.0286,0.002 -0.0551,0.0045 -0.08061,0.0072 -0.02551,0.0028 -0.04969,0.0056 -0.07338,0.0093 -0.02369,0.0037 -0.04715,0.0078 -0.07028,0.0124 -0.02313,0.0046 -0.04592,0.0098 -0.06976,0.0155 -0.04082,0.0097 -0.08076,0.02083 -0.119372,0.03307 -0.03861,0.01224 -0.07626,0.02568 -0.112655,0.04031 -0.03639,0.01462 -0.07126,0.03068 -0.10542,0.04754 -0.03416,0.01686 -0.06732,0.03479 -0.09922,0.05374 -0.0319,0.01895 -0.06287,0.03853 -0.0925,0.05943 -0.02963,0.0209 -0.05792,0.04293 -0.08527,0.06563 -0.02735,0.0227 -0.0535,0.04644 -0.07855,0.0708 -0.02505,0.02436 -0.0491,0.04958 -0.07183,0.07545 -0.02273,0.02587 -0.0442,0.05234 -0.0646,0.07958 -0.0204,0.02724 -0.03983,0.05525 -0.05788,0.08372 -0.01805,0.02846 -0.03496,0.05728 -0.05064,0.08682 -0.01568,0.02954 -0.03011,0.05945 -0.04341,0.08992 -0.0133,0.03047 -0.02527,0.06124 -0.03617,0.0925 -0.01091,0.03126 -0.02045,0.06318 -0.02894,0.09509 -0.0085,0.0319 -0.01616,0.06423 -0.02222,0.09663 -0.0061,0.0324 -0.01085,0.06491 -0.01447,0.09767 -0.0036,0.03275 -0.0061,0.06574 -0.0072,0.0987 -0.0012,0.03296 -8.03e-4,0.06568 5.17e-4,0.0987 0.0013,0.03303 0.0039,0.06628 0.0078,0.09922 0.0038,0.03294 0.0087,0.06547 0.01499,0.09819 0.0063,0.03272 0.01389,0.06532 0.02274,0.09767 0.0088,0.03235 0.0191,0.06481 0.03049,0.09663 0.01139,0.03183 0.02378,0.0634 0.03772,0.09457 0.01395,0.03117 0.02947,0.06162 0.04599,0.09198 0.01652,0.03036 0.03412,0.06051 0.05323,0.08992 0.01911,0.02941 0.03978,0.0585 0.0615,0.08682 0.02171,0.02831 0.0444,0.05561 0.06873,0.08268 0.02433,0.02707 0.05003,0.05389 0.077,0.07958 0.02697,0.02569 0.05564,0.05026 0.08527,0.07441 0.02962,0.02416 0.06021,0.0478 0.0925,0.07028 0.03229,0.02248 0.06579,0.04394 0.100769,0.0646 0.03498,0.02066 0.07136,0.04022 0.109037,0.05891 l 0.17415,0.08682 h 1.127063 c 0.166099,0 0.313357,2.22e-4 0.443383,0.0015 0.130027,0.0013 0.242884,0.0037 0.340548,0.0072 0.04883,0.0018 0.09395,0.0037 0.135392,0.0062 0.04144,0.0025 0.07918,0.0054 0.113689,0.0088 0.03451,0.0033 0.06549,0.0071 0.09353,0.01137 0.02804,0.0043 0.05289,0.0091 0.07493,0.01447 0.02204,0.0054 0.04138,0.01154 0.05788,0.01809 0.0165,0.0065 0.03044,0.01335 0.04186,0.02119 0.0057,0.0039 0.01046,0.0081 0.01499,0.0124 0.0045,0.0043 0.0085,0.0088 0.01189,0.01344 0.0034,0.0046 0.0064,0.0095 0.0088,0.01447 0.0023,0.005 0.0044,0.01012 0.0057,0.0155 0.0013,0.0054 0.0022,0.01075 0.0026,0.01654 3.81e-4,0.0058 -6e-6,0.01189 -5.17e-4,0.01809 -0.001,0.0124 -0.0035,0.02565 -0.0078,0.03979 -0.0042,0.01414 -0.01005,0.02948 -0.01705,0.04547 -0.007,0.016 -0.01551,0.03268 -0.02481,0.05064 -0.0083,0.016 -0.01402,0.02973 -0.02222,0.04186 -0.0041,0.0061 -0.0089,0.01185 -0.01447,0.01705 -0.0056,0.0052 -0.01205,0.01007 -0.02015,0.01447 -0.0081,0.0044 -0.01783,0.0082 -0.02946,0.01189 -0.01163,0.0037 -0.02518,0.0073 -0.04134,0.01033 -0.01616,0.003 -0.03515,0.0054 -0.05684,0.0078 -0.0217,0.0024 -0.04616,0.0049 -0.07441,0.0067 -0.0565,0.0037 -0.127242,0.0063 -0.216008,0.0083 -0.08876,0.002 -0.195929,0.0033 -0.325044,0.0041 -0.258232,0.0016 -0.605181,10e-4 -1.07332,10e-4 -0.414135,0 -0.729738,4.36e-4 -0.973067,0.0016 -0.121664,5.58e-4 -0.225064,0.0015 -0.313676,0.0026 -0.08861,0.0011 -0.162801,0.0022 -0.224792,0.0041 -0.06199,0.0019 -0.112191,0.0044 -0.153996,0.0072 -0.04181,0.0029 -0.07479,0.0063 -0.102836,0.01034 -0.02805,0.004 -0.0511,0.0091 -0.07183,0.01447 -0.02073,0.0054 -0.03907,0.01111 -0.05891,0.01809 -0.03397,0.01194 -0.06741,0.02466 -0.09974,0.03824 -0.03233,0.01358 -0.06389,0.02828 -0.09457,0.04341 -0.03068,0.01513 -0.06039,0.03094 -0.0894,0.04754 -0.02901,0.0166 -0.05743,0.03369 -0.08475,0.05168 -0.02732,0.01798 -0.05345,0.03704 -0.07906,0.05633 -0.02562,0.01928 -0.05052,0.03893 -0.07441,0.05943 -0.02389,0.0205 -0.04709,0.04142 -0.06925,0.06304 -0.02215,0.02163 -0.04316,0.04399 -0.06356,0.06666 -0.0204,0.02267 -0.03977,0.04613 -0.05839,0.06976 -0.01862,0.02363 -0.0364,0.04732 -0.05323,0.07183 -0.01683,0.02451 -0.03304,0.04963 -0.04806,0.07493 -0.01502,0.0253 -0.02918,0.051 -0.04237,0.077 -0.0132,0.026 -0.02534,0.05244 -0.03669,0.07906 -0.01135,0.02662 -0.02203,0.05346 -0.03152,0.08061 -0.0095,0.02716 -0.01771,0.05456 -0.02532,0.08216 -0.0076,0.02761 -0.01443,0.05523 -0.02015,0.0832 -0.0057,0.02798 -0.01066,0.05598 -0.01447,0.08423 -0.0038,0.02825 -0.0064,0.05682 -0.0083,0.08527 -0.0019,0.02845 -0.0027,0.05722 -0.0026,0.08578 7e-5,0.02856 0.0011,0.05719 0.0031,0.08578 0.002,0.02859 0.0048,0.05674 0.0088,0.08527 0.004,0.02853 0.009,0.0574 0.01499,0.08578 0.006,0.02839 0.01315,0.05659 0.02119,0.08475 0.008,0.02816 0.01732,0.05587 0.02739,0.08372 0.01007,0.02784 0.02095,0.05575 0.03307,0.0832 0.01212,0.02745 0.0256,0.05468 0.03979,0.08165 0.01419,0.02696 0.0292,0.0537 0.04547,0.0801 0.01628,0.0264 0.03381,0.05229 0.05219,0.07803 0.01838,0.02574 0.03738,0.05147 0.05788,0.07648 0.0205,0.02501 0.04247,0.0492 0.06511,0.07338 0.02264,0.02418 0.046,0.04804 0.0708,0.07131 0.02479,0.02328 0.05055,0.04593 0.07752,0.06821 0.03758,0.03105 0.0709,0.05879 0.101802,0.08268 0.01545,0.01195 0.03033,0.02272 0.04496,0.03307 0.01463,0.01035 0.02903,0.02006 0.04341,0.02894 0.01437,0.0089 0.02872,0.01676 0.04341,0.02429 0.01469,0.0075 0.02991,0.01488 0.04547,0.02119 0.01556,0.0063 0.03157,0.01184 0.04858,0.01705 0.01701,0.0052 0.03473,0.0097 0.05374,0.01395 0.01901,0.0042 0.03939,0.008 0.06098,0.01137 0.02159,0.0034 0.04452,0.0066 0.06925,0.0093 0.04946,0.0054 0.105632,0.0097 0.171049,0.01292 0.06542,0.0033 0.139925,0.0056 0.225826,0.0078 0.0859,0.0022 0.183127,0.0041 0.294039,0.0062 0.114175,0.0022 0.214882,0.0039 0.303341,0.0062 0.08846,0.0023 0.164981,0.0049 0.230994,0.0083 0.06601,0.0033 0.121628,0.0077 0.168465,0.01292 0.02342,0.0026 0.04433,0.0056 0.06356,0.0088 0.01924,0.0032 0.03673,0.0064 0.05219,0.01034 0.01547,0.0039 0.02924,0.0082 0.04134,0.01292 0.0121,0.0047 0.02238,0.01034 0.03152,0.01602 0.0091,0.0057 0.01717,0.0119 0.02377,0.0186 0.0066,0.0067 0.01207,0.01386 0.01654,0.0217 0.0045,0.0078 0.0076,0.01624 0.01034,0.02532 0.0027,0.0091 0.0048,0.01852 0.0062,0.02894 0.0028,0.02085 0.0036,0.04448 0.0036,0.07131 0,0.01207 -2.1e-4,0.02351 -5.17e-4,0.03411 -3.07e-4,0.0106 -7.35e-4,0.02073 -0.0021,0.02997 -0.0013,0.0092 -0.0036,0.01786 -0.0067,0.02584 -0.0031,0.008 -0.0069,0.01489 -0.0124,0.0217 -0.0055,0.0068 -0.01248,0.01337 -0.02119,0.01912 -0.0087,0.0058 -0.01944,0.01071 -0.03204,0.0155 -0.0126,0.0048 -0.02723,0.0095 -0.04444,0.01344 -0.01722,0.0039 -0.03689,0.0072 -0.05943,0.01034 -0.02254,0.0032 -0.04789,0.0063 -0.07648,0.0088 -0.02859,0.0025 -0.06025,0.0048 -0.0956,0.0067 -0.0707,0.0039 -0.155805,0.0065 -0.257865,0.0088 -0.102061,0.0023 -0.221029,0.0042 -0.360185,0.0057 -0.139156,0.0015 -0.2986,0.0026 -0.480591,0.0041 -0.184972,0.0015 -0.347033,0.003 -0.489892,0.0047 -0.142859,0.0017 -0.266425,0.0039 -0.374138,0.0067 -0.107713,0.0028 -0.199518,0.0061 -0.279052,0.01085 -0.03977,0.0024 -0.07656,0.0052 -0.110588,0.0083 -0.03403,0.0031 -0.06541,0.0065 -0.09457,0.01034 -0.02916,0.0039 -0.05597,0.0082 -0.08113,0.01292 -0.02517,0.0048 -0.04876,0.01024 -0.0708,0.01602 -0.02204,0.0058 -0.04274,0.01169 -0.06253,0.0186 -0.01978,0.0069 -0.03844,0.01457 -0.05684,0.02274 -0.0184,0.0082 -0.03637,0.01682 -0.05426,0.02635 -0.01789,0.0095 -0.03601,0.01999 -0.05426,0.03101 -0.03649,0.02203 -0.07416,0.04732 -0.117305,0.07596 -0.02939,0.01951 -0.05809,0.03942 -0.08527,0.06046 -0.02718,0.02104 -0.05305,0.04317 -0.07803,0.06563 -0.02498,0.02246 -0.04903,0.04549 -0.07183,0.06925 -0.0228,0.02376 -0.04448,0.04792 -0.06511,0.07286 -0.02063,0.02494 -0.03991,0.05047 -0.05839,0.07648 -0.01848,0.02601 -0.03584,0.05262 -0.05219,0.07958 -0.01635,0.02696 -0.03176,0.05437 -0.04599,0.08216 -0.01423,0.0278 -0.02766,0.05623 -0.03979,0.08475 -0.01213,0.02852 -0.02303,0.05718 -0.03307,0.0863 -0.01005,0.02912 -0.0189,0.05876 -0.02687,0.08837 -0.008,0.02961 -0.01527,0.05942 -0.02119,0.0894 -0.0059,0.02998 -0.01059,0.05969 -0.01447,0.08992 -0.0039,0.03023 -0.0069,0.06058 -0.0088,0.09095 -0.0019,0.03037 -0.0027,0.06108 -0.0026,0.09147 1.44e-4,0.03039 0.0015,0.06066 0.0036,0.09095 0.0021,0.0303 0.0052,0.06035 0.0093,0.09044 0.0041,0.03008 0.0094,0.06016 0.0155,0.08992 0.0061,0.02975 0.01266,0.05957 0.02067,0.08888 0.008,0.02931 0.01745,0.05806 0.02739,0.08681 0.0099,0.02875 0.02071,0.05719 0.03256,0.08527 0.01185,0.02808 0.0245,0.05591 0.03824,0.0832 0.01374,0.02728 0.0283,0.05424 0.04392,0.08062 0.01562,0.02637 0.03212,0.05217 0.04961,0.07752 0.01749,0.02535 0.03596,0.0502 0.05529,0.07441 0.01933,0.02421 0.03981,0.04784 0.06098,0.0708 0.02116,0.02295 0.04317,0.04509 0.06615,0.06666 0.02298,0.02158 0.04705,0.04244 0.07183,0.06253 0.02478,0.02009 0.05043,0.0394 0.077,0.05788 0.02656,0.01848 0.05383,0.03595 0.08217,0.05271 0.02833,0.01676 0.05777,0.03263 0.08785,0.04754 0.03008,0.01492 0.06068,0.0289 0.0925,0.04186 0.03182,0.01296 0.06464,0.02528 0.09818,0.03617 0.0082,0.0027 0.02795,0.0053 0.05891,0.0078 0.03096,0.0025 0.07333,0.0044 0.125573,0.0067 0.104483,0.0046 0.24966,0.0091 0.430465,0.01292 0.180805,0.0039 0.396958,0.0072 0.642338,0.01034 0.24538,0.0031 0.520348,0.0063 0.818555,0.0088 0.596415,0.0049 1.286409,0.0082 2.023649,0.01034 0.73724,0.0021 1.521716,0.0027 2.305802,0.0021 0.784086,-6.19e-4 1.567816,-0.0024 2.3047693,-0.0057 0.736954,-0.0033 1.426774,-0.0081 2.022616,-0.01395 0.297921,-0.0029 0.572499,-0.0058 0.817521,-0.0093 0.245022,-0.0035 0.460929,-0.0077 0.641304,-0.01189 0.180376,-0.0041 0.32545,-0.0087 0.429431,-0.01344 0.05199,-0.0024 0.09333,-0.0047 0.124024,-0.0072 0.03069,-0.0025 0.05047,-0.0051 0.05839,-0.0078 0.031,-0.01048 0.06139,-0.02187 0.09095,-0.03411 0.02956,-0.01223 0.0582,-0.02538 0.0863,-0.03927 0.0281,-0.0139 0.05554,-0.02846 0.08217,-0.04393 0.02663,-0.01547 0.05238,-0.03162 0.07752,-0.04857 0.02513,-0.01695 0.04976,-0.03488 0.07338,-0.05323 0.02362,-0.01834 0.04665,-0.03721 0.06873,-0.05685 0.02208,-0.01964 0.04303,-0.04013 0.06356,-0.06098 0.02053,-0.02085 0.04047,-0.04211 0.05943,-0.06408 0.01896,-0.02196 0.03689,-0.04419 0.05426,-0.06718 0.01737,-0.02299 0.03436,-0.04688 0.05013,-0.0708 0.01576,-0.02392 0.0303,-0.0481 0.04444,-0.07286 0.01414,-0.02476 0.02782,-0.04994 0.04031,-0.07545 0.01249,-0.02551 0.0238,-0.05134 0.03462,-0.07752 0.01083,-0.02617 0.02083,-0.05284 0.02997,-0.07958 0.0091,-0.02674 0.01737,-0.0534 0.02481,-0.08062 0.0074,-0.02722 0.01444,-0.05456 0.02015,-0.08217 0.0057,-0.0276 0.01049,-0.05582 0.01447,-0.08372 0.004,-0.0279 0.0071,-0.05561 0.0093,-0.08371 0.0022,-0.0281 0.0037,-0.05654 0.0041,-0.08475 4.36e-4,-0.02821 -1.89e-4,-0.056 -0.0015,-0.08423 -0.0014,-0.02823 -0.0035,-0.05659 -0.0067,-0.08475 -0.0032,-0.02816 -0.0074,-0.05624 -0.0124,-0.08423 -0.005,-0.028 -0.01122,-0.05597 -0.01809,-0.08372 -0.0069,-0.02774 -0.01451,-0.05528 -0.02325,-0.08268 -0.0087,-0.0274 -0.01831,-0.05469 -0.02894,-0.08165 -0.01063,-0.02696 -0.02208,-0.05366 -0.03462,-0.0801 -0.01254,-0.02643 -0.02635,-0.05273 -0.04082,-0.07855 -0.01447,-0.02582 -0.02957,-0.05138 -0.04599,-0.07648 -0.01642,-0.0251 -0.03432,-0.04959 -0.05271,-0.0739 -0.01839,-0.0243 -0.0375,-0.04842 -0.05788,-0.07183 -0.02038,-0.02341 -0.0417,-0.0463 -0.06408,-0.06873 -0.02238,-0.02243 -0.04587,-0.04428 -0.07028,-0.06563 -0.05211,-0.04558 -0.09472,-0.08494 -0.136425,-0.119372 -0.02086,-0.01722 -0.04147,-0.03332 -0.06305,-0.04806 -0.02158,-0.01474 -0.04421,-0.02836 -0.06873,-0.04082 -0.01226,-0.0062 -0.02483,-0.01187 -0.03824,-0.01757 -0.01341,-0.0057 -0.02753,-0.01134 -0.04237,-0.01654 -0.01484,-0.0052 -0.03048,-0.01027 -0.04703,-0.01499 -0.01655,-0.0047 -0.03366,-0.0092 -0.05219,-0.01344 -0.03706,-0.0085 -0.07841,-0.01637 -0.125057,-0.02326 -0.04665,-0.0069 -0.09864,-0.01265 -0.157097,-0.01809 -0.05846,-0.0054 -0.123371,-0.01027 -0.195853,-0.01447 -0.07248,-0.0042 -0.152605,-0.0077 -0.241329,-0.01085 -0.08873,-0.0032 -0.18634,-0.0059 -0.293522,-0.0083 -0.107183,-0.0023 -0.224059,-0.0045 -0.351917,-0.0062 -0.255716,-0.0034 -0.555205,-0.0056 -0.906921,-0.0078 -0.351716,-0.0022 -0.755665,-0.0042 -1.221114,-0.0067 -0.898767,-0.005 -1.5559833,-0.0078 -2.0360523,-0.0124 -0.240034,-0.0023 -0.435702,-0.0048 -0.595312,-0.0088 -0.07981,-0.002 -0.150693,-0.0046 -0.213424,-0.0072 -0.06273,-0.0026 -0.117171,-0.0054 -0.164848,-0.0088 -0.04768,-0.0034 -0.08835,-0.0071 -0.12299,-0.01137 -0.03464,-0.0043 -0.06318,-0.0092 -0.08682,-0.01447 -0.01182,-0.0027 -0.0226,-0.0053 -0.03204,-0.0083 -0.0094,-0.0029 -0.01748,-0.0061 -0.02481,-0.0093 -0.0073,-0.0033 -0.01367,-0.0068 -0.01912,-0.01034 -0.0055,-0.0036 -0.01012,-0.0069 -0.01395,-0.01085 -0.0038,-0.0039 -0.0068,-0.0081 -0.0093,-0.0124 -0.0025,-0.0043 -0.0043,-0.0088 -0.0057,-0.01344 -0.0027,-0.0093 -0.0038,-0.01956 -0.0036,-0.03049 4.13e-4,-0.02185 0.0047,-0.04679 0.0047,-0.07597 0,-0.0264 -0.0024,-0.04934 -10e-4,-0.06925 7.01e-4,-0.01 0.0022,-0.01939 0.0057,-0.02791 0.0018,-0.0043 0.0039,-0.008 0.0067,-0.01189 0.0028,-0.0039 0.0063,-0.0078 0.01034,-0.01137 0.004,-0.0036 0.0085,-0.007 0.01395,-0.01034 0.0054,-0.0033 0.01157,-0.0068 0.0186,-0.0098 0.01407,-0.006 0.03192,-0.01108 0.05374,-0.01602 0.02182,-0.0049 0.04786,-0.0094 0.07906,-0.01344 0.03121,-0.004 0.06732,-0.0077 0.109554,-0.01085 0.04224,-0.0032 0.0903,-0.0058 0.145211,-0.0083 0.05491,-0.0025 0.116807,-0.0048 0.186035,-0.0067 0.138457,-0.0038 0.307048,-0.0066 0.51263,-0.0088 0.205583,-0.0022 0.447953,-0.0035 0.733806,-0.0052 0.2858523,-0.0016 0.6155043,-0.0036 0.9947713,-0.0057 l 2.709912,-0.01447 0.19482,-0.0956 c 0.02549,-0.01255 0.05024,-0.02584 0.07441,-0.03979 0.02417,-0.01395 0.04795,-0.02865 0.0708,-0.04393 0.02284,-0.01528 0.04464,-0.03153 0.06615,-0.04806 0.02151,-0.01653 0.04237,-0.03346 0.06253,-0.05116 0.02016,-0.0177 0.03959,-0.03598 0.05839,-0.05478 0.01881,-0.0188 0.03734,-0.03806 0.05478,-0.05788 0.01744,-0.01982 0.03406,-0.04021 0.05013,-0.06098 0.01606,-0.02076 0.03131,-0.04193 0.04599,-0.06356 0.01468,-0.02163 0.02857,-0.04372 0.04186,-0.06615 0.01328,-0.02242 0.02584,-0.04507 0.03772,-0.06821 0.01188,-0.02314 0.02312,-0.04702 0.03359,-0.0708 0.01047,-0.02378 0.02041,-0.04749 0.02946,-0.07183 0.009,-0.02434 0.01719,-0.04907 0.0248,-0.0739 0.0076,-0.02483 0.0145,-0.04969 0.02067,-0.07493 0.0062,-0.02524 0.01182,-0.05091 0.01654,-0.07648 0.0047,-0.02557 0.0086,-0.05117 0.01189,-0.077 0.0033,-0.02583 0.006,-0.05202 0.0078,-0.07803 0.0018,-0.02602 0.0028,-0.05191 0.0031,-0.07803 3.03e-4,-0.02612 -3.63e-4,-0.0524 -0.0015,-0.07855 -0.0012,-0.02615 -0.003,-0.05245 -0.0057,-0.07855 -0.0027,-0.0261 -0.0061,-0.05205 -0.01034,-0.07803 -0.0042,-0.02598 -0.0093,-0.05173 -0.01499,-0.07752 -0.0057,-0.02578 -0.01187,-0.05149 -0.01912,-0.077 -0.0072,-0.0255 -0.01551,-0.05081 -0.02429,-0.07596 -0.0088,-0.02515 -0.01809,-0.05021 -0.02842,-0.07493 -0.01033,-0.02473 -0.0217,-0.04916 -0.03359,-0.07338 -0.01189,-0.02422 -0.02478,-0.04819 -0.03824,-0.07183 -0.01346,-0.02364 -0.02734,-0.04678 -0.04237,-0.06976 -0.01503,-0.02298 -0.03092,-0.04596 -0.04754,-0.06821 -0.01662,-0.02225 -0.03398,-0.04367 -0.05219,-0.06511 -0.01822,-0.02144 -0.03754,-0.04249 -0.05736,-0.06304 -0.01982,-0.02056 -0.04006,-0.04087 -0.0615,-0.06046 -0.04975,-0.04547 -0.09322,-0.08505 -0.134875,-0.119889 -0.02083,-0.01742 -0.04156,-0.03405 -0.06201,-0.04909 -0.02045,-0.01505 -0.04083,-0.02848 -0.06201,-0.04134 -0.02118,-0.01286 -0.04313,-0.0248 -0.06615,-0.03566 -0.02302,-0.01086 -0.04691,-0.02092 -0.07286,-0.02997 -0.02595,-0.009 -0.05373,-0.01738 -0.08372,-0.02481 -0.02999,-0.0074 -0.06254,-0.01365 -0.09767,-0.01964 -0.03513,-0.006 -0.07284,-0.01179 -0.114205,-0.01654 -0.04137,-0.0047 -0.08617,-0.0087 -0.134876,-0.0124 -0.04871,-0.0037 -0.10149,-0.007 -0.158646,-0.0098 -0.05716,-0.0028 -0.118814,-0.0051 -0.185519,-0.0072 -0.133409,-0.0043 -0.286874,-0.0072 -0.465088,-0.0098 -0.178214,-0.0026 -0.381045,-0.0052 -0.612882,-0.0078 l -1.576648,-0.01705 -0.07131,-0.0832 c -0.0099,-0.01155 -0.01859,-0.02298 -0.02584,-0.03411 -0.0072,-0.01113 -0.01302,-0.02222 -0.01757,-0.03307 -0.0045,-0.01086 -0.008,-0.02131 -0.0098,-0.03204 -0.0018,-0.01073 -0.0024,-0.02179 -0.0016,-0.03256 8.88e-4,-0.01076 0.0031,-0.02161 0.0067,-0.03256 0.0036,-0.01094 0.0086,-0.0218 0.01499,-0.03307 0.0064,-0.01127 0.01412,-0.02287 0.02325,-0.03462 0.0091,-0.01176 0.01962,-0.02378 0.03152,-0.03617 0.0067,-0.007 0.01335,-0.01315 0.0217,-0.0186 0.0084,-0.0055 0.01854,-0.01028 0.03204,-0.01447 0.0135,-0.0042 0.03059,-0.0077 0.05271,-0.01085 0.02212,-0.0032 0.0495,-0.0059 0.08372,-0.0083 0.03422,-0.0024 0.07527,-0.0043 0.125057,-0.0062 0.04979,-0.0019 0.108413,-0.0036 0.17725,-0.0052 0.137674,-0.0032 0.316669,-0.0058 0.551388,-0.0093 l 0.987536,-0.01499 0.1757,-0.08578 c 0.04055,-0.01979 0.07911,-0.0406 0.116272,-0.06253 0.03716,-0.02193 0.07265,-0.04483 0.106453,-0.06873 0.03381,-0.0239 0.06614,-0.04871 0.09663,-0.07441 0.03049,-0.0257 0.05907,-0.05224 0.0863,-0.07958 0.02723,-0.02734 0.053,-0.05542 0.077,-0.08423 0.024,-0.02881 0.04636,-0.05825 0.06718,-0.08837 0.02082,-0.03011 0.0402,-0.06074 0.05788,-0.09198 0.01767,-0.03125 0.03348,-0.06338 0.04806,-0.0956 0.01458,-0.03222 0.02775,-0.06465 0.03927,-0.09767 0.01152,-0.03302 0.02146,-0.06659 0.02997,-0.100252 0.0085,-0.03366 0.01565,-0.06768 0.02119,-0.101802 0.0055,-0.03413 0.0098,-0.06841 0.0124,-0.102837 0.0026,-0.03443 0.0034,-0.06879 0.0031,-0.103352 -2.75e-4,-0.03457 -0.0015,-0.06933 -0.0046,-0.10387 -0.0031,-0.03453 -0.008,-0.06902 -0.01395,-0.103353 -0.0059,-0.03434 -0.01303,-0.06835 -0.0217,-0.102319 -0.0087,-0.03397 -0.01858,-0.06784 -0.02997,-0.101286 -0.01139,-0.03344 -0.02418,-0.06647 -0.03824,-0.09922 -0.01406,-0.03274 -0.02982,-0.06527 -0.04651,-0.09715 -0.01669,-0.03188 -0.03446,-0.0632 -0.05374,-0.09405 -0.01928,-0.03085 -0.03967,-0.0613 -0.0615,-0.09095 -0.02182,-0.02965 -0.04492,-0.05853 -0.06925,-0.08682 -0.02433,-0.02829 -0.05021,-0.05593 -0.077,-0.08268 -0.02679,-0.02676 -0.05451,-0.05246 -0.08372,-0.07751 -0.0292,-0.02506 -0.05989,-0.04915 -0.09147,-0.07235 -0.03158,-0.02319 -0.06428,-0.0455 -0.09818,-0.06666 -0.03391,-0.02116 -0.06871,-0.0415 -0.104903,-0.06046 -0.0362,-0.01896 -0.07369,-0.03663 -0.112138,-0.05323 -0.03844,-0.0166 -0.07821,-0.03193 -0.118856,-0.04599 -0.04065,-0.01407 -0.08225,-0.02687 -0.125057,-0.03824 -0.04281,-0.01137 -0.08685,-0.02147 -0.131775,-0.02997 -0.04493,-0.0085 -0.09045,-0.0152 -0.137459,-0.02067 -0.02669,-0.0031 -0.05227,-0.0071 -0.07648,-0.01137 -0.02421,-0.0042 -0.04737,-0.0088 -0.06925,-0.01447 -0.02188,-0.0056 -0.04231,-0.01182 -0.06201,-0.01912 -0.0197,-0.0073 -0.03865,-0.01557 -0.05633,-0.02481 -0.01767,-0.0092 -0.03433,-0.01956 -0.05013,-0.03101 -0.0158,-0.01145 -0.03088,-0.02431 -0.04496,-0.03824 -0.01408,-0.01393 -0.02728,-0.0288 -0.03979,-0.04547 -0.01251,-0.01668 -0.02405,-0.03508 -0.03514,-0.05478 -0.01109,-0.01969 -0.0217,-0.0411 -0.03152,-0.06408 -0.0098,-0.02298 -0.01868,-0.04736 -0.02739,-0.0739 -0.0087,-0.02654 -0.01706,-0.0549 -0.02481,-0.08527 -0.0077,-0.03037 -0.01528,-0.06268 -0.02222,-0.09715 -0.0069,-0.03447 -0.01336,-0.07124 -0.01964,-0.110071 -0.0063,-0.03884 -0.01231,-0.08003 -0.01809,-0.123507 -0.01155,-0.08695 -0.02212,-0.1833 -0.03256,-0.290421 -0.0029,-0.02926 -0.0064,-0.05868 -0.01034,-0.08785 -0.0039,-0.02917 -0.008,-0.05828 -0.01292,-0.08733 -0.0049,-0.02906 -0.01059,-0.05789 -0.01654,-0.08682 -0.0059,-0.02893 -0.01217,-0.05803 -0.01912,-0.08682 -0.0069,-0.02879 -0.01428,-0.05716 -0.02222,-0.08578 -0.0079,-0.02862 -0.01639,-0.05734 -0.02532,-0.08578 -0.0089,-0.02844 -0.01852,-0.05702 -0.02842,-0.08527 -0.0099,-0.02825 -0.02015,-0.0562 -0.03101,-0.08423 -0.01086,-0.02804 -0.0223,-0.05591 -0.03411,-0.08372 -0.01181,-0.02781 -0.02395,-0.05564 -0.03669,-0.0832 -0.01274,-0.02756 -0.02613,-0.05487 -0.03979,-0.08216 -0.01366,-0.0273 -0.0278,-0.05464 -0.04237,-0.08165 -0.01458,-0.02701 -0.02948,-0.0539 -0.04496,-0.08061 -0.01547,-0.02671 -0.0317,-0.05318 -0.04806,-0.07958 -0.03272,-0.0528 -0.06715,-0.104626 -0.103352,-0.156063 -0.0362,-0.05144 -0.0741,-0.102507 -0.113689,-0.152445 -0.03958,-0.04994 -0.08064,-0.09897 -0.123506,-0.147278 -0.04287,-0.0483 -0.08727,-0.09558 -0.133326,-0.14211 -0.04606,-0.04653 -0.09399,-0.09232 -0.1431433,-0.136943 -0.04915,-0.04462 -0.09978,-0.08816 -0.151929,-0.130741 -0.05215,-0.04258 -0.105661,-0.08414 -0.160714,-0.12454 -0.05505,-0.0404 -0.11164,-0.07974 -0.169498,-0.117822 -0.05786,-0.03808 -0.117199,-0.07496 -0.177767,-0.110588 -0.03651,-0.02148 -0.07548,-0.04355 -0.116272,-0.06615 -0.04079,-0.0226 -0.08327,-0.04558 -0.126091,-0.06821 -0.08564,-0.04527 -0.172918,-0.0898 -0.253214,-0.128674 -0.04015,-0.01944 -0.07876,-0.03753 -0.114205,-0.05374 -0.03544,-0.01621 -0.06814,-0.03048 -0.09663,-0.04237 -0.02849,-0.01189 -0.05254,-0.02141 -0.07183,-0.02791 -0.01929,-0.0065 -0.03349,-0.0098 -0.04134,-0.0098 -0.0056,0 -0.01137,-6.95e-4 -0.01705,-0.0021 -0.0057,-0.0014 -0.01136,-0.0032 -0.01654,-0.0057 -0.0052,-0.0024 -0.0099,-0.0056 -0.01395,-0.0088 -0.0041,-0.0032 -0.0075,-0.0066 -0.0098,-0.01033 -0.0023,-0.0037 -0.0071,-0.0081 -0.01395,-0.0124 -0.0068,-0.0043 -0.01523,-0.0086 -0.02532,-0.01292 -0.0101,-0.0043 -0.02194,-0.0085 -0.03411,-0.0124 -0.01217,-0.0039 -0.0247,-0.0075 -0.03772,-0.01033 -0.02604,-0.0057 -0.05991,-0.01519 -0.09302,-0.02584 -0.03311,-0.01065 -0.06573,-0.02264 -0.08992,-0.03307 -0.02419,-0.01043 -0.06962,-0.02681 -0.123507,-0.04547 -0.05389,-0.01866 -0.116059,-0.03948 -0.173633,-0.05736 z" />
      <path
         id="path1073"
         style="fill:#7c4239;stroke-width:0.0292793"
         d="m 12.459327,12.542615 c 0.453623,0.05817 0.497915,0.0864 0.765542,0.113779 0.854203,0.152933 1.352218,0.877523 1.352159,1.69903 -0.0464,0.452727 -0.338647,0.685609 -0.617423,0.889526 0.05199,-0.0024 0.680804,-0.05661 0.711498,-0.05914 0.03069,-0.0025 0.05047,-0.0051 0.05839,-0.0078 0.031,-0.01048 0.06139,-0.02187 0.09095,-0.03411 0.02956,-0.01224 0.0582,-0.02538 0.0863,-0.03927 0.0281,-0.0139 0.05554,-0.02845 0.08217,-0.04392 0.02663,-0.01547 0.0529,-0.03162 0.07803,-0.04857 0.02513,-0.01695 0.04925,-0.03488 0.07286,-0.05323 0.02362,-0.01834 0.04665,-0.0372 0.06873,-0.05684 0.02208,-0.01964 0.04303,-0.04013 0.06356,-0.06098 0.02053,-0.02085 0.04047,-0.04212 0.05943,-0.06408 0.01896,-0.02196 0.0374,-0.04419 0.05478,-0.06718 0.01737,-0.02299 0.03385,-0.04688 0.04961,-0.0708 0.01576,-0.02392 0.03082,-0.0481 0.04496,-0.07286 0.01414,-0.02476 0.0273,-0.04993 0.03979,-0.07545 0.01249,-0.02551 0.02432,-0.05134 0.03514,-0.07752 0.01083,-0.02617 0.02032,-0.05284 0.02946,-0.07958 0.0091,-0.02674 0.01788,-0.0534 0.02532,-0.08061 0.0074,-0.02722 0.01392,-0.05508 0.01964,-0.08268 0.0057,-0.0276 0.0105,-0.0553 0.01447,-0.0832 0.004,-0.0279 0.0071,-0.05562 0.0093,-0.08371 0.0022,-0.0281 0.0037,-0.05654 0.0041,-0.08475 4.36e-4,-0.02821 -1.88e-4,-0.05652 -0.0016,-0.08475 -0.0014,-0.02823 -0.0035,-0.05607 -0.0067,-0.08423 -0.0032,-0.02816 -0.0074,-0.05624 -0.0124,-0.08423 -0.005,-0.028 -0.0107,-0.05597 -0.01757,-0.08372 -0.0069,-0.02774 -0.01503,-0.05528 -0.02377,-0.08268 -0.0087,-0.0274 -0.01831,-0.05469 -0.02894,-0.08165 -0.01063,-0.02696 -0.02208,-0.05366 -0.03462,-0.0801 -0.01254,-0.02643 -0.02635,-0.05273 -0.04083,-0.07855 -0.01447,-0.02582 -0.02957,-0.05138 -0.04599,-0.07648 -0.01642,-0.0251 -0.0338,-0.04959 -0.05219,-0.0739 -0.01839,-0.0243 -0.03802,-0.04842 -0.05839,-0.07183 -0.02038,-0.02341 -0.0417,-0.0463 -0.06408,-0.06873 -0.02238,-0.02243 -0.04587,-0.04428 -0.07028,-0.06563 -0.0521,-0.04558 -0.09472,-0.08494 -0.136426,-0.119373 -0.02085,-0.01722 -0.04147,-0.03332 -0.06305,-0.04806 -0.02158,-0.01474 -0.04369,-0.02836 -0.06821,-0.04082 -0.01226,-0.0062 -0.02534,-0.01238 -0.03876,-0.01809 -0.01341,-0.0057 -0.02753,-0.01082 -0.04237,-0.01602 -0.01484,-0.0052 -0.03048,-0.01026 -0.04702,-0.01499 -0.01655,-0.0047 -0.03367,-0.0092 -0.05219,-0.01344 -0.03706,-0.0085 -0.07841,-0.01637 -0.125056,-0.02325 -0.04665,-0.0069 -0.09864,-0.01265 -0.157097,-0.01809 -0.05846,-0.0054 -0.123371,-0.01027 -0.195853,-0.01447 -0.07248,-0.0042 -0.152605,-0.0082 -0.241329,-0.01137 -0.08873,-0.0032 -0.18634,-0.0054 -0.293523,-0.0078 -0.107182,-0.0023 -0.224058,-0.0045 -0.351916,-0.0062 -0.255716,-0.0034 -0.554689,-0.0056 -0.906405,-0.0078 -0.0064,-4e-5 -0.01579,3.9e-5 -0.02222,0 z"
         sodipodi:nodetypes="ccccscscsscssscssscccccsccssccsscsscscsscssccccsccsscc" />
      <path
         id="path1069"
         style="fill:#7c4239;stroke-width:0.0292793"
         d="m 10.775985,9.417539 c 0.270175,0.005 0.54056,0.0185 0.633037,0.03359 0.104673,0.01708 0.229709,0.03724 0.278019,0.04444 0.49087,0.07327 0.79921,0.217896 1.097091,0.515214 0.435127,0.434302 0.597066,1.142624 0.39119,1.711523 -0.08471,0.234076 0.12298,0.216291 -2.579688,0.218591 -2.6107061,0.0022 -2.5726591,-9.2e-5 -2.6778721,0.159681 -0.02797,0.04247 -0.03149,0.122167 -0.01809,0.19792 -3.73e-4,-0.02347 -0.0023,-0.04492 -0.001,-0.06304 7e-4,-0.01 0.0027,-0.01939 0.0062,-0.02791 0.0018,-0.0043 0.0039,-0.0085 0.0067,-0.0124 0.0028,-0.0039 0.0058,-0.0073 0.0098,-0.01085 0.004,-0.0036 0.0085,-0.007 0.01395,-0.01033 0.0054,-0.0033 0.01157,-0.0068 0.0186,-0.0098 0.01408,-0.006 0.03192,-0.01108 0.05374,-0.01602 0.02182,-0.0049 0.04786,-0.0094 0.07906,-0.01344 0.03121,-0.004 0.06732,-0.0077 0.109554,-0.01085 0.04224,-0.0032 0.0903,-0.0058 0.145211,-0.0083 0.05491,-0.0025 0.116806,-0.0048 0.186035,-0.0067 0.138456,-0.0038 0.307048,-0.0066 0.51263,-0.0088 0.205582,-0.0022 0.447953,-0.004 0.733805,-0.0057 0.2858531,-0.0016 0.6155041,-0.0031 0.9947721,-0.0052 l 2.709912,-0.01447 0.19482,-0.09612 c 0.02549,-0.01255 0.05024,-0.02584 0.07441,-0.03979 0.02417,-0.01395 0.04795,-0.02813 0.0708,-0.04341 0.02284,-0.01528 0.04515,-0.03153 0.06666,-0.04806 0.02151,-0.01653 0.04185,-0.03346 0.06201,-0.05116 0.02016,-0.0177 0.04011,-0.03598 0.05891,-0.05478 0.01881,-0.0188 0.03682,-0.03806 0.05426,-0.05788 0.01744,-0.01982 0.03406,-0.04021 0.05013,-0.06098 0.01606,-0.02076 0.03131,-0.04193 0.04599,-0.06356 0.01468,-0.02163 0.02857,-0.04372 0.04186,-0.06615 0.01328,-0.02242 0.02636,-0.04507 0.03824,-0.06821 0.01188,-0.02314 0.02261,-0.04702 0.03307,-0.0708 0.01047,-0.02378 0.02041,-0.04749 0.02945,-0.07183 0.009,-0.02434 0.01719,-0.04907 0.02481,-0.0739 0.0076,-0.02483 0.0145,-0.05021 0.02067,-0.07545 0.0062,-0.02524 0.01182,-0.05039 0.01654,-0.07596 0.0047,-0.02557 0.0086,-0.05117 0.01189,-0.077 0.0033,-0.02583 0.006,-0.05202 0.0078,-0.07803 0.0018,-0.02601 0.0028,-0.05191 0.0031,-0.07803 3.03e-4,-0.02612 -3.63e-4,-0.0524 -0.0016,-0.07855 -0.0012,-0.02615 -0.003,-0.05244 -0.0057,-0.07855 -0.0027,-0.0261 -0.0061,-0.05205 -0.01033,-0.07803 -0.0042,-0.02598 -0.0093,-0.05173 -0.01499,-0.07751 -0.0057,-0.02578 -0.01187,-0.05149 -0.01912,-0.077 -0.0072,-0.02551 -0.0155,-0.05081 -0.02429,-0.07597 -0.0088,-0.02515 -0.01809,-0.05021 -0.02842,-0.07493 -0.01033,-0.02473 -0.0217,-0.04916 -0.03359,-0.07338 -0.01189,-0.02422 -0.02427,-0.04819 -0.03772,-0.07183 -0.01346,-0.02364 -0.02786,-0.04678 -0.04289,-0.06976 -0.01503,-0.02298 -0.03092,-0.04596 -0.04754,-0.06821 -0.01662,-0.02225 -0.03398,-0.04419 -0.05219,-0.06563 -0.01822,-0.02144 -0.03754,-0.04249 -0.05736,-0.06305 -0.01982,-0.02056 -0.04006,-0.04035 -0.0615,-0.05994 -0.04975,-0.04547 -0.09322,-0.08556 -0.134875,-0.120406 -0.02083,-0.01742 -0.04156,-0.03353 -0.06201,-0.04858 -0.02045,-0.01505 -0.04083,-0.029 -0.06201,-0.04186 -0.02118,-0.01286 -0.04313,-0.02428 -0.06615,-0.03514 -0.02302,-0.01086 -0.04691,-0.02092 -0.07286,-0.02997 -0.02595,-0.009 -0.05373,-0.01738 -0.08372,-0.0248 -0.02999,-0.0074 -0.06254,-0.01417 -0.09767,-0.02015 -0.03513,-0.006 -0.07284,-0.01128 -0.114205,-0.01602 -0.04137,-0.0047 -0.08616,-0.0087 -0.134875,-0.0124 -0.04871,-0.0037 -0.10149,-0.007 -0.158647,-0.0098 -0.05716,-0.0028 -0.118814,-0.0051 -0.185518,-0.0072 -0.133409,-0.0043 -0.286874,-0.0072 -0.465088,-0.0098 -0.178214,-0.0026 -0.381045,-0.0052 -0.612882,-0.0078 z" />
      <path
         id="path1067"
         style="fill:#7c4239;stroke-width:0.0292793"
         d="m 7.6422458,2.125485 -0.112654,0.05839 c -0.01297,0.0067 -0.02517,0.01354 -0.03669,0.02067 -0.01152,0.0071 -0.02248,0.01459 -0.03256,0.02222 -0.01008,0.0076 -0.01926,0.01555 -0.02791,0.02377 -0.0086,0.0082 -0.01706,0.01643 -0.02429,0.02532 -0.0072,0.0089 -0.0133,0.01826 -0.01912,0.02791 -0.0058,0.0096 -0.01108,0.02 -0.0155,0.03049 -0.0044,0.01049 -0.0083,0.02115 -0.01137,0.03256 -0.003,0.01141 -0.0051,0.02324 -0.0067,0.03566 -0.0017,0.01241 -0.0028,0.02525 -0.0031,0.03876 -2.98e-4,0.0135 -2.2e-5,0.0277 0.001,0.04237 0.193876,0.04537 0.32588,0.09344 0.468949,0.180549 0.957874,0.573832 1.568519,1.276075 1.817976,2.090829 0.03945,0.128829 0.09068,0.293399 0.113689,0.365869 0.02301,0.07247 0.05043,0.289932 0.06098,0.483175 0.03132,0.573457 0.09729,0.652881 0.5942792,0.715201 1.126422,0.141242 1.766526,1.285855 1.296561,2.318722 -0.126338,0.160294 -0.300607,0.335683 -0.300607,0.335683 0.286059,0.0051 0.390865,0.0064 0.696429,-0.0025 l 0.1757,-0.08578 c 0.04055,-0.01979 0.07911,-0.0406 0.116272,-0.06253 0.03716,-0.02193 0.07265,-0.04483 0.106453,-0.06873 0.0338,-0.0239 0.06614,-0.04871 0.09663,-0.07441 0.03049,-0.0257 0.05959,-0.05224 0.08682,-0.07958 0.02722,-0.02734 0.05248,-0.05542 0.07648,-0.08423 0.024,-0.02881 0.04636,-0.05825 0.06718,-0.08837 0.02081,-0.03011 0.0402,-0.06125 0.05788,-0.0925 0.01768,-0.03125 0.034,-0.06287 0.04858,-0.09509 0.01458,-0.03222 0.02724,-0.06465 0.03876,-0.09767 0.01152,-0.03302 0.02146,-0.0666 0.02997,-0.100252 0.0085,-0.03366 0.01565,-0.06768 0.02119,-0.101803 0.0055,-0.03413 0.0098,-0.06841 0.0124,-0.102836 0.0026,-0.03443 0.0039,-0.06879 0.0036,-0.103353 -2.75e-4,-0.03457 -0.0021,-0.06934 -0.0052,-0.10387 -0.0031,-0.03454 -0.008,-0.06902 -0.01395,-0.103352 -0.0059,-0.03434 -0.01303,-0.06835 -0.0217,-0.10232 -0.0087,-0.03397 -0.01858,-0.06784 -0.02997,-0.101286 -0.01139,-0.03344 -0.02418,-0.06647 -0.03824,-0.09922 -0.01406,-0.03274 -0.0293,-0.06527 -0.04599,-0.09715 -0.01669,-0.03188 -0.03498,-0.0632 -0.05426,-0.09405 -0.01928,-0.03085 -0.03967,-0.0613 -0.06149,-0.09095 -0.02182,-0.02965 -0.04492,-0.05853 -0.06925,-0.08682 -0.02433,-0.02829 -0.05021,-0.05593 -0.077,-0.08268 -0.02679,-0.02676 -0.05451,-0.05246 -0.08372,-0.07751 -0.0292,-0.02506 -0.05989,-0.04916 -0.09147,-0.07235 -0.03158,-0.02319 -0.06428,-0.0455 -0.09819,-0.06666 -0.03391,-0.02116 -0.0687,-0.0415 -0.104903,-0.06046 -0.0362,-0.01896 -0.07369,-0.03663 -0.112138,-0.05323 -0.03844,-0.0166 -0.07769,-0.03193 -0.118339,-0.04599 -0.04065,-0.01407 -0.08276,-0.02687 -0.125574,-0.03824 -0.04281,-0.01137 -0.08633,-0.02147 -0.131258,-0.02997 -0.04493,-0.0085 -0.09097,-0.01572 -0.137976,-0.02119 -0.02669,-0.0031 -0.05227,-0.0066 -0.07648,-0.01085 -0.02421,-0.0042 -0.04737,-0.0088 -0.06925,-0.01447 -0.02188,-0.0056 -0.04231,-0.01234 -0.06201,-0.01964 -0.0197,-0.0073 -0.03865,-0.01556 -0.05633,-0.0248 -0.01767,-0.0092 -0.03433,-0.01904 -0.05013,-0.03049 -0.0158,-0.01145 -0.03036,-0.02431 -0.04444,-0.03824 -0.01408,-0.01393 -0.0278,-0.02932 -0.04031,-0.04599 -0.01251,-0.01667 -0.02405,-0.03457 -0.03514,-0.05426 -0.01109,-0.01969 -0.0217,-0.0411 -0.03152,-0.06408 -0.0098,-0.02298 -0.01868,-0.04736 -0.02739,-0.0739 -0.0087,-0.02654 -0.01706,-0.05541 -0.0248,-0.08578 -0.0077,-0.03037 -0.01528,-0.06269 -0.02222,-0.09715 -0.0069,-0.03447 -0.01336,-0.07072 -0.01964,-0.109554 -0.0063,-0.03883 -0.01231,-0.08003 -0.01809,-0.123507 -0.01154,-0.08695 -0.02212,-0.183299 -0.03256,-0.290421 -0.0028,-0.02926 -0.0064,-0.05868 -0.01033,-0.08785 -0.0039,-0.02917 -0.008,-0.05827 -0.01292,-0.08733 -0.0049,-0.02906 -0.01059,-0.05789 -0.01654,-0.08682 -0.0059,-0.02893 -0.01217,-0.05803 -0.01912,-0.08682 -0.0069,-0.02879 -0.01428,-0.05716 -0.02222,-0.08578 -0.0079,-0.02862 -0.01639,-0.05734 -0.02532,-0.08578 -0.0089,-0.02845 -0.01852,-0.05702 -0.02842,-0.08527 -0.0099,-0.02825 -0.02015,-0.0562 -0.03101,-0.08423 -0.01086,-0.02804 -0.0223,-0.05591 -0.03411,-0.08372 -0.01181,-0.02781 -0.02395,-0.05564 -0.03669,-0.0832 -0.01274,-0.02756 -0.02613,-0.05487 -0.03979,-0.08217 -0.01366,-0.02729 -0.0278,-0.05463 -0.04237,-0.08165 -0.01458,-0.02701 -0.02948,-0.0539 -0.04496,-0.08062 -0.01547,-0.02671 -0.0317,-0.05318 -0.04806,-0.07958 -0.03273,-0.0528 -0.06715,-0.105142 -0.103353,-0.156579 -0.0362,-0.05144 -0.0741,-0.101991 -0.113688,-0.151929 -0.03958,-0.04994 -0.08064,-0.09897 -0.123507,-0.147278 -0.04287,-0.0483 -0.08727,-0.09558 -0.133325,-0.14211 -0.04606,-0.04653 -0.09399,-0.09232 -0.1431432,-0.136942 -0.04915,-0.04462 -0.09978,-0.08816 -0.151929,-0.130742 -0.05215,-0.04258 -0.105661,-0.08414 -0.160714,-0.12454 -0.05505,-0.0404 -0.11164,-0.07974 -0.169499,-0.117822 -0.05786,-0.03808 -0.117198,-0.07496 -0.177766,-0.110588 -0.03651,-0.02148 -0.07548,-0.04406 -0.116272,-0.06666 -0.04079,-0.0226 -0.08327,-0.04506 -0.126091,-0.0677 -0.08564,-0.04527 -0.172918,-0.0898 -0.253214,-0.128675 -0.04015,-0.01944 -0.07876,-0.03753 -0.114206,-0.05374 -0.03544,-0.01621 -0.06763,-0.03048 -0.09612,-0.04237 -0.02849,-0.01189 -0.05305,-0.02141 -0.07235,-0.02791 -0.0096,-0.0032 -0.01788,-0.0055 -0.02481,-0.0072 -0.0069,-0.0017 -0.01261,-0.0026 -0.01654,-0.0026 -0.0056,0 -0.01137,-6.94e-4 -0.01705,-0.0021 -0.0057,-0.0014 -0.01136,-0.0038 -0.01654,-0.0062 -0.0052,-0.0024 -0.0099,-0.005 -0.01395,-0.0083 -0.0041,-0.0032 -0.0075,-0.0071 -0.0098,-0.01085 -0.0023,-0.0037 -0.0071,-0.0076 -0.01395,-0.01189 -0.0068,-0.0043 -0.01523,-0.0086 -0.02532,-0.01292 -0.01009,-0.0043 -0.02194,-0.0085 -0.03411,-0.0124 -0.01217,-0.0039 -0.0247,-0.0075 -0.03772,-0.01034 -0.02604,-0.0057 -0.05991,-0.01519 -0.09302,-0.02584 -0.03311,-0.01065 -0.06573,-0.02264 -0.08992,-0.03307 -0.02419,-0.01043 -0.06962,-0.02733 -0.123507,-0.04599 -0.05389,-0.01866 -0.11606,-0.03896 -0.173633,-0.05684 z"
         sodipodi:nodetypes="ccccccccccsccsscsccccsssssssssccscsccssssssscsssscsssccscsssscccccccccccccssssscscsccssssssscsssccsccccccscssscc" />
      <path
         style="fill:#0a0706;stroke-width:0.0292793"
         d="m 1.8683994,15.573443 c -0.05636,-0.03086 -0.137097,-0.05666 -0.17941,-0.05733 -0.04231,-6.64e-4 -0.09333,-0.02099 -0.113382,-0.04515 -0.02005,-0.02416 -0.05264,-0.04392 -0.07242,-0.04392 -0.117597,0 -0.74740298,-0.612611 -0.74740298,-0.726998 -0.3193249,-0.690341 -0.2470582,-1.195374 0.172687,-1.842304 0.27515098,-0.348092 0.76604898,-0.635722 1.14487998,-0.670816 0.317673,-0.02943 0.343924,-0.09306 0.135297,-0.327964 -0.8225001,-1.071535 -0.2205115,-2.569429 1.232048,-2.814793 0.28149,0 0.294504,-0.06114 0.07479,-0.351378 C 3.4074604,8.550096 3.2446424,8.220458 3.2443004,8.143754 3.1230872,7.793993 3.1788864,7.543311 3.2435004,7.194662 3.2443914,7.127012 3.3052704,6.990064 3.4411574,6.750056 3.991776,6.018461 4.6005135,5.947818 5.2941444,5.93597 5.8872557,5.92627 5.9922617,5.91777 6.0546007,5.8741 c 0.03978,-0.02786 0.101117,-0.05066 0.136306,-0.05066 0.204663,0 0.797139,-0.50002 0.937726,-0.791393 C 7.2981448,4.680726 7.2997068,4.672183 7.2996898,4.096595 7.2996778,3.701172 7.2891998,3.53593 7.2610198,3.486474 7.2397598,3.449174 7.2112298,3.35694 7.1976098,3.281519 7.1690898,3.123537 7.0987398,2.91557 7.0357937,2.803161 c -0.06392,-0.114151 -0.06002,-0.585782 0.0057,-0.691895 0.06633,-0.10705 0.1897701,-0.240524 0.2224411,-0.240524 0.01458,0 0.06,-0.02635 0.100949,-0.05856 0.101686,-0.07999 0.413342,-0.07999 0.578934,0 0.06441,0.03111 0.143176,0.05702 0.175025,0.05757 0.05317,9.12e-4 0.465474,0.153738 0.674074,0.249856 0.8005089,0.368855 1.1025999,0.571467 1.6122112,1.081315 0.327436,0.327587 0.407499,0.426864 0.556306,0.689814 0.340872,0.587438 0.413004,1.032121 0.510535,1.756864 0,0.223625 0.04949,0.267399 0.329684,0.291588 0.716166,0.08632 1.432129,0.620818 1.555583,1.338459 0.108666,0.352086 0.04689,0.546728 -0.01117,0.877925 -4.15e-4,0.111174 -0.216873,0.518839 -0.357609,0.673465 -0.120414,0.132297 -0.06445,0.19861 0.182418,0.216172 1.190784,0.150057 1.614007,1.005405 1.629959,1.665928 0.0413,0.249708 -0.176487,0.885682 -0.400226,1.168732 -0.174997,0.221389 -0.158574,0.277759 0.08712,0.299023 0.104673,0.0091 0.229843,0.03862 0.278153,0.0657 0.04831,0.02707 0.116705,0.04931 0.151988,0.04941 0.03528,8.3e-5 0.07159,0.01222 0.08068,0.02693 0.0091,0.01471 0.07761,0.05631 0.152263,0.09245 0.713308,0.502689 0.985419,1.222585 0.804351,1.930348 -0.01588,0.08857 -0.06252,0.220326 -0.103636,0.292792 -0.04112,0.07247 -0.08373,0.15152 -0.0947,0.175676 -0.284333,0.399615 -0.61875,0.629943 -1.034878,0.761264 -0.383134,0.130453 -12.6888556,0.09019 -12.8535936,0 z M 14.692714,15.180904 c 0.991943,-0.335338 1.252284,-1.592616 0.471253,-2.275843 -0.416845,-0.364646 -0.217253,-0.34608 -3.940845,-0.366594 -3.5950652,-0.01981 -3.3231952,-6.64e-4 -3.3231952,-0.23409 0,-0.211186 -0.165454,-0.198777 2.8686842,-0.215165 l 2.71031,-0.01464 0.194694,-0.09586 C 14.48924,11.57711 14.632766,10.438105 13.946752,9.811126 13.548714,9.447342 13.551034,9.447737 11.696339,9.427424 l -1.57633,-0.01727 -0.07169,-0.08339 c -0.07945,-0.09241 -0.07315,-0.168836 0.0221,-0.267965 0.0535,-0.05568 0.104798,-0.05928 1.043674,-0.0732 l 0.98741,-0.01464 0.175676,-0.08573 C 13.574914,8.251901 13.122886,6.481787 11.618715,6.306748 11.191668,6.257058 11.092086,6.080199 11.008612,5.223227 10.917402,4.286794 10.289069,3.394058 9.3199707,2.823986 9.0278688,2.652157 8.5629448,2.427058 8.5001478,2.427058 c -0.02225,0 -0.04798,-0.01216 -0.05716,-0.02703 -0.0092,-0.01486 -0.05932,-0.03639 -0.111408,-0.04783 -0.05209,-0.01144 -0.134284,-0.03787 -0.182659,-0.05874 -0.04838,-0.02086 -0.182167,-0.06719 -0.297314,-0.102953 l -0.209361,-0.06502 -0.112714,0.05826 c -0.207535,0.107279 -0.2284,0.263248 -0.08543,0.638566 0.750625,1.97044 -0.136952,3.481807 -2.0393024,3.472523 -0.429024,-0.0021 -0.576787,0.0082 -0.76753,0.05362 -1.306185,0.310854 -1.487537,1.95255 -0.281776,2.550791 l 0.17403,0.08635 h 1.1269873 c 1.328794,0 1.443888,0.02804 1.295226,0.315517 -0.06619,0.127988 -7.97e-4,0.123671 -1.8733523,0.123671 -1.656542,0 -1.740782,0.0026 -1.899503,0.05838 -1.086882,0.382009 -1.340986,1.624794 -0.478017,2.33791 0.300633,0.248428 0.315143,0.251667 1.20244,0.268375 0.913403,0.0172 0.951575,0.02689 0.951575,0.241598 0,0.193071 0.0066,0.192143 -1.449323,0.204145 -1.479778,0.0122 -1.500462,0.01493 -1.845642,0.244051 -0.94044998,0.624235 -0.74391998,2.063219 0.329384,2.41174 0.262613,0.08528 12.5499616,0.07559 12.8034116,-0.01009 z M 5.8533887,12.458406 c -0.2267283,-0.241341 -0.0093,-0.374542 0.5925,-0.362935 l 0.434474,0.0084 0.07059,0.08215 c 0.0865,0.100662 0.0889,0.164837 0.0099,0.265252 l -0.06068,0.07715 h -0.490519 c -0.479375,0 -0.492012,-0.0016 -0.556274,-0.06999 z M 7.9794728,9.366003 c -0.0583,-0.04586 -0.07955,-0.08881 -0.07955,-0.160798 0,-0.1964 0.08467,-0.2248 0.638503,-0.214163 0.578715,0.01112 0.7531059,0.137688 0.516407,0.374807 -0.0805,0.08064 -0.972875,0.08077 -1.075363,1.49e-4 z"
         id="path7057-4"
         sodipodi:nodetypes="csssccsccscccccsssccscscscsscccccsccsccccccscccccsssscssccssscscssscscccccccscssscsssscscccccsccscccscscc" />
    </g>
  </g>
</svg>
