<?xml version="1.0" encoding="UTF-8" standalone="no"?>
<!-- Created with Inkscape (http://www.inkscape.org/) -->

<svg
   width="64"
   height="64"
   viewBox="0 0 16.933333 16.933333"
   version="1.1"
   id="svg5"
   inkscape:version="1.1 (c68e22c387, 2021-05-23)"
   sodipodi:docname="star.svg"
   xmlns:inkscape="http://www.inkscape.org/namespaces/inkscape"
   xmlns:sodipodi="http://sodipodi.sourceforge.net/DTD/sodipodi-0.dtd"
   xmlns="http://www.w3.org/2000/svg"
   xmlns:svg="http://www.w3.org/2000/svg">
  <sodipodi:namedview
     id="namedview7"
     pagecolor="#ffffff"
     bordercolor="#666666"
     borderopacity="1.0"
     inkscape:pageshadow="2"
     inkscape:pageopacity="0.0"
     inkscape:pagecheckerboard="0"
     inkscape:document-units="px"
     showgrid="false"
     inkscape:zoom="9.2933783"
     inkscape:cx="34.755929"
     inkscape:cy="37.499819"
     inkscape:window-width="1600"
     inkscape:window-height="837"
     inkscape:window-x="-8"
     inkscape:window-y="-8"
     inkscape:window-maximized="1"
     inkscape:current-layer="layer1"
     units="px"
     width="64px" />
  <defs
     id="defs2" />
  <g
     inkscape:label="Слой 1"
     inkscape:groupmode="layer"
     id="layer1">
    <path
       id="path235"
       style="fill:#fddb62;stroke-width:0.111594"
       d="M 31.664062,5.9023438 C 31.557155,6.0298353 31.44234,6.2133126 31.314453,6.4570312 31.44234,6.2133126 31.557155,6.0298353 31.664062,5.9023438 Z m 3.142579,5.0898442 c 0.02384,0.02192 0.04812,0.04086 0.07422,0.06055 -0.02538,-0.01924 -0.05098,-0.03922 -0.07422,-0.06055 z m 0.203125,0.144531 c 0.02128,0.01171 0.04075,0.02504 0.0625,0.03516 -0.0216,-0.01017 -0.04136,-0.02344 -0.0625,-0.03516 z m 1.390625,2.416015 c -0.0397,0.04424 -0.07918,0.09641 -0.119141,0.164063 0.04013,-0.06794 0.07917,-0.11971 0.119141,-0.164063 z m 0.162108,1.728517 c -0.647238,0.704655 -1.367898,0.69431 -2.42799,2.068274 -0.923793,1.114461 -3.476227,4.575504 -4.387822,5.922978 -4.816577,7.324896 -7.94928,15.96845 -9.277598,23.785496 -0.285971,1.798504 -0.470682,2.787689 -0.404381,4.147589 -0.109291,0.808649 1.033851,3.342048 2.378651,3.919412 4.604677,-2.769692 9.012026,-5.58837 9.552735,-5.587891 0.712901,6.32e-4 10.172794,5.852161 15.283203,8.857422 0.869843,0.511076 1.684477,0.929688 1.810547,0.929688 0.126085,0 0.311808,-0.126226 0.412109,-0.279297 0.194759,-0.29726 0.169047,-0.652329 -0.125,-1.736328 -1.21965,-6.338926 -2.772685,-11.095089 -3.851562,-17.324219 0,-0.445799 0.328613,-0.813096 2.117187,-2.363281 4.418967,-4.115377 8.41797,-7.092295 12.351563,-10.953125 0.213808,-0.326313 0.125688,-0.805854 -0.166016,-0.898438 -5.678665,-0.542744 -11.672346,-1.320142 -17.607422,-1.677734 -0.880645,3.59e-4 -1.70266,-0.207733 -1.960937,-0.496094 -1.487994,-3.123614 -2.505169,-5.441287 -3.697267,-8.314452 z M 4.03125,25.888672 c -0.063164,0.04593 -0.1095083,0.09954 -0.1386719,0.166016 0.029516,-0.06597 0.075457,-0.120238 0.1386719,-0.166016 z m 13.498047,18.626953 c -0.03965,0.188979 -0.08983,0.354793 -0.142578,0.507813 0.0529,-0.153241 0.10288,-0.318242 0.142578,-0.507813 z m -0.183594,0.619141 c -0.04262,0.109729 -0.08779,0.207207 -0.136719,0.294922 0.04875,-0.08731 0.09425,-0.1857 0.136719,-0.294922 z m -0.185547,0.384765 c -0.064,0.100874 -0.133189,0.183627 -0.205078,0.248047 0.07234,-0.06447 0.140721,-0.146689 0.205078,-0.248047 z m -0.363281,0.359375 c -0.0097,0.0048 -0.01949,0.0075 -0.0293,0.01172 0.0099,-0.0042 0.01953,-0.0069 0.0293,-0.01172 z m -0.6875,2.31836 c 0.05374,0.02899 0.101427,0.07238 0.146484,0.121093 -0.04508,-0.04918 -0.09264,-0.092 -0.146484,-0.121093 z m 0.171875,0.142578 c 0.05178,0.0619 0.09708,0.137221 0.138672,0.228515 -0.0413,-0.09064 -0.08733,-0.166513 -0.138672,-0.228515 z m -0.423828,3.564453 c -0.444163,1.946084 -0.877382,3.851466 -1.304688,5.816406 0.42731,-1.964899 0.860517,-3.870288 1.304688,-5.816406 z m 6.121094,3.501953 c -0.816011,0.488632 -1.631571,0.971228 -2.433594,1.435547 0.813779,-0.470035 1.60613,-0.940202 2.433594,-1.435547 z m -3.152344,1.851562 c -0.246395,0.140542 -0.487098,0.274963 -0.728516,0.410157 0.2417,-0.135058 0.481801,-0.269755 0.728516,-0.410157 z m -4.345703,1.775391 c 0.04029,0.0846 0.09487,0.15367 0.160156,0.203125 -0.06545,-0.04922 -0.119694,-0.118692 -0.160156,-0.203125 z m 0.855469,0.130859 c -0.208074,0.09873 -0.367797,0.159671 -0.431641,0.160157 0.06313,0 0.224147,-0.06156 0.431641,-0.160157 z"
       transform="scale(0.26458333)"
       sodipodi:nodetypes="ccccccccccccccccccscsccccccccccccccccccccccccccccccccccccccccccccc" />
    <path
       id="path233"
       style="fill:#ffbf32;fill-opacity:1;stroke-width:0.0286277"
       d="M 8.4568489,1.5048181 C 8.3529206,1.5184431 8.243549,1.7729719 8.0248341,2.2820316 7.6199687,3.2181959 7.2061548,4.166911 6.8342091,5.0327682 6.3462584,6.1694394 6.3256426,6.2110086 6.2218432,6.2885053 6.1585519,6.3357588 6.0611802,6.3528932 5.7241992,6.3753217 4.2084008,6.5220554 2.6962454,6.6313246 1.2500538,6.7970014 1.072207,6.8175014 1.0168631,6.8561674 1.0159595,6.960299 c -6.297e-4,0.072462 0.1220087,0.1970122 0.6118489,0.6221841 0.9519649,0.8253365 1.7734569,1.5702767 2.7491862,2.4096721 0.220413,0.1892608 0.424915,0.3726138 0.4542359,0.4072108 0.070682,0.0834 0.067798,0.251417 -0.0093,0.572574 -0.1043891,0.434835 -0.1463052,0.61785 -0.1855212,0.805119 -0.066376,0.316968 -0.2079061,0.445848 -0.3560506,0.337964 -0.044463,0.207474 -0.08912,0.415136 -0.1353923,0.622701 0.094367,-0.01703 0.1552869,0.01805 0.1979208,0.111621 0.034721,0.0762 0.033691,0.08126 -0.1157552,0.735872 -0.140647,0.616929 -0.2770262,1.20897 -0.4113446,1.832964 -0.032572,0.155836 0.022175,0.276985 0.1255739,0.276985 0.033508,0 0.1707923,-0.06511 0.3048911,-0.144694 0.50772,-0.262876 1.1061477,-0.613085 1.6918863,-0.965316 -0.3567195,-0.151037 -0.5994694,-0.934479 -0.5705078,-1.148767 0.017076,-0.126341 0.043528,-0.333062 0.058394,-0.459403 0.014864,-0.12634 0.04554,-0.322835 0.06873,-0.436666 C 5.8462057,10.47206 6.7354608,8.1045944 8.0098468,6.166549 8.2510396,5.8100299 8.9565683,4.8640984 9.2009885,4.5692306 9.4814712,4.2057029 9.5025794,4.2296043 9.6738277,4.0431643 9.6465108,3.9773347 9.6208772,3.9172616 9.5926959,3.848861 9.5499459,3.7276813 9.5501639,3.7089638 9.5978659,3.6282027 9.6174209,3.5950972 9.6352759,3.5735493 9.6572939,3.5599897 9.5618294,3.3331301 9.4774643,3.1584405 9.3942581,2.9750126 9.3241229,2.9897949 9.2166322,2.9388973 9.1694655,2.8639083 9.1452868,2.8254622 9.0043816,2.5143846 8.8563078,2.1729944 8.6591557,1.7184548 8.5607773,1.4911931 8.4568489,1.5048181 Z" />
    <path
       style="fill:#18150f;stroke-width:0.0304633"
       d="M 3.6123545,16.001277 C 3.4007641,15.848002 3.3823924,15.799371 3.4016323,15.443483 c 0.00971,-0.179673 0.037264,-0.358844 0.065239,-0.424274 0.1384671,-0.621043 0.2763187,-1.265342 0.415044,-1.869341 0.034093,-0.115917 0.072085,-0.245029 0.084428,-0.286916 0.014961,-0.05077 0.05776,-0.08774 0.1284089,-0.110903 0.1249078,-0.04095 0.1997598,-0.01151 0.249769,0.09825 0.034721,0.0762 0.033881,0.08155 -0.1155656,0.736159 -0.1406468,0.616928 -0.2771354,1.209059 -0.4114538,1.833052 -0.032572,0.155837 0.022283,0.276533 0.1256824,0.276533 0.033508,0 0.1706412,-0.06512 0.3047399,-0.144702 1.5658535,-0.810733 4.0055631,-2.444868 4.2176591,-2.44468 0.188622,1.67e-4 2.6914458,1.548389 4.0435748,2.343531 0.230146,0.135222 0.445739,0.245858 0.479095,0.245858 0.03336,0 0.08236,-0.03314 0.108898,-0.07364 0.05153,-0.07865 0.04478,-0.17266 -0.03302,-0.459468 -0.322699,-1.677174 -0.733665,-2.935465 -1.019118,-4.583589 0,-0.117951 0.08707,-0.215114 0.560297,-0.6252675 C 13.774495,8.8652254 14.832687,8.0774114 15.87345,7.0559 15.93002,6.969563 15.90642,6.8426425 15.82924,6.8181464 14.32676,6.6745454 12.741015,6.4688358 11.170693,6.374223 10.937689,6.374318 10.720486,6.319369 10.65215,6.2430736 10.224282,5.3448897 9.9477812,4.708145 9.5940912,3.8496855 c -0.04275,-0.1211798 -0.0423,-0.1396116 0.0054,-0.2203727 0.04061,-0.068745 0.07407,-0.088132 0.152114,-0.088132 0.16632,0 0.218364,0.078454 0.4951118,0.746351 0.282841,0.5457319 0.407304,1.1629391 0.731771,1.5991041 0.07799,0.055538 0.146926,0.067028 0.479797,0.079977 1.313302,0.1429669 2.593257,0.2160778 3.882946,0.345008 0.312144,0.04551 0.653222,0.1113951 0.897738,0.2127154 0.243297,0.2376933 0.234864,0.5059352 0.10137,0.626746 -0.03351,0.030326 -0.06093,0.071879 -0.06093,0.09234 -1.144088,1.0869153 -2.34007,2.1351899 -3.54327,3.1644397 -0.253727,0.211858 -0.274287,0.250288 -0.222719,0.41629 0.331463,1.369607 0.674785,2.964304 0.977799,4.322571 0.02556,0.09161 0.04648,0.270201 0.04648,0.39686 0,0.261035 -0.02814,0.319501 -0.221049,0.459242 -0.271565,0.169399 -0.476955,0.122937 -0.741368,-0.01202 -0.08456,-0.05569 -0.173356,-0.110234 -0.197317,-0.121208 -1.253646,-0.703686 -2.5143378,-1.527253 -3.7879878,-2.242239 -0.133849,-0.07456 -0.153002,-0.07325 -0.297683,0.02036 -1.2409818,0.769822 -2.734968,1.600101 -3.9358121,2.34534 -0.2722071,0.156708 -0.5484704,0.148253 -0.7441502,0.0082 z M 4.2381747,12.078204 C 4.1435467,11.979434 4.1356522,11.911469 4.2007197,11.75574 4.2679547,11.439276 4.3413984,11.127354 4.4143117,10.820924 4.4710867,10.660007 4.4504587,10.621153 4.1950155,10.407862 3.1121058,9.3517422 1.7125461,8.4162967 0.6517451,7.2440853 0.5094441,7.0462085 0.5368001,6.8867114 0.5924451,6.6749331 0.7926301,6.3787924 1.0167941,6.3968659 1.2625181,6.3593666 2.6743621,6.2469179 4.0962391,6.0543823 5.4728676,5.9666116 5.8057377,5.9536626 5.8746692,5.9421726 5.9526646,5.8866346 6.1381837,5.6522543 6.228724,5.3567119 6.3483793,5.0738816 6.7431538,4.1385983 7.2672002,2.9477684 7.6772132,1.9875518 c 0.225156,-0.5274353 0.284583,-0.6496532 0.431257,-0.7464174 0.378718,-0.26061167 0.742818,-0.046363 0.966555,0.3411669 0.170461,0.3776873 0.338972,0.7622482 0.472001,1.1505733 0,0.074158 -0.08247,0.2195595 -0.136224,0.2401885 -0.06882,0.026408 -0.189105,-0.027965 -0.239654,-0.1083315 C 9.1469682,2.8262856 9.0060292,2.5155102 8.8579552,2.17412 8.4636512,1.2650408 8.4638052,1.2650206 8.0263752,2.28314 7.6215102,3.2193043 7.2075712,4.1680253 6.8356254,5.0338823 6.347675,6.1705536 6.3274011,6.212154 6.2236017,6.2896507 6.1603107,6.3369047 6.0628329,6.3538747 5.7258519,6.3763027 4.2100536,6.5230363 2.6976651,6.6325057 1.2514731,6.7981825 c -0.177847,0.020501 -0.232803,0.058819 -0.233706,0.162951 -6.31e-4,0.072462 0.12201,0.1972127 0.61185,0.6223848 0.951965,0.8253363 1.7734213,1.5702696 2.7491506,2.4096651 0.220413,0.1892606 0.4247407,0.3724176 0.4540616,0.4070136 0.070682,0.0834 0.06801,0.251886 -0.00909,0.573043 -0.1043863,0.434835 -0.1465292,0.617405 -0.1857452,0.804674 -0.072924,0.348235 -0.2363203,0.470954 -0.3998269,0.30029 z"
       id="path231"
       sodipodi:nodetypes="ccccsssccscscsccccccccccscccccsccccsccccccccccccccccccccccsssccscccccscscc" />
  </g>
</svg>
