<?xml version="1.0" encoding="UTF-8" standalone="no"?>
<!-- Created with Inkscape (http://www.inkscape.org/) -->

<svg
   width="100"
   height="64"
   viewBox="0 0 26.458333 16.933333"
   version="1.1"
   id="svg5"
   inkscape:version="1.1 (c68e22c387, 2021-05-23)"
   sodipodi:docname="verdict_free.svg"
   xmlns:inkscape="http://www.inkscape.org/namespaces/inkscape"
   xmlns:sodipodi="http://sodipodi.sourceforge.net/DTD/sodipodi-0.dtd"
   xmlns="http://www.w3.org/2000/svg"
   xmlns:svg="http://www.w3.org/2000/svg">
  <sodipodi:namedview
     id="namedview7"
     pagecolor="#ffffff"
     bordercolor="#666666"
     borderopacity="1.0"
     inkscape:pageshadow="2"
     inkscape:pageopacity="0.0"
     inkscape:pagecheckerboard="0"
     inkscape:document-units="px"
     showgrid="false"
     inkscape:zoom="5.6568542"
     inkscape:cx="17.589281"
     inkscape:cy="34.736621"
     inkscape:window-width="1600"
     inkscape:window-height="837"
     inkscape:window-x="-8"
     inkscape:window-y="-8"
     inkscape:window-maximized="1"
     inkscape:current-layer="layer1"
     units="px"
     width="100px" />
  <defs
     id="defs2">
    <filter
       style="color-interpolation-filters:sRGB"
       inkscape:label="Lightness-Contrast"
       id="filter1643"
       x="0"
       y="0"
       width="1"
       height="1">
      <feColorMatrix
         values="0.21 0.72 0.072 0 0 0.21 0.72 0.072 0 0 0.21 0.72 0.072 0 0 0 0 0 1 0 "
         id="feColorMatrix1641"
         result="fbSourceGraphic" />
      <feColorMatrix
         result="fbSourceGraphicAlpha"
         in="fbSourceGraphic"
         values="0 0 0 -1 0 0 0 0 -1 0 0 0 0 -1 0 0 0 0 1 0"
         id="feColorMatrix1693" />
      <feColorMatrix
         id="feColorMatrix1695"
         values="1 0 0 0.257669 -0 0 1 0 0.257669 -0 0 0 1 0.257669 -0 0 0 0 1 0"
         in="fbSourceGraphic" />
    </filter>
    <filter
       style="color-interpolation-filters:sRGB"
       inkscape:label="Lightness-Contrast"
       id="filter1647"
       x="0"
       y="0"
       width="1"
       height="1">
      <feColorMatrix
         values="0.21 0.72 0.072 0 0 0.21 0.72 0.072 0 0 0.21 0.72 0.072 0 0 0 0 0 1 0 "
         id="feColorMatrix1645"
         result="fbSourceGraphic" />
      <feColorMatrix
         result="fbSourceGraphicAlpha"
         in="fbSourceGraphic"
         values="0 0 0 -1 0 0 0 0 -1 0 0 0 0 -1 0 0 0 0 1 0"
         id="feColorMatrix1697" />
      <feColorMatrix
         id="feColorMatrix1699"
         values="1 0 0 0.257669 -0 0 1 0 0.257669 -0 0 0 1 0.257669 -0 0 0 0 1 0"
         in="fbSourceGraphic" />
    </filter>
    <pattern
       id="EMFhbasepattern"
       patternUnits="userSpaceOnUse"
       width="6"
       height="6"
       x="0"
       y="0" />
    <pattern
       id="EMFhbasepattern-4"
       patternUnits="userSpaceOnUse"
       width="6"
       height="6"
       x="0"
       y="0" />
    <pattern
       id="EMFhbasepattern-0"
       patternUnits="userSpaceOnUse"
       width="6"
       height="6"
       x="0"
       y="0" />
    <pattern
       id="EMFhbasepattern-6"
       patternUnits="userSpaceOnUse"
       width="6"
       height="6"
       x="0"
       y="0" />
  </defs>
  <g
     inkscape:label="Слой 1"
     inkscape:groupmode="layer"
     id="layer1">
    <path
       id="path2214"
       style="fill:#f3cf1c;stroke-width:1.33222"
       d="M -603.96289 1145.3027 L -603.96289 1145.3008 C -604.08122 1145.2909 -604.47113 1145.2662 -604.5957 1145.2559 C -604.33622 1145.2749 -604.22444 1145.2836 -603.96289 1145.3027 z "
       transform="scale(0.26458333)" />
    <path
       id="path2212"
       style="fill:#f3cf1c;stroke-width:1.33222"
       d="M -507.3418 1143.4258 C -515.6984 1144.0304 -524.35148 1144.6595 -530.34375 1145.1465 C -522.15924 1144.8352 -515.61319 1144.4476 -512.49609 1143.998 C -511.41727 1143.8425 -509.02432 1143.617 -507.3418 1143.4258 z "
       transform="scale(0.26458333)" />
    <path
       id="path3575"
       style="fill:#67d8f0;stroke-width:0.0264642"
       d="m 8.1296769,5.4568857 c 0.00709,0.00524 0.013392,0.0095 0.020649,0.014951 0.030395,0.022847 0.062106,0.047474 0.094446,0.073283 1.483417,1.7787234 0.7248732,5.4797843 -0.2121194,6.1778953 -0.00432,0.0029 -0.00771,0.0049 -0.011769,0.0075 -0.00161,0.0023 -0.00223,0.0038 -0.00113,0.0038 0.00264,0 0.013985,-0.0038 0.032208,-0.01068 0.295044,-0.1152 0.5838002,-0.247446 0.8576477,-0.39743 0.8161243,-0.451977 1.5484858,-1.050035 2.1427998,-1.7578535 0.03142,-0.037471 0.06554,-0.080025 0.101189,-0.1259718 0.03565,-0.045946 0.07282,-0.095261 0.110362,-0.146242 0.03755,-0.050981 0.07547,-0.1036228 0.112583,-0.1561977 0.03711,-0.052574 0.07342,-0.1051097 0.107766,-0.1558382 0.03435,-0.050728 0.06674,-0.099652 0.096,-0.1450922 0.02926,-0.045441 0.0554,-0.08739 0.07723,-0.1241027 0.02183,-0.036714 0.03935,-0.068218 0.05143,-0.092763 0.006,-0.012273 0.01074,-0.022791 0.0139,-0.031376 0.0032,-0.00859 0.0048,-0.015228 0.0048,-0.019696 0,-0.00373 -0.0013,-0.00914 -0.0038,-0.016101 -0.0025,-0.00696 -0.0061,-0.015471 -0.01081,-0.025374 -0.0095,-0.019806 -0.02329,-0.045195 -0.04063,-0.074972 -0.01734,-0.029777 -0.03819,-0.063949 -0.06182,-0.1013165 -0.02363,-0.037368 -0.05003,-0.077931 -0.07836,-0.1205087 -0.02834,-0.042577 -0.05863,-0.087179 -0.09009,-0.1325848 -0.03146,-0.045406 -0.06409,-0.09162 -0.09708,-0.1374726 -0.033,-0.045854 -0.06636,-0.091323 -0.09931,-0.1352444 -0.03295,-0.04392 -0.06547,-0.086293 -0.09679,-0.1258998 -0.02478,-0.031333 -0.05399,-0.066483 -0.0867,-0.1045151 C 10.155603,6.6174541 9.32945,5.9630663 8.1895927,5.4810737 8.1670962,5.4715754 8.1490798,5.464601 8.1297419,5.4568857 Z"
       sodipodi:nodetypes="cscccscccsssssssssssssssssscccc" />
    <path
       id="path3307-2"
       style="fill:#ee9e90;stroke-width:0.0236332"
       d="M 6.3237794,4.0068498 C 5.9356645,4.0060854 5.5455175,4.028069 5.4564728,4.073339 5.4213748,4.091184 5.3539053,4.105769 5.3065174,4.105769 5.2591294,4.105769 5.1655188,4.12054 5.0985268,4.138581 5.0315348,4.156621 4.912916,4.185142 4.8349255,4.201952 4.6193156,4.2484232 4.0577317,4.4625735 3.7257438,4.6249334 3.396511,4.7859457 2.8717355,5.121583 2.5353835,5.3862503 2.1246106,5.7094777 1.4573763,6.395891 1.2185928,6.740876 0.93616787,7.1489121 0.65731594,7.5729034 0.63668068,7.6257128 0.62428826,7.6574351 0.56747877,7.7584692 0.51042388,7.8502314 0.36108056,8.090429 0.15916181,8.5451912 0.15826471,8.6433557 c -0.001334,0.1456503 0.44962302,0.9942961 0.80372523,1.5125173 0.56682766,0.82954 1.30547316,1.56944 2.05548446,2.059051 0.2745407,0.179225 0.6454015,0.385943 0.8603041,0.479492 0.1104865,0.04809 0.2274692,0.101494 0.2599625,0.118668 0.1678391,0.08871 0.9712787,0.320562 1.1108103,0.320562 0.035716,0 0.1101473,0.01595 0.16541,0.03544 0.055261,0.0195 0.1868611,0.03651 0.2924619,0.0378 0.1056014,0.0013 0.2185975,0.01143 0.2510935,0.02252 0.1160247,0.03961 1.1559381,-0.01577 1.2836337,-0.06836 0.03659,-0.01507 0.096404,-0.02741 0.1329073,-0.02741 0.1501894,0 0.9476866,-0.232054 1.1299014,-0.328774 0.081569,-0.04329 0.3577422,-0.167521 0.372429,-0.167521 0.026498,0 0.5608015,-0.31051 0.7560858,-0.439403 1.1162521,-0.736766 2.1557271,-1.990574 2.7452181,-3.3112267 L 12.487699,8.6402708 12.432436,8.5059066 C 12.253661,8.0712721 11.759559,7.213194 11.497741,6.8826557 11.456556,6.8306622 11.408187,6.7594603 11.390263,6.7244192 11.285456,6.5195242 10.508397,5.7283496 10.034216,5.3437368 9.895209,5.2309867 9.5281236,4.9802117 9.5020937,4.9802117 c -0.00993,0 -0.081364,-0.046626 -0.1587561,-0.1035967 C 9.2659465,4.8196425 9.1778498,4.7651636 9.1475765,4.7555564 9.1173058,4.7459484 8.9960038,4.6853052 8.8780167,4.6208087 8.6423823,4.4920047 8.0724926,4.2731162 7.8127003,4.2116187 7.7217132,4.1900803 7.5994143,4.1574 7.5409225,4.1389967 7.4824315,4.1205935 7.3886821,4.1055983 7.332584,4.1056653 7.2764879,4.1057297 7.207347,4.0926856 7.1789563,4.0767001 7.0979587,4.0310969 6.7118915,4.0076115 6.3237794,4.0068498 Z M 6.435692,5.1132255 c 0.045812,2.682e-4 0.091255,0.00118 0.1361644,0.0027 0.044911,0.00152 0.089305,0.00367 0.1330474,0.00644 0.043743,0.00278 0.086823,0.0062 0.1291331,0.010256 0.042311,0.00406 0.083843,0.00874 0.1244559,0.014101 0.049659,0.00656 0.1017938,0.014612 0.15543,0.023908 1.0832784,0.1785092 2.1533599,0.8432947 2.9202932,1.6158716 0.247499,0.2518243 0.645368,0.7289436 0.809339,0.9705901 0.207273,0.3054598 0.478694,0.7807171 0.478694,0.8382011 0,0.068917 -0.350664,0.6724211 -0.558627,0.961408 C 8.4892729,12.337161 5.4139613,13.169091 2.066666,9.8131411 1.8094933,9.4973338 1.3016823,8.6822178 1.3018848,8.5856022 1.3020188,8.5277675 1.6312222,7.9718619 1.8381629,7.6800121 2.8080738,6.4863443 4.0747679,5.391647 5.5980433,5.1710233 c 0.091338,-0.013138 0.1843228,-0.024153 0.2778764,-0.032914 0.093552,-0.00876 0.1876912,-0.015285 0.2813394,-0.019473 0.093649,-0.00419 0.1868042,-0.00602 0.2784315,-0.00544 z"
       sodipodi:nodetypes="ssssssssssssssssssssssssscssssssssssssscssssccsscccccsscc" />
    <path
       style="fill:#ed7869;stroke-width:0.0237169"
       d="m 5.7207486,13.158019 c -0.1340712,-0.0092 -0.2442962,-0.02872 -0.2668732,-0.04733 -0.021156,-0.01744 -0.1058039,-0.03685 -0.1881096,-0.04313 -0.082305,-0.0063 -0.2139089,-0.03097 -0.2924512,-0.05485 C 4.8947706,12.988829 4.7287582,12.939999 4.6043982,12.9042 4.3730536,12.83761 4.2935089,12.80586 3.9343459,12.636725 c -0.113263,-0.05334 -0.2161952,-0.09697 -0.2287385,-0.09697 -0.012543,0 -0.063269,-0.02726 -0.1127225,-0.06059 C 3.5434298,12.44583 3.4464521,12.38862 3.3773789,12.35202 3.1433792,12.228031 2.6883159,11.910917 2.4623056,11.714346 2.1973265,11.483881 2.0326024,11.331492 1.9239289,11.216285 1.6222137,10.89643 1.2960556,10.523022 1.2960556,10.497453 c 0,-0.01539 -0.05417,-0.09473 -0.1203767,-0.176315 C 1.1094707,10.239556 1.0134497,10.104911 0.96229836,10.02193 0.91114769,9.9389473 0.8295138,9.8148535 0.78089016,9.7461651 0.7028916,9.6359777 0.46304063,9.183302 0.29888714,8.8364697 0.20745558,8.6432906 0.21147576,8.6410083 0.65268094,8.6355426 c 0.20986054,-0.0026 0.42079926,-0.00526 0.46875306,-0.00591 0.086109,-0.00117 0.08923,0.00219 0.2517325,0.2705997 0.3750278,0.6194521 0.7110211,1.0686909 1.139272,1.5232637 0.2505913,0.265994 0.8325456,0.731073 1.1957972,0.955642 0.2302236,0.142328 0.8562664,0.451608 0.914146,0.451608 0.026623,0 0.1164739,0.02064 0.1996687,0.04586 0.2110043,0.06397 0.5978392,0.156408 0.781991,0.186866 0.2079101,0.03439 0.4713364,0.05134 0.7497324,0.0288 0.6689226,-0.02533 1.5382398,-0.155246 2.0825892,-0.39729 1.1528042,-0.537882 2.241634,-1.587352 2.937271,-2.8310915 0.135913,-0.2429989 0.183444,-0.2879885 0.265184,-0.2510077 0.03809,0.017233 0.206626,0.027383 0.454704,0.027383 h 0.394177 l -0.01603,0.064991 c -0.0088,0.035745 -0.04083,0.1181655 -0.07114,0.1831568 -0.03031,0.064991 -0.06306,0.1447533 -0.07277,0.1772486 -0.0097,0.032496 -0.02604,0.069718 -0.03629,0.082717 -0.01025,0.012998 -0.06069,0.1033949 -0.112076,0.2008815 -0.120363,0.2283315 -0.18656,0.338637 -0.290756,0.4844999 -0.04643,0.065002 -0.103817,0.1561467 -0.12752,0.2025434 -0.0237,0.0464 -0.104031,0.159903 -0.178507,0.252238 -0.07448,0.09233 -0.160363,0.209185 -0.190858,0.259668 -0.0305,0.05048 -0.09017,0.128395 -0.132621,0.173139 -0.04245,0.04474 -0.165603,0.182384 -0.273681,0.305867 -0.108079,0.123484 -0.225122,0.249737 -0.260096,0.280565 -0.03497,0.03083 -0.129456,0.115906 -0.209959,0.189065 -0.212433,0.193055 -0.7076216,0.593863 -0.7337018,0.593863 -0.0066,0 -0.079051,0.04523 -0.1609922,0.100503 -0.081944,0.05528 -0.1757648,0.114197 -0.2084907,0.130933 -0.032727,0.01674 -0.1130552,0.06192 -0.1785084,0.100415 -0.065452,0.03849 -0.1414713,0.07972 -0.1689293,0.09163 -0.027459,0.0119 -0.1452729,0.06587 -0.2618111,0.119923 -0.1165383,0.05405 -0.2654397,0.123002 -0.3308923,0.153218 -0.065452,0.03022 -0.2207538,0.08306 -0.3451145,0.117424 -0.1243607,0.03437 -0.2903727,0.08238 -0.3689164,0.106689 -0.078543,0.02431 -0.20801,0.04926 -0.2877029,0.05544 -0.079694,0.0062 -0.1792975,0.0289 -0.2213404,0.05049 -0.063965,0.03285 -0.1762972,0.04064 -0.6881384,0.04776 -0.3364332,0.0047 -0.7144801,0.0015 -0.840104,-0.0071 z"
       id="path1958"
       sodipodi:nodetypes="ssssssssssssssssssssssssccssscsssssssssssssssssssssssssss" />
    <path
       style="fill:#426fd8;stroke-width:0.0236332"
       d="M 6.1431637,12.01867 C 5.6538075,11.995094 5.0047023,11.875919 4.7461142,11.758314 4.5298144,11.659942 3.960762,11.080162 3.7397333,10.746431 3.2918556,10.07018 3.0842069,9.3782243 3.0831013,8.558303 3.0817402,7.5512209 3.4593299,6.6036952 4.1312495,5.9280511 4.5082854,5.548926 4.6940047,5.3977094 4.8488379,5.3437783 5.4246795,5.1432011 6.3087164,5.0603986 6.9585083,5.1461801 7.3557878,5.1986254 7.9113603,5.3470643 8.1279095,5.4586222 8.2329457,5.512733 8.5237448,5.7831939 8.6931669,5.9843477 9.8686567,7.3799939 9.9265008,9.504223 8.829277,10.982763 8.6796427,11.184399 8.2627879,11.60403 8.1581165,11.658394 c -0.2742163,0.142419 -0.8158958,0.286065 -1.2823243,0.340054 -0.290372,0.03361 -0.3948638,0.0365 -0.7326285,0.02022 z M 7.4984338,8.5458992 C 7.9105517,8.4283968 8.1984785,8.1235391 8.2833199,7.7148614 8.3256793,7.5108179 8.3013933,7.1595197 8.2339393,7.0005738 8.1199456,6.73196 7.9329918,6.5209885 7.7039335,6.4024777 7.5724101,6.3344297 7.5425223,6.3285436 7.3248225,6.3278175 7.0470635,6.3268922 6.9347948,6.3671255 6.7564601,6.5315083 6.5791566,6.694941 6.4919463,6.8533063 6.424015,7.1351948 6.360131,7.4002865 6.360847,7.471986 6.430435,7.7778869 c 0.086924,0.3821295 0.3334831,0.6576485 0.6802556,0.7601557 0.181608,0.053684 0.2240029,0.054543 0.3877474,0.00786 z"
       id="path1956-7-9"
       sodipodi:nodetypes="ssssssssssssssssssssssss" />
    <path
       style="fill:#093599;stroke-width:0.0236332"
       d="M 6.417575,12.024367 C 6.407845,11.869852 6.384367,11.249394 6.384545,11.140246 L 6.386285,10.34911 6.332553,10.31556 C 6.3030033,10.297111 6.2096964,10.27535 6.1252083,10.267204 6.0093399,10.256034 5.9164239,10.225148 5.7470776,10.141512 5.5608151,10.049522 5.4883359,9.9962006 5.3216802,9.8285539 4.9948878,9.4998199 4.8342577,9.1432845 4.8090156,8.690641 4.7868269,8.2927486 4.8546476,8.015186 5.0588004,7.6683762 5.1854561,7.4532169 5.455211,7.1819621 5.652545,7.07133 5.790102,6.9942104 6.0501733,6.8969371 6.1193939,6.8967158 6.1420889,6.896642 6.2002414,6.8855907 6.2486209,6.8721544 6.3796991,6.8357505 6.3880553,6.7778703 6.3837817,5.9359077 6.3808048,5.3498776 6.386182,5.2091454 6.4121837,5.1926716 6.4598318,5.1624808 6.651086,5.1673388 6.9459549,5.20623 7.2415272,5.2452141 7.3325431,5.2649485 7.6849973,5.366473 8.003591,5.4582442 8.0823848,5.4989622 8.3067464,5.6877726 8.746913,6.0581928 9.1179032,6.6353427 9.3357223,7.2885492 9.5167389,7.8313926 9.601402,8.5750991 9.5307546,9.0017677 9.5190601,9.072395 9.4969605,9.209944 9.4816448,9.3074306 9.4015336,9.8173482 9.1699536,10.393503 8.8594512,10.855403 8.7181288,11.065634 8.2944049,11.511101 8.1058086,11.647719 7.9407151,11.767312 7.3398171,11.947415 6.868712,11.999091 c -0.1513132,0.01483 -0.3137744,0.04452 -0.451137,0.02528 z M 7.5799698,8.5741229 C 7.8124643,8.494772 7.9472784,8.4073827 8.0670765,8.2583693 8.2185532,8.0699512 8.2943902,7.9063268 8.338712,7.6722925 8.4120904,7.2848334 8.2988167,6.9076719 8.0193445,6.6089156 7.5622672,6.1202979 6.9478826,6.1581944 6.5478641,6.6996795 6.4311247,6.8577038 6.3377353,7.1904993 6.3382583,7.446614 c 0.0016,0.7817749 0.6171162,1.3406843 1.2417115,1.1275089 z"
       id="path1954"
       sodipodi:nodetypes="cccsssssssssssssssssssccsssssss" />
    <path
       style="fill:#061f5a;stroke-width:0.0236332"
       d="M 6.2044017,10.20172 C 5.8615728,10.151777 5.6091169,10.023224 5.3512274,9.7672729 5.0252712,9.4437672 4.8662797,9.0498126 4.8614006,8.5535606 4.8584304,8.2515557 4.9139707,8.0262313 5.062903,7.7360557 5.1924659,7.4836185 5.4767802,7.1950078 5.7131675,7.0759651 5.878267,6.9928223 6.2050172,6.8957405 6.3197518,6.8957405 c 0.074058,0 0.078008,0.040756 0.022466,0.2318104 C 6.2857271,7.3218734 6.308107,7.680616 6.3902357,7.897253 6.600005,8.4505794 7.1141366,8.7438278 7.5732865,8.5720375 7.7310449,8.5130128 7.8132621,8.5178087 7.8044923,8.5855235 7.7521274,8.9898378 7.6760216,9.2716874 7.55444,9.5115651 7.4706955,9.6767914 7.2079403,9.9381057 7.0064447,10.056556 6.729865,10.219145 6.5488778,10.251902 6.2044017,10.20172 Z"
       id="path1950"
       sodipodi:nodetypes="sssssssssssss" />
    <path
       id="path2224"
       style="fill:#f3cf1c;stroke-width:0.0236332"
       d="m 20.398176,6.0533661 c -0.04749,-5.297e-4 -0.09548,-1.676e-4 -0.143894,0.00111 -0.04842,0.00128 -0.09726,0.00346 -0.146595,0.00655 -0.04933,0.00309 -0.09913,0.00708 -0.149366,0.011988 -0.05023,0.00491 -0.100914,0.010738 -0.152035,0.017463 -0.05112,0.00672 -0.102673,0.014357 -0.154668,0.022902 -0.05199,0.00855 -0.104411,0.018008 -0.157267,0.028377 -0.05286,0.010369 -0.106161,0.021655 -0.159865,0.033851 -0.0537,0.012196 -0.107822,0.025299 -0.16236,0.039325 -0.05454,0.014026 -0.109497,0.028975 -0.164854,0.044834 -0.05536,0.015859 -0.111115,0.032613 -0.16728,0.050308 -0.05616,0.017695 -0.112712,0.036318 -0.16967,0.055852 -0.08449,0.028976 -0.182954,0.064521 -0.273545,0.098469 -0.09059,0.033948 -0.173325,0.066306 -0.226285,0.088837 -0.04341,0.018467 -0.0865,0.0375 -0.129271,0.0571 -0.04277,0.019599 -0.08524,0.039746 -0.127365,0.060461 -0.04213,0.020715 -0.08393,0.042007 -0.125391,0.063821 -0.04147,0.021814 -0.08259,0.044181 -0.123381,0.067078 -0.08158,0.045794 -0.161782,0.093727 -0.24056,0.1437539 -0.07878,0.050027 -0.156142,0.102134 -0.232002,0.1562617 -0.07586,0.054128 -0.150207,0.1102571 -0.223028,0.168354 -0.07282,0.058097 -0.144114,0.1181648 -0.213777,0.1800994 -0.06966,0.061935 -0.13769,0.1257541 -0.204076,0.1913947 -0.06639,0.065641 -0.131109,0.1330941 -0.194097,0.2023094 -0.06299,0.069215 -0.124268,0.1401839 -0.183738,0.2128415 -0.05947,0.072658 -0.117129,0.1469899 -0.172962,0.2229589 -0.05583,0.075969 -0.109833,0.1535808 -0.161909,0.2327292 -0.05208,0.079149 -0.102242,0.1598539 -0.150441,0.2420503 -0.0482,0.082196 -0.09442,0.1658759 -0.138626,0.2509889 -0.0442,0.085113 -0.08638,0.1716494 -0.126465,0.2595469 -0.04009,0.087898 -0.07807,0.1771735 -0.113922,0.267724 -0.03585,0.09055 -0.06957,0.1823784 -0.101067,0.2754506 -0.017,0.050246 -0.03379,0.1051791 -0.05017,0.1636064 -0.01638,0.058427 -0.03234,0.1203571 -0.04767,0.1845351 -0.01533,0.06418 -0.03004,0.130618 -0.0439,0.198116 -0.01386,0.0675 -0.02688,0.136067 -0.03884,0.204458 -0.01196,0.06839 -0.02286,0.1366 -0.0325,0.203451 -0.0096,0.06685 -0.01802,0.132323 -0.02491,0.195207 -0.0069,0.06288 -0.01229,0.123198 -0.01601,0.179683 -0.0037,0.05649 -0.0058,0.109159 -0.0059,0.156816 -1.34e-4,0.05336 0.0016,0.107807 0.005,0.162949 0.0034,0.05514 0.0086,0.110964 0.01549,0.167106 0.0068,0.05614 0.01534,0.11258 0.0254,0.168943 0.01006,0.05636 0.02169,0.112655 0.03479,0.168458 0.01309,0.0558 0.02768,0.11112 0.04362,0.165582 0.01594,0.05446 0.03326,0.108078 0.05187,0.16042 0.01861,0.05234 0.0385,0.103427 0.05959,0.152866 0.02109,0.04944 0.04341,0.0972 0.0668,0.142957 0.02105,0.04117 0.04354,0.08185 0.06743,0.121995 0.02389,0.04015 0.04916,0.07977 0.07578,0.118808 0.02662,0.03903 0.05458,0.0775 0.08381,0.115341 0.02923,0.03784 0.05976,0.07507 0.0915,0.111636 0.03174,0.03657 0.06468,0.07248 0.09882,0.107686 0.03414,0.03521 0.06946,0.06973 0.105883,0.103493 0.03642,0.03377 0.07397,0.06678 0.112571,0.09902 0.0386,0.03224 0.07825,0.06371 0.118911,0.09435 0.04066,0.03063 0.08233,0.06045 0.12494,0.08939 0.04262,0.02894 0.08617,0.05699 0.130623,0.08416 0.04446,0.02717 0.0898,0.05345 0.135993,0.07875 0.04619,0.02531 0.09324,0.04964 0.141051,0.073 0.04781,0.02337 0.09641,0.04574 0.145729,0.06708 0.04932,0.02134 0.09934,0.04165 0.15006,0.06088 0.05072,0.01923 0.102138,0.03739 0.154148,0.05443 0.05201,0.01704 0.104632,0.03295 0.157821,0.04771 0.06718,0.01865 0.136368,0.03659 0.207436,0.05377 0.07107,0.01719 0.144015,0.03364 0.218698,0.04934 0.07468,0.01571 0.151105,0.03066 0.229126,0.04487 0.07802,0.01421 0.15764,0.02764 0.238724,0.04033 0.08108,0.01269 0.163619,0.02464 0.247489,0.03579 0.08387,0.01115 0.169077,0.02152 0.255459,0.03111 0.08638,0.0096 0.173944,0.01839 0.262561,0.0264 0.08862,0.008 0.178291,0.01524 0.268867,0.02166 0.09058,0.0064 0.182047,0.01203 0.274307,0.01684 0.09226,0.0048 0.185316,0.0088 0.278985,0.01195 0.09367,0.0032 0.187959,0.0055 0.282761,0.007 0.0948,0.0015 0.190117,0.0022 0.285775,0.002 0.09566,-1.34e-4 0.191649,-0.0012 0.287889,-0.003 0.09624,-0.0019 0.192729,-0.0046 0.289274,-0.0081 0.09655,-0.0036 0.19315,-0.008 0.289726,-0.01331 0.09658,-0.0053 0.193118,-0.01148 0.289448,-0.01854 0.0876,-0.0064 0.176296,-0.01412 0.265298,-0.02297 0.089,-0.0088 0.178323,-0.01883 0.267135,-0.02983 0.08881,-0.011 0.17712,-0.02301 0.264155,-0.0359 0.08704,-0.01288 0.172792,-0.02664 0.256463,-0.04113 0.08367,-0.01449 0.165269,-0.02971 0.243991,-0.04553 0.07872,-0.01582 0.154551,-0.03222 0.226735,-0.0491 0.07218,-0.01687 0.140709,-0.03421 0.204769,-0.05187 0.06406,-0.01765 0.123671,-0.03565 0.178021,-0.05381 0.04357,-0.01456 0.08852,-0.03138 0.134398,-0.0502 0.04588,-0.01883 0.09268,-0.03967 0.139909,-0.06219 0.04723,-0.02253 0.09488,-0.04676 0.142506,-0.07241 0.04763,-0.02566 0.09522,-0.05273 0.142299,-0.08094 0.04708,-0.02821 0.09367,-0.05756 0.13925,-0.08776 0.04558,-0.0302 0.09017,-0.06124 0.13329,-0.09286 0.04312,-0.03162 0.08477,-0.06379 0.12449,-0.09625 0.03972,-0.03246 0.07748,-0.06524 0.112848,-0.09799 0.0366,-0.03389 0.0716,-0.06804 0.105052,-0.102556 0.03345,-0.03451 0.06536,-0.06938 0.09577,-0.104671 0.0304,-0.0353 0.0593,-0.07103 0.08676,-0.10727 0.02746,-0.03624 0.0535,-0.073 0.07813,-0.110353 0.02463,-0.03735 0.04784,-0.0753 0.06975,-0.113923 0.0219,-0.03862 0.04246,-0.07792 0.06174,-0.117977 0.01928,-0.04006 0.03728,-0.08086 0.05405,-0.122513 0.01677,-0.04165 0.03231,-0.08417 0.04667,-0.127574 0.01701,-0.05143 0.03017,-0.09281 0.04033,-0.130345 0.01016,-0.03754 0.01731,-0.07121 0.02235,-0.10727 0.005,-0.03606 0.008,-0.07449 0.0096,-0.121475 0.0016,-0.04698 0.002,-0.102509 0.002,-0.172824 -1.7e-5,-0.04556 -0.0012,-0.09107 -0.0036,-0.136477 -0.0024,-0.04541 -0.0059,-0.09072 -0.01053,-0.135924 -0.0047,-0.0452 -0.01045,-0.0903 -0.01739,-0.13523 -0.0069,-0.04493 -0.01502,-0.08972 -0.02422,-0.13433 -0.0092,-0.04461 -0.01953,-0.08903 -0.03097,-0.133256 -0.01144,-0.04423 -0.02401,-0.08826 -0.03766,-0.132043 -0.01365,-0.04378 -0.02837,-0.0873 -0.04421,-0.130588 -0.01584,-0.04328 -0.03279,-0.08634 -0.05079,-0.129062 -0.018,-0.04273 -0.03706,-0.08515 -0.0572,-0.127262 -0.02014,-0.04211 -0.04133,-0.08388 -0.06358,-0.125322 -0.02225,-0.04144 -0.04558,-0.08254 -0.06992,-0.123241 -0.02434,-0.04071 -0.04971,-0.08104 -0.07612,-0.120956 -0.02641,-0.03992 -0.05384,-0.07943 -0.08229,-0.118496 -0.02845,-0.03907 -0.05792,-0.0777 -0.08839,-0.115862 -0.03047,-0.03816 -0.06192,-0.07586 -0.09438,-0.1130571 -0.03246,-0.037199 -0.06591,-0.073899 -0.10034,-0.1100762 -0.05515,-0.057953 -0.122633,-0.1246543 -0.18689,-0.1854692 -0.03213,-0.030408 -0.06344,-0.059339 -0.09203,-0.084957 -0.02859,-0.025618 -0.05443,-0.047944 -0.0756,-0.065103 -0.02308,-0.018708 -0.04375,-0.035908 -0.0623,-0.052111 -0.01855,-0.016202 -0.035,-0.031402 -0.04962,-0.04615 -0.01461,-0.014748 -0.02739,-0.029035 -0.03867,-0.043379 -0.01128,-0.014344 -0.02105,-0.028735 -0.02959,-0.043726 -0.0085,-0.014991 -0.01585,-0.030571 -0.02224,-0.04726 -0.0064,-0.016688 -0.01185,-0.034475 -0.0167,-0.053912 -0.0049,-0.019436 -0.0091,-0.040517 -0.01299,-0.063752 -0.0039,-0.023235 -0.0075,-0.048626 -0.01105,-0.07671 -0.0087,-0.068279 -0.01694,-0.1258813 -0.02651,-0.1784715 -0.0048,-0.026295 -0.0099,-0.051324 -0.01552,-0.075844 -0.0056,-0.024519 -0.01175,-0.048516 -0.01861,-0.072691 -0.01372,-0.048349 -0.03033,-0.097448 -0.05145,-0.1530048 -0.02112,-0.055556 -0.04674,-0.1175655 -0.07851,-0.1917759 -0.02688,-0.062779 -0.06343,-0.1412265 -0.104706,-0.2259728 -0.04127,-0.084747 -0.08728,-0.1757775 -0.133151,-0.2637052 -0.04587,-0.087927 -0.09159,-0.1727771 -0.132251,-0.2450988 -0.04067,-0.072321 -0.07628,-0.132123 -0.101934,-0.1700512 -0.02198,-0.032495 -0.1027,-0.1544252 -0.179372,-0.2709461 -0.02489,-0.037823 -0.05037,-0.074761 -0.07647,-0.1108385 -0.0261,-0.036077 -0.05281,-0.071278 -0.08011,-0.1056066 -0.0273,-0.034329 -0.05519,-0.067798 -0.08367,-0.1003747 -0.02848,-0.032577 -0.05756,-0.064287 -0.08721,-0.095108 -0.02965,-0.030822 -0.05987,-0.060743 -0.09067,-0.089807 -0.03081,-0.029064 -0.06219,-0.057272 -0.09414,-0.084575 -0.03195,-0.027303 -0.06449,-0.0537 -0.09757,-0.07924 -0.03308,-0.025539 -0.06673,-0.0502 -0.100929,-0.073973 -0.0342,-0.023773 -0.06892,-0.046669 -0.104221,-0.068672 -0.0353,-0.022003 -0.07116,-0.043106 -0.107547,-0.063336 -0.03639,-0.02023 -0.07334,-0.039581 -0.110803,-0.058035 -0.03747,-0.018454 -0.07546,-0.036024 -0.113992,-0.052699 -0.03853,-0.016675 -0.0776,-0.03247 -0.117179,-0.047364 -0.03958,-0.014893 -0.07968,-0.028885 -0.120297,-0.041993 -0.04061,-0.013108 -0.08174,-0.025337 -0.123381,-0.036658 -0.04164,-0.01132 -0.08375,-0.021723 -0.126395,-0.031252 -0.04265,-0.00953 -0.0858,-0.018181 -0.129445,-0.025916 -0.04364,-0.00774 -0.0878,-0.014573 -0.132424,-0.020512 -0.04462,-0.00594 -0.08971,-0.010968 -0.1353,-0.015106 -0.04559,-0.00414 -0.09166,-0.00737 -0.138209,-0.0097 -0.04655,-0.00234 -0.09356,-0.00377 -0.141052,-0.0043 z"
       sodipodi:nodetypes="ssssssssssssssssssssssssssssssssssssssscssssssssssssssssssssssssssssssssssscsssssssssssssssssssssssssssssssccssssssssssssssssssssssssssssssssssssssssssssssssssssssssss" />
    <path
       id="path2220"
       style="fill:#f3cf1c;stroke-width:0.0236332"
       d="m 21.522465,5.0014027 c -0.01899,5.09e-5 -0.03775,8.173e-4 -0.05634,0.00229 -0.01859,0.00147 -0.03701,0.00364 -0.05537,0.00648 -0.01835,0.00284 -0.03664,0.00636 -0.05492,0.010533 -0.01828,0.00417 -0.03658,0.00899 -0.05495,0.014448 -0.01642,0.00488 -0.0329,0.01113 -0.04917,0.018502 -0.01627,0.00737 -0.03231,0.015866 -0.04788,0.025224 -0.01557,0.00936 -0.03064,0.019588 -0.04497,0.030421 -0.01433,0.010833 -0.02792,0.02226 -0.04047,0.034059 -0.01255,0.011799 -0.02407,0.023953 -0.0343,0.036207 -0.01023,0.012255 -0.01915,0.024596 -0.02651,0.036796 -0.0074,0.0122 -0.01317,0.024259 -0.01712,0.035895 -0.0039,0.011636 -0.0061,0.022874 -0.0061,0.033435 0,0.011426 0.0019,0.022783 0.0057,0.034059 0.0038,0.011275 0.0094,0.022477 0.01691,0.033539 0.0075,0.011062 0.01677,0.02199 0.02786,0.032777 0.01108,0.010787 0.02396,0.021427 0.03856,0.031876 0.0146,0.010449 0.03092,0.020719 0.04896,0.030767 0.01803,0.010048 0.03776,0.019865 0.05914,0.029451 0.02138,0.00959 0.04442,0.018936 0.06905,0.027995 0.02464,0.00906 0.05088,0.017826 0.07869,0.026298 0.06508,0.019826 0.13179,0.042557 0.199572,0.067945 0.06778,0.025388 0.136643,0.053425 0.206085,0.083917 0.06944,0.030492 0.139456,0.063436 0.209516,0.098573 0.07006,0.035138 0.14016,0.072483 0.209792,0.1118087 0.02981,0.016835 0.057,0.031734 0.08205,0.044765 0.02505,0.013031 0.04796,0.024175 0.06916,0.033539 0.02119,0.00936 0.04068,0.016929 0.05894,0.022764 0.01825,0.00584 0.03526,0.00996 0.05149,0.012404 0.01622,0.00244 0.03167,0.0032 0.04678,0.00239 0.01511,-8.127e-4 0.02987,-0.00321 0.04477,-0.00714 0.0149,-0.00393 0.02992,-0.00937 0.04553,-0.016285 0.0156,-0.00691 0.03181,-0.015296 0.04903,-0.02505 0.01433,-0.00812 0.02801,-0.017055 0.04099,-0.026679 0.01297,-0.00962 0.02522,-0.019914 0.03662,-0.030698 0.0114,-0.010784 0.02195,-0.02208 0.03156,-0.033678 0.0096,-0.011598 0.01828,-0.023518 0.02588,-0.035583 0.0076,-0.012065 0.01414,-0.024264 0.01951,-0.03645 0.0054,-0.012185 0.0096,-0.024352 0.01251,-0.036311 0.0029,-0.011959 0.0046,-0.023713 0.0048,-0.035098 2.68e-4,-0.011385 -8.72e-4,-0.022381 -0.0035,-0.032846 -0.0027,-0.010933 -0.0078,-0.022984 -0.01486,-0.035895 -0.0071,-0.012911 -0.01622,-0.026683 -0.02709,-0.041058 -0.01087,-0.014374 -0.02349,-0.029374 -0.03759,-0.044696 -0.01411,-0.015322 -0.0297,-0.030985 -0.0465,-0.04674 -0.0168,-0.015755 -0.0348,-0.031587 -0.05374,-0.04726 -0.01894,-0.015673 -0.03879,-0.031179 -0.05932,-0.046255 -0.02053,-0.015076 -0.04173,-0.029727 -0.0633,-0.043691 -0.02157,-0.013964 -0.04352,-0.027231 -0.06559,-0.039568 -0.07323,-0.040942 -0.141567,-0.077946 -0.205636,-0.1111502 -0.06407,-0.033204 -0.123876,-0.062631 -0.180099,-0.088456 -0.05622,-0.025825 -0.108858,-0.048031 -0.158548,-0.066836 -0.04969,-0.018805 -0.09644,-0.034215 -0.140913,-0.046359 -0.02224,-0.00607 -0.04389,-0.011325 -0.06507,-0.015799 -0.02118,-0.00447 -0.04187,-0.00817 -0.06216,-0.011087 -0.02029,-0.00292 -0.04018,-0.00507 -0.05973,-0.00648 -0.01956,-0.00141 -0.03877,-0.00206 -0.05776,-0.00201 z" />
    <path
       id="path2218"
       style="fill:#f3cf1c;stroke-width:0.0236332"
       d="m 21.919724,2.5912289 c -0.019,-5.967e-4 -0.03772,9.226e-4 -0.05655,0.00444 -0.01882,0.00351 -0.03771,0.00899 -0.057,0.016319 -0.01129,0.00429 -0.02266,0.00965 -0.03402,0.016007 -0.01137,0.00635 -0.02274,0.013698 -0.03409,0.021967 -0.01136,0.00827 -0.02269,0.017469 -0.03395,0.02751 -0.01127,0.010041 -0.02248,0.020933 -0.03357,0.032604 -0.02219,0.023341 -0.04395,0.049793 -0.06496,0.078789 -0.02101,0.028995 -0.04126,0.060532 -0.06043,0.094034 -0.01917,0.033502 -0.03724,0.068989 -0.05391,0.105849 -0.01667,0.036861 -0.03197,0.075095 -0.04549,0.1141647 -0.01352,0.03907 -0.02528,0.078953 -0.03499,0.1190846 -0.0097,0.040132 -0.01735,0.08053 -0.02259,0.1205746 -0.0054,0.041247 -0.0086,0.088224 -0.0099,0.1390764 -0.0013,0.050853 -6.04e-4,0.1055595 0.0018,0.1623251 0.0024,0.056766 0.0064,0.1155699 0.01185,0.1745558 0.0055,0.058986 0.01233,0.118151 0.02037,0.1756646 0.008,0.057514 0.01725,0.1133718 0.02737,0.1657208 0.01012,0.052349 0.02114,0.1011978 0.03281,0.1446893 0.01167,0.043491 0.02398,0.081629 0.03669,0.1125708 0.0064,0.015471 0.01282,0.02914 0.01933,0.040781 0.0065,0.011641 0.0131,0.02127 0.01971,0.028619 0.0051,0.00571 0.01276,0.01189 0.02214,0.01819 0.0094,0.0063 0.02049,0.012706 0.03264,0.018848 0.01214,0.00614 0.02532,0.012044 0.03877,0.017289 0.01345,0.00524 0.02719,0.00984 0.04047,0.013443 0.05313,0.014421 0.19232,0.056887 0.309336,0.094346 0.05851,0.018729 0.118508,0.035747 0.168042,0.048091 0.02477,0.00617 0.04692,0.011163 0.06496,0.014621 0.01804,0.00346 0.03197,0.00537 0.0403,0.00537 0.0056,0 0.01162,-9.018e-4 0.01826,-0.00281 0.0066,-0.0019 0.01386,-0.00481 0.02179,-0.0088 0.01587,-0.00799 0.03459,-0.020321 0.05707,-0.037766 0.02248,-0.017445 0.04874,-0.039984 0.07972,-0.06836 0.03098,-0.028376 0.06669,-0.06261 0.108067,-0.103389 0.04536,-0.044703 0.08372,-0.081483 0.117525,-0.1121898 0.03381,-0.030707 0.06303,-0.055321 0.09012,-0.075671 0.02709,-0.02035 0.05204,-0.036435 0.07727,-0.050066 0.02522,-0.013631 0.05073,-0.024824 0.07893,-0.035375 0.01927,-0.00721 0.03735,-0.013304 0.05426,-0.018294 0.01691,-0.00499 0.03267,-0.00886 0.04733,-0.011607 0.01466,-0.00275 0.02822,-0.00439 0.04075,-0.00489 0.01252,-4.895e-4 0.02401,1.542e-4 0.03451,0.00194 0.0105,0.00179 0.02,0.00472 0.02858,0.0088 0.0086,0.00408 0.01626,0.00933 0.02304,0.01573 0.0068,0.0064 0.01268,0.013959 0.01777,0.022694 0.0051,0.00874 0.0094,0.018638 0.01289,0.029728 0.0026,0.0083 0.0039,0.018768 0.004,0.031218 6.7e-5,0.01245 -0.0011,0.02686 -0.0035,0.043067 -0.0024,0.016207 -0.0059,0.034203 -0.0106,0.053774 -0.0047,0.01957 -0.01051,0.040729 -0.01739,0.063267 -0.01377,0.045077 -0.03179,0.095685 -0.05363,0.1502676 -0.02184,0.054583 -0.04748,0.1131387 -0.07643,0.1740708 -0.01322,0.027821 -0.02583,0.056054 -0.03731,0.083259 -0.01149,0.027205 -0.02185,0.053366 -0.03056,0.077092 -0.0087,0.023725 -0.0158,0.045019 -0.02069,0.062401 -0.0049,0.017382 -0.0076,0.030872 -0.0076,0.039048 0,0.01035 0.0025,0.021678 0.0078,0.034267 0.0053,0.012588 0.01332,0.026435 0.02425,0.041785 0.01093,0.01535 0.02476,0.032194 0.04172,0.050828 0.01696,0.018634 0.03704,0.039058 0.06039,0.0615 l 0.134156,0.1289247 0.134642,-0.013513 c 0.07407,-0.00743 0.251658,-0.025099 0.394638,-0.039256 0.101973,-0.010097 0.194161,-0.020243 0.277391,-0.030837 0.08323,-0.010594 0.15752,-0.021612 0.223722,-0.03347 0.0331,-0.00593 0.06418,-0.012079 0.09334,-0.018467 0.02917,-0.00639 0.05643,-0.013013 0.08187,-0.019957 0.02544,-0.00694 0.04906,-0.014199 0.07099,-0.021793 0.02194,-0.00759 0.04217,-0.015531 0.06081,-0.023873 0.01864,-0.00834 0.03568,-0.017078 0.05124,-0.026263 0.01556,-0.00918 0.02964,-0.018842 0.04234,-0.028965 0.0127,-0.010123 0.02401,-0.020718 0.03406,-0.031876 0.01004,-0.011158 0.01883,-0.022879 0.02644,-0.035168 0.0076,-0.012288 0.01405,-0.025153 0.01944,-0.038667 0.0054,-0.013514 0.0097,-0.027677 0.01306,-0.042513 0.0034,-0.014836 0.0058,-0.030347 0.0074,-0.046601 0.0016,-0.016254 0.0023,-0.033234 0.0023,-0.051002 0,-0.026084 -0.0019,-0.05138 -0.0059,-0.076087 -0.004,-0.024706 -0.01,-0.048835 -0.01816,-0.072553 -0.0082,-0.023717 -0.0186,-0.047045 -0.03136,-0.070162 -0.01275,-0.023117 -0.02786,-0.04601 -0.04546,-0.068914 -0.0176,-0.022905 -0.03771,-0.045799 -0.06046,-0.06888 -0.02275,-0.023082 -0.04813,-0.046342 -0.07633,-0.069989 -0.0282,-0.023647 -0.05919,-0.047675 -0.09313,-0.072275 -0.03394,-0.024601 -0.07082,-0.049797 -0.110804,-0.07574 -0.03522,-0.022852 -0.06675,-0.044119 -0.0949,-0.064376 -0.02815,-0.020257 -0.0529,-0.039492 -0.07456,-0.058208 -0.02166,-0.018716 -0.04023,-0.036929 -0.05599,-0.055159 -0.01576,-0.01823 -0.02871,-0.036498 -0.03915,-0.055298 -0.01044,-0.0188 -0.01837,-0.03813 -0.02408,-0.058555 -0.0057,-0.020425 -0.0092,-0.041929 -0.01078,-0.065034 -0.0016,-0.023105 -0.0012,-0.047826 7.98e-4,-0.074666 0.002,-0.02684 0.0056,-0.05582 0.01057,-0.087451 0.0049,-0.031499 0.0074,-0.062509 0.0075,-0.092925 1.34e-4,-0.030416 -0.0021,-0.060225 -0.0067,-0.089218 -0.0045,-0.028994 -0.01137,-0.057172 -0.02037,-0.084402 -0.009,-0.027231 -0.02021,-0.053524 -0.0335,-0.078651 -0.0133,-0.025127 -0.02868,-0.049107 -0.04608,-0.07179 -0.01741,-0.022683 -0.03684,-0.044061 -0.05817,-0.06396 -0.02133,-0.019899 -0.04456,-0.038316 -0.06964,-0.05509 -0.02508,-0.016775 -0.05201,-0.031906 -0.08066,-0.045215 -0.03211,-0.014916 -0.0572,-0.026192 -0.08281,-0.034648 -0.0128,-0.00423 -0.02573,-0.00777 -0.03971,-0.010672 -0.01398,-0.00291 -0.02905,-0.00518 -0.04608,-0.00696 -0.03406,-0.00356 -0.07608,-0.00507 -0.133567,-0.0053 -0.05749,-2.279e-4 -0.130434,8.18e-4 -0.226321,0.00236 -0.06018,9.655e-4 -0.113398,0.00162 -0.161008,0.00152 -0.04761,-1.006e-4 -0.08964,-9.521e-4 -0.127366,-0.00301 -0.03773,-0.00206 -0.07116,-0.00534 -0.101691,-0.010256 -0.03054,-0.00492 -0.05816,-0.01149 -0.08419,-0.020165 -0.02603,-0.00868 -0.05048,-0.01945 -0.0747,-0.032777 -0.02422,-0.013326 -0.04822,-0.029217 -0.07332,-0.048091 -0.0251,-0.018874 -0.0513,-0.040756 -0.07997,-0.066073 -0.02866,-0.025318 -0.05977,-0.054066 -0.09469,-0.086724 -0.0336,-0.031422 -0.06503,-0.059855 -0.09459,-0.085407 -0.02956,-0.025552 -0.05727,-0.048246 -0.08343,-0.068221 -0.02616,-0.019976 -0.05077,-0.037211 -0.07418,-0.051902 -0.02341,-0.014692 -0.04558,-0.026817 -0.06687,-0.036519 -0.02129,-0.0097 -0.04171,-0.016997 -0.06153,-0.022002 -0.01983,-0.005 -0.0391,-0.00772 -0.0581,-0.00832 z" />
    <path
       style="fill:#f70302;stroke-width:0.023634"
       d="m 26.300482,15.019863 c -0.06756,-0.02976 -0.101337,-0.03154 -0.184312,-0.0097 -0.116048,0.03058 -0.151308,0.01799 -0.297031,-0.106031 -0.05026,-0.04277 -0.136994,-0.09331 -0.192742,-0.112309 -0.05575,-0.019 -0.216695,-0.126636 -0.357662,-0.239202 -0.140967,-0.112565 -0.319034,-0.25447 -0.395703,-0.315345 C 24.676133,14.08094 24.34714,13.793 24.043439,13.511202 23.325205,12.844767 23.157165,12.73616 23.157165,12.938385 c 0,0.05783 0.0365,0.107134 0.194981,0.263353 0.107238,0.105712 0.213286,0.22411 0.235662,0.263105 0.02238,0.039 0.05391,0.089 0.07007,0.111129 0.103303,0.14142 -0.212283,-0.02336 -0.447975,-0.233908 -0.09902,-0.08845 -0.288928,-0.261863 -0.422018,-0.385351 -0.133091,-0.123487 -0.277271,-0.256428 -0.320401,-0.295424 -0.04313,-0.039 -0.235327,-0.23309 -0.427105,-0.43132 -1.046435,-0.998852 -1.406695,-1.313089 -2.494986,-2.192442 L 19.443259,9.97414 18.813621,10.602787 c -0.462823,0.462101 -0.644207,0.628647 -0.68465,0.628647 -0.0705,0 -0.184918,0.0846 -0.244242,0.180596 -0.05586,0.09038 -0.773281,0.692765 -0.877768,0.737015 -0.0407,0.01724 -0.244918,0.171613 -0.453819,0.34306 -0.208893,0.171447 -0.42767,0.342467 -0.486169,0.380045 -0.05849,0.03758 -0.133297,0.08655 -0.166231,0.108823 -0.168866,0.114205 -1.046145,0.56894 -1.07572,0.557592 -0.05489,-0.02106 -0.04062,-0.06156 0.06026,-0.170996 0.09,-0.09764 0.09454,-0.109902 0.09454,-0.255596 0,-0.08417 -0.01201,-0.179406 -0.0267,-0.211636 -0.03668,-0.08048 -0.138306,-0.118039 -0.267138,-0.09872 -0.07454,0.01118 -0.125963,0.0052 -0.175551,-0.02046 -0.11372,-0.05881 -0.319207,-0.07395 -0.384358,-0.02832 -0.06449,0.04517 -0.162516,0.05094 -0.162516,0.0096 0,-0.02847 0.187713,-0.213912 0.505023,-0.4989 0.08928,-0.08019 0.307132,-0.305325 0.484111,-0.500305 0.176985,-0.19498 0.32728,-0.359826 0.333984,-0.366326 0.06581,-0.06375 0.313415,-0.36324 0.361488,-0.437229 0.05489,-0.08449 0.252394,-0.286335 0.916354,-0.936511 C 16.834674,9.7586241 17.113532,9.4029859 17.155195,9.26985 17.183045,9.180863 17.25869,9.0940336 17.618448,8.7380864 18.290332,8.0733257 18.295683,8.0638995 18.116813,7.8602771 18.061343,7.7971281 17.973961,7.6922837 17.922636,7.6272903 17.871316,7.5622973 17.823016,7.5038026 17.81532,7.4973037 17.80762,7.4908037 17.72032,7.3938692 17.621311,7.2818928 17.506322,7.1518419 17.43212,7.0451187 17.415901,6.986462 17.397208,6.9188826 17.332769,6.8373922 17.171874,6.6778972 16.651739,6.1622725 16.210344,5.7116317 16.209593,5.6954571 16.20852,5.6727071 16.024333,5.4674923 15.726474,5.1572044 15.199929,4.6086915 14.790737,4.1677813 14.790737,4.1489295 c 0,-0.010956 0.02243,-0.033931 0.04986,-0.051056 0.07885,-0.049244 0.04125,-0.1543116 -0.120256,-0.3360403 -0.106834,-0.1202097 -0.147016,-0.1860599 -0.166453,-0.2728002 -0.01409,-0.062887 -0.04634,-0.1478441 -0.07164,-0.1887928 -0.0732,-0.118427 -0.05452,-0.1187434 0.07114,-0.00121 0.126921,0.1187207 0.197422,0.1369288 0.237825,0.061426 0.04005,-0.07482 -0.01786,-0.2038169 -0.183952,-0.4097605 -0.09356,-0.1160267 -0.04127,-0.094074 0.102603,0.043073 0.153231,0.1460667 0.207861,0.1729602 0.261278,0.1286296 0.06229,-0.051701 -0.02902,-0.339994 -0.152084,-0.4801592 -0.109006,-0.1241501 -0.241023,-0.333019 -0.241023,-0.3813269 0,-0.034512 0.02136,-0.023426 0.100444,0.05213 0.140351,0.1340926 0.206192,0.1737969 0.288861,0.1741999 0.09128,4.693e-4 0.06904,-0.012869 0.769178,0.4605136 0.326831,0.2209777 0.617308,0.4173429 0.645508,0.436367 0.137461,0.092735 0.35432,0.2658359 0.535771,0.4276602 0.345175,0.3078433 0.583925,0.4949258 0.631616,0.4949258 0.06436,0 0.07969,-0.022468 0.05141,-0.07532 -0.06252,-0.1168199 0.01286,-0.07111 0.269484,0.1634173 0.153224,0.1400277 0.426437,0.4178169 0.607144,0.6173112 0.180707,0.199493 0.360723,0.3802931 0.400026,0.4017771 0.03931,0.021484 0.163208,0.1488553 0.275332,0.2830485 0.254653,0.2008916 0.577119,0.5419175 0.764196,0.7310415 0.643357,-0.6267234 1.375511,-1.3108718 1.863277,-1.7876974 0.280799,-0.276221 0.435404,-0.3975182 0.669289,-0.5250972 0.143828,-0.078455 0.326511,-0.2104754 0.50671,-0.3661856 0.07799,-0.067393 0.21625,-0.1572462 0.307241,-0.199674 0.09099,-0.042428 0.249179,-0.1405272 0.35153,-0.2179987 0.176979,-0.1339593 0.190866,-0.1400472 0.283607,-0.1243239 0.05363,0.00909 0.130869,0.021974 0.171634,0.028625 0.05638,0.0092 0.126896,-0.014134 0.294587,-0.097459 0.121258,-0.060253 0.23803,-0.1254429 0.259494,-0.1448673 0.04769,-0.043163 0.401188,-0.0879 0.434798,-0.055027 0.01505,0.014718 0.01505,0.033573 0,0.054081 -0.01271,0.017316 -0.0442,0.062224 -0.06998,0.099794 -0.02578,0.037569 -0.142539,0.201249 -0.259459,0.3637323 -0.212808,0.2957419 -0.545615,0.7930378 -0.745375,1.1137791 -0.05849,0.093919 -0.145655,0.2210234 -0.193691,0.2824524 -0.04804,0.06143 -0.102474,0.1473011 -0.120972,0.1908264 -0.0185,0.043525 -0.08555,0.144658 -0.149001,0.2247398 -0.06345,0.080082 -0.205768,0.2589414 -0.316257,0.3974653 -0.110489,0.1385238 -0.216842,0.2761465 -0.23634,0.3058279 -0.0195,0.029681 -0.05583,0.082978 -0.08075,0.1184363 -0.593153,0.8293891 -1.252912,1.7120835 -1.896595,2.4042674 0.869786,0.816293 1.760124,1.8542639 2.092458,2.4055849 0.03731,0.06064 0.07573,0.136268 0.08536,0.168052 0.0096,0.03178 0.04347,0.08438 0.07518,0.116874 0.03171,0.0325 0.127812,0.154803 0.21355,0.271791 0.08574,0.116988 0.20116,0.265881 0.256491,0.330875 0.05533,0.06499 0.127211,0.176664 0.159732,0.248156 0.03252,0.07149 0.126963,0.209752 0.209871,0.307242 0.08291,0.09749 0.209864,0.25702 0.282124,0.35451 0.199906,0.269703 0.396272,0.498041 0.752017,0.874456 0.17813,0.188481 0.385634,0.411822 0.461119,0.496313 0.07549,0.08449 0.305999,0.32464 0.512253,0.533662 0.206254,0.209022 0.375008,0.397797 0.375008,0.4195 0,0.04822 -0.05472,0.04794 -0.165438,-8.38e-4 z"
       id="path1836-1"
       sodipodi:nodetypes="sssssssssssssscccssssssssssssssssscsssssssssscsssssssssssssscsssssssscccsssssssssssssssssscccsssssssssssss" />
    <path
       style="fill:#000000;fill-opacity:1;stroke-width:0.0236332"
       d="m 19.734533,14.947814 c -0.110485,-0.0093 -0.376358,-0.02838 -0.590829,-0.0425 -0.214471,-0.01412 -0.46971,-0.03621 -0.567196,-0.04909 -0.09749,-0.01288 -0.310186,-0.03994 -0.472664,-0.06013 -0.496183,-0.06166 -1.306065,-0.230257 -1.483783,-0.308891 -0.04268,-0.01889 -0.09627,-0.03434 -0.119077,-0.03434 -0.02281,0 -0.08319,-0.02127 -0.134178,-0.04727 -0.05099,-0.026 -0.103924,-0.04727 -0.117629,-0.04727 -0.02484,0 -0.450486,-0.211707 -0.59819,-0.297523 -0.301262,-0.175034 -0.713602,-0.56358 -0.888119,-0.83687 -0.173188,-0.271206 -0.160665,-0.247796 -0.252846,-0.472663 -0.05484,-0.133775 -0.163575,-0.565752 -0.164689,-0.654265 -0.08697,-1.567387 0.560311,-3.0959314 1.411193,-4.2189137 0.243251,-0.3191878 0.95048,-1.0008401 1.296906,-1.2500053 0.282985,-0.2035348 0.63146,-0.4213274 0.896808,-0.5604931 0.2463,-0.1291755 0.587705,-0.2811366 0.673546,-0.299798 0.04549,-0.00989 0.103693,-0.032576 0.129332,-0.050413 0.02564,-0.017837 0.06486,-0.03243 0.08716,-0.03243 0.0223,0 0.123626,-0.025683 0.225165,-0.057072 0.266209,-0.082296 0.682014,-0.1529195 1.033217,-0.1754895 0.276318,-0.017758 0.309137,-0.024667 0.348589,-0.073388 0.02395,-0.029581 0.04355,-0.081852 0.04354,-0.1161572 -1.2e-5,-0.090801 0.140336,-0.3506543 0.236341,-0.4375826 0.12538,-0.1135248 0.189066,-0.2039046 0.189066,-0.2683128 0,-0.031974 -0.02015,-0.1289133 -0.04479,-0.2154196 -0.04183,-0.1468965 -0.101256,-0.5964564 -0.103582,-0.7835635 -0.0021,-0.1648585 0.07349,-0.6051403 0.12165,-0.7089951 0.02712,-0.058492 0.04955,-0.1180502 0.04983,-0.1323512 0.0012,-0.057739 0.185103,-0.3358812 0.295933,-0.4474654 0.127166,-0.1280315 0.318898,-0.2450147 0.475768,-0.2902847 0.0537,-0.015497 0.110836,-0.04408 0.126968,-0.063518 0.03759,-0.045291 0.104043,-0.045275 0.141647,3.31e-5 0.01615,0.019456 0.0786,0.050328 0.138785,0.068603 0.246739,0.074923 0.354751,0.1415248 0.607506,0.3745938 l 0.172998,0.1595239 h 0.37484 c 0.35844,0 0.383432,0.00314 0.571176,0.071653 0.238903,0.087189 0.376001,0.1784964 0.496049,0.3303649 0.121051,0.1531419 0.182178,0.2866643 0.216269,0.4724092 0.06111,0.3329798 0.08361,0.382546 0.217498,0.4792034 0.162193,0.1170898 0.228699,0.1779308 0.303441,0.2775884 0.112425,0.1499035 0.191327,0.3366507 0.221284,0.5237412 0.05682,0.3548205 -0.04171,0.6840759 -0.270309,0.9032986 -0.101116,0.096972 -0.34062,0.2267517 -0.418462,0.2267517 -0.03108,0 -0.09122,0.014498 -0.133627,0.032219 -0.07565,0.031606 -0.229545,0.050015 -0.630366,0.075399 -0.238881,0.015128 -0.412018,0.066174 -0.460834,0.1358675 -0.01951,0.027846 -0.03552,0.093462 -0.0356,0.1458125 -2.01e-4,0.1462255 -0.04067,0.2602253 -0.130587,0.367846 -0.04509,0.053967 -0.08198,0.1226162 -0.08198,0.1525533 0,0.029937 0.05668,0.1273036 0.125964,0.2163706 0.24105,0.3098954 0.531882,0.8087119 0.609359,1.0451354 0.01546,0.047171 0.04141,0.1070349 0.05766,0.1330313 0.02824,0.045175 0.110579,0.3387697 0.153554,0.5475582 0.01115,0.054191 0.04203,0.1391118 0.06862,0.188715 0.02659,0.049603 0.04834,0.099445 0.04834,0.1107587 0,0.045649 0.253322,0.3199234 0.483686,0.523692 0.279606,0.2473281 0.560834,0.621156 0.728936,0.96896 0.422252,0.814476 0.427259,1.287972 0.238313,2.103352 -0.05796,0.253517 -0.12645,0.451855 -0.204014,0.59083 -0.01451,0.026 -0.0378,0.06854 -0.05176,0.09453 -0.115238,0.214608 -0.345728,0.481531 -0.568881,0.658806 -0.265169,0.21065 -0.282506,0.222673 -0.446705,0.309782 -0.086,0.04563 -0.174885,0.09321 -0.197514,0.105734 -0.07821,0.0433 -0.305742,0.142787 -0.326565,0.142787 -0.01149,0 -0.07428,0.02069 -0.139519,0.04598 -0.268603,0.104128 -0.839461,0.243419 -1.220552,0.297818 -0.134838,0.01925 -0.30897,0.04539 -0.38696,0.05809 -0.07799,0.0127 -0.301323,0.03405 -0.496296,0.04745 -0.194974,0.0134 -0.471482,0.03409 -0.614462,0.04598 -0.297052,0.02471 -0.967374,0.02451 -1.264375,-3.35e-4 z m 1.630688,-0.626027 c 0.700846,-0.05134 1.471771,-0.184818 1.906568,-0.330113 0.348582,-0.116484 0.786105,-0.378666 1.069013,-0.640595 0.292832,-0.271117 0.483027,-0.559582 0.597909,-0.906843 0.06806,-0.205711 0.07433,-0.250679 0.07427,-0.531938 C 25.012709,11.183333 24.712237,10.469965 24.16141,9.8911382 24.051109,9.7752315 23.891573,9.6242428 23.806886,9.5556068 23.622228,9.4059477 23.592225,9.3532563 23.563739,9.1285842 23.529112,8.8554709 23.500222,8.7536523 23.373132,8.4568115 23.265619,8.2056945 23.003736,7.7036906 22.901104,7.5519778 22.879121,7.5194825 22.798404,7.3975603 22.721732,7.2810395 21.925312,6.070697 20.505508,5.7534335 18.682857,6.3785301 18.51388,6.4364827 18.288964,6.5207673 18.183045,6.5658297 16.794007,7.1567794 15.724878,8.3316114 15.220968,9.8207622 15.084948,10.22273 14.96205,10.925369 14.961077,11.306618 c -0.0011,0.426876 0.115396,0.923265 0.302554,1.289311 0.336792,0.658703 1.044048,1.191542 1.895077,1.427732 1.07486,0.29831 2.665234,0.411024 4.206513,0.298126 z M 19.22642,13.086621 c -0.194974,-0.07395 -0.367791,-0.143068 -0.384039,-0.153584 -0.04275,-0.02767 -0.03633,-0.114364 0.01721,-0.232356 0.02571,-0.05666 0.04698,-0.137058 0.04727,-0.178658 4.69e-4,-0.0686 -0.01983,-0.09015 -0.218088,-0.231587 -0.284182,-0.202729 -0.565862,-0.447491 -0.742636,-0.645302 -0.165513,-0.185209 -0.409481,-0.497629 -0.409481,-0.524372 0,-0.01021 0.01861,-0.03954 0.04136,-0.06516 0.04938,-0.05563 0.695619,-0.478575 0.731238,-0.478575 0.01365,0 0.11393,0.09163 0.222847,0.203622 0.275212,0.282981 0.646575,0.599905 0.702953,0.599905 0.0682,0 0.115536,-0.05746 0.153979,-0.186912 0.01859,-0.0626 0.08266,-0.248611 0.142388,-0.413362 0.05972,-0.164752 0.108589,-0.324708 0.108589,-0.355459 0,-0.0592 -0.02144,-0.08137 -0.494987,-0.5118156 -0.388952,-0.3535538 -0.547352,-0.5678495 -0.638956,-0.8644309 -0.06266,-0.2028647 -0.06025,-0.3681849 0.0085,-0.5847166 0.157777,-0.4968421 0.6235,-0.8439075 1.181301,-0.8803285 0.233623,-0.015255 0.567522,0.019582 0.727,0.075849 0.134607,0.047492 0.190573,0.00907 0.258613,-0.1775389 0.08155,-0.2236589 0.08653,-0.2248128 0.41196,-0.095511 0.103986,0.041316 0.236281,0.090271 0.293988,0.1087875 0.05771,0.018517 0.130547,0.050458 0.161866,0.070979 0.06888,0.045133 0.06381,0.1080231 -0.02807,0.3476595 -0.07679,0.2002895 -0.06504,0.2553343 0.07506,0.351728 0.328734,0.2261753 0.926959,0.7779602 0.926959,0.855 0,0.038644 -0.627397,0.5348493 -0.676258,0.5348493 -0.01621,0 -0.164108,-0.1175976 -0.328657,-0.2613284 -0.377175,-0.3294568 -0.393247,-0.3313462 -0.490969,-0.057719 -0.03714,0.1039863 -0.0933,0.2557446 -0.124797,0.3372411 -0.09505,0.245906 -0.09627,0.2429821 0.245834,0.5869395 0.647859,0.651358 0.82304,0.974733 0.803689,1.483557 -0.01205,0.316748 -0.08982,0.491739 -0.320811,0.72184 -0.399623,0.398081 -0.947014,0.552688 -1.552973,0.438626 -0.216126,-0.04068 -0.227451,-0.0407 -0.271938,-4.69e-4 -0.02553,0.0231 -0.05864,0.0806 -0.07358,0.127776 -0.03581,0.113101 -0.08695,0.192457 -0.122874,0.190689 -0.01595,-7.84e-4 -0.18852,-0.06194 -0.383494,-0.13589 z m 1.218658,-1.260296 c 0.118293,-0.03544 0.256421,-0.178285 0.272869,-0.282184 0.01525,-0.09634 -0.08985,-0.312625 -0.187252,-0.385349 -0.05561,-0.04152 -0.06557,-0.04231 -0.116063,-0.0092 -0.03644,0.02387 -0.06611,0.07939 -0.0872,0.163129 -0.01758,0.06982 -0.0462,0.155066 -0.06361,0.189446 -0.06023,0.118962 -0.07779,0.249562 -0.04068,0.30254 0.03856,0.05506 0.09275,0.06034 0.221928,0.02164 z M 20.062503,9.1885745 c 0.04888,-0.040753 0.160106,-0.3248004 0.184263,-0.4705835 0.02421,-0.146123 -0.169382,-0.191694 -0.353211,-0.083144 -0.03602,0.021271 -0.08741,0.083952 -0.114202,0.1392922 -0.06101,0.1260248 -0.03744,0.2156555 0.09418,0.3582303 0.10117,0.1095868 0.118688,0.114797 0.18897,0.056205 z m 2.589408,-3.2263294 c 0.114627,-0.064926 0.189398,-0.1836484 0.168386,-0.2673656 -0.02195,-0.087468 -0.19147,-0.2464682 -0.367991,-0.3451608 -0.58583,-0.3275364 -0.857501,-0.4017183 -1.151471,-0.3144185 -0.131365,0.039011 -0.266478,0.1660402 -0.266478,0.2505335 0,0.091406 0.122415,0.1789981 0.344879,0.24677 0.260315,0.079303 0.546432,0.2049353 0.824962,0.3622367 0.238479,0.1346817 0.309942,0.1454407 0.447713,0.067405 z m 1.06481,-0.6545653 c 0.815781,-0.080776 1.004409,-0.1651855 1.004409,-0.4494689 0,-0.2086727 -0.121705,-0.3670416 -0.441569,-0.5745859 -0.281756,-0.1828201 -0.327782,-0.2656881 -0.2881,-0.5187375 0.03952,-0.2519877 -0.07839,-0.4747887 -0.307592,-0.5812656 -0.128437,-0.059664 -0.144954,-0.06139 -0.528497,-0.055239 -0.48146,0.00772 -0.517558,-0.00431 -0.796934,-0.2655765 -0.268794,-0.2513735 -0.397998,-0.310235 -0.552251,-0.2515885 -0.180656,0.068686 -0.376073,0.4101992 -0.418029,0.7305581 -0.04322,0.3299755 0.05422,1.0264131 0.16005,1.1440018 0.02057,0.022859 0.08087,0.053361 0.133999,0.067783 0.05313,0.014421 0.192335,0.056869 0.309351,0.094329 0.117016,0.037459 0.239996,0.068108 0.273289,0.068108 0.04465,0 0.11939,-0.058004 0.284908,-0.2211186 0.181445,-0.1788114 0.251066,-0.2311043 0.36387,-0.2733098 0.154183,-0.057687 0.230962,-0.044621 0.25912,0.044096 0.02107,0.066384 -0.04172,0.2719415 -0.157515,0.5156701 -0.05287,0.1112833 -0.09613,0.2290907 -0.09613,0.2617943 0,0.041402 0.04074,0.098616 0.134158,0.1883838 l 0.134159,0.1289227 0.134669,-0.013508 c 0.07407,-0.00743 0.251652,-0.025091 0.394633,-0.039249 z"
       id="path1948-7"
       sodipodi:nodetypes="cssssssssssccssssssssssssssssssssscssssssssssssssssssssssccscsssssssssccsssscssssssssssssscssssssssssssssssssssssssssssssssscssccssssssssssssssssssssssssssssssssssssssssscss" />
  </g>
</svg>
