<?xml version="1.0" encoding="UTF-8" standalone="no"?>
<!-- Created with Inkscape (http://www.inkscape.org/) -->

<svg
   width="100"
   height="64"
   viewBox="0 0 26.458333 16.933333"
   version="1.1"
   id="svg5"
   inkscape:version="1.1 (c68e22c387, 2021-05-23)"
   sodipodi:docname="verdict_skip.svg"
   xmlns:inkscape="http://www.inkscape.org/namespaces/inkscape"
   xmlns:sodipodi="http://sodipodi.sourceforge.net/DTD/sodipodi-0.dtd"
   xmlns="http://www.w3.org/2000/svg"
   xmlns:svg="http://www.w3.org/2000/svg">
  <sodipodi:namedview
     id="namedview7"
     pagecolor="#ffffff"
     bordercolor="#666666"
     borderopacity="1.0"
     inkscape:pageshadow="2"
     inkscape:pageopacity="0.0"
     inkscape:pagecheckerboard="0"
     inkscape:document-units="px"
     showgrid="false"
     inkscape:zoom="5.6568542"
     inkscape:cx="17.589281"
     inkscape:cy="34.736621"
     inkscape:window-width="1600"
     inkscape:window-height="837"
     inkscape:window-x="-8"
     inkscape:window-y="-8"
     inkscape:window-maximized="1"
     inkscape:current-layer="layer1"
     units="px"
     width="100px" />
  <defs
     id="defs2">
    <filter
       style="color-interpolation-filters:sRGB"
       inkscape:label="Lightness-Contrast"
       id="filter1643"
       x="0"
       y="0"
       width="1"
       height="1">
      <feColorMatrix
         values="0.21 0.72 0.072 0 0 0.21 0.72 0.072 0 0 0.21 0.72 0.072 0 0 0 0 0 1 0 "
         id="feColorMatrix1641"
         result="fbSourceGraphic" />
      <feColorMatrix
         result="fbSourceGraphicAlpha"
         in="fbSourceGraphic"
         values="0 0 0 -1 0 0 0 0 -1 0 0 0 0 -1 0 0 0 0 1 0"
         id="feColorMatrix1693" />
      <feColorMatrix
         id="feColorMatrix1695"
         values="1 0 0 0.257669 -0 0 1 0 0.257669 -0 0 0 1 0.257669 -0 0 0 0 1 0"
         in="fbSourceGraphic" />
    </filter>
    <filter
       style="color-interpolation-filters:sRGB"
       inkscape:label="Lightness-Contrast"
       id="filter1647"
       x="0"
       y="0"
       width="1"
       height="1">
      <feColorMatrix
         values="0.21 0.72 0.072 0 0 0.21 0.72 0.072 0 0 0.21 0.72 0.072 0 0 0 0 0 1 0 "
         id="feColorMatrix1645"
         result="fbSourceGraphic" />
      <feColorMatrix
         result="fbSourceGraphicAlpha"
         in="fbSourceGraphic"
         values="0 0 0 -1 0 0 0 0 -1 0 0 0 0 -1 0 0 0 0 1 0"
         id="feColorMatrix1697" />
      <feColorMatrix
         id="feColorMatrix1699"
         values="1 0 0 0.257669 -0 0 1 0 0.257669 -0 0 0 1 0.257669 -0 0 0 0 1 0"
         in="fbSourceGraphic" />
    </filter>
    <pattern
       id="EMFhbasepattern"
       patternUnits="userSpaceOnUse"
       width="6"
       height="6"
       x="0"
       y="0" />
    <pattern
       id="EMFhbasepattern-4"
       patternUnits="userSpaceOnUse"
       width="6"
       height="6"
       x="0"
       y="0" />
    <pattern
       id="EMFhbasepattern-0"
       patternUnits="userSpaceOnUse"
       width="6"
       height="6"
       x="0"
       y="0" />
    <pattern
       id="EMFhbasepattern-6"
       patternUnits="userSpaceOnUse"
       width="6"
       height="6"
       x="0"
       y="0" />
  </defs>
  <g
     inkscape:label="Слой 1"
     inkscape:groupmode="layer"
     id="layer1">
    <path
       id="path2214"
       style="fill:#f3cf1c;stroke-width:1.33222"
       d="M -603.96289 1145.3027 L -603.96289 1145.3008 C -604.08122 1145.2909 -604.47113 1145.2662 -604.5957 1145.2559 C -604.33622 1145.2749 -604.22444 1145.2836 -603.96289 1145.3027 z "
       transform="scale(0.26458333)" />
    <path
       id="path2212"
       style="fill:#f3cf1c;stroke-width:1.33222"
       d="M -507.3418 1143.4258 C -515.6984 1144.0304 -524.35148 1144.6595 -530.34375 1145.1465 C -522.15924 1144.8352 -515.61319 1144.4476 -512.49609 1143.998 C -511.41727 1143.8425 -509.02432 1143.617 -507.3418 1143.4258 z "
       transform="scale(0.26458333)" />
    <g
       id="g10229"
       transform="matrix(0.06704767,0,0,0.06704767,40.608413,8.369006)">
      <path
         id="path3575"
         style="fill:#67d8f0;stroke-width:0.394707"
         d="m -484.4126,-43.43358 c 0.10582,0.07822 0.19974,0.141652 0.30798,0.222996 0.45333,0.340757 0.9263,0.708058 1.40864,1.092994 22.12481,26.529235 10.81131,81.72968 -3.16371,92.141839 -0.0644,0.04344 -0.11496,0.07251 -0.17553,0.112034 -0.024,0.03458 -0.0333,0.05682 -0.0168,0.05682 0.0394,0 0.20859,-0.05675 0.48037,-0.159204 4.40051,-1.71818 8.70724,-3.690606 12.79161,-5.927585 12.1723,-6.741118 23.0953,-15.66102 31.95935,-26.217959 0.46865,-0.558873 0.9775,-1.193559 1.50921,-1.878839 0.53173,-0.685279 1.08603,-1.420797 1.64603,-2.181165 0.55998,-0.76037 1.1256,-1.545509 1.67915,-2.329651 0.5535,-0.784135 1.09499,-1.5676867 1.6073,-2.3242905 0.51232,-0.756596 0.99544,-1.4862786 1.43179,-2.1640151 0.43636,-0.6777474 0.82625,-1.3033978 1.15189,-1.850963 0.32566,-0.5475762 0.58693,-1.0174542 0.76713,-1.3835333 0.0901,-0.1830423 0.16015,-0.3399208 0.20738,-0.467965 0.0472,-0.1280469 0.0718,-0.227117 0.0718,-0.2937547 0,-0.055598 -0.0194,-0.1362916 -0.0562,-0.2401481 -0.0368,-0.1038648 -0.0906,-0.2307454 -0.16117,-0.378446 -0.14111,-0.2953961 -0.34736,-0.6740754 -0.60593,-1.1181901 -0.25859,-0.44411482 -0.56962,-0.95378613 -0.92202,-1.51111099 -0.35244,-0.55732752 -0.74616,-1.16232791 -1.16879,-1.79735931 -0.42263,-0.6350203 -0.87449,-1.3002499 -1.3437,-1.9774703 -0.4692,-0.6772177 -0.95582,-1.3664841 -1.44799,-2.0503711 -0.49218,-0.683898 -0.98968,-1.3620655 -1.48113,-2.0171373 -0.49147,-0.6550611 -0.9765,-1.2870377 -1.44365,-1.8777661 -0.36954,-0.4673231 -0.80527,-0.9915761 -1.29308,-1.5588181 -13.52372,-14.61134 -25.8456,-24.371377 -42.8463,-31.560182 -0.33553,-0.141665 -0.60424,-0.245687 -0.89266,-0.360759 z"
         sodipodi:nodetypes="cscccscccsssssssssssssssssscccc" />
      <path
         id="path3307-2"
         style="fill:#ee9e90;stroke-width:0.352483"
         d="m -511.34713,-65.060519 c -5.78864,-0.0114 -11.60759,0.31648 -12.93567,0.99167 -0.52348,0.26616 -1.52977,0.48369 -2.23655,0.48369 -0.70678,0 -2.10296,0.22031 -3.10213,0.48938 -0.99917,0.26907 -2.76834,0.69445 -3.93155,0.94516 -3.21577,0.69311 -11.59166,3.88711 -16.54318,6.30867 -4.91043,2.40146 -12.73733,7.40741 -17.75394,11.35486 -6.12658,4.820859 -16.07822,15.058549 -19.63962,20.203919 -4.2123,6.08576 -8.37131,12.40949 -8.67908,13.19713 -0.18483,0.47313 -1.03213,1.98003 -1.88309,3.34864 -2.22742,3.58249 -5.23899,10.36516 -5.25237,11.82926 -0.0199,2.17234 6.70602,14.82969 11.98737,22.55883 8.4541,12.37239 19.47082,23.407824 30.65706,30.710264 4.09471,2.67309 9.62601,5.75625 12.83123,7.1515 1.64788,0.71732 3.39265,1.51377 3.87728,1.76991 2.50328,1.32305 14.48639,4.7811 16.56747,4.7811 0.53269,0 1.64282,0.23786 2.46705,0.52866 0.82421,0.29081 2.78699,0.54449 4.362,0.5638 1.57502,0.0193 3.26033,0.17045 3.745,0.33589 1.73048,0.59074 17.24054,-0.23519 19.14509,-1.01957 0.54573,-0.22479 1.43785,-0.40878 1.98228,-0.40878 2.24004,0 14.13452,-3.46102 16.85221,-4.90358 1.21658,-0.64574 5.33564,-2.49854 5.55469,-2.49854 0.39521,0 8.36422,-4.63118 11.27684,-6.55359 16.64864,-10.98868 32.15216,-29.688934 40.94427,-49.386154 l 1.64073,-3.67575 -0.82423,-2.00401 c -2.66639,-6.48247 -10.0358,-19.2805 -13.94076,-24.2104 -0.61426,-0.77547 -1.33567,-1.83743 -1.60301,-2.36006 -1.56316,-3.05596 -13.15281,-14.85614 -20.22512,-20.592549 -2.07325,-1.68164 -7.54824,-5.42189 -7.93647,-5.42189 -0.14803,0 -1.21353,-0.69541 -2.36781,-1.54512 -1.15427,-0.84973 -2.46821,-1.66227 -2.91973,-1.80556 -0.45148,-0.1433 -2.26067,-1.04778 -4.02042,-2.00973 -3.51443,-1.92108 -12.0142,-5.18575 -15.88894,-6.10297 -1.35705,-0.32124 -3.18111,-0.80866 -4.0535,-1.08314 -0.87238,-0.27448 -2.27063,-0.49813 -3.10732,-0.49713 -0.83666,9.6e-4 -1.86788,-0.19359 -2.29132,-0.43201 -1.20806,-0.68016 -6.96616,-1.03044 -12.75476,-1.0418 z m 1.66915,16.50133 c 0.68328,0.004 1.36104,0.0176 2.03086,0.0403 0.66984,0.0227 1.33196,0.0547 1.98437,0.0961 0.65241,0.0414 1.29495,0.0925 1.92599,0.15296 0.63105,0.0605 1.2505,0.13036 1.85623,0.21031 0.74065,0.0978 1.51823,0.21794 2.3182,0.35658 16.15684,2.662422 32.11685,12.577539 43.55547,24.100339 3.69139,3.7559 9.62552,10.87202 12.07111,14.47612 3.09142,4.55586 7.1396,11.64421 7.1396,12.50157 0,1.02788 -5.23007,10.029 -8.33178,14.33917 -33.92138,41.469831 -79.78892,53.877864 -129.71303,3.82467 -3.83567,-4.71019 -11.40955,-16.86745 -11.40653,-18.30845 0.002,-0.86259 4.91199,-9.15379 7.99846,-13.50666 14.46599,-17.80327 33.35843,-34.130419 56.07772,-37.420969 1.36229,-0.19595 2.74913,-0.36023 4.14446,-0.49091 1.39531,-0.13071 2.79937,-0.22797 4.19611,-0.29043 1.39676,-0.0625 2.78614,-0.0898 4.15274,-0.0811 z"
         sodipodi:nodetypes="ssssssssssssssssssssssssscssssssssssssscssssccsscccccsscc" />
      <path
         style="fill:#ed7869;stroke-width:0.353732"
         d="m -520.34119,71.42698 c -1.99964,-0.13683 -3.64362,-0.42842 -3.98035,-0.70596 -0.31554,-0.26006 -1.57804,-0.54954 -2.80561,-0.64329 -1.22756,-0.0937 -3.1904,-0.46191 -4.36184,-0.81813 -1.17146,-0.35622 -3.6475,-1.0845 -5.5023,-1.61838 -3.45045,-0.99319 -4.63684,-1.46677 -9.99367,-3.98933 -1.68929,-0.79549 -3.2245,-1.44635 -3.41158,-1.44635 -0.18708,0 -0.94364,-0.40665 -1.68123,-0.90367 -0.73761,-0.49702 -2.18401,-1.35029 -3.21422,-1.89617 -3.49005,-1.84927 -10.27721,-6.57894 -13.6481,-9.51075 -3.9521,-3.43733 -6.40892,-5.71018 -8.02976,-7.42846 -4.50001,-4.77057 -9.36458,-10.33986 -9.36458,-10.72121 0,-0.22953 -0.80793,-1.41289 -1.79539,-2.62969 -0.98748,-1.21679 -2.41961,-3.22498 -3.18252,-4.46263 -0.7629,-1.23766 -1.98045,-3.08849 -2.70566,-4.11296 -1.16333,-1.64342 -4.74065,-8.39497 -7.18896,-13.56789 -1.36368,-2.88122 -1.30372,-2.91526 5.27675,-2.99678 3.13002,-0.0388 6.27612,-0.0784 6.99134,-0.0881 1.2843,-0.0174 1.33085,0.0326 3.75453,4.03593 5.59345,9.23898 10.60471,15.93927 16.99197,22.71912 3.73751,3.96723 12.41722,10.90377 17.83503,14.25316 3.43373,2.1228 12.77101,6.73563 13.63427,6.73563 0.39708,0 1.73718,0.30778 2.97801,0.68396 3.14708,0.95408 8.91663,2.33279 11.66321,2.78707 3.10093,0.51289 7.02987,0.76574 11.18208,0.4296 9.97682,-0.37773 22.94248,-2.31546 31.06132,-5.92549 17.1938,-8.02238 33.43343,-23.67497 43.8087,-42.22505 2.02711,-3.62427 2.73602,-4.29528 3.95516,-3.74372 0.56815,0.25703 3.08177,0.40841 6.78179,0.40841 h 5.87906 l -0.23906,0.96933 c -0.13148,0.53313 -0.60894,1.76241 -1.06107,2.73174 -0.4521,0.96933 -0.94049,2.15896 -1.08532,2.64362 -0.14482,0.48467 -0.38842,1.03983 -0.54133,1.2337 -0.1529,0.19386 -0.90511,1.54211 -1.67159,2.9961 -1.79519,3.40551 -2.7825,5.05069 -4.33655,7.2262 -0.69255,0.96949 -1.54841,2.32889 -1.90194,3.02088 -0.35351,0.69199 -1.5516,2.38492 -2.66239,3.76207 -1.11081,1.37715 -2.39177,3.11995 -2.8466,3.87289 -0.45482,0.75295 -1.34492,1.91499 -1.97801,2.58233 -0.63307,0.66734 -2.46993,2.72021 -4.08189,4.56193 -1.61196,1.84173 -3.35763,3.72477 -3.87927,4.18456 -0.52163,0.45978 -1.9308,1.72872 -3.13148,2.81986 -3.16839,2.87937 -10.55401,8.85732 -10.94299,8.85732 -0.0985,0 -1.17902,0.67454 -2.40116,1.49899 -1.22217,0.82444 -2.62149,1.70321 -3.10959,1.95283 -0.48812,0.24962 -1.68619,0.92356 -2.66241,1.49766 -0.9762,0.57409 -2.11001,1.18907 -2.51954,1.3666 -0.40954,0.17754 -2.16671,0.98242 -3.90485,1.78862 -1.73814,0.8062 -3.95897,1.83455 -4.93518,2.28522 -0.9762,0.45066 -3.29249,1.23877 -5.1473,1.75134 -1.85481,0.51257 -4.33084,1.22864 -5.5023,1.59125 -1.17145,0.36261 -3.10242,0.73473 -4.29102,0.82693 -1.18861,0.0922 -2.67418,0.43108 -3.30124,0.75306 -0.95402,0.48987 -2.62943,0.60615 -10.26342,0.71234 -5.01782,0.0698 -10.6563,0.022 -12.52995,-0.10622 z"
         id="path1958"
         sodipodi:nodetypes="ssssssssssssssssssssssssccssscsssssssssssssssssssssssssss" />
      <path
         style="fill:#426fd8;stroke-width:0.352483"
         d="m -514.04097,54.43387 c -7.29863,-0.35163 -16.97988,-2.1291 -20.83666,-3.88315 -3.22606,-1.4672 -11.71334,-10.11448 -15.00993,-15.092 -6.67999,-10.08611 -9.77702,-20.40647 -9.79351,-32.6354 -0.0203,-15.02039 5.61136,-29.15251 15.63288,-39.22958 5.6234,-5.65456 8.39336,-7.90992 10.70266,-8.71429 8.58854,-2.99156 21.77374,-4.22654 31.46523,-2.94713 5.92533,0.78221 14.21156,2.99614 17.44134,4.66 1.56659,0.80705 5.90379,4.84091 8.43068,7.84107 17.53215,20.81573 18.39488,52.4981 2.03005,74.55017 -2.23176,3.00736 -8.44905,9.26605 -10.0102,10.07688 -4.08987,2.12415 -12.16889,4.26659 -19.12556,5.07182 -4.33083,0.5013 -5.8893,0.54432 -10.92698,0.30161 z m 20.21353,-51.79555 c 6.14664,-1.75252 10.441,-6.2994 11.70639,-12.39473 0.63178,-3.04326 0.26956,-8.28279 -0.7365,-10.65343 -1.70019,-4.00631 -4.48856,-7.1529 -7.90491,-8.92046 -1.96164,-1.01492 -2.40741,-1.10271 -5.65435,-1.11354 -4.14271,-0.0138 -5.81717,0.58627 -8.47699,3.038 -2.64444,2.43756 -3.94516,4.79954 -4.95834,9.00384 -0.95281,3.95378 -0.94214,5.02316 0.0957,9.5856 1.29645,5.69937 4.97382,9.80867 10.14585,11.33754 2.70864,0.80068 3.34095,0.81349 5.78316,0.11718 z"
         id="path1956-7-9"
         sodipodi:nodetypes="ssssssssssssssssssssssss" />
      <path
         style="fill:#093599;stroke-width:0.352483"
         d="m -509.94819,54.51884 c -0.14513,-2.30456 -0.49529,-11.558535 -0.49264,-13.186451 l 0.026,-11.79961 -0.8014,-0.50036 c -0.44077,-0.2752 -1.83242,-0.59976 -3.09254,-0.72125 -1.72815,-0.1666 -3.11397,-0.62725 -5.63973,-1.87466 -2.77806,-1.37201 -3.85907,-2.16729 -6.3447,-4.6677 -4.87403,-4.90299 -7.26979,-10.22063 -7.64627,-16.9716995 -0.33094,-5.93447 0.68059,-10.07425 3.72548,-15.2468355 1.88904,-3.20905 5.91237,-7.25475 8.85556,-8.904802 2.05163,-1.15022 5.93053,-2.601029 6.96294,-2.604329 0.33849,-0.0011 1.20582,-0.165928 1.92739,-0.366328 1.955,-0.542955 2.07963,-1.406224 2.01589,-13.963896 -0.0444,-8.740499 0.0358,-10.839486 0.42361,-11.085188 0.71066,-0.45029 3.56317,-0.377834 7.96107,0.202219 4.40839,0.581439 5.76587,0.875773 11.02264,2.389987 4.75175,1.368745 5.92694,1.976045 9.27324,4.792107 6.56498,5.524728 12.09821,14.132781 15.34693,23.8752 2.69982,8.0963805 3.96255,19.1885855 2.90886,25.5522452 -0.17442,1.0533898 -0.50403,3.1048998 -0.73246,4.5588898 -1.19484,7.6053 -4.6488,16.19851 -9.27987,23.08764 -2.10779,3.13554 -8.42753,9.77958 -11.2404,11.81721 -2.46233,1.7837 -11.42458,4.469883 -18.451,5.240623 -2.2568,0.221179 -4.67987,0.66393 -6.7286,0.376988 z m 17.33684,-51.4595705 c 3.4676,-1.1835 5.47832,-2.48689 7.26508,-4.70939 2.25924,-2.81021 3.39033,-5.25063 4.05138,-8.7411955 1.09442,-5.77886 -0.59503,-11.404133 -4.76329,-15.860013 -6.8172,-7.287616 -15.9806,-6.722399 -21.94678,1.353722 -1.74114,2.356896 -3.13402,7.320461 -3.12622,11.140351 0.0238,11.6599855 9.20414,19.9959855 18.51983,16.8165255 z"
         id="path1954"
         sodipodi:nodetypes="cccsssssssssssssssssssccsssssss" />
      <path
         style="fill:#061f5a;stroke-width:0.352483"
         d="m -513.12762,27.334487 c -5.11321,-0.74488 -8.87853,-2.66222 -12.72489,-6.47967 -4.86156,-4.82501 -7.23288,-10.700749 -7.30565,-18.1022299 -0.0443,-4.50433 0.78407,-7.86499 3.00536,-12.1928898 1.9324,-3.7650413 6.17288,-8.0696003 9.69854,-9.8450933 2.46242,-1.240056 7.33582,-2.688008 9.04706,-2.688008 1.10455,0 1.16347,0.607868 0.33508,3.457398 -0.84255,2.898273 -0.50876,8.248833 0.71617,11.4799231 3.12866,8.2527301 10.79681,12.62646 17.64492,10.06425 2.35293,-0.88034 3.57918,-0.80881 3.44838,0.20114 -0.78101,6.0302505 -1.91611,10.2339699 -3.72947,13.8116899 -1.24903,2.46431 -5.16796,6.36175 -8.17322,8.12841 -4.12512,2.42497 -6.8245,2.91354 -11.96228,2.16508 z"
         id="path1950"
         sodipodi:nodetypes="sssssssssssss" />
      <path
         style="fill:#f70302;stroke-width:0.352495"
         d="m -421.54926,98.882527 c -1.00763,-0.443915 -1.51142,-0.470344 -2.74897,-0.14426 -1.73083,0.45605 -2.25672,0.26832 -4.43015,-1.581435 -0.74962,-0.63799 -2.04323,-1.391769 -2.87469,-1.675079 -0.83146,-0.28331 -3.23196,-1.88875 -5.33445,-3.56765 -2.10249,-1.67889 -4.75831,-3.795387 -5.90182,-4.703317 -2.93669,-2.33171 -7.84354,-6.62627 -12.37318,-10.82922 -10.71229,-9.93972 -13.21856,-11.55957 -13.21856,-8.54343 0,0.86252 0.54443,1.59787 2.90809,3.92785 1.59944,1.57667 3.18112,3.34254 3.51485,3.92415 0.33372,0.58162 0.80398,1.32747 1.04501,1.65745 1.54075,2.10926 -3.16614,-0.3484 -6.68144,-3.48867 -1.47685,-1.31929 -4.30928,-3.90563 -6.2943,-5.74742 -1.98501,-1.84178 -4.13543,-3.82457 -4.7787,-4.40618 -0.64328,-0.58162 -3.50985,-3.47648 -6.37016,-6.43304 -15.60733,-14.89763 -10.79406,-19.5844 -27.02567,-32.69975 l -12.90038,-1.606848 -9.65549,9.905286 c -6.80887,6.985033 -3.52873,3.398383 -9.41765,9.37612 -4.65043,4.259112 -10.35011,10.90868 -16.07304,13.818252 -0.607,0.25708 -3.6529,2.55957 -6.7686,5.11666 -3.1156,2.55709 -6.3786,5.10781 -7.2511,5.66828 -0.8724,0.56046 -1.9881,1.29084 -2.4793,1.62307 -2.5186,1.70334 -15.603,8.4856 -16.0441,8.31635 -0.8187,-0.31416 -0.6059,-0.91809 0.8987,-2.55037 1.3423,-1.45625 1.41,-1.63916 1.41,-3.81215 0,-1.25538 -0.1792,-2.6758 -0.3982,-3.15651 -0.547,-1.20032 -2.0628,-1.76051 -3.9843,-1.47236 -1.1118,0.16672 -1.8787,0.0774 -2.6183,-0.30509 -1.6961,-0.87712 -4.7609,-1.10292 -5.7326,-0.42236 -0.9618,0.6737 -2.4239,0.75968 -2.4239,0.14255 0,-0.42467 2.7997,-3.19045 7.5323,-7.44098 1.3316,-1.19597 4.5808,-4.55384 7.2204,-7.46192 2.6397,-2.90808 4.8813,-5.36673 4.9813,-5.46367 0.9815,-0.95075 4.6745,-5.41763 5.3915,-6.52116 0.8187,-1.26015 3.7644,-4.27063 13.6672,-13.96785 4.0293,-3.94558 8.25455,-8.654528 8.87595,-10.640218 0.4154,-1.32722 2.20505,-2.29153 7.57075,-7.6004012 10.021,-9.91475 10.29924,-11.3121109 7.63144,-14.3490909 -0.8273,-0.9418505 -2.1306,-2.5055789 -2.8961,-3.4749379 -0.7655,-0.969361 -1.4858,-1.841791 -1.6006,-1.938721 -0.1148,-0.0969 -1.4169,-1.5427 -2.8936,-3.2128 -1.7149,-1.93958 -3.74764,-3.200601 -3.98954,-4.075451 -0.2788,-1.00793 -1.2399,-2.22334 -3.6396,-4.60217 -7.7577,-7.69042 -14.341,-14.41162 -14.3522,-14.65286 -0.016,-0.33931 -2.7631,-3.40004 -7.2056,-8.02791 -7.8533,-8.18094 -13.9563,-14.75701 -13.9563,-15.03818 0,-0.1634 0.3346,-0.50607 0.7436,-0.76149 1.1761,-0.73446 0.6153,-2.30152 -1.7936,-5.01196 -1.5934,-1.7929 -2.1927,-2.77504 -2.4826,-4.06875 -0.2102,-0.93794 -0.6911,-2.20506 -1.0685,-2.8158 -1.0917,-1.76631 -0.8131,-1.771029 1.0611,-0.018 1.893,1.770691 2.9445,2.04226 3.5471,0.916151 0.5973,-1.115931 -0.2664,-3.03988 -2.7436,-6.111481 -1.3955,-1.730509 -0.6156,-1.40309 1.5303,0.642421 2.2854,2.17855 3.1002,2.57966 3.8969,1.91848 0.9291,-0.77111 -0.4328,-5.070931 -2.2683,-7.161461 -1.6258,-1.85167 -3.5948,-4.966904 -3.5948,-5.687404 0,-0.51474 0.3186,-0.3494 1.4981,0.777501 2.0933,1.999964 3.0753,2.592144 4.3083,2.598153 1.3614,0.007 1.0297,-0.19193 11.4721,6.86845 4.8746,3.29583 9.207,6.22457 9.6276,6.50831 2.0502,1.38312 5.2846,3.96488 7.9909,6.37845 5.1482,4.59141 8.7091,7.3817 9.4204,7.3817 0.9599,0 1.1886,-0.3351 0.7667,-1.12338 -0.9325,-1.74234 0.1918,-1.06059 4.0193,2.43733 2.2853,2.08848 6.3602,6.23164 9.0554,9.20705 2.6952,2.97539 4.91214,5.935505 4.24651,5.99241 -3.74804,0.32042 3.62372,6.18889 5.29712,8.19035 3.7981,2.99625 9.13677,4.11382 11.92697,6.93456 8.93406,-4.055763 18.79564,-18.096132 26.07055,-25.207872 4.18805,-4.11977 8.21374,-7.384098 11.70207,-9.286908 2.14516,-1.17014 4.86984,-3.13919 7.55746,-5.46157 1.16323,-1.00515 3.22532,-2.34529 4.58243,-2.97809 1.3571,-0.6328 3.71644,-2.09593 5.24298,-3.2514 2.63961,-1.99797 2.84673,-2.08877 4.22994,-1.85426 0.79993,0.13562 1.95187,0.32774 2.55987,0.42693 0.84082,0.13717 1.89263,-0.21081 4.3937,-1.45358 1.80854,-0.89866 3.55016,-1.87095 3.87029,-2.16066 0.71134,-0.64376 5.98362,-1.311009 6.48491,-0.820719 0.22443,0.21951 0.22443,0.500739 0,0.80661 -0.18951,0.25827 -0.6592,0.92805 -1.04374,1.4884 -0.38454,0.56033 -2.12593,3.00158 -3.86976,5.42498 -3.17399,4.41092 -8.13772,11.82797 -11.1171,16.61175 -0.87242,1.40078 -2.17241,3.29651 -2.88885,4.21271 -0.71645,0.91621 -1.52837,2.19696 -1.80426,2.84613 -0.27589,0.64916 -1.27594,2.15754 -2.22232,3.35194 -0.94638,1.19441 -3.06898,3.86205 -4.7169,5.9281 -1.64791,2.06605 -3.23414,4.11866 -3.52495,4.56135 -0.2908,0.44269 -0.83277,1.2376 -1.20436,1.76645 -10.69881,11.444098 -13.6598,17.862393 -20.61434,31.0965682 1.46328,14.6883628 18.57891,32.4184008 23.53559,40.6412308 0.55654,0.9045 1.12948,2.0324 1.2732,2.50645 0.14372,0.47405 0.64832,1.25847 1.12134,1.74315 0.47301,0.48468 1.90628,2.30884 3.18505,4.05369 1.27877,1.74485 3.00025,3.96556 3.8255,4.93493 0.82526,0.96936 1.89732,2.63489 2.38236,3.70119 0.48505,1.0663 1.89363,3.12839 3.13018,4.58244 1.23656,1.45404 3.13007,3.83338 4.20781,5.28742 2.98155,4.02257 5.9103,7.42817 11.21615,13.04231 2.65677,2.81115 5.75164,6.14222 6.87749,7.40239 1.12584,1.26017 4.5639,4.841927 7.64013,7.959457 3.07623,3.11754 5.59315,5.933094 5.59315,6.256794 0,0.71914 -0.8161,0.71501 -2.46747,-0.0125 z"
         id="path1836-1-9"
         sodipodi:nodetypes="sssssssssssssscccsccssssssssssssscsssssssssscsssssssssssssscsssssssscccsssssssssssssssssscccsssssssssssss" />
      <path
         style="fill:#490302;stroke-width:0.352495"
         d="m -491.2734,51.756636 c 0,-0.37367 -5.39124,-6.65156 -11.80858,-13.75063 -2.32647,-2.57362 -4.97971,-5.62648 -5.8961,-6.78414 -0.91639,-1.15766 -2.02675,-2.38552 -2.46746,-2.72858 -1.19443,-0.92974 -4.24231,-2.48681 -4.86781,-2.48681 -0.30094,0 -1.84583,-0.64531 -3.4331,-1.43403 -1.67174,-0.83069 -3.25614,-1.38683 -3.76586,-1.32185 -0.59789,0.0762 -4.00466,3.16263 -10.62903,9.62953 -5.362,5.23455 -9.94182,9.56407 -10.17737,9.62116 -0.50944,0.12347 -3.56813,-3.58169 -6.16943,-7.47337 -3.35659,-5.02165 -7.37836,-14.60373 -7.984,-19.02234 -0.20528,-1.49769 -0.12118,-1.74692 1.11357,-3.30009 0.73459,-0.92403 4.14266,-4.4559414 7.57349,-7.8487114 6.27572,-6.20607 8.4574,-8.75469 8.4574,-9.87981 0,-0.60811 -5.57744,-7.4838486 -10.46136,-12.8965086 -1.41952,-1.5732 -2.58095,-3.04574 -2.58095,-3.2723 0,-1.29301 4.4985,-8.56412 7.79291,-12.59598 3.08923,-3.78076 9.0715,-9.041548 12.00872,-10.560448 0.92717,-0.47946 1.02039,-0.4492 1.98971,0.64573 8.53297,9.638748 8.86102,9.933708 10.71776,9.636798 1.58843,-0.254 2.04321,-0.0454 4.53171,2.07876 1.02726,0.87685 2.14929,1.59428 2.49341,1.59428 0.88425,0 2.79772,-1.77508 4.36232,-4.04681 0.73403,-1.06577 1.69796,-2.17585 2.14206,-2.46684 0.44411,-0.291 1.7024,-1.6507 2.79619,-3.02157 2.44514,-3.064538 6.06359,-6.958628 6.8642,-7.387098 0.40261,-0.21548 2.06147,0.0665 5.1416,0.87401 6.12383,1.60546 8.19371,2.36546 11.75133,4.314788 1.66003,0.90959 3.65273,1.98618 4.42822,2.39243 4.54673,2.38186 5.81616,3.12859 5.81616,3.4213 0,0.1798 -0.43621,0.89529 -0.96936,1.58998 -0.53315,0.69468 -1.36592,1.94377 -1.8506,2.77575 -0.48468,0.83197 -2.61753,3.60989 -4.73968,6.17314 -3.34898,4.0451 -3.90749,4.577 -4.22994,4.02838 -1.53729,-2.61561 -3.63641,-4.95907 -5.54971,-6.1957 -2.80341,-1.81193 -4.38163,-2.20914 -8.04034,-2.02361 -3.64526,0.18486 -5.76272,1.14319 -8.139,3.68364 -4.2256,4.51749 -5.7568,10.467 -4.37925,17.0156184 1.61088,7.6578802 6.91527,12.3406502 13.99555,12.3554202 1.10332,0.002 2.11563,0.1815 2.24957,0.39822 0.15426,0.24959 0.81348,0.31591 1.79838,0.18092 l 1.55484,-0.21312 -0.22664,1.20809 c -0.48426,2.58134 0.99436,5.10646 8.3415,14.2453104 1.36262,1.6949 3.14538,4.53597 4.29677,6.84747 1.08234,2.17286 2.69716,4.80327 3.58849,5.84537 0.89134,1.04209 1.90795,2.46969 2.25915,3.17245 0.3512,0.70276 1.21771,2.28432 1.92558,3.51459 0.70786,1.23027 1.2069,2.3665 1.10896,2.52498 -0.37755,0.61088 -5.15421,3.54076 -8.98706,5.51242 -2.20579,1.13469 -4.73396,2.44907 -5.61815,2.92085 -2.00308,1.06879 -6.6856,2.84043 -7.5119,2.84214 -0.33928,7e-4 -0.61687,-0.14923 -0.61687,-0.333179 z m -26.06747,-28.1295 c -0.88661,-1.51859 -2.07429,-2.61842 -2.69789,-2.49833 -1.18081,0.22741 -0.99485,1.28032 0.32341,1.83112 0.66758,0.27893 1.32182,0.68196 1.45386,0.89561 0.13205,0.21365 0.47424,0.38846 0.76042,0.38846 0.39777,0 0.43551,-0.14531 0.1602,-0.61686 z"
         id="path1832"
         sodipodi:nodetypes="sssssssssssssssssssssssssssssssssssssscsscsssssssssssssssss" />
      <path
         style="fill:#1e1213;stroke-width:0.352495"
         d="m -495.39681,46.563836 c -2.37679,-2.74301 -5.83311,-6.65282 -7.68073,-8.68848 -1.84761,-2.03566 -4.31839,-4.87876 -5.49062,-6.31802 -1.17223,-1.43925 -2.47458,-2.88387 -2.89412,-3.21027 -1.16317,-0.90494 -4.21346,-2.45653 -4.82931,-2.45653 -0.30094,0 -2.0563,-0.6687 -3.64357,-1.45742 l -6.74073,-3.97503 c -3.33177,-3.9044 -5.38362,-7.81071 -6.31544,-12.9510514 -0.67555,-3.72665 -0.63924,-5.6538701 0.18368,-9.74941 1.05048,-5.22805 3.44586,-9.5117086 7.61989,-13.6266486 2.82969,-2.78963 6.43087,-4.70236 11.19961,-5.94857 l 3.17187,-0.8289 0.43979,-1.90423 c -3.17192,-6.34238 -3.72289,-5.58656 2.72817,-13.18407 0.97455,-0.96936 2.6729,-2.87283 3.77412,-4.22994 1.10123,-1.3571 2.61913,-3.06732 3.37313,-3.80049 1.3401,-1.30308 1.39406,-1.32094 2.40208,-0.79528 0.56715,0.29575 1.35344,0.53872 1.74731,0.53991 1.10585,0.004 8.9187,2.32654 11.16504,3.31998 3.05322,1.35028 5.26613,3.11205 8.02686,6.39048 1.3809,1.63984 2.7526,2.98153 3.04822,2.98153 0.83679,0 -0.56036,2.11077 -4.80276,7.25588 -3.14933,3.81945 -3.71944,4.36416 -3.82359,3.65319 -0.17515,-1.19571 -1.88187,-3.54668 -3.8014,-5.23631 -5.15153,-4.53456 -11.71181,-5.11617 -17.02794,-1.50962 -2.45246,1.66379 -5.76851,6.06808 -6.48221,8.60952 -1.17652,4.18946 -1.34636,6.4097 -0.76618,10.01523 0.8318,5.1691686 3.41456,9.60754856 7.0438,12.1045385 2.85765,1.9661101 7.43981,3.1487501 9.30787,2.4023301 0.50661,-0.20242 1.75578,-0.39998 2.77593,-0.43901 l 1.85481,-0.071 -0.21575,1.1501 c -0.47195,2.51566 1.05735,5.11332 8.35237,14.1873314 1.36262,1.6949 3.14538,4.53597 4.29677,6.84747 1.08234,2.17286 2.69716,4.80327 3.58849,5.84537 0.89134,1.04209 1.91341,2.50075 2.27129,3.24146 0.64624,1.33757 0.64564,1.34748 -0.0891,1.45399 -0.40688,0.059 -1.11047,0.65859 -1.56353,1.33246 -2.10248,3.12717 -6.82958,8.4064 -8.62685,9.63446 -1.08047,0.73828 -3.38242,1.84864 -5.11545,2.46746 -1.73303,0.61883 -3.37359,1.30733 -3.64568,1.52999 -0.40051,0.32775 -1.31768,-0.54491 -4.81614,-4.58243 z m -21.9223,-23.05264 c -0.88661,-1.51859 -2.07429,-2.61842 -2.69789,-2.49833 -1.18081,0.22741 -0.99485,1.28032 0.32341,1.83112 0.66758,0.27893 1.32182,0.68196 1.45386,0.89561 0.13205,0.21365 0.47424,0.38846 0.76042,0.38846 0.39777,0 0.43551,-0.14531 0.1602,-0.61686 z"
         id="path1830"
         sodipodi:nodetypes="sssssccsssscccssscsssssssssssscssssssssssssssssss" />
      <path
         id="path2224"
         style="fill:#f3cf1c;stroke-width:0.352483"
         d="m -301.43087,-34.537217 c -0.70829,-0.0079 -1.424,-0.0025 -2.14613,0.01654 -0.72212,0.01908 -1.45066,0.05156 -2.18643,0.09767 -0.73576,0.0461 -1.47856,0.105627 -2.22777,0.1788 -0.74921,0.07318 -1.50511,0.16016 -2.26756,0.26045 -0.76245,0.100288 -1.53135,0.214133 -2.30684,0.34158 -0.77548,0.12745 -1.55726,0.268579 -2.34559,0.42323 -0.78833,0.154654 -1.58338,0.322977 -2.38435,0.504878 -0.80097,0.181904 -1.60815,0.377333 -2.42156,0.586528 -0.8134,0.209198 -1.63312,0.432158 -2.45876,0.668695 -0.82564,0.236535 -1.65726,0.486421 -2.49494,0.75034 -0.83768,0.263922 -1.68108,0.541676 -2.53059,0.833025 -1.26013,0.432175 -2.72872,0.962318 -4.07986,1.468643 -1.35114,0.506328 -2.5851,0.988934 -3.37499,1.324983 -0.64741,0.275434 -1.29006,0.559308 -1.92804,0.851628 -0.63799,0.29232 -1.2713,0.592794 -1.89963,0.901756 -0.62833,0.308959 -1.25172,0.626522 -1.87017,0.951878 -0.61845,0.325355 -1.23185,0.658953 -1.8402,1.000456 -1.21669,0.683011 -2.41294,1.397918 -3.58789,2.144056 -1.17496,0.746138 -2.32883,1.523304 -3.46025,2.330606 -1.13143,0.807302 -2.24031,1.644457 -3.32642,2.510959 -1.08611,0.866503 -2.14942,1.7624 -3.18843,2.68614 -1.03901,0.92374 -2.05362,1.875592 -3.04374,2.854606 -0.99012,0.979026 -1.95547,1.985066 -2.89492,3.017396 -0.93944,1.03232 -1.85342,2.09081 -2.7404,3.17448 -0.88698,1.08368 -1.74695,2.19232 -2.57969,3.32538 -0.83273,1.13306 -1.63813,2.29062 -2.41484,3.4711 -0.7767,1.180492 -1.52491,2.384182 -2.24379,3.610122 -0.71888,1.22594 -1.4083,2.474 -2.06757,3.74344 -0.65927,1.26944 -1.28831,2.56011 -1.88619,3.87108 -0.59788,1.31097 -1.16442,2.6425 -1.69912,3.99304 -0.5347,1.35053 -1.03767,2.72013 -1.5074,4.10828 -0.25359,0.7494 -0.50398,1.56872 -0.74828,2.44015 -0.2443,0.87142 -0.48239,1.79509 -0.71107,2.75229 -0.22868,0.9572 -0.44802,1.94813 -0.65474,2.95486 -0.20671,1.00674 -0.40088,2.0294 -0.57929,3.04943 -0.17841,1.02003 -0.34095,2.03736 -0.48472,3.03443 -0.14378,0.99709 -0.26877,1.97356 -0.37156,2.91146 -0.10279,0.93789 -0.18327,1.83747 -0.23874,2.67993 -0.0555,0.84246 -0.086,1.62809 -0.0879,2.33887 -0.002,0.79585 0.0235,1.60793 0.0749,2.43035 0.0514,0.82242 0.12889,1.655 0.23099,2.49235 0.1021,0.83735 0.22872,1.6791 0.37879,2.51974 0.15007,0.84065 0.32352,1.68022 0.51883,2.51251 0.19531,0.83229 0.41279,1.65733 0.65061,2.46962 0.23781,0.81229 0.49601,1.61196 0.7736,2.39262 0.27758,0.78065 0.57421,1.5426 0.88883,2.27997 0.31462,0.73737 0.64739,1.44973 0.99632,2.13217 0.31395,0.61402 0.64933,1.22079 1.00562,1.81952 0.35629,0.59875 0.73319,1.18977 1.13017,1.77199 0.39698,0.58219 0.81403,1.15586 1.25005,1.72029 0.43602,0.56444 0.89137,1.11961 1.36477,1.66503 0.47341,0.54541 0.96467,1.08095 1.47382,1.6061 0.50914,0.52514 1.03599,1.03994 1.57923,1.54358 0.54323,0.50363 1.1033,0.99602 1.67897,1.4769 0.57567,0.48091 1.16708,0.95025 1.77353,1.40716 0.60646,0.45688 1.22786,0.90159 1.86345,1.33324 0.63559,0.43166 1.28513,0.85005 1.9482,1.25523 0.66308,0.40518 1.3394,0.79714 2.0283,1.17459 0.68891,0.37746 1.39066,0.74036 2.10375,1.08884 0.71309,0.34849 1.43789,0.68218 2.17351,1.00044 0.73562,0.31827 1.48161,0.62114 2.23811,0.90798 0.7565,0.2868 1.52336,0.55771 2.29908,0.81182 0.77573,0.25413 1.56056,0.49141 2.35387,0.71159 1.00195,0.27808 2.03389,0.54571 3.09386,0.80201 1.05997,0.2563 2.14795,0.50165 3.26182,0.73588 1.11387,0.23424 2.2537,0.45731 3.41736,0.66921 1.16366,0.21188 2.35117,0.41228 3.56051,0.60151 1.20933,0.18925 2.44034,0.3675 3.69124,0.53382 1.2509,0.16629 2.52175,0.32097 3.81011,0.46405 1.28835,0.14309 2.59434,0.27422 3.91604,0.39378 1.32169,0.11954 2.65916,0.22723 4.01009,0.32298 1.35092,0.0957 2.71518,0.17949 4.09122,0.25114 1.37605,0.0717 2.76394,0.13105 4.16099,0.17828 1.39705,0.0472 2.80337,0.0823 4.21731,0.10491 1.41395,0.0226 2.83555,0.0329 4.26227,0.0305 1.42673,-0.002 2.8584,-0.0173 4.2938,-0.045 1.43539,-0.0277 2.8745,-0.0682 4.31445,-0.12144 1.43996,-0.0532 2.88078,-0.11933 4.32119,-0.19844 1.4404,-0.0791 2.88031,-0.17121 4.31705,-0.27646 1.30661,-0.0957 2.62941,-0.21066 3.95686,-0.34261 1.32745,-0.13195 2.65964,-0.28085 3.98425,-0.44492 1.32462,-0.1641 2.6417,-0.34325 3.93981,-0.53539 1.29811,-0.19211 2.57715,-0.39732 3.82509,-0.61338 1.24795,-0.21609 2.46495,-0.44312 3.63906,-0.67903 1.17411,-0.23593 2.30509,-0.48059 3.3817,-0.73226 1.07661,-0.25167 2.09864,-0.51027 3.05408,-0.77361 0.95544,-0.26332 1.84452,-0.53166 2.65514,-0.80254 0.64987,-0.21714 1.32029,-0.46797 2.00452,-0.74877 0.68424,-0.28083 1.38229,-0.59163 2.0867,-0.9276 0.7044,-0.33597 1.41507,-0.69742 2.12545,-1.08003 0.71039,-0.38264 1.42018,-0.78639 2.12235,-1.20716 0.70218,-0.42077 1.3971,-0.85855 2.07688,-1.30897 0.67978,-0.4504 1.34481,-0.91337 1.98799,-1.38494 0.64319,-0.47154 1.26433,-0.95136 1.85674,-1.43555 0.5924,-0.48421 1.15566,-0.97308 1.6831,-1.46143 0.54594,-0.50546 1.06793,-1.01486 1.56683,-1.5296 0.4989,-0.51475 0.97489,-1.03471 1.42833,-1.56115 0.45345,-0.52647 0.88439,-1.05934 1.29398,-1.59991 0.40959,-0.54057 0.79798,-1.08879 1.16531,-1.64589 0.36732,-0.55711 0.71359,-1.12305 1.04024,-1.69913 0.32665,-0.57605 0.63331,-1.16213 0.92088,-1.75959 0.28757,-0.59743 0.55607,-1.20605 0.80615,-1.82726 0.25008,-0.62122 0.4819,-1.25532 0.69608,-1.90273 0.25376,-0.76705 0.45001,-1.38419 0.60151,-1.94407 0.15151,-0.55988 0.25824,-1.06213 0.33332,-1.5999 0.0751,-0.53778 0.11865,-1.11105 0.14314,-1.81178 0.0245,-0.70073 0.0302,-1.52889 0.03,-2.57762 -2.5e-4,-0.67952 -0.0182,-1.35826 -0.0532,-2.03553 -0.0351,-0.67727 -0.0876,-1.35312 -0.1571,-2.02727 -0.0695,-0.67415 -0.15585,-1.34676 -0.25941,-2.01693 -0.10356,-0.67017 -0.22395,-1.33818 -0.36122,-2.0035 -0.13727,-0.66532 -0.29137,-1.32787 -0.46199,-1.98747 -0.17061,-0.65961 -0.35812,-1.31637 -0.56172,-1.96939 -0.2036,-0.65302 -0.42317,-1.30211 -0.65939,-1.94769 -0.23622,-0.64557 -0.4891,-1.28768 -0.75758,-1.92494 -0.26847,-0.63727 -0.55281,-1.27 -0.85317,-1.89808 -0.30038,-0.62808 -0.61637,-1.2511 -0.94827,-1.86914 -0.3319,-0.61803 -0.67976,-1.231 -1.04283,-1.83812 -0.36307,-0.60713 -0.74146,-1.20868 -1.13533,-1.80403 -0.39387,-0.59535 -0.803,-1.18463 -1.22731,-1.76733 -0.42432,-0.5827 -0.86387,-1.15888 -1.31827,-1.72806 -0.4544,-0.56919 -0.92355,-1.1314 -1.40767,-1.68621 -0.48411,-0.55481 -0.98308,-1.10219 -1.49655,-1.64176 -0.82255,-0.86436 -1.82904,-1.85919 -2.78742,-2.76623 -0.47919,-0.45353 -0.94613,-0.88502 -1.37253,-1.26711 -0.4264,-0.38209 -0.81181,-0.71508 -1.12758,-0.971 -0.34427,-0.27902 -0.6525,-0.53556 -0.92914,-0.77722 -0.27665,-0.24165 -0.52206,-0.46836 -0.74001,-0.68832 -0.21794,-0.21997 -0.40854,-0.43305 -0.57671,-0.64699 -0.16816,-0.21394 -0.31401,-0.42857 -0.44132,-0.65216 -0.12731,-0.22359 -0.23638,-0.45596 -0.33176,-0.70487 -0.0954,-0.2489 -0.17672,-0.51419 -0.24908,-0.80408 -0.0724,-0.28989 -0.13551,-0.6043 -0.19379,-0.95085 -0.0583,-0.34654 -0.11174,-0.72525 -0.16484,-1.14411 -0.12912,-1.01836 -0.25269,-1.87749 -0.39533,-2.66186 -0.0713,-0.39218 -0.14773,-0.76549 -0.23151,-1.1312 -0.0838,-0.3657 -0.1752,-0.72361 -0.2775,-1.08417 -0.20461,-0.72112 -0.45238,-1.45342 -0.7674,-2.28203 -0.31502,-0.828612 -0.69711,-1.753462 -1.17098,-2.860292 -0.40089,-0.93634 -0.94607,-2.10636 -1.56167,-3.37033 -0.61559,-1.26398 -1.30179,-2.62168 -1.98592,-3.9331 -0.68413,-1.31141 -1.366,-2.57693 -1.97249,-3.65559 -0.6065,-1.078646 -1.13764,-1.970583 -1.52032,-2.536273 -0.32787,-0.484661 -1.53175,-2.303216 -2.67529,-4.041097 -0.3712,-0.564124 -0.75124,-1.115045 -1.1405,-1.65313 -0.38926,-0.538086 -0.78764,-1.063094 -1.19476,-1.575097 -0.40712,-0.512003 -0.82321,-1.011192 -1.24798,-1.497065 -0.42478,-0.485876 -0.85847,-0.958818 -1.3007,-1.418519 -0.44223,-0.459703 -0.89288,-0.90597 -1.35237,-1.339453 -0.45949,-0.433485 -0.92751,-0.854199 -1.40405,-1.261422 -0.47655,-0.407223 -0.96181,-0.800925 -1.45521,-1.181841 -0.4934,-0.380915 -0.99528,-0.748728 -1.50533,-1.103291 -0.51006,-0.354563 -1.02793,-0.696061 -1.55443,-1.024226 -0.52651,-0.328165 -1.06128,-0.642922 -1.60404,-0.944647 -0.54276,-0.301723 -1.0938,-0.590344 -1.65261,-0.865579 -0.55881,-0.275236 -1.1255,-0.537295 -1.70016,-0.785998 -0.57465,-0.248706 -1.15738,-0.484288 -1.74769,-0.706419 -0.59031,-0.222128 -1.18845,-0.43081 -1.79421,-0.626316 -0.60575,-0.195509 -1.21919,-0.377897 -1.84019,-0.546738 -0.62101,-0.168841 -1.24911,-0.32399 -1.88516,-0.466122 -0.63606,-0.142128 -1.27973,-0.271166 -1.93063,-0.386537 -0.6509,-0.115375 -1.30953,-0.217353 -1.97508,-0.305927 -0.66554,-0.08857 -1.33797,-0.163582 -2.01796,-0.225309 -0.67998,-0.06173 -1.36713,-0.109858 -2.06136,-0.144693 -0.69424,-0.03484 -1.39547,-0.05618 -2.10375,-0.06408 z"
         sodipodi:nodetypes="ssssssssssssssssssssssssssssssssssssssscssssssssssssssssssssssssssssssssssscsssssssssssssssssssssssssssssssccssssssssssssssssssssssssssssssssssssssssssssssssssssssssss" />
      <path
         id="path2220"
         style="fill:#f3cf1c;stroke-width:0.352483"
         d="m -284.66236,-50.227 c -0.28324,7.59e-4 -0.56299,0.01219 -0.84026,0.0341 -0.27726,0.02192 -0.55205,0.05423 -0.82579,0.09664 -0.27373,0.04241 -0.54641,0.09487 -0.81907,0.157096 -0.27265,0.06223 -0.54555,0.134112 -0.81959,0.21549 -0.2449,0.07273 -0.49067,0.166 -0.73329,0.275953 -0.24261,0.10995 -0.48194,0.236638 -0.71416,0.376203 -0.23223,0.139567 -0.45702,0.292145 -0.67076,0.45372 -0.21375,0.161573 -0.41641,0.332002 -0.60358,0.507979 -0.18718,0.175977 -0.35908,0.357246 -0.5116,0.54002 -0.15252,0.182772 -0.28556,0.36684 -0.39533,0.548801 -0.10976,0.181965 -0.19635,0.361823 -0.25528,0.535369 -0.0589,0.173548 -0.0904,0.341154 -0.0904,0.498679 0,0.170413 0.0289,0.339809 0.0853,0.507979 0.0564,0.168169 0.14067,0.335235 0.25218,0.500226 0.1115,0.164994 0.25017,0.327978 0.41548,0.48886 0.1653,0.160883 0.35735,0.319582 0.57515,0.475425 0.21781,0.155839 0.4612,0.309017 0.73019,0.458885 0.26899,0.149868 0.56324,0.296288 0.88212,0.439251 0.31888,0.142959 0.66244,0.282421 1.02991,0.417544 0.36747,0.135123 0.75882,0.265874 1.17357,0.392223 0.97063,0.295696 1.96561,0.634723 2.97656,1.013376 1.01096,0.378653 2.038,0.796824 3.07372,1.251603 1.03572,0.454779 2.07995,0.946126 3.12487,1.470195 1.04492,0.52407 2.09046,1.081071 3.12901,1.6676 0.44461,0.251092 0.85014,0.473299 1.2237,0.667657 0.37356,0.194358 0.71535,0.360561 1.03146,0.500229 0.31611,0.139669 0.60677,0.252487 0.87902,0.339514 0.27224,0.08703 0.52593,0.148571 0.76791,0.185002 0.24198,0.03643 0.47232,0.04778 0.69763,0.03566 0.22531,-0.01212 0.44543,-0.04783 0.66766,-0.106455 0.22223,-0.05862 0.44628,-0.1398 0.67903,-0.242879 0.23274,-0.103077 0.47437,-0.228135 0.73122,-0.373621 0.2137,-0.121044 0.41783,-0.254376 0.61133,-0.397907 0.1935,-0.143531 0.37619,-0.297008 0.54622,-0.457853 0.17004,-0.160846 0.32746,-0.329311 0.47077,-0.502296 0.14332,-0.172985 0.27269,-0.350766 0.38603,-0.530717 0.11333,-0.179948 0.21084,-0.361895 0.29093,-0.543637 0.0801,-0.181742 0.14296,-0.363207 0.18656,-0.541567 0.0436,-0.178361 0.068,-0.353677 0.0718,-0.523484 0.004,-0.169804 -0.013,-0.333814 -0.0522,-0.489892 -0.0409,-0.16307 -0.11608,-0.342797 -0.22169,-0.535368 -0.10561,-0.192569 -0.242,-0.397976 -0.40411,-0.612365 -0.1621,-0.214389 -0.35028,-0.4381 -0.56069,-0.666626 -0.21041,-0.228526 -0.44297,-0.462132 -0.69349,-0.697116 -0.25053,-0.234982 -0.51906,-0.471107 -0.80151,-0.704866 -0.28245,-0.233757 -0.57851,-0.465029 -0.8847,-0.68988 -0.30619,-0.224853 -0.62239,-0.443375 -0.94413,-0.651639 -0.32173,-0.208267 -0.64913,-0.406149 -0.97823,-0.590146 -1.09219,-0.610642 -2.11143,-1.162547 -3.067,-1.657778 -0.95556,-0.495234 -1.84759,-0.934125 -2.68614,-1.3193 -0.83854,-0.385178 -1.62359,-0.716367 -2.36471,-0.996839 -0.74112,-0.280471 -1.43838,-0.51031 -2.10168,-0.69143 -0.33166,-0.09056 -0.65461,-0.168918 -0.97048,-0.235646 -0.31588,-0.06673 -0.62453,-0.121804 -0.92708,-0.165365 -0.30255,-0.04356 -0.59923,-0.07557 -0.8909,-0.09663 -0.29167,-0.02107 -0.57821,-0.03073 -0.86145,-0.02997 z" />
      <path
         id="path2218"
         style="fill:#f3cf1c;stroke-width:0.352483"
         d="m -278.73734,-86.174167 c -0.28342,-0.0089 -0.56266,0.01376 -0.84336,0.06615 -0.2807,0.05238 -0.5625,0.134059 -0.85008,0.243395 -0.1684,0.06403 -0.33795,0.144 -0.50746,0.238747 -0.16951,0.09474 -0.33911,0.204303 -0.5085,0.327628 -0.16939,0.123325 -0.33838,0.260546 -0.50643,0.410311 -0.16805,0.149762 -0.33526,0.312213 -0.50074,0.486275 -0.33097,0.34812 -0.65559,0.742659 -0.96893,1.175123 -0.31335,0.432461 -0.61532,0.902819 -0.90124,1.402498 -0.28592,0.499676 -0.55539,1.028948 -0.80409,1.578713 -0.24869,0.549767 -0.47684,1.120016 -0.67851,1.702739 -0.20167,0.582724 -0.37708,1.177563 -0.52193,1.776119 -0.14485,0.598556 -0.25871,1.201081 -0.33693,1.798341 -0.0806,0.615188 -0.12841,1.315839 -0.14728,2.074291 -0.0189,0.758455 -0.009,1.574395 0.0264,2.421041 0.0351,0.846645 0.0953,1.723697 0.17673,2.603457 0.0814,0.879764 0.18385,1.762194 0.30386,2.619997 0.12001,0.857803 0.25735,1.690912 0.40824,2.471685 0.15089,0.780769 0.31531,1.509342 0.48938,2.158007 0.17407,0.648663 0.35771,1.217483 0.54725,1.678967 0.0948,0.23074 0.19116,0.434612 0.28835,0.608232 0.0972,0.17362 0.19539,0.317233 0.29404,0.426847 0.0767,0.08523 0.19037,0.177345 0.33022,0.271301 0.13984,0.09396 0.30567,0.1895 0.48679,0.28112 0.18112,0.09162 0.37772,0.179639 0.57826,0.257865 0.20053,0.07822 0.40549,0.14673 0.60358,0.200504 0.79237,0.215091 2.8684,0.84845 4.61367,1.40715 0.87263,0.279344 1.76752,0.533154 2.5063,0.717269 0.3694,0.09206 0.69988,0.166489 0.96894,0.218075 0.26906,0.05158 0.47686,0.0801 0.601,0.0801 0.0832,0 0.17329,-0.01345 0.27233,-0.04186 0.099,-0.02841 0.20668,-0.0717 0.32505,-0.131259 0.23673,-0.119116 0.51585,-0.303081 0.85111,-0.563272 0.33525,-0.260191 0.72701,-0.596358 1.18907,-1.019577 0.46206,-0.42322 0.99462,-0.93382 1.61179,-1.542023 0.67655,-0.666735 1.24867,-1.215293 1.75286,-1.673284 0.5042,-0.457993 0.94002,-0.825095 1.34411,-1.128614 0.40408,-0.303517 0.77615,-0.543412 1.15238,-0.746723 0.37623,-0.203311 0.75658,-0.370248 1.17719,-0.527616 0.28745,-0.107551 0.55704,-0.198422 0.80925,-0.272852 0.25222,-0.07443 0.48725,-0.132093 0.7059,-0.173117 0.21865,-0.04102 0.42095,-0.06553 0.60772,-0.07286 0.18676,-0.0073 0.35814,0.0023 0.5147,0.02894 0.15656,0.02664 0.2983,0.07035 0.42633,0.13126 0.12802,0.0609 0.24247,0.13916 0.34365,0.234611 0.10117,0.09545 0.1891,0.208198 0.26509,0.338479 0.076,0.130283 0.13974,0.277984 0.19224,0.443383 0.0393,0.123765 0.0588,0.279919 0.0599,0.465606 0.001,0.185687 -0.0164,0.400611 -0.0517,0.642337 -0.0353,0.241729 -0.0882,0.510135 -0.15813,0.802021 -0.0699,0.291883 -0.15674,0.607457 -0.25942,0.94361 -0.20536,0.672309 -0.47419,1.42712 -0.79995,2.241206 -0.32575,0.814088 -0.70822,1.687436 -1.13998,2.596224 -0.19714,0.414941 -0.38518,0.836036 -0.55655,1.241785 -0.17138,0.405751 -0.32586,0.795946 -0.45579,1.149802 -0.12993,0.353854 -0.2357,0.671441 -0.30851,0.930691 -0.0728,0.259252 -0.11265,0.460451 -0.11265,0.582395 0,0.154374 0.0375,0.323324 0.11627,0.51108 0.0787,0.187753 0.19869,0.394277 0.36173,0.623218 0.16304,0.228939 0.36929,0.480166 0.62219,0.758092 0.25289,0.277926 0.55241,0.582538 0.90072,0.917257 l 2.00091,1.922881 2.00815,-0.201538 c 1.1047,-0.1108 3.75342,-0.374346 5.88594,-0.585494 1.5209,-0.150596 2.89586,-0.301916 4.13722,-0.459923 1.24137,-0.158004 2.34937,-0.322344 3.33675,-0.499192 0.49369,-0.08842 0.95718,-0.180157 1.39216,-0.275436 0.43499,-0.09528 0.84164,-0.194093 1.22111,-0.297657 0.37948,-0.10356 0.7317,-0.211769 1.05886,-0.325043 0.32715,-0.113276 0.62889,-0.231635 0.90692,-0.356052 0.27803,-0.124415 0.53219,-0.25472 0.76429,-0.391708 0.2321,-0.136988 0.44213,-0.281027 0.63149,-0.432014 0.18936,-0.150987 0.35816,-0.309007 0.50797,-0.475422 0.14982,-0.166418 0.28083,-0.341241 0.3943,-0.524518 0.11346,-0.183274 0.20959,-0.375145 0.2899,-0.576707 0.0803,-0.201565 0.14448,-0.41279 0.19482,-0.634071 0.0503,-0.221279 0.0865,-0.45262 0.11007,-0.695048 0.0236,-0.242427 0.0346,-0.495675 0.0346,-0.760677 0,-0.389038 -0.0284,-0.766326 -0.0873,-1.134813 -0.059,-0.368491 -0.14842,-0.728369 -0.27078,-1.082107 -0.12236,-0.353737 -0.27745,-0.701667 -0.46767,-1.046448 -0.19022,-0.344781 -0.41546,-0.686223 -0.678,-1.027842 -0.26253,-0.34162 -0.56245,-0.683073 -0.90175,-1.027327 -0.3393,-0.344258 -0.7179,-0.691179 -1.13843,-1.043866 -0.42053,-0.352684 -0.88286,-0.711057 -1.38907,-1.077968 -0.5062,-0.366914 -1.05627,-0.742715 -1.65261,-1.129649 -0.52529,-0.340839 -0.99562,-0.658024 -1.41541,-0.960147 -0.4198,-0.302122 -0.78905,-0.58902 -1.11208,-0.868164 -0.32303,-0.279143 -0.60008,-0.550786 -0.83509,-0.82269 -0.23501,-0.271902 -0.42821,-0.544354 -0.58395,-0.824756 -0.15573,-0.280401 -0.27396,-0.568696 -0.35915,-0.873332 -0.0852,-0.304636 -0.13732,-0.625356 -0.16071,-0.969965 -0.0234,-0.344609 -0.0178,-0.713306 0.0119,-1.113629 0.0297,-0.400319 0.0836,-0.83254 0.15761,-1.304311 0.0737,-0.469794 0.1105,-0.932312 0.11214,-1.385961 0.002,-0.453652 -0.032,-0.898237 -0.0997,-1.330669 -0.0677,-0.432433 -0.16951,-0.852702 -0.30386,-1.258837 -0.13435,-0.406138 -0.30139,-0.798293 -0.49971,-1.173057 -0.19832,-0.374764 -0.4277,-0.73242 -0.68729,-1.070734 -0.2596,-0.338318 -0.54946,-0.657157 -0.86765,-0.953948 -0.3182,-0.296791 -0.6646,-0.571468 -1.0387,-0.821655 -0.3741,-0.25019 -0.77571,-0.475867 -1.20303,-0.674378 -0.4789,-0.222467 -0.85321,-0.390647 -1.23507,-0.516763 -0.19093,-0.06306 -0.38368,-0.115819 -0.59221,-0.159166 -0.20852,-0.04335 -0.43327,-0.07732 -0.6873,-0.103867 -0.50804,-0.0531 -1.13466,-0.07565 -1.99212,-0.07906 -0.85747,-0.0034 -1.94539,0.0122 -3.37551,0.03514 -0.89761,0.0144 -1.69131,0.02423 -2.4014,0.02274 -0.71009,-0.0015 -1.33693,-0.0142 -1.89963,-0.04496 -0.56269,-0.03076 -1.06128,-0.07957 -1.5167,-0.152963 -0.45542,-0.07339 -0.86747,-0.171368 -1.25574,-0.300758 -0.38826,-0.129389 -0.75291,-0.290097 -1.11414,-0.488857 -0.36123,-0.19876 -0.71916,-0.435769 -1.09348,-0.71727 -0.37431,-0.2815 -0.76516,-0.607859 -1.19269,-0.985469 -0.42752,-0.377611 -0.89146,-0.806374 -1.41231,-1.293461 -0.50113,-0.468648 -0.96991,-0.89272 -1.41077,-1.273826 -0.44086,-0.381103 -0.85418,-0.719576 -1.24437,-1.017508 -0.39019,-0.297931 -0.75728,-0.554985 -1.10639,-0.774112 -0.34911,-0.219131 -0.67974,-0.399974 -0.99736,-0.544669 -0.31761,-0.144698 -0.62205,-0.253513 -0.91777,-0.328147 -0.29572,-0.07463 -0.5832,-0.115083 -0.86661,-0.124023 z" />
      <path
         style="fill:#f70302;stroke-width:0.352495"
         d="m -213.39938,99.195946 c -1.00763,-0.443907 -1.51142,-0.470337 -2.74897,-0.14426 -1.73083,0.456047 -2.25672,0.26832 -4.43015,-1.581421 -0.74962,-0.637987 -2.04323,-1.391761 -2.87469,-1.675071 -0.83146,-0.283307 -3.23196,-1.888738 -5.33445,-3.567629 -2.10249,-1.678881 -4.75831,-3.795369 -5.90182,-4.703299 -2.93669,-2.33171 -7.84354,-6.62627 -12.37318,-10.82922 -10.71229,-9.93972 -13.21856,-11.55957 -13.21856,-8.54343 0,0.86252 0.54443,1.59787 2.90809,3.92785 1.59944,1.57667 3.18112,3.34254 3.51485,3.92415 0.33372,0.58162 0.80398,1.32747 1.04501,1.65745 1.54075,2.10926 -3.16614,-0.3484 -6.68144,-3.48867 -1.47685,-1.31929 -4.30928,-3.90563 -6.2943,-5.74742 -1.98501,-1.84178 -4.13543,-3.82457 -4.7787,-4.40618 -0.64328,-0.58162 -3.50985,-3.47648 -6.37016,-6.43304 -15.60733,-14.89763 -20.98052,-19.5844 -37.21213,-32.69975 l -1.5233,-0.94539 -9.3909,9.37612 c -6.9029,6.89213 -9.6082,9.37612 -10.2114,9.37612 -1.0515,0 -2.758,1.26181 -3.6428,2.69355 -0.8331,1.34803 -11.5333,10.33243 -13.0917,10.99241 -0.607,0.25708 -3.6529,2.55957 -6.7686,5.11666 -3.1156,2.55709 -6.3786,5.10781 -7.2511,5.66828 -0.8724,0.56046 -1.9881,1.29084 -2.4793,1.62307 -2.5186,1.70334 -15.603,8.4856 -16.0441,8.31635 -0.8187,-0.31416 -0.6059,-0.91809 0.8987,-2.55037 1.3423,-1.45625 1.41,-1.63916 1.41,-3.81215 0,-1.25538 -0.1792,-2.6758 -0.3982,-3.15651 -0.547,-1.20032 -2.0628,-1.76051 -3.9843,-1.47236 -1.1118,0.16672 -1.8787,0.0774 -2.6183,-0.30509 -1.6961,-0.87712 -4.7609,-1.10292 -5.7326,-0.42236 -0.9618,0.6737 -2.4239,0.75968 -2.4239,0.14255 0,-0.42467 2.7997,-3.19045 7.5323,-7.44098 1.3316,-1.19597 4.5808,-4.55384 7.2204,-7.46192 2.6397,-2.90808 4.8813,-5.36673 4.9813,-5.46367 0.9815,-0.95075 4.6745,-5.41763 5.3915,-6.52116 0.8187,-1.26015 3.7644,-4.27063 13.6672,-13.96785 4.0293,-3.94558 8.1884,-9.24984 8.8098,-11.23553 0.4154,-1.32722 1.5436,-2.62226 6.9093,-7.9311273 10.021,-9.9147465 10.1008,-10.0553365 7.433,-13.0923162 -0.8273,-0.9418504 -2.1306,-2.5055805 -2.8961,-3.4749415 -0.7655,-0.96936 -1.4858,-1.84179 -1.6006,-1.93872 -0.1148,-0.0969 -1.4169,-1.542701 -2.8936,-3.212802 -1.7149,-1.939581 -2.8216,-3.531332 -3.0635,-4.406183 -0.2788,-1.00793 -1.2399,-2.22334 -3.6396,-4.60217 -7.7577,-7.69042 -14.341,-14.41162 -14.3522,-14.65286 -0.016,-0.33931 -2.7631,-3.40004 -7.2056,-8.02791 -7.8533,-8.18094 -13.9563,-14.75701 -13.9563,-15.03818 0,-0.1634 0.3346,-0.50607 0.7436,-0.76149 1.1761,-0.73446 0.6153,-2.30152 -1.7936,-5.01196 -1.5934,-1.7929 -2.1927,-2.77504 -2.4826,-4.06875 -0.2102,-0.93794 -0.6911,-2.20506 -1.0685,-2.8158 -1.0917,-1.76631 -0.8131,-1.77103 1.0611,-0.018 1.893,1.77069 2.9445,2.04226 3.5471,0.91615 0.5973,-1.11593 -0.2664,-3.03988 -2.7436,-6.11148 -1.3955,-1.73051 -0.6156,-1.40309 1.5303,0.64242 2.2854,2.17855 3.1002,2.57966 3.8969,1.91848 0.9291,-0.77111 -0.4328,-5.07093 -2.2683,-7.16146 -1.6258,-1.85167 -3.5948,-4.9669 -3.5948,-5.6874 0,-0.51474 0.3186,-0.3494 1.4981,0.7775 2.0933,1.99996 3.0753,2.59214 4.3083,2.59815 1.3614,0.007 1.0297,-0.19193 11.4721,6.86845 4.8746,3.29583 9.207,6.22457 9.6276,6.50831 2.0502,1.38312 5.2846,3.96488 7.9909,6.37845 5.1482,4.59141 8.7091,7.3817 9.4204,7.3817 0.9599,0 1.1886,-0.3351 0.7667,-1.12338 -0.9325,-1.74234 0.1918,-1.06059 4.0193,2.43733 2.2853,2.08848 6.3602,6.23164 9.0554,9.20705 2.6952,2.97539 5.3801,5.67198 5.9663,5.99241 0.5863,0.32042 2.4342,2.22014 4.1065,4.2216 3.7981,2.99625 8.6076,8.08257 11.3978,10.90331 9.59552,-9.34743 20.51543,-19.55134 27.79034,-26.66308 4.18805,-4.11977 6.49395,-5.92889 9.98228,-7.8317 2.14516,-1.17014 4.86984,-3.13919 7.55746,-5.46157 1.16323,-1.00515 3.22532,-2.34529 4.58243,-2.97809 1.3571,-0.6328 3.71644,-2.09593 5.24298,-3.2514 2.63961,-1.99797 2.84673,-2.08877 4.22994,-1.85426 0.79993,0.13562 1.95187,0.32774 2.55987,0.42693 0.84082,0.13717 1.89263,-0.21081 4.3937,-1.45358 1.80854,-0.89866 3.55016,-1.87095 3.87029,-2.16066 0.71134,-0.64376 5.98362,-1.31101 6.48491,-0.82072 0.22443,0.21951 0.22443,0.50074 0,0.80661 -0.18951,0.25827 -0.6592,0.92805 -1.04374,1.4884 -0.38454,0.56033 -2.12593,3.00158 -3.86976,5.42498 -3.17399,4.41092 -8.13772,11.82797 -11.1171,16.61175 -0.87242,1.40078 -2.17241,3.29651 -2.88885,4.21271 -0.71645,0.91621 -1.52837,2.19696 -1.80426,2.84613 -0.27589,0.64916 -1.27594,2.15754 -2.22232,3.35194 -0.94638,1.19441 -3.06898,3.86205 -4.7169,5.9281 -1.64791,2.06605 -3.23414,4.11866 -3.52495,4.56135 -0.2908,0.44269 -0.83277,1.2376 -1.20436,1.76645 -8.84673,12.37014 -18.68688,25.5353161 -28.28726,35.8590748 12.97266,12.1748152 26.25183,27.6558952 31.20851,35.8787252 0.55654,0.9045 1.12948,2.0324 1.2732,2.50645 0.14372,0.47405 0.64832,1.25847 1.12134,1.74315 0.47301,0.48468 1.90628,2.30884 3.18505,4.05369 1.27877,1.74485 3.00025,3.96556 3.8255,4.93493 0.82526,0.96936 1.89732,2.63489 2.38236,3.70119 0.48505,1.0663 1.89363,3.12839 3.13018,4.58244 1.23656,1.45404 3.13007,3.83338 4.20781,5.28742 2.98155,4.02257 5.9103,7.42817 11.21615,13.04231 2.65677,2.81115 5.75164,6.14222 6.87749,7.40239 1.12584,1.26017 4.5639,4.841924 7.64013,7.959436 3.07623,3.117522 5.59315,5.933057 5.59315,6.256754 0,0.719137 -0.8161,0.715007 -2.46747,-0.0125 z"
         id="path1836-1"
         sodipodi:nodetypes="sssssssssssssscccssssssssssssssssscsssssssssscsssssssssssssscsssssssscccsssssssssssssssssscccsssssssssssss" />
      <path
         style="fill:#000000;fill-opacity:1;stroke-width:0.352483"
         d="m -311.32894,98.121358 c -1.64786,-0.13803 -5.61329,-0.42326 -8.81208,-0.63385 -3.19878,-0.21057 -7.0056,-0.54007 -8.45959,-0.7322 -1.45399,-0.19212 -4.62634,-0.59569 -7.04966,-0.89681 -7.40046,-0.91959 -19.47966,-3.43422 -22.13027,-4.60704 -0.63664,-0.2817 -1.43585,-0.51218 -1.77601,-0.51218 -0.34016,0 -1.24071,-0.31723 -2.00123,-0.70496 -0.76051,-0.38774 -1.55,-0.70497 -1.75442,-0.70497 -0.37043,0 -6.71889,-3.15755 -8.92186,-4.43748 -4.49324,-2.61059 -10.64319,-8.40566 -13.24608,-12.48171 -2.58305,-4.04498 -2.39627,-3.69582 -3.77114,-7.04966 -0.81791,-1.99522 -2.43967,-8.43806 -2.45629,-9.75821 -1.29715,-23.377194 8.35691,-46.1750757 21.0476,-62.924089 3.62804,-4.76061 14.17619,-14.927291 19.34305,-18.643531 4.22065,-3.035673 9.41808,-6.283998 13.37568,-8.35962 3.6735,-1.926623 8.76548,-4.193086 10.04577,-4.471417 0.67853,-0.147514 1.54656,-0.485863 1.92896,-0.751889 0.38235,-0.266029 0.96737,-0.483688 1.29999,-0.483688 0.33263,0 1.84385,-0.38305 3.35828,-0.851222 3.97044,-1.227427 10.17207,-2.280759 15.41018,-2.617384 4.12122,-0.264849 4.61071,-0.367901 5.19912,-1.094559 0.35727,-0.441199 0.64951,-1.220807 0.64943,-1.732457 -1.9e-4,-1.354276 2.09307,-5.229926 3.52496,-6.52644 1.87001,-1.693195 2.81987,-3.041189 2.81987,-4.001822 0,-0.476892 -0.30058,-1.92271 -0.66796,-3.212932 -0.62383,-2.190926 -1.51021,-8.896004 -1.54491,-11.686662 -0.0306,-2.458826 1.09614,-9.025523 1.81438,-10.574493 0.40452,-0.872395 0.73897,-1.76069 0.74323,-1.973987 0.0172,-0.86116 2.76077,-5.009588 4.41378,-6.673839 1.89665,-1.909559 4.75629,-3.654336 7.09596,-4.329527 0.80094,-0.231136 1.6531,-0.657443 1.8937,-0.94735 0.56062,-0.675507 1.55178,-0.675268 2.11263,4.93e-4 0.24083,0.290187 1.17231,0.750624 2.06994,1.023193 3.68006,1.117465 5.29104,2.110809 9.06082,5.586978 l 2.58022,2.379261 h 5.59065 c 5.34604,0 5.71879,0.04676 8.51895,1.06869 3.56318,1.300404 5.60797,2.662231 7.39845,4.927313 1.80545,2.284076 2.71715,4.27553 3.2256,7.045871 0.91149,4.966314 1.24702,5.705582 3.24394,7.147205 2.41906,1.746366 3.41098,2.653795 4.52574,4.140164 1.6768,2.235775 2.8536,5.021065 3.30041,7.811476 0.84737,5.292062 -0.62217,10.202828 -4.0316,13.472482 -1.50813,1.446319 -5.08027,3.381948 -6.24127,3.381948 -0.46359,0 -1.36045,0.216242 -1.99301,0.480541 -1.12823,0.471403 -3.4236,0.745956 -9.40175,1.124551 -3.56286,0.225632 -6.14516,0.986974 -6.87323,2.026432 -0.29091,0.415324 -0.5298,1.393962 -0.53089,2.174758 -0.003,2.180918 -0.60662,3.881198 -1.94768,5.486336 -0.67248,0.804909 -1.2227,1.828791 -1.2227,2.275296 0,0.4465 0.84543,1.898703 1.87873,3.227116 3.5952,4.622015 7.93289,12.061745 9.08844,15.587944 0.23056,0.70354 0.61755,1.5964 0.85998,1.98413 0.42126,0.67377 1.64927,5.05267 2.29023,8.1667 0.16637,0.80824 0.62689,2.07482 1.02343,2.81464 0.39651,0.73982 0.72094,1.4832 0.72094,1.65194 0,0.68084 3.77823,4.77158 7.21406,7.81074 4.17026,3.68884 8.3647,9.26439 10.87191,14.4518 6.29779,12.147725 6.37246,19.209796 3.55437,31.371 -0.8645,3.78114 -1.88596,6.73931 -3.04281,8.81208 -0.21639,0.38773 -0.5638,1.0222 -0.77201,1.40993 -1.71874,3.20082 -5.15644,7.18192 -8.48472,9.82593 -3.95493,3.1418 -4.21351,3.32111 -6.6625,4.62032 -1.28272,0.6805 -2.60837,1.39016 -2.94587,1.57701 -1.16648,0.64581 -4.56008,2.12963 -4.87065,2.12963 -0.17141,0 -1.10778,0.30862 -2.08088,0.68586 -4.00615,1.55304 -12.52037,3.63053 -18.20424,4.44188 -2.01108,0.28708 -4.60822,0.67693 -5.77142,0.86635 -1.16319,0.1894 -4.49416,0.50786 -7.40214,0.70769 -2.90799,0.1998 -7.03204,0.5084 -9.16456,0.68577 -4.43045,0.36849 -14.42815,0.36557 -18.85784,-0.005 z m 24.32132,-9.33705 c 10.45295,-0.76568 21.95112,-2.75652 28.43601,-4.92356 5.19902,-1.73733 11.72457,-5.64771 15.94407,-9.55432 4.36752,-4.04365 7.20423,-8.34603 8.91768,-13.52534 1.01505,-3.06814 1.10867,-3.73882 1.10765,-7.93374 -0.004,-10.87233 -4.48546,-21.51205 -12.70092,-30.14511 -1.64511,-1.72872 -4.02455,-3.98068 -5.28763,-5.00437 -2.75414,-2.23213 -3.20162,-3.01801 -3.62648,-6.36894 -0.51646,-4.07342 -0.94734,-5.59202 -2.84286,-10.01933 -1.60354,-3.74535 -5.50945,-11.232619 -7.04019,-13.495379 -0.32787,-0.48466 -1.53175,-2.3031 -2.67529,-4.04098 -11.87841,-18.05197 -33.05445,-22.783879 -60.23886,-13.460712 -2.52025,0.864349 -5.87481,2.121434 -7.45458,2.793528 -20.71717,8.813874 -36.66297,26.336213 -44.17866,48.546543 -2.02871,5.99525 -3.86171,16.47495 -3.87621,22.16119 -0.0163,6.36675 1.72109,13.77027 4.51251,19.22976 5.02317,9.8244 15.57173,17.77157 28.26463,21.29428 16.03128,4.44922 39.75133,6.13032 62.73913,4.44648 z m -31.89971,-18.42221 c -2.90798,-1.10302 -5.48551,-2.13382 -5.72785,-2.29066 -0.63766,-0.4127 -0.54191,-1.70571 0.25662,-3.46554 0.38348,-0.8451 0.70071,-2.04419 0.70497,-2.66464 0.007,-1.02313 -0.29568,-1.34457 -3.25273,-3.45406 -4.2385,-3.02366 -8.43969,-6.67422 -11.07624,-9.62453 -2.46858,-2.76235 -6.10731,-7.42202 -6.10731,-7.82088 0,-0.15235 0.27758,-0.58971 0.61685,-0.9719 0.73655,-0.82974 10.37498,-7.13783 10.90624,-7.13783 0.20356,0 1.69923,1.36664 3.32371,3.03698 4.10471,4.22059 9.6435,8.94744 10.48437,8.94744 1.01718,0 1.72319,-0.85701 2.29656,-2.78775 0.27726,-0.93364 1.23292,-3.70798 2.12369,-6.1652 0.89077,-2.45723 1.61958,-4.84294 1.61958,-5.30158 0,-0.88292 -0.31981,-1.2136 -7.38262,-7.63361 -5.80112,-5.27317 -8.16362,-8.46934 -9.52988,-12.89278 -0.93454,-3.02568 -0.89866,-5.49139 0.1269,-8.72091 2.35321,-7.41028 9.29935,-12.586679 17.61882,-13.129889 3.48444,-0.22752 8.46445,0.29206 10.84303,1.13127 2.00764,0.70833 2.84235,0.1353 3.85716,-2.64795 1.2163,-3.33582 1.29051,-3.35303 6.14428,-1.42452 1.55093,0.61622 3.52407,1.34637 4.38476,1.62254 0.86069,0.27618 1.94708,0.75257 2.4142,1.05864 1.02736,0.67315 0.95163,1.61114 -0.41865,5.185259 -1.14527,2.98727 -0.97006,3.80825 1.11955,5.24594 4.90299,3.37335 13.82537,11.60309 13.82537,12.75212 0,0.57637 -9.35747,7.97715 -10.08623,7.97715 -0.24181,0 -2.44763,-1.75394 -4.90184,-3.89765 -5.62547,-4.91377 -5.86518,-4.94195 -7.32269,-0.86087 -0.55389,1.55093 -1.39148,3.81437 -1.86131,5.02987 -1.41764,3.66763 -1.43591,3.62402 3.66655,8.75405 9.66266,9.71486 12.27545,14.53791 11.98684,22.12691 -0.17967,4.72422 -1.33962,7.33416 -4.78482,10.76606 -5.96029,5.93729 -14.12449,8.24321 -23.16223,6.54201 -3.22347,-0.60676 -3.39237,-0.60703 -4.05589,-0.007 -0.38079,0.34461 -0.87462,1.2022 -1.09739,1.90576 -0.53412,1.68686 -1.29679,2.87045 -1.83264,2.84408 -0.23787,-0.0117 -2.81174,-0.92376 -5.71973,-2.02678 z m 18.176,-18.79701 c 1.76431,-0.5286 3.82446,-2.65908 4.06977,-4.20871 0.22747,-1.4369 -1.34005,-4.66273 -2.79282,-5.74738 -0.82942,-0.61925 -0.9779,-0.63105 -1.73104,-0.13758 -0.54343,0.35608 -0.98603,1.1841 -1.30051,2.43303 -0.26219,1.04128 -0.6891,2.31277 -0.94869,2.82554 -0.89825,1.77429 -1.16016,3.72216 -0.60672,4.51231 0.5752,0.82121 1.38338,0.90002 3.31001,0.32279 z m -5.70601,-39.34142 c 0.72909,-0.60782 2.38794,-4.84432 2.74823,-7.01864 0.36113,-2.17939 -2.52629,-2.85907 -5.26806,-1.24007 -0.53725,0.31725 -1.30373,1.25213 -1.70329,2.07751 -0.90991,1.87963 -0.55845,3.21645 1.40469,5.34292 1.50893,1.63446 1.7702,1.71217 2.81843,0.83828 z m 38.6204,-48.119933 c 1.70963,-0.968363 2.82482,-2.739072 2.51143,-3.987694 -0.32742,-1.304565 -2.85573,-3.676014 -5.4885,-5.147991 -8.73751,-4.885127 -12.78941,-5.991532 -17.17391,-4.689477 -1.95927,0.581844 -3.97446,2.476451 -3.97446,3.736648 0,1.363306 1.8258,2.669714 5.1438,3.680516 3.88253,1.182782 8.14989,3.056561 12.30411,5.402674 3.55685,2.008745 4.62271,2.169213 6.67753,1.005324 z m 15.88138,-9.762685 c 12.16719,-1.204752 14.98053,-2.463702 14.98053,-6.703721 0,-3.112303 -1.81521,-5.474338 -6.5859,-8.569812 -4.20233,-2.726718 -4.88879,-3.962675 -4.29694,-7.736846 0.58939,-3.758337 -1.16912,-7.08136 -4.58767,-8.669437 -1.9156,-0.88987 -2.16195,-0.915619 -7.8824,-0.823872 -7.18086,0.11517 -7.71926,-0.06425 -11.88608,-3.96101 -4.009,-3.749177 -5.93605,-4.627082 -8.23669,-3.752383 -2.69445,1.024432 -5.60904,6.118023 -6.23481,10.8961 -0.64455,4.921505 0.80865,15.308706 2.38711,17.062514 0.30685,0.340936 1.20621,0.795872 1.99857,1.010964 0.79237,0.215092 2.86862,0.848194 4.61389,1.40689 1.74527,0.558697 3.57949,1.015811 4.07604,1.015811 0.66599,0 1.78068,-0.865114 4.24934,-3.297931 2.70621,-2.666929 3.74458,-3.446865 5.42703,-4.07635 2.2996,-0.860394 3.44474,-0.665517 3.86471,0.657684 0.31424,0.990096 -0.62224,4.055942 -2.3493,7.691096 -0.78855,1.659765 -1.43373,3.416834 -1.43373,3.9046 0,0.617504 0.6077,1.470831 2.00094,2.809699 l 2.00095,1.922852 2.00855,-0.201466 c 1.1047,-0.110806 3.75334,-0.374227 5.88586,-0.585382 z"
         id="path1948-7"
         sodipodi:nodetypes="cssssssssssccssssssssssssssssssssscssssssssssssssssssssssccscsssssssssccsssscssssssssssssscssssssssssssssssssssssssssssssssscssccssssssssssssssssssssssssssssssssssssssssscss" />
    </g>
  </g>
</svg>
