<?xml version="1.0" encoding="UTF-8" standalone="no"?>
<!-- Created with Inkscape (http://www.inkscape.org/) -->

<svg
   width="64"
   height="64"
   viewBox="0 0 16.933333 16.933333"
   version="1.1"
   id="svg5"
   xml:space="preserve"
   inkscape:version="1.2.1 (9c6d41e410, 2022-07-14)"
   sodipodi:docname="4chan.svg"
   xmlns:inkscape="http://www.inkscape.org/namespaces/inkscape"
   xmlns:sodipodi="http://sodipodi.sourceforge.net/DTD/sodipodi-0.dtd"
   xmlns="http://www.w3.org/2000/svg"
   xmlns:svg="http://www.w3.org/2000/svg"><sodipodi:namedview
     id="namedview7"
     pagecolor="#505050"
     bordercolor="#ffffff"
     borderopacity="1"
     inkscape:showpageshadow="0"
     inkscape:pageopacity="0"
     inkscape:pagecheckerboard="1"
     inkscape:deskcolor="#505050"
     inkscape:document-units="mm"
     showgrid="false"
     inkscape:zoom="10.35098"
     inkscape:cx="62.747683"
     inkscape:cy="47.290209"
     inkscape:window-width="2560"
     inkscape:window-height="1351"
     inkscape:window-x="-9"
     inkscape:window-y="-9"
     inkscape:window-maximized="1"
     inkscape:current-layer="layer1" /><defs
     id="defs2" /><g
     inkscape:label="Слой 1"
     inkscape:groupmode="layer"
     id="layer1"><path
       style="fill:#529a42;stroke-width:0.180924"
       d="m 5.9024717,16.649863 c -0.535337,-0.648114 -1.409022,-1.02251 -2.091757,-0.439922 -1.138511,0.01096 -1.910454,-1.17209 -1.868332,-2.227454 -0.108032,-1.100779 0.491807,-2.169229 1.401702,-2.76501 0.937828,-0.792502 1.979541,-1.5387802 3.199232,-1.8080532 1.098757,0.402563 0.956254,1.8313292 1.333026,2.7491842 0.291952,1.424028 0.41374,3.025255 -0.329891,4.334102 -0.38212,0.484741 -1.189216,0.616093 -1.64398,0.157153 z M 12.060832,15.65391 C 10.502124,14.55257 9.8662657,12.645037 9.4021787,10.879292 9.7090937,9.7047428 11.223583,10.047766 12.141661,9.8723218 c 1.490985,-0.06929 3.171892,-0.05062 4.380628,0.9454862 0.660764,0.656014 0.301436,1.813112 -0.510373,2.153612 -0.852088,0.63554 0.232231,2.054039 -0.895002,2.551471 -0.866119,0.644969 -2.144044,0.732045 -3.056082,0.131019 z M 10.652276,7.2430358 c -0.6794983,-1.817912 -0.6944113,-3.837361 -0.355028,-5.727696 0.125747,-0.89882195 1.120889,-2.02425095 2.03507,-1.26468895 0.607115,0.655166 1.380082,1.13733395 2.284151,0.82091595 1.208477,0.146208 1.713262,1.553029 1.605043,2.622011 -0.05343,1.0692 -0.877782,1.841555 -1.705268,2.405146 -1.011594,0.692012 -2.164252,1.238833 -3.375699,1.441297 -0.198227,-0.0059 -0.412557,-0.100936 -0.488269,-0.296985 z M 2.4815637,6.8604968 c -0.796754,-0.256473 -1.80132503,-0.678963 -1.95239703,-1.605612 0.02331,-0.957733 1.43414903,-1.306593 1.23044403,-2.385846 -0.353719,-0.655051 0.101931,-1.374589 0.680555,-1.723287 1.042651,-0.69818195 2.490002,-0.47870695 3.376462,0.375674 1.056544,0.964033 1.631303,2.335803 2.080831,3.663503 0.613203,1.333323 -1.12579,1.653774 -2.074096,1.63132 -1.105691,0.128661 -2.235692,0.221853 -3.341799,0.04424 z"
       id="path1588"
       sodipodi:nodetypes="cssscsssccsssssssssssssssscsssscsscc" /><path
       style="fill:#157213;stroke-width:0.180924"
       d="m 5.5797217,15.970301 c -0.521921,-1.012706 -1.569535,0.121381 -2.298298,-0.223351 -1.211868,-0.589272 -1.411373,-2.33307 -0.618374,-3.34561 0.346395,-0.512103 1.094757,-1.344257 1.476398,-1.399534 -0.299542,0.765342 -1.567691,1.082816 -1.336603,2.063039 0.731841,0.390713 1.65183,-0.205172 2.469947,-0.01248 0.73013,0.03404 1.495831,0.210684 2.196625,-0.08519 0.383875,-0.679773 0.380712,0.697415 0.421644,0.98254 -0.01751,0.917425 -0.08336,2.228623 -1.073239,2.612729 -0.487118,0.05731 -0.893882,-0.297886 -1.2381,-0.592141 z m 1.426099,0.09275 c -0.426742,-0.576168 -0.406844,0.695854 0,0 z m -2.977797,-0.554805 c 0.0096,-0.901596 -0.999333,0.615864 -0.103405,0.06037 z m 8.4749593,0.03002 c -1.173572,-0.579168 -1.912093,-1.785013 -2.223958,-3.022267 0.374317,1.0616 1.629425,0.582025 2.447122,0.563377 1.22152,-0.0043 2.682436,0.06546 3.56746,-0.935256 0.331381,-0.449402 -0.446209,-1.233407 -0.346329,-1.366288 0.840384,0.464785 0.626303,1.873449 -0.319803,2.053928 -0.911886,0.534799 0.14699,1.714913 -0.58728,2.350422 -0.637282,0.672862 -1.732241,0.751072 -2.537212,0.356084 z m 2.499654,-1.320637 c -0.639757,0.02326 0.364983,0.869406 0.07349,0.09196 -0.01745,-0.03492 -0.05089,-0.06023 -0.07349,-0.09196 z M 10.829496,6.8093628 c -0.323484,-1.210392 -0.520936,-2.45609 -0.56362,-3.708823 0.825534,-0.221158 -0.132297,1.777723 0.992094,1.59827 0.877868,-0.214226 1.759924,-0.309449 2.646417,-0.09395 0.678725,0.248642 1.688212,0.175921 1.741856,-0.73393 -0.02236,-0.296502 0.168227,-1.526258 0.297436,-0.644387 0.09372,1.31994 -0.995409,2.338318 -2.069626,2.90947 -0.791581,0.47131 -1.651294,0.836759 -2.553099,1.033197 -0.220892,0.0319 -0.477625,-0.121315 -0.491458,-0.359847 z m 1.604028,-0.353788 c 0.452581,-0.07845 0.804299,-0.663778 0.130085,-0.270953 -0.583482,-0.09041 -2.234713,-0.04987 -1.266124,0.766671 0.444336,0.04278 0.754087,-0.344737 1.136039,-0.495718 z M 2.1713727,6.4151148 c -0.893662,-0.02737 -1.66342403,-1.279676 -0.94132,-1.97302 0.825287,-0.1604 0.911647,-1.429211 1.047085,-1.707759 0.825352,0.32726 0.586099,1.385671 -0.280099,1.396627 -0.481527,0.136736 -1.00583503,1.391346 -0.450587,1.26689 0.140457,-0.921818 1.242353,-0.775197 1.935353,-0.782177 1.107799,-0.08326 2.231902,-0.06367 3.327637,0.134616 0.410174,-0.849144 -0.331026,-1.610939 -0.772901,-2.267648 -0.15572,-0.308462 -1.158534,-1.417361 -0.401482,-0.693634 0.979704,1.034369 1.632526,2.349819 1.975473,3.725947 -0.01304,1.043308 -1.331038,0.973146 -2.080147,1.033834 -1.118111,0.07706 -2.262037,0.150765 -3.359012,-0.133676 z m 3.010136,-0.187693 c -0.773354,-0.07805 -1.574402,-0.291787 -2.344149,-0.123552 0.574985,0.244488 1.600162,0.201679 2.344149,0.123552 z m 2.186159,-0.582545 c -0.366596,-0.647091 -0.4944,0.830571 -0.01706,0.08656 l 0.0086,-0.04372 z m 6.0291603,-3.374286 c -0.281447,-0.202642 -0.618718,-1.27555295 -0.03354,-0.595644 0.375924,0.223827 1.274458,-0.517804 0.613753,0.172734 -0.08152,0.239547 -0.270872,0.841543 -0.580206,0.42291 z M 1.9399647,2.1901408 c 0.03057,-0.386314 1.076299,-1.031471 0.384045,-0.335311 -0.09238,0.03587 -0.290252,0.588505 -0.384045,0.335311 z"
       id="path1584"
       sodipodi:nodetypes="sccccccccssccccccccccccccccccccccccccccccccccccccccccccccccccccccc" /></g></svg>
