<?xml version="1.0" encoding="UTF-8" standalone="no"?>
<!-- Created with Inkscape (http://www.inkscape.org/) -->

<svg
   version="1.1"
   id="svg824"
   width="48"
   height="48"
   viewBox="0 0 47.999998 47.999998"
   sodipodi:docname="baby.svg"
   inkscape:version="1.1 (c68e22c387, 2021-05-23)"
   xmlns:inkscape="http://www.inkscape.org/namespaces/inkscape"
   xmlns:sodipodi="http://sodipodi.sourceforge.net/DTD/sodipodi-0.dtd"
   xmlns="http://www.w3.org/2000/svg"
   xmlns:svg="http://www.w3.org/2000/svg">
  <defs
     id="defs828" />
  <sodipodi:namedview
     id="namedview826"
     pagecolor="#ffffff"
     bordercolor="#666666"
     borderopacity="1.0"
     inkscape:pageshadow="2"
     inkscape:pageopacity="0.0"
     inkscape:pagecheckerboard="0"
     showgrid="false"
     inkscape:zoom="5.9745174"
     inkscape:cx="16.068244"
     inkscape:cy="47.116777"
     inkscape:window-width="1600"
     inkscape:window-height="837"
     inkscape:window-x="-8"
     inkscape:window-y="-8"
     inkscape:window-maximized="1"
     inkscape:current-layer="g830" />
  <g
     inkscape:groupmode="layer"
     inkscape:label="Image"
     id="g830">
    <path
       style="fill:#ffffff;stroke-width:0.0412382;fill-opacity:1"
       d="m 23.608338,42.128834 c -1.423146,-0.05737 -3.023669,-0.335011 -4.400463,-0.763321 -3.959263,-1.2317 -7.354998,-3.804837 -9.6151099,-7.285901 -0.2809597,-0.432743 -0.3267825,-0.483986 -0.4327965,-0.483986 -0.204137,0 -0.8360062,-0.12189 -1.2015702,-0.231792 C 7.5234063,33.233065 6.8878273,32.928373 6.4532053,32.642258 6.0416335,32.371322 5.2426425,31.578201 4.9570307,31.157085 3.5764599,29.121501 3.6430362,26.484823 5.1247081,24.516137 c 0.309335,-0.411009 0.8755529,-0.94662 1.3195295,-1.2482 l 0.3550316,-0.241167 0.025406,-0.231195 c 0.2149639,-1.953882 0.6367737,-3.61811 1.3273956,-5.237261 1.7219657,-4.037084 4.8883612,-7.301147 8.8616722,-9.1350007 2.487618,-1.14814 5.188055,-1.701483 7.893565,-1.6174609 1.535916,0.047699 1.869058,0.1165346 2.208947,0.456422 0.577373,0.5773766 0.438971,1.5458347 -0.277637,1.9427889 l -0.219919,0.121816 -0.659807,-0.020333 C 24.638757,9.265872 23.300938,9.289082 22.680443,9.3634231 19.225861,9.7773158 16.137651,11.272666 13.68815,13.71761 11.915028,15.48743 10.72076,17.435729 9.9462824,19.822028 9.5131495,21.156553 9.2900928,22.458599 9.213758,24.097839 l -0.027256,0.584984 -0.5213293,0.209203 c -0.9753588,0.391397 -1.5414173,0.890636 -1.9196841,1.693085 -0.237299,0.503393 -0.2922661,0.769541 -0.2895909,1.402105 0.00252,0.516513 0.011946,0.584846 0.1357436,0.946243 0.3019153,0.881608 0.8645666,1.519346 1.6804334,1.9047 0.5855249,0.276555 1.1388131,0.349852 2.0574803,0.272559 l 0.371142,-0.03123 0.32446,0.587943 c 0.402881,0.730063 1.059609,1.722337 1.535427,2.319957 0.463124,0.581677 1.76073,1.879821 2.346423,2.347392 1.060897,0.846941 2.34459,1.612195 3.593884,2.142441 2.565905,1.089059 5.37769,1.442135 8.220886,1.032292 1.833886,-0.264347 3.828382,-0.97916 5.46327,-1.957989 2.409896,-1.44283 4.266974,-3.384767 5.685847,-5.945648 l 0.154226,-0.278359 h 0.494577 c 0.810643,0 1.376962,-0.158689 1.967593,-0.551342 1.475211,-0.980719 1.851501,-3.048011 0.818004,-4.494015 -0.31906,-0.446405 -0.653986,-0.723501 -1.370711,-1.134024 l -0.292746,-0.167678 -0.02541,-0.919373 c -0.08379,-3.031979 -0.952233,-5.693461 -2.692109,-8.250314 -0.343952,-0.505459 -0.45249,-0.795322 -0.415323,-1.109141 0.07294,-0.616197 0.539988,-1.06348 1.147789,-1.099303 0.571871,-0.03371 0.867974,0.165742 1.390396,0.936543 1.670019,2.463993 2.676773,5.281526 2.960492,8.285329 l 0.07125,0.754685 0.287034,0.234831 c 0.720545,0.589506 1.346592,1.493635 1.670893,2.413101 0.234952,0.666151 0.308645,1.120922 0.308645,1.90473 0,0.820208 -0.08219,1.291779 -0.348579,2.000046 -0.675774,1.796722 -2.274657,3.159622 -4.154356,3.541208 l -0.357572,0.07259 -0.165919,0.244715 c -0.528539,0.779562 -0.713151,1.035187 -1.070193,1.48186 -1.660058,2.076785 -3.629637,3.669164 -5.987947,4.841189 -2.123544,1.05535 -4.602573,1.7124 -6.787174,1.798905 -0.300241,0.01189 -0.675791,0.02726 -0.834559,0.03415 -0.158769,0.0069 -0.6227,-9.25e-4 -1.030957,-0.01739 z m 0.02061,-6.248062 c -1.859897,-0.297192 -3.420301,-1.55537 -4.393952,-3.542914 -0.430693,-0.879181 -0.804981,-2.124437 -0.746624,-2.484027 0.05418,-0.333882 0.398078,-0.629464 0.732356,-0.629464 0.194884,0 0.491802,0.157359 0.597597,0.31671 0.04787,0.07213 0.137855,0.341206 0.199931,0.597955 0.512235,2.118751 1.757121,3.671998 3.326712,4.150771 0.658377,0.200827 1.535941,0.220563 2.139704,0.04812 1.745234,-0.49847 2.97126,-1.980488 3.547977,-4.288789 0.101875,-0.407758 0.197937,-0.582175 0.383953,-0.69714 0.387731,-0.239629 0.879676,-0.0997 1.062184,0.302137 0.107756,0.237254 0.09768,0.392353 -0.06377,0.98139 -0.445113,1.624074 -1.096717,2.781626 -2.100889,3.732164 -0.743057,0.70336 -1.587358,1.162565 -2.644629,1.438378 -0.527403,0.137584 -1.438356,0.170937 -2.040563,0.07471 z m 7.73218,-9.625833 c -0.705806,-0.07698 -1.401341,-0.513506 -1.801379,-1.130553 -0.386805,-0.596631 -0.485702,-1.413417 -0.252904,-2.0888 0.219153,-0.635814 0.650351,-1.137547 1.219034,-1.418437 0.400972,-0.198054 0.68576,-0.268225 1.090963,-0.268812 0.452709,-6.56e-4 0.708145,0.05737 1.121618,0.254812 0.481934,0.230129 0.879592,0.627786 1.109715,1.109721 0.195295,0.408978 0.25552,0.669339 0.254696,1.100996 -0.0017,0.686159 -0.237215,1.241422 -0.739465,1.74059 -0.543605,0.54026 -1.239426,0.783688 -2.002278,0.700483 z M 16.26986,26.194189 c -0.865281,-0.247488 -1.538187,-0.928001 -1.754698,-1.774548 -0.337719,-1.320488 0.450748,-2.65902 1.773366,-3.010534 0.295656,-0.07858 0.907487,-0.07783 1.218176,0.0015 1.583194,0.40419 2.35333,2.254203 1.515196,3.639761 -0.301646,0.498664 -0.783008,0.89912 -1.30146,1.082719 -0.3295,0.116688 -1.137299,0.150719 -1.45058,0.06112 z M 29.278597,15.65334 c -1.190811,-0.152847 -2.34199,-0.680267 -3.217527,-1.474136 -0.34889,-0.316351 -0.499465,-0.590196 -0.525636,-0.955987 -0.02911,-0.406621 0.06663,-0.659392 0.361256,-0.95403 0.178202,-0.178201 0.286378,-0.249456 0.45451,-0.299385 0.48492,-0.144008 0.888315,-0.04404 1.310486,0.324777 0.682882,0.596567 1.302108,0.864214 2.119505,0.916108 1.718332,0.109091 3.244447,-1.104136 3.542602,-2.816289 0.08152,-0.4682024 0.03003,-1.1227558 -0.124522,-1.5821332 C 32.739479,7.4455216 31.642232,6.6097678 30.11875,6.4658825 29.504455,6.4078615 29.17906,6.2128009 28.964282,5.7737994 28.743101,5.3217258 28.835032,4.7507006 29.187851,4.3851013 c 0.320221,-0.3318241 0.63558,-0.4184624 1.298836,-0.3568293 1.927423,0.1791049 3.582981,1.2285036 4.560182,2.8905439 1.118691,1.9026951 1.035735,4.3527561 -0.209984,6.2019931 -1.210243,1.796558 -3.426156,2.806198 -5.558288,2.532531 z"
       id="path909" />
  </g>
</svg>
