<?xml version="1.0" encoding="UTF-8" standalone="no"?>
<!-- Created with Inkscape (http://www.inkscape.org/) -->

<svg
   width="50"
   height="50"
   viewBox="0 0 13.229166 13.229167"
   version="1.1"
   id="svg5"
   xml:space="preserve"
   inkscape:version="1.2.1 (9c6d41e410, 2022-07-14)"
   sodipodi:docname="big_buisiness.svg"
   xmlns:inkscape="http://www.inkscape.org/namespaces/inkscape"
   xmlns:sodipodi="http://sodipodi.sourceforge.net/DTD/sodipodi-0.dtd"
   xmlns="http://www.w3.org/2000/svg"
   xmlns:svg="http://www.w3.org/2000/svg"><sodipodi:namedview
     id="namedview7"
     pagecolor="#505050"
     bordercolor="#ffffff"
     borderopacity="1"
     inkscape:showpageshadow="0"
     inkscape:pageopacity="0"
     inkscape:pagecheckerboard="1"
     inkscape:deskcolor="#505050"
     inkscape:document-units="mm"
     showgrid="false"
     inkscape:zoom="8"
     inkscape:cx="32.9375"
     inkscape:cy="56.4375"
     inkscape:window-width="2560"
     inkscape:window-height="1351"
     inkscape:window-x="-9"
     inkscape:window-y="-9"
     inkscape:window-maximized="1"
     inkscape:current-layer="layer1" /><defs
     id="defs2" /><g
     inkscape:label="Слой 1"
     inkscape:groupmode="layer"
     id="layer1"><g
       id="g623"
       transform="matrix(0.07645456,0,0,0.07645456,-10.180103,-2.0510022)"><path
         style="fill:#ffffff;stroke-width:0.264583"
         d="m 64.144512,162.75333 c -8.287814,0.28585 -13.761619,-7.44791 -19.085305,-14.53534 -8.160356,-10.91562 -15.199144,-30.41051 -15.199144,-30.41051 0,0 -24.2567002,-0.20145 -33.7558513,-0.37838 C 3.9167952,99.757038 2.5558806,104.38294 5.8897578,98.189411 11.880386,87.060288 13.193164,84.111421 21.283959,73.802298 27.366619,66.051899 31.203996,60.033399 40.313857,52.348189 46.820686,46.858933 37.638362,41.45526 34.751875,24.667658 33.339551,16.453682 41.821016,11.311309 48.086309,8.0196143 65.709646,0.54881605 86.13764,-3.3717517 104.79249,2.5313422 c 9.24512,2.6836797 7.8585,12.9259748 8.4119,20.4283758 0.54949,9.805037 3.2716,19.307145 7.71403,28.037752 6.21319,1.224792 12.62014,-8.740577 17.27006,-4.332457 -0.85636,7.75823 -17.87398,4.453171 -13.90313,12.403741 4.87875,12.904501 5.53518,27.399437 0.78515,40.444641 2.73162,3.795935 17.66413,-9.978464 15.97408,2.519015 -4.68058,7.72436 8.68176,4.5356 9.00947,12.04554 2.66596,5.28939 5.68619,11.97667 1.90123,17.69733 -1.71285,5.60107 -5.86428,14.08185 -11.38535,12.0583 -3.24068,4.29145 -7.76733,0.2859 -11.48893,3.32067 -5.25022,-1.55393 -9.63922,-4.96437 -15.17273,-2.41597 -14.048936,5.07523 -26.342915,14.69655 -41.160735,17.78521 -2.833551,0.46966 -5.745747,0.38449 -8.603023,0.22984 z"
         id="path304-9-0"
         class="UnoptimicedTransforms"
         sodipodi:nodetypes="ccccsssssssccsssssssscc"
         transform="translate(139.88698,27.156405)" /><path
         style="fill:#000000;stroke-width:0.264583"
         d="M 64.144512,162.75333 C 55.856698,163.03918 50.73357,156.86267 44.759419,148.75581 34.607646,136.57055 33.541891,131.11715 29.905631,118.17276 17.130301,118.15854 4.7751439,118.3145 -6.7346119,118.26723 -2.1138997,110.51354 1.149987,104.16665 4.4838642,97.97312 11.27293,85.112902 23.371249,69.850289 28.217966,62.127528 33.804955,53.225217 38.81281,52.465303 39.375512,50.50765 40.309903,47.256878 35.145229,27.81752 33.834229,24.055894 33.124976,15.751616 41.821016,11.311309 48.086309,8.0196143 65.709646,0.54881605 86.13764,-3.3717517 104.79249,2.5313422 c 9.24512,2.6836797 7.8585,12.9259748 8.4119,20.4283758 0.54949,9.805037 3.2716,19.307145 7.71403,28.037752 6.21319,1.224792 12.62014,-8.740577 17.27006,-4.332457 -0.85636,7.75823 -17.87398,4.453171 -13.90313,12.403741 4.87875,12.904501 5.53518,27.399437 0.78515,40.444641 2.73162,3.795935 17.66413,-9.978464 15.97408,2.519015 -4.68058,7.72436 8.68176,4.5356 9.00947,12.04554 2.66596,5.28939 5.68619,11.97667 1.90123,17.69733 -1.71285,5.60107 -5.86428,14.08185 -11.38535,12.0583 -3.24068,4.29145 -7.76733,0.2859 -11.48893,3.32067 -5.25022,-1.55393 -9.63922,-4.96437 -15.17273,-2.41597 -14.048936,5.07523 -26.342915,14.69655 -41.160735,17.78521 -2.833551,0.46966 -5.745747,0.38449 -8.603023,0.22984 z m 9.811632,-2.30575 c 7.820038,-1.85023 15.053737,-5.43018 22.077283,-9.26151 -6.81846,2.27776 -13.01605,6.40865 -20.275902,7.44283 -6.924211,2.17788 -16.365076,2.95553 -21.86145,-2.59904 -6.497707,-5.73679 -10.67571,-13.44607 -15.647071,-20.4197 -3.585633,-7.6604 -8.190608,-23.2572 -10.222806,-31.50693 -0.457264,6.67134 4.965698,20.79177 7.190931,27.0417 3.311084,7.91383 8.781224,14.78586 13.985101,21.58619 4.810952,6.76343 12.575976,9.35655 20.636245,8.42093 1.392729,-0.0377 2.853827,-0.0243 4.117669,-0.70447 z m -8.834375,-3.04143 c 3.183157,-0.30791 15.355012,-5.49422 5.996329,-2.44795 -1.09402,0.20736 -13.582408,3.75163 -5.996329,2.44795 z m 13.542445,-1.68945 c 5.084739,-1.65124 10.033559,-10.57096 7.660002,-13.34772 1.699352,7.09291 -7.805135,11.58488 -9.569647,14.55771 l 0.814052,-0.44728 z m 0.180715,-4.22545 c 3.556837,-4.31047 -5.149057,4.13152 0,0 z m 20.511218,-1.74219 c 6.329633,-3.8423 12.538183,-3.87253 11.927123,-11.62536 2.09756,-3.30122 -4.68517,-11.58134 -0.81599,-4.42844 1.32359,7.17919 -3.6979,13.00006 -10.24564,14.80776 -1.300236,0.75809 -4.339429,2.89191 -0.865493,1.24604 z m 32.469293,-5.3831 c 2.09225,-3.74981 0.68084,-6.81023 -2.43621,-7.70215 3.71834,0.92517 9.29383,-9.86739 10.60897,0.078 -1.39259,7.19313 9.78276,6.36313 5.94041,-1.38153 -0.53997,-5.37186 -2.59164,-1.41533 -2.93306,-0.18248 -1.23716,-5.12093 -1.0065,9.1083 -2.06919,1.07282 -1.7025,-6.38837 7.3344,-7.10516 6.5303,-0.55996 6.07327,-2.43236 -2.67209,-5.90446 2.50037,-6.62753 5.49215,-4.14632 -2.11858,-9.52725 -4.48968,-2.60169 -6.58223,-0.31802 -1.29577,-1.79882 2.92202,-4.96322 4.60533,-3.45515 -1.31748,-9.54597 -4.0224,-2.54441 -6.18662,5.75563 -0.21255,-4.03366 2.11365,-5.14998 -0.59906,-7.57657 -8.86381,-1.4079 -8.45165,3.75672 -4.80068,6.80782 -8.10786,-5.12911 -1.17574,-3.4104 4.05348,2.48744 1.99628,-10.85851 -3.60213,-5.1022 -2.24163,2.41265 0.87402,11.26444 -2.29893,4.23699 -5.13937,1.81906 -2.233,0.59899 -2.10634,-1.91793 1.4447,-3.61713 13.66044,-6.38571 9.43797,-12.149208 -2.41577,3.305738 -8.72899,3.478118 -9.67745,5.339828 -4.98902,-1.65146 -8.12466,6.2804 -11.25796,9.35666 -0.66312,3.95778 -10.44588,6.38932 -6.8825,10.10072 4.70916,4.6524 5.66312,12.07101 4.6071,17.6877 8.06603,4.13999 4.75742,-15.27574 12.19139,-6.66067 1.66018,-4.4713 8.13255,-0.50294 2.80463,-0.19878 -3.68746,1.57108 -4.71856,13.41396 1.74643,9.52267 z m 8.54112,-23.30789 c 1.16176,-4.6769 2.56641,0.48055 0,0 z m -1.89224,22.45066 c 2.38276,-3.93562 -0.58654,-7.18179 -1.56641,-10.41395 -3.83403,0.53108 -6.1049,15.89693 1.56641,10.41395 z m -3.27801,-7.12243 c 0.26238,-1.44352 2.74716,1.1183 0,0 z m -9.40699,6.29494 c 1.13615,-2.68722 0.95341,-5.96822 -2.13809,-5.7971 5.41365,-1.35892 -0.33817,-3.81912 -1.69506,-0.11331 -0.76081,2.66523 -0.67156,9.27186 3.83315,5.91041 z m -13.71578,0.0634 c 4.0839,-4.649 -0.44364,-16.23 -2.30165,-16.74963 4.03963,4.83588 3.55131,13.3811 2.30165,16.74963 z m -24.683803,-2.78922 c -0.06347,-2.09565 -1.329334,3.00093 0,0 z M 71.586538,138.764 c 2.727698,-3.27249 1.594436,-11.46515 6.677446,-11.82938 8.209304,0.0167 16.4432,-1.91216 23.893696,-5.23319 3.37676,-1.75535 7.9422,4.68704 3.01034,-0.79276 -4.5842,-1.56505 -9.676637,4.26339 -14.854115,3.83492 -4.610875,2.88397 -13.049073,-0.31913 -15.048345,1.19575 -1.17955,2.6254 -6.012941,13.25836 -3.679022,12.82466 z m -4.318281,-10.57228 c 2.246989,-3.23059 11.0128,-5.97753 2.810263,-4.48155 -2.982008,1.78848 -8.410193,5.56272 -2.746948,3.27641 -2.553233,2.8527 -4.413588,5.52422 -0.06331,1.20514 z m 0.242205,-1.97427 c 0.280087,-1.45061 1.087315,1.33095 0,0 z m 40.841518,-2.10105 c -0.57057,-0.98214 -0.55493,0.31366 0,0 z m -18.570343,-1.0559 c 5.483934,0.21703 10.599933,-5.3644 15.465313,-4.95136 6.85509,-1.1021 -4.63111,-3.87893 -6.587974,-6.33927 -4.530893,0.58223 -10.415427,2.59393 -15.121632,-0.1659 -8.710432,-3.04384 -17.875428,-9.03472 -18.885997,-19.054178 -1.685031,-4.605108 1.980801,-17.922724 4.968532,-15.411642 -2.096406,7.879087 5.296952,14.270563 12.879235,12.191116 4.881804,-1.242911 12.248029,0.317207 15.020015,3.793792 -2.917342,6.339254 -9.655695,-3.614335 -14.964022,0.106982 -4.805314,2.169893 -12.329547,-3.426661 -14.155214,-3.359894 -0.413386,8.98151 7.713954,14.994844 15.384782,17.596214 7.329964,4.74174 14.729806,-5.06709 19.524525,2.79531 7.66835,5.95495 15.01783,1.24098 18.98669,-6.13728 -7.81603,-1.13147 -13.0668,-10.481213 -21.57419,-8.290396 -4.720129,-3.684397 6.72257,-4.807269 1.94618,-9.691454 -3.114223,-7.989714 8.48949,0.66628 4.58749,5.39091 4.60972,0.875384 13.25726,12.62033 14.92547,4.211838 2.93343,-9.786632 3.33371,-20.810936 -0.27487,-30.434808 -2.60676,-1.057637 -10.08405,-4.48134 -3.16909,-5.10305 4.71637,-0.898556 -2.43421,-6.486236 -5.6224,-4.33722 C 102.79709,55.702733 92.903034,52.014878 82.582682,51.427098 69.889876,50.699283 56.277634,49.119469 44.348594,54.51741 c -5.818915,3.336119 -13.650725,9.679028 -10.024237,17.213938 0.53671,3.067716 6.141829,6.770418 3.009847,1.155519 -1.264874,-8.864791 8.917626,-13.334573 15.606788,-16.273827 10.774103,-4.279992 23.077935,-5.137119 34.244315,-2.25598 -12.745046,0.0044 -27.433288,-0.223163 -37.155914,9.446325 -3.497152,3.488172 -5.885035,8.790226 -0.150329,10.672115 -1.496604,3.008174 -9.996876,0.108431 -8.6693,6.76241 -0.273905,10.159629 14.372001,7.032371 13.850056,17.114065 4.896958,13.250155 17.489394,22.228875 30.934867,25.314985 1.267065,-0.17192 2.526029,-0.39958 3.78695,-0.60646 z M 116.37965,80.24857 c -6.69122,-5.449442 8.15429,-7.786265 3.42424,-0.479413 -0.8322,0.978163 -2.34926,1.081536 -3.42424,0.479413 z M 83.158587,78.71739 c -5.846067,-3.056815 2.727955,-6.95043 2.04236,-7.0234 -1.898127,-1.738033 -14.105615,-6.528263 -6.926625,-6.708383 6.445951,1.131122 12.224673,9.685091 16.873085,4.944645 3.789019,8.471812 -7.470963,4.408047 -7.30007,4.389388 1.466563,2.789729 -1.991707,6.049601 -4.68875,4.39775 z M 51.388164,72.69472 c -7.496705,-6.696876 17.333585,-3.634001 5.924302,-0.0431 -1.973491,0.07221 -3.950182,0.114987 -5.924302,0.0431 z m 0.0273,-4.75174 c -3.022944,-7.196695 15.043788,-2.646837 5.17541,0.23615 -1.651481,-0.0241 -3.690069,0.705086 -5.17541,-0.23615 z m 85.607806,49.19827 c 0.73633,-7.14559 -6.74574,3.35454 0,0 z M 1.4697662,113.00426 c 1.7764628,-3.61993 4.8284815,-12.92476 8.7000358,-10.7935 1.339618,-4.465077 5.490193,-15.078783 8.571913,-18.066054 1.057818,3.172202 5.350686,5.582692 1.406193,1.098158 -1.832513,-3.092115 1.078315,-7.284536 -3.40285,-1.80078 -6.366105,7.790421 -12.1040769,18.653606 -16.40571373,25.634536 -0.7020521,1.85208 -3.02901167,12.40339 1.13042193,3.92764 z M 10.284174,102.9 c -3.1637295,-4.653557 1.181384,4.91527 0,0 z m 17.36988,-0.37207 C 25.755645,93.897891 26.05391,84.879341 25.041735,76.091415 c -1.21571,-9.182104 -0.8226,7.927335 -0.04106,10.481028 -0.102632,4.026063 0.660632,17.119127 2.653384,15.955487 z m 108.420216,-2.09247 c 3.16261,-5.35358 -5.63622,3.49367 0,0 z M 113.83061,51.37389 c -2.46553,-4.320244 -11.9413,-1.441878 -11.53784,-9.414863 -1.53719,-3.597837 -4.468153,-8.949271 1.91919,-6.12875 7.79266,1.342716 -5.876416,-2.581524 -8.515403,-2.756354 -17.989203,-2.804521 -36.730566,2.776842 -50.840768,14.102487 1.656548,3.588866 10.511741,-2.008837 15.346975,-0.75046 16.540188,-1.002415 32.953536,1.628577 49.107106,4.854332 1.4938,0.109572 3.0343,0.461645 4.52074,0.09361 z M 51.208274,45.05652 c 6.117946,-5.132836 14.072653,-7.527058 21.772756,-9.194271 4.96265,10.281971 -7.467732,7.129963 -13.704095,8.394725 -2.563602,-0.03188 -5.946582,1.312683 -8.068661,0.799546 z m -4.1505,-3.092445 c 2.779907,-6.742898 -2.446149,-14.742397 -4.35005,-21.554916 -6.438277,-0.334928 0.315955,10.883085 0.696364,14.96527 1.042981,1.561985 0.528476,7.648285 3.653686,6.589646 z M 77.588415,30.262018 C 84.304828,28.658681 91.967387,30.901613 98.207106,29.020786 97.341813,21.401034 96.514102,13.757996 96.325258,6.0832321 89.773179,2.5179536 80.271074,4.4569138 72.741238,5.2315876 60.936474,4.6034309 69.309522,15.683633 69.986517,21.989649 c 1.355999,4.435488 0.693496,11.23348 7.601898,8.272369 z"
         id="path304-9"
         class="UnoptimicedTransforms"
         sodipodi:nodetypes="cccccsscsssccssssssssccssssssssssssssssssssssssssssssssssssscscssssssssssscccscssssssssssssssscssssssssssssscssssssssccsssssssssscscscssssscssscsssssssssssssssscssssssssccssssssssssssssssssssscs"
         transform="translate(139.88694,27.156221)" /></g></g></svg>
