<?xml version="1.0" encoding="UTF-8" standalone="no"?>
<!-- Created with Inkscape (http://www.inkscape.org/) -->

<svg
   width="32"
   height="32"
   viewBox="0 0 8.4666665 8.4666666"
   version="1.1"
   id="svg1913"
   xml:space="preserve"
   inkscape:version="1.2.1 (9c6d41e410, 2022-07-14)"
   sodipodi:docname="bookmark.svg"
   xmlns:inkscape="http://www.inkscape.org/namespaces/inkscape"
   xmlns:sodipodi="http://sodipodi.sourceforge.net/DTD/sodipodi-0.dtd"
   xmlns="http://www.w3.org/2000/svg"
   xmlns:svg="http://www.w3.org/2000/svg"><sodipodi:namedview
     id="namedview1915"
     pagecolor="#505050"
     bordercolor="#ffffff"
     borderopacity="1"
     inkscape:showpageshadow="0"
     inkscape:pageopacity="0"
     inkscape:pagecheckerboard="1"
     inkscape:deskcolor="#505050"
     inkscape:document-units="mm"
     showgrid="false"
     inkscape:zoom="29.276992"
     inkscape:cx="21.774778"
     inkscape:cy="16.890396"
     inkscape:window-width="2560"
     inkscape:window-height="1351"
     inkscape:window-x="-9"
     inkscape:window-y="1341"
     inkscape:window-maximized="1"
     inkscape:current-layer="layer1" /><defs
     id="defs1910" /><g
     inkscape:label="Слой 1"
     inkscape:groupmode="layer"
     id="layer1"><path
       style="fill:#000000;stroke-width:0.016537"
       d="M 1.1350634,8.4446788 C 0.86512295,8.3719938 0.68973815,8.1801269 0.65201225,7.9162419 c -0.022683,-0.1586355 -0.022683,-7.20033347 0,-7.35896807 0.03822,-0.26731631 0.2142533,-0.45740258 0.49014415,-0.52926365 0.143395,-0.0373469 6.018969,-0.0373469 6.162364,0 0.275891,0.0718628 0.4519276,0.26194734 0.4901443,0.52926365 0.022674,0.1586346 0.022674,7.20033257 0,7.35896807 C 7.7435945,8.2734697 7.4243374,8.5033506 7.0516801,8.4512285 6.8984983,8.4298002 6.7921468,8.3746528 6.6538114,8.2449009 6.5871531,8.1823791 6.0156712,7.634492 5.3838544,7.027377 4.7520375,6.4202629 4.2298059,5.9235325 4.2233384,5.9235325 c -0.00644,0 -0.5286991,0.4967304 -1.1605159,1.1038445 C 1.6329838,8.4013136 1.6922194,8.3460679 1.5980569,8.393495 1.448815,8.468664 1.2895311,8.486273 1.1350634,8.444675 Z M 2.8176932,6.2698546 C 3.4771057,5.6379954 4.0631365,5.0772022 4.1199825,5.0236484 l 0.1033559,-0.097371 0.1033568,0.097371 c 0.097822,0.092157 2.3565072,2.2556111 2.629384,2.5185231 L 7.0842404,7.6656537 V 4.190014 0.71437503 H 4.2233384 1.3624364 V 4.190014 7.6656537 l 0.128162,-0.1234822 c 0.07049,-0.067913 0.6676814,-0.6404577 1.3270948,-1.2723169 z"
       id="path4022" /></g></svg>
