<?xml version="1.0" encoding="UTF-8" standalone="no"?>
<!-- Created with Inkscape (http://www.inkscape.org/) -->

<svg
   width="44"
   height="44"
   viewBox="0 0 11.641666 11.641666"
   version="1.1"
   id="svg5"
   xml:space="preserve"
   inkscape:version="1.2.1 (9c6d41e410, 2022-07-14)"
   sodipodi:docname="box.svg"
   xmlns:inkscape="http://www.inkscape.org/namespaces/inkscape"
   xmlns:sodipodi="http://sodipodi.sourceforge.net/DTD/sodipodi-0.dtd"
   xmlns="http://www.w3.org/2000/svg"
   xmlns:svg="http://www.w3.org/2000/svg"><sodipodi:namedview
     id="namedview7"
     pagecolor="#505050"
     bordercolor="#ffffff"
     borderopacity="1"
     inkscape:showpageshadow="0"
     inkscape:pageopacity="0"
     inkscape:pagecheckerboard="1"
     inkscape:deskcolor="#505050"
     inkscape:document-units="mm"
     showgrid="false"
     inkscape:zoom="7.3192482"
     inkscape:cx="41.397695"
     inkscape:cy="19.879091"
     inkscape:window-width="2560"
     inkscape:window-height="1351"
     inkscape:window-x="-9"
     inkscape:window-y="-9"
     inkscape:window-maximized="1"
     inkscape:current-layer="layer1" /><defs
     id="defs2" /><g
     inkscape:label="Слой 1"
     inkscape:groupmode="layer"
     id="layer1"><g
       id="g657"
       transform="matrix(0.08564397,0,0,0.08564397,-11.058162,3.0987245)"><g
         id="g652"><rect
           style="fill:#ffffff;stroke-width:0.264583"
           id="rect446"
           width="124.49708"
           height="63.766796"
           x="134.185"
           y="-30.365137" /><path
           style="fill:#5ca558;stroke:none;stroke-width:0.264583"
           d="m 136.22884,-35.889514 c -7.50363,1.352889 -6.87917,8.838166 -6.87917,14.693764 v 43.920832 c 0,5.26415 -1.50979,12.852929 3.17603,16.565562 2.83821,2.248429 6.67816,1.690687 10.05314,1.690687 h 21.43124 64.55834 20.10833 c 3.07763,0 6.79979,0.564886 9.78958,-0.201348 7.08554,-1.81557 6.35,-8.864335 6.35,-14.615318 v -43.920831 c 0,-5.377498 1.62216,-13.495707 -3.70417,-16.898217 -3.08266,-1.969331 -7.10379,-1.358032 -10.58333,-1.358032 H 228.03925 166.12675 146.283 c -3.23903,0 -6.86347,-0.452379 -10.05416,0.122901 m 106.89166,8.343765 c 0.0198,7.200503 5.94254,13.433451 13.22916,13.49375 v 33.072915 c -7.24958,0.149754 -13.43342,6.206595 -13.49375,13.493749 h -91.54582 c -0.0605,-7.308056 -6.2411,-13.343995 -13.49375,-13.493749 v -33.072915 c 7.30287,-0.06046 13.43324,-6.185509 13.49375,-13.49375 h 91.81041 m -46.56667,5.936985 c -15.9766,1.712463 -20.91055,20.78725404 -16.40337,34.015097 2.43205,7.137664 9.20829,14.667441 17.46171,13.976878 16.4502,-1.376098 21.7461,-22.9711236 15.66809,-35.937294 -2.92946,-6.249749 -9.0969,-12.872429 -16.72643,-12.054681 m 1.85209,10.202598 v 1.5874997 c 2.53973,0.3280833 5.04825,1.1541125 7.14375,2.6458332 v 0.2645833 l -2.16535,2.3013458 c 0,0 -1.53243,-0.7764261 -2.34867,-1.0309158 -0.8603,-0.268229 -2.65435,-0.512829 -2.65435,-0.512829 l 0.0432,6.04801124 c 0,0 4.55463,1.59967096 5.9765,3.25993096 4.37251,5.105929 -0.78157,10.8653786 -6.26004,11.1011226 v 2.645833 h -1.85208 l -0.0419,-2.582126 c 0,0 -2.0077,-0.40909 -3.39764,-1.05563 -1.38994,-0.64654 -5.02709,-2.976827 -5.02709,-2.976827 v -0.264583 l 2.42623,-2.1481516 6.04044,2.4127346 V 3.6750834 c -2.20001,-0.192087 -4.8096,-1.126331 -6.20236,-2.92099996 -3.8444,-4.95352914 0.91069,-10.60658994 6.20236,-10.83733344 v -1.322916 h 2.11667 m -42.33292,3.3120538 c -13.49878,2.8789311 -8.91607,23.7717532 4.49791,20.9539402 13.67975,-2.8736386 9.16226,-23.867532 -4.49791,-20.9539402 m 77.52291,-0.014023 c -8.48731,1.5300853 -11.24162,12.5147916 -5.24642,18.3488532 2.55772,2.4892 6.3365,3.203046 9.74433,2.572015 13.56149,-2.510367 8.9789,-23.350828 -4.49791,-20.9208682 m -37.30625,7.81446824 V -6.1144998 c -4.1947,0.6315604 -3.674,4.7598538 0,5.82083284 m 1.85208,4.49791736 v 6.0854156 c 4.85431,-0.22225 4.3905,-5.3027786 0,-6.0854156 M 132.26009,45.091104 c -4.00775,0.97446 -3.5049,6.474618 0.26458,7.39087 3.13666,0.762265 7.09496,0.141023 10.31875,0.141023 h 20.90208 67.46875 23.54791 c 2.667,0 6.95749,0.8509 8.93631,-1.338262 2.12433,-2.349765 0.9009,-6.044406 -2.32172,-6.310048 -8.69209,-0.716491 -17.73396,-0.02461 -26.45834,-0.02461 h -70.11458 -21.96041 c -3.30406,0 -7.36902,-0.640556 -10.58333,0.141023 m -0.26459,11.648281 c -3.91154,1.027906 -3.12066,6.644745 0.52917,7.398543 3.29803,0.681037 7.21897,0.126735 10.58333,0.126735 h 21.16667 66.93958 23.54791 c 2.72045,0 6.85351,0.794015 8.93631,-1.372922 2.32595,-2.419879 0.5662,-6.015302 -2.58631,-6.275388 -8.60504,-0.709348 -17.55642,-0.02461 -26.19375,-0.02461 h -70.64374 -21.96042 c -3.18928,0 -7.22982,-0.664104 -10.31875,0.147638 m 2.1e-4,11.909159 c -3.56494,0.98478 -3.34577,6.4262 0.26438,7.166769 3.19905,0.656166 7.05392,0.09102 10.31875,0.09102 h 21.43124 67.46875 23.54792 c 2.48285,0 6.76089,0.84799 8.64129,-1.114954 2.1508,-2.245254 0.84614,-5.994664 -2.29129,-6.268508 -8.67648,-0.756973 -17.74561,-0.02487 -26.45834,-0.02487 h -70.90833 -21.69583 c -3.16362,0 -7.26469,-0.693209 -10.31854,0.150547 m 1.05813,11.604625 c -3.84336,0.570706 -5.34758,6.039646 -1.05834,7.386636 2.74667,0.86255 6.65359,0.17278 9.525,0.17278 h 20.90209 69.05624 23.8125 c 2.55349,0 6.74952,0.8554 8.56245,-1.37187 1.9042,-2.339446 0.60404,-5.903119 -2.45322,-6.230938 -8.71564,-0.934244 -17.97976,-0.07011 -26.74673,-0.07011 h -67.99791 -22.225 c -3.70377,0 -7.71181,-0.430742 -11.37708,0.113506 m -0.79375,11.669177 c -3.78902,0.92128 -3.78163,6.47144 0,7.39087 3.13647,0.762534 7.09512,0.14102 10.31875,0.14102 h 21.16666 67.46875 23.54791 c 2.6162,0 6.85747,0.843764 8.86831,-1.18506 2.54,-2.56302 0.47731,-6.21956 -2.78289,-6.46404 -8.53996,-0.64029 -17.36302,-0.0238 -25.92917,-0.0238 h -70.11458 -21.96041 c -3.30406,0 -7.36902,-0.64056 -10.58333,0.14102 z"
           id="path301"
           sodipodi:nodetypes="csscsccscsscsccscccccccccccsccccccccsccccccczccccccccccscccccccccccccsccscsscscccsccsscscscccsccsscscsccssccsscscscscsccsccscsss" /></g></g></g></svg>
