<?xml version="1.0" encoding="UTF-8" standalone="no"?>
<!-- Created with Inkscape (http://www.inkscape.org/) -->

<svg
   width="48"
   height="48"
   viewBox="0 0 12.7 12.7"
   version="1.1"
   id="svg5"
   xml:space="preserve"
   inkscape:version="1.2.1 (9c6d41e410, 2022-07-14)"
   sodipodi:docname="cherry.svg"
   xmlns:inkscape="http://www.inkscape.org/namespaces/inkscape"
   xmlns:sodipodi="http://sodipodi.sourceforge.net/DTD/sodipodi-0.dtd"
   xmlns="http://www.w3.org/2000/svg"
   xmlns:svg="http://www.w3.org/2000/svg"><sodipodi:namedview
     id="namedview7"
     pagecolor="#505050"
     bordercolor="#ffffff"
     borderopacity="1"
     inkscape:showpageshadow="0"
     inkscape:pageopacity="0"
     inkscape:pagecheckerboard="1"
     inkscape:deskcolor="#505050"
     inkscape:document-units="mm"
     showgrid="false"
     inkscape:zoom="11.313709"
     inkscape:cx="21.876116"
     inkscape:cy="31.775611"
     inkscape:window-width="2560"
     inkscape:window-height="1351"
     inkscape:window-x="-9"
     inkscape:window-y="-9"
     inkscape:window-maximized="1"
     inkscape:current-layer="layer1" /><defs
     id="defs2" /><g
     inkscape:label="Слой 1"
     inkscape:groupmode="layer"
     id="layer1"><ellipse
       style="opacity:1;fill:#ffffff;fill-opacity:1;stroke-width:0.529167;stop-color:#000000"
       id="path2590"
       cx="2.009748"
       cy="7.882431"
       rx="1.0096669"
       ry="0.99688631" /><path
       style="fill:#980000;stroke-width:0.0260514"
       d="M 3.3674511,12.050688 C 1.5623079,11.920693 0.05203221,10.023522 0.51456939,8.232561 0.79175001,7.2893164 1.5868749,6.3859334 2.6065892,6.2875683 3.1676642,6.1831019 3.745628,6.6615688 3.7465211,7.2285788 c 0.1791692,0.1818225 0.1922981,0.2517098 0.44527,0.2220412 0.145626,0.00206 -0.052192,-0.5447792 0.564958,-0.4978199 0.5214722,-0.014916 0.9945866,0.2677643 1.355202,0.6229857 -0.4547899,0.8106644 -0.5694475,1.8053361 -0.2907248,2.6934432 0.041,0.231924 0.3665891,0.494922 0.057188,0.656733 -0.6437138,0.698005 -1.5282786,1.234123 -2.5109632,1.124726 z m -1.42413,-3.6686282 c 0.4700257,-0.2049454 0.856682,-0.9412236 0.37805,-1.328674 -0.6489129,-0.3287242 -1.46417402,0.4822158 -1.19634,1.131545 0.1248848,0.3243734 0.5523794,0.3297168 0.81829,0.197129 z"
       id="path1773"
       sodipodi:nodetypes="cccccccccccccc" /><ellipse
       style="fill:#ffffff;fill-opacity:1;stroke-width:0.529167;stop-color:#000000"
       id="path2590-7"
       cx="7.1213489"
       cy="8.5311584"
       rx="1.0096669"
       ry="0.99688631" /><path
       style="fill:#ec0022;stroke-width:0.0260514"
       d="M 8.5866011,12.068457 C 5.9714744,11.475571 5.0850923,8.4233555 6.9904775,7.0962063 7.3640175,6.858538 8.0172424,6.8974051 8.1885518,7.4457756 8.4233689,7.4353806 8.6316207,7.3872089 8.6428311,7.1579768 8.640177,6.7603305 9.2234796,6.4462565 9.6180911,6.3785768 10.729747,6.1821043 11.899795,7.0115764 12.030578,8.1446575 12.152491,9.1748074 11.860644,10.268005 11.222106,11.086559 10.588052,11.867037 9.55725,12.158557 8.5866011,12.068457 Z M 7.1414611,9.2779098 C 7.7436139,9.039446 7.941568,7.988719 7.2982056,7.6839117 6.7092446,7.5421415 6.3055619,8.3133711 6.4350107,8.8155873 6.4898322,9.1471112 6.8005309,9.419518 7.1414611,9.2779098 Z"
       id="path1777"
       sodipodi:nodetypes="cccccccccccc" /><path
       style="fill:#32604c;stroke-width:0.0260514"
       d="M 8.4222511,8.2530918 C 7.9355893,6.5774205 7.3348479,4.8920226 6.2239762,3.5173198 5.9342824,3.1715462 5.5909617,2.6465913 5.3153986,2.4373091 5.2366644,4.4031308 4.7282375,6.3388438 3.9330181,8.1317316 3.6249931,8.3670365 3.2636594,7.8921463 3.6010977,7.6026803 4.3141728,5.8410072 4.8315301,3.9526644 4.7767833,2.0382362 4.6836748,1.5882337 4.0838233,0.94408936 4.7197661,0.61632069 5.2639584,0.55592644 5.3873845,1.1700208 5.3523705,1.5895151 5.9684872,2.4076793 6.6829533,3.1824429 7.2356418,4.057224 8.0324399,5.2973011 8.5168525,6.7107731 8.8953011,8.1252502 8.780951,8.1909401 8.5663283,8.2766646 8.4222511,8.2530918 Z m 0.47871,-4.598274 C 7.5375326,3.4888636 6.2114991,2.6427965 5.6670795,1.3601745 6.7270803,1.0184229 7.9210822,0.82122711 9.0116921,1.1681273 10.040301,1.4752595 10.700661,2.5261773 10.720722,3.5671538 10.143037,3.7277935 9.4972207,3.6940509 8.9009611,3.6548178 Z"
       id="path1775" /></g></svg>
