<?xml version="1.0" encoding="UTF-8" standalone="no"?>
<!-- Created with Inkscape (http://www.inkscape.org/) -->

<svg
   width="16"
   height="16"
   viewBox="0 0 4.2333332 4.2333335"
   version="1.1"
   id="svg5"
   inkscape:version="1.1 (c68e22c387, 2021-05-23)"
   sodipodi:docname="column_b.svg"
   xmlns:inkscape="http://www.inkscape.org/namespaces/inkscape"
   xmlns:sodipodi="http://sodipodi.sourceforge.net/DTD/sodipodi-0.dtd"
   xmlns="http://www.w3.org/2000/svg"
   xmlns:svg="http://www.w3.org/2000/svg">
  <sodipodi:namedview
     id="namedview7"
     pagecolor="#ffffff"
     bordercolor="#666666"
     borderopacity="1.0"
     inkscape:pageshadow="2"
     inkscape:pageopacity="0.0"
     inkscape:pagecheckerboard="0"
     inkscape:document-units="mm"
     showgrid="false"
     units="px"
     width="16px"
     inkscape:zoom="18.586756"
     inkscape:cx="6.671417"
     inkscape:cy="13.53114"
     inkscape:window-width="1600"
     inkscape:window-height="837"
     inkscape:window-x="-8"
     inkscape:window-y="-8"
     inkscape:window-maximized="1"
     inkscape:current-layer="layer1" />
  <defs
     id="defs2">
    <pattern
       id="EMFhbasepattern"
       patternUnits="userSpaceOnUse"
       width="6"
       height="6"
       x="0"
       y="0" />
    <pattern
       id="EMFhbasepattern-1"
       patternUnits="userSpaceOnUse"
       width="6"
       height="6"
       x="0"
       y="0" />
    <pattern
       id="EMFhbasepattern-2"
       patternUnits="userSpaceOnUse"
       width="6"
       height="6"
       x="0"
       y="0" />
    <pattern
       id="EMFhbasepattern-5"
       patternUnits="userSpaceOnUse"
       width="6"
       height="6"
       x="0"
       y="0" />
  </defs>
  <g
     inkscape:label="Слой 1"
     inkscape:groupmode="layer"
     id="layer1">
    <path
       style="fill:#000000;fill-opacity:1;stroke-width:0.0099047"
       d="m 0.19551167,4.0871684 c -0.01702,-0.00739 -0.0382,-0.023799 -0.04708,-0.036462 -0.01478,-0.021072 -0.01614,-0.1842946 -0.01614,-1.9321052 0,-1.76341307 0.0013,-1.91122467 0.0165,-1.93699877 0.04289,-0.072505 0.16457902,-0.063077 0.19736702,0.01529 0.012,0.028682 0.01409,0.3033339 0.01409,1.85525337 V 3.8737303 H 2.1947708 c 1.833634,0 1.834535,1e-5 1.86306,0.020293 0.01762,0.012533 0.03263,0.035473 0.03923,0.059971 0.01412,0.052371 -0.01021,0.1053404 -0.05976,0.1300579 -0.03267,0.016299 -0.144637,0.017287 -1.922775,0.016938 -1.56858411,-3.176e-4 -1.89332113,-0.0027 -1.91902513,-0.013822 z M 0.67741169,3.6391089 c -0.0367,-0.013332 -0.06891,-0.056905 -0.07941,-0.1074277 -0.0072,-0.034445 -0.0098,-0.2008398 -0.0078,-0.4916981 l 0.003,-0.4396406 0.0244,-0.035543 c 0.0447,-0.065134 0.05507,-0.066912 0.38973311,-0.066892 0.334378,2e-5 0.346754,0.0022 0.390958,0.06826 l 0.0225,0.033636 v 0.4741412 c 0,0.5232936 10e-4,0.5140977 -0.06243,0.5527438 -0.0298,0.018146 -0.05104,0.019275 -0.348889,0.018576 -0.17443811,-4.225e-4 -0.32384911,-0.0032 -0.33202611,-0.00619 z M 1.8102488,3.6268949 c -0.06683,-0.041146 -0.06243,0.054668 -0.06239,-1.3586495 2.8e-5,-1.2596129 3.44e-4,-1.28034267 0.01973,-1.31209297 0.01083,-0.017747 0.03423,-0.041106 0.052,-0.051932 0.03039,-0.018506 0.05044,-0.019674 0.3382,-0.019704 0.29216,-3.9e-5 0.307557,8.988e-4 0.342829,0.020693 0.02031,0.011405 0.04505,0.034445 0.05496,0.051213 0.01717,0.029022 0.01808,0.09109 0.01905,1.29325467 5.56e-4,0.6945243 -0.0021,1.2779687 -0.0059,1.2965433 -0.0038,0.018576 -0.02064,0.047527 -0.03746,0.064335 l -0.03059,0.03057 -0.329369,0.0027 c -0.313125,0.0025 -0.330934,0.0017 -0.361099,-0.016888 z m 1.156368,0.0031 c -0.01378,-0.00859 -0.03497,-0.03064 -0.04708,-0.049085 l -0.02202,-0.033546 V 2.7351751 c 0,-0.7943809 4.49e-4,-0.8130404 0.01995,-0.8512381 0.03831,-0.074981 0.03295,-0.073983 0.397636,-0.073983 0.310556,0 0.325445,8.459e-4 0.351279,0.020113 0.01484,0.011065 0.03524,0.035493 0.04533,0.054289 0.01743,0.032467 0.01835,0.074901 0.01835,0.8503133 V 3.550812 l -0.02185,0.031838 c -0.0437,0.063686 -0.04215,0.063447 -0.395952,0.063157 -0.273821,-2.247e-4 -0.324242,-0.0025 -0.345648,-0.015809 z"
       id="path936" />
  </g>
</svg>
