<?xml version="1.0" encoding="UTF-8" standalone="no"?>
<svg
   height="48"
   viewBox="-21 -47 36.035191 36.000001"
   width="48"
   version="1.1"
   id="svg10"
   sodipodi:docname="comment_critic_chain.svg"
   inkscape:version="1.2.1 (9c6d41e410, 2022-07-14)"
   xml:space="preserve"
   xmlns:inkscape="http://www.inkscape.org/namespaces/inkscape"
   xmlns:sodipodi="http://sodipodi.sourceforge.net/DTD/sodipodi-0.dtd"
   xmlns="http://www.w3.org/2000/svg"
   xmlns:svg="http://www.w3.org/2000/svg"><defs
     id="defs14" /><sodipodi:namedview
     id="namedview12"
     pagecolor="#ffffff"
     bordercolor="#666666"
     borderopacity="1.0"
     inkscape:pageshadow="2"
     inkscape:pageopacity="0.0"
     inkscape:pagecheckerboard="0"
     inkscape:document-units="pt"
     showgrid="false"
     units="px"
     inkscape:zoom="11.472141"
     inkscape:cx="30.900946"
     inkscape:cy="27.152735"
     inkscape:window-width="2560"
     inkscape:window-height="1351"
     inkscape:window-x="-9"
     inkscape:window-y="-9"
     inkscape:window-maximized="1"
     inkscape:current-layer="svg10"
     inkscape:showpageshadow="0"
     inkscape:deskcolor="#d1d1d1" /><path
     style="fill:#ffffff;stroke-width:0.0595903"
     d="m -12.191099,-13.855628 c -2.56479,-0.397416 -4.680681,-2.134761 -5.571005,-4.574305 -0.272919,-0.747813 -0.381559,-1.421297 -0.381559,-2.365367 0,-1.589931 0.409296,-2.920347 1.318669,-4.286336 0.351384,-0.527813 0.825508,-1.026052 3.976382,-4.178636 2.9447413,-2.946334 3.6722804,-3.643263 4.1137457,-3.940656 0.9910874,-0.667652 1.862624,-1.034674 3.032899,-1.277223 0.521164,-0.108014 0.7342695,-0.120371 1.5853384,-0.09197 1.3986024,0.04668 2.2996091,0.294426 3.35791666,0.923311 1.03703138,0.616243 1.67021354,1.258934 1.85930184,1.887226 0.262382,0.87183 -0.148819,1.811967 -0.96777741,2.212646 -0.28030017,0.137138 -0.41326519,0.163965 -0.81724635,0.164879 -0.62478084,0.0015 -0.81577244,-0.06987 -1.44595064,-0.539696 -0.2869393,-0.213924 -0.6498735,-0.453898 -0.806518,-0.533275 -0.9296784,-0.471105 -2.1310545,-0.397042 -3.2951751,0.203144 -0.3729306,0.192271 -0.7352336,0.531056 -3.4190384,3.197095 -3.6348937,3.610837 -3.9181737,3.919257 -4.2662387,4.644882 -0.300793,0.627074 -0.389199,0.995922 -0.389199,1.623842 0,1.112873 0.589243,2.183573 1.493248,2.713356 0.928709,0.54426 2.197745,0.570169 3.2628838,0.06662 0.5163581,-0.244113 1.1131326,-0.764444 2.9031651,-2.531286 l 1.6954782,-1.673517 0.4048949,0.212769 c 0.4803994,0.252441 1.2189604,0.474298 1.9227098,0.577564 0.4949811,0.07262 1.71314911,0.05425 2.11275292,-0.0319 0.24757379,-0.05338 -5.57490732,5.766307 -6.22717392,6.224176 -0.8530934,0.598831 -1.9484746,1.077061 -2.9497158,1.287799 -0.556884,0.117211 -1.982135,0.165537 -2.502788,0.08486 z m 9.1470955,-9.62491 c -1.6845773,-0.36354 -3.3888303,-1.414094 -3.9091512,-2.409725 -0.1479404,-0.283092 -0.1709833,-0.392697 -0.169105,-0.804468 0.00252,-0.576392 0.1471023,-0.945724 0.5205934,-1.330799 0.3867241,-0.398722 0.6382764,-0.504588 1.269449,-0.534247 0.6456124,-0.03033 0.8957963,0.05712 1.4738853,0.515208 0.776619,0.615409 1.3768577,0.843976 2.2123205,0.842439 0.620959,-0.0013 1.13470128,-0.125291 1.75096437,-0.423119 0.44395255,-0.214562 0.61941913,-0.357051 1.63872973,-1.330731 1.8977689,-1.812819 5.6004591,-5.580935 5.8586753,-5.9622 0.5517954,-0.81475 0.7415599,-1.378964 0.7415599,-2.204837 0,-0.970807 -0.2606444,-1.610644 -0.923347,-2.266626 -0.6960548,-0.688999 -1.4087965,-0.960385 -2.3826518,-0.907233 -0.6840288,0.03734 -1.3456254,0.25321 -1.8946844,0.618224 -0.2343155,0.15577 -1.1895616,1.031954 -2.2898098,2.100289 l -1.8877772,1.83302 -0.513207,-0.258813 c -0.77568,-0.391182 -1.6378512,-0.56959 -2.7776361,-0.574775 -0.5906207,-0.0027 -0.9522472,0.02114 -1.0659869,0.07023 -0.094675,0.04086 -0.1860288,0.0604 -0.2030079,0.04344 -0.040542,-0.04056 3.1141094,-3.216924 4.79589022,-4.828865 1.35034586,-1.29427 1.77175538,-1.624197 2.61089908,-2.044103 0.9983225,-0.499562 2.3506725,-0.846459 3.2982799,-0.846058 1.83162,8.07e-4 3.5942763,0.700739 4.8957041,1.944114 1.083734,1.035394 1.723091,2.170339 2.065684,3.666872 0.142799,0.623788 0.141927,2.171149 -0.0015,2.836841 -0.230029,1.066887 -0.599997,1.951955 -1.175753,2.812721 -0.627845,0.938603 -7.0074919,7.367314 -8.069308,8.131337 -0.871461,0.627062 -2.0754776,1.135444 -3.12081941,1.317737 -0.64093708,0.111771 -2.21930799,0.108403 -2.74881279,-0.0058 z"
     id="path4172" /></svg>
