<?xml version="1.0" encoding="UTF-8" standalone="no"?>
<svg
   height="48"
   viewBox="-21 -47 36.035191 36.000001"
   width="48"
   version="1.1"
   id="svg10"
   sodipodi:docname="comment_a_w.svg"
   inkscape:version="1.1 (c68e22c387, 2021-05-23)"
   xmlns:inkscape="http://www.inkscape.org/namespaces/inkscape"
   xmlns:sodipodi="http://sodipodi.sourceforge.net/DTD/sodipodi-0.dtd"
   xmlns="http://www.w3.org/2000/svg"
   xmlns:svg="http://www.w3.org/2000/svg">
  <defs
     id="defs14" />
  <sodipodi:namedview
     id="namedview12"
     pagecolor="#ffffff"
     bordercolor="#666666"
     borderopacity="1.0"
     inkscape:pageshadow="2"
     inkscape:pageopacity="0.0"
     inkscape:pagecheckerboard="0"
     inkscape:document-units="pt"
     showgrid="false"
     units="px"
     inkscape:zoom="8.1120285"
     inkscape:cx="17.381596"
     inkscape:cy="37.660124"
     inkscape:window-width="1600"
     inkscape:window-height="837"
     inkscape:window-x="-8"
     inkscape:window-y="-8"
     inkscape:window-maximized="1"
     inkscape:current-layer="svg10" />
  <path
     d="m 10.16935,-44.815731 h -26.126834 c -2.731672,0 -4.954179,2.222068 -4.954179,4.954179 v 15.989077 c 0,2.725953 2.21283,4.944501 4.936584,4.954179 v 7.255645 l 10.4271989,-7.255645 H 10.16935 c 2.731671,0 4.954178,-2.222508 4.954178,-4.954179 v -15.989077 c 0,-2.732111 -2.222507,-4.954179 -4.954178,-4.954179 z m 2.842741,20.943256 c 0,1.567301 -1.27522,2.842741 -2.842741,2.842741 H -6.2103431 l -7.6532989,5.32566 v -5.32566 h -2.093842 c -1.567522,0 -2.842742,-1.27544 -2.842742,-2.842741 v -15.989077 c 0,-1.567741 1.27522,-2.842741 2.842742,-2.842741 H 10.16935 c 1.567521,0 2.842741,1.275 2.842741,2.842741 z m 0,0"
     id="path2"
     style="stroke-width:0.056305;fill:#ffffff;fill-opacity:1" />
  <path
     d="m 2.7934615,-37.725284 h 8.6083415 v 2.111437 H 2.7934615 Z m 0,0"
     id="path4"
     style="fill:#ffffff;fill-opacity:1;stroke-width:0.0403694" />
  <path
     d="m 2.7934615,-33.220885 h 8.6083415 v 2.111438 H 2.7934615 Z m 0,0"
     id="path6"
     style="fill:#ffffff;fill-opacity:1;stroke-width:0.0403694" />
  <path
     d="m 2.7934615,-28.716486 h 8.6083415 v 2.111437 H 2.7934615 Z m 0,0"
     id="path8"
     style="fill:#ffffff;fill-opacity:1;stroke-width:0.0403694" />
  <path
     id="path235"
     style="fill:#ffffff;stroke-width:0.0330856;fill-opacity:1"
     d="m -8.1003268,-40.745721 c -0.031696,0.0378 -0.065736,0.0922 -0.1036526,0.164454 0.037916,-0.07226 0.071957,-0.126655 0.1036526,-0.164454 z m 0.9317166,1.509045 c 0.00707,0.0065 0.014267,0.01211 0.022005,0.01795 -0.00752,-0.0057 -0.015115,-0.01163 -0.022005,-0.01795 z m 0.060223,0.04285 c 0.00631,0.0035 0.012082,0.0074 0.01853,0.01042 -0.0064,-0.003 -0.012262,-0.0069 -0.01853,-0.01042 z m 0.4122947,0.716304 c -0.01177,0.01312 -0.023475,0.02858 -0.035323,0.04864 0.011898,-0.02014 0.023473,-0.03549 0.035323,-0.04864 z m 0.048062,0.512474 c -0.1918941,0.208917 -0.4055565,0.20585 -0.7198542,0.613205 -0.2738875,0.330417 -1.0306371,1.356552 -1.3009081,1.756053 -1.4280262,2.171696 -2.3568152,4.73435 -2.7506362,7.05196 -0.08479,0.533223 -0.139549,0.826498 -0.119892,1.229684 -0.0324,0.239749 0.306518,0.990855 0.705226,1.162033 1.365202,-0.821163 2.6718996,-1.656849 2.8322098,-1.656707 0.211362,1.88e-4 3.0160454,1.735058 4.5311872,2.626062 0.2578924,0.151525 0.4994163,0.275636 0.5367938,0.275636 0.037382,0 0.092445,-0.03742 0.1221827,-0.08281 0.057742,-0.08813 0.050119,-0.193403 -0.03706,-0.514789 -0.3616037,-1.879374 -0.8220499,-3.289489 -1.141917,-5.136311 0,-0.132171 0.097428,-0.241068 0.6277068,-0.700669 1.3101421,-1.220133 2.49577258,-2.102734 3.66201021,-3.247399 0.0633901,-0.09675 0.0372642,-0.238921 -0.0492207,-0.26637 -1.68361921,-0.160914 -3.46063481,-0.391398 -5.22027521,-0.497417 -0.261095,1.06e-4 -0.5048072,-0.06159 -0.5813816,-0.147083 -0.4411627,-0.926094 -0.7427363,-1.613241 -1.0961713,-2.465081 z m -9.6449145,3.144904 c -0.01873,0.01362 -0.03247,0.02951 -0.04111,0.04922 0.0088,-0.01956 0.02237,-0.03565 0.04111,-0.04922 z m 4.001922,5.522547 c -0.01176,0.05603 -0.02663,0.10519 -0.04227,0.150557 0.01568,-0.04543 0.0305,-0.09435 0.04227,-0.150557 z m -0.05443,0.183564 c -0.01264,0.03253 -0.02603,0.06143 -0.04053,0.08744 0.01445,-0.02589 0.02794,-0.05506 0.04053,-0.08744 z m -0.05501,0.114076 c -0.01897,0.02991 -0.03949,0.05444 -0.0608,0.07354 0.02145,-0.01911 0.04172,-0.04349 0.0608,-0.07354 z m -0.107706,0.106548 c -0.0029,0.0014 -0.0058,0.0022 -0.0087,0.0035 0.0029,-0.0012 0.0058,-0.002 0.0087,-0.0035 z m -0.203831,0.687351 c 0.01593,0.0086 0.03007,0.02146 0.04343,0.0359 -0.01337,-0.01458 -0.02747,-0.02728 -0.04343,-0.0359 z m 0.05096,0.04227 c 0.01535,0.01835 0.02878,0.04068 0.04111,0.06775 -0.01224,-0.02687 -0.02589,-0.04937 -0.04111,-0.06775 z m -0.125657,1.056795 c -0.131687,0.576978 -0.260128,1.141888 -0.386816,1.724457 0.126689,-0.582556 0.255127,-1.147469 0.386816,-1.724457 z m 1.814791,1.038264 c -0.241932,0.144871 -0.483731,0.287951 -0.721516,0.425613 0.241271,-0.139356 0.476188,-0.278752 0.721516,-0.425613 z m -0.934612,0.548954 c -0.07305,0.04167 -0.144415,0.08152 -0.215991,0.121604 0.07166,-0.04004 0.142845,-0.07998 0.215991,-0.121604 z m -1.288421,0.526371 c 0.01195,0.02508 0.02813,0.04556 0.04748,0.06022 -0.01941,-0.01459 -0.03549,-0.03519 -0.04748,-0.06022 z m 0.253631,0.0388 c -0.06169,0.02927 -0.109045,0.04734 -0.127973,0.04748 0.01872,0 0.06645,-0.01825 0.127973,-0.04748 z"
     sodipodi:nodetypes="ccccccccccccccccccscsccccccccccccccccccccccccccccccccccccccccccccc" />
  <path
     id="path233"
     style="fill:#ffffff;fill-opacity:1;stroke-width:0.0320791"
     d="m -8.0117286,-40.809418 c -0.1164579,0.01527 -0.2390153,0.300483 -0.4840985,0.870915 -0.453676,1.049028 -0.9173794,2.11212 -1.3341669,3.082365 -0.546778,1.273709 -0.569879,1.320289 -0.686193,1.407129 -0.07092,0.05295 -0.180032,0.07215 -0.55764,0.09728 -1.698543,0.164424 -3.393004,0.286867 -5.013549,0.472518 -0.199288,0.02297 -0.261304,0.0663 -0.262316,0.182984 -7.06e-4,0.0812 0.136718,0.220764 0.685613,0.697195 1.066734,0.924839 1.987265,1.759589 3.080629,2.700182 0.246986,0.212079 0.476142,0.417537 0.508998,0.456305 0.0792,0.09345 0.07597,0.281727 -0.01042,0.641603 -0.116974,0.487259 -0.163944,0.692338 -0.207888,0.902184 -0.07438,0.355182 -0.232971,0.4996 -0.398976,0.378709 -0.04982,0.232487 -0.09986,0.465185 -0.151715,0.697774 0.105744,-0.01908 0.174008,0.02023 0.221782,0.125078 0.03891,0.08539 0.03775,0.09106 -0.129711,0.824589 -0.157603,0.691306 -0.310424,1.354724 -0.460936,2.053946 -0.0365,0.174624 0.02485,0.310379 0.140713,0.310379 0.03755,0 0.191383,-0.07296 0.341649,-0.162139 0.568931,-0.294568 1.239505,-0.686998 1.89586,-1.081694 -0.399725,-0.169246 -0.671741,-1.04714 -0.639288,-1.287263 0.01914,-0.141572 0.04878,-0.373216 0.06543,-0.514788 0.01666,-0.141572 0.05103,-0.361756 0.07702,-0.489311 0.393822,-2.317609 1.3902856,-4.970497 2.8183117,-7.142193 0.2702711,-0.399501 1.0608584,-1.459474 1.3347459,-1.789892 0.3142977,-0.407354 0.3379507,-0.380571 0.5298447,-0.589488 -0.03061,-0.07377 -0.059334,-0.141082 -0.090913,-0.217729 -0.047904,-0.135789 -0.04766,-0.156763 0.00579,-0.247261 0.021913,-0.0371 0.04192,-0.06124 0.066593,-0.07644 -0.1069737,-0.254209 -0.2015099,-0.44996 -0.2947474,-0.655502 -0.078591,0.01656 -0.1990405,-0.04047 -0.2518936,-0.124499 -0.027094,-0.04308 -0.1849865,-0.391662 -0.350912,-0.77421 -0.2209208,-0.509339 -0.3311597,-0.764 -0.4476178,-0.748732 z" />
  <path
     style="fill:#ffffff;stroke-width:0.034136;fill-opacity:1"
     d="m -13.440276,-24.565264 c -0.237099,-0.171754 -0.257686,-0.226248 -0.236127,-0.625042 0.01088,-0.201335 0.04176,-0.402106 0.0731,-0.475425 0.15516,-0.695916 0.309631,-1.417891 0.465081,-2.094709 0.0382,-0.129892 0.08078,-0.274569 0.09461,-0.321506 0.01676,-0.05689 0.06472,-0.09832 0.14389,-0.124274 0.139967,-0.04589 0.223843,-0.0129 0.279881,0.110095 0.03891,0.08539 0.03797,0.09138 -0.129498,0.824911 -0.157603,0.691305 -0.310547,1.354823 -0.461059,2.054045 -0.0365,0.174624 0.02497,0.309872 0.140835,0.309872 0.03755,0 0.191214,-0.07297 0.341479,-0.162148 1.754633,-0.908475 4.4884744,-2.739621 4.7261408,-2.739411 0.2113622,1.87e-4 3.0159267,1.735063 4.5310685,2.626068 0.2578925,0.151524 0.4994774,0.275498 0.5368548,0.275498 0.037382,0 0.092289,-0.03713 0.1220267,-0.08252 0.057742,-0.08813 0.050179,-0.193476 -0.037001,-0.514861 -0.3616036,-1.879374 -0.8221157,-3.289365 -1.1419829,-5.136187 0,-0.132171 0.097567,-0.241048 0.6278464,-0.70065 1.3101421,-1.220133 2.49590983,-2.102926 3.66214732,-3.247591 0.0633901,-0.09675 0.0369449,-0.238968 -0.04954,-0.266417 -1.68361912,-0.160914 -3.46054172,-0.391424 -5.22018182,-0.497443 -0.261095,1.06e-4 -0.504484,-0.06147 -0.5810586,-0.146961 -0.4794518,-1.006469 -0.7892876,-1.71998 -1.1856185,-2.681935 -0.047904,-0.135789 -0.0474,-0.156443 0.00605,-0.246941 0.045506,-0.07703 0.083,-0.09876 0.1704529,-0.09876 0.1863716,0 0.24469,0.08791 0.5548025,0.836331 0.3169404,0.611525 0.4564086,1.303143 0.8199934,1.791892 0.087392,0.06223 0.1646394,0.07511 0.5376414,0.08962 1.4716338,0.160203 2.9059003,0.242129 4.3510743,0.386603 0.34977612,0.051 0.73197451,0.124824 1.00596939,0.23836 0.27262891,0.26635 0.26317922,0.566931 0.11359117,0.702306 -0.03755,0.03398 -0.0682757,0.08054 -0.0682757,0.103473 -1.28201937,1.217954 -2.62218906,2.392609 -3.97044696,3.545945 -0.2843164,0.2374 -0.3073551,0.280463 -0.24957,0.466478 0.3714242,1.534727 0.7561371,3.321681 1.0956825,4.8437 0.028641,0.102655 0.052084,0.302777 0.052084,0.444706 0,0.292505 -0.031532,0.35802 -0.2476986,0.514608 -0.3043049,0.189822 -0.5344568,0.137758 -0.8307474,-0.01347 -0.094755,-0.0624 -0.1942559,-0.123524 -0.2211056,-0.135821 -1.4047857,-0.788522 -2.8174666,-1.711379 -4.244668,-2.512563 -0.1499858,-0.08355 -0.1714479,-0.08208 -0.3335717,0.02281 -1.3905947,0.862632 -3.0646963,1.79301 -4.4103143,2.628095 -0.305024,0.1756 -0.614594,0.166126 -0.833865,0.0092 z m 0.701269,-4.39604 c -0.106036,-0.110677 -0.114882,-0.186836 -0.04197,-0.36134 0.07534,-0.354617 0.157639,-0.704144 0.239343,-1.047517 0.06362,-0.180317 0.0405,-0.223856 -0.245735,-0.462861 -1.213465,-1.183446 -2.781756,-2.231669 -3.970447,-3.545202 -0.159457,-0.221733 -0.128803,-0.400459 -0.06645,-0.637769 0.22432,-0.331844 0.475509,-0.311591 0.750857,-0.353612 1.582056,-0.126005 3.175355,-0.341753 4.71795,-0.440105 0.373001,-0.01451 0.450243,-0.02738 0.537641,-0.08962 0.207886,-0.262637 0.309342,-0.59381 0.443423,-0.910739 0.4423681,-1.048041 1.0295936,-2.382437 1.4890378,-3.458418 0.2523008,-0.591023 0.3188923,-0.727975 0.4832494,-0.836405 0.4243763,-0.292031 0.8323722,-0.05195 1.0830829,0.382298 0.1910118,0.423221 0.3798385,0.854145 0.5289055,1.289286 0,0.0831 -0.092413,0.24603 -0.1526471,0.269146 -0.077117,0.02959 -0.2119036,-0.03134 -0.2685468,-0.121392 -0.027095,-0.04308 -0.1850257,-0.391324 -0.3509515,-0.773872 -0.4418414,-1.018678 -0.4416688,-1.0187 -0.9318354,0.122164 -0.4536756,1.049028 -0.9175191,2.112127 -1.3343067,3.082372 -0.5467781,1.273708 -0.5694961,1.320324 -0.6858091,1.407164 -0.07092,0.05295 -0.180151,0.07197 -0.557759,0.0971 -1.698543,0.164424 -3.393265,0.287091 -5.01381,0.472742 -0.199288,0.02297 -0.26087,0.06591 -0.261882,0.182596 -7.07e-4,0.0812 0.13672,0.220989 0.685615,0.69742 1.066734,0.924839 1.987225,1.759581 3.080588,2.700175 0.246986,0.212077 0.475948,0.417316 0.508804,0.456083 0.0792,0.09345 0.07621,0.282253 -0.01019,0.642129 -0.116971,0.487259 -0.164195,0.691839 -0.208139,0.901685 -0.08172,0.390219 -0.264811,0.527733 -0.44803,0.336493 z"
     id="path231"
     sodipodi:nodetypes="ccccsssccscscsccccccccccscccccsccccsccccccccccccccccccccccsssccscccccscscc" />
</svg>
