<?xml version="1.0" encoding="UTF-8" standalone="no"?>
<!-- Created with Inkscape (http://www.inkscape.org/) -->

<svg
   width="32"
   height="32"
   viewBox="0 0 8.4666665 8.4666666"
   version="1.1"
   id="svg1913"
   xml:space="preserve"
   inkscape:version="1.2.1 (9c6d41e410, 2022-07-14)"
   sodipodi:docname="comp.svg"
   inkscape:export-filename="home.png"
   inkscape:export-xdpi="96"
   inkscape:export-ydpi="96"
   xmlns:inkscape="http://www.inkscape.org/namespaces/inkscape"
   xmlns:sodipodi="http://sodipodi.sourceforge.net/DTD/sodipodi-0.dtd"
   xmlns="http://www.w3.org/2000/svg"
   xmlns:svg="http://www.w3.org/2000/svg"><sodipodi:namedview
     id="namedview1915"
     pagecolor="#505050"
     bordercolor="#ffffff"
     borderopacity="1"
     inkscape:showpageshadow="0"
     inkscape:pageopacity="0"
     inkscape:pagecheckerboard="1"
     inkscape:deskcolor="#505050"
     inkscape:document-units="mm"
     showgrid="false"
     inkscape:zoom="20.70196"
     inkscape:cx="20.408696"
     inkscape:cy="22.099357"
     inkscape:window-width="2560"
     inkscape:window-height="1351"
     inkscape:window-x="-9"
     inkscape:window-y="1341"
     inkscape:window-maximized="1"
     inkscape:current-layer="layer1" /><defs
     id="defs1910" /><g
     inkscape:label="Слой 1"
     inkscape:groupmode="layer"
     id="layer1"><path
       style="fill:#000000;fill-opacity:1;stroke-width:0.00431767"
       d="M 0,8.0652567 V 7.9288204 l 0.524183,-0.5534753 0.524184,-0.5534753 3.212285,5.5e-5 3.212284,4.59e-5 0.496866,0.5510453 0.496865,0.5510453 V 8.0628909 8.2017205 H 4.233333 0 V 8.0652842 Z M 1.008437,7.6242756 c 0.112853,-0.030168 0.15652,-0.097933 0.09914,-0.1537855 -0.051,-0.049608 -0.149241,-0.072624 -0.249047,-0.058228 -0.09679,0.013938 -0.165226,0.058411 -0.165226,0.1072674 0,0.022191 0.0079,0.037779 0.02967,0.058503 0.0539,0.051442 0.186075,0.072808 0.285471,0.046215 z m 0.60086,0.00275 c 0.08177,-0.019623 0.134458,-0.060429 0.134458,-0.1039847 0,-0.042823 -0.04301,-0.079593 -0.120553,-0.1030401 -0.04375,-0.013295 -0.137406,-0.014212 -0.188281,-0.00183 -0.06925,0.016689 -0.123791,0.055844 -0.130513,0.093715 -0.01493,0.084086 0.159797,0.1500992 0.304889,0.115245 z m 0.567498,0.00734 c 0.07391,-0.00734 0.146146,-0.040714 0.167155,-0.076567 0.01061,-0.018156 0.01192,-0.046766 0.003,-0.065013 -0.02073,-0.042364 -0.0999,-0.077943 -0.185095,-0.083261 -0.127401,-0.00825 -0.245806,0.045298 -0.245806,0.1106235 0,0.058778 0.07875,0.1064513 0.191182,0.1157494 0.0092,7.611e-4 0.01964,0.00183 0.02311,0.00183 0.0035,3.485e-4 0.02438,-9.169e-4 0.04647,-0.00367 z m 0.655528,-0.00734 c 0.03945,-0.00935 0.09001,-0.033653 0.108401,-0.052084 0.0471,-0.047224 0.0273,-0.1018848 -0.04987,-0.1376192 -0.0458,-0.021182 -0.07744,-0.027234 -0.142862,-0.027051 -0.04807,1.192e-4 -0.06868,0.00183 -0.09766,0.00981 -0.0793,0.020724 -0.125034,0.058778 -0.125034,0.1037646 0,0.025492 0.02409,0.056027 0.05882,0.074458 0.07091,0.037688 0.164718,0.048508 0.248205,0.028793 z m 0.618216,-0.00183 c 0.08136,-0.022007 0.12521,-0.058594 0.12521,-0.1043697 0,-0.031177 -0.01871,-0.054285 -0.06345,-0.078126 -0.04848,-0.025859 -0.08277,-0.033011 -0.155048,-0.032552 -0.07002,4.86e-4 -0.107568,0.00825 -0.153494,0.030077 -0.04705,0.022741 -0.07534,0.065013 -0.0652,0.097483 0.02364,0.07565 0.186711,0.1213613 0.311979,0.087479 z m 0.61168,-6.418e-4 c 0.113994,-0.03081 0.157677,-0.098052 0.100078,-0.1541156 -0.07814,-0.076017 -0.26901,-0.084361 -0.370611,-0.016139 -0.02666,0.017881 -0.03998,0.037137 -0.04259,0.061621 -0.0092,0.085829 0.168953,0.1476509 0.313122,0.1087163 z m 0.609302,-4.59e-5 c 0.0586,-0.014213 0.104934,-0.043556 0.121481,-0.076934 0.0094,-0.019073 0.0051,-0.048416 -0.01017,-0.068223 -0.01592,-0.020724 -0.06102,-0.04649 -0.104,-0.059328 -0.02793,-0.00825 -0.04417,-0.010087 -0.09464,-0.010178 -0.09128,-1.192e-4 -0.156558,0.018981 -0.197147,0.057678 -0.03068,0.029251 -0.03637,0.0508 -0.02153,0.081519 0.0336,0.069507 0.18074,0.1058278 0.306014,0.075467 z m 0.601763,0.00275 C 5.427165,7.5946139 5.456543,7.487062 5.326134,7.4337951 5.263024,7.4080281 5.197045,7.4017011 5.123158,7.4143551 4.940679,7.4456241 4.915263,7.572597 5.081828,7.6208481 c 0.0592,0.017147 0.129733,0.019531 0.191458,0.00642 z m 0.620613,-0.00275 c 0.08015,-0.021641 0.127311,-0.060429 0.127311,-0.1046174 0,-0.017422 -0.01797,-0.047041 -0.03695,-0.060887 -0.09375,-0.068589 -0.281526,-0.066939 -0.371881,0.00367 -0.01547,0.012012 -0.03236,0.042181 -0.03236,0.057678 0,0.023841 0.02165,0.055844 0.05048,0.07455 0.01929,0.012563 0.073,0.03081 0.10919,0.037046 0.04503,0.00825 0.110177,0.00458 0.154211,-0.00734 z m 0.590059,0.00275 c 0.04539,-0.00954 0.09117,-0.032002 0.113635,-0.055752 0.03278,-0.03457 0.03166,-0.067673 -0.0034,-0.1017931 -0.07695,-0.074917 -0.272969,-0.082619 -0.369992,-0.014672 -0.06588,0.046215 -0.05656,0.1049474 0.0234,0.1475683 0.06054,0.032277 0.153746,0.041997 0.236382,0.024575 z m 0.607494,-0.00275 c 0.09093,-0.022007 0.140521,-0.069048 0.127071,-0.120481 -0.01016,-0.03888 -0.07212,-0.075742 -0.151867,-0.090505 -0.09998,-0.018431 -0.221747,0.00999 -0.267584,0.062538 -0.02134,0.024483 -0.0251,0.045023 -0.01304,0.071249 0.03241,0.070699 0.179137,0.1077901 0.305422,0.077209 z m 0.558842,1.284e-4 c 0.0682,-0.016781 0.118004,-0.0497 0.127911,-0.084637 0.02801,-0.098712 -0.181466,-0.1675858 -0.340982,-0.112109 -0.06067,0.02109 -0.09664,0.056944 -0.09664,0.096392 0,0.01889 0.002,0.023291 0.01958,0.043098 0.05304,0.059878 0.178652,0.084637 0.290129,0.057219 z M 1.248051,7.2740288 C 1.348001,7.2609158 1.420215,7.2143338 1.420215,7.163066 1.420215,7.111532 1.347085,7.065014 1.246532,7.05247 1.106543,7.035047 0.967436,7.09896 0.980876,7.1746015 c 0.01185,0.066664 0.143499,0.1156761 0.267175,0.099427 z M 1.90637,7.2648591 C 2.040638,7.2289138 2.072157,7.1409303 1.97031,7.0863705 1.92148,7.0602368 1.88185,7.051067 1.815182,7.0506085 c -0.06592,-4.493e-4 -0.107616,0.00734 -0.153366,0.029985 -0.03714,0.018064 -0.05586,0.034845 -0.06594,0.05887 -0.0068,0.01623 -0.0072,0.021732 -0.0032,0.037871 0.01942,0.076659 0.183293,0.122425 0.313645,0.087479 z m 0.603608,0.00183 c 0.06789,-0.015955 0.124605,-0.055844 0.131045,-0.092101 0.01342,-0.075558 -0.120559,-0.1387013 -0.260471,-0.1227918 -0.07033,0.00825 -0.117553,0.025859 -0.149847,0.056669 -0.02841,0.027142 -0.03601,0.053826 -0.02292,0.080602 0.02693,0.055018 0.125053,0.091871 0.230763,0.086746 0.02277,-9.169e-4 0.05492,-0.0055 0.07143,-0.00917 z m 0.574092,0.00734 c 0.06965,-0.00926 0.139605,-0.043006 0.159517,-0.077026 0.02613,-0.044657 -0.0035,-0.092954 -0.07478,-0.1217648 -0.04777,-0.019348 -0.07666,-0.024391 -0.137197,-0.0243 -0.158176,4.309e-4 -0.262003,0.081152 -0.201075,0.1562979 0.0422,0.052084 0.150044,0.080418 0.253532,0.066756 z m 0.649056,-0.00734 c 0.03716,-0.00917 0.08389,-0.031177 0.103998,-0.049792 0.0085,-0.00825 0.01862,-0.023199 0.02255,-0.03402 0.0067,-0.018614 0.0067,-0.020907 0,-0.039522 -0.01284,-0.035487 -0.05401,-0.063363 -0.122151,-0.082803 -0.04759,-0.013479 -0.140655,-0.013479 -0.189082,0 -0.136419,0.038146 -0.165104,0.1235345 -0.06108,0.1818814 0.0595,0.033378 0.163694,0.043648 0.24577,0.024208 z m 0.617205,-0.00183 C 4.406121,7.2498208 4.45375,7.2191022 4.468994,7.1883836 4.498224,7.1294223 4.421204,7.0667289 4.301255,7.0517731 4.161266,7.0343506 4.022159,7.0982636 4.035599,7.1739046 c 0.0081,0.045299 0.07943,0.088029 0.166221,0.0994 0.04293,0.0055 0.110692,0.00183 0.148511,-0.00825 z m 0.610762,-3.026e-4 c 0.04546,-0.012104 0.09005,-0.036129 0.107758,-0.057953 0.04548,-0.056119 0.0015,-0.1153551 -0.108603,-0.1464038 -0.04782,-0.013479 -0.141089,-0.013479 -0.188705,-1.009e-4 -0.09981,0.028151 -0.144891,0.078768 -0.118383,0.1328785 0.03276,0.066939 0.189204,0.1032785 0.307933,0.071616 z m 0.56441,0.00917 c 0.04416,-0.0055 0.07468,-0.014855 0.10611,-0.031544 0.06631,-0.03512 0.08301,-0.081702 0.04493,-0.1253593 -0.06212,-0.071157 -0.240569,-0.089497 -0.351242,-0.03622 -0.02453,0.011829 -0.05391,0.038146 -0.06279,0.056302 -0.02841,0.058044 0.04843,0.1227184 0.162042,0.1364546 0.04538,0.0055 0.06101,0.0055 0.100954,2.843e-4 z m 0.657475,-0.00825 c 0.189013,-0.05062 0.157015,-0.1869553 -0.05001,-0.2130523 -0.139532,-0.017606 -0.28129,0.0486 -0.264549,0.1234978 0.0099,0.044106 0.07924,0.086195 0.161195,0.09774 0.04405,0.00642 0.113398,0.00275 0.153367,-0.00825 z m 0.571246,0.00642 c 0.12449,-0.022924 0.18546,-0.093018 0.133612,-0.1536204 -0.0419,-0.048966 -0.143616,-0.077026 -0.240478,-0.066297 -0.04735,0.0055 -0.09064,0.016964 -0.11897,0.032186 -0.02038,0.010912 -0.04799,0.037229 -0.05576,0.053093 -0.02155,0.044015 0.01769,0.095117 0.09271,0.1207652 0.058,0.019807 0.12855,0.025033 0.188881,0.013938 z m 0.610056,-0.0055 C 7.41005,7.2557595 7.46077,7.2277915 7.478079,7.2036755 7.525049,7.1381115 7.454459,7.070366 7.320251,7.0521091 c -0.08698,-0.011829 -0.184526,0.010453 -0.23716,0.054285 -0.01988,0.016506 -0.02824,0.033286 -0.02824,0.056577 0,0.032828 0.01906,0.056485 0.06543,0.081152 0.06042,0.032186 0.161496,0.041356 0.243996,0.022191 z M 2.848834,6.4309645 c -0.04401,-0.00367 -0.06402,-0.010545 -0.07976,-0.028609 -0.02147,-0.024575 -0.0082,-0.066297 0.03534,-0.1112196 0.03612,-0.037229 0.05253,-0.048049 0.117572,-0.077667 0.06441,-0.029251 0.100934,-0.053276 0.143082,-0.09398 0.07443,-0.071982 0.137892,-0.2022015 0.147688,-0.3031602 l 0.0028,-0.028609 -0.856693,-9.17e-4 -0.856694,-9.17e-4 -0.03225,-0.00972 C 1.388469,5.751589 1.319002,5.708583 1.260388,5.6462655 1.180648,5.5615373 1.133608,5.4573968 1.122012,5.3399876 1.116012,5.2791007 1.116212,0.91739367 1.122194,0.8603671 1.133684,0.75159567 1.178894,0.65229678 1.252161,0.574941 1.308461,0.5155212 1.376155,0.47398235 1.4538,0.45129646 l 0.03996,-0.0116456 2.718578,-9.1697e-4 c 1.94672,-9.1698e-4 2.730159,9.169e-5 2.75937,0.003668 0.18158,0.0215488 0.317426,0.14781593 0.365223,0.33935311 l 0.01,0.039888 v 2.2405486 c 0,2.4089228 0.0013,2.2648481 -0.02112,2.3559218 -0.03416,0.1388112 -0.111528,0.243667 -0.223966,0.303527 -0.0383,0.020357 -0.105621,0.043189 -0.16085,0.054468 l -0.04786,0.00972 -0.83091,0.00183 c -0.572866,9.169e-4 -0.83091,0.00275 -0.83091,0.00642 0,0.010912 0.02199,0.094879 0.03589,0.1370323 0.04464,0.1354276 0.11179,0.2275008 0.19731,0.2705435 0.04051,0.020357 0.06054,0.025767 0.118111,0.031452 0.05338,0.0055 0.07304,0.013113 0.09175,0.036129 0.03344,0.041264 0.02786,0.1117239 -0.01128,0.142415 -0.03147,0.024667 0.06783,0.023016 -1.408699,0.023474 -0.751075,2.568e-4 -1.383554,-9.17e-4 -1.405509,-0.00275 z m 1.41649,-1.2379217 c 0.05553,-0.010912 0.105477,-0.052726 0.131034,-0.1097432 0.01234,-0.027509 0.01345,-0.033653 0.01345,-0.074367 0,-0.040713 -0.0011,-0.046857 -0.01348,-0.074458 -0.0258,-0.057494 -0.07947,-0.099767 -0.139705,-0.1100092 -0.08493,-0.014488 -0.172064,0.053368 -0.19349,0.1505669 -0.02336,0.106002 0.06013,0.2132327 0.172778,0.2219073 0.0037,2.842e-4 0.01696,-0.00183 0.02941,-0.00367 z M 6.596857,2.7528604 V 1.1955665 l -2.381381,9.17e-4 -2.381382,9.169e-4 -0.0011,1.5561845 -0.0011,1.5561844 H 4.214332 6.59677 Z"
       id="path1902" /><path
       style="fill:#000000;stroke-width:0.264583"
       id="path1900"
       d="" /><path
       style="fill:#000000;stroke-width:0.264583"
       id="path1898"
       d="" /></g></svg>
