<?xml version="1.0" encoding="UTF-8" standalone="no"?>
<!-- Created with Inkscape (http://www.inkscape.org/) -->

<svg
   width="64"
   height="64"
   viewBox="0 0 16.933333 16.933334"
   version="1.1"
   id="svg5"
   inkscape:version="1.1 (c68e22c387, 2021-05-23)"
   sodipodi:docname="default_avatar.svg"
   xmlns:inkscape="http://www.inkscape.org/namespaces/inkscape"
   xmlns:sodipodi="http://sodipodi.sourceforge.net/DTD/sodipodi-0.dtd"
   xmlns="http://www.w3.org/2000/svg"
   xmlns:svg="http://www.w3.org/2000/svg">
  <sodipodi:namedview
     id="namedview7"
     pagecolor="#ffffff"
     bordercolor="#666666"
     borderopacity="1.0"
     inkscape:pageshadow="2"
     inkscape:pageopacity="0.0"
     inkscape:pagecheckerboard="0"
     inkscape:document-units="px"
     showgrid="false"
     units="px"
     width="64px"
     inkscape:zoom="4.6466891"
     inkscape:cx="11.836385"
     inkscape:cy="33.679895"
     inkscape:window-width="1600"
     inkscape:window-height="837"
     inkscape:window-x="-8"
     inkscape:window-y="-8"
     inkscape:window-maximized="1"
     inkscape:current-layer="layer1" />
  <defs
     id="defs2" />
  <g
     inkscape:label="Слой 1"
     inkscape:groupmode="layer"
     id="layer1">
    <path
       style="fill:#000000;stroke-width:0.0181266"
       d="M 8.0596411,16.833613 C 6.8601805,16.759213 5.7613625,16.462701 4.7424715,15.938474 4.3085865,15.715237 4.0715915,15.570623 3.6095585,15.247171 3.1974955,14.958702 2.5447765,14.357885 2.1725305,13.924411 1.1393914,12.721339 0.46370742,11.246112 0.23883842,9.7025629 c -0.13801,-0.947336 -0.114183,-1.867431 0.0731,-2.822741 0.158063,-0.80626 0.523442,-1.784341 0.91150598,-2.440006 0.04622,-0.07809 0.08403,-0.145714 0.08403,-0.150278 0,-0.0046 0.01524,-0.0304 0.03387,-0.05741 0.01863,-0.02701 0.10542,-0.159193 0.192875,-0.293734 0.4765061,-0.733056 1.1588461,-1.468636 1.8782151,-2.024761 1.824334,-1.41034599 4.118056,-1.99836999 6.3873599,-1.63747999 0.9413876,0.149709 1.8544516,0.468017 2.7189916,0.94787999 0.305263,0.169437 0.75131,0.464876 1.033217,0.684352 1.473451,1.147144 2.502654,2.685264 2.989641,4.467949 0.273333,1.00057 0.348782,2.152888 0.209358,3.197432 -0.173309,1.2984051 -0.625269,2.4820861 -1.371132,3.5909841 -0.123734,0.183957 -0.404738,0.555562 -0.510901,0.675621 -0.286628,0.324147 -0.38528,0.429407 -0.590357,0.629904 -0.397222,0.388349 -0.719946,0.649069 -1.197902,0.967756 -0.338351,0.225602 -0.347962,0.231595 -0.561924,0.350363 -1.003182,0.556857 -2.046335,0.88679 -3.1993469,1.011903 -0.2374064,0.02576 -1.0396011,0.04698 -1.259799,0.03332 z m 5.8222029,-2.955647 c 0.951442,-0.915248 1.686022,-2.191442 2.017323,-3.504719 0.172768,-0.6848521 0.235879,-1.1868121 0.235879,-1.8761041 0,-1.886283 -0.688917,-3.689113 -1.946412,-5.093578 C 13.544333,2.6839609 12.799573,2.1135089 11.929672,1.6733039 11.020513,1.2132329 10.076776,0.95019591 9.0656679,0.87505191 7.2043895,0.73672391 5.3769545,1.2706409 3.8905205,2.3870619 c -0.23401,0.175759 -0.241701,0.18207 -0.487702,0.400199 -0.288083,0.255442 -0.517442,0.491945 -0.827067,0.852824 -0.02525,0.02943 -0.119424,0.15139 -0.209279,0.271026 C 1.1464704,5.5354549 0.62239142,7.5777739 0.91056142,9.5847399 1.0686944,10.686058 1.4870174,11.7721 2.1114705,12.702517 c 0.214095,0.318995 0.590979,0.782115 0.857091,1.053207 0.256464,0.261262 0.452439,0.442238 0.47889,0.442238 0.0094,0 0.01709,-0.07155 0.01709,-0.159149 0,-0.345415 0.09833,-0.908917 0.227844,-1.305661 0.4988,-1.528032 1.713462,-2.728917 3.266339,-3.2292901 l 0.258583,-0.08332 -0.22233,-0.112939 c -0.301317,-0.153064 -0.523709,-0.315762 -0.78571,-0.574813 -0.729383,-0.72117 -1.106078,-1.692438 -1.024692,-2.642065 0.03942,-0.460016 0.142076,-0.839913 0.32622,-1.207276 0.108787,-0.217031 0.140966,-0.269943 0.29556,-0.486 0.439866,-0.614744 1.115528,-1.078779 1.837745,-1.262135 0.32338,-0.0821 0.432449,-0.09429 0.8415118,-0.09406 0.4182954,2.64e-4 0.5312556,0.01345 0.861014,0.100699 0.2387925,0.06318 0.3245807,0.09511 0.572508,0.213035 0.8680147,0.412883 1.5409907,1.236502 1.7725967,2.16939 0.161355,0.649923 0.124101,1.386657 -0.100827,1.993927 -0.24836,0.670532 -0.668705,1.208463 -1.251237,1.601255 -0.110316,0.07438 -0.4112035,0.229173 -0.5329015,0.274146 l -0.061354,0.02267 0.2265825,0.07633 c 0.997835,0.336141 1.878195,0.9702171 2.531248,1.8231221 0.593501,0.775128 0.950295,1.729714 0.997414,2.668536 l 0.01157,0.230508 0.101457,-0.08828 c 0.0558,-0.04855 0.176472,-0.160436 0.268158,-0.248633 z"
       id="path836" />
  </g>
</svg>
