<?xml version="1.0" encoding="UTF-8" standalone="no"?>
<!-- Created with Inkscape (http://www.inkscape.org/) -->

<svg
   width="16"
   height="16"
   viewBox="0 0 4.2333332 4.2333335"
   version="1.1"
   id="svg5"
   inkscape:version="1.1 (c68e22c387, 2021-05-23)"
   sodipodi:docname="edit_b.svg"
   xmlns:inkscape="http://www.inkscape.org/namespaces/inkscape"
   xmlns:sodipodi="http://sodipodi.sourceforge.net/DTD/sodipodi-0.dtd"
   xmlns="http://www.w3.org/2000/svg"
   xmlns:svg="http://www.w3.org/2000/svg">
  <sodipodi:namedview
     id="namedview7"
     pagecolor="#ffffff"
     bordercolor="#666666"
     borderopacity="1.0"
     inkscape:pageshadow="2"
     inkscape:pageopacity="0.0"
     inkscape:pagecheckerboard="0"
     inkscape:document-units="mm"
     showgrid="false"
     units="px"
     width="16px"
     inkscape:zoom="18.586756"
     inkscape:cx="10.007126"
     inkscape:cy="12.885519"
     inkscape:window-width="1600"
     inkscape:window-height="837"
     inkscape:window-x="-8"
     inkscape:window-y="-8"
     inkscape:window-maximized="1"
     inkscape:current-layer="layer1" />
  <defs
     id="defs2">
    <pattern
       id="EMFhbasepattern"
       patternUnits="userSpaceOnUse"
       width="6"
       height="6"
       x="0"
       y="0" />
  </defs>
  <g
     inkscape:label="Слой 1"
     inkscape:groupmode="layer"
     id="layer1">
    <path
       style="fill:#000000;stroke-width:0.00992535;fill-opacity:1"
       d="m 0.18203456,4.0761427 c 0.0024,-0.0231 0.0067,-0.0533 0.0097,-0.0669 0.003,-0.0136 0.0074,-0.0426 0.0099,-0.0645 0.0025,-0.0219 0.007,-0.0509 0.01,-0.0645 0.003,-0.0136 0.0077,-0.0449 0.0105,-0.0695 0.0028,-0.0246 0.0075,-0.0581 0.01063,-0.0745 0.0031,-0.0164 0.0069,-0.0409 0.0082,-0.0546 0.0014,-0.0136 0.006,-0.0449 0.01025,-0.0695 0.0043,-0.0245 0.0086,-0.0559 0.0099,-0.0696 0.0012,-0.0138 0.005,-0.0339 0.0084,-0.0446 0.0034,-0.0113 0.0086,-0.0443 0.0115,-0.0743 0.003,-0.03 0.0074,-0.0613 0.0099,-0.0695 0.0025,-0.009 0.0067,-0.035 0.0094,-0.0596 0.0027,-0.0245 0.0074,-0.0559 0.0105,-0.0695 0.003,-0.0136 0.0075,-0.0421 0.01,-0.0634 0.0024,-0.0212 0.0059,-0.04 0.0076,-0.0417 0.0018,-0.001 0.195028,0.18869 0.429499,0.42321 0.234471,0.23453 0.41963204,0.42684 0.41146704,0.42738 -0.03382,0.002 -0.09558,0.0112 -0.168688,0.0247 -0.01365,0.002 -0.04267,0.007 -0.06451,0.01 -0.06271,0.009 -0.146072,0.0211 -0.193545,0.0299 -0.01365,0.003 -0.04267,0.008 -0.06451,0.01 -0.06229,0.009 -0.0972,0.0135 -0.124508,0.0189 -0.01389,0.002 -0.04292,0.006 -0.06451,0.009 -0.03834,0.004 -0.09358,0.0126 -0.143482,0.0217 -0.01365,0.002 -0.04267,0.008 -0.06451,0.01 -0.02184,0.002 -0.05402,0.007 -0.07153,0.01 l -0.03184,0.004 z m 0.682139,-0.63878 c -0.236098,-0.23678 -0.429271,-0.43387 -0.429271,-0.43799 0,-0.004 0.54162,-0.54908 1.20360104,-1.21106 l 1.203601,-1.20357002 0.06282,0.0634 0.06282,0.0634 -1.142785,1.14282002 -1.14278504,1.14281 0.0615,0.0604 0.0615,0.0604 1.14241404,-1.14238 1.142414,-1.14239002 0.305167,0.30529002 c 0.167842,0.1679 0.305167,0.30974 0.305167,0.31517 0,0.005 -0.541553,0.55087 -1.20345,1.21208 l -1.20345,1.20221 z m 2.52230904,-2.52855002 -0.434184,-0.434 0.128371,-0.1292 c 0.110095,-0.11087 0.166485,-0.15824 0.187747,-0.15794 0.0027,5e-5 0.02,-0.009 0.03834,-0.0186 0.03874,-0.0217 0.180361,-0.0269 0.204051,-0.007 0.0076,0.006 0.01436,0.01 0.01489,0.009 5.26e-4,-0.001 0.01212,0.001 0.02577,0.006 0.01365,0.005 0.02862,0.01 0.03327,0.01 0.0105,2e-4 0.512131,0.49963 0.509852,0.50761 -9.06e-4,0.004 0.0062,0.0176 0.01592,0.032 0.02405,0.036 0.03114,0.0709 0.03094,0.15238 -1.95e-4,0.0797 -0.005,0.10574004 -0.02344,0.12805002 -0.0072,0.009 -0.0097,0.0159 -0.0055,0.0159 0.0042,0 3.15e-4,0.009 -0.0088,0.0181 -0.009,0.01 -0.01436,0.0203 -0.01187,0.0228 0.0025,0.002 -0.05746,0.0666 -0.133363,0.14237 l -0.138,0.13775 z"
       id="path856" />
  </g>
</svg>
