<?xml version="1.0" encoding="UTF-8" standalone="no"?>
<svg
   enable-background="new 0 0 91 91"
   height="48"
   id="Layer_1"
   version="1.1"
   viewBox="0 0 48 48"
   width="48"
   xml:space="preserve"
   sodipodi:docname="edit_modify_bl.svg"
   inkscape:version="1.1 (c68e22c387, 2021-05-23)"
   xmlns:inkscape="http://www.inkscape.org/namespaces/inkscape"
   xmlns:sodipodi="http://sodipodi.sourceforge.net/DTD/sodipodi-0.dtd"
   xmlns="http://www.w3.org/2000/svg"
   xmlns:svg="http://www.w3.org/2000/svg"><defs
     id="defs13" /><sodipodi:namedview
     id="namedview11"
     pagecolor="#ffffff"
     bordercolor="#666666"
     borderopacity="1.0"
     inkscape:pageshadow="2"
     inkscape:pageopacity="0.0"
     inkscape:pagecheckerboard="0"
     showgrid="false"
     inkscape:zoom="7.1648352"
     inkscape:cx="-2.6518405"
     inkscape:cy="34.404141"
     inkscape:window-width="1600"
     inkscape:window-height="837"
     inkscape:window-x="-8"
     inkscape:window-y="-8"
     inkscape:window-maximized="1"
     inkscape:current-layer="Layer_1" /><path
     d="m 13.884973,25.266077 -0.0012,6.04e-4 c -0.0012,0.0012 -0.0012,0.0024 -0.0012,0.0024 -0.08284,0.08405 -0.14513,0.185646 -0.195925,0.293888 -0.01391,0.02721 -0.02358,0.052 -0.03447,0.08043 -0.01089,0.02782 -0.026,0.05322 -0.03447,0.08284 l -2.42367,8.965403 c -0.09554,0.355569 0.006,0.734721 0.265467,0.99535 0.195925,0.195321 0.458368,0.301144 0.726254,0.301144 0.0895,0 0.180808,-0.01149 0.267886,-0.03628 l 8.620719,-2.32994 c 0.05684,0.0097 0.111266,0.03326 0.168713,0.03326 0.263653,0 0.526701,-0.100381 0.727464,-0.301144 L 35.930817,19.392547 c 0.743791,-0.744396 1.154993,-1.734303 1.154993,-2.7871 0,-1.052797 -0.411202,-2.042704 -1.154993,-2.7871 L 33.41886,11.306389 c -1.488187,-1.4893957 -4.087827,-1.4869769 -5.573595,0 z M 29.300192,12.759503 c 0.709928,-0.711741 1.953208,-0.711137 2.665554,6.05e-4 l 2.511957,2.511353 c 0.356778,0.356173 0.552704,0.829659 0.552704,1.333986 0,0.504326 -0.195926,0.977208 -0.552704,1.333986 l -0.755885,0.755885 -5.17872,-5.178116 z m -2.210812,2.211418 5.17872,5.178115 -11.023829,11.024434 -5.17993,-5.17872 z m -11.630352,13.324743 3.711094,3.711699 -5.524009,1.494234 1.493024,-5.524614 z"
     id="path2"
     style="fill:#000000;fill-opacity:1;stroke-width:0.604708" /><rect
     height="9.1231441"
     transform="rotate(44.991897)"
     width="2.0559881"
     x="32.375084"
     y="-5.7390389"
     id="rect4"
     style="fill:#000000;fill-opacity:1;stroke-width:0.604702" /></svg>
