<?xml version="1.0" encoding="UTF-8" standalone="no"?>
<svg
   enable-background="new 0 0 91 91"
   height="48"
   id="Layer_1"
   version="1.1"
   viewBox="0 0 48 48"
   width="48"
   xml:space="preserve"
   sodipodi:docname="edit_modify_b.svg"
   inkscape:version="1.1 (c68e22c387, 2021-05-23)"
   xmlns:inkscape="http://www.inkscape.org/namespaces/inkscape"
   xmlns:sodipodi="http://sodipodi.sourceforge.net/DTD/sodipodi-0.dtd"
   xmlns="http://www.w3.org/2000/svg"
   xmlns:svg="http://www.w3.org/2000/svg"><defs
     id="defs13" /><sodipodi:namedview
     id="namedview11"
     pagecolor="#ffffff"
     bordercolor="#666666"
     borderopacity="1.0"
     inkscape:pageshadow="2"
     inkscape:pageopacity="0.0"
     inkscape:pagecheckerboard="0"
     showgrid="false"
     inkscape:zoom="7.1648352"
     inkscape:cx="45.5"
     inkscape:cy="34.404141"
     inkscape:window-width="1600"
     inkscape:window-height="837"
     inkscape:window-x="-8"
     inkscape:window-y="-8"
     inkscape:window-maximized="1"
     inkscape:current-layer="Layer_1" /><g
     id="g8"
     transform="matrix(0.60470813,0,0,0.60470813,-3.4119618,-4.9772694)"
     style="fill:#000000;fill-opacity:1"><path
       d="m 36.682,45.397 -0.002,0.001 c -0.002,0.002 -0.002,0.004 -0.002,0.004 -0.137,0.139 -0.24,0.307 -0.324,0.486 -0.023,0.045 -0.039,0.086 -0.057,0.133 -0.018,0.046 -0.043,0.088 -0.057,0.137 l -4.008,14.826 c -0.158,0.588 0.01,1.215 0.439,1.646 0.324,0.323 0.758,0.498 1.201,0.498 0.148,0 0.299,-0.019 0.443,-0.06 l 14.256,-3.853 c 0.094,0.016 0.184,0.055 0.279,0.055 0.436,0 0.871,-0.166 1.203,-0.498 L 73.139,35.684 c 1.23,-1.231 1.91,-2.868 1.91,-4.609 0,-1.741 -0.68,-3.378 -1.91,-4.609 l -4.154,-4.154 c -2.461,-2.463 -6.76,-2.459 -9.217,0 z M 62.174,24.715 c 1.174,-1.177 3.23,-1.176 4.408,0.001 l 4.154,4.153 c 0.59,0.589 0.914,1.372 0.914,2.206 0,0.834 -0.324,1.616 -0.914,2.206 l -1.25,1.25 -8.564,-8.563 z m -3.656,3.657 8.564,8.563 -18.23,18.231 -8.566,-8.564 z m -19.233,22.035 6.137,6.138 -9.135,2.471 2.469,-9.136 z"
       id="path2"
       style="fill:#000000;fill-opacity:1" /><rect
       height="15.087"
       transform="matrix(0.7072,0.707,-0.707,0.7072,45.0547,-26.2009)"
       width="3.4000001"
       x="52.459"
       y="33.749001"
       id="rect4"
       style="fill:#000000;fill-opacity:1" /><path
       d="m 20.961,74.166 h 45.74 c 3.596,0 6.518,-2.925 6.518,-6.52 V 44.628 H 69.82 v 23.019 c 0,1.721 -1.398,3.119 -3.119,3.119 H 22.662 V 25.662 h 29.012 v -3.4 H 20.961 c -0.939,0 -1.699,0.761 -1.699,1.7 v 48.503 c 0,0.939 0.759,1.701 1.699,1.701 z"
       id="path6"
       style="fill:#000000;fill-opacity:1" /></g></svg>
