<?xml version="1.0" encoding="UTF-8" standalone="no"?>
<svg
   width="20"
   height="20"
   viewBox="0 0 20 20"
   fill="none"
   version="1.1"
   id="svg16"
   sodipodi:docname="external_link_icon_152621.svg"
   inkscape:version="1.2.1 (9c6d41e410, 2022-07-14)"
   xmlns:inkscape="http://www.inkscape.org/namespaces/inkscape"
   xmlns:sodipodi="http://sodipodi.sourceforge.net/DTD/sodipodi-0.dtd"
   xmlns="http://www.w3.org/2000/svg"
   xmlns:svg="http://www.w3.org/2000/svg">
  <defs
     id="defs20" />
  <sodipodi:namedview
     id="namedview18"
     pagecolor="#505050"
     bordercolor="#ffffff"
     borderopacity="1"
     inkscape:showpageshadow="0"
     inkscape:pageopacity="0"
     inkscape:pagecheckerboard="1"
     inkscape:deskcolor="#505050"
     showgrid="false"
     inkscape:zoom="51.35"
     inkscape:cx="7.8773126"
     inkscape:cy="10"
     inkscape:window-width="2560"
     inkscape:window-height="1351"
     inkscape:window-x="-9"
     inkscape:window-y="-9"
     inkscape:window-maximized="1"
     inkscape:current-layer="svg16" />
  <path
     d="M11 3C10.4477 3 10 3.44772 10 4C10 4.55228 10.4477 5 11 5H13.5858L7.29289 11.2929C6.90237 11.6834 6.90237 12.3166 7.29289 12.7071C7.68342 13.0976 8.31658 13.0976 8.70711 12.7071L15 6.41421V9C15 9.55228 15.4477 10 16 10C16.5523 10 17 9.55228 17 9V4C17 3.44772 16.5523 3 16 3H11Z"
     fill="#4A5568"
     id="path12"
     style="fill:#000000;fill-opacity:1" />
  <path
     d="M5 5C3.89543 5 3 5.89543 3 7V15C3 16.1046 3.89543 17 5 17H13C14.1046 17 15 16.1046 15 15V12C15 11.4477 14.5523 11 14 11C13.4477 11 13 11.4477 13 12V15H5V7L8 7C8.55228 7 9 6.55228 9 6C9 5.44772 8.55228 5 8 5H5Z"
     fill="#4A5568"
     id="path14"
     style="fill:#000000;fill-opacity:1" />
</svg>
