<?xml version="1.0" encoding="UTF-8" standalone="no"?>
<!-- Created with Inkscape (http://www.inkscape.org/) -->

<svg
   width="100"
   height="80"
   viewBox="0 0 26.458333 21.166666"
   version="1.1"
   id="svg5"
   inkscape:version="1.1 (c68e22c387, 2021-05-23)"
   sodipodi:docname="eye.svg"
   xmlns:inkscape="http://www.inkscape.org/namespaces/inkscape"
   xmlns:sodipodi="http://sodipodi.sourceforge.net/DTD/sodipodi-0.dtd"
   xmlns="http://www.w3.org/2000/svg"
   xmlns:svg="http://www.w3.org/2000/svg">
  <sodipodi:namedview
     id="namedview7"
     pagecolor="#ffffff"
     bordercolor="#666666"
     borderopacity="1.0"
     inkscape:pageshadow="2"
     inkscape:pageopacity="0.0"
     inkscape:pagecheckerboard="0"
     inkscape:document-units="px"
     showgrid="false"
     units="px"
     width="100px"
     inkscape:zoom="4.6466891"
     inkscape:cx="54.877783"
     inkscape:cy="57.783078"
     inkscape:window-width="1600"
     inkscape:window-height="837"
     inkscape:window-x="-8"
     inkscape:window-y="-8"
     inkscape:window-maximized="1"
     inkscape:current-layer="g952" />
  <defs
     id="defs2" />
  <g
     inkscape:label="Слой 1"
     inkscape:groupmode="layer"
     id="layer1">
    <g
       id="g952"
       transform="matrix(0.73739458,0,0,0.73739458,108.67027,-13.338764)">
      <path
         style="fill:#ffffff;fill-opacity:1;stroke-width:0.0703573"
         d="m -143.34964,46.537645 c -0.16389,-0.163893 -0.20566,-0.267445 -0.20566,-0.509889 v -0.304228 l 13.70231,-13.702313 13.70231,-13.702311 h 0.30423 c 0.42961,0 0.71555,0.285944 0.71555,0.715548 v 0.304228 l -13.70231,13.702313 -13.70232,13.702312 h -0.30422 c -0.24245,0 -0.346,-0.04177 -0.50989,-0.20566 z m 11.82546,-2.683917 c -0.89774,-0.110363 -2.1088,-0.34225 -2.96757,-0.56821 -0.92522,-0.243444 -1.1019,-0.368787 -1.16311,-0.825135 -0.0347,-0.259 -0.014,-0.310818 0.21716,-0.541956 0.29999,-0.299984 0.37034,-0.300322 1.48619,-0.0071 4.96713,1.305045 10.45142,0.393025 14.7848,-2.458666 2.34789,-1.545088 4.39249,-3.705946 5.85399,-6.186849 0.41596,-0.706089 0.40267,-0.866703 -0.14719,-1.779108 -1.05814,-1.755807 -2.80915,-3.740461 -4.41493,-5.004018 -0.439,-0.34544 -0.77594,-0.667153 -0.8304,-0.792876 -0.28558,-0.659229 0.52377,-1.239311 1.13615,-0.814305 0.56506,0.392165 1.70319,1.376032 2.39591,2.071155 1.2636,1.267992 2.52511,2.93668 3.29101,4.353237 0.29495,0.545518 0.3043,0.582368 0.30351,1.196076 -7.7e-4,0.589688 -0.0184,0.667073 -0.256,1.125719 -0.14035,0.270876 -0.50638,0.872432 -0.81339,1.336791 -3.16205,4.782609 -8.01308,7.87299 -13.8104,8.798005 -0.8632,0.137732 -4.21337,0.202072 -5.06573,0.09729 z m -10.03662,-3.994724 c -1.93226,-1.49536 -3.55603,-3.304486 -4.84854,-5.402009 -0.65346,-1.060456 -0.7573,-1.350662 -0.72342,-2.021717 0.0315,-0.6243 0.23872,-1.068761 1.10304,-2.366264 1.6004,-2.402477 3.62003,-4.379481 6.00654,-5.879744 4.71596,-2.96466 10.37337,-3.830832 15.81617,-2.421518 0.66691,0.172685 0.84312,0.246815 1.0026,0.421805 0.32866,0.360627 0.20783,0.94392 -0.23339,1.126683 -0.19918,0.0825 -0.33377,0.06501 -1.28734,-0.16726 -1.42778,-0.347783 -2.10143,-0.453781 -3.50343,-0.551253 -4.28576,-0.297963 -8.77688,1.066134 -12.34394,3.749248 -0.87672,0.659466 -2.48448,2.217234 -3.17687,3.078084 -0.61066,0.75925 -1.42222,1.955146 -1.7635,2.598675 -0.29413,0.554611 -0.27868,0.63404 0.31317,1.61008 0.98194,1.619338 2.51517,3.404269 3.92807,4.572929 1.41512,1.170492 1.30457,1.051462 1.30457,1.404598 0,0.432773 -0.28114,0.729438 -0.69126,0.729438 -0.23847,0 -0.37212,-0.07135 -0.90247,-0.481775 z m 10.78472,-0.0496 c -1.13914,-0.226359 -1.45167,-0.437608 -1.45167,-0.981203 0,-0.227655 0.0436,-0.341086 0.18548,-0.483014 0.23182,-0.231814 0.50369,-0.239727 1.26318,-0.03676 0.76439,0.204275 2.03577,0.219053 2.77278,0.03223 1.22841,-0.311387 2.1191,-0.826055 2.96887,-1.715495 0.76008,-0.79557 1.22204,-1.631979 1.50344,-2.722083 0.18981,-0.735314 0.17734,-2.079016 -0.026,-2.797492 -0.20899,-0.738507 -0.20065,-0.931327 0.0511,-1.183113 0.27811,-0.278102 0.7445,-0.291682 1.00686,-0.02932 0.44373,0.443729 0.69579,2.490824 0.47642,3.86921 -0.47384,2.977367 -2.84616,5.42676 -5.85465,6.044858 -0.66776,0.137194 -2.21059,0.138358 -2.89586,0.0022 z m -5.41027,-4.642479 c -0.2332,-0.233201 -0.47173,-1.116079 -0.53489,-1.979762 -0.16774,-2.293963 0.56985,-4.328183 2.13793,-5.896266 1.23763,-1.237633 2.84976,-1.99473 4.55441,-2.138871 1.38459,-0.117078 3.09903,0.185146 3.42885,0.604434 0.21797,0.277103 0.1901,0.686236 -0.0641,0.940392 -0.25199,0.251992 -0.44518,0.260297 -1.22494,0.05266 -0.74524,-0.198444 -2.10463,-0.215654 -2.79084,-0.03533 -1.18073,0.310268 -1.99515,0.776334 -2.84948,1.630659 -0.85432,0.854328 -1.32039,1.668747 -1.63066,2.849477 -0.18263,0.695024 -0.16597,2.056325 0.0338,2.762313 0.20899,0.738507 0.20065,0.931327 -0.0511,1.183114 -0.27919,0.279192 -0.74444,0.291726 -1.00899,0.02718 z"
         id="path954" />
    </g>
  </g>
</svg>
