<?xml version="1.0" encoding="UTF-8" standalone="no"?>
<!-- Created with Inkscape (http://www.inkscape.org/) -->

<svg
   width="64"
   height="64"
   viewBox="0 0 16.933333 16.933334"
   version="1.1"
   id="svg845"
   inkscape:version="1.2.1 (9c6d41e410, 2022-07-14)"
   sodipodi:docname="eyepiramid_gray.svg"
   xmlns:inkscape="http://www.inkscape.org/namespaces/inkscape"
   xmlns:sodipodi="http://sodipodi.sourceforge.net/DTD/sodipodi-0.dtd"
   xmlns="http://www.w3.org/2000/svg"
   xmlns:svg="http://www.w3.org/2000/svg">
  <sodipodi:namedview
     id="namedview847"
     pagecolor="#ffffff"
     bordercolor="#666666"
     borderopacity="1.0"
     inkscape:pageshadow="2"
     inkscape:pageopacity="0.0"
     inkscape:pagecheckerboard="0"
     inkscape:document-units="mm"
     showgrid="false"
     units="px"
     inkscape:zoom="6.5714107"
     inkscape:cx="36.141402"
     inkscape:cy="57.750157"
     inkscape:window-width="2560"
     inkscape:window-height="1351"
     inkscape:window-x="-9"
     inkscape:window-y="-9"
     inkscape:window-maximized="1"
     inkscape:current-layer="layer1"
     inkscape:showpageshadow="0"
     inkscape:deskcolor="#d1d1d1" />
  <defs
     id="defs842" />
  <g
     inkscape:label="Слой 1"
     inkscape:groupmode="layer"
     id="layer1">
    <path
       style="fill:#cccccc;fill-opacity:1;stroke-width:0.0177072"
       d="m -1.0591995,16.94423 c -0.01058,-0.01712 0.058007,-0.13979 1.43220345,-2.561363 C 0.73249797,13.749375 1.1774595,12.964364 1.5422971,12.319974 1.7159869,12.013196 1.9891739,11.531116 2.1493792,11.248687 2.4347902,10.745528 2.6456211,10.373263 3.0168392,9.7170106 3.1187555,9.5368396 3.2794785,9.2539664 3.3740017,9.0884037 3.4685248,8.9228412 3.638087,8.6240315 3.7508068,8.4243825 3.8635263,8.2247335 4.0731552,7.8542096 4.2166486,7.6009963 4.5589788,6.9969087 4.7536737,6.6532313 4.8887421,6.4146117 4.9493817,6.3074829 5.1527406,5.9489115 5.3406517,5.6177863 5.5285627,5.2866611 5.7634437,4.8723118 5.8626097,4.6970102 6.1147552,4.2512768 6.6860043,3.2434341 6.9967371,2.6960929 7.1404898,2.4428798 7.3909465,2.0006415 7.5533075,1.7133414 7.7156685,1.4260418 7.9549696,1.0037248 8.0850877,0.77485839 8.2152058,0.54599264 8.3706092,0.27154692 8.4304295,0.1649806 8.4902481,0.05841418 8.5479217,-0.03168625 8.5585909,-0.03524287 8.577186,-0.04143817 8.6046675,0.00236721 8.8057488,0.35873871 8.9080706,0.54008187 9.345619,1.3120513 9.5634946,1.6956344 c 0.08021,0.1412151 0.2134591,0.3762783 0.2961084,0.5223635 0.25056,0.4428713 0.524332,0.9262944 0.872433,1.540529 0.182136,0.3213863 0.385189,0.6799576 0.451232,0.7968255 0.111232,0.1968447 0.379034,0.6688839 0.823748,1.4519929 0.315686,0.5558975 0.944378,1.6656276 1.21383,2.1425752 0.143052,0.2532133 0.346167,0.6117848 0.451367,0.7968255 0.200384,0.3524682 0.220791,0.3884842 0.672231,1.186385 0.154284,0.272691 0.341592,0.603373 0.416241,0.734851 0.169906,0.299244 0.688029,1.213842 1.01817,1.797284 0.255405,0.451364 0.732116,1.291953 1.531411,2.700352 0.822275,1.448891 0.885093,1.562276 0.874783,1.578956 -0.012,0.01945 -19.2322335,0.01909 -19.2442485,-3.35e-4 z"
       id="path1104" />
    <path
       style="fill:#1a1a1a;fill-opacity:1;stroke-width:0.0177072"
       d="M 1.9670875,16.004744 C 1.8543022,15.976194 1.7745871,15.924748 1.480195,15.690487 1.0878292,15.37827 1.0117364,15.275236 1.0156991,15.061529 c 0.00498,-0.26785 0.197666,-0.457823 0.4634894,-0.456932 0.1527738,5.08e-4 0.2210374,0.03372 0.4170701,0.202835 0.08765,0.07561 0.2318743,0.191725 0.3204965,0.258009 0.2540239,0.190003 0.310462,0.276976 0.3109518,0.479182 4.483e-4,0.186544 -0.091821,0.335471 -0.2595964,0.418989 -0.08231,0.04098 -0.2247573,0.06043 -0.301023,0.04113 z m 6.1532634,0.0053 C 7.6968291,15.995154 7.0712598,15.942059 6.7746011,15.895709 6.3291007,15.826101 6.1118144,15.78467 5.8071581,15.711237 4.6731776,15.437911 3.7171587,14.995163 2.9232781,14.375665 2.5327476,14.070894 2.0494446,13.54017 1.9840197,13.344226 c -0.063239,-0.189397 -0.027712,-0.351324 0.1066052,-0.485904 0.1135108,-0.113729 0.2312763,-0.157661 0.3852175,-0.143703 0.1495207,0.01356 0.2461728,0.07856 0.3750665,0.252241 0.1555214,0.209562 0.5011578,0.543413 0.7718052,0.745486 0.9996101,0.746343 2.2730069,1.17015 3.96642,1.320085 0.3464761,0.03068 1.5033531,0.03086 1.7618692,2.68e-4 0.7010707,-0.08294 1.1220697,-0.173856 1.7052317,-0.368214 1.024646,-0.3415 1.903005,-0.876778 2.627616,-1.601285 0.152841,-0.152819 0.306773,-0.291558 0.342073,-0.308308 0.08557,-0.0406 0.230646,-0.05387 0.321306,-0.02935 0.213165,0.05763 0.348067,0.237989 0.346654,0.463496 -0.001,0.17685 -0.05218,0.258287 -0.34944,0.557083 -0.347185,0.348986 -0.672925,0.614931 -1.09785,0.896311 -1.165577,0.77184 -2.504817,1.227924 -3.939859,1.341743 -0.2497437,0.01981 -0.9320283,0.03461 -1.186384,0.02573 z m 6.3254091,-0.01418 c -0.303835,-0.09883 -0.432866,-0.477532 -0.246069,-0.722215 0.03092,-0.0405 0.148338,-0.145912 0.260931,-0.234249 0.280974,-0.220445 0.561568,-0.470046 0.751476,-0.668468 0.173554,-0.181338 0.251647,-0.229113 0.394284,-0.241222 0.281273,-0.02387 0.507171,0.188156 0.505705,0.474663 -4.01e-4,0.08358 -0.01164,0.136979 -0.04075,0.19478 -0.100282,0.198895 -1.029196,1.045318 -1.280428,1.166731 -0.0996,0.04813 -0.249352,0.06114 -0.345155,0.02998 z M 7.9078639,14.114109 C 7.7581268,14.103198 7.3680445,14.053382 7.1553066,14.018043 5.7698352,13.787856 4.4891179,13.14799 3.643114,12.263292 3.4934993,12.106835 3.2685692,11.816617 3.2685692,11.780035 c 0,-0.04218 0.2454022,-0.394677 0.4623755,-0.664153 0.825,-1.024627 1.8595327,-1.8334086 2.8942147,-2.2626504 C 7.029329,8.6855603 7.407516,8.5771105 7.8547423,8.5006333 c 0.2355348,-0.040276 1.1320304,-0.046122 1.3457493,-0.00877 0.5844178,0.1021283 0.9472934,0.2167313 1.4077244,0.4445864 0.783534,0.3877496 1.451695,0.949251 2.056125,1.7279033 0.337993,0.435416 0.715053,1.072922 0.689981,1.166563 -0.01738,0.06494 -0.316343,0.419344 -0.517105,0.613014 -0.978892,0.944312 -2.203385,1.508078 -3.5966956,1.655946 -0.2207191,0.02342 -1.080884,0.03261 -1.3326575,0.01423 z m 1.1042642,-0.962151 c 0.8424593,-0.0698 1.5622699,-0.300125 2.2924379,-0.733545 0.284738,-0.169018 0.672928,-0.46699 0.850842,-0.653098 l 0.05977,-0.06254 -0.04131,-0.06769 c -0.07232,-0.118465 -0.265224,-0.381374 -0.393958,-0.536917 -0.237325,-0.286745 -0.763465,-0.796826 -0.821915,-0.796826 -0.0093,0 -0.02215,0.0804 -0.02859,0.178655 -0.02935,0.447878 -0.183855,0.886992 -0.437232,1.242652 -0.135576,0.190306 -0.420623,0.46771 -0.6103283,0.593961 C 9.610754,12.497029 9.2775118,12.630717 8.9624734,12.68544 8.7132437,12.72872 8.2216214,12.71051 7.99211,12.64948 7.5311646,12.526906 7.1761072,12.317403 6.8449041,11.972572 6.4380765,11.549002 6.2244009,11.035426 6.1956292,10.41202 c -0.00595,-0.129042 -0.014021,-0.234622 -0.017923,-0.234622 -0.00391,0 -0.056459,0.0334 -0.1167926,0.07424 -0.4258878,0.288237 -0.8468593,0.652672 -1.2305059,1.065248 -0.2470814,0.265713 -0.3469393,0.392933 -0.3342911,0.425893 0.013822,0.03602 0.2519141,0.235991 0.4378763,0.367764 0.8384929,0.594152 1.9065548,0.956692 3.0631576,1.03975 0.2927654,0.02103 0.7718211,0.02181 1.0149776,0.0017 z M 8.798656,11.248834 c 0.3043266,-0.07927 0.5456349,-0.306618 0.6515911,-0.613905 0.048998,-0.142101 0.054312,-0.402451 0.011059,-0.541996 C 9.2854138,9.5254302 8.6725293,9.2578513 8.1403064,9.5161991 8.0879791,9.5415998 7.9899268,9.6144903 7.9224135,9.6781792 7.774012,9.8181735 7.6752121,10.005492 7.6419671,10.209886 c -0.074606,0.458685 0.2238931,0.915808 0.6778474,1.038063 0.1232023,0.03318 0.3532202,0.03361 0.4788415,8.82e-4 z M 5.127714,8.4432525 C 4.8656152,8.3635257 4.7210449,8.0718849 4.8197475,7.8219937 4.8669232,7.7025563 4.9123059,7.6500729 5.0443414,7.5622588 5.234785,7.435599 5.7184263,7.1988372 6.061285,7.0644249 6.8031174,6.7736006 7.4741498,6.6236753 8.2179306,6.582576 9.3491998,6.5200639 10.512621,6.7670858 11.599822,7.3006275 12.209645,7.5998976 12.331388,7.714378 12.33351,7.9905554 12.336172,8.3398209 11.962838,8.565678 11.650252,8.4038856 11.603035,8.3794474 11.492694,8.3183126 11.405042,8.2680303 10.831604,7.9390635 10.009195,7.6673073 9.2713212,7.562964 8.9567167,7.5184756 8.1633078,7.5183154 7.8635959,7.5626761 7.0312572,7.6858815 6.2125282,7.9646995 5.6112051,8.3297272 c -0.071222,0.043234 -0.1623102,0.090187 -0.2024185,0.104337 -0.077398,0.027308 -0.2075151,0.031559 -0.2810726,0.0092 z M 6.5780038,6.0888547 C 6.4810543,6.0689295 6.354186,5.9867709 6.2957069,5.9060426 6.1540393,5.7104762 6.1911887,5.4035474 6.3733429,5.2646115 6.4950292,5.1717968 6.8821025,5.012601 7.2792573,4.8920262 8.3056345,4.5804219 9.178257,4.6226918 10.271011,5.0369472 c 0.406121,0.1539574 0.526148,0.2300125 0.601437,0.3810981 0.176644,0.3544771 -0.153777,0.7676382 -0.52984,0.6625151 C 10.293916,6.0669481 10.174391,6.0224147 10.077,5.9815953 9.7216625,5.8326638 9.3236928,5.7160901 8.9791514,5.6600124 8.7997423,5.630812 8.3323095,5.6308815 8.1469117,5.6601397 7.7882355,5.7167368 7.4005064,5.8310971 7.0136488,5.9943929 6.7921991,6.0878685 6.6856274,6.1109776 6.5780038,6.0888582 Z M 8.0318146,3.7332286 C 7.8166234,3.6969173 7.6797173,3.5713402 7.6321277,3.3666154 7.5921575,3.1946698 7.6437608,3.0367067 7.7787057,2.9179234 7.9170548,2.7961435 7.9524624,2.7909387 8.6013467,2.7969935 l 0.5725845,0.00535 0.082623,0.04857 c 0.1671709,0.098273 0.2496835,0.2433733 0.2473939,0.4350524 -0.00205,0.1720139 -0.1165912,0.3398506 -0.2834566,0.4153634 -0.076371,0.034559 -0.11708,0.037379 -0.5954843,0.041225 -0.2824309,0.00227 -0.5493673,-0.00194 -0.5931924,-0.00933 z"
       id="path1102" />
    <path
       style="fill:#1a1a1a;fill-opacity:1;stroke-width:0.0177072"
       d="M 8.0012566,14.090304 C 6.9996305,14.024418 6.0371189,13.774392 5.226879,13.369618 4.6494222,13.081138 4.2071678,12.773958 3.7966012,12.37618 c -0.2096848,-0.203154 -0.49852,-0.54814 -0.49852,-0.595437 0,-0.03875 0.2421154,-0.383371 0.464918,-0.661743 C 4.0073133,10.813752 4.4444267,10.356874 4.747123,10.09038 5.6794782,9.2695313 6.6515369,8.7614847 7.6631672,8.566309 8.8705937,8.333358 10.083818,8.575679 11.12046,9.2568629 c 0.365792,0.2403623 0.603328,0.434639 0.941487,0.7700241 0.332549,0.329822 0.592996,0.645487 0.847359,1.02702 0.183298,0.274937 0.439284,0.732526 0.427312,0.763846 -0.01842,0.04818 -0.261753,0.346004 -0.405906,0.496791 -0.808015,0.845199 -1.990504,1.468844 -3.1990033,1.68716 -0.4861376,0.08782 -1.1925026,0.123987 -1.7304521,0.0886 z M 8.8729079,13.18809 c 0.9184635,-0.05173 1.7336471,-0.30523 2.4943401,-0.775661 0.354588,-0.219286 0.861181,-0.639899 0.861181,-0.71502 0,-0.05992 -0.252341,-0.412995 -0.497134,-0.695614 -0.242727,-0.28023 -0.741359,-0.753568 -0.793839,-0.753568 -0.02719,0 -0.03707,0.05208 -0.03707,0.195329 0,0.272095 -0.09855,0.659217 -0.24011,0.943193 -0.36173,0.725639 -1.0741578,1.214836 -1.8803351,1.291155 -1.1586579,0.109686 -2.2289548,-0.658951 -2.4955843,-1.792216 -0.032037,-0.136171 -0.046389,-0.258586 -0.053628,-0.457444 -0.00711,-0.195148 -0.016189,-0.273937 -0.032299,-0.280118 -0.046915,-0.018 -0.5337985,0.34163 -0.8758244,0.646924 -0.3124015,0.278851 -0.8676545,0.872889 -0.8676545,0.928261 0,0.0442 0.2969868,0.30039 0.5400707,0.465888 0.1481713,0.100876 0.4773787,0.293852 0.6319084,0.370407 0.2752982,0.136383 0.7994639,0.334039 1.0804084,0.407403 0.4130837,0.107875 0.9880064,0.197178 1.4130097,0.219487 0.3670886,0.01926 0.4361239,0.01942 0.7525572,0.0016 z M 8.7739559,11.283376 C 8.9585,11.239876 9.0992172,11.162229 9.2316443,11.030822 9.4283174,10.835664 9.5192215,10.619275 9.5192215,10.346268 9.5192215,9.9173369 9.2421094,9.547621 8.8298529,9.4265301 8.6287738,9.3674676 8.3185979,9.3959152 8.1292044,9.4907895 7.6660706,9.72279 7.4703577,10.317521 7.7047918,10.780493 c 0.1985389,0.392083 0.6461162,0.602602 1.0691641,0.502883 z"
       id="path1100" />
  </g>
</svg>
