<?xml version="1.0" encoding="UTF-8" standalone="no"?>
<!-- Created with Inkscape (http://www.inkscape.org/) -->

<svg
   width="64"
   height="64"
   viewBox="0 0 16.933333 16.933334"
   version="1.1"
   id="svg845"
   inkscape:version="1.1 (c68e22c387, 2021-05-23)"
   sodipodi:docname="eyepiramid.svg"
   xmlns:inkscape="http://www.inkscape.org/namespaces/inkscape"
   xmlns:sodipodi="http://sodipodi.sourceforge.net/DTD/sodipodi-0.dtd"
   xmlns="http://www.w3.org/2000/svg"
   xmlns:svg="http://www.w3.org/2000/svg">
  <sodipodi:namedview
     id="namedview847"
     pagecolor="#ffffff"
     bordercolor="#666666"
     borderopacity="1.0"
     inkscape:pageshadow="2"
     inkscape:pageopacity="0.0"
     inkscape:pagecheckerboard="0"
     inkscape:document-units="mm"
     showgrid="false"
     units="px"
     inkscape:zoom="4.6466891"
     inkscape:cx="46.484711"
     inkscape:cy="63.808874"
     inkscape:window-width="1600"
     inkscape:window-height="837"
     inkscape:window-x="-8"
     inkscape:window-y="-8"
     inkscape:window-maximized="1"
     inkscape:current-layer="layer1" />
  <defs
     id="defs842" />
  <g
     inkscape:label="Слой 1"
     inkscape:groupmode="layer"
     id="layer1">
    <path
       style="fill:#000000;stroke-width:0.0146057;fill-opacity:0.3281787"
       d="M 0.54651969,14.824221 C 0.53779063,14.810097 0.59436761,14.708915 1.7278674,12.71149 2.0243945,12.188957 2.3914194,11.541444 2.6923543,11.009921 2.8356217,10.756877 3.060959,10.359235 3.1931037,10.126274 3.4285238,9.7112451 3.6024269,9.4041842 3.9086248,8.8628768 3.99269,8.7142634 4.1252618,8.4809366 4.2032289,8.3443729 4.2811958,8.2078092 4.4210586,7.9613373 4.514035,7.7966575 4.6070113,7.6319778 4.7799229,7.3263526 4.8982829,7.1174905 5.1806527,6.6192112 5.3412461,6.3357302 5.4526567,6.1389057 5.5026748,6.0505409 5.6704149,5.7547746 5.8254127,5.4816473 5.9804103,5.2085199 6.1741511,4.8667455 6.2559477,4.7221486 6.463929,4.3544871 6.9351217,3.5231719 7.1914284,3.0716996 7.3100022,2.8628378 7.5165905,2.4980592 7.6505133,2.2610808 7.7844362,2.0241028 7.9818229,1.675756 8.0891502,1.4869767 8.1964776,1.2981975 8.3246616,1.0718223 8.3740041,0.98392125 8.423346,0.89602016 8.4709171,0.82170117 8.4797175,0.81876769 c 0.015338,-0.005112 0.038007,0.0310234 0.2038673,0.32497401 0.0844,0.1495803 0.44531,0.7863364 0.6250239,1.1027335 0.066161,0.1164807 0.176071,0.3103717 0.2442437,0.4308695 0.2066738,0.3653008 0.4324936,0.7640505 0.7196226,1.2706995 0.150235,0.2650943 0.317723,0.5608605 0.372197,0.6572584 0.09175,0.1623667 0.312645,0.5517265 0.679466,1.197671 0.260392,0.4585299 0.778967,1.3738866 1.001223,1.7672949 0.117996,0.2088621 0.285534,0.5046284 0.372308,0.6572585 0.165286,0.2907321 0.182119,0.3204397 0.554487,0.9785848 0.127261,0.2249284 0.281762,0.4976906 0.343336,0.6061383 0.140145,0.2468309 0.567517,1.0012339 0.839833,1.4824829 0.21067,0.372307 0.603883,1.065663 1.263178,2.227376 0.67825,1.195112 0.730066,1.288637 0.721562,1.302395 -0.0099,0.01604 -15.86363497,0.01575 -15.87354531,-2.76e-4 z"
       id="path1104" />
    <path
       style="fill:#000000;stroke-width:0.0146057;fill-opacity:0.3281787"
       d="M 3.0427411,14.049289 C 2.9497105,14.025738 2.8839578,13.9833 2.6411296,13.790075 2.3174882,13.532545 2.2547233,13.447557 2.2579919,13.271282 c 0.0041,-0.220936 0.1630442,-0.377634 0.3823075,-0.376899 0.1260149,4.19e-4 0.1823219,0.02781 0.3440187,0.167308 0.072298,0.06237 0.1912606,0.158143 0.2643603,0.212818 0.2095307,0.156723 0.2560834,0.228462 0.2564874,0.395251 3.699e-4,0.15387 -0.075738,0.276711 -0.2141271,0.345602 -0.067893,0.0338 -0.1853902,0.04985 -0.2482976,0.03393 z m 5.0754958,0.0043 C 7.7688967,14.041358 7.2528981,13.997563 7.0082004,13.95933 6.6407311,13.901915 6.4615032,13.867741 6.2102086,13.807171 5.2748492,13.581718 4.4862806,13.216519 3.8314512,12.705529 3.5093236,12.45416 3.110673,12.016395 3.0567074,11.854771 c -0.052162,-0.156223 -0.022858,-0.289789 0.087933,-0.400795 0.093629,-0.09381 0.1907673,-0.130047 0.3177452,-0.118533 0.1233316,0.01118 0.2030547,0.0648 0.3093723,0.20806 0.1282811,0.172856 0.413378,0.448231 0.6366204,0.614911 0.8245246,0.615618 1.8748811,0.965193 3.2716865,1.088867 0.2857895,0.02531 1.240035,0.02545 1.4532713,2.21e-4 0.5782754,-0.06842 0.9255349,-0.143405 1.4065529,-0.303721 0.845176,-0.281684 1.569687,-0.723206 2.16738,-1.320813 0.12607,-0.126052 0.253041,-0.24049 0.282157,-0.254307 0.07058,-0.03349 0.190248,-0.04443 0.265028,-0.02421 0.175828,0.04753 0.287102,0.196303 0.285937,0.382312 -9.1e-4,0.145875 -0.04305,0.213047 -0.288235,0.459508 -0.286373,0.287859 -0.55506,0.507223 -0.905557,0.739319 -0.961422,0.636648 -2.066089,1.012848 -3.2497774,1.106731 -0.2060003,0.01634 -0.7687802,0.02855 -0.9785845,0.02123 z m 5.2174901,-0.01168 c -0.250618,-0.08151 -0.357049,-0.393888 -0.20297,-0.595713 0.0255,-0.03341 0.122356,-0.120355 0.215228,-0.19322 0.231761,-0.181833 0.463208,-0.387715 0.619852,-0.551383 0.143155,-0.149575 0.20757,-0.188983 0.325224,-0.198971 0.232007,-0.01969 0.418338,0.155199 0.417129,0.391525 -3.31e-4,0.06894 -0.0096,0.112986 -0.03361,0.160663 -0.08272,0.164058 -0.848929,0.862226 -1.056156,0.962373 -0.08215,0.0397 -0.205677,0.05043 -0.2847,0.02473 z M 7.9429679,12.489806 c -0.12351,-0.009 -0.445268,-0.05009 -0.6207441,-0.07924 C 6.179423,12.220698 5.1230282,11.692907 4.4252051,10.963167 4.301796,10.834114 4.1162632,10.594729 4.1162632,10.564554 c 0,-0.03479 0.2024192,-0.325548 0.3813887,-0.547824 C 5.1781501,9.1715703 6.0314804,8.5044505 6.8849339,8.150392 7.2183117,8.0120889 7.5302578,7.9226346 7.8991507,7.8595526 c 0.1942801,-0.033222 0.9337511,-0.038044 1.1100363,-0.00724 0.4820546,0.08424 0.7813709,0.1787699 1.161157,0.3667154 0.646294,0.3198337 1.197425,0.7829863 1.695986,1.4252538 0.278792,0.3591512 0.589809,0.8849952 0.569128,0.9622352 -0.01434,0.05357 -0.260934,0.345894 -0.426532,0.505642 -0.807435,0.778914 -1.817454,1.243935 -2.9667206,1.365903 -0.1820594,0.01932 -0.8915632,0.0269 -1.0992375,0.01174 z m 0.910848,-0.793626 c 0.6948996,-0.05757 1.2886321,-0.247557 1.8909081,-0.605062 0.234866,-0.139414 0.555063,-0.385195 0.701814,-0.538705 l 0.04931,-0.05158 -0.03408,-0.05583 c -0.05965,-0.09772 -0.21877,-0.314579 -0.324956,-0.442878 -0.195756,-0.2365208 -0.629741,-0.6572587 -0.677953,-0.6572587 -0.0077,0 -0.01827,0.066313 -0.02358,0.1473622 -0.02421,0.369431 -0.151652,0.7316325 -0.360649,1.0249975 C 9.9628,10.674199 9.7276797,10.903014 9.5712023,11.007152 9.3475946,11.15597 9.072721,11.266242 8.8128626,11.31138 8.6072879,11.347088 8.2017751,11.33206 8.0124634,11.281717 7.6322489,11.180608 7.3393811,11.0078 7.0661895,10.723367 6.7306194,10.373987 6.5543698,9.9503664 6.5306376,9.4361522 6.5257251,9.3297129 6.5190726,9.2426261 6.5158541,9.2426261 c -0.00322,0 -0.04657,0.027557 -0.096336,0.061239 C 6.0682262,9.5416159 5.7209895,9.8422179 5.40454,10.182529 c -0.2038041,0.219172 -0.2861715,0.32411 -0.2757388,0.351297 0.011402,0.02971 0.2077904,0.194656 0.3611807,0.303348 0.6916277,0.490084 1.5726144,0.789124 2.5266339,0.857634 0.2414865,0.01734 0.6366337,0.01799 0.8372004,0.0014 z M 8.6777344,10.126395 C 8.928757,10.061012 9.127799,9.8734821 9.2151967,9.6200179 9.2556123,9.5028067 9.2599949,9.2880584 9.2243195,9.1729554 9.0792344,8.7048524 8.5736992,8.4841411 8.1346971,8.6972382 8.0915348,8.7181897 8.0106571,8.7783136 7.954969,8.830847 7.8325607,8.9463207 7.7510659,9.1008295 7.7236439,9.2694234 c -0.061538,0.378344 0.1846774,0.7554006 0.5591199,0.8562426 0.1016229,0.02737 0.2913522,0.02772 0.3949706,7.29e-4 z M 5.6497717,7.8122223 C 5.4335806,7.74646 5.3143323,7.5059012 5.3957468,7.2997793 5.4346595,7.2012619 5.4720933,7.1579711 5.5810022,7.0855381 5.7380889,6.9810631 6.1370186,6.7857712 6.4198242,6.6749017 7.0317219,6.4350164 7.5852204,6.3113509 8.1987252,6.2774504 c 0.933123,-0.051562 1.8927668,0.1521922 2.7895398,0.592282 0.503011,0.2468518 0.60343,0.3412806 0.60518,0.5690844 0.0022,0.2880903 -0.305747,0.4743877 -0.563583,0.3409339 C 10.990918,7.7595936 10.899901,7.7091666 10.827602,7.667691 10.354603,7.3963441 9.6762428,7.1721869 9.0676103,7.0861197 8.8081102,7.0494236 8.1536698,7.0492915 7.9064536,7.0858823 7.2199022,7.1875078 6.5445767,7.4174897 6.0485775,7.7185814 c -0.058747,0.035662 -0.1338809,0.07439 -0.166964,0.086062 -0.063842,0.022525 -0.171168,0.026032 -0.2318418,0.00758 z M 6.8460378,5.8702063 C 6.7660694,5.8537709 6.6614226,5.7860028 6.6131863,5.7194144 6.4963323,5.5581022 6.5269748,5.3049331 6.6772241,5.1903324 6.7775965,5.1137745 7.0968724,4.9824625 7.4244641,4.8830069 8.2710674,4.6259812 8.9908469,4.6608474 9.8922006,5.0025444 10.227188,5.1295356 10.326192,5.1922694 10.388294,5.3168917 10.533998,5.6092808 10.261451,5.9500751 9.9512577,5.8633647 9.9110916,5.8521369 9.8125032,5.8154031 9.7321716,5.7817339 9.4390728,5.6588882 9.1108087,5.5627328 8.8266153,5.5164774 8.6786303,5.4923912 8.2930702,5.4924486 8.1401455,5.5165823 7.8442929,5.5632667 7.524476,5.6575959 7.2053779,5.7922898 7.022716,5.8693928 6.9348107,5.8884543 6.8460378,5.8702091 Z M 8.0452081,3.927177 C 7.8677085,3.8972257 7.7547821,3.793644 7.7155279,3.6247775 7.6825586,3.4829489 7.7251234,3.3526535 7.8364322,3.2546757 7.9505489,3.154226 7.9797548,3.1499328 8.5149844,3.1549271 l 0.4722942,0.00441 0.068151,0.040063 c 0.1378906,0.08106 0.2059507,0.2007456 0.2040622,0.3588513 -0.00169,0.1418849 -0.09617,0.2803244 -0.2338082,0.3426109 -0.062994,0.028507 -0.096573,0.030832 -0.491183,0.034004 -0.232962,0.00187 -0.4531434,-0.00159 -0.4892925,-0.00769 z"
       id="path1102" />
    <path
       style="fill:#000000;stroke-width:0.0146057;fill-opacity:0.3281787"
       d="M 8.0200024,12.470171 C 7.193815,12.415825 6.3998909,12.209592 5.7315677,11.875716 5.2552546,11.637764 4.8904628,11.384388 4.5518084,11.056282 4.3788507,10.888712 4.1406062,10.604151 4.1406062,10.565138 c 0,-0.03197 0.1997079,-0.316222 0.3834859,-0.545836 C 4.7256135,9.7675199 5.0861649,9.3906664 5.3358428,9.1708491 6.1048924,8.4937753 6.9066913,8.074715 7.7411307,7.9137251 c 0.9959412,-0.1921488 1.9966644,0.00773 2.8517343,0.5696007 0.301723,0.1982619 0.497654,0.3585103 0.776583,0.6351515 0.274302,0.2720521 0.489129,0.5324269 0.698941,0.8471331 0.151192,0.2267806 0.362341,0.6042216 0.352466,0.6300546 -0.0152,0.03975 -0.215906,0.2854 -0.33481,0.409776 -0.666489,0.697159 -1.64186,1.211572 -2.6386857,1.391648 -0.4009888,0.07244 -0.9836313,0.10227 -1.4273569,0.07308 z m 0.7189784,-0.744188 c 0.7575912,-0.04267 1.4299922,-0.251768 2.0574462,-0.639801 0.292481,-0.180877 0.710342,-0.527818 0.710342,-0.589781 0,-0.04942 -0.208141,-0.340658 -0.410059,-0.5737744 -0.200212,-0.2311478 -0.611506,-0.6215775 -0.654794,-0.6215775 -0.02242,0 -0.03058,0.042962 -0.03058,0.1611162 0,0.2244357 -0.08129,0.5437527 -0.198054,0.7779887 -0.2983674,0.59854 -0.8860107,1.002053 -1.5509832,1.065004 C 7.7065842,11.395633 6.8237539,10.761625 6.6038256,9.8268558 6.5773995,9.7145356 6.5655619,9.6135623 6.5595907,9.449535 6.5537308,9.2885679 6.5462376,9.2235791 6.5329499,9.21848 6.4942516,9.2036301 6.0926482,9.5002729 5.8105294,9.7520934 5.5528463,9.9821026 5.094848,10.472092 5.094848,10.517765 c 0,0.03646 0.2449684,0.247777 0.4454752,0.384287 0.1222185,0.08321 0.393764,0.242382 0.5212273,0.305528 0.2270787,0.112496 0.6594346,0.275531 0.8911707,0.336046 0.3407305,0.08898 0.8149534,0.16264 1.1655157,0.181043 0.3027917,0.01589 0.3597351,0.01602 0.6207439,0.0013 z m -0.08162,-1.571096 C 8.8095813,10.119007 8.9256513,10.054959 9.0348833,9.9465686 9.1971084,9.7855933 9.2720904,9.6071051 9.2720904,9.381917 9.2720904,9.0281149 9.0435154,8.7231566 8.7034672,8.6232751 8.5376076,8.5745577 8.2817602,8.5980225 8.1255397,8.6762792 7.7435255,8.867644 7.5820926,9.358206 7.7754646,9.7400859 7.9392287,10.063495 8.308411,10.23714 8.6573608,10.154887 Z"
       id="path1100" />
  </g>
</svg>
