<?xml version="1.0" encoding="UTF-8" standalone="no"?>
<!-- Created with Inkscape (http://www.inkscape.org/) -->

<svg
   width="42"
   height="32"
   viewBox="0 0 11.1125 8.4666669"
   version="1.1"
   id="svg5"
   inkscape:version="1.1 (c68e22c387, 2021-05-23)"
   sodipodi:docname="filter_last.svg"
   xmlns:inkscape="http://www.inkscape.org/namespaces/inkscape"
   xmlns:sodipodi="http://sodipodi.sourceforge.net/DTD/sodipodi-0.dtd"
   xmlns="http://www.w3.org/2000/svg"
   xmlns:svg="http://www.w3.org/2000/svg">
  <sodipodi:namedview
     id="namedview7"
     pagecolor="#ffffff"
     bordercolor="#666666"
     borderopacity="1.0"
     inkscape:pageshadow="2"
     inkscape:pageopacity="0.0"
     inkscape:pagecheckerboard="0"
     inkscape:document-units="mm"
     showgrid="false"
     units="px"
     width="64px"
     inkscape:zoom="6.6721993"
     inkscape:cx="47.960198"
     inkscape:cy="38.742848"
     inkscape:window-width="1600"
     inkscape:window-height="847"
     inkscape:window-x="-8"
     inkscape:window-y="-8"
     inkscape:window-maximized="1"
     inkscape:current-layer="layer1" />
  <defs
     id="defs2" />
  <g
     inkscape:label="Слой 1"
     inkscape:groupmode="layer"
     id="layer1">
    <path
       style="fill:#000000;stroke-width:0.241905"
       d="M 1.8890532,6.4709508 C 0.85350464,5.373308 0.00343893,4.3266654 1.770146e-5,4.1450773 -0.00926861,3.6521701 3.6380745,0 4.1396161,0 c 0.3718176,0 0.93418,0.645311 0.93418,1.071971 0,0.074888 -0.3936665,0.5719008 -0.8748149,1.1044743 l -0.874815,0.9683163 h 3.5061472 c 3.7738036,0 4.1135336,-0.2027067 4.0072886,1.256685 -0.0404,0.5549917 -0.123026,0.5583956 -3.7680916,0.6243764 -2.0289762,0.036727 -3.7978139,-0.090901 -3.7978139,0.01549 0,0.1063906 0.4045702,0.6880504 0.7357407,1.0246154 C 5.3847319,7.4656598 5.135125,7.4162603 4.8318919,7.982857 4.6894821,8.2489525 4.392718,8.4666668 4.1724159,8.4666668 c -0.2203015,0 -1.247815,-0.8980717 -2.2833627,-1.9957143 z"
       id="path1830"
       sodipodi:nodetypes="ssssscssssssss" />
  </g>
</svg>
