<?xml version="1.0" encoding="UTF-8" standalone="no"?>
<!-- Created with Inkscape (http://www.inkscape.org/) -->

<svg
   width="48"
   height="32"
   viewBox="0 0 12.7 8.4666669"
   version="1.1"
   id="svg5"
   inkscape:version="1.1 (c68e22c387, 2021-05-23)"
   sodipodi:docname="filter_random.svg"
   xmlns:inkscape="http://www.inkscape.org/namespaces/inkscape"
   xmlns:sodipodi="http://sodipodi.sourceforge.net/DTD/sodipodi-0.dtd"
   xmlns="http://www.w3.org/2000/svg"
   xmlns:svg="http://www.w3.org/2000/svg">
  <sodipodi:namedview
     id="namedview7"
     pagecolor="#ffffff"
     bordercolor="#666666"
     borderopacity="1.0"
     inkscape:pageshadow="2"
     inkscape:pageopacity="0.0"
     inkscape:pagecheckerboard="0"
     inkscape:document-units="mm"
     showgrid="false"
     units="px"
     width="64px"
     inkscape:zoom="6.6721993"
     inkscape:cx="47.960198"
     inkscape:cy="38.742848"
     inkscape:window-width="1600"
     inkscape:window-height="847"
     inkscape:window-x="-8"
     inkscape:window-y="-8"
     inkscape:window-maximized="1"
     inkscape:current-layer="layer1" />
  <defs
     id="defs2" />
  <g
     inkscape:label="Слой 1"
     inkscape:groupmode="layer"
     id="layer1">
    <path
       style="fill:#000000;stroke-width:0.223801"
       d="M 1.4532578,7.7097052 C 0.83780783,7.2356307 0.33425727,6.74055 0.33425727,6.609526 c 0,-0.2524826 2.16712573,-2.0497284 2.30514513,-1.911709 0.044559,0.044559 -0.031389,0.2910671 -0.168785,0.5477893 -0.2157816,0.4031918 -0.1867898,0.4667682 0.2128557,0.4667682 0.9940173,0 1.9600995,-0.653674 3.0888619,-2.0899978 C 7.0095875,2.0480029 7.6045421,1.6364873 9.2381842,1.2251314 10.204073,0.98191796 10.305825,1.1297921 10.055968,0.41730576 9.8267861,-0.23622251 9.9061971,-0.18739254 11.473904,1.04486 l 1.068639,0.8399736 -1.200875,0.90667 c -1.3431109,1.0140582 -1.6232229,1.1151433 -1.272103,0.4590685 0.210831,-0.3939403 0.170198,-0.4476 -0.3389399,-0.4476 -0.9602629,0 -1.7874001,0.5813044 -2.9720276,2.0887139 C 5.5973374,6.3693615 4.2027148,7.2789756 3.0983999,7.2789756 2.3592958,7.2789756 2.200814,7.4654127 2.486365,7.99897 2.8562448,8.6900956 2.6516437,8.6328086 1.4532578,7.7097052 Z m 8.6084332,0.2553844 c 0.339211,-0.6338208 0.302554,-0.686114 -0.4809669,-0.686114 -0.8159301,0 -2.9474398,-0.9223718 -2.9537864,-1.425621 0,0 0.2318079,-0.3630129 0.4578819,-0.6633757 L 7.4958633,4.643865 8.1091875,5.079945 c 0.3373278,0.2398443 0.9605187,0.4924219 1.3848675,0.5612841 0.701476,0.113835 0.760271,0.082103 0.647425,-0.3494255 -0.06827,-0.2610463 -0.08021,-0.4746298 -0.02654,-0.4746298 0.05367,0 0.626189,0.3943935 1.272263,0.8764289 L 12.561886,6.5700324 11.351339,7.484005 C 10.006373,8.499464 9.7181631,8.6069767 10.061691,7.9650896 Z M 1.1742295,2.7694392 0,1.8483432 1.2841922,0.88766916 C 1.9904977,0.35929796 2.602593,-0.0387965 2.644404,0.00301456 2.6862169,0.04482755 2.6105528,0.28432845 2.4762673,0.53524416 2.2550559,0.94858166 2.3111891,1.0058055 3.0735857,1.1441706 4.0432426,1.320151 5.3107079,2.0367069 5.7735886,2.4145287 6.1232096,2.6999033 5.9251042,2.8339793 5.5062004,3.227519 L 4.9768275,3.724839 4.2221439,3.2647419 C 3.8070673,3.0116885 3.1869633,2.8042688 2.8441348,2.8038089 2.2900808,2.8030476 2.2474318,2.8527143 2.4603586,3.2505721 2.8183574,3.9194983 2.4780519,3.7921932 1.1742295,2.7694392 Z"
       id="path854"
       sodipodi:nodetypes="ssssssssscssssssssssscssssscssscsssssscscss" />
  </g>
</svg>
