<?xml version="1.0" encoding="UTF-8" standalone="no"?>
<!-- Created with Inkscape (http://www.inkscape.org/) -->

<svg
   width="240"
   height="75"
   viewBox="0 0 63.499999 19.84375"
   version="1.1"
   id="svg5"
   inkscape:version="1.2.1 (9c6d41e410, 2022-07-14)"
   sodipodi:docname="finger_pulse_b.svg"
   xmlns:inkscape="http://www.inkscape.org/namespaces/inkscape"
   xmlns:sodipodi="http://sodipodi.sourceforge.net/DTD/sodipodi-0.dtd"
   xmlns="http://www.w3.org/2000/svg"
   xmlns:svg="http://www.w3.org/2000/svg">
  <sodipodi:namedview
     id="namedview7"
     pagecolor="#b8b8b8"
     bordercolor="#666666"
     borderopacity="1.0"
     inkscape:pageshadow="2"
     inkscape:pageopacity="1"
     inkscape:pagecheckerboard="true"
     inkscape:document-units="px"
     showgrid="false"
     units="px"
     inkscape:zoom="1.6680498"
     inkscape:cx="86.92786"
     inkscape:cy="-36.869403"
     inkscape:window-width="2560"
     inkscape:window-height="1351"
     inkscape:window-x="-9"
     inkscape:window-y="-9"
     inkscape:window-maximized="1"
     inkscape:current-layer="layer1"
     showguides="true"
     inkscape:guide-bbox="true"
     inkscape:showpageshadow="0"
     inkscape:deskcolor="#b8b8b8">
    <sodipodi:guide
       position="-1.744802,12.817154"
       orientation="1,0"
       id="guide43449"
       inkscape:locked="false" />
  </sodipodi:namedview>
  <defs
     id="defs2">
    <pattern
       id="EMFhbasepattern"
       patternUnits="userSpaceOnUse"
       width="6"
       height="6"
       x="0"
       y="0" />
    <pattern
       id="EMFhbasepattern-5"
       patternUnits="userSpaceOnUse"
       width="6"
       height="6"
       x="0"
       y="0" />
    <pattern
       id="EMFhbasepattern-2"
       patternUnits="userSpaceOnUse"
       width="6"
       height="6"
       x="0"
       y="0" />
  </defs>
  <g
     inkscape:label="Слой 1"
     inkscape:groupmode="layer"
     id="layer1">
    <path
       style="fill:#000000;fill-opacity:1;stroke:none;stroke-width:0.0070654;stroke-opacity:1"
       d="m 21.092864,14.632374 c -0.09504,-0.02079 -0.180589,-0.06904 -0.252524,-0.142346 -0.07712,-0.07865 -0.124586,-0.181152 -0.138337,-0.299035 -0.0078,-0.06695 -1.225747,-13.0670595 -1.226797,-13.094702 -5.54e-4,-0.014608 -0.0022,-0.014027 -0.0067,0.00421 -0.0034,0.011693 -0.364554,1.7379938 -0.802756,3.8362451 -0.438181,2.098242 -0.804482,3.8404934 -0.813997,3.87166 -0.0239,0.078229 -0.06117,0.1392567 -0.12349,0.201856 -0.06107,0.061365 -0.120891,0.098797 -0.200769,0.1255808 -0.05035,0.016865 -0.06695,0.018868 -0.155023,0.018868 -0.08806,0 -0.104658,-0.00168 -0.15502,-0.018868 -0.07987,-0.026803 -0.139744,-0.064202 -0.20077,-0.1255808 -0.06217,-0.062535 -0.09958,-0.1235786 -0.123557,-0.201856 -0.01416,-0.046167 -0.538858,-2.3319475 -0.538858,-2.3474007 0,-0.00252 -0.146658,0.253525 -0.325886,0.5690401 -0.317057,0.5580789 -0.327346,0.5751103 -0.37908,0.6269638 -0.0614,0.06145 -0.11609,0.1235764 -0.200492,0.1260999 l -0.05643,0.019288 -6.027124,0.00168 L 0,7.8057572 V 7.5117769 7.2177517 l 9.290526,-0.0017 5.952359,-0.0017 0.363866,-0.6411402 0.363857,-0.6411482 0.06317,-0.064118 c 0.05178,-0.052434 0.07413,-0.069376 0.123124,-0.093458 0.08375,-0.041078 0.13679,-0.053681 0.225485,-0.053681 0.08994,5.82e-5 0.152379,0.014103 0.229003,0.051592 0.09625,0.047085 0.183855,0.1353251 0.229303,0.2310602 0.02865,0.060277 0.02257,0.035315 0.292772,1.2196969 0.127318,0.5581704 0.233164,1.0148377 0.23521,1.0148216 0.0022,0 0.368116,-1.7446574 0.813466,-3.8769793 0.445349,-2.1323217 0.817061,-3.91003946 0.826022,-3.95048204 0.0365,-0.16483623 0.130581,-0.2911355 0.266741,-0.35815141 0.06583,-0.03239252 0.120138,-0.04625043 0.2011,-0.05134722 0.20171,-0.01260354 0.389767,0.09391382 0.475265,0.26916258 0.01748,0.0358207 0.0364,0.0839255 0.04226,0.10698409 0.0057,0.0230485 0.288812,3.0123513 0.628926,6.6428678 0.340124,3.6305145 0.619223,6.6001235 0.620219,6.5991125 8.41e-4,-8.41e-4 0.336351,-1.358028 0.745225,-3.015617 0.715344,-2.9000788 0.744639,-3.0163427 0.776215,-3.081086 0.02722,-0.055851 0.04316,-0.077564 0.09338,-0.1281121 0.05001,-0.050346 0.07214,-0.066537 0.127419,-0.094036 0.1162,-0.057683 0.0229,-0.053942 1.335606,-0.054019 l 1.17003,-8.35e-5 0.544234,-0.6688073 c 0.299332,-0.3678461 0.55831,-0.6818392 0.575513,-0.6977767 0.0718,-0.066453 0.169747,-0.1122818 0.274319,-0.1281872 0.130605,-0.019866 0.27797,0.022544 0.386669,0.1113306 0.02302,0.018786 0.08386,0.08783 0.13887,0.1576148 0.05388,0.068297 0.643362,0.3084598 0.55126,0.7015771 l 0.453337,0.5773805 0.455949,0.0017 34.399543,0.0017 v 0.2977981 0.2977911 l -34.463215,-0.00252 c -0.460186,-8.56e-5 -0.524112,-0.0042 -0.558432,-0.014197 -0.06317,-0.019196 -0.162776,-0.073131 -0.204341,-0.110476 -0.02146,-0.019288 -0.272814,-0.3335243 -0.563719,-0.7047498 -0.288724,-0.368437 -0.52723,-0.6700589 -0.530029,-0.6702677 -0.0022,-1.669e-4 -0.239447,0.2873387 -0.525881,0.638995 -0.286445,0.3516554 -0.533071,0.6508402 -0.548064,0.6648663 -0.06085,0.056939 -0.121884,0.1187035 -0.214741,0.121039 l -0.05211,0.016115 -1.166003,0.00344 -1.166003,0.00344 -0.793794,3.2163528 c -0.436587,1.768994 -0.79957,3.233445 -0.806629,3.254333 -0.02135,0.06312 -0.05974,0.121882 -0.119386,0.182294 -0.09614,0.09749 -0.213126,0.144825 -0.355701,0.143889 -0.03673,-2.49e-4 -0.08596,-0.005 -0.109309,-0.0098 z"
       id="path966-8"
       sodipodi:nodetypes="cccscccccscscscccccccccccccccccccscccccccccccccscsccccccccccsssccccccsccccc" />
    <g
       id="g12189"
       transform="matrix(0.76448575,0,0,0.76448575,36.086356,6.6375383)">
      <path
         style="color:#000000;fill:#414141;fill-opacity:1;stroke-width:0.131708;-inkscape-stroke:none"
         d="M 16.150171,12.91817 C 15.79609,12.354664 14.935706,12.460255 14.455067,11.985377 13.923219,11.502982 13.143687,11.460186 12.597655,11.04347 11.961071,10.066686 11.4561,9.0090594 10.858647,8.0061783 10.439834,7.3912347 10.150932,6.654499 9.54274,6.1994166 8.8026205,5.9679771 8.3653419,5.0001161 7.5384136,5.1158372 6.7449317,5.284068 5.8195031,5.3483505 5.2634005,4.6295971 4.0218687,3.3641634 2.9459622,1.9368294 1.603861,0.76822848 1.2752955,0.52046328 1.0239156,0.11995692 0.6177564,0 -0.09470116,0.00127501 -0.10798771,1.0858908 0.16322134,1.5556842 0.65470356,2.346627 1.1945489,3.1202697 1.6541521,3.9368158 2.0598095,4.7262013 2.683344,5.3834844 3.092147,6.1630186 3.3066553,6.7392492 3.1043781,7.367157 3.0648617,7.9554218 2.6092375,8.7074458 1.4619666,8.6811249 1.1007798,9.5792682 0.70525603,10.151349 1.0302351,10.793423 1.5716205,11.118567 c 1.3141501,1.155518 2.710004,2.224008 4.1821484,3.168307 1.4132487,0.717073 3.1203207,0.552554 4.4660201,1.442443 0.704953,0.284856 1.197896,0.979926 1.903689,1.204016 0.126852,-0.03648 4.731205,-3.263139 4.080505,-3.84693"
         id="path6331-4" />
      <path
         style="color:#000000;fill:#ffffff;fill-opacity:1;stroke-width:0.131708;-inkscape-stroke:none"
         d="m 16.144301,13.463501 c -0.03028,0.608241 -3.115207,3.39717 -3.64828,3.13849 C 11.740577,16.155308 10.458123,15.545671 9.7374218,15.033479 8.8821887,14.835057 8.0467816,14.59842 7.1770775,14.486578 5.3939081,14.058208 4.0420431,12.729942 2.6139004,11.664141 2.1216003,11.220707 1.3855468,10.844707 1.3089576,10.118787 1.4152792,9.3206845 2.1787838,8.7436106 2.9364615,8.6145073 3.2634624,8.7116324 3.2844171,9.7187411 3.3369068,8.6982575 3.4126882,7.8728802 3.4677278,7.03629 3.4598518,6.2191411 3.0151717,5.4870374 2.3930616,4.7539738 1.9600907,3.9656147 1.5015958,3.1351683 0.95298113,2.3590165 0.48946544,1.5342922 0.2899841,1.1670719 0.39393778,1.1073165 0.87771892,1.1953079 1.3128082,1.2608983 1.3588999,0.97072887 1.538992,1.0709149 1.930881,1.2889231 2.2302205,1.7254723 2.5996166,2.0318526 2.9209992,2.3159119 3.579378,3.021682 2.7847649,3.1533053 3.2059347,3.1039259 3.6639833,3.1324953 2.9831716,3.3455136 2.4560018,3.8128826 3.858524,3.0419912 3.9350194,3.5993051 c 0.5868696,0.5233175 1.0239124,1.2164267 1.671683,1.6631496 0.7132162,0.4844459 1.5345354,0.067111 2.3042693,0.1744045 0.4529677,0.1505983 0.8276422,1.1087455 0.8925149,1.1245356 0.3817751,-0.8344682 1.0883366,0.4751457 1.3781034,0.887883 0.824744,1.1961286 1.464557,2.5037187 2.153642,3.7770262 0.361364,0.622212 1.19969,0.362083 1.709739,0.791656 0.618391,0.383575 1.175077,0.846352 1.88744,0.981293"
         id="path2100-7-4"
         sodipodi:nodetypes="ccccccccccccsccccccccccc" />
      <path
         style="color:#000000;fill:#535353;fill-opacity:1;stroke-width:0.131708;-inkscape-stroke:none"
         d="M 9.3786958,8.2882832 C 9.5764941,9.196215 10.189582,9.9564136 10.72677,10.687797 10.499057,9.8017326 9.8421933,9.1131351 9.436678,8.3095095 l 0.00164,0.070408 -0.059534,-0.091634 z"
         id="path6341-6" />
      <path
         style="color:#000000;fill:#535353;fill-opacity:1;stroke-width:0.131708;-inkscape-stroke:none"
         d="M 5.9717497,6.5219122 C 5.0509103,6.6453754 6.5070742,7.1139666 6.0942503,6.5498168 Z"
         id="path6339-5" />
      <path
         style="color:#000000;fill:#535353;fill-opacity:1;stroke-width:0.131708;-inkscape-stroke:none"
         d="M 3.3076972,9.1243625 C 3.4706539,9.0088681 2.4681918,8.8106053 2.5404013,8.9922428 3.0695274,9.1348804 3.2666809,9.4583368 2.6497109,9.2383141 2.9048047,9.6252352 3.7521706,10.04766 4.2483366,9.6498557 4.544607,9.2127665 4.0813946,8.5429453 4.0703056,8.0145542 3.9128241,7.4590372 3.7882726,6.6553059 3.4598518,6.219142 3.2940017,6.7757182 4.1886514,7.9968397 3.8466154,8.8468621 2.9533154,9.0061305 4.7876264,9.4639496 3.7831379,9.5813683 3.5212611,9.5606038 3.3842062,9.353273 3.3076999,9.1243607 Z"
         id="path6335-1" />
      <path
         style="color:#000000;fill:#12001a;fill-opacity:0.592783;stroke-width:0.131708;-inkscape-stroke:none"
         d="m 3.3009651,9.0663785 c -0.033405,0.026739 0.049279,0.1254714 0,0 z"
         id="path6333-5" />
      <path
         style="color:#000000;fill:#ffffff;fill-opacity:1;stroke-width:0.131708;-inkscape-stroke:none"
         d="M 0.56351459,0.41557247 C 0.89532959,0.35732256 1.8136171,1.1432209 0.70407755,0.99445778 0.483135,1.0536731 0.08762123,0.442641 0.56351459,0.41557247 Z"
         id="path6337-0"
         sodipodi:nodetypes="ccc" />
    </g>
    <text
       xml:space="preserve"
       style="font-style:normal;font-weight:normal;font-size:3.69508px;line-height:1.25;font-family:sans-serif;fill:#000000;fill-opacity:1;stroke:none;stroke-width:0.0923778"
       x="0.38379654"
       y="-0.31980166"
       id="text17530"><tspan
         sodipodi:role="line"
         id="tspan17528"
         style="fill:#000000;fill-opacity:1;stroke-width:0.0923776"
         x="0.38379654"
         y="-0.31980166" /><tspan
         sodipodi:role="line"
         style="fill:#000000;fill-opacity:1;stroke-width:0.0923776"
         x="0.38379654"
         y="4.2990484"
         id="tspan19636">Zeitgeist</tspan><tspan
         sodipodi:role="line"
         style="fill:#000000;fill-opacity:1;stroke-width:0.0923776"
         x="0.38379654"
         y="8.9178991"
         id="tspan17534" /></text>
    <text
       xml:space="preserve"
       style="font-style:normal;font-weight:normal;font-size:3.70517px;line-height:1.25;font-family:sans-serif;fill:#000000;fill-opacity:1;stroke:none;stroke-width:0.0926294"
       x="0.29213017"
       y="12.117024"
       id="text36350"
       transform="scale(0.99315025,1.006897)"><tspan
         sodipodi:role="line"
         id="tspan36348"
         style="fill:#000000;fill-opacity:1;stroke-width:0.0926292"
         x="0.29213017"
         y="12.117024">Reviews</tspan><tspan
         sodipodi:role="line"
         style="fill:#000000;fill-opacity:1;stroke-width:0.0926292"
         x="0.29213017"
         y="16.748487"
         id="tspan36352" /></text>
    <text
       xml:space="preserve"
       style="font-style:normal;font-weight:normal;font-size:2.84913px;line-height:1.25;font-family:sans-serif;fill:#000000;fill-opacity:1;stroke:none;stroke-width:0.0712284"
       x="22.992811"
       y="4.3155046"
       id="text38783"><tspan
         sodipodi:role="line"
         id="tspan38781"
         style="fill:#000000;fill-opacity:1;stroke-width:0.0712284"
         x="22.992811"
         y="4.3155046">What's the world <tspan
   style="font-style:italic;font-variant:normal;font-weight:normal;font-stretch:normal;font-family:sans-serif;-inkscape-font-specification:'sans-serif Italic';fill:#000000;fill-opacity:1"
   id="tspan12291">really</tspan> think?</tspan></text>
  </g>
</svg>
