<?xml version="1.0" encoding="UTF-8" standalone="no"?>
<!-- Created with Inkscape (http://www.inkscape.org/) -->

<svg
   width="48"
   height="48"
   viewBox="0 0 12.7 12.7"
   version="1.1"
   id="svg5"
   inkscape:version="1.1 (c68e22c387, 2021-05-23)"
   sodipodi:docname="finger.svg"
   xmlns:inkscape="http://www.inkscape.org/namespaces/inkscape"
   xmlns:sodipodi="http://sodipodi.sourceforge.net/DTD/sodipodi-0.dtd"
   xmlns="http://www.w3.org/2000/svg"
   xmlns:svg="http://www.w3.org/2000/svg">
  <sodipodi:namedview
     id="namedview7"
     pagecolor="#ffffff"
     bordercolor="#666666"
     borderopacity="1.0"
     inkscape:pageshadow="2"
     inkscape:pageopacity="0.0"
     inkscape:pagecheckerboard="true"
     inkscape:document-units="px"
     showgrid="false"
     units="px"
     inkscape:zoom="4.7179573"
     inkscape:cx="49.38578"
     inkscape:cy="42.073293"
     inkscape:window-width="1600"
     inkscape:window-height="847"
     inkscape:window-x="-8"
     inkscape:window-y="-8"
     inkscape:window-maximized="1"
     inkscape:current-layer="layer1" />
  <defs
     id="defs2">
    <pattern
       id="EMFhbasepattern"
       patternUnits="userSpaceOnUse"
       width="6"
       height="6"
       x="0"
       y="0" />
    <pattern
       id="EMFhbasepattern-5"
       patternUnits="userSpaceOnUse"
       width="6"
       height="6"
       x="0"
       y="0" />
  </defs>
  <g
     inkscape:label="Слой 1"
     inkscape:groupmode="layer"
     id="layer1">
    <g
       id="g12189"
       transform="scale(0.75000002)">
      <path
         style="color:#000000;fill:#414141;fill-opacity:1;stroke-width:0.131708;-inkscape-stroke:none"
         d="M 16.150171,12.91817 C 15.79609,12.354664 14.935706,12.460255 14.455067,11.985377 13.923219,11.502982 13.143687,11.460186 12.597655,11.04347 11.961071,10.066686 11.4561,9.0090594 10.858647,8.0061783 10.439834,7.3912347 10.150932,6.654499 9.54274,6.1994166 8.8026205,5.9679771 8.3653419,5.0001161 7.5384136,5.1158372 6.7449317,5.284068 5.8195031,5.3483505 5.2634005,4.6295971 4.0218687,3.3641634 2.9459622,1.9368294 1.603861,0.76822848 1.2752955,0.52046328 1.0239156,0.11995692 0.6177564,0 -0.09470116,0.00127501 -0.10798771,1.0858908 0.16322134,1.5556842 0.65470356,2.346627 1.1945489,3.1202697 1.6541521,3.9368158 2.0598095,4.7262013 2.683344,5.3834844 3.092147,6.1630186 3.3066553,6.7392492 3.1043781,7.367157 3.0648617,7.9554218 2.6092375,8.7074458 1.4619666,8.6811249 1.1007798,9.5792682 0.70525603,10.151349 1.0302351,10.793423 1.5716205,11.118567 c 1.3141501,1.155518 2.710004,2.224008 4.1821484,3.168307 1.4132487,0.717073 3.1203207,0.552554 4.4660201,1.442443 0.704953,0.284856 1.197896,0.979926 1.903689,1.204016 0.126852,-0.03648 4.731205,-3.263139 4.080505,-3.84693"
         id="path6331" />
      <path
         style="color:#000000;fill:#ffffff;fill-opacity:1;stroke-width:0.131708;-inkscape-stroke:none"
         d="m 16.144301,13.463501 c -0.03028,0.608241 -3.115207,3.39717 -3.64828,3.13849 C 11.740577,16.155308 10.458123,15.545671 9.7374218,15.033479 8.8821887,14.835057 8.0467816,14.59842 7.1770775,14.486578 5.3939081,14.058208 4.0420431,12.729942 2.6139004,11.664141 2.1216003,11.220707 1.3855468,10.844707 1.3089576,10.118787 1.4152792,9.3206845 2.1787838,8.7436106 2.9364615,8.6145073 3.2634624,8.7116324 3.2844171,9.7187411 3.3369068,8.6982575 3.4126882,7.8728802 3.4677278,7.03629 3.4598518,6.2191411 3.0151717,5.4870374 2.3930616,4.7539738 1.9600907,3.9656147 1.5015958,3.1351683 0.95298113,2.3590165 0.48946544,1.5342922 0.2899841,1.1670719 0.39393778,1.1073165 0.87771892,1.1953079 1.3128082,1.2608983 1.3588999,0.97072887 1.538992,1.0709149 1.930881,1.2889231 2.2302205,1.7254723 2.5996166,2.0318526 2.9209992,2.3159119 3.579378,3.021682 2.7847649,3.1533053 3.2059347,3.1039259 3.6639833,3.1324953 2.9831716,3.3455136 2.4560018,3.8128826 3.858524,3.0419912 3.9350194,3.5993051 c 0.5868696,0.5233175 1.0239124,1.2164267 1.671683,1.6631496 0.7132162,0.4844459 1.5345354,0.067111 2.3042693,0.1744045 0.4529677,0.1505983 0.8276422,1.1087455 0.8925149,1.1245356 0.3817751,-0.8344682 1.0883366,0.4751457 1.3781034,0.887883 0.824744,1.1961286 1.464557,2.5037187 2.153642,3.7770262 0.361364,0.622212 1.19969,0.362083 1.709739,0.791656 0.618391,0.383575 1.175077,0.846352 1.88744,0.981293"
         id="path2100-7"
         sodipodi:nodetypes="ccccccccccccsccccccccccc" />
      <path
         style="color:#000000;fill:#535353;fill-opacity:1;stroke-width:0.131708;-inkscape-stroke:none"
         d="M 9.3786958,8.2882832 C 9.5764941,9.196215 10.189582,9.9564136 10.72677,10.687797 10.499057,9.8017326 9.8421933,9.1131351 9.436678,8.3095095 l 0.00164,0.070408 -0.059534,-0.091634 z"
         id="path6341" />
      <path
         style="color:#000000;fill:#535353;fill-opacity:1;stroke-width:0.131708;-inkscape-stroke:none"
         d="M 5.9717497,6.5219122 C 5.0509103,6.6453754 6.5070742,7.1139666 6.0942503,6.5498168 Z"
         id="path6339" />
      <path
         style="color:#000000;fill:#535353;fill-opacity:1;stroke-width:0.131708;-inkscape-stroke:none"
         d="M 3.3076972,9.1243625 C 3.4706539,9.0088681 2.4681918,8.8106053 2.5404013,8.9922428 3.0695274,9.1348804 3.2666809,9.4583368 2.6497109,9.2383141 2.9048047,9.6252352 3.7521706,10.04766 4.2483366,9.6498557 4.544607,9.2127665 4.0813946,8.5429453 4.0703056,8.0145542 3.9128241,7.4590372 3.7882726,6.6553059 3.4598518,6.219142 3.2940017,6.7757182 4.1886514,7.9968397 3.8466154,8.8468621 2.9533154,9.0061305 4.7876264,9.4639496 3.7831379,9.5813683 3.5212611,9.5606038 3.3842062,9.353273 3.3076999,9.1243607 Z"
         id="path6335" />
      <path
         style="color:#000000;fill:#12001a;fill-opacity:0.592783;stroke-width:0.131708;-inkscape-stroke:none"
         d="m 3.3009651,9.0663785 c -0.033405,0.026739 0.049279,0.1254714 0,0 z"
         id="path6333" />
      <path
         style="color:#000000;fill:#ffffff;fill-opacity:1;stroke-width:0.131708;-inkscape-stroke:none"
         d="M 0.56351459,0.41557247 C 0.89532959,0.35732256 1.8136171,1.1432209 0.70407755,0.99445778 0.483135,1.0536731 0.08762123,0.442641 0.56351459,0.41557247 Z"
         id="path6337"
         sodipodi:nodetypes="ccc" />
    </g>
  </g>
</svg>
