<?xml version="1.0" encoding="UTF-8" standalone="no"?>
<!-- Created with Inkscape (http://www.inkscape.org/) -->

<svg
   width="32"
   height="32"
   viewBox="0 0 8.4666665 8.4666669"
   version="1.1"
   id="svg5"
   inkscape:version="1.1 (c68e22c387, 2021-05-23)"
   sodipodi:docname="game.svg"
   xmlns:inkscape="http://www.inkscape.org/namespaces/inkscape"
   xmlns:sodipodi="http://sodipodi.sourceforge.net/DTD/sodipodi-0.dtd"
   xmlns="http://www.w3.org/2000/svg"
   xmlns:svg="http://www.w3.org/2000/svg">
  <sodipodi:namedview
     id="namedview7"
     pagecolor="#ffffff"
     bordercolor="#666666"
     borderopacity="1.0"
     inkscape:pageshadow="2"
     inkscape:pageopacity="0.0"
     inkscape:pagecheckerboard="0"
     inkscape:document-units="mm"
     showgrid="false"
     units="px"
     width="32px"
     inkscape:zoom="13.142821"
     inkscape:cx="7.7608906"
     inkscape:cy="24.081587"
     inkscape:window-width="1600"
     inkscape:window-height="837"
     inkscape:window-x="1912"
     inkscape:window-y="174"
     inkscape:window-maximized="1"
     inkscape:current-layer="layer1" />
  <defs
     id="defs2" />
  <g
     inkscape:label="Слой 1"
     inkscape:groupmode="layer"
     id="layer1">
    <path
       style="fill:#000000;stroke-width:0.00864307"
       d="m 0.98816828,7.034211 c -0.0996,-0.007 -0.12862,-0.0127 -0.242,-0.0495 -0.24868,-0.0805 -0.45002,-0.23269 -0.58998,-0.44585 -0.15854,-0.24143 -0.18382,-0.41939 -0.13165,-0.92667 0.0851,-0.82774 0.22147,-1.51694 0.42065,-2.12619 0.22213,-0.67948 0.4978,-1.28474 0.72037002,-1.58168 0.14104,-0.18816 0.33788,-0.37701 0.4764,-0.45706 0.19067,-0.11019 0.81954,-0.24176 1.14963,-0.24052 0.37904,10e-4 0.58424,0.0589 0.74521,0.20889 0.0806,0.0751 0.12515,0.14857 0.20449,0.33743 l 0.049,0.11669 0.0423,0.008 c 0.0554,0.01 0.74697,0.01 0.80282,-10e-5 l 0.0431,-0.008 0.053,-0.13136 c 0.0881,-0.21824 0.17334,-0.33148 0.30983,-0.41138 0.2059,-0.12053 0.56567,-0.14958 1.02889,-0.0831 0.37702,0.0541 0.64983,0.13472 0.80642,0.23825 0.0961,0.0635 0.32793,0.29358 0.41913,0.41588 0.34409,0.46148 0.75396,1.51239 0.95143,2.43948 0.13829,0.64928 0.24608,1.55825 0.21355,1.80091 -0.0281,0.20982 -0.13118,0.413 -0.29003,0.57185 -0.0906,0.0906 -0.18981,0.15933 -0.31645,0.2192 -0.19384,0.0916 -0.2759,0.10757 -0.53081,0.10314 l -0.1815,-0.003 -0.0951,-0.033 c -0.40543,-0.14065 -0.608,-0.32989 -1.16708,-1.09024 -0.38668,-0.5259 -0.43996,-0.59305 -0.51363,-0.64728 -0.30022,-0.22101 -0.9463,-0.32172 -1.55521,-0.24241 -0.34491,0.0449 -0.65794,0.16673 -0.77749,0.30254 -0.0549,0.0624 -0.20332,0.257 -0.43787,0.57418 -0.5586,0.7554 -0.75282,0.94468 -1.1029,1.07484 -0.17543,0.0652 -0.29328,0.0807 -0.50461002,0.0662 z M 1.2172883,6.528371 c 0.15422,-0.0324 0.29835,-0.12002 0.45417,-0.27598 0.11568,-0.11579 0.24231,-0.27627 0.58697,-0.74388 0.39182,-0.53161 0.43392,-0.58053 0.58759,-0.68278 0.24284,-0.16158 0.62214,-0.28527 0.96844,-0.31581 0.1444,-0.0127 0.68259,-0.0128 0.83369,-1e-4 0.43155,0.0363 0.87416,0.20682 1.11486,0.42958 0.0627,0.058 0.0951,0.10004 0.60528,0.78518 0.37719,0.50653 0.50548,0.64056 0.71371,0.74568 0.10383,0.0524 0.16867,0.0668 0.29772,0.0662 0.10228,-5e-4 0.12522,-0.003 0.18583,-0.0236 0.098,-0.0326 0.17142,-0.0783 0.24626,-0.15328 0.0706,-0.0708 0.11116,-0.13244 0.13952,-0.21212 0.0168,-0.0473 0.0179,-0.0632 0.0133,-0.20685 -0.0134,-0.42181 -0.14868,-1.3047 -0.27765,-1.81241 -0.0681,-0.26814 -0.17414,-0.59713 -0.28771,-0.89273 -0.30751,-0.80035 -0.56856,-1.22476 -0.83415,-1.35612 -0.11746,-0.0581 -0.3878,-0.12103 -0.67632,-0.15747 -0.14982,-0.0189 -0.39374,-0.0195 -0.47657,-10e-4 -0.12938,0.0287 -0.15112,0.052 -0.24895,0.26663 -0.0638,0.14007 -0.11803,0.2251 -0.17597,0.2761 -0.0442,0.0389 -0.12305,0.0786 -0.18657,0.0939 -0.14975,0.0361 -1.00834,0.0333 -1.14979,-0.004 -0.14968,-0.0392 -0.25322,-0.14508 -0.34215,-0.34994 -0.0532,-0.12255 -0.10296,-0.21426 -0.12609,-0.23246 -0.0882,-0.0694 -0.35476,-0.0874 -0.64742,-0.0439 -0.37485,0.0558 -0.57468,0.11101 -0.70625,0.19522 -0.24694,0.15805 -0.54141,0.68989 -0.83452002,1.50722 -0.19842,0.55331 -0.31164,1.03191 -0.41609,1.75886 -0.053,0.36864 -0.0721,0.5678 -0.0732,0.76108 l -0.001,0.18199 0.0382,0.0773 c 0.0675,0.1365 0.20374,0.25329 0.35138,0.30115 0.10186,0.033 0.22102002,0.0397 0.32354002,0.0182 z m 4.59825,-2.04064 c -0.0906,-0.0243 -0.18534,-0.0969 -0.227,-0.17392 -0.0393,-0.0726 -0.052,-0.13335 -0.0483,-0.23037 0.003,-0.0763 0.007,-0.0949 0.0308,-0.14602 0.058,-0.12355 0.18829,-0.21282 0.32176,-0.22055 0.11565,-0.007 0.21278,0.026 0.29405,0.0991 0.10982,0.0987 0.15591,0.23361 0.12687,0.37123 -0.0309,0.14655 -0.12767,0.25501 -0.26581,0.29801 -0.0633,0.0197 -0.16434,0.0208 -0.23236,0.003 z m 0.18098,-0.24759 c 0.0478,-0.0245 0.0695,-0.0637 0.0695,-0.12554 0,-0.064 -0.0239,-0.1076 -0.0716,-0.13068 -0.0487,-0.0236 -0.0894,-0.023 -0.13665,0.002 -0.11248,0.0593 -0.0981,0.21772 0.0238,0.26116 0.0472,0.0168 0.0718,0.0154 0.11503,-0.007 z m -3.86703,0.13099 c -0.0188,-0.005 -0.0417,-0.015 -0.0509,-0.0232 -0.0363,-0.0323 -0.0403,-0.0601 -0.0403,-0.28239 v -0.21187 l -0.0194,-0.004 c -0.0107,-0.002 -0.10989,-0.006 -0.22044,-0.009 -0.14152,-0.003 -0.20941,-0.008 -0.22944,-0.0167 -0.0367,-0.0154 -0.073,-0.0588 -0.0799,-0.0957 -0.003,-0.016 -0.004,-0.14325 -0.002,-0.2828 0.004,-0.28593 0.008,-0.31023 0.0579,-0.33923 0.0256,-0.0149 0.0527,-0.0181 0.20311,-0.0237 0.0954,-0.004 0.19735,-0.007 0.22645,-0.007 l 0.0529,-5.6e-4 0.004,-0.21841 c 0.004,-0.25098 0.009,-0.27161 0.0719,-0.30395 0.0316,-0.0163 0.0527,-0.0181 0.24321,-0.0208 0.21819,-0.003 0.33917,0.006 0.38303,0.0287 0.0143,0.007 0.0322,0.0253 0.0397,0.0399 0.0155,0.0299 0.0294,0.20643 0.0297,0.37671 l 1.9e-4,0.10524 0.22256,0.003 c 0.25525,0.003 0.2656,0.006 0.29184,0.0695 0.0126,0.0307 0.0159,0.0725 0.0193,0.2445 0.005,0.23346 -0.005,0.35865 -0.0308,0.39307 -0.0278,0.0375 -0.068,0.0446 -0.28399,0.0498 -0.11018,0.003 -0.20424,0.007 -0.20903,0.0102 -0.005,0.003 -0.012,0.0933 -0.0167,0.21698 -0.009,0.23659 -0.0151,0.26442 -0.0637,0.29097 -0.0258,0.0141 -0.0559,0.0159 -0.2967,0.0173 -0.14737,8.6e-4 -0.2833,-0.002 -0.30208,-0.007 z m 0.41186,-0.47394 c 0.002,-0.21219 0.004,-0.2254 0.0208,-0.24849 0.01,-0.0134 0.0314,-0.0322 0.0475,-0.0417 0.0268,-0.0158 0.0479,-0.0175 0.24759,-0.0202 l 0.21823,-0.003 v -0.12824 -0.12824 l -0.2241,-0.003 c -0.24668,-0.003 -0.24514,-0.003 -0.28963,-0.0623 -0.0168,-0.0224 -0.018,-0.0373 -0.0204,-0.24795 l -0.003,-0.22411 h -0.13355 -0.13356 v 0.2159 c 0,0.33 0.0154,0.31431 -0.31331,0.31846 l -0.22256,0.003 v 0.12814 0.12814 l 0.21823,0.003 c 0.21386,0.003 0.219,0.003 0.25582,0.0245 0.0608,0.0347 0.0618,0.0395 0.0618,0.28917 v 0.22083 h 0.13356 0.13355 z m 2.60072,-0.057 c -0.19181,-0.0539 -0.31916,-0.25213 -0.287,-0.44684 0.0286,-0.17338 0.15456,-0.29738 0.32425,-0.31928 0.21239,-0.0274 0.38287,0.0711 0.43823,0.25339 0.024,0.0789 0.02,0.20275 -0.009,0.2773 -0.0397,0.10251 -0.1217,0.18371 -0.22591,0.22381 -0.0621,0.0239 -0.17713,0.0295 -0.24067,0.0116 z m 0.17209,-0.25353 c 0.078,-0.0415 0.10137,-0.15165 0.046,-0.21742 -0.0316,-0.0376 -0.069,-0.0543 -0.12141,-0.0543 -0.0566,0 -0.0992,0.0264 -0.12367,0.0765 -0.0224,0.0459 -0.0217,0.0862 0.002,0.1337 0.0353,0.0699 0.12703,0.0985 0.19676,0.0615 z m 1.16507,0.25395 c -0.11218,-0.0309 -0.20417,-0.10647 -0.25514,-0.2096 -0.0285,-0.0577 -0.0325,-0.0738 -0.0356,-0.14477 -0.006,-0.13148 0.0309,-0.22621 0.1205,-0.3117 0.0929,-0.0886 0.21798,-0.12456 0.34809,-0.10015 0.14456,0.0271 0.26495,0.13861 0.30351,0.28108 0.0369,0.13637 -0.004,0.28444 -0.10626,0.38422 -0.0524,0.0512 -0.1205,0.0897 -0.18436,0.10446 -0.0511,0.0118 -0.14124,0.0101 -0.19077,-0.004 z m 0.18107,-0.26091 c 0.0413,-0.0306 0.0626,-0.0704 0.0626,-0.11704 0,-0.0497 -0.0151,-0.0827 -0.0519,-0.11371 -0.0621,-0.0522 -0.13717,-0.0493 -0.19412,0.008 -0.0689,0.0689 -0.0545,0.18385 0.0287,0.22907 0.0414,0.0225 0.12048,0.0195 0.15484,-0.006 z m -0.82117,-0.38399 c -0.10038,-0.0237 -0.22484,-0.12405 -0.26833,-0.21642 -0.0527,-0.11203 -0.0503,-0.23516 0.007,-0.35123 0.0759,-0.15359 0.23349,-0.23617 0.40107,-0.21017 0.14545,0.0226 0.23705,0.0855 0.29665,0.20378 0.0682,0.13533 0.0657,0.24484 -0.009,0.38722 -0.035,0.067 -0.0742,0.10412 -0.15145,0.14332 -0.0958,0.0486 -0.19103,0.0636 -0.27637,0.0435 z m 0.15536,-0.25825 c 0.0515,-0.0234 0.0714,-0.0596 0.0714,-0.12996 0,-0.0712 -0.0199,-0.10689 -0.0729,-0.1303 -0.0663,-0.0293 -0.0823,-0.0291 -0.13371,0.002 -0.0791,0.0483 -0.10128,0.12662 -0.0572,0.2018 0.0388,0.0663 0.11867,0.0896 0.19236,0.0561 z"
       id="path1179" />
  </g>
</svg>
