<?xml version="1.0" encoding="UTF-8" standalone="no"?>
<!-- Created with Inkscape (http://www.inkscape.org/) -->

<svg
   width="16"
   height="16"
   viewBox="0 0 4.2333332 4.2333335"
   version="1.1"
   id="svg5"
   inkscape:version="1.1 (c68e22c387, 2021-05-23)"
   sodipodi:docname="graph_b.svg"
   xmlns:inkscape="http://www.inkscape.org/namespaces/inkscape"
   xmlns:sodipodi="http://sodipodi.sourceforge.net/DTD/sodipodi-0.dtd"
   xmlns="http://www.w3.org/2000/svg"
   xmlns:svg="http://www.w3.org/2000/svg">
  <sodipodi:namedview
     id="namedview7"
     pagecolor="#ffffff"
     bordercolor="#666666"
     borderopacity="1.0"
     inkscape:pageshadow="2"
     inkscape:pageopacity="0.0"
     inkscape:pagecheckerboard="0"
     inkscape:document-units="mm"
     showgrid="false"
     units="px"
     width="16px"
     inkscape:zoom="18.586756"
     inkscape:cx="10.007126"
     inkscape:cy="12.885519"
     inkscape:window-width="1600"
     inkscape:window-height="837"
     inkscape:window-x="-8"
     inkscape:window-y="-8"
     inkscape:window-maximized="1"
     inkscape:current-layer="layer1" />
  <defs
     id="defs2">
    <pattern
       id="EMFhbasepattern"
       patternUnits="userSpaceOnUse"
       width="6"
       height="6"
       x="0"
       y="0" />
    <pattern
       id="EMFhbasepattern-1"
       patternUnits="userSpaceOnUse"
       width="6"
       height="6"
       x="0"
       y="0" />
  </defs>
  <g
     inkscape:label="Слой 1"
     inkscape:groupmode="layer"
     id="layer1">
    <path
       style="fill:#000000;stroke-width:0.00495652;fill-opacity:1"
       d="M 2.023517,4.1052704 C 1.4068717,4.0670875 0.8480775,3.7476289 0.50326278,3.2361522 0.32173541,2.9668857 0.20476222,2.6421334 0.1704758,2.3122368 0.16214665,2.2321432 0.16220285,2.025105 0.17057629,1.9421739 0.20492701,1.6017537 0.31632911,1.2934857 0.50805019,1.0083238 0.81184341,0.55646799 1.297819,0.24835642 1.8429839,0.1619675 1.9141319,0.1506934 2.0605984,0.1362663 2.0667806,0.1399239 c 0.00205,0.001203 0.00371,0.47202712 0.00371,1.0462669 v 1.0440724 l 0.6886998,0.6919635 0.6887005,0.6919635 -0.014837,0.012475 C 3.3971999,3.6568105 3.2846651,3.7397109 3.2302764,3.7760443 2.9840693,3.9405181 2.7323867,4.0387599 2.4389509,4.0849304 2.313005,4.1047473 2.146627,4.1128932 2.023517,4.1052704 Z M 2.297996,3.837065 C 2.426852,3.827275 2.6168864,3.782794 2.7480624,3.7317153 2.8433994,3.6945923 3.0270559,3.6036272 3.0318142,3.5911733 3.0331342,3.5877333 3.0217542,3.5695973 3.0065412,3.5508643 2.9913274,3.5321309 2.715462,3.2517726 2.3935068,2.9278453 L 1.8081334,2.3388867 1.8049588,1.38667 c -0.00289,-0.86586594 -0.00389,-0.95199577 -0.011016,-0.94978095 -0.00432,0.001338 -0.034545,0.009296 -0.067187,0.0176879 C 1.4171686,0.5341389 1.148487,0.68842028 0.9243663,0.91532183 0.67214693,1.1706707 0.50872057,1.4901474 0.44863603,1.8453114 0.43278592,1.9390025 0.42680714,2.04483 0.43025682,2.1706688 c 0.005137,0.1874243 0.0279898,0.3266253 0.0807343,0.4917614 0.11872333,0.3717091 0.38921327,0.7127731 0.73862677,0.9313434 0.058704,0.036721 0.1890626,0.1030027 0.2496326,0.1269271 0.1507792,0.059555 0.3408482,0.1064895 0.4698495,0.1160217 0.080538,0.00595 0.252706,0.00613 0.3288947,3.423e-4 z M 2.8877808,2.8574743 c -0.359744,-0.3613585 -0.65408,-0.6586889 -0.65408,-0.660734 0,-0.00495 1.8781356,-0.00482 1.8811757,1.192e-4 0.0013,0.00211 -0.00175,0.044022 -0.00678,0.093137 -0.027934,0.2731373 -0.092334,0.501578 -0.2050081,0.72722 -0.073992,0.1481781 -0.196742,0.3263429 -0.3117381,0.4524723 -0.021135,0.023181 -0.040917,0.042745 -0.04396,0.043475 C 3.5443502,3.5138931 3.2475248,3.218833 2.8877808,2.8574743 Z M 2.2098244,1.1004659 c 0.00107,-0.62717678 0.00332,-0.95504205 0.00656,-0.95806021 0.00939,-0.008711 0.2298821,0.018414 0.3363133,0.0413647 0.637634,0.13749798 1.1844555,0.60314604 1.4232821,1.21200151 0.068503,0.1746375 0.1083048,0.3416336 0.1296395,0.5439179 0.00418,0.039615 0.00881,0.081526 0.010308,0.093137 l 0.00271,0.021111 H 3.1634273 2.208204 Z"
       id="path1394" />
  </g>
</svg>
