<?xml version="1.0" encoding="UTF-8" standalone="no"?>
<svg
   height="48"
   viewBox="-21 -47 36.035191 36.000001"
   width="48"
   version="1.1"
   id="svg10"
   sodipodi:docname="heart_filled.svg"
   inkscape:version="1.2.1 (9c6d41e410, 2022-07-14)"
   xml:space="preserve"
   xmlns:inkscape="http://www.inkscape.org/namespaces/inkscape"
   xmlns:sodipodi="http://sodipodi.sourceforge.net/DTD/sodipodi-0.dtd"
   xmlns="http://www.w3.org/2000/svg"
   xmlns:svg="http://www.w3.org/2000/svg"><defs
     id="defs14" /><sodipodi:namedview
     id="namedview12"
     pagecolor="#ffffff"
     bordercolor="#666666"
     borderopacity="1.0"
     inkscape:pageshadow="2"
     inkscape:pageopacity="0.0"
     inkscape:pagecheckerboard="0"
     inkscape:document-units="pt"
     showgrid="false"
     units="px"
     inkscape:zoom="11.472141"
     inkscape:cx="36.305342"
     inkscape:cy="29.24476"
     inkscape:window-width="2560"
     inkscape:window-height="1351"
     inkscape:window-x="-9"
     inkscape:window-y="-9"
     inkscape:window-maximized="1"
     inkscape:current-layer="svg10"
     inkscape:showpageshadow="0"
     inkscape:deskcolor="#d1d1d1" /><path
     style="fill:#ffffff;stroke-width:0.0423429"
     d="m -4.0107031,-16.005843 c -0.5239936,-0.263691 -1.1409385,-0.58734 -1.3709863,-0.719221 -0.2300508,-0.131879 -0.4246856,-0.239782 -0.4325269,-0.239782 -0.00781,0 -0.1870818,-0.104799 -0.3983164,-0.232886 -0.2112357,-0.128086 -0.3936931,-0.232886 -0.4054606,-0.232886 -0.011782,0 -0.073024,-0.03584 -0.1361264,-0.07964 -0.063099,-0.04381 -0.3529068,-0.227607 -0.6440142,-0.408453 -1.5772599,-0.979848 -3.7067451,-2.550453 -4.8464201,-3.574484 -0.625564,-0.562086 -1.535407,-1.443781 -1.939939,-1.879918 -2.78992,-3.007893 -4.233961,-5.967745 -4.426538,-9.073068 -0.204954,-3.304937 1.207824,-6.389506 3.802898,-8.30301 1.067026,-0.786782 2.265116,-1.312384 3.662657,-1.606809 0.522235,-0.110022 0.610155,-0.116022 1.7148862,-0.11702 1.240925,-0.001 1.407344,0.01678 2.3476573,0.252453 1.3681429,0.342914 2.6708239,1.031392 3.7796931,1.997605 0.1678638,0.14627 0.316336,0.265942 0.3299331,0.265942 0.013608,0 0.1620724,-0.119672 0.3299372,-0.265942 1.1794893,-1.027747 2.54113441,-1.722303 4.0313782,-2.056355 0.831091,-0.186295 0.9492587,-0.197155 2.1171427,-0.194605 1.0776108,0.0023 1.1748678,0.0091 1.6937154,0.118193 3.8510275,0.809406 6.6293088,3.684336 7.3511568,7.606881 0.107135,0.582169 0.150539,1.949899 0.08452,2.663246 -0.398378,4.304382 -3.2926651,8.464968 -8.6728382,12.467358 -0.8576185,0.637995 -2.5940523,1.784223 -3.51645369,2.321226 -1.3402544,0.780271 -3.26044771,1.772566 -3.42749761,1.771222 -0.041657,-2.58e-4 -0.504464,-0.216357 -1.0284546,-0.480047 z"
     id="path1889"
     sodipodi:nodetypes="ssssscssssssccsscsccscsscss" /></svg>
