<?xml version="1.0" encoding="UTF-8" standalone="no"?>
<!-- Created with Inkscape (http://www.inkscape.org/) -->

<svg
   width="32"
   height="32"
   viewBox="0 0 8.4666665 8.4666666"
   version="1.1"
   id="svg1913"
   xml:space="preserve"
   inkscape:version="1.2.1 (9c6d41e410, 2022-07-14)"
   sodipodi:docname="home.svg"
   xmlns:inkscape="http://www.inkscape.org/namespaces/inkscape"
   xmlns:sodipodi="http://sodipodi.sourceforge.net/DTD/sodipodi-0.dtd"
   xmlns="http://www.w3.org/2000/svg"
   xmlns:svg="http://www.w3.org/2000/svg"><sodipodi:namedview
     id="namedview1915"
     pagecolor="#505050"
     bordercolor="#ffffff"
     borderopacity="1"
     inkscape:showpageshadow="0"
     inkscape:pageopacity="0"
     inkscape:pagecheckerboard="1"
     inkscape:deskcolor="#505050"
     inkscape:document-units="mm"
     showgrid="false"
     inkscape:zoom="29.276992"
     inkscape:cx="15.899857"
     inkscape:cy="16.75377"
     inkscape:window-width="2560"
     inkscape:window-height="1351"
     inkscape:window-x="-9"
     inkscape:window-y="1341"
     inkscape:window-maximized="1"
     inkscape:current-layer="layer1" /><defs
     id="defs1910" /><g
     inkscape:label="Слой 1"
     inkscape:groupmode="layer"
     id="layer1"><path
       style="fill:#000000;stroke-width:0.0168391"
       d="m 0.26946613,8.4156274 c -0.1111981,-0.0251 -0.227944,-0.148349 -0.2538535,-0.268 -0.0146820037,-0.0678 -0.018221,-0.696223 -0.013885,-2.465316 0.00644,-2.629128 -0.002370004,-2.42633 0.115885,-2.666539 0.1027957,-0.208808 0.1554458,-0.250212 2.10322117,-1.653974 1.0048768,-0.72421498 1.8514327,-1.32709298 1.8812351,-1.33972898 0.069516,-0.02947 0.1924741,-0.02942 0.2631607,1.15e-4 0.030392,0.0127 0.8769481,0.615354 1.8812354,1.33923498 1.9486614,1.404576 1.9984884,1.443789 2.1021493,1.654353 0.1184843,0.240676 0.1096409,0.0349 0.11526,2.682061 0.00575,2.710018 0.016692,2.492757 -0.1322574,2.626676 -0.062772,0.05644 -0.1057243,0.07979 -0.1721121,0.09357 -0.060879,0.01264 -0.5293201,0.01691 -1.5022533,0.01369 l -1.4137886,-0.0047 -0.080363,-0.04724 c -0.0442,-0.02598 -0.101032,-0.07846 -0.1262938,-0.116613 l -0.045931,-0.06938 -0.00849,-0.994771 c -0.00817,-0.958038 -0.00979,-0.998191 -0.043753,-1.087386 -0.048918,-0.128468 -0.093032,-0.196073 -0.1957319,-0.299957 -0.2653969,-0.268459 -0.7200558,-0.291332 -1.0191687,-0.05127 -0.095833,0.07691 -0.1953771,0.21229 -0.242904,0.330341 -0.038756,0.09627 -0.038952,0.10076 -0.047458,1.09153 l -0.00854,0.994864 -0.050668,0.08192 c -0.03597,0.05816 -0.074914,0.0944 -0.1342506,0.124939 l -0.083583,0.04302 -1.4065325,0.0026 c -0.87638284,0.0016 -1.43434977,-0.0037 -1.48033387,-0.01406 z M 7.7440783,5.5721864 c 0,-2.513637 0.027353,-2.219559 -0.2236975,-2.405026 C 6.9189634,2.7228544 4.2399841,0.79053541 4.2254123,0.79053541 c -0.01574,0 -3.2199078,2.29594099 -3.39023644,2.42926799 -0.035081,0.02746 -0.078653,0.07907 -0.096825,0.114694 -0.03232,0.06335 -0.033041,0.111854 -0.033041,2.22085 v 2.156083 H 1.7324986 2.7596872 l 1.21e-4,-0.770392 c 1.018e-4,-0.715539 0.00255,-0.78053 0.034254,-0.912791 0.1019533,-0.425302 0.4059173,-0.800766 0.7998999,-0.988056 0.2121094,-0.100832 0.3907193,-0.140665 0.6307351,-0.140665 0.2494036,0 0.4253836,0.04111 0.6483077,0.15146 0.3031111,0.150039 0.5141694,0.361284 0.6644178,0.665004 0.1449049,0.292918 0.1409167,0.26079 0.147895,1.19137 l 0.00616,0.820909 H 6.7177781 7.744082 v -2.156083 z"
       id="path3715" /></g></svg>
