<?xml version="1.0" encoding="UTF-8" standalone="no"?>
<!-- Created with Inkscape (http://www.inkscape.org/) -->

<svg
   width="32"
   height="32"
   viewBox="0 0 8.4666665 8.4666666"
   version="1.1"
   id="svg1913"
   xml:space="preserve"
   inkscape:version="1.2.1 (9c6d41e410, 2022-07-14)"
   sodipodi:docname="homeinfo.svg"
   xmlns:inkscape="http://www.inkscape.org/namespaces/inkscape"
   xmlns:sodipodi="http://sodipodi.sourceforge.net/DTD/sodipodi-0.dtd"
   xmlns="http://www.w3.org/2000/svg"
   xmlns:svg="http://www.w3.org/2000/svg"><sodipodi:namedview
     id="namedview1915"
     pagecolor="#505050"
     bordercolor="#ffffff"
     borderopacity="1"
     inkscape:showpageshadow="0"
     inkscape:pageopacity="0"
     inkscape:pagecheckerboard="1"
     inkscape:deskcolor="#505050"
     inkscape:document-units="mm"
     showgrid="false"
     inkscape:zoom="14.638496"
     inkscape:cx="-4.0646252"
     inkscape:cy="-0.2390956"
     inkscape:window-width="2560"
     inkscape:window-height="1351"
     inkscape:window-x="-9"
     inkscape:window-y="1341"
     inkscape:window-maximized="1"
     inkscape:current-layer="layer1" /><defs
     id="defs1910" /><g
     inkscape:label="Слой 1"
     inkscape:groupmode="layer"
     id="layer1"><path
       style="fill:#000000;stroke-width:0.0144778"
       d="M 3.8930645,7.9218896 C 3.334839,7.8686721 2.7763973,7.6826524 2.3019872,7.3918794 1.8249932,7.0995209 1.3654915,6.6401354 1.0730607,6.1632605 0.40664936,5.0765306 0.34887223,3.7182113 0.9204975,2.5765831 1.221247,1.9759376 1.7272443,1.4251932 2.3019872,1.0729238 3.3889918,0.4066803 4.7476534,0.34891744 5.8895677,0.92039925 6.4903646,1.221074 7.041248,1.7269438 7.3936062,2.3015417 8.0600167,3.3882724 8.1177938,4.7465918 7.5461685,5.8882191 7.2454188,6.4888654 6.7394211,7.0396097 6.1646783,7.3918794 5.49184,7.8042721 4.670229,7.9959698 3.8930645,7.9218896 Z M 4.5806824,7.2425379 C 5.730302,7.1193799 6.7496595,6.2892972 7.112816,5.1805707 7.2181853,4.8588779 7.2607925,4.5858691 7.2607925,4.2324015 c 0,-0.1255003 -0.00709,-0.2859526 -0.01582,-0.3565616 C 7.0736773,2.4856793 5.9804934,1.3927711 4.5899836,1.2215192 c -0.1651003,-0.020333 -0.5482024,-0.020333 -0.7133026,0 -1.3905107,0.1712519 -2.4836944,1.2641601 -2.6549886,2.6543207 -0.020335,0.1650591 -0.020335,0.5480641 0,0.7131224 0.126223,1.0243808 0.7512213,1.9020346 1.6867643,2.3686398 0.5014809,0.2501161 1.0788776,0.3485002 1.6722257,0.2849358 z M 4.0957775,6.3328521 C 4.0639185,6.3180733 4.0170095,6.2840183 3.9915352,6.2571733 3.8962472,6.1567645 3.9003042,6.2118921 3.9003042,5.0174069 V 3.9340922 l 0.03815,-0.076554 c 0.1211368,-0.2430269 0.4686124,-0.2430269 0.5897483,0 l 0.03815,0.076554 -3.185e-4,1.0864664 C 4.5657304,6.0480825 4.564284,6.1101672 4.538839,6.1649291 4.505624,6.2364861 4.4316593,6.3082252 4.3604798,6.3379061 4.2878548,6.3681901 4.1669701,6.3658801 4.0957643,6.3328261 Z M 4.1568435,2.9859588 C 3.9395364,2.9524026 3.7665664,2.7307432 3.7888973,2.5144345 3.8131963,2.2790306 4.0024489,2.1044488 4.2333281,2.1044488 c 0.1754008,0 0.3280551,0.098051 0.4036699,0.25928 0.03059,0.065222 0.037852,0.1019463 0.037494,0.1894717 -7.42e-4,0.1780843 -0.085636,0.3142186 -0.2425842,0.3889733 -0.1008131,0.04802 -0.1731126,0.059526 -0.2750623,0.043785 z"
       id="path3734" /></g></svg>
