<?xml version="1.0" encoding="UTF-8" standalone="no"?>
<!-- Created with Inkscape (http://www.inkscape.org/) -->

<svg
   version="1.1"
   id="svg824"
   width="16"
   height="16"
   viewBox="0 0 16 16"
   sodipodi:docname="i.svg"
   inkscape:version="1.1 (c68e22c387, 2021-05-23)"
   xmlns:inkscape="http://www.inkscape.org/namespaces/inkscape"
   xmlns:sodipodi="http://sodipodi.sourceforge.net/DTD/sodipodi-0.dtd"
   xmlns="http://www.w3.org/2000/svg"
   xmlns:svg="http://www.w3.org/2000/svg">
  <defs
     id="defs828" />
  <sodipodi:namedview
     id="namedview826"
     pagecolor="#ffffff"
     bordercolor="#666666"
     borderopacity="1.0"
     inkscape:pageshadow="2"
     inkscape:pageopacity="0.0"
     inkscape:pagecheckerboard="0"
     showgrid="false"
     inkscape:zoom="27.798135"
     inkscape:cx="6.9069381"
     inkscape:cy="9.6589213"
     inkscape:window-width="1600"
     inkscape:window-height="837"
     inkscape:window-x="-8"
     inkscape:window-y="-8"
     inkscape:window-maximized="1"
     inkscape:current-layer="g830" />
  <g
     inkscape:groupmode="layer"
     inkscape:label="Image"
     id="g830">
    <path
       style="fill:#000000;stroke-width:0.0312969"
       d="M 7.4377039,15.560194 C 6.3759652,15.448463 5.5990206,15.229778 4.7253728,14.796759 3.9957588,14.435131 3.4571823,14.0545 2.8576418,13.476771 1.5875955,12.25293 0.77175578,10.595331 0.59440589,8.8783953 0.55199808,8.4678293 0.55162776,7.6508693 0.59365589,7.2593534 0.86621418,4.7213254 2.4330715,2.4815247 4.732046,1.3435831 5.7963401,0.81678053 6.8386571,0.57713932 8.0656857,0.57713932 c 0.7629938,0 1.2626054,0.0641912 1.9496563,0.25049605 2.746502,0.74475973 4.835634,2.97273163 5.395862,5.75446493 0.331464,1.6458272 0.115575,3.3034512 -0.625664,4.8039687 -0.392461,0.794472 -0.829801,1.402298 -1.459681,2.028694 -1.403156,1.395397 -3.335822,2.182832 -5.3063353,2.161988 -0.2595646,-0.0027 -0.5213903,-0.0102 -0.5818348,-0.01656 z M 9.2745943,14.32105 c 1.2671157,-0.259203 2.3368077,-0.829153 3.2530477,-1.73328 0.942262,-0.929803 1.521199,-2.018456 1.791994,-3.3697257 0.06342,-0.3164576 0.07187,-0.4506533 0.07171,-1.1386034 C 14.391159,7.2286006 14.365798,7.0173173 14.186018,6.3679619 13.960606,5.5537886 13.548073,4.7471076 13.022093,4.0919791 12.818639,3.8385707 12.309812,3.3287003 12.05348,3.1213814 9.8052651,1.3030469 6.6049283,1.2357994 4.2759329,2.9579557 2.0929377,4.5721535 1.1740159,7.3967911 1.9896199,9.9857658 c 0.6730536,2.1364782 2.3980003,3.7416822 4.6002887,4.2809422 0.5389736,0.131975 0.8240306,0.158859 1.5699918,0.148066 0.6179613,-0.0089 0.7576495,-0.02068 1.1146939,-0.09372 z M 5.8677121,12.404105 v -0.276539 l 0.3846483,-0.01538 c 0.4292958,-0.01716 0.5822167,-0.06253 0.6726542,-0.199609 0.053712,-0.08141 0.058008,-0.208095 0.066991,-1.9756656 0.00655,-1.288388 -0.00117,-1.9253572 -0.024338,-2.0040876 C 6.8998628,7.7022401 6.6691204,7.6164644 6.127525,7.6205214 l -0.3854118,0.00291 V 7.3337357 7.0440436 l 0.7300461,-0.020934 c 0.9121183,-0.026156 2.361526,-0.078242 2.6218864,-0.094219 l 0.196249,-0.012042 v 2.4467327 c 0,2.0852791 0.00678,2.4597591 0.045895,2.5349031 0.069999,0.134479 0.2575424,0.194282 0.6684533,0.213155 l 0.353248,0.01623 v 0.2764 0.2764 H 8.1128004 5.8677121 Z M 7.5072285,5.978981 C 6.7771969,5.7206394 6.4187059,4.8982915 6.7393584,4.2175521 7.135987,3.3755154 8.211425,3.1995694 8.8515545,3.8719878 c 0.087747,0.092173 0.1975662,0.2483403 0.2440432,0.3470386 0.075626,0.1606005 0.084519,0.2154977 0.08465,0.5225922 C 9.1803717,5.0629534 9.1740225,5.0981218 9.0801313,5.295034 8.9497779,5.5684131 8.7238027,5.7924994 8.4500584,5.9198396 8.1761623,6.0472498 7.7718186,6.0726134 7.5072285,5.978981 Z"
       id="path932" />
  </g>
</svg>
