<?xml version="1.0" encoding="UTF-8" standalone="no"?>
<svg
   width="64"
   height="64"
   viewBox="0 0 64 64"
   version="1.1"
   id="svg36"
   sodipodi:docname="imdb.svg"
   inkscape:version="1.2.1 (9c6d41e410, 2022-07-14)"
   xmlns:inkscape="http://www.inkscape.org/namespaces/inkscape"
   xmlns:sodipodi="http://sodipodi.sourceforge.net/DTD/sodipodi-0.dtd"
   xmlns="http://www.w3.org/2000/svg"
   xmlns:svg="http://www.w3.org/2000/svg">
  <defs
     id="defs40" />
  <sodipodi:namedview
     id="namedview38"
     pagecolor="#505050"
     bordercolor="#ffffff"
     borderopacity="1"
     inkscape:showpageshadow="0"
     inkscape:pageopacity="0"
     inkscape:pagecheckerboard="1"
     inkscape:deskcolor="#505050"
     showgrid="false"
     inkscape:zoom="4.4498009"
     inkscape:cx="56.631747"
     inkscape:cy="55.845195"
     inkscape:window-width="2560"
     inkscape:window-height="1351"
     inkscape:window-x="-9"
     inkscape:window-y="-9"
     inkscape:window-maximized="1"
     inkscape:current-layer="svg36" />
  <g
     fill="#f5c518"
     id="g24">
    <rect
       x="0"
       y="0"
       width="100%"
       height="100%"
       rx="4"
       id="rect22" />
  </g>
  <g
     transform="matrix(1.0960066,0,0,1.217308,5.9342024,20.820275)"
     fill="#000000"
     fill-rule="nonzero"
     id="g34">
    <polygon
       points="5,18 5,0 0,0 0,18 "
       id="polygon26" />
    <path
       d="M 15.672518,0 14.553483,8.4084693 13.858201,3.8350243 C 13.65661,2.3700926 13.463247,1.0917512 13.278113,0 H 7 v 18 h 4.241635 L 11.258091,6.1138068 13.043609,18 h 3.019748 L 17.758365,5.8517865 17.770708,18 H 22 V 0 Z"
       id="path28" />
    <path
       d="M 24,18 V 0 h 7.804559 C 33.569352,0 35,1.4199441 35,3.1766042 V 14.823396 C 35,16.577786 33.571662,18 31.804559,18 Z M 29.832248,3.2395236 C 29.633922,3.1323335 29.254516,3.0807234 28.702652,3.0807234 V 14.891486 c 0.728633,0 1.177022,-0.13101 1.345167,-0.40494 0.168146,-0.26996 0.254375,-1.000441 0.254375,-2.199382 V 5.3078959 c 0,-0.8138509 -0.03018,-1.3339215 -0.08623,-1.5641817 -0.05605,-0.2302603 -0.18108,-0.3970005 -0.383717,-0.5041906 z"
       id="path30" />
    <path
       d="m 44.429908,4.5068582 h 0.31961 C 46.54471,4.5068582 48,5.9126759 48,7.6448676 V 14.861991 C 48,16.595065 46.545182,18 44.749518,18 h -0.31961 c -1.098446,0 -2.069633,-0.526338 -2.658038,-1.331726 l -0.287974,1.100504 H 37 V 0 h 4.784326 v 5.7805356 c 0.618172,-0.7703782 1.570825,-1.2736774 2.645582,-1.2736774 z m -1.02434,8.7773578 V 9.0190781 c 0,-0.7047386 -0.04524,-1.1672234 -0.139493,-1.3801133 -0.09425,-0.2128898 -0.470487,-0.3495732 -0.734393,-0.3495732 -0.263906,0 -0.670889,0.1110822 -0.75006,0.2982784 v 1.4314081 4.4017069 1.386694 c 0.09048,0.205549 0.478614,0.319927 0.75006,0.319927 0.271446,0 0.666531,-0.110708 0.749473,-0.319927 0.08294,-0.20922 0.124413,-0.719421 0.124413,-1.523263 z"
       id="path32" />
  </g>
</svg>
