<?xml version="1.0" encoding="UTF-8" standalone="no"?>
<!-- Created with Inkscape (http://www.inkscape.org/) -->

<svg
   width="16"
   height="16"
   viewBox="0 0 4.2333332 4.2333335"
   version="1.1"
   id="svg5"
   inkscape:version="1.1 (c68e22c387, 2021-05-23)"
   sodipodi:docname="info_b.svg"
   xmlns:inkscape="http://www.inkscape.org/namespaces/inkscape"
   xmlns:sodipodi="http://sodipodi.sourceforge.net/DTD/sodipodi-0.dtd"
   xmlns="http://www.w3.org/2000/svg"
   xmlns:svg="http://www.w3.org/2000/svg">
  <sodipodi:namedview
     id="namedview7"
     pagecolor="#ffffff"
     bordercolor="#666666"
     borderopacity="1.0"
     inkscape:pageshadow="2"
     inkscape:pageopacity="0.0"
     inkscape:pagecheckerboard="0"
     inkscape:document-units="mm"
     showgrid="false"
     units="px"
     width="16px"
     inkscape:zoom="18.586756"
     inkscape:cx="8.5006765"
     inkscape:cy="7.0211284"
     inkscape:window-width="1600"
     inkscape:window-height="837"
     inkscape:window-x="-8"
     inkscape:window-y="-8"
     inkscape:window-maximized="1"
     inkscape:current-layer="layer1" />
  <defs
     id="defs2">
    <pattern
       id="EMFhbasepattern"
       patternUnits="userSpaceOnUse"
       width="6"
       height="6"
       x="0"
       y="0" />
    <pattern
       id="EMFhbasepattern-1"
       patternUnits="userSpaceOnUse"
       width="6"
       height="6"
       x="0"
       y="0" />
    <pattern
       id="EMFhbasepattern-2"
       patternUnits="userSpaceOnUse"
       width="6"
       height="6"
       x="0"
       y="0" />
    <pattern
       id="EMFhbasepattern-5"
       patternUnits="userSpaceOnUse"
       width="6"
       height="6"
       x="0"
       y="0" />
  </defs>
  <g
     inkscape:label="Слой 1"
     inkscape:groupmode="layer"
     id="layer1">
    <path
       style="fill:#000000;stroke-width:0.00331025;fill-opacity:1"
       d="m 2.0478655,4.1157393 c -5.043e-4,-4.643e-4 -0.018792,-0.00174 -0.040639,-0.00283 -0.021848,-0.00109 -0.046426,-0.00268 -0.054619,-0.00353 -0.0082,-8.487e-4 -0.023089,-0.0023 -0.033103,-0.00321 -0.010014,-9.219e-4 -0.02193,-0.00235 -0.026482,-0.00318 -0.00455,-8.249e-4 -0.016108,-0.00237 -0.02568,-0.00344 -0.02892,-0.00322 -0.04866,-0.00618 -0.069292,-0.010384 -0.00217,-4.409e-4 -0.00961,-0.00166 -0.016551,-0.00271 -0.00694,-0.00105 -0.01708,-0.00285 -0.022542,-0.00402 -0.00546,-0.00116 -0.01291,-0.00246 -0.016551,-0.00288 -0.00364,-4.234e-4 -0.00885,-0.00167 -0.011586,-0.00277 -0.00274,-0.00109 -0.00944,-0.00267 -0.014896,-0.0035 -0.00546,-8.256e-4 -0.017379,-0.00326 -0.026482,-0.0054 -0.00911,-0.00215 -0.020276,-0.00466 -0.024827,-0.00559 -0.011097,-0.00226 -0.014018,-0.00303 -0.019861,-0.00525 -0.00274,-0.00104 -0.018371,-0.0051 -0.034758,-0.00903 -0.016386,-0.00393 -0.032771,-0.0083 -0.036413,-0.0097 -0.00364,-0.00141 -0.035662,-0.011952 -0.071157,-0.023435 -0.035495,-0.011483 -0.069494,-0.023662 -0.075553,-0.027066 -0.00606,-0.0034 -0.01015,-0.00479 -0.00909,-0.00307 0.00107,0.00172 -0.00516,-4.744e-4 -0.013822,-0.00487 -0.00867,-0.0044 -0.016952,-0.008 -0.018416,-0.008 -0.00147,0 -0.00966,-0.00329 -0.018206,-0.0073 -0.00855,-0.00401 -0.016286,-0.00748 -0.017197,-0.00774 -0.00437,-0.00119 -0.017178,-0.00678 -0.041378,-0.018046 -0.039527,-0.0184 -0.049315,-0.02269 -0.052964,-0.023212 -0.00182,-2.615e-4 -0.00554,-0.00248 -0.00828,-0.00494 -0.00274,-0.00246 -0.009,-0.00548 -0.013933,-0.00671 -0.00493,-0.00123 -0.010701,-0.00433 -0.012819,-0.00688 -0.00212,-0.00255 -0.00573,-0.00464 -0.008,-0.00464 -0.00229,0 -0.006,-0.00222 -0.00825,-0.00492 -0.00225,-0.00271 -0.00531,-0.00417 -0.0068,-0.00325 -0.00149,9.2e-4 -0.00362,2.086e-4 -0.00472,-0.00158 -0.0011,-0.00179 -0.011579,-0.00783 -0.023271,-0.013402 -0.011692,-0.00558 -0.022119,-0.011539 -0.023172,-0.013241 -0.00106,-0.0017 -0.01134,-0.00759 -0.022862,-0.013092 -0.011522,-0.0055 -0.022818,-0.01225 -0.025103,-0.015004 -0.00229,-0.00276 -0.00598,-0.005 -0.0082,-0.005 -0.00223,0 -0.00674,-0.00298 -0.010038,-0.00662 -0.00329,-0.00364 -0.00736,-0.00662 -0.00902,-0.00662 -0.00166,0 -0.00953,-0.00447 -0.017462,-0.00993 -0.00794,-0.00546 -0.015325,-0.00993 -0.016415,-0.00993 -0.00109,0 -0.011318,-0.00707 -0.02273,-0.015724 -0.011412,-0.00865 -0.0230633,-0.017214 -0.0258918,-0.019034 -0.0206627,-0.013301 -0.0316818,-0.021369 -0.0355519,-0.026031 -0.002472,-0.00298 -0.006361,-0.00541 -0.008647,-0.00541 -0.002286,0 -0.006077,-0.00233 -0.008432,-0.00516 -0.002355,-0.00283 -0.0133367,-0.012009 -0.0244048,-0.02038 -0.011068,-0.00837 -0.0206197,-0.016478 -0.0212264,-0.018013 -6.0695e-4,-0.00153 -0.002687,-0.00279 -0.004621,-0.00279 -0.001935,0 -0.0104437,-0.00633 -0.0189089,-0.014069 -0.008461,-0.00774 -0.0193241,-0.017084 -0.0241331,-0.02077 -0.004807,-0.00368 -0.016178,-0.01374 -0.0252655,-0.022344 -0.009087,-0.00861 -0.0182064,-0.015643 -0.020266,-0.015643 -0.002062,0 -0.002824,-0.00149 -0.0017,-0.00331 0.001124,-0.00182 3.619e-4,-0.00331 -0.0017,-0.00331 -0.005051,0 -0.0134003,-0.00863 -0.0108355,-0.011192 0.001124,-0.00112 -7.914e-5,-0.00205 -0.002677,-0.00205 -0.006126,0 -0.10658827,-0.1005378 -0.10352356,-0.1036027 0.00128,-0.00128 4.809e-4,-0.00233 -0.001768,-0.00233 -0.002257,0 -0.006331,-0.00224 -0.009067,-0.00496 -0.002736,-0.00274 -0.004094,-0.00496 -0.003019,-0.00496 0.001065,0 -0.007113,-0.00953 -0.0181868,-0.021168 -0.0110719,-0.011643 -0.0236505,-0.025938 -0.0279514,-0.031769 -0.004299,-0.00583 -0.0139679,-0.017159 -0.0214814,-0.025176 -0.007514,-0.00801 -0.0127974,-0.014576 -0.0117432,-0.014576 0.001055,0 -0.00296,-0.00534 -0.00892,-0.011875 -0.00596,-0.00653 -0.0123284,-0.014594 -0.0141487,-0.017917 -0.001817,-0.00332 -0.008168,-0.011367 -0.0141125,-0.017877 -0.00594,-0.00651 -0.0104105,-0.012285 -0.009931,-0.012836 9.027e-4,-0.00104 -0.008774,-0.014112 -0.0251258,-0.033959 -0.005198,-0.0063 -0.008266,-0.011464 -0.00683,-0.011464 0.001436,0 -0.001114,-0.00409 -0.005677,-0.00911 -0.009341,-0.010259 -0.0211326,-0.028299 -0.0197648,-0.03025 4.9566e-4,-7.067e-4 -4.8119e-4,-0.0022 -0.002169,-0.00331 -0.00383,-0.00253 -0.027887,-0.036783 -0.0258283,-0.036783 8.2785e-4,0 -0.004748,-0.00951 -0.01239,-0.021121 -0.0139591,-0.021219 -0.0264185,-0.042001 -0.0270281,-0.045084 -1.7997e-4,-9.103e-4 -0.004035,-0.00761 -0.008569,-0.014896 -0.004534,-0.00728 -0.0103773,-0.01771 -0.0129879,-0.023172 -0.002609,-0.00546 -0.006908,-0.012538 -0.009536,-0.015724 -0.002638,-0.00319 -0.003586,-0.00579 -0.00211,-0.00579 0.001475,0 4.1564e-4,-0.00261 -0.002355,-0.00579 -0.004328,-0.00497 -0.0502087,-0.095509 -0.0507499,-0.100135 -1.065e-4,-9.103e-4 -0.003254,-0.00835 -0.006986,-0.016551 -0.008227,-0.018049 -0.0118614,-0.027974 -0.0104652,-0.028617 5.7274e-4,-2.641e-4 -0.001935,-0.00377 -0.005579,-0.0078 -0.003644,-0.00403 -0.006146,-0.00753 -0.005559,-0.0078 9.7549e-4,-4.416e-4 -0.003273,-0.013366 -0.008324,-0.025307 -0.001153,-0.00274 -0.002355,-0.00571 -0.002667,-0.00662 -3.1442e-4,-9.104e-4 -0.001671,-0.00414 -0.003029,-0.00719 -0.001348,-0.00305 -0.002775,-0.00774 -0.003166,-0.010424 -3.9473e-4,-0.00269 -0.002697,-0.00728 -0.00512,-0.01019 -0.002423,-0.00291 -0.003293,-0.0053 -0.001935,-0.0053 0.001358,0 9.9659e-4,-0.00187 -8.0666e-4,-0.00413 -0.001798,-0.00228 -0.008881,-0.021268 -0.0157442,-0.042206 -0.006859,-0.020937 -0.0139445,-0.03993 -0.0157442,-0.042206 -0.001798,-0.00228 -0.002413,-0.00413 -0.001358,-0.00413 0.001055,0 -1.8867e-4,-0.00596 -0.002755,-0.013241 -0.00257,-0.00728 -0.00381,-0.013241 -0.002755,-0.013241 0.001055,0 3.1774e-4,-0.00192 -0.001632,-0.00427 -0.001954,-0.00235 -0.004328,-0.00871 -0.005276,-0.014115 -9.537e-4,-0.00541 -0.00467,-0.018386 -0.008266,-0.02883 -0.003596,-0.010443 -0.005931,-0.018987 -0.005208,-0.018987 7.3152e-4,0 -7.7226e-4,-0.00596 -0.003342,-0.013241 -0.00257,-0.00728 -0.004055,-0.013241 -0.003312,-0.013241 7.4881e-4,0 -7.408e-4,-0.00596 -0.003312,-0.013241 -0.00257,-0.00728 -0.004025,-0.013241 -0.003244,-0.013241 7.8448e-4,0 -6.683e-5,-0.00393 -0.001895,-0.00873 -0.001827,-0.0048 -0.004094,-0.01411 -0.005042,-0.020689 -9.4891e-4,-0.00658 -0.002619,-0.014197 -0.003723,-0.016927 -0.001094,-0.00274 -0.002345,-0.00794 -0.002775,-0.011586 -4.2941e-4,-0.00364 -0.001681,-0.01109 -0.002775,-0.016551 -0.00383,-0.019054 -0.004612,-0.023271 -0.007035,-0.038068 -0.002413,-0.014781 -0.003185,-0.018938 -0.007035,-0.038068 -0.001094,-0.00546 -0.002335,-0.015144 -0.002755,-0.021517 -4.1769e-4,-0.00637 -0.001768,-0.01472 -0.003,-0.01855 -0.001231,-0.00383 -0.002892,-0.015869 -0.003683,-0.026753 -7.9219e-4,-0.010883 -0.002345,-0.024881 -0.003459,-0.031103 -0.001114,-0.00622 -0.00257,-0.021304 -0.003244,-0.033512 -6.7133e-4,-0.012208 -0.002306,-0.033063 -0.003635,-0.046344 -0.003371,-0.03366 -0.003351,-0.2365975 2.325e-5,-0.2707597 0.001524,-0.015475 0.003146,-0.035585 0.003596,-0.044688 4.4709e-4,-0.00911 0.001808,-0.023999 0.003029,-0.033102 0.001221,-0.00911 0.002951,-0.023999 0.00385,-0.033102 8.9742e-4,-0.00911 0.002482,-0.02102 0.003517,-0.026482 0.001036,-0.00546 0.002296,-0.013654 0.002804,-0.018206 5.0454e-4,-0.00455 0.00214,-0.015724 0.003644,-0.024827 0.001495,-0.00911 0.00298,-0.019158 0.003302,-0.022344 3.1667e-4,-0.00319 8.7593e-4,-0.00617 0.001241,-0.00662 0.001172,-0.00145 0.003478,-0.013664 0.005022,-0.026593 8.2551e-4,-0.00689 0.002364,-0.013914 0.00341,-0.015612 0.001045,-0.0017 0.00254,-0.00915 0.003312,-0.016551 7.7099e-4,-0.00741 0.00214,-0.014656 0.003039,-0.016113 9.0074e-4,-0.00146 0.002433,-0.007 0.0034,-0.012302 0.003019,-0.016518 0.004338,-0.022492 0.007963,-0.036147 0.001935,-0.00728 0.004299,-0.017815 0.005257,-0.023423 9.6142e-4,-0.00561 0.004025,-0.016661 0.00682,-0.024563 0.002785,-0.0079 0.005853,-0.018831 0.00682,-0.024285 9.6073e-4,-0.00545 0.002775,-0.011531 0.004035,-0.013505 0.00126,-0.00197 0.002443,-0.00582 0.002628,-0.00856 1.8505e-4,-0.00273 0.001436,-0.00745 0.002785,-0.010499 0.001348,-0.00304 0.002853,-0.00751 0.003351,-0.00993 4.9508e-4,-0.00242 0.001983,-0.00689 0.003312,-0.00993 0.001329,-0.00304 0.002931,-0.00826 0.003556,-0.011586 6.3078e-4,-0.00333 0.001446,-0.00642 0.001817,-0.00688 3.6688e-4,-4.552e-4 0.001036,-0.00232 0.001495,-0.00413 4.5511e-4,-0.00182 0.001124,-0.00368 0.001485,-0.00413 3.6287e-4,-4.552e-4 0.001329,-0.00444 0.00213,-0.00884 8.1124e-4,-0.00441 0.003117,-0.01 0.00513,-0.012414 0.002003,-0.00242 0.00254,-0.0044 0.001182,-0.0044 -0.001358,0 -6.1144e-4,-0.00224 0.001651,-0.00496 0.002267,-0.00273 0.003009,-0.00496 0.001651,-0.00496 -0.001358,0 -6.1144e-4,-0.00224 0.001651,-0.00496 0.002267,-0.00274 0.003009,-0.00496 0.001651,-0.00496 -0.001358,0 -8.2346e-4,-0.00197 0.001182,-0.0044 0.002003,-0.00242 0.004192,-0.00726 0.004866,-0.010758 0.001085,-0.00569 0.005032,-0.016732 0.0111423,-0.031187 0.001153,-0.00274 0.002355,-0.00571 0.002658,-0.00662 7.9307e-4,-0.00233 0.008061,-0.020529 0.0105795,-0.026482 0.001153,-0.00273 0.002316,-0.00571 0.002589,-0.00662 2.6781e-4,-9.103e-4 0.003136,-0.00761 0.00637,-0.014896 0.007426,-0.016733 0.012389,-0.029314 0.0123929,-0.031447 1.76e-6,-9.104e-4 0.002364,-0.00426 0.005247,-0.00745 0.002882,-0.00319 0.00424,-0.00579 0.003019,-0.00579 -0.001221,0 0.001456,-0.00727 0.00596,-0.016148 0.004504,-0.00888 0.007259,-0.017074 0.006126,-0.018206 -0.001133,-0.00113 -4.6616e-4,-0.00206 0.001475,-0.00206 0.003156,0 0.0115185,-0.018072 0.009825,-0.021223 -3.7069e-4,-6.898e-4 0.00171,-0.00402 0.004612,-0.0074 0.004993,-0.00579 0.007924,-0.011819 0.009419,-0.019382 3.6151e-4,-0.00182 0.00256,-0.00554 0.004885,-0.00828 0.004172,-0.0049 0.009438,-0.017003 0.008471,-0.019491 -2.7309e-4,-7.068e-4 9.2028e-4,-0.0022 0.002648,-0.00331 0.001729,-0.00111 0.006497,-0.00873 0.010599,-0.016922 0.004094,-0.00819 0.009741,-0.017503 0.0125434,-0.020689 0.002804,-0.00319 0.003889,-0.00579 0.002413,-0.00579 -0.001475,0 -3.2213e-4,-0.00261 0.00256,-0.00579 0.002882,-0.00319 0.005569,-0.00728 0.00596,-0.00911 3.9424e-4,-0.00182 0.004221,-0.00886 0.00851,-0.015658 0.004289,-0.00679 0.007797,-0.01351 0.007797,-0.01493 0,-0.00142 0.003781,-0.00666 0.008412,-0.011651 0.004621,-0.00499 0.007377,-0.00907 0.006107,-0.00907 -0.00127,0 3.9404e-4,-0.00298 0.003693,-0.00662 0.003293,-0.00364 0.004739,-0.00662 0.003205,-0.00662 -0.001534,0 0.001358,-0.00433 0.006429,-0.00962 0.005071,-0.0053 0.009223,-0.010877 0.009233,-0.012413 2.579e-5,-0.00408 0.035463,-0.057523 0.0452071,-0.0681698 0.004582,-0.005003 0.007152,-0.009106 0.005716,-0.009106 -0.001436,0 0.002003,-0.005266 0.00766,-0.0117011 0.005647,-0.006439 0.0102864,-0.0127661 0.010302,-0.0140686 1.651e-5,-0.001299 0.004973,-0.007582 0.0110133,-0.0139533 0.006038,-0.00637 0.0111755,-0.0127583 0.011408,-0.0141926 5.6317e-4,-0.003469 0.0122825,-0.0185268 0.0305143,-0.0392032 0.008197,-0.009292 0.0163861,-0.0195156 0.0182064,-0.0227194 0.007084,-0.0124662 0.0691214,-0.0799022 0.12605844,-0.13702739 0.0477064,-0.0478637 0.0966869,-0.0947104 0.0990246,-0.0947104 0.001182,0 0.009565,-0.007015 0.0186226,-0.0155986 0.009057,-0.008579 0.0200188,-0.017923 0.02435,-0.0207643 0.004328,-0.002843 0.0138751,-0.0107173 0.0212088,-0.0175039 0.007338,-0.006781 0.0146108,-0.0123382 0.0161702,-0.0123382 0.001563,0 0.007113,-0.004465 0.0123489,-0.009931 0.005237,-0.005462 0.0111911,-0.009931 0.013241,-0.009931 0.002052,0 0.008012,-0.004465 0.013241,-0.009931 0.005237,-0.005462 0.0112107,-0.009931 0.013283,-0.009931 0.002071,0 0.007259,-0.003713 0.0115311,-0.008266 0.00427,-0.004543 0.008422,-0.007601 0.009223,-0.0068 8.0421e-4,8.0421e-4 0.006136,-0.002921 0.0118487,-0.008276 0.005716,-0.005354 0.0120177,-0.009741 0.0140109,-0.009751 0.00199,-9.97e-6 0.00632,-0.00299 0.00961,-0.006634 0.00329,-0.003644 0.00777,-0.006624 0.00993,-0.006624 0.00217,0 0.00663,-0.00298 0.00993,-0.006624 0.00329,-0.003644 0.00777,-0.006624 0.00993,-0.006624 0.00217,0 0.00663,-0.00298 0.00993,-0.006624 0.00329,-0.003644 0.00782,-0.006624 0.010038,-0.006624 0.00223,0 0.00596,-0.002306 0.0083,-0.00513 0.00234,-0.002824 0.010626,-0.008031 0.018411,-0.0115771 0.00779,-0.003547 0.01508,-0.007943 0.016211,-0.009775 0.00113,-0.001827 0.00858,-0.006302 0.016551,-0.009931 0.00797,-0.003635 0.015368,-0.008012 0.016435,-0.009741 0.00106,-0.001729 0.014192,-0.009253 0.029166,-0.01673 0.014973,-0.007474 0.032066,-0.0164623 0.037983,-0.0199738 0.00592,-0.003508 0.010758,-0.005413 0.010758,-0.004221 0,0.001192 0.00335,-9.0279e-4 0.00745,-0.004651 0.00409,-0.003752 0.011173,-0.007904 0.015724,-0.009243 0.00455,-0.001339 0.010588,-0.004446 0.013414,-0.006918 0.00282,-0.002472 0.00827,-0.004973 0.012091,-0.005559 0.00382,-5.8349e-4 0.00948,-0.003156 0.012563,-0.005716 0.00309,-0.00256 0.00821,-0.005051 0.01138,-0.00554 0.00318,-4.8422e-4 0.014016,-0.005217 0.024096,-0.0105218 0.01008,-0.005305 0.024097,-0.0115429 0.031149,-0.0138682 0.00705,-0.002325 0.017747,-0.006996 0.023769,-0.0103714 0.00602,-0.003381 0.01347,-0.006546 0.016551,-0.007045 0.00308,-4.939e-4 0.010674,-0.003449 0.016871,-0.006566 0.00619,-0.003117 0.013044,-0.005677 0.015215,-0.005677 0.00217,0 0.00902,-0.00255 0.015215,-0.005677 0.00619,-0.003117 0.014129,-0.006126 0.017628,-0.006683 0.0035,-5.5741e-4 0.00834,-0.002658 0.010758,-0.004661 0.00242,-0.002003 0.0044,-0.00254 0.0044,-0.001182 0,0.001358 0.00224,6.1134e-4 0.00496,-0.001651 0.00274,-0.002267 0.00496,-0.003009 0.00496,-0.001651 0,0.001358 0.00198,8.2336e-4 0.0044,-0.001182 0.00242,-0.002003 0.00726,-0.004201 0.010758,-0.004875 0.0035,-6.73e-4 0.00885,-0.002306 0.011895,-0.003635 0.00305,-0.001319 0.00785,-0.002746 0.010663,-0.003156 0.00282,-4.1398e-4 0.00617,-0.001788 0.00744,-0.003058 0.00127,-0.00127 0.00553,-0.002306 0.00948,-0.002306 0.00395,0 0.00821,-0.001036 0.00948,-0.002306 0.00127,-0.00127 0.00461,-0.002638 0.00744,-0.003058 0.00282,-4.1397e-4 0.00762,-0.001837 0.010663,-0.003156 0.00488,-0.00212 0.01002,-0.003498 0.022085,-0.005901 0.00182,-3.6337e-4 0.00517,-0.001827 0.00745,-0.003244 0.00228,-0.001417 0.00413,-0.001837 0.00413,-9.1276e-4 0,9.197e-4 0.00782,-0.001016 0.017379,-0.004309 0.00956,-0.003293 0.018496,-0.006185 0.019861,-0.006439 0.00137,-2.5472e-4 0.00285,-5.7373e-4 0.00331,-7.0905e-4 4.551e-4,-1.3522e-4 0.00455,-9.9659e-4 0.00911,-0.001915 0.012793,-0.002579 0.018206,-0.003908 0.018206,-0.004455 0,-6.6625e-4 0.00731,-0.002247 0.039723,-0.008598 0.014883,-0.002912 0.019861,-0.004084 0.019861,-0.004661 0,-2.8901e-4 0.00447,-0.001231 0.00993,-0.002091 0.015168,-0.002394 0.023172,-0.003967 0.023172,-0.004534 0,-2.85e-4 0.00447,-0.001221 0.00993,-0.002091 0.015274,-0.002413 0.023172,-0.003967 0.023172,-0.004553 0,-2.9321e-4 0.00454,-0.001006 0.010106,-0.001593 0.010286,-0.001075 0.026182,-0.003596 0.041349,-0.006536 0.00893,-0.001739 0.023148,-0.003517 0.052818,-0.006624 0.010014,-0.001045 0.02342,-0.002667 0.029792,-0.003605 0.00637,-9.3474e-4 0.019778,-0.002374 0.029792,-0.003195 0.010014,-8.2121e-4 0.030868,-0.00254 0.046344,-0.00382 0.03657,-0.003019 0.2383532,-0.002941 0.2747504,1.0992e-4 0.046958,0.003937 0.057314,0.004924 0.072825,0.006947 0.0082,0.001065 0.0216,0.002531 0.029792,0.003244 0.0082,7.1735e-4 0.014896,0.001573 0.014896,0.001915 0,6.9351e-4 0.010554,0.001905 0.029792,0.00343 0.00728,5.7509e-4 0.014727,0.001837 0.016543,0.002794 0.00182,9.6347e-4 0.00707,0.002042 0.011684,0.002394 0.010132,7.7314e-4 0.025105,0.003185 0.036324,0.005852 0.022073,0.005247 0.059584,0.0111716 0.059584,0.009409 0,-8.6136e-4 0.00187,-4.885e-5 0.00414,0.001808 0.00228,0.001856 0.00935,0.004104 0.015724,0.004993 0.013449,0.001886 0.029305,0.005423 0.036413,0.008129 0.00274,0.001036 0.00869,0.002462 0.013241,0.003156 0.00455,6.9899e-4 0.013206,0.002853 0.019231,0.004778 0.00603,0.001925 0.013474,0.003996 0.016551,0.004582 0.00308,5.9404e-4 0.00597,0.001378 0.00642,0.001749 4.552e-4,3.6688e-4 0.00194,8.8911e-4 0.00331,0.001163 0.003,5.9629e-4 0.033896,0.008754 0.039758,0.0104974 0.0023,6.8267e-4 0.00528,0.001505 0.00662,0.001837 0.00135,3.2702e-4 0.019206,0.006224 0.039688,0.0131052 0.020482,0.006878 0.03724,0.0116855 0.03724,0.0106762 0,-0.001006 0.00187,-3.5662e-4 0.00413,0.001446 0.00228,0.001808 0.010096,0.005159 0.017379,0.007455 0.00728,0.002296 0.015103,0.005647 0.017379,0.007455 0.00228,0.001808 0.00413,0.002179 0.00413,8.1837e-4 0,-0.001358 0.00187,-9.8682e-4 0.00413,8.1848e-4 0.00228,0.001808 0.010096,0.005159 0.017379,0.007465 0.00728,0.002296 0.014731,0.005071 0.016551,0.006175 0.00182,0.001094 0.00405,0.00215 0.00496,0.002325 9.103e-4,1.8036e-4 0.00585,0.002062 0.010974,0.004192 0.00513,0.00212 0.00993,0.003859 0.010667,0.003859 7.419e-4,0 0.00921,0.003605 0.018818,0.008012 0.028871,0.013238 0.050472,0.0228268 0.052227,0.0231854 0.00372,7.5975e-4 0.1248819,0.0624159 0.134065,0.0682225 0.00546,0.003449 0.016171,0.009311 0.023799,0.0130065 0.00763,0.003703 0.014794,0.008227 0.015924,0.0100548 0.00113,0.001827 0.00854,0.006282 0.01647,0.009894 0.00792,0.003615 0.016402,0.0085 0.018834,0.0108755 0.00243,0.002374 0.0098,0.00683 0.016377,0.009915 0.00658,0.003087 0.013835,0.007865 0.016129,0.0106332 0.0023,0.002765 0.00599,0.005022 0.00822,0.005022 0.00223,0 0.00674,0.00298 0.010038,0.006624 0.00329,0.003644 0.00777,0.006624 0.00993,0.006624 0.00217,0 0.00663,0.00298 0.00993,0.006624 0.00329,0.003644 0.00777,0.006624 0.00993,0.006624 0.00217,0 0.00663,0.00298 0.00993,0.006624 0.00329,0.003644 0.00762,0.006624 0.00961,0.006634 0.00199,9.87e-6 0.00838,0.004475 0.014203,0.009931 0.00582,0.005452 0.011918,0.009915 0.013556,0.009915 0.00164,0 0.00568,0.00298 0.00897,0.006624 0.00329,0.003644 0.00726,0.006624 0.00881,0.006624 0.00251,0 0.015724,0.0106157 0.027821,0.0223442 0.00234,0.002277 0.00559,0.004133 0.00719,0.004133 0.00161,0 0.00721,0.004465 0.012442,0.009931 0.00524,0.005462 0.01079,0.009931 0.01235,0.009931 0.00258,0 0.018912,0.0139669 0.037171,0.0317854 0.00392,0.00383 0.00881,0.007553 0.010859,0.008276 0.00205,7.2409e-4 0.012625,0.009882 0.023498,0.02035 0.010874,0.0104691 0.021028,0.0190476 0.022565,0.0190642 0.00355,3.811e-5 0.135481,0.13267561 0.1372226,0.13795159 7.11e-4,0.002159 0.00999,0.0129537 0.020628,0.0239993 0.010634,0.0110456 0.018462,0.0200823 0.017396,0.0200823 -0.00107,0 0.00587,0.008305 0.015424,0.0184653 0.00955,0.0101555 0.018851,0.0211981 0.020672,0.0245376 0.00182,0.003342 0.00819,0.0114159 0.014149,0.0179474 0.00596,0.006536 0.010022,0.0118751 0.00902,0.0118751 -9.966e-4,0 0.00258,0.004846 0.00796,0.0107583 0.00537,0.005921 0.013794,0.0167164 0.018707,0.0239993 0.00491,0.007279 0.010605,0.0143353 0.01265,0.0156729 0.00204,0.001339 0.00249,0.002452 9.966e-4,0.002482 -0.00149,2.647e-5 -4.053e-4,0.002364 0.00242,0.005188 0.00282,0.002824 0.01064,0.0136279 0.017359,0.0239993 0.00672,0.0103714 0.015963,0.0229538 0.020541,0.0279603 0.00457,0.005 0.00734,0.00911 0.00614,0.00911 -0.0012,0 0.00593,0.011917 0.015845,0.026482 0.00992,0.014565 0.017048,0.026482 0.015845,0.026482 -0.0012,0 0.00209,0.00447 0.00733,0.00993 0.00524,0.00546 0.00826,0.00993 0.00672,0.00993 -0.00153,0 -9.27e-5,0.00298 0.0032,0.00662 0.00329,0.00364 0.00495,0.00662 0.00369,0.00662 -0.00126,0 -7.295e-4,0.00187 0.00119,0.00413 0.00721,0.00855 0.019665,0.028965 0.017678,0.028965 -0.00113,0 3.31e-5,0.00261 0.00258,0.00579 0.00534,0.00666 0.010196,0.01503 0.022983,0.039677 0.00501,0.00966 0.010636,0.019403 0.012491,0.021638 0.00186,0.00224 0.00343,0.00522 0.0035,0.00662 6.95e-5,0.00141 0.0067,0.016303 0.014749,0.033102 0.032347,0.067569 0.03677,0.076955 0.037018,0.078543 1.423e-4,9.104e-4 0.00355,0.00892 0.00756,0.0178 0.00402,0.00888 0.00731,0.016603 0.00731,0.017163 0,5.603e-4 0.00131,0.00447 0.00291,0.00869 0.0016,0.00421 0.00321,0.00915 0.0036,0.010974 3.731e-4,0.00182 0.00223,0.00517 0.00411,0.00745 0.00189,0.00228 0.00228,0.00413 8.607e-4,0.00413 -0.00142,0 1.225e-4,0.00298 0.00342,0.00662 0.00329,0.00364 0.00497,0.00662 0.00374,0.00662 -0.00124,0 5.62e-5,0.00447 0.00288,0.00993 0.00282,0.00546 0.00417,0.00993 0.00299,0.00993 -0.00118,0 -6.73e-4,0.00187 0.00112,0.00413 0.00331,0.00419 0.036277,0.1013215 0.03876,0.1142144 7.422e-4,0.00385 0.003,0.010083 0.00501,0.013843 0.00201,0.00376 0.0029,0.00684 0.00196,0.00684 -9.293e-4,0 -2.583e-4,0.00376 0.00149,0.00836 0.00175,0.0046 0.00379,0.011675 0.00453,0.015724 7.437e-4,0.00405 0.00405,0.016299 0.00733,0.027223 0.00328,0.010923 0.00623,0.022468 0.00656,0.025654 3.211e-4,0.00319 9.551e-4,0.00654 0.00141,0.00745 0.00107,0.00212 0.00127,0.00298 0.00622,0.025608 0.00229,0.010443 0.00395,0.019381 0.0037,0.019861 -2.516e-4,4.808e-4 0.00124,0.00533 0.0033,0.010775 0.00207,0.00544 0.00437,0.015679 0.0051,0.022742 7.355e-4,0.00706 0.00207,0.015269 0.00297,0.018237 8.98e-4,0.00297 0.00245,0.010609 0.00347,0.016981 0.00101,0.00637 0.00258,0.01531 0.0035,0.019861 9.153e-4,0.00455 0.00234,0.014786 0.00316,0.022742 8.206e-4,0.00795 0.00223,0.016894 0.00313,0.019861 8.968e-4,0.00297 0.00251,0.014974 0.00359,0.026681 0.00107,0.011708 0.00265,0.022418 0.00351,0.023801 8.544e-4,0.00139 0.00225,0.014148 0.00309,0.028367 8.421e-4,0.014219 0.00231,0.029577 0.00326,0.034128 0.00836,0.039973 0.00855,0.3213574 2.351e-4,0.3578907 -9.868e-4,0.00434 -0.00248,0.018319 -0.00333,0.031063 -8.424e-4,0.012745 -0.00231,0.026771 -0.00326,0.03117 -9.506e-4,0.0044 -0.00253,0.016175 -0.00351,0.026168 -9.77e-4,0.00999 -0.00266,0.02278 -0.00373,0.028414 -0.00107,0.00564 -0.00233,0.013988 -0.00279,0.018564 -4.66e-4,0.00457 -0.00177,0.011279 -0.0029,0.014896 -0.00112,0.00362 -0.00277,0.013697 -0.00364,0.022401 -8.786e-4,0.00871 -0.00246,0.017218 -0.00352,0.018922 -0.00106,0.0017 -0.00255,0.00916 -0.00331,0.016562 -7.71e-4,0.00741 -0.00214,0.014656 -0.00304,0.016113 -9.008e-4,0.00146 -0.00243,0.007 -0.0034,0.012302 -9.709e-4,0.00531 -0.00254,0.013376 -0.00349,0.017928 -9.478e-4,0.00455 -0.00246,0.012295 -0.00336,0.017209 -9.01e-4,0.00491 -0.00309,0.012734 -0.00485,0.017379 -0.00177,0.00464 -0.00257,0.00844 -0.00179,0.00844 7.845e-4,0 -6.76e-4,0.00596 -0.00324,0.013241 -0.00257,0.00728 -0.00405,0.013241 -0.00331,0.013241 7.488e-4,0 -7.482e-4,0.00598 -0.00332,0.013287 -0.00258,0.00731 -0.00465,0.013639 -0.0046,0.014069 4.63e-5,4.298e-4 -6.124e-4,0.00302 -0.00147,0.00575 -0.00353,0.011334 -0.00919,0.034936 -0.00894,0.037275 1.457e-4,0.00139 -0.00204,0.00697 -0.00486,0.012413 -0.00281,0.00544 -0.00428,0.0099 -0.00326,0.0099 0.00103,0 1.92e-4,0.00311 -0.00185,0.00691 -0.00203,0.0038 -0.00441,0.010831 -0.00528,0.015621 -8.686e-4,0.00479 -0.00317,0.010619 -0.0051,0.012951 -0.00193,0.00234 -0.00255,0.00424 -0.00138,0.00424 0.00118,0 -1.656e-4,0.00447 -0.00299,0.00993 -0.00282,0.00546 -0.00432,0.00993 -0.00331,0.00993 0.00101,0 -4.777e-4,0.00446 -0.00329,0.0099 -0.00281,0.00544 -0.00527,0.011029 -0.00544,0.012414 -3.493e-4,0.00267 -0.00494,0.015735 -0.00845,0.024034 -0.00115,0.00274 -0.00235,0.00571 -0.00266,0.00662 -7.931e-4,0.00234 -0.00806,0.020528 -0.010579,0.026482 -0.00115,0.00274 -0.00225,0.00571 -0.00242,0.00662 -4.127e-4,0.00211 -0.00792,0.020943 -0.015178,0.038068 -0.00723,0.017066 -0.00915,0.022675 -0.00865,0.025307 2.218e-4,0.00117 -0.00243,0.00527 -0.0059,0.00911 -0.00347,0.00383 -0.0051,0.00697 -0.00362,0.00697 0.00148,0 3.212e-4,0.00261 -0.00256,0.00579 -0.00288,0.00319 -0.00554,0.00728 -0.0059,0.00911 -0.00142,0.00714 -0.00432,0.01346 -0.00835,0.018206 -0.00233,0.00274 -0.00424,0.00613 -0.00427,0.00754 -6.95e-5,0.00457 -0.017947,0.040253 -0.023344,0.046595 -0.00287,0.00338 -0.00503,0.0071 -0.0048,0.00828 7.896e-4,0.00391 -0.00493,0.016358 -0.00856,0.018593 -0.00196,0.00121 -0.00277,0.00349 -0.00181,0.00506 9.697e-4,0.00157 4.042e-4,0.00369 -0.00126,0.00472 -0.00166,0.00103 -0.00782,0.011184 -0.013686,0.022573 -0.00587,0.011389 -0.01262,0.022941 -0.015006,0.025672 -0.00238,0.00274 -0.00466,0.00646 -0.00505,0.00828 -3.942e-4,0.00182 -0.00454,0.00927 -0.00923,0.016551 -0.00468,0.00728 -0.0086,0.013985 -0.0087,0.014896 -9.94e-5,9.104e-4 -0.00758,0.012828 -0.016638,0.026482 -0.00905,0.013654 -0.017957,0.027253 -0.01979,0.030217 -0.010705,0.017311 -0.035339,0.052624 -0.03987,0.057155 -0.00292,0.00292 -0.00418,0.00532 -0.0028,0.00532 0.00138,0 -0.00122,0.00409 -0.00578,0.00911 -0.00456,0.005 -0.010811,0.012827 -0.01389,0.017379 -0.00308,0.00455 -0.01081,0.014979 -0.01718,0.023172 -0.00637,0.0082 -0.014315,0.019001 -0.017655,0.024018 -0.00334,0.00501 -0.012348,0.015817 -0.020018,0.023999 -0.00767,0.00819 -0.013036,0.014877 -0.011925,0.014877 0.00111,0 -0.00422,0.00666 -0.011857,0.014805 -0.00763,0.00814 -0.017757,0.019688 -0.022499,0.025654 -0.00474,0.00597 -0.021943,0.024628 -0.038224,0.041469 -0.016282,0.016841 -0.02821,0.030641 -0.026509,0.030669 0.0017,3.32e-5 -6.316e-4,0.00201 -0.00519,0.00441 -0.00455,0.00239 -0.0079,0.0061 -0.00745,0.00823 4.552e-4,0.00213 -7.683e-4,0.00387 -0.00272,0.00387 -0.0049,0 -0.013152,0.00868 -0.01064,0.011192 0.00112,0.00112 2.052e-4,0.00205 -0.00205,0.00205 -0.00449,0 -0.015713,0.0099 -0.01131,0.00998 0.00149,3.32e-5 -0.00101,0.00201 -0.00556,0.00441 -0.00455,0.00239 -0.00787,0.00621 -0.00737,0.00847 5.002e-4,0.00227 -3.608e-4,0.00333 -0.00191,0.00236 -0.00155,-9.596e-4 -0.011645,0.00728 -0.022426,0.018317 -0.010782,0.011034 -0.028541,0.027529 -0.039464,0.036655 -0.010923,0.00913 -0.02683,0.023117 -0.035346,0.031091 -0.00852,0.00797 -0.01678,0.014496 -0.018362,0.014496 -0.00158,0 -0.0087,0.00596 -0.015807,0.013241 -0.00711,0.00728 -0.014197,0.013241 -0.015747,0.013241 -0.00155,0 -0.00758,0.00447 -0.013396,0.00992 -0.00581,0.00545 -0.012317,0.00992 -0.014441,0.00993 -0.00212,0 -0.00436,0.00123 -0.00496,0.00271 -0.00101,0.00245 -0.03734,0.0308 -0.049589,0.038685 -0.019518,0.012564 -0.032319,0.021693 -0.037052,0.026426 -0.00302,0.00302 -0.00549,0.00439 -0.00549,0.00303 0,-0.00136 -0.00335,6.323e-4 -0.00745,0.00443 -0.00409,0.00379 -0.013678,0.010106 -0.021291,0.014034 -0.00761,0.00393 -0.015616,0.00928 -0.017784,0.011893 -0.00217,0.00261 -0.00581,0.00475 -0.0081,0.00475 -0.00229,0 -0.00607,0.00231 -0.00841,0.00513 -0.00234,0.00282 -0.010473,0.00796 -0.01807,0.011422 -0.0076,0.00346 -0.015716,0.00859 -0.01804,0.011386 -0.00233,0.0028 -0.00544,0.00434 -0.00694,0.00342 -0.00149,-9.199e-4 -0.00362,-1.985e-4 -0.00473,0.0016 -0.00111,0.0018 -0.00754,0.0058 -0.014297,0.00888 -0.00675,0.00309 -0.014676,0.00764 -0.017614,0.010124 -0.00703,0.00594 -0.1554819,0.080257 -0.1533127,0.076747 9.201e-4,-0.00149 -0.00639,0.00153 -0.016253,0.00672 -0.00986,0.00519 -0.023695,0.011289 -0.030748,0.013563 -0.00705,0.00228 -0.014311,0.00524 -0.016131,0.00658 -0.00182,0.00135 -0.00927,0.00433 -0.016551,0.00662 -0.00728,0.0023 -0.014731,0.00528 -0.016551,0.00662 -0.00182,0.00135 -0.00927,0.00433 -0.016551,0.00662 -0.00728,0.0023 -0.014731,0.00505 -0.016551,0.00614 -0.00182,0.00107 -0.00529,0.00226 -0.00771,0.00262 -0.00241,3.661e-4 -0.00689,0.00175 -0.00993,0.00307 -0.00305,0.00133 -0.00839,0.00296 -0.011896,0.00363 -0.0035,6.733e-4 -0.00808,0.00266 -0.010191,0.00441 -0.00211,0.00175 -0.00744,0.00384 -0.011846,0.00465 -0.00441,8.114e-4 -0.00801,0.0017 -0.00801,0.00197 0,2.747e-4 -0.00273,0.00102 -0.00605,0.00164 -0.00333,6.307e-4 -0.00854,0.00223 -0.011586,0.00356 -0.00305,0.00133 -0.00751,0.00281 -0.00993,0.00331 -0.00241,4.952e-4 -0.00689,0.00198 -0.00993,0.00331 -0.00305,0.00133 -0.00851,0.00305 -0.012155,0.00383 -0.00979,0.0021 -0.012663,0.00296 -0.018775,0.00562 -0.00305,0.00133 -0.00826,0.00292 -0.011586,0.00356 -0.00333,6.31e-4 -0.00605,0.00138 -0.00605,0.00165 0,2.781e-4 -0.00252,9.966e-4 -0.0056,0.00158 -0.00308,5.939e-4 -0.010526,0.00266 -0.016551,0.00459 -0.00603,0.00192 -0.01468,0.00408 -0.019231,0.00478 -0.00455,6.987e-4 -0.01051,0.0022 -0.013241,0.00333 -0.00274,0.00113 -0.00944,0.00273 -0.014896,0.00355 -0.00546,8.163e-4 -0.00993,0.00172 -0.00993,0.00201 0,5.39e-4 -0.00374,0.00144 -0.018206,0.00439 -0.00455,9.258e-4 -0.014979,0.00322 -0.023172,0.00511 -0.0082,0.00189 -0.015268,0.00351 -0.015724,0.0036 -4.551e-4,8.94e-5 -0.0012,2.781e-4 -0.00165,4.19e-4 -0.00213,6.515e-4 -0.013177,0.00259 -0.024629,0.00432 -0.017493,0.00264 -0.031014,0.00509 -0.040748,0.00737 -0.01292,0.00303 -0.020763,0.00438 -0.034903,0.00598 -0.0072,8.162e-4 -0.019054,0.00237 -0.026336,0.00347 -0.00728,0.00108 -0.019199,0.00256 -0.026482,0.00326 -0.00728,7.057e-4 -0.013241,0.00155 -0.013241,0.00188 0,3.245e-4 -0.00596,0.00106 -0.013241,0.00164 -0.018821,0.00149 -0.057252,0.00503 -0.072825,0.0067 -0.014604,0.00157 -0.2260226,0.00444 -0.2274902,0.00309 z M 2.2488737,3.8592244 C 2.5563897,3.8368775 2.8415672,3.73944 3.0946416,3.5702487 3.2520051,3.4650442 3.4044692,3.3196602 3.522245,3.1625019 3.742332,2.8688215 3.862592,2.5044727 3.862592,2.1313602 3.862592,1.7912777 3.7653667,1.4657271 3.5789386,1.1815722 3.4707743,1.0167073 3.3248455,0.86213712 3.1625016,0.74047501 2.8688213,0.52038808 2.5044725,0.40012834 2.13136,0.40012834 c -0.3400826,0 -0.6656332,0.0972253 -0.9497881,0.28365333 C 1.016643,0.79198794 0.86341409,0.9366462 0.74019427,1.1004712 0.63569327,1.2394089 0.54685771,1.4098708 0.48932087,1.5818593 0.40669857,1.8288343 0.38108578,2.0874801 0.41343533,2.3481813 0.44574639,2.608569 0.53821804,2.8592799 0.68378105,3.0811482 0.7919453,3.2460131 0.93787402,3.4005833 1.1002178,3.5222452 1.3580783,3.7154884 1.678084,3.834465 2.0055702,3.8588513 c 0.054929,0.00409 0.1893151,0.0043 0.2433035,3.731e-4 z M 1.9426759,3.0979521 V 2.8794758 H 2.1611522 2.3796285 V 3.0979521 3.3164284 H 2.1611522 1.9426759 Z m 9.676e-4,-0.5255016 c 0.00185,-0.1075502 0.0052,-0.1445711 0.01864,-0.2058522 C 1.9881275,2.2487449 2.0311575,2.1702469 2.1248062,2.0701206 2.1746892,2.0167866 2.2096312,1.9849866 2.3134232,1.898463 2.5185735,1.7274447 2.5553086,1.6880602 2.5817984,1.6107324 2.6321497,1.4637498 2.5594992,1.3044002 2.4073946,1.2281959 2.3035447,1.176167 2.1465051,1.1677135 2.0254321,1.2076338 1.9903831,1.2191908 1.9397051,1.2458808 1.9092087,1.2688428 1.8231467,1.3336468 1.7662578,1.4273574 1.729423,1.5649972 1.724873,1.5820242 1.720703,1.5963022 1.720193,1.5967262 1.7196626,1.5971505 1.6253886,1.5858321 1.5106888,1.571575 1.3959887,1.5573179 1.2986731,1.545606 1.2944317,1.5455493 c -0.00752,-1.006e-4 -0.00766,-6.516e-4 -0.00553,-0.022448 0.017292,-0.1772969 0.088143,-0.326329 0.2153573,-0.4529949 0.097015,-0.0965971 0.2123125,-0.1649823 0.3452398,-0.20476915 0.162392,-0.0486063 0.3868277,-0.0563963 0.569855,-0.0197794 0.154572,0.0309236 0.2859145,0.0926273 0.3922641,0.18428096 0.1232421,0.1062119 0.2014173,0.2291324 0.2312405,0.3635956 0.035681,0.1608723 0.00908,0.3100557 -0.078752,0.4415406 -0.062602,0.093722 -0.1640974,0.196072 -0.357724,0.3607333 C 2.5296084,2.260998 2.4630057,2.3258735 2.436259,2.3614214 2.392376,2.4197444 2.378449,2.475571 2.37412,2.6105174 L 2.37197,2.6775494 H 2.156901 1.9418358 Z"
       id="path2718" />
  </g>
</svg>
