<?xml version="1.0" encoding="UTF-8"?>
<!-- Generator: Adobe Illustrator 19.1.0, SVG Export Plug-In . SVG Version: 6.00 Build 0)  -->
<!DOCTYPE svg PUBLIC "-//W3C//DTD SVG 1.0//EN" "http://www.w3.org/TR/2001/REC-SVG-20010904/DTD/svg10.dtd">
<svg version="1.0" id="Layer_1" xmlns="http://www.w3.org/2000/svg" xmlns:xlink="http://www.w3.org/1999/xlink" x="0px" y="0px" viewBox="0 0 33.1 35" style="enable-background:new 0 0 33.1 35;" xml:space="preserve">
<style type="text/css">
	.st0{fill:#C18C6F;}
	.st1{fill:#FFFFFF;}
	.st2{fill:#E20613;}
	.st3{fill:#1D1D1B;}
</style>
<g>
	<path class="st1" d="M23.5,0.9H9.6C4.3,0.9,0,5.2,0,10.6v13.9c0,5.3,4.3,9.6,9.6,9.6h13.8c5.3,0,9.6-4.3,9.6-9.6V10.6   C33.1,5.2,28.8,0.9,23.5,0.9z M30.1,24.4c0,3.6-3,6.6-6.6,6.6H9.6C6,31,3,28.1,3,24.4V10.6C3,6.9,6,4,9.6,4h13.8   c3.6,0,6.6,3,6.6,6.6V24.4z"/>
	<circle class="st1" cx="25.4" cy="8.7" r="2"/>
	<path class="st1" d="M16.5,9C11.8,9,8,12.8,8,17.5s3.8,8.5,8.5,8.5c4.7,0,8.5-3.8,8.5-8.5S21.2,9,16.5,9z M16.5,23   c-3,0-5.5-2.5-5.5-5.5c0-3,2.5-5.5,5.5-5.5s5.5,2.5,5.5,5.5C22,20.6,19.6,23,16.5,23z"/>
</g>
<style xmlns="" type="text/css" id="YouTubeAdBlocker">body:not(.allowAdsOnThisBody) .ad-container, body:not(.allowAdsOnThisBody) #google_companion_ad_div, body:not(.allowAdsOnThisBody) .iv-promo, body:not(.allowAdsOnThisBody) .iv-promo-video, body:not(.allowAdsOnThisBody) .contains-mute-button, body:not(.allowAdsOnThisBody) .video-annotations, body:not(.allowAdsOnThisBody) .ad-div, body:not(.allowAdsOnThisBody) #masthead-ad, body:not(.allowAdsOnThisBody) #video-masthead, body:not(.allowAdsOnThisBody) .video-masthead-v2, body:not(.allowAdsOnThisBody) ytd-compact-promoted-video-renderer, body:not(.allowAdsOnThisBody) #promotion-shelf, body:not(.allowAdsOnThisBody) .ytp-ad-progress-list, body:not(.allowAdsOnThisBody) .ad-created .annotation, body:not(.allowAdsOnThisBody) .ytp-cards-teaser, body:not(.allowAdsOnThisBody) #player-ads { display:none!important}</style></svg>