<?xml version="1.0" encoding="UTF-8" standalone="no"?>
<!-- Created with Inkscape (http://www.inkscape.org/) -->

<svg
   width="16"
   height="16"
   viewBox="0 0 4.2333332 4.2333335"
   version="1.1"
   id="svg5"
   inkscape:version="1.1 (c68e22c387, 2021-05-23)"
   sodipodi:docname="link_b.svg"
   xmlns:inkscape="http://www.inkscape.org/namespaces/inkscape"
   xmlns:sodipodi="http://sodipodi.sourceforge.net/DTD/sodipodi-0.dtd"
   xmlns="http://www.w3.org/2000/svg"
   xmlns:svg="http://www.w3.org/2000/svg">
  <sodipodi:namedview
     id="namedview7"
     pagecolor="#ffffff"
     bordercolor="#666666"
     borderopacity="1.0"
     inkscape:pageshadow="2"
     inkscape:pageopacity="0.0"
     inkscape:pagecheckerboard="0"
     inkscape:document-units="mm"
     showgrid="false"
     units="px"
     width="16px"
     inkscape:zoom="18.586756"
     inkscape:cx="7.9088573"
     inkscape:cy="14.983787"
     inkscape:window-width="1600"
     inkscape:window-height="837"
     inkscape:window-x="-8"
     inkscape:window-y="-8"
     inkscape:window-maximized="1"
     inkscape:current-layer="layer1" />
  <defs
     id="defs2">
    <pattern
       id="EMFhbasepattern"
       patternUnits="userSpaceOnUse"
       width="6"
       height="6"
       x="0"
       y="0" />
    <pattern
       id="EMFhbasepattern-1"
       patternUnits="userSpaceOnUse"
       width="6"
       height="6"
       x="0"
       y="0" />
    <pattern
       id="EMFhbasepattern-2"
       patternUnits="userSpaceOnUse"
       width="6"
       height="6"
       x="0"
       y="0" />
  </defs>
  <g
     inkscape:label="Слой 1"
     inkscape:groupmode="layer"
     id="layer1">
    <path
       style="fill:#000000;stroke-width:0.0165048;fill-opacity:1"
       d="M 0.73522631,3.9810471 C 0.58847128,3.9752668 0.27683183,3.8186572 0.27501306,3.5172231 V 2.1390671 0.76091115 c 0.0231539,-0.17546898 0.0873071,-0.28380188 0.24686147,-0.391819 0.1362378,-0.07374 0.29518288,-0.08084 1.01044497,-0.07538 0.6446129,0.0049 0.6644319,0.006 0.7096976,0.03985 0.025611,0.01913 0.057189,0.06269 0.070171,0.0968 0.020467,0.05377 0.020468,0.0709 1.14e-5,0.128771 -0.012977,0.03671 -0.044549,0.08228 -0.070161,0.101255 -0.045079,0.0334 -0.068986,0.03477 -0.7481339,0.04276 l -0.70156719,0.0083 -0.056478,0.06165 -0.056478,0.06165 v 1.31431995 1.31432 l 0.064078,0.06408 0.064078,0.06408 H 2.1218577 3.436178 l 0.061651,-0.05648 0.061651,-0.05648 0.00825,-0.701563 c 0.00801,-0.681135 0.00927,-0.702918 0.043035,-0.748121 0.01913,-0.02561 0.062692,-0.05718 0.096803,-0.07016 0.053775,-0.02047 0.070895,-0.02047 0.1287709,-1.2e-5 0.036713,0.01298 0.082278,0.04457 0.1012555,0.07021 0.033765,0.04562 0.034505,0.06208 0.034505,0.767476 v 0.720856 c -0.059051,0.2638167 -0.321357,0.4648839 -0.478641,0.478644 l -1.3368935,0.003 c -1.0254957,0.0023 -1.35656339,-0.0019 -1.42134049,-0.01777 z M 2.0381524,2.3295441 c -0.084596,-0.0368 -0.1359374,-0.143588 -0.1133992,-0.235869 0.00736,-0.03012 0.2363437,-0.271089 0.6809075,-0.716524 l 0.6698222,-0.67113495 -0.1993314,-0.0056 c -0.2299817,-0.0064 -0.2755069,-0.02678 -0.315994,-0.141324 -0.020457,-0.05788 -0.020455,-0.075 1.14e-5,-0.128771 0.012983,-0.03411 0.044554,-0.07767 0.070158,-0.0968 0.044397,-0.03317 0.068084,-0.03499 0.5116393,-0.03927 0.6797719,-0.0066 0.6411907,-0.04515 0.6346265,0.63462697 -0.00427,0.44220198 -0.00619,0.46737798 -0.038996,0.51164998 -0.018978,0.02561 -0.064543,0.05718 -0.1012555,0.07016 -0.057876,0.02046 -0.074996,0.02045 -0.1287709,-1.1e-5 -0.1106935,-0.04213 -0.130799,-0.08848 -0.1371534,-0.316172 L 3.5648469,0.99498412 2.9019683,1.6570221 c -0.3645833,0.36412 -0.6837869,0.669808 -0.7093416,0.679307 -0.060176,0.02237 -0.090463,0.02103 -0.1544758,-0.0068 z"
       id="path1237"
       sodipodi:nodetypes="ccccccccccccccccccccccssccsscccccccscccsccsscccccccc" />
  </g>
</svg>
