<?xml version="1.0" encoding="UTF-8" standalone="no"?>
<!-- Created with Inkscape (http://www.inkscape.org/) -->

<svg
   width="32"
   height="32"
   viewBox="0 0 8.4666665 8.4666666"
   version="1.1"
   id="svg1913"
   xml:space="preserve"
   inkscape:version="1.2.1 (9c6d41e410, 2022-07-14)"
   sodipodi:docname="lists.svg"
   xmlns:inkscape="http://www.inkscape.org/namespaces/inkscape"
   xmlns:sodipodi="http://sodipodi.sourceforge.net/DTD/sodipodi-0.dtd"
   xmlns="http://www.w3.org/2000/svg"
   xmlns:svg="http://www.w3.org/2000/svg"><sodipodi:namedview
     id="namedview1915"
     pagecolor="#505050"
     bordercolor="#ffffff"
     borderopacity="1"
     inkscape:showpageshadow="0"
     inkscape:pageopacity="0"
     inkscape:pagecheckerboard="1"
     inkscape:deskcolor="#505050"
     inkscape:document-units="mm"
     showgrid="false"
     inkscape:zoom="29.276992"
     inkscape:cx="21.808934"
     inkscape:cy="17.368588"
     inkscape:window-width="2560"
     inkscape:window-height="1351"
     inkscape:window-x="-9"
     inkscape:window-y="1341"
     inkscape:window-maximized="1"
     inkscape:current-layer="layer1" /><defs
     id="defs1910" /><g
     inkscape:label="Слой 1"
     inkscape:groupmode="layer"
     id="layer1"><rect
       style="fill:#000000;stroke:#366432;stroke-width:0.00183218;stop-color:#000000"
       id="rect3915"
       width="3.1942005"
       height="0.54576671"
       x="3.4265199"
       y="2.1051936" /><rect
       style="fill:#000000;stroke:#366432;stroke-width:0.00183218;stop-color:#000000"
       id="rect3861"
       width="1.0470521"
       height="1.0021832"
       x="1.8819603"
       y="1.8909451" /><rect
       style="fill:#000000;stroke:#366432;stroke-width:0.00183218;stop-color:#000000"
       id="rect3915-2"
       width="3.1942005"
       height="0.54576671"
       x="3.4266925"
       y="3.9617343" /><rect
       style="fill:#000000;stroke:#366432;stroke-width:0.00183218;stop-color:#000000"
       id="rect3861-9"
       width="1.0470521"
       height="1.0021832"
       x="1.8821319"
       y="3.7474837" /><rect
       style="fill:#000000;stroke:#366432;stroke-width:0.00183218;stop-color:#000000"
       id="rect3915-2-4"
       width="3.1942005"
       height="0.54576671"
       x="3.420486"
       y="5.8224254" /><rect
       style="fill:#000000;stroke:#366432;stroke-width:0.00183218;stop-color:#000000"
       id="rect3861-9-3"
       width="1.0470521"
       height="1.0021832"
       x="1.8759273"
       y="5.6081748" /><path
       style="fill:#000000;stroke-width:0.0165151"
       d="m 1.5744148,8.4360278 c -0.93133097,-0.120151 -1.65584097,-1.050346 -1.55855097,-1.982326 -0.0083,-1.64886 -0.04257,-3.300691 0.0263,-4.947687 0.155325,-0.90013997 1.06195597,-1.58545797 1.97084697,-1.49015097 1.648851,-0.0083 3.300675,-0.04257 4.947662,0.0263 0.900136,0.155327 1.5854517,1.06196197 1.4901446,1.97085697 0.00828,1.648836 0.042563,3.300644 -0.026296,4.947615 -0.1552736,0.899596 -1.0611146,1.585679 -1.9698516,1.489565 -1.626708,0.01393 -3.253805,0.02622 -4.880256,-0.01417 z m 5.250153,-0.520674 c 0.686,-0.09744 1.198931,-0.800461 1.099807,-1.483456 0.0036,-1.616589 0.03231,-3.235869 -0.01979,-4.850774 -0.129003,-0.65766597 -0.810725,-1.13372097 -1.472721,-1.03881297 -1.616581,-0.0036 -3.235853,-0.03231 -4.850751,0.01979 -0.65766197,0.129003 -1.13371497,0.81072897 -1.03880797,1.47272797 -0.0035,1.616269 -0.03252,3.235332 0.01993,4.849852 0.129778,0.648974 0.79591097,1.133695 1.45483397,1.037996 1.602478,0.0091 3.205115,0.01791 4.807498,-0.0073 z"
       id="path3758"
       sodipodi:nodetypes="cccccccccccccccccc" /></g></svg>
