<?xml version="1.0" encoding="UTF-8" standalone="no"?>
<!-- Created with Inkscape (http://www.inkscape.org/) -->

<svg
   width="160"
   height="65"
   viewBox="0 0 42.333332 17.197917"
   version="1.1"
   id="svg5"
   sodipodi:docname="logo_z.svg"
   inkscape:version="1.1 (c68e22c387, 2021-05-23)"
   xmlns:inkscape="http://www.inkscape.org/namespaces/inkscape"
   xmlns:sodipodi="http://sodipodi.sourceforge.net/DTD/sodipodi-0.dtd"
   xmlns="http://www.w3.org/2000/svg"
   xmlns:svg="http://www.w3.org/2000/svg">
  <sodipodi:namedview
     id="namedview7"
     pagecolor="#ffffff"
     bordercolor="#666666"
     borderopacity="1.0"
     inkscape:pageshadow="2"
     inkscape:pageopacity="0.0"
     inkscape:pagecheckerboard="0"
     inkscape:document-units="mm"
     showgrid="false"
     units="px"
     inkscape:zoom="3.3360996"
     inkscape:cx="75.837064"
     inkscape:cy="70.891168"
     inkscape:window-width="1600"
     inkscape:window-height="847"
     inkscape:window-x="-8"
     inkscape:window-y="-8"
     inkscape:window-maximized="1"
     inkscape:current-layer="layer1" />
  <defs
     id="defs2">
    <marker
       id="DistanceX"
       orient="auto"
       refX="0"
       refY="0"
       style="overflow:visible">
      <path
         d="M 3,-3 -3,3 M 0,-5 V 5"
         style="stroke:#000000;stroke-width:0.5"
         id="path826" />
    </marker>
    <pattern
       id="Hatch"
       patternUnits="userSpaceOnUse"
       width="8"
       height="8"
       x="0"
       y="0">
      <path
         d="M8 4 l-4,4"
         stroke="#000000"
         stroke-width="0.25"
         linecap="square"
         id="path829" />
      <path
         d="M6 2 l-4,4"
         stroke="#000000"
         stroke-width="0.25"
         linecap="square"
         id="path831" />
      <path
         d="M4 0 l-4,4"
         stroke="#000000"
         stroke-width="0.25"
         linecap="square"
         id="path833" />
    </pattern>
    <pattern
       id="EMFhbasepattern"
       patternUnits="userSpaceOnUse"
       width="6"
       height="6"
       x="0"
       y="0" />
    <pattern
       id="EMFhbasepattern-3"
       patternUnits="userSpaceOnUse"
       width="6"
       height="6"
       x="0"
       y="0" />
    <pattern
       id="EMFhbasepattern-5"
       patternUnits="userSpaceOnUse"
       width="6"
       height="6"
       x="0"
       y="0" />
    <pattern
       id="EMFhbasepattern-0"
       patternUnits="userSpaceOnUse"
       width="6"
       height="6"
       x="0"
       y="0" />
  </defs>
  <g
     inkscape:label="Слой 1"
     inkscape:groupmode="layer"
     id="layer1">
    <g
       id="g854"
       transform="scale(0.26458333)">
      <g
         inkscape:label="Âåêòîðíûé ñëîé 1"
         id="g838" />
      <g
         inkscape:label="0"
         id="g840" />
    </g>
    <path
       style="fill:#ffffff;fill-opacity:1;stroke:none;stroke-width:0.0889353px;stroke-linecap:round;stroke-linejoin:round;stroke-miterlimit:4;stroke-dasharray:none;stroke-opacity:1"
       d="M 28.637256,10.825234 27.392158,9.5801359 c 0,0 -0.08893,0 -0.08893,0 -0.08893,0 -0.177871,0 -0.177871,0 L 26.147066,10.825234 H 23.65687 c -0.08893,0 -0.177871,0.08893 -0.177871,0.17787 L 22.144963,15.805626 20.899865,5.0444233 c 0,-0.177871 -0.08893,-0.177871 -0.17787,-0.177871 -0.08893,0 -0.177871,0 -0.177871,0.08893 L 18.765412,11.625647 17.964991,9.6690646 c 0,-0.08893 -0.08893,-0.08893 -0.17787,-0.08893 0,0 -0.08893,0 -0.177873,0.08893 L 16.808831,10.825227 H 0.17787134 C 0.08893564,10.825227 0,10.914157 0,11.092033 c 0,0.08893 0.0889347,0.177872 0.17787134,0.177872 H 16.897759 c 0,0 0,0 0,0 0.08893,0 0.177872,0 0.177872,-0.08893 l 0.711485,-0.978292 0.80042,2.134453 c 0,0.08893 0.08893,0.08893 0.177871,0.08893 0.08893,0 0.177871,0 0.177871,-0.08893 l 1.689776,-6.2254873 1.245098,10.8501373 c 0,0.08893 0.08893,0.177873 0.17787,0.177873 0.08893,0 0.177873,-0.08893 0.177873,-0.177873 l 1.600839,-5.691876 h 2.401262 c 0,0 0.08893,0 0.177871,-0.08893 l 0.889356,-1.15616 1.156163,1.15616 c 0,0.08893 0.08893,0.08893 0.08893,0.08893 h 13.607148 c 0.08893,0 0.17787,-0.08893 0.17787,-0.177871 0,-0.177872 -0.08893,-0.266808 -0.17787,-0.266808 H 28.637256"
       id="path1468" />
  </g>
</svg>
