<?xml version="1.0" encoding="UTF-8" standalone="no"?>
<!-- Created with Inkscape (http://www.inkscape.org/) -->

<svg
   width="48"
   height="48"
   viewBox="0 0 12.7 12.7"
   version="1.1"
   id="svg5"
   xml:space="preserve"
   inkscape:version="1.2.1 (9c6d41e410, 2022-07-14)"
   sodipodi:docname="mediaversitysvg.svg"
   xmlns:inkscape="http://www.inkscape.org/namespaces/inkscape"
   xmlns:sodipodi="http://sodipodi.sourceforge.net/DTD/sodipodi-0.dtd"
   xmlns="http://www.w3.org/2000/svg"
   xmlns:svg="http://www.w3.org/2000/svg"><sodipodi:namedview
     id="namedview7"
     pagecolor="#505050"
     bordercolor="#ffffff"
     borderopacity="1"
     inkscape:showpageshadow="0"
     inkscape:pageopacity="0"
     inkscape:pagecheckerboard="1"
     inkscape:deskcolor="#505050"
     inkscape:document-units="mm"
     showgrid="false"
     inkscape:zoom="32"
     inkscape:cx="30.265625"
     inkscape:cy="22.984375"
     inkscape:window-width="2560"
     inkscape:window-height="1351"
     inkscape:window-x="-9"
     inkscape:window-y="-9"
     inkscape:window-maximized="1"
     inkscape:current-layer="layer1" /><defs
     id="defs2" /><g
     inkscape:label="Слой 1"
     inkscape:groupmode="layer"
     id="layer1"><g
       id="g4238"
       transform="matrix(1.1601273,0,0,1.4127926,-0.79407279,-2.8334176)"><path
         style="fill:#f39ec2;stroke-width:0.0635756"
         d="m 4.668836,4.9370763 c 0,-0.04952 1.5832854,-0.529958 2.1074754,-0.638308 1.329022,-0.274708 2.070335,-0.221844 2.493624,-0.09955 0.398936,0.115256 1.0002936,0.366833 1.2891316,0.613235 l 0.190727,0.162706 -0.493676,0.01641 c -0.5637586,0.01874 -0.6829306,-0.07851 -0.9452066,-0.07796 -0.43645,9.13e-4 -0.137916,0.04721 -1.265591,0.06573 -1.127674,0.01851 -3.3764844,-0.02523 -3.3764844,-0.04226 z"
         id="path4213"
         sodipodi:nodetypes="sssscssss" /><path
         style="fill:#6dcdeb;stroke-width:0.0635756"
         d="M 4.9326148,8.1816363 C 4.4955317,8.0285203 3.9519591,7.8301993 3.7246759,7.7409223 l -0.7072801,-0.263644 2.6940218,0.05649 c 1.3737158,-0.0018 2.3480048,0.0082 2.3480048,0.04077 0,0.03132 0.19558,0.203886 0.371093,0.316512 0.582225,0.373613 1.271224,0.368335 1.8384686,-0.06479 0.238949,-0.182451 0.143448,-0.1864781 0.335583,-0.181351 l 0.529353,0.014126 c -0.265275,0.354822 -0.466388,0.5453427 -0.834626,0.8034057 l -2.2859916,-0.0012 -2.2859909,-0.0012 z"
         id="path4211"
         sodipodi:nodetypes="csccssssccccc" /><path
         style="fill:#f2b117;stroke-width:0.0635756"
         d="m 0.87226617,6.5785763 c -0.1177095,-0.05136 -0.2013923,-0.106002 -0.1859623,-0.121432 0.015431,-0.01543 0.36801903,-0.157036 0.78353093,-0.314679 L 2.225311,5.8558423 h 2.7825323 2.7825321 l -0.062,0.163078 c -0.0341,0.08969 -0.062,0.275651 -0.062,0.413242 v 0.250164 l -3.2507087,0.03415 c -2.0085929,0.0211 -3.0357661,0.03313 -3.2520787,-0.02851 -0.1312845,-0.03741 -0.24338433,-0.08848 -0.29131783,-0.109391 z M 10.972309,6.4321623 c 0,-0.137591 -0.0279,-0.32355 -0.062,-0.413242 -0.02552,-0.06712 -0.06427,-0.151333 -0.0668,-0.187497 -0.0025,-0.0361 0.123356,0.02442 0.277709,0.02442 h 0.272907 l 0.110392,0.350205 c 0.06072,0.192614 0.114244,0.369408 0.126422,0.47666 -0.0899,0.01035 -0.220999,-3.85e-4 -0.376286,-3.85e-4 h -0.282338 z"
         id="path4209"
         sodipodi:nodetypes="csscccsscssccsssscscscs" /><path
         style="fill:#eb5d56;stroke-width:0.0635756"
         d="m 3.4455352,5.3917803 1.2148891,-0.457787 1.9956851,0.01886 c 1.479468,0.01398 2.310976,-0.02528 2.205696,-0.0049 -0.476742,0.0924 -0.879936,0.542033 -0.979976,0.733034 l -0.09157,0.174833 -2.7798055,-0.0031 -2.7917259,0.0068 z m 7.3113158,0.289228 c -0.09956,-0.190084 -0.563454,-0.6532 -1.0698846,-0.720017 -0.11791,-0.01556 0.3695496,0.0083 0.6853726,0.0067 0.339559,-0.0017 0.335487,-0.05661 0.48027,0.0974 0.170609,0.18149 0.536263,0.719481 0.536678,0.802644 1.27e-4,0.02623 -0.149225,-0.01192 -0.288194,-0.01192 -0.103897,0 -0.172374,0.03673 -0.222233,0.01222 -0.05143,-0.02528 -0.08317,-0.112907 -0.122009,-0.187056 z"
         id="path4207"
         sodipodi:nodetypes="ccsssccccsssscsss" /><path
         style="fill:#0ba4df;stroke-width:0.0635756"
         d="m 7.3967814,8.8417803 c -0.460055,-0.07746 -1.6595362,-0.346622 -1.6595362,-0.376605 0,-0.01461 1.1280802,-0.0027 2.3247262,-0.0027 1.487027,0 2.2384576,-0.07667 2.2299006,9.62e-4 -0.0051,0.04598 -0.3860966,0.199885 -0.7409826,0.309498 -0.342815,0.105885 -0.586681,0.132971 -1.1442,0.127087 -0.389692,-0.0041 -0.84415,-0.03031 -1.009908,-0.05822 z"
         id="path4205"
         sodipodi:nodetypes="sssssss" /><path
         style="fill:#52ba6b;stroke-width:0.0635756"
         d="m 10.577823,7.5393553 c 0.198229,-0.203059 0.356845,-0.564059 0.395202,-0.858419 0.04621,-7.69e-4 0.191343,1.76e-4 0.297522,1.76e-4 0.265368,0 0.360998,0.0021 0.360998,0.0021 -0.129346,0.4278508 -0.238234,0.6366644 -0.49686,0.9768606 -0.113794,0.00526 -0.158084,-0.0024 -0.253827,-0.0024 -0.151732,0 -0.284707,0.0061 -0.373585,0.01323 -0.09304,0.0075 -0.04027,0.009 0.07055,-0.131534 z M 2.9935551,7.4733743 C 2.888655,7.4233903 2.4309098,7.2262613 1.9763433,7.0353113 l -0.8264845,-0.347182 3.2533259,-0.0029 3.2533257,-0.0029 c 0.053153,0.3397329 0.1821583,0.6168597 0.401689,0.890061 l -2.4369572,-0.0041 c -1.9750676,-0.0033 -2.4731065,-0.02129 -2.6276841,-0.09495 z"
         id="path4203"
         sodipodi:nodetypes="cccccssscscccccccs" /></g></g></svg>
