<?xml version="1.0" encoding="UTF-8" standalone="no"?>
<!-- Created with Inkscape (http://www.inkscape.org/) -->

<svg
   width="32"
   height="32"
   viewBox="0 0 8.4666665 8.4666669"
   version="1.1"
   id="svg5"
   inkscape:version="1.1 (c68e22c387, 2021-05-23)"
   sodipodi:docname="movie.svg"
   xmlns:inkscape="http://www.inkscape.org/namespaces/inkscape"
   xmlns:sodipodi="http://sodipodi.sourceforge.net/DTD/sodipodi-0.dtd"
   xmlns="http://www.w3.org/2000/svg"
   xmlns:svg="http://www.w3.org/2000/svg">
  <sodipodi:namedview
     id="namedview7"
     pagecolor="#ffffff"
     bordercolor="#666666"
     borderopacity="1.0"
     inkscape:pageshadow="2"
     inkscape:pageopacity="0.0"
     inkscape:pagecheckerboard="0"
     inkscape:document-units="mm"
     showgrid="false"
     units="px"
     width="32px"
     inkscape:zoom="9.2933782"
     inkscape:cx="10.76035"
     inkscape:cy="11.674979"
     inkscape:window-width="1600"
     inkscape:window-height="837"
     inkscape:window-x="1912"
     inkscape:window-y="174"
     inkscape:window-maximized="1"
     inkscape:current-layer="layer1" />
  <defs
     id="defs2" />
  <g
     inkscape:label="Слой 1"
     inkscape:groupmode="layer"
     id="layer1">
    <path
       style="fill:#000000;stroke-width:0.0165585"
       d="m 0.57291021,7.9293847 c -0.129907,-0.0221 -0.255336,-0.0904 -0.361976,-0.197 -0.10851,-0.10851 -0.171364,-0.22559 -0.197757,-0.36837 -0.01094,-0.0592 -0.01518,-1.14598 -0.0122999961,-3.15264 l 0.004399996,-3.06232 0.03784,-0.0936 c 0.07386,-0.18268004 0.231889,-0.34110004 0.413342,-0.41437004 l 0.09525,-0.0385 h 3.68426499 3.684265 l 0.0936,0.0378 c 0.182683,0.0739 0.341105,0.23189 0.414374,0.41334004 l 0.03846,0.0953 v 3.12128 3.12127 l -0.03846,0.0952 c -0.07327,0.18145 -0.231691,0.33948 -0.414374,0.41334 l -0.0936,0.0378 -3.634589,0.002 c -1.999024,0.001 -3.66975603,-0.004 -3.71273799,-0.011 z m 0.98510899,-0.59545 c 0.119723,-0.0821 0.127945,-0.11589 0.127945,-0.52582 0,-0.3509 -0.0013,-0.36569 -0.03765,-0.41959 -0.0902,-0.13385 -0.174861,-0.15423 -0.603574,-0.1453 -0.27166403,0.006 -0.28228803,0.007 -0.34737103,0.0503 -0.12208496,0.0808 -0.13738196,0.13828 -0.13738196,0.51603 0,0.40901 0.01987,0.47111 0.17386396,0.54326 0.05926,0.0278 0.102966,0.0306 0.41522803,0.0266 0.341019,-0.004 0.350364,-0.005 0.40894,-0.0455 z m 4.520422,0 c 0.033,-0.0226 0.07716,-0.071 0.09813,-0.10763 l 0.03814,-0.0665 0.0047,-1.14223 c 0.0031,-0.7512 -0.0012,-1.16992 -0.01265,-1.2231 -0.02271,-0.10592 -0.07237,-0.1731 -0.155981,-0.21108 -0.06481,-0.0294 -0.14654,-0.0308 -1.814793,-0.0308 -1.668253,0 -1.749977,10e-4 -1.814793,0.0308 -0.08362,0.038 -0.133267,0.10516 -0.155981,0.21108 -0.01141,0.0532 -0.01574,0.4719 -0.01265,1.2231 0.0043,1.05357 0.0069,1.14637 0.03382,1.19552 0.03925,0.0718 0.109208,0.13483 0.169573,0.15279 0.02803,0.008 0.815089,0.0136 1.806095,0.012 l 1.756419,-0.003 z m 1.659652,0.0182 c 0.153715,-0.0706 0.173865,-0.13347 0.173865,-0.54264 0,-0.37775 -0.0153,-0.43521 -0.137383,-0.51603 -0.06508,-0.0431 -0.07571,-0.0446 -0.34737,-0.0503 -0.428713,-0.009 -0.513373,0.0114 -0.603574,0.1453 -0.03635,0.0539 -0.03765,0.0685 -0.03759,0.42184 5e-5,0.34117 0.0024,0.3698 0.03442,0.42234 0.04336,0.0711 0.09255,0.11287 0.155944,0.13236 0.02732,0.008 0.194976,0.0158 0.372566,0.0164 0.279808,9.7e-4 0.331728,-0.003 0.389124,-0.0293 z m -6.1833,-1.71203 c 0.03073,-0.0207 0.07281,-0.0628 0.09352,-0.0935 0.03632,-0.0539 0.03765,-0.0687 0.03765,-0.41935 0,-0.41399 -0.0079,-0.44799 -0.121427,-0.52312 l -0.06658,-0.0441 H 1.1215782 0.74520017 l -0.06189,0.0501 c -0.11980496,0.097 -0.12501996,0.11972 -0.11973696,0.52245 0.0046,0.34915 0.0056,0.35863 0.04561,0.41694 0.08243,0.12019 0.112007,0.12741 0.52375899,0.12784 0.353566,3.6e-4 0.367872,-9e-4 0.421847,-0.0373 z m 6.206168,0.004 c 0.03327,-0.0187 0.07899,-0.061 0.101606,-0.094 0.04081,-0.0596 0.04111,-0.0628 0.04111,-0.4364 v -0.37637 l -0.05009,-0.0619 c -0.09698,-0.1198 -0.11973,-0.12501 -0.522444,-0.11973 -0.355577,0.005 -0.35759,0.005 -0.423794,0.0488 -0.113479,0.0752 -0.121371,0.10917 -0.121371,0.52312 0,0.35065 0.0013,0.36545 0.03765,0.41935 0.02071,0.0307 0.06279,0.0728 0.09352,0.0935 0.0539,0.0363 0.06869,0.0377 0.419593,0.0377 0.33619,0 0.368303,-0.003 0.424217,-0.034 z m -6.196368,-1.70731 c 0.113479,-0.0752 0.121371,-0.10917 0.121371,-0.52312 0,-0.35064 -0.0013,-0.36545 -0.03765,-0.41934 -0.02071,-0.0307 -0.06279,-0.0728 -0.09352,-0.0935 -0.05391,-0.0363 -0.06866,-0.0377 -0.420393,-0.0377 -0.35839603,0 -0.36570303,6.9e-4 -0.43476103,0.0412 -0.04745,0.0278 -0.08179,0.065 -0.10586696,0.11476 -0.03364,0.0695 -0.03535,0.0934 -0.03057,0.42926 l 0.0051,0.35566 0.05009,0.0618 c 0.097,0.11976 0.119749,0.12497 0.52244399,0.11969 0.355576,-0.005 0.35759,-0.005 0.423793,-0.0487 z m 4.486172,0.0208 c 0.08361,-0.038 0.133267,-0.10516 0.155981,-0.21107 0.01141,-0.0532 0.01574,-0.47191 0.01265,-1.22311 l -0.0047,-1.14223 -0.03814,-0.0665 c -0.02098,-0.0366 -0.06514,-0.085 -0.09814,-0.10763 l -0.06,-0.0411 h -1.782465 -1.782464 l -0.06,0.0411 c -0.033,0.0226 -0.07716,0.071 -0.09814,0.10763 l -0.03814,0.0665 -0.0047,1.14223 c -0.0031,0.7512 0.0012,1.16992 0.01265,1.22311 0.02271,0.10591 0.07237,0.1731 0.155981,0.21107 0.06482,0.0294 0.14654,0.0308 1.814793,0.0308 1.668254,0 1.749978,-0.001 1.814794,-0.0308 z m 1.695452,8.3e-4 c 0.0315,-0.0169 0.07982,-0.0585 0.107372,-0.0926 l 0.05009,-0.0618 0.0053,-0.35512 c 0.005,-0.33631 0.0034,-0.35904 -0.03057,-0.42926 -0.02434,-0.0503 -0.05851,-0.0874 -0.10613,-0.1153 -0.06906,-0.0405 -0.07636,-0.0412 -0.43476,-0.0412 -0.351735,0 -0.366483,0.001 -0.420393,0.0376 -0.03073,0.0207 -0.07318,0.0633 -0.09435,0.0947 -0.0379,0.0562 -0.0384,0.0628 -0.03351,0.43841 0.0047,0.36432 0.0066,0.38363 0.04206,0.43331 0.0204,0.0286 0.06884,0.0677 0.10763,0.0869 0.06482,0.0321 0.09806,0.0349 0.410243,0.0349 0.299267,1e-5 0.346527,-0.004 0.396989,-0.0307 z m -6.285074,-1.6741 c 0.07892,-0.0183 0.138026,-0.0602 0.187565,-0.133 0.03584,-0.0527 0.03726,-0.0685 0.03726,-0.41847 0,-0.40992 -0.0082,-0.44371 -0.127943,-0.52582 -0.05815,-0.0399 -0.0699,-0.0413 -0.392382,-0.0466 -0.35011003,-0.006 -0.41773703,0.003 -0.49786003,0.0663 -0.09342,0.0735 -0.10702696,0.13695 -0.10742896,0.50112 -3.34e-4,0.3012 0.0027,0.33632 0.03418,0.40143 0.03813,0.0788 0.10725696,0.13619 0.18676096,0.15515 0.07473,0.0178 0.60292503,0.0178 0.67985703,-1.1e-4 z m 6.313449,-0.0369 c 0.122452,-0.0811 0.137423,-0.13786 0.137002,-0.51963 -3.83e-4,-0.36417 -0.01401,-0.42763 -0.107428,-0.50112 -0.08012,-0.063 -0.147751,-0.072 -0.49786,-0.0663 -0.322482,0.005 -0.334233,0.007 -0.392382,0.0466 -0.119722,0.0821 -0.127944,0.1159 -0.127944,0.52582 0,0.34994 0.0014,0.3658 0.03726,0.41847 0.0475,0.0698 0.109144,0.11533 0.180037,0.133 0.03076,0.008 0.201784,0.0125 0.38006,0.0108 0.321537,-0.003 0.324678,-0.004 0.391258,-0.0476 z"
       id="path1394" />
  </g>
</svg>
