<?xml version="1.0" encoding="UTF-8" standalone="no"?>
<!-- Created with Inkscape (http://www.inkscape.org/) -->

<svg
   width="34"
   height="34"
   viewBox="0 0 8.9958331 8.9958333"
   version="1.1"
   id="svg5"
   xml:space="preserve"
   inkscape:version="1.2.1 (9c6d41e410, 2022-07-14)"
   sodipodi:docname="recycle.svg"
   xmlns:inkscape="http://www.inkscape.org/namespaces/inkscape"
   xmlns:sodipodi="http://sodipodi.sourceforge.net/DTD/sodipodi-0.dtd"
   xmlns="http://www.w3.org/2000/svg"
   xmlns:svg="http://www.w3.org/2000/svg"><sodipodi:namedview
     id="namedview7"
     pagecolor="#505050"
     bordercolor="#ffffff"
     borderopacity="1"
     inkscape:showpageshadow="0"
     inkscape:pageopacity="0"
     inkscape:pagecheckerboard="1"
     inkscape:deskcolor="#505050"
     inkscape:document-units="mm"
     showgrid="false"
     inkscape:zoom="20.70196"
     inkscape:cx="15.892215"
     inkscape:cy="25.335766"
     inkscape:window-width="2560"
     inkscape:window-height="1351"
     inkscape:window-x="-9"
     inkscape:window-y="-9"
     inkscape:window-maximized="1"
     inkscape:current-layer="layer1" /><defs
     id="defs2"><linearGradient
       id="linearGradient1283"
       inkscape:swatch="solid"><stop
         style="stop-color:#000000;stop-opacity:1;"
         offset="0"
         id="stop1281" /></linearGradient></defs><g
     inkscape:label="Слой 1"
     inkscape:groupmode="layer"
     id="layer1"><path
       id="path356-3"
       style="font-variation-settings:normal;opacity:1;fill:#ffffff;fill-opacity:1;stroke:#366432;stroke-width:0.308323;stroke-linecap:butt;stroke-linejoin:miter;stroke-miterlimit:4;stroke-dasharray:none;stroke-dashoffset:0;stroke-opacity:1;stop-color:#000000;stop-opacity:1"
       d="M 4.5071829,0.5152276 C 3.4761047,0.51592343 2.5240539,0.88211318 1.7876588,1.4948523 1.5672405,1.318975 0.34477948,0.37668724 0.34477948,0.37668724 L 0.33362397,4.2774316 4.4308232,3.4929093 c 0,0 -0.3864348,-0.2544735 -1.4744326,-1.0535644 0.4638275,-0.4223483 0.9503898,-0.4468428 1.4958792,-0.4469899 1.4816217,-1e-6 2.6827144,1.1766867 2.6827135,2.6282037 9e-7,1.451517 -1.2010909,2.6282047 -2.6827135,2.6282047 C 3.3671298,7.2478589 2.3894128,6.6066051 1.9750855,5.6240565 L 0.55301666,6.0320347 C 1.1535858,7.6655593 2.7349198,8.7549992 4.5071829,8.7562073 6.8300743,8.7562147 8.7131512,6.9113995 8.7131437,4.6357056 8.7131381,2.360022 6.830065,0.51522015 4.5071829,0.5152276 Z"
       sodipodi:nodetypes="cccccccscccccc" /></g></svg>
