<?xml version="1.0" encoding="UTF-8" standalone="no"?>
<!-- Created with Inkscape (http://www.inkscape.org/) -->

<svg
   width="48"
   height="48"
   viewBox="0 0 12.7 12.7"
   version="1.1"
   id="svg5"
   xml:space="preserve"
   inkscape:version="1.2.1 (9c6d41e410, 2022-07-14)"
   sodipodi:docname="refresh.svg"
   xmlns:inkscape="http://www.inkscape.org/namespaces/inkscape"
   xmlns:sodipodi="http://sodipodi.sourceforge.net/DTD/sodipodi-0.dtd"
   xmlns="http://www.w3.org/2000/svg"
   xmlns:svg="http://www.w3.org/2000/svg"><sodipodi:namedview
     id="namedview7"
     pagecolor="#505050"
     bordercolor="#ffffff"
     borderopacity="1"
     inkscape:showpageshadow="0"
     inkscape:pageopacity="0"
     inkscape:pagecheckerboard="1"
     inkscape:deskcolor="#505050"
     inkscape:document-units="mm"
     showgrid="false"
     inkscape:zoom="14.638496"
     inkscape:cx="38.289453"
     inkscape:cy="31.594776"
     inkscape:window-width="2560"
     inkscape:window-height="1351"
     inkscape:window-x="-9"
     inkscape:window-y="-9"
     inkscape:window-maximized="1"
     inkscape:current-layer="layer1" /><defs
     id="defs2" /><g
     inkscape:label="Слой 1"
     inkscape:groupmode="layer"
     id="layer1"><path
       style="fill:#000000;stroke-width:0.0282222"
       d="M 7.4085,10.070053 V 7.4401068 l 0.087481,0.082888 c 0.048135,0.045588 0.4689551,0.4861159 0.9352038,0.9789466 0.4662587,0.4928307 0.8569597,0.8960558 0.8682245,0.8960558 0.033455,0 0.2590892,-0.2525391 0.4287295,-0.4797784 C 10.817455,7.4590891 10.846216,5.5396746 9.8018395,3.9990246 9.5564518,3.6370217 9.0505767,3.1366012 8.68619,2.8954138 8.3624783,2.6811399 7.9815541,2.4999762 7.6386683,2.3972213 L 7.4087796,2.3283346 7.4086697,1.2206124 c -6.99e-5,-0.60924715 0.00999,-1.10772225 0.021771,-1.10772225 0.074399,0 0.74595,0.18224026 0.994124,0.26979172 1.9972953,0.70461003 3.5328063,2.36252733 4.0499163,4.37276353 0.446726,1.7366467 0.171258,3.4579843 -0.788133,4.9247774 -0.201337,0.307826 -0.572115,0.7744292 -0.761548,0.9583762 -0.0713,0.0692 -0.129565,0.138981 -0.129565,0.155066 0,0.01609 0.422198,0.451591 0.93823,0.967791 L 12.671694,12.7 H 10.040127 7.4085599 Z m -2.5823342,2.41959 C 3.3500643,12.105903 2.1215776,11.286471 1.2277977,10.089444 0.60977447,9.2617324 0.21801489,8.3161576 0.0522693,7.2521043 -0.01733646,6.8054958 -0.01743632,5.8952762 0.0520496,5.4496026 0.22492553,4.3401877 0.65948717,3.3718957 1.3895288,2.4694435 1.5150988,2.3142227 1.6761407,2.1306023 1.7474042,2.061401 1.8187077,1.9922047 1.8769788,1.9224202 1.8769788,1.9063349 c 0,-0.016088 -0.4221984,-0.4515905 -0.93822974,-0.96779063 L 4.8940631e-4,0 H 2.6320465 5.2636135 v 2.6246664 c 0,1.4435665 -0.00599,2.6246663 -0.012283,2.6246663 -0.00699,0 -0.4273214,-0.4381497 -0.9345347,-0.9736657 C 3.8095822,3.7401501 3.3850669,3.3019993 3.3734327,3.3019993 c -0.034054,0 -0.2583602,0.2506716 -0.4293986,0.4797784 C 1.6820727,5.472167 1.8608207,7.7773132 3.3708961,9.2868724 3.8609826,9.776787 4.3905855,10.102895 5.0021875,10.291354 l 0.2606271,0.08031 4.294e-4,1.107724 c 3.196e-4,0.868139 -0.00699,1.107496 -0.034853,1.106677 -0.019374,-5.33e-4 -0.2003787,-0.04396 -0.4021655,-0.09642 z"
       id="path1772" /></g></svg>
