<?xml version="1.0" encoding="UTF-8" standalone="no"?>
<!-- Created with Inkscape (http://www.inkscape.org/) -->

<svg
   version="1.1"
   id="svg824"
   width="16"
   height="16"
   viewBox="0 0 16 16"
   sodipodi:docname="robot_w.svg"
   inkscape:version="1.1 (c68e22c387, 2021-05-23)"
   xmlns:inkscape="http://www.inkscape.org/namespaces/inkscape"
   xmlns:sodipodi="http://sodipodi.sourceforge.net/DTD/sodipodi-0.dtd"
   xmlns="http://www.w3.org/2000/svg"
   xmlns:svg="http://www.w3.org/2000/svg">
  <defs
     id="defs828" />
  <sodipodi:namedview
     id="namedview826"
     pagecolor="#ffffff"
     bordercolor="#666666"
     borderopacity="1.0"
     inkscape:pageshadow="2"
     inkscape:pageopacity="0.0"
     inkscape:pagecheckerboard="0"
     showgrid="false"
     inkscape:zoom="13.899068"
     inkscape:cx="13.526087"
     inkscape:cy="13.705955"
     inkscape:window-width="1600"
     inkscape:window-height="837"
     inkscape:window-x="-8"
     inkscape:window-y="-8"
     inkscape:window-maximized="1"
     inkscape:current-layer="g830" />
  <g
     inkscape:groupmode="layer"
     inkscape:label="Image"
     id="g830">
    <path
       style="fill:#000000"
       id="path2668"
       d="" />
    <path
       style="fill:#ffffff;stroke:none;stroke-width:0.0461494;fill-opacity:1"
       d="M 5.1139398,1.7381717 C 6.1988204,2.0574152 7.0471392,3.4761412 7.3291121,4.5071372 6.7198013,4.6203448 6.1088291,4.67281 5.5292847,4.9167594 5.2089892,5.0515581 4.8907797,5.4181268 4.5601469,5.4694489 c -0.586979,0.091049 -1.2516461,0.00688 -1.8459768,0.00688 -0.2975113,0 -0.6278997,-0.048649 -0.872528,0.1566306 -0.6684052,0.561087 -0.5581037,1.8810025 -0.5581037,2.6584825 0,1.876946 0.3369643,3.739125 0.6576294,5.584079 0.1066187,0.613467 0.3081809,1.224259 0.3576577,1.845977 H 13.974628 c 0.04823,-0.606263 0.253637,-1.201129 0.357658,-1.79982 0.29508,-1.698303 0.583975,-3.399742 0.65943,-5.1225853 C 15.031772,7.8850486 15.134733,6.7223138 14.650118,5.8917153 14.234219,5.17894 13.010613,5.430178 12.313249,5.430178 c -0.971307,0 -1.69756,-0.6548608 -2.6766668,-0.8268166 C 9.2442201,4.534427 8.4486503,4.6616362 8.1264812,4.4597432 7.8642607,4.2954543 7.7292275,3.5872516 7.5889333,3.3073055 7.236398,2.6040622 6.7214165,1.9333261 6.0830777,1.4686601 5.7902134,1.255473 5.4124805,1.1722972 5.1289292,0.96094943 4.5736271,0.54702968 4.2049995,0.04311804 3.4532391,0.4866311 2.0824124,1.2953892 3.6510126,3.3780011 4.8350128,2.2410261 4.9862721,2.0957756 5.0656999,1.9388871 5.1139398,1.7382232 M 4.9293422,7.4746007 C 7.2418435,7.1442092 7.7714542,10.756331 5.4369858,11.092713 3.0826594,11.431958 2.5796215,7.8103297 4.9293422,7.4746007 M 4.2832503,8.3215731 C 3.2710459,8.6388568 3.7651447,10.179643 4.790894,9.8697517 5.7841217,9.5696842 5.2646778,8.0139418 4.2832503,8.3215731 m 6.0455747,0.6621066 c 0,0.2541948 -0.02558,0.5111058 0.114589,0.7365497 0.310216,0.4989176 1.007441,0.4604796 1.332057,8.595e-4 0.160044,-0.2264066 0.131478,-0.4770946 0.122433,-0.7377014 h 1.015288 c 0,0.5100486 -0.0048,0.9533123 -0.319677,1.3844825 -0.668428,0.915193 -2.09823,0.998722 -2.8507424,0.137756 C 9.3607016,10.068499 9.2708945,9.5431852 9.3135362,8.9833875 h 1.0152888 m -0.04614,3.5996585 c 0,0.692886 0.008,1.38517 -1.85e-4,2.076725 -0.0032,0.270061 -0.01832,0.599292 -0.276712,0.738388 C 9.8453178,14.893053 9.8725002,14.440515 9.9134805,13.921382 H 5.9907788 v -1.338336 z"
       id="path2960" />
  </g>
</svg>
