<?xml version="1.0" encoding="UTF-8" standalone="no"?>
<!-- Created with Inkscape (http://www.inkscape.org/) -->

<svg
   xmlns:dc="http://purl.org/dc/elements/1.1/"
   xmlns:cc="http://creativecommons.org/ns#"
   xmlns:rdf="http://www.w3.org/1999/02/22-rdf-syntax-ns#"
   xmlns:svg="http://www.w3.org/2000/svg"
   xmlns="http://www.w3.org/2000/svg"
   xmlns:sodipodi="http://sodipodi.sourceforge.net/DTD/sodipodi-0.dtd"
   xmlns:inkscape="http://www.inkscape.org/namespaces/inkscape"
   width="64"
   height="64"
   viewBox="0 0 16.933333 16.933334"
   version="1.1"
   id="svg5"
   inkscape:version="0.91 r13725"
   sodipodi:docname="rt_64.svg">
  <metadata
     id="metadata10">
    <rdf:RDF>
      <cc:Work
         rdf:about="">
        <dc:format>image/svg+xml</dc:format>
        <dc:type
           rdf:resource="http://purl.org/dc/dcmitype/StillImage" />
        <dc:title></dc:title>
      </cc:Work>
    </rdf:RDF>
  </metadata>
  <sodipodi:namedview
     id="namedview7"
     pagecolor="#ffffff"
     bordercolor="#666666"
     borderopacity="1.0"
     inkscape:pageshadow="2"
     inkscape:pageopacity="0.0"
     inkscape:pagecheckerboard="0"
     inkscape:document-units="mm"
     showgrid="false"
     units="px"
     width="64px"
     inkscape:zoom="4.6466891"
     inkscape:cx="-33.034274"
     inkscape:cy="36.908"
     inkscape:window-width="1920"
     inkscape:window-height="999"
     inkscape:window-x="0"
     inkscape:window-y="24"
     inkscape:window-maximized="1"
     inkscape:current-layer="layer1" />
  <defs
     id="defs2" />
  <g
     inkscape:label="Слой 1"
     inkscape:groupmode="layer"
     id="layer1"
     transform="translate(0,-2.6458336)">
    <path
       style="fill:#f13939;stroke-width:0.0392007"
       d="M 7.5833874,19.42084 C 6.565362,19.29049 5.7322116,19.052014 4.9087859,18.655286 2.7327195,17.606843 1.3388953,15.778 1.0224717,13.556045 0.82629563,12.178433 1.2134666,10.605191 2.0474584,9.3911281 2.6891977,8.4569267 3.6841601,7.5865258 4.6768198,7.0909345 L 4.9643971,6.9473638 C 8.54535,5.969585 9.6842698,6.2370079 12.108022,7.0157308 l 0.263018,0.1425879 c 1.104688,0.5988811 2.082504,1.5164431 2.683679,2.5182895 0.481291,0.8020688 0.731405,1.5293508 0.863042,2.5095308 0.06315,0.470471 0.06333,0.755473 5.93e-4,1.24929 -0.131327,1.03429 -0.438274,1.873491 -1.008123,2.756148 -0.942761,1.460288 -2.567657,2.562806 -4.479926,3.039731 -0.8114512,0.202379 -2.0846826,0.287142 -2.8469531,0.18954 z"
       id="path1024-9"
       sodipodi:nodetypes="cssssccssscsscc"
       inkscape:connector-curvature="0" />
    <path
       id="path1294"
       style="fill:#98bd48;stroke-width:0.0392006"
       d="M 7.9980763,4.4085206 C 8.1632451,5.1086997 8.2188563,5.8530392 8.208866,5.8628507 8.1988579,5.8726795 7.9347686,5.8408445 7.7769155,5.8016161 7.4508733,5.7206368 6.9370515,5.7125301 6.6300426,5.7763046 6.5288547,5.797354 6.1880397,5.8023119 5.8920663,5.9110207 5.0580568,6.2173328 4.8832697,6.3383668 4.2828647,6.0520342 3.9031245,5.8709312 3.8588941,5.9293824 4.1374198,6.2430183 c 0.4376453,0.5079599 0.5307382,0.674024 1.1846731,0.8318683 0.029316,0.00783 0.059163,0.01583 0.089462,0.02305 0.03029,0.00696 0.061023,0.013917 0.092154,0.020093 0.031087,0.00609 0.062617,0.011916 0.094342,0.017048 0.031707,0.00522 0.063768,0.00992 0.095971,0.014091 0.032238,0.00435 0.064654,0.00783 0.097132,0.011047 0.032504,0.00348 0.065185,0.00609 0.097805,0.00783 0.032681,0.00261 0.065362,0.00348 0.097946,0.00522 0.032593,8.698e-4 0.065185,0.00174 0.097601,0.00174 0.032416,9.57e-5 0.064654,-1.913e-4 0.096733,-8.698e-4 0.032061,-8.698e-4 0.063857,-0.00261 0.09536,-0.00435 0.03153,-0.00174 0.062705,-0.00435 0.093474,-0.00696 0.030821,-0.00261 0.0612,-0.00609 0.091082,-0.010525 0.029936,-0.00435 0.05934,-0.0087 0.088213,-0.013743 0.028873,-0.00522 0.057214,-0.010699 0.084847,-0.016874 0.027633,-0.00609 0.054646,-0.012786 0.08095,-0.020006 0.027456,-0.00783 0.052166,-0.013308 0.074573,-0.016874 0.011159,-0.00174 0.021788,-0.00348 0.031796,-0.00348 0.010008,-6.785e-4 0.019485,-8.699e-4 0.02843,-4.871e-4 0.00895,3.827e-4 0.01727,0.00174 0.025153,0.00348 0.00797,0.00174 0.015233,0.00348 0.022053,0.00696 0.00709,0.00261 0.013197,0.00609 0.019131,0.010699 0.0062,0.00435 0.011337,0.00913 0.016296,0.0147 0.00531,0.00522 0.00957,0.011916 0.013816,0.018962 0.00443,0.00696 0.00797,0.014874 0.011337,0.023485 0.00354,0.0087 0.0062,0.017918 0.00912,0.028095 0.00266,0.010177 0.00531,0.021136 0.00709,0.032966 0.00443,0.023659 0.00709,0.050623 0.00797,0.081153 0.00177,0.030617 0.00266,0.064714 0.00177,0.1027419 -1.948e-4,0.032531 -8.856e-4,0.062191 -0.00266,0.090156 -0.00177,0.028008 -0.00443,0.054363 -0.00886,0.080109 -0.00443,0.025833 -0.010097,0.051058 -0.017891,0.076891 -0.00797,0.02592 -0.017713,0.052449 -0.030024,0.080718 -0.012399,0.028269 -0.027279,0.058364 -0.045258,0.091304 -0.017979,0.032966 -0.038881,0.068889 -0.063414,0.1088914 -0.024533,0.040011 -0.052609,0.084024 -0.08467,0.1332548 -0.032061,0.049231 -0.068285,0.1037248 -0.1089375,0.1645766 -0.029493,0.044099 -0.057214,0.086546 -0.083253,0.1273662 -0.02595,0.040881 -0.050306,0.08011 -0.072979,0.1181201 -0.022673,0.038011 -0.043841,0.074717 -0.063503,0.1102832 -0.019662,0.035575 -0.03773,0.07002 -0.054469,0.1035421 -0.016739,0.033575 -0.03215,0.06628 -0.046232,0.098193 -0.014082,0.031922 -0.026836,0.063235 -0.038527,0.094 -0.011602,0.030791 -0.022053,0.061061 -0.031441,0.091104 -0.00939,0.030008 -0.017713,0.059756 -0.025065,0.089408 -0.00709,0.027747 -0.012222,0.05271 -0.015942,0.075065 -0.00354,0.022354 -0.00531,0.042099 -0.0062,0.059408 -9.74e-5,0.0087 1.949e-4,0.0167 8.857e-4,0.024268 7.882e-4,0.00783 0.00177,0.014352 0.00354,0.020702 0.00177,0.00609 0.00443,0.012177 0.00709,0.017396 0.00266,0.00522 0.0062,0.00992 0.010008,0.014178 0.00354,0.00435 0.00797,0.00783 0.013196,0.011046 0.00531,0.00348 0.010451,0.00609 0.016474,0.00783 0.0062,0.00261 0.012754,0.00435 0.020016,0.00522 0.00709,8.698e-4 0.015056,0.00174 0.023559,0.00261 0.016916,8.698e-4 0.036312,-3.48e-5 0.058277,-0.00261 0.021965,-0.00261 0.046586,-0.00609 0.074042,-0.011655 0.021433,-0.00435 0.049775,-0.00783 0.082633,-0.011916 0.03277,-0.00348 0.069968,-0.00696 0.1093449,-0.010003 0.039324,-0.00261 0.080773,-0.00522 0.1219037,-0.00696 0.041095,-0.00174 0.082013,-0.00261 0.1201766,-0.00348 0.051192,-3.914e-4 0.1009222,-0.00174 0.1492178,-0.00348 0.048269,-0.00174 0.095148,-0.00522 0.1405206,-0.0087 0.045346,-0.00348 0.089302,-0.00783 0.1317258,-0.013221 0.042424,-0.00522 0.083342,-0.011134 0.1227716,-0.017918 0.039412,-0.00696 0.077408,-0.014352 0.1137644,-0.022702 0.036401,-0.0087 0.071208,-0.017483 0.1045623,-0.027399 0.033301,-0.00992 0.065185,-0.020528 0.09536,-0.032009 0.030201,-0.011482 0.058809,-0.023746 0.08591,-0.036793 0.016916,-0.00783 0.033921,-0.016961 0.050926,-0.026529 0.017005,-0.00957 0.034098,-0.019919 0.051192,-0.030878 0.017094,-0.01096 0.034187,-0.022702 0.05128,-0.035053 0.017093,-0.012351 0.034187,-0.025398 0.05128,-0.039054 0.034187,-0.027312 0.068197,-0.05732 0.1020204,-0.089599 0.033833,-0.03227 0.067311,-0.066975 0.1004439,-0.10389 0.033124,-0.03688 0.065805,-0.076021 0.097858,-0.1171285 0.032061,-0.041142 0.063591,-0.084198 0.094235,-0.1291667 0.030644,-0.044969 0.06058,-0.091704 0.089559,-0.1401002 0.028961,-0.048361 0.057037,-0.098419 0.083962,-0.1498856 0.024002,-0.045926 0.04818,-0.090225 0.071474,-0.1310107 0.023204,-0.040794 0.045523,-0.078109 0.06554,-0.1099352 0.020016,-0.031835 0.037995,-0.058277 0.052432,-0.077326 0.00709,-0.00957 0.013639,-0.017222 0.018953,-0.022789 0.00531,-0.00522 0.00974,-0.00913 0.012931,-0.010351 0.00354,-0.00174 0.00886,-8.698e-4 0.014702,8.698e-4 0.0062,0.00174 0.013994,0.00609 0.02285,0.011394 0.00895,0.00522 0.019042,0.012438 0.03029,0.020875 0.011248,0.0087 0.023559,0.01844 0.036844,0.029747 0.02657,0.022615 0.057037,0.050623 0.090427,0.083241 0.03339,0.032618 0.069614,0.069759 0.1077157,0.1106832 0.03773,0.040446 0.07608,0.079588 0.115349,0.1172764 0.03924,0.03775 0.07918,0.074021 0.119973,0.1090394 0.04074,0.034966 0.08228,0.068541 0.124552,0.1007848 0.04225,0.032183 0.08529,0.063061 0.129078,0.092504 0.04375,0.029486 0.0883,0.057494 0.133603,0.084198 0.04526,0.026703 0.0913,0.051928 0.138076,0.075847 0.04676,0.02392 0.09425,0.046448 0.142504,0.067497 0.04827,0.021136 0.09726,0.040794 0.1469772,0.059147 0.202828,0.074804 0.351124,0.1288274 0.464685,0.1728137 0.05677,0.022006 0.104899,0.04149 0.146782,0.059756 0.04189,0.018353 0.0775,0.035488 0.109442,0.052797 0.01594,0.0087 0.031,0.017396 0.04535,0.026268 0.01435,0.00887 0.02808,0.018005 0.04154,0.027486 0.02684,0.019049 0.05252,0.039576 0.07927,0.062974 0.02675,0.023398 0.05474,0.049666 0.08644,0.080109 0.03162,0.030443 0.06696,0.065062 0.108379,0.105186 0.04278,0.041403 0.08449,0.080631 0.12348,0.1160761 0.03897,0.035401 0.07511,0.067062 0.106449,0.093357 0.03135,0.026268 0.05801,0.047144 0.07803,0.061061 0.01001,0.00696 0.01833,0.012177 0.0248,0.015396 0.0062,0.00348 0.01107,0.00435 0.01346,0.00348 0.0071,-0.00174 0.01284,-0.00609 0.01878,-0.012003 0.0062,-0.00609 0.01143,-0.013482 0.01656,-0.022963 0.0053,-0.00948 0.0099,-0.020788 0.01426,-0.033836 0.0044,-0.013047 0.008,-0.027921 0.01187,-0.044621 0.0035,-0.016613 0.0071,-0.03514 0.0096,-0.05532 0.0027,-0.020266 0.0053,-0.042273 0.0071,-0.066019 0.0044,-0.047579 0.0062,-0.1022287 0.0071,-0.1639243 5.94e-4,-0.040359 2.04e-4,-0.08037 -8.85e-4,-0.1201729 -0.0018,-0.039837 -0.0035,-0.079414 -0.0071,-0.1188246 -0.0035,-0.039402 -0.008,-0.078631 -0.01346,-0.1177287 -0.0053,-0.039054 -0.01196,-0.078022 -0.01948,-0.1168676 -0.008,-0.038881 -0.01612,-0.077587 -0.02577,-0.1162761 -0.0096,-0.038706 -0.02028,-0.077326 -0.03197,-0.1159282 -0.01169,-0.03862 -0.02445,-0.077239 -0.03826,-0.115876 -0.01382,-0.03862 -0.02861,-0.077326 -0.04455,-0.1160326 -0.02258,-0.054972 -0.04242,-0.1005152 -0.0612,-0.1389521 -0.0094,-0.019223 -0.01842,-0.036619 -0.02746,-0.052623 -0.009,-0.015918 -0.01789,-0.030443 -0.02693,-0.043665 -0.009,-0.013308 -0.01816,-0.025311 -0.02754,-0.036445 -0.04978,-0.097984 -0.102711,-0.190984 -0.179003,-0.2826532 -0.0071,-0.014613 -0.01692,-0.030704 -0.02932,-0.048188 -0.01231,-0.017483 -0.02728,-0.036532 -0.04473,-0.056798 -0.01745,-0.020354 -0.03746,-0.042099 -0.05987,-0.065149 -0.0225,-0.02305 -0.04747,-0.047492 -0.07493,-0.073151 -0.02746,-0.025746 -0.05739,-0.05271 -0.08976,-0.080979 -0.03215,-0.028095 -0.06235,-0.055668 -0.0893,-0.081588 -0.02701,-0.02592 -0.05084,-0.050101 -0.07032,-0.071324 -0.01949,-0.021223 -0.03463,-0.039402 -0.04428,-0.053319 -0.0044,-0.00696 -0.008,-0.012873 -0.01018,-0.01757 -0.0018,-0.00435 -0.0027,-0.00783 -8.86e-4,-0.010177 8.86e-4,-0.00174 0.0044,-0.00435 0.0092,-0.00609 0.0044,-0.00174 0.01134,-0.00348 0.01931,-0.00522 0.01594,-0.00348 0.03773,-0.00696 0.06386,-0.00948 0.02613,-0.00261 0.05651,-0.00522 0.08967,-0.00609 0.03312,-0.00174 0.06899,-0.00261 0.106033,-0.00261 0.03844,0 0.07617,-6.785e-4 0.113569,-0.00174 0.03738,-0.00174 0.0744,-0.00348 0.111223,-0.00609 0.03684,-0.00261 0.0736,-0.00609 0.110416,-0.010264 0.03684,-0.00435 0.07378,-0.00905 0.111179,-0.014787 0.03738,-0.00609 0.0751,-0.012177 0.113507,-0.019484 0.03844,-0.00696 0.07741,-0.015483 0.117387,-0.024529 0.03994,-0.00905 0.08077,-0.018962 0.122816,-0.029748 0.04207,-0.010786 0.0852,-0.022615 0.129839,-0.035227 0,0 0.337715,-0.115502 0.568902,-0.2532363 0.169508,-0.087477 0.363647,-0.2362664 0.611006,-0.468201 0.337653,-0.316602 0.454934,-0.4521618 0.420446,-0.4860321 -0.008,-0.00783 -0.161422,0.018005 -0.341364,0.05706 -0.262539,0.056973 -0.40941,0.068193 -0.743742,0.056538 C 11.88191,5.9869638 11.695539,5.9341663 10.972158,5.6087532 10.72154,5.4960085 10.409137,5.3703384 10.277996,5.3295009 9.9783378,5.2361877 9.4718768,5.2036655 9.2248368,5.2618297 9.0745468,5.2972309 9.0360378,5.2965351 8.9989728,5.2574806 8.9617746,5.2185132 8.6918488,3.9899597 8.4533022,3.3347931 8.3501039,3.0513483 8.1781509,2.8485784 8.0530676,2.7736791 7.4715183,2.6810792 7.9221921,4.0925884 7.9966504,4.4085554 Z"
       sodipodi:nodetypes="csssssccsccscssccsccsssscsssscsssssccssssssssssssssssccscsssscscscscssscssssssssssssssssscssssssssssssssssssssssssssscscssccccssssssssssccssssssssscssscscssccssccssssssssscc"
       inkscape:connector-curvature="0" />
    <path
       style="fill:#7a983a;stroke-width:0.0392007"
       d="M 5.1009853,6.7196912 C 4.6236442,6.586967 4.5189579,6.5306207 4.259049,6.2665814 4.0094138,6.0129798 3.9511279,5.9211105 4.0680984,5.9656013 4.3069638,6.0564702 4.7417661,6.1542977 4.9052343,6.1539672 5.1507422,6.1534801 5.3292669,6.1068235 5.9171751,5.8893886 6.7385638,5.5856684 7.1496921,5.5478752 7.8162039,5.7148438 8.0263558,5.7674673 8.1196258,5.777731 8.1466122,5.7512888 8.1736251,5.7247596 8.0985203,5.3532989 7.8807781,4.4352847 7.6739383,3.5634139 7.5844413,3.1244645 7.5996394,3.0564976 7.6251467,2.9424308 7.8164607,2.7569875 7.9400738,2.726518 8.1778675,2.6678929 8.5445529,3.3372373 8.3140128,3.409101 8.2766375,3.4207564 8.2063507,3.4766852 8.1577805,3.5333533 8.0546087,3.653761 8.042909,3.8204078 8.1173053,4.1099237 8.1436098,4.2123264 8.2316808,4.57996 8.313012,4.9269009 8.3943166,5.2738331 8.5040866,5.7341449 8.5568903,5.9498142 8.6096762,6.1654748 8.6427118,6.3525186 8.6302238,6.36547 8.6177358,6.3784302 8.4982234,6.3585115 8.364558,6.3219796 8.2308926,6.2850996 7.9801415,6.2455233 7.8073472,6.2340853 7.323505,6.2019024 7.1526148,6.240174 6.0444725,6.6305618 5.6810996,6.7585108 5.3522412,6.7895891 5.1009764,6.7197173 Z"
       id="path1022"
       sodipodi:nodetypes="ssscsssscsssscscccss"
       inkscape:connector-curvature="0" />
    <path
       style="fill:#d31b1b;stroke-width:0.0392007"
       d="M 4.2152171,18.270925 C 2.5886741,17.273559 1.4497104,15.690793 1.1229422,13.973737 1.0819356,13.758076 1.035615,13.55094 1.0200715,13.513425 c -0.073156,-0.17665 -0.067577,-1.419973 0.0062,-1.306219 0.018865,0.02914 0.028961,0.0078 0.029316,-0.06245 3.011e-4,-0.05889 0.025065,-0.235336 0.054912,-0.392119 C 1.3044781,10.736584 1.7871332,9.7298405 2.4666286,8.9239708 2.7861963,8.5449688 3.425996,7.9540986 3.7921588,7.6998272 4.1091758,7.4796872 4.6577956,7.1547786 4.7130792,7.154448 c 0.015853,-9.57e-5 -0.00443,0.052363 -0.044638,0.1166154 -0.040387,0.064279 -0.1491292,0.2675359 -0.2415755,0.4517877 -0.5846401,1.1651879 -0.7718355,2.5965639 -0.505346,3.8640499 0.4938765,2.349025 2.3098114,4.247297 4.8421479,5.061691 1.8395292,0.591592 3.9745442,0.506907 5.7047112,-0.226264 0.13006,-0.05515 0.250813,-0.09541 0.268331,-0.08954 0.09701,0.03253 -0.758506,0.971194 -1.251266,1.372925 -2.899562,2.075852 -6.2632597,2.366647 -9.2699523,0.565176 z"
       id="path1020"
       sodipodi:nodetypes="csssscssssssssscc"
       inkscape:connector-curvature="0" />
  </g>
</svg>
