<?xml version="1.0" encoding="UTF-8" standalone="no"?>
<!-- Created with Inkscape (http://www.inkscape.org/) -->

<svg
   width="64"
   height="74"
   viewBox="0 0 16.933333 19.579168"
   version="1.1"
   id="svg5"
   inkscape:version="1.1 (c68e22c387, 2021-05-23)"
   sodipodi:docname="rt_gap.svg"
   xmlns:inkscape="http://www.inkscape.org/namespaces/inkscape"
   xmlns:sodipodi="http://sodipodi.sourceforge.net/DTD/sodipodi-0.dtd"
   xmlns="http://www.w3.org/2000/svg"
   xmlns:svg="http://www.w3.org/2000/svg">
  <sodipodi:namedview
     id="namedview7"
     pagecolor="#ffffff"
     bordercolor="#666666"
     borderopacity="1.0"
     inkscape:pageshadow="2"
     inkscape:pageopacity="0.0"
     inkscape:pagecheckerboard="0"
     inkscape:document-units="mm"
     showgrid="false"
     units="px"
     width="64px"
     inkscape:zoom="4.6466891"
     inkscape:cx="8.7158833"
     inkscape:cy="36.908"
     inkscape:window-width="1600"
     inkscape:window-height="837"
     inkscape:window-x="1912"
     inkscape:window-y="174"
     inkscape:window-maximized="1"
     inkscape:current-layer="layer1" />
  <defs
     id="defs2" />
  <g
     inkscape:label="Слой 1"
     inkscape:groupmode="layer"
     id="layer1">
    <path
       style="fill:#f13939;stroke-width:0.0392007"
       d="m 7.4693724,19.414774 c -1.14944,-0.14986 -2.09014,-0.42403 -3.01986,-0.88014 -2.45697,-1.20537 -4.03072004,-3.30795 -4.38799004,-5.86248 -0.2215,-1.58381 0.21565,-3.3925304 1.15730004,-4.7883104 0.72458,-1.07403 1.84798,-2.07471 2.96878,-2.64448 l 0.3247,-0.16506 c 4.0432103,-1.12413 5.3291503,-0.81668 8.0657796,0.0786 l 0.29697,0.16393 c 1.24729,0.68852 2.35133,1.74342 3.03011,2.89522 0.54342,0.92212 0.82582,1.75826 0.97445,2.8851504 0.0713,0.54089 0.0715,0.86855 6.7e-4,1.43628 -0.14828,1.1891 -0.49485,2.15391 -1.13826,3.16868 -1.06446,1.67886 -2.89911,2.9464 -5.05823,3.49471 -0.9161993,0.23267 -2.3537893,0.33012 -3.2144596,0.21791 z"
       id="path1024-9"
       sodipodi:nodetypes="cssssccssscsscc" />
    <path
       id="path1294"
       style="fill:#98bd48;stroke-width:0.0392006"
       d="m 7.9375927,2.1554535 c 0.18649,0.80498 0.24928,1.6607301 0.238,1.6720101 -0.0113,0.0113 -0.30948,-0.0253 -0.48771,-0.0704 -0.3681303,-0.0931 -0.9482803,-0.1024201 -1.2949203,-0.0291 -0.11425,0.0242 -0.49906,0.0299 -0.83324,0.15488 -0.94167,0.35216 -1.13902,0.49131 -1.81693,0.16212 -0.42876,-0.20821 -0.4787,-0.14101 -0.16422,0.21957 0.49414,0.58399 0.59925,0.77491 1.3376,0.95638 0.0331,0.009 0.0668,0.0182 0.10101,0.0265 0.0342,0.008 0.0689,0.016 0.10405,0.0231 0.0351,0.007 0.0707,0.0137 0.10652,0.0196 0.0358,0.006 0.072,0.0114 0.10836,0.0162 0.0364,0.005 0.073,0.009 0.10967,0.0127 0.0367,0.004 0.0736,0.007 0.11043,0.009 0.0369,0.003 0.0738,0.004 0.11059,0.006 0.0368,0.001 0.0736,0.002 0.1102,0.002 0.0366,1.1e-4 0.073,-2.2e-4 0.10922,-0.001 0.0362,-0.001 0.0721,-0.003 0.10767,-0.005 0.0356,-0.002 0.0708,-0.005 0.10554,-0.008 0.0348,-0.003 0.0691,-0.007 0.10284,-0.0121 0.0338,-0.005 0.067,-0.01 0.0996,-0.0158 0.0326,-0.006 0.0646,-0.0123 0.0958,-0.0194 0.0312,-0.007 0.0617,-0.0147 0.0914,-0.023 0.031,-0.009 0.0589,-0.0153 0.0842,-0.0194 0.0126,-0.002 0.0246,-0.004 0.0359,-0.004 0.0113,-7.8e-4 0.022,-0.001 0.0321,-5.6e-4 0.0101,4.4e-4 0.0195,0.002 0.0284,0.004 0.009,0.002 0.0172,0.004 0.0249,0.008 0.008,0.003 0.0149,0.007 0.0216,0.0123 0.007,0.005 0.0128,0.0105 0.0184,0.0169 0.006,0.006 0.0108,0.0137 0.0156,0.0218 0.005,0.008 0.009,0.0171 0.0128,0.027 0.004,0.01 0.007,0.0206 0.0103,0.0323 0.003,0.0117 0.006,0.0243 0.008,0.0379 0.005,0.0272 0.008,0.0582 0.009,0.0933 0.002,0.0352 0.003,0.0744 0.002,0.11812 -2.2e-4,0.0374 -10e-4,0.0715 -0.003,0.10365 -0.002,0.0322 -0.005,0.0625 -0.01,0.0921 -0.005,0.0297 -0.0114,0.0587 -0.0202,0.0884 -0.009,0.0298 -0.02,0.0603 -0.0339,0.0928 -0.014,0.0325 -0.0308,0.0671 -0.0511,0.10497 -0.0203,0.0379 -0.0439,0.0792 -0.0716,0.12519 -0.0277,0.046 -0.0594,0.0966 -0.0956,0.1532 -0.0362,0.0566 -0.0771,0.11925 -0.123,0.18921 -0.0333,0.0507 -0.0646,0.0995 -0.094,0.14643 -0.0293,0.047 -0.0568,0.0921 -0.0824,0.1358 -0.0256,0.0437 -0.0495,0.0859 -0.0717,0.12679 -0.0222,0.0409 -0.0426,0.0805 -0.0615,0.11904 -0.0189,0.0386 -0.0363,0.0762 -0.0522,0.11289 -0.0159,0.0367 -0.0303,0.0727 -0.0435,0.10807 -0.0131,0.0354 -0.0249,0.0702 -0.0355,0.10474 -0.0106,0.0345 -0.02,0.0687 -0.0283,0.10279 -0.008,0.0319 -0.0138,0.0606 -0.018,0.0863 -0.004,0.0257 -0.006,0.0484 -0.007,0.0683 -1.1e-4,0.01 2.2e-4,0.0192 0.001,0.0279 8.9e-4,0.009 0.002,0.0165 0.004,0.0238 0.002,0.007 0.005,0.014 0.008,0.02 0.003,0.006 0.007,0.0114 0.0113,0.0163 0.004,0.005 0.009,0.009 0.0149,0.0127 0.006,0.004 0.0118,0.007 0.0186,0.009 0.007,0.003 0.0144,0.005 0.0226,0.006 0.008,10e-4 0.017,0.002 0.0266,0.003 0.0191,10e-4 0.041,-4e-5 0.0658,-0.003 0.0248,-0.003 0.0526,-0.007 0.0836,-0.0134 0.0242,-0.005 0.0562,-0.009 0.0933,-0.0137 0.037,-0.004 0.079,-0.008 0.12346,-0.0115 0.0444,-0.003 0.0912,-0.006 0.13764,-0.008 0.0464,-0.002 0.0926,-0.003 0.13569,-0.004 0.0578,-4.5e-4 0.11395,-0.002 0.16848,-0.004 0.0545,-0.002 0.10743,-0.006 0.15866,-0.01 0.0512,-0.004 0.10083,-0.009 0.14873,-0.0152 0.0479,-0.006 0.0941,-0.0128 0.13862,-0.0206 0.0445,-0.008 0.0874,-0.0165 0.12845,-0.0261 0.0411,-0.01 0.0804,-0.0201 0.11806,-0.0315 0.0376,-0.0114 0.0736,-0.0236 0.1076703,-0.0368 0.0341,-0.0132 0.0664,-0.0273 0.097,-0.0423 0.0191,-0.009 0.0383,-0.0195 0.0575,-0.0305 0.0192,-0.011 0.0385,-0.0229 0.0578,-0.0355 0.0193,-0.0126 0.0386,-0.0261 0.0579,-0.0403 0.0193,-0.0142 0.0386,-0.0292 0.0579,-0.0449 0.0386,-0.0314 0.077,-0.0659 0.11519,-0.10301 0.0382,-0.0371 0.076,-0.077 0.11341,-0.11944 0.0374,-0.0424 0.0743,-0.0874 0.11049,-0.13466 0.0362,-0.0473 0.0718,-0.0968 0.1064,-0.1485 0.0346,-0.0517 0.0684,-0.10543 0.10112,-0.16107 0.0327,-0.0556 0.0644,-0.11315 0.0948,-0.17232 0.0271,-0.0528 0.0544,-0.10373 0.0807,-0.15062 0.0262,-0.0469 0.0514,-0.0898 0.074,-0.12639 0.0226,-0.0366 0.0429,-0.067 0.0592,-0.0889 0.008,-0.011 0.0154,-0.0198 0.0214,-0.0262 0.006,-0.006 0.011,-0.0105 0.0146,-0.0119 0.004,-0.002 0.01,-0.001 0.0166,10e-4 0.007,0.002 0.0158,0.007 0.0258,0.0131 0.0101,0.006 0.0215,0.0143 0.0342,0.024 0.0127,0.01 0.0266,0.0212 0.0416,0.0342 0.03,0.026 0.0644,0.0582 0.1021,0.0957 0.0377,0.0375 0.0786,0.0802 0.12162,0.12725 0.0426,0.0465 0.0859,0.0915 0.13024,0.13483 0.0443,0.0434 0.0894,0.0851 0.13546,0.12536 0.046,0.0402 0.0929,0.0788 0.14063,0.11587 0.0477,0.037 0.0963,0.0725 0.14574,0.10635 0.0494,0.0339 0.0997,0.0661 0.1508503,0.0968 0.0511,0.0307 0.103089,0.0597 0.155899,0.0872 0.0528,0.0275 0.10642,0.0534 0.1609,0.0776 0.0545,0.0243 0.10982,0.0469 0.16595,0.068 0.22901,0.086 0.39645,0.14811 0.52467,0.19868 0.0641,0.0253 0.11844,0.0477 0.16573,0.0687 0.0473,0.0211 0.0875,0.0408 0.12357,0.0607 0.018,0.01 0.035,0.02 0.0512,0.0302 0.0162,0.0102 0.0317,0.0207 0.0469,0.0316 0.0303,0.0219 0.0593,0.0455 0.0895,0.0724 0.0302,0.0269 0.0618,0.0571 0.0976,0.0921 0.0357,0.035 0.0756,0.0748 0.12237,0.12093 0.0483,0.0476 0.0954,0.0927 0.13942,0.13345 0.044,0.0407 0.0848,0.0771 0.12019,0.10733 0.0354,0.0302 0.0655,0.0542 0.0881,0.0702 0.0113,0.008 0.0207,0.014 0.028,0.0177 0.007,0.004 0.0125,0.005 0.0152,0.004 0.008,-0.002 0.0145,-0.007 0.0212,-0.0138 0.007,-0.007 0.0129,-0.0155 0.0187,-0.0264 0.006,-0.0109 0.0112,-0.0239 0.0161,-0.0389 0.005,-0.015 0.009,-0.0321 0.0134,-0.0513 0.004,-0.0191 0.008,-0.0404 0.0108,-0.0636 0.003,-0.0233 0.006,-0.0486 0.008,-0.0759 0.005,-0.0547 0.007,-0.11753 0.008,-0.18846 6.7e-4,-0.0464 2.3e-4,-0.0924 -10e-4,-0.13816 -0.002,-0.0458 -0.004,-0.0913 -0.008,-0.13661 -0.004,-0.0453 -0.009,-0.0904 -0.0152,-0.13535 -0.006,-0.0449 -0.0135,-0.0897 -0.022,-0.13436 -0.009,-0.0447 -0.0182,-0.0892 -0.0291,-0.13368 -0.0108,-0.0445 -0.0229,-0.0889 -0.0361,-0.13328 -0.0132,-0.0444 -0.0276,-0.0888 -0.0432,-0.13322 -0.0156,-0.0444 -0.0323,-0.0889 -0.0503,-0.1334 -0.0255,-0.0632 -0.0479,-0.11556 -0.0691,-0.15975 -0.0106,-0.0221 -0.0208,-0.0421 -0.031,-0.0605 -0.0102,-0.0183 -0.0202,-0.035 -0.0304,-0.0502 -0.0102,-0.0153 -0.0205,-0.0291 -0.0311,-0.0419 -0.0562,-0.11265 -0.11597,-0.21957 -0.20211,-0.32496 -0.008,-0.0168 -0.0191,-0.0353 -0.0331,-0.0554 -0.0139,-0.0201 -0.0308,-0.042 -0.0505,-0.0653 -0.0197,-0.0234 -0.0423,-0.0484 -0.0676,-0.0749 -0.0254,-0.0265 -0.0536,-0.0546 -0.0846,-0.0841 -0.031,-0.0296 -0.0648,-0.0606 -0.10135,-0.0931 -0.0363,-0.0323 -0.0704,-0.064 -0.10083,-0.0938 -0.0305,-0.0298 -0.0574,-0.0576 -0.0794,-0.082 -0.022,-0.0244 -0.0391,-0.0453 -0.05,-0.0613 -0.005,-0.008 -0.009,-0.0148 -0.0115,-0.0202 -0.002,-0.005 -0.003,-0.009 -0.001,-0.0117 0.001,-0.002 0.005,-0.005 0.0104,-0.007 0.005,-0.002 0.0128,-0.004 0.0218,-0.006 0.018,-0.004 0.0426,-0.008 0.0721,-0.0109 0.0295,-0.003 0.0638,-0.006 0.10124,-0.007 0.0374,-0.002 0.0779,-0.003 0.11972,-0.003 0.0434,0 0.086,-7.8e-4 0.12823,-0.002 0.0422,-0.002 0.084,-0.004 0.12558,-0.007 0.0416,-0.003 0.0831,-0.007 0.12467,-0.0118 0.0416,-0.005 0.0833,-0.0104 0.12553,-0.017 0.0422,-0.007 0.0848,-0.014 0.12816,-0.0224 0.0434,-0.008 0.0874,-0.0178 0.13254,-0.0282 0.0451,-0.0104 0.0912,-0.0218 0.13867,-0.0342 0.0475,-0.0124 0.0962,-0.026 0.1466,-0.0405 0,0 0.38131,-0.13279 0.64234,-0.29114 0.19139,-0.10057 0.41059,-0.27163 0.68988,-0.53828 0.38124,-0.36399 0.51366,-0.51984 0.47472,-0.55878 -0.009,-0.009 -0.18226,0.0207 -0.38543,0.0656 -0.29643,0.0655 -0.46226,0.0784 -0.83975,0.065 -0.54631,-0.0194 -0.75674,-0.0801 -1.5735,-0.4542201 -0.28297,-0.12962 -0.6357,-0.2741 -0.78377,-0.32105 -0.33834,-0.10728 -0.9101793,-0.14467 -1.1891093,-0.0778 -0.16969,0.0407 -0.21317,0.0399 -0.25502,-0.005 -0.042,-0.0448 -0.34677,-1.4572399 -0.61611,-2.21046995 -0.11652,-0.32587 -0.31067,-0.55899 -0.4519,-0.6451 -0.6566203,-0.10646 -0.14777,1.51631995 -0.0637,1.87957995 z"
       sodipodi:nodetypes="csssssccsccscssccsccsssscsssscsssssccssssssssssssssssccscsssscscscscssscssssssssssssssssscssssssssssssssssssssssssssscscssccccssssssssssccssssssssscssscscssccssccssssssssscc" />
    <path
       style="fill:#7a983a;stroke-width:0.0392007"
       d="m 4.6665224,4.8125536 c -0.53896,-0.15259 -0.65716,-0.21737 -0.95062,-0.52093 -0.28186,-0.29156 -0.34767,-0.39718 -0.2156,-0.34603 0.2697,0.10447 0.76063,0.21694 0.9452,0.21656 0.2772,-5.6e-4 0.47877,-0.0542 1.14257,-0.30418 0.92742,-0.3491801 1.39162,-0.3926301 2.1441703,-0.2006701 0.23728,0.0605 0.34259,0.0723 0.37306,0.0419 0.0305,-0.0305 -0.0543,-0.4575599 -0.30015,-1.5129799 -0.2335403,-1.00237 -0.3345903,-1.50702005 -0.3174303,-1.58516005 0.0288,-0.13114 0.2448103,-0.34434 0.3843803,-0.37937 0.26849,-0.0674 0.68251,0.70213 0.42221,0.78475005 -0.0422,0.0134 -0.12156,0.0777 -0.1764,0.14285 -0.11649,0.13843 -0.1297,0.33002 -0.0457,0.6628699 0.0297,0.11773 0.12914,0.54039 0.22097,0.93926 0.0918,0.39886 0.21574,0.92807 0.27536,1.1760201 0.0596,0.24794 0.0969,0.46298 0.0828,0.47787 -0.0141,0.0149 -0.14904,-0.008 -0.29996,-0.05 -0.15092,-0.0424 -0.43404,-0.0879 -0.62914,-0.10105 -0.5463003,-0.037 -0.7392503,0.007 -1.9904403,0.45582 -0.41028,0.1471 -0.78159,0.18283 -1.06529,0.1025 z"
       id="path1022"
       sodipodi:nodetypes="ssscsssscsssscscccss" />
    <path
       style="fill:#d31b1b;stroke-width:0.0392007"
       d="m 3.6664124,18.092744 c -1.83651,-1.14665 -3.12250004,-2.96632 -3.49145004,-4.94038 -0.0463,-0.24794 -0.0986,-0.48608 -0.11615,-0.52921 -0.0826,-0.20309 -0.0763,-1.63251 0.007,-1.50173 0.0213,0.0335 0.0327,0.009 0.0331,-0.0718 3.4e-4,-0.0677 0.0283,-0.27056 0.062,-0.45081 0.21902,-1.1681304 0.76397997,-2.3255604 1.53119004,-3.2520504 0.36082,-0.43573 1.08321,-1.11504 1.49664,-1.40737 0.35794,-0.25309 0.97738,-0.62663 1.0398,-0.62701 0.0179,-1.1e-4 -0.005,0.0602 -0.0504,0.13407 -0.0456,0.0739 -0.16838,0.30758 -0.27276,0.51941 -0.66011,1.33959 -0.87147,2.98521 -0.57058,4.4424104 0.55763,2.70062 2.60798,4.88302 5.4672103,5.81931 2.0769893,0.68014 4.4876093,0.58278 6.4411193,-0.26013 0.14685,-0.0634 0.28319,-0.10969 0.30297,-0.10294 0.10953,0.0374 -0.85642,1.11656 -1.41279,1.57842 -3.27386,2.38656 -7.0717696,2.72088 -10.4665896,0.64977 z"
       id="path1020"
       sodipodi:nodetypes="csssscssssssssscc" />
  </g>
</svg>
