<?xml version="1.0" encoding="UTF-8" standalone="no"?>
<!-- Created with Inkscape (http://www.inkscape.org/) -->

<svg
   width="16"
   height="16"
   viewBox="0 0 4.2333333 4.2333333"
   version="1.1"
   id="svg5"
   xml:space="preserve"
   inkscape:version="1.2.1 (9c6d41e410, 2022-07-14)"
   sodipodi:docname="sort_arrow.svg"
   xmlns:inkscape="http://www.inkscape.org/namespaces/inkscape"
   xmlns:sodipodi="http://sodipodi.sourceforge.net/DTD/sodipodi-0.dtd"
   xmlns="http://www.w3.org/2000/svg"
   xmlns:svg="http://www.w3.org/2000/svg"><sodipodi:namedview
     id="namedview7"
     pagecolor="#505050"
     bordercolor="#ffffff"
     borderopacity="1"
     inkscape:showpageshadow="0"
     inkscape:pageopacity="0"
     inkscape:pagecheckerboard="1"
     inkscape:deskcolor="#505050"
     inkscape:document-units="mm"
     showgrid="false"
     inkscape:zoom="58.553984"
     inkscape:cx="10.033476"
     inkscape:cy="7.1814071"
     inkscape:window-width="2560"
     inkscape:window-height="1351"
     inkscape:window-x="-9"
     inkscape:window-y="-9"
     inkscape:window-maximized="1"
     inkscape:current-layer="layer1" /><defs
     id="defs2" /><g
     inkscape:label="Слой 1"
     inkscape:groupmode="layer"
     id="layer1"><path
       style="fill:#000000;stroke-width:0.00516102"
       d="M 0.61297494,3.8009076 C 0.43558897,3.6169846 0.24491377,3.444426 0.08024777,3.2490704 -0.03264773,3.041115 0.26367647,2.8011345 0.43614597,2.9676103 c 0.11937867,0.073336 0.27948117,0.3326778 0.36483497,0.304297 0.00776,-1.03706 0.00691,-2.074173 0.00997,-3.11125873 0.064371,-0.1759009 0.32196776,-0.2237153 0.42763996,-0.060643 0.068389,0.081487 0.022818,0.1962296 0.03643,0.2935807 0.00294,0.97141803 0.00556,1.94283703 0.00891,2.91425393 C 1.4467669,3.1931928 1.5573069,2.9998602 1.743427,2.9178888 1.9545105,2.8573818 2.1291488,3.1603274 1.9604729,3.3056797 1.6607131,3.6204753 1.3501634,3.9247675 1.0440325,4.2333334 0.90034634,4.0891915 0.75666034,3.9450497 0.61297494,3.8009076 Z M 1.949286,2.3544974 c -0.078021,-0.00391 -0.1682552,0.017537 -0.2168015,-0.062051 -0.095855,-0.153696 0.00482,-0.3004807 0.1634792,-0.3019566 0.1835727,0.00379 0.3709215,-0.00751 0.5521733,0.00556 0.2194547,0.092788 0.1853115,0.3746905 -0.1387814,0.3609224 -0.1200208,0.00209 -0.2400652,-5.027e-4 -0.3600696,-0.00249 z M 1.7772991,1.7076666 C 1.6181496,1.6218886 1.6963131,1.339071 1.8768411,1.3657789 2.292125,1.3641089 2.7085316,1.3467709 3.1228876,1.3752589 3.2932356,1.4395539 3.2399745,1.7390266 3.0615456,1.7298445 2.6437182,1.7297273 2.2258908,1.729618 1.8080635,1.7295006 1.7978085,1.7222206 1.7875525,1.7149406 1.7772985,1.7076596 Z M 2.0945004,1.0796635 C 1.8867668,1.0680195 1.6230023,1.0952925 1.7240845,0.78346183 c 0.033164,-0.1048226 0.3633656,-0.08561 0.5960976,-0.080668 0.5743668,-0.00431 1.1487793,-0.00465 1.7231135,0.00348 0.170194,0.042885 0.1829946,0.30565257 0.016732,0.36367807 -0.2247138,0.017698 -0.4571644,0.00588 -0.6842336,0.012528 -0.4270957,0.00146 -0.8542139,0.00143 -1.2812944,-0.00282 z"
       id="path1895"
       sodipodi:nodetypes="cccccccccccccccccccccccccccccccc" /></g></svg>
