<?xml version="1.0" encoding="UTF-8"?>
<!-- Generator: Adobe Illustrator 19.1.0, SVG Export Plug-In . SVG Version: 6.00 Build 0)  -->
<!DOCTYPE svg PUBLIC "-//W3C//DTD SVG 1.0//EN" "http://www.w3.org/TR/2001/REC-SVG-20010904/DTD/svg10.dtd">
<svg version="1.0" id="Layer_1" xmlns="http://www.w3.org/2000/svg" xmlns:xlink="http://www.w3.org/1999/xlink" x="0px" y="0px" viewBox="0 0 46.6 35" style="enable-background:new 0 0 46.6 35;" xml:space="preserve">
<style type="text/css">
	.st0{fill:#C18C6F;}
	.st1{fill:#FFFFFF;}
	.st2{fill:#E20613;}
	.st3{fill:#1D1D1B;}
</style>
<g>
	<g>
		<path class="st1" d="M38.7,16.6c-0.1-0.4-0.1-0.9-0.2-1.3c-0.8-3.2-2.7-5.5-5.7-7c-1.1-0.5-2.2-0.8-3.4-0.9c-0.6,0-1.2,0-1.8,0    c-0.9,0.1-1.8,0.3-2.7,0.6c-0.4,0.1-0.5,0.4-0.5,0.8c0,6,0,12,0,18c0,0.5,0.3,0.7,0.7,0.7c5.2,0,10.5,0,15.7,0c0.3,0,0.6,0,1-0.1    c3.3-0.5,5.5-3.9,4.6-7.1c-0.8-3-3.8-4.8-6.8-4.1C39.3,16.4,39,16.5,38.7,16.6z M22.4,18.2C22.4,18.2,22.4,18.2,22.4,18.2    c0,0.3,0,0.7,0,1c0,1.5-0.1,3,0,4.5c0.1,1.1,0.1,2.2,0.2,3.3c0,0.3,0.3,0.6,0.6,0.6c0.3,0,0.6-0.2,0.6-0.6c0-0.2,0-0.4,0-0.6    c0-0.7,0.1-1.5,0.1-2.2c0-0.7,0.1-1.3,0.1-2c0-0.7,0-1.4-0.1-2.1c0-1.7-0.1-3.3-0.1-5c0-1.5-0.1-2.9-0.1-4.4c0-0.4,0-0.9,0-1.3    c0-0.4-0.3-0.6-0.6-0.6c-0.3,0-0.6,0.3-0.6,0.6c0,0.3,0,0.6,0,0.9c0,1.2-0.1,2.4-0.1,3.6C22.4,15.3,22.4,16.8,22.4,18.2z M22,18.6    C22,18.6,22,18.6,22,18.6c0-0.3,0-0.7,0-1c0-1,0-2.1-0.1-3.1c0-1.3-0.1-2.7-0.1-4c0-0.3-0.2-0.6-0.6-0.6c-0.3,0-0.6,0.2-0.6,0.6    c0,0.6,0,1.1,0,1.7c0,1.2,0,2.5-0.1,3.7c0,2-0.1,4-0.1,6c0,1.3,0.1,2.6,0.1,3.9c0,0.4,0,0.9,0.1,1.3c0,0.3,0.3,0.6,0.6,0.6    c0.3,0,0.6-0.2,0.6-0.5c0-0.4,0-0.9,0.1-1.3c0-0.6,0.1-1.2,0.1-1.8c0-0.8,0.1-1.5,0.1-2.3C22,20.6,22,19.6,22,18.6z M18.6,18.8    c0,0.8-0.1,1.4-0.1,2.1c0,0.7,0,1.3,0,2c0.1,1.4,0.1,2.7,0.2,4.1c0,0.4,0.2,0.6,0.5,0.6c0.3,0,0.5-0.2,0.5-0.6    c0-0.7,0.1-1.4,0.1-2.1c0.1-1.1,0.1-2.2,0.1-3.3c0-1.2-0.1-2.4-0.1-3.6c-0.1-1.9-0.1-3.8-0.2-5.7c0-0.4-0.2-0.6-0.5-0.6    c-0.3,0-0.5,0.2-0.5,0.6c0,0.9-0.1,1.9-0.1,2.8C18.6,16.4,18.6,17.7,18.6,18.8z M16.6,19.4C16.6,19.4,16.6,19.4,16.6,19.4    c-0.1,0.5,0,1-0.1,1.5c0,0.5,0,0.9,0,1.4c0,0.8,0.1,1.6,0.1,2.5c0,0.8,0.1,1.6,0.1,2.3c0,0.3,0.2,0.4,0.5,0.5    c0.3,0,0.5-0.2,0.5-0.4c0-0.3,0-0.6,0.1-0.9c0-0.7,0.1-1.4,0.1-2.1c0-0.6,0.1-1.3,0.1-1.9c0-0.9-0.1-1.8-0.1-2.7    c-0.1-1.7-0.1-3.5-0.2-5.2c0-0.8,0-1.5-0.1-2.3c0-0.3-0.2-0.5-0.5-0.5c-0.3,0-0.5,0.2-0.5,0.5c0,1.1-0.1,2.3-0.1,3.4    C16.7,16.7,16.7,18.1,16.6,19.4z M14.7,20.6C14.7,20.6,14.6,20.6,14.7,20.6c0,0.7,0,1.4,0,2.1c0,1,0.1,1.9,0.2,2.9    c0,0.5,0.1,1,0.1,1.6c0,0.2,0.2,0.4,0.4,0.4c0.2,0,0.4-0.2,0.5-0.4c0-0.1,0-0.3,0-0.4c0.1-0.8,0.1-1.6,0.2-2.4    c0.1-1,0.2-2.1,0.1-3.1c-0.1-1.5-0.1-3-0.2-4.5c0-1.4-0.1-2.8-0.1-4.2c0-0.3,0-0.5,0-0.8c0-0.3-0.2-0.4-0.5-0.4    c-0.2,0-0.4,0.2-0.4,0.4c0,0.6-0.1,1.3-0.1,1.9c0,0.8-0.1,1.7-0.1,2.5C14.7,17.6,14.7,19.1,14.7,20.6z M12.8,19.9    C12.8,19.9,12.8,19.9,12.8,19.9c-0.1,0.4,0,0.9-0.1,1.3c0,0.4,0,0.8,0,1.1c0,0.5,0.1,0.9,0.1,1.4c0.1,1.2,0.1,2.3,0.2,3.5    c0,0.2,0.2,0.4,0.4,0.4c0.2,0,0.4-0.1,0.4-0.4c0-0.4,0.1-0.9,0.1-1.3c0-0.6,0.1-1.2,0.1-1.8c0-0.7,0.1-1.5,0.1-2.2    c0-0.8-0.1-1.6-0.1-2.4C14.1,18,14,16.6,14,15.2c0-1.1-0.1-2.1-0.1-3.2c0-0.3-0.2-0.4-0.4-0.4c-0.2,0-0.4,0.2-0.4,0.4    c0,1.5-0.1,2.9-0.1,4.4C12.9,17.6,12.8,18.7,12.8,19.9z M12.3,22.2c0-0.7-0.1-1.2-0.1-1.8c-0.1-1.5-0.1-3-0.2-4.5    c0-1-0.1-2-0.1-3.1c0-0.1,0-0.1,0-0.2c-0.1-0.2-0.2-0.3-0.4-0.3c-0.2,0-0.3,0.2-0.3,0.3c0,0.6-0.1,1.1-0.1,1.7    c0,0.9-0.1,1.7-0.1,2.6c-0.1,1.4-0.1,2.9-0.2,4.3c0,0.3,0,0.6,0,0.9c0.1,1,0.1,2,0.2,3c0,0.6,0.1,1.3,0.1,1.9    c0,0.2,0.2,0.4,0.4,0.4c0.2,0,0.4-0.1,0.4-0.4c0-0.3,0.1-0.7,0.1-1c0.1-0.7,0.1-1.5,0.2-2.2C12.2,23.4,12.3,22.7,12.3,22.2z     M8.9,22.2c0,0.6,0.1,1.3,0.1,2c0.1,1,0.1,2,0.2,3c0,0.2,0.1,0.3,0.3,0.3c0.2,0,0.3-0.1,0.4-0.3c0-0.2,0-0.3,0-0.5    c0.1-0.8,0.1-1.6,0.2-2.4c0.1-0.9,0.2-1.9,0.1-2.8c-0.1-0.8-0.1-1.5-0.1-2.3c-0.1-1.1-0.1-2.2-0.2-3.3c0-0.5,0-0.9-0.1-1.4    c0-0.2-0.2-0.3-0.3-0.3c-0.2,0-0.3,0.1-0.3,0.3c0,0.8-0.1,1.5-0.1,2.3c0,0.6-0.1,1.2-0.1,1.8C9.1,19.8,9,21,8.9,22.2z M8.5,22.3    c0-0.5-0.1-1-0.1-1.5c-0.1-0.7-0.1-1.4-0.2-2.2c0-0.4-0.1-0.7-0.1-1.1c0-0.2-0.1-0.3-0.3-0.3c-0.1,0-0.2,0.1-0.3,0.2    c0,0.1,0,0.1,0,0.2c0,0.5-0.1,1-0.1,1.4c-0.1,0.7-0.1,1.3-0.2,2c-0.1,0.8-0.1,1.6,0,2.4c0.1,0.9,0.1,1.8,0.2,2.7    c0,0.4,0,0.7,0.1,1.1c0,0.2,0.1,0.3,0.3,0.3c0.2,0,0.3-0.1,0.3-0.3c0-0.4,0.1-0.7,0.1-1.1c0.1-0.6,0.1-1.3,0.2-1.9    C8.4,23.6,8.4,22.9,8.5,22.3z M6.6,22.2c-0.1-0.6-0.1-1.1-0.2-1.7c-0.1-0.7-0.1-1.5-0.2-2.2c0-0.4-0.1-0.8-0.1-1.2    c0-0.1-0.1-0.2-0.2-0.2c-0.1,0-0.2,0.1-0.3,0.2c0,0,0,0.1,0,0.1c-0.1,0.6-0.1,1.3-0.2,1.9c-0.1,0.7-0.1,1.4-0.2,2    c-0.1,0.7-0.1,1.4,0,2c0.1,1,0.2,2,0.3,3c0,0.3,0.1,0.7,0.1,1c0,0.1,0.1,0.2,0.3,0.2c0.2,0,0.2-0.1,0.3-0.3c0-0.5,0.1-1,0.1-1.5    c0.1-0.7,0.1-1.4,0.2-2.1C6.6,23.1,6.6,22.7,6.6,22.2z M3.4,22.2c0,0.1,0,0.1,0,0.2c0.1,0.6,0.1,1.2,0.2,1.8    c0.1,0.9,0.2,1.8,0.3,2.8c0,0.1,0.1,0.3,0.2,0.3c0.1,0,0.2-0.1,0.2-0.2c0-0.4,0.1-0.8,0.1-1.3c0.1-0.8,0.2-1.6,0.2-2.3    c0-0.4,0.1-0.8,0.1-1.2c0-0.5-0.1-1-0.1-1.5c-0.1-0.8-0.2-1.6-0.2-2.4c0-0.3-0.1-0.7-0.1-1c0-0.1-0.1-0.2-0.2-0.2    c-0.1,0-0.2,0.1-0.2,0.2c-0.1,0.5-0.1,1.1-0.2,1.6c-0.1,0.6-0.1,1.3-0.2,1.9C3.5,21.3,3.4,21.8,3.4,22.2z M2.9,22.2    c0-0.3-0.1-0.6-0.1-0.9c-0.1-1.1-0.3-2.2-0.4-3.3c0-0.1-0.1-0.2-0.2-0.2c-0.1,0-0.2,0.1-0.2,0.2c0,0.4-0.1,0.8-0.1,1.2    c-0.1,0.7-0.2,1.4-0.2,2.2c0,0.4-0.1,0.8,0,1.2c0.1,0.8,0.2,1.6,0.3,2.5C2,25.5,2,25.9,2,26.3c0,0.1,0.1,0.2,0.2,0.2    c0.1,0,0.1-0.1,0.2-0.2c0-0.1,0-0.2,0-0.3c0.1-0.8,0.2-1.6,0.3-2.5C2.8,23.1,2.9,22.7,2.9,22.2z M1.1,22.3c0-0.1,0-0.1,0-0.2    c-0.1-0.6-0.2-1.3-0.3-1.9c0-0.2-0.1-0.4-0.1-0.5c0-0.1-0.1-0.1-0.2-0.1c0,0-0.1,0.1-0.1,0.1c0,0,0,0.1,0,0.2    c-0.1,0.6-0.2,1.2-0.2,1.9C0,21.9,0,22.1,0,22.3c0.1,0.6,0.2,1.2,0.2,1.8c0,0.2,0.1,0.5,0.1,0.7c0,0.1,0.1,0.1,0.2,0.1    c0,0,0.1-0.1,0.1-0.1c0,0,0-0.1,0-0.1c0.1-0.4,0.1-0.9,0.2-1.3C1,23,1,22.6,1.1,22.3z"/>
		<path class="st1" d="M38.7,16.6c0.3-0.1,0.6-0.2,0.9-0.3c3-0.7,6,1.1,6.8,4.1c0.9,3.2-1.3,6.6-4.6,7.1c-0.3,0-0.6,0.1-1,0.1    c-5.2,0-10.5,0-15.7,0c-0.5,0-0.7-0.3-0.7-0.7c0-6,0-12,0-18c0-0.4,0.1-0.6,0.5-0.8c0.9-0.3,1.8-0.6,2.7-0.6c0.6,0,1.2-0.1,1.8,0    c1.2,0.1,2.3,0.4,3.4,0.9c3,1.4,4.9,3.7,5.7,7C38.5,15.7,38.6,16.1,38.7,16.6z"/>
		<path class="st1" d="M22.4,18.2c0-1.5,0.1-2.9,0.1-4.4c0-1.2,0-2.4,0.1-3.6c0-0.3,0-0.6,0-0.9c0-0.4,0.3-0.6,0.6-0.6    c0.3,0,0.6,0.3,0.6,0.6c0,0.4,0,0.9,0,1.3c0,1.5,0.1,2.9,0.1,4.4c0,1.7,0.1,3.3,0.1,5c0,0.7,0.1,1.4,0.1,2.1c0,0.7-0.1,1.3-0.1,2    c0,0.7-0.1,1.5-0.1,2.2c0,0.2,0,0.4,0,0.6c0,0.3-0.3,0.6-0.6,0.6c-0.3,0-0.6-0.2-0.6-0.6c-0.1-1.1-0.1-2.2-0.2-3.3    c-0.1-1.5,0-3,0-4.5C22.4,18.9,22.4,18.6,22.4,18.2C22.4,18.2,22.4,18.2,22.4,18.2z"/>
		<path class="st1" d="M22,18.6c0,1,0.1,2,0.1,3c0,0.8,0,1.5-0.1,2.3c0,0.6-0.1,1.2-0.1,1.8c0,0.4,0,0.9-0.1,1.3    c0,0.3-0.3,0.5-0.6,0.5c-0.3,0-0.6-0.3-0.6-0.6c0-0.4,0-0.9-0.1-1.3c-0.1-1.3-0.1-2.6-0.1-3.9c0-2,0.1-4,0.1-6    c0-1.2,0-2.5,0.1-3.7c0-0.6,0-1.1,0-1.7c0-0.3,0.3-0.6,0.6-0.6c0.3,0,0.5,0.3,0.6,0.6c0,1.3,0.1,2.7,0.1,4c0,1,0,2.1,0.1,3.1    C21.9,18,21.9,18.3,22,18.6C22,18.6,22,18.6,22,18.6z"/>
		<path class="st1" d="M18.6,18.8c0-1.1,0.1-2.4,0.1-3.7c0-0.9,0-1.9,0.1-2.8c0-0.4,0.2-0.6,0.5-0.6c0.3,0,0.5,0.2,0.5,0.6    c0.1,1.9,0.1,3.8,0.2,5.7c0,1.2,0.1,2.4,0.1,3.6c0,1.1-0.1,2.2-0.1,3.3c0,0.7-0.1,1.4-0.1,2.1c0,0.4-0.2,0.6-0.5,0.6    c-0.3,0-0.5-0.2-0.5-0.6c-0.1-1.4-0.2-2.7-0.2-4.1c0-0.7,0-1.3,0-2C18.5,20.2,18.5,19.6,18.6,18.8z"/>
		<path class="st1" d="M16.6,19.4c0-1.4,0.1-2.7,0.1-4.1c0-1.1,0.1-2.3,0.1-3.4c0-0.3,0.2-0.5,0.5-0.5c0.3,0,0.5,0.2,0.5,0.5    c0,0.8,0.1,1.5,0.1,2.3c0.1,1.7,0.1,3.5,0.2,5.2c0,0.9,0.1,1.8,0.1,2.7c0,0.6-0.1,1.3-0.1,1.9c0,0.7-0.1,1.4-0.1,2.1    c0,0.3,0,0.6-0.1,0.9c0,0.3-0.2,0.4-0.5,0.4c-0.3,0-0.5-0.2-0.5-0.5c-0.1-0.8-0.1-1.6-0.1-2.3c0-0.8-0.1-1.6-0.1-2.5    c0-0.5,0-0.9,0-1.4C16.6,20.4,16.6,19.9,16.6,19.4C16.6,19.4,16.6,19.4,16.6,19.4z"/>
		<path class="st1" d="M14.7,20.6c0-1.5,0.1-3,0.1-4.5c0-0.8,0-1.7,0.1-2.5c0-0.6,0-1.3,0.1-1.9c0-0.2,0.2-0.4,0.4-0.4    c0.2,0,0.4,0.2,0.5,0.4c0,0.3,0,0.5,0,0.8c0,1.4,0.1,2.8,0.1,4.2c0,1.5,0.1,3,0.2,4.5c0.1,1,0,2.1-0.1,3.1    c-0.1,0.8-0.1,1.6-0.2,2.4c0,0.1,0,0.3,0,0.4c0,0.2-0.2,0.4-0.5,0.4c-0.2,0-0.4-0.2-0.4-0.4c0-0.5-0.1-1-0.1-1.6    c-0.1-1-0.1-1.9-0.2-2.9C14.6,22,14.6,21.3,14.7,20.6C14.6,20.6,14.7,20.6,14.7,20.6z"/>
		<path class="st1" d="M12.8,19.9c0-1.1,0.1-2.3,0.1-3.4c0-1.5,0.1-2.9,0.1-4.4c0-0.3,0.2-0.4,0.4-0.4c0.2,0,0.4,0.2,0.4,0.4    c0,1.1,0.1,2.1,0.1,3.2c0,1.4,0.1,2.8,0.1,4.1c0,0.8,0.1,1.6,0.1,2.4c0,0.7-0.1,1.5-0.1,2.2c0,0.6-0.1,1.2-0.1,1.8    c0,0.4-0.1,0.9-0.1,1.3c0,0.2-0.2,0.4-0.4,0.4c-0.2,0-0.4-0.2-0.4-0.4c-0.1-1.2-0.1-2.3-0.2-3.5c0-0.5-0.1-0.9-0.1-1.4    c0-0.4,0-0.8,0-1.1C12.7,20.7,12.7,20.3,12.8,19.9C12.8,19.9,12.8,19.9,12.8,19.9z"/>
		<path class="st1" d="M12.3,22.2c0,0.6-0.1,1.2-0.1,1.9c-0.1,0.7-0.1,1.5-0.2,2.2c0,0.3,0,0.7-0.1,1c0,0.2-0.2,0.4-0.4,0.4    c-0.2,0-0.3-0.1-0.4-0.4c-0.1-0.6-0.1-1.3-0.1-1.9c-0.1-1-0.1-2-0.2-3c0-0.3,0-0.6,0-0.9c0.1-1.4,0.1-2.9,0.2-4.3    c0-0.9,0.1-1.7,0.1-2.6c0-0.6,0-1.1,0.1-1.7c0-0.2,0.1-0.3,0.3-0.3c0.2,0,0.3,0.1,0.4,0.3c0,0.1,0,0.1,0,0.2c0,1,0.1,2,0.1,3.1    c0.1,1.5,0.1,3,0.2,4.5C12.2,20.9,12.3,21.5,12.3,22.2z"/>
		<path class="st1" d="M8.9,22.2C9,21,9.1,19.8,9.1,18.7c0-0.6,0.1-1.2,0.1-1.8c0-0.8,0.1-1.5,0.1-2.3c0-0.2,0.1-0.3,0.3-0.3    c0.2,0,0.3,0.1,0.3,0.3c0,0.5,0.1,0.9,0.1,1.4c0.1,1.1,0.1,2.2,0.2,3.3c0,0.8,0.1,1.5,0.1,2.3c0.1,1-0.1,1.9-0.1,2.8    c-0.1,0.8-0.1,1.6-0.2,2.4c0,0.2,0,0.3,0,0.5c0,0.2-0.2,0.3-0.4,0.3c-0.2,0-0.3-0.1-0.3-0.3c-0.1-1-0.1-2-0.2-3    C9,23.5,9,22.8,8.9,22.2z"/>
		<path class="st1" d="M8.5,22.3c-0.1,0.7-0.1,1.3-0.2,2c-0.1,0.6-0.1,1.3-0.2,1.9c0,0.4-0.1,0.7-0.1,1.1c0,0.2-0.1,0.3-0.3,0.3    c-0.2,0-0.3-0.1-0.3-0.3c0-0.3-0.1-0.7-0.1-1.1c-0.1-0.9-0.1-1.8-0.2-2.7c-0.1-0.8-0.1-1.6,0-2.4c0.1-0.7,0.1-1.3,0.2-2    c0-0.5,0.1-1,0.1-1.4c0-0.1,0-0.1,0-0.2c0-0.1,0.1-0.2,0.3-0.2c0.2,0,0.3,0.1,0.3,0.3c0,0.4,0.1,0.7,0.1,1.1    c0.1,0.7,0.1,1.4,0.2,2.2C8.4,21.3,8.5,21.8,8.5,22.3z"/>
		<path class="st1" d="M6.6,22.2c0,0.4-0.1,0.8-0.1,1.3c-0.1,0.7-0.1,1.4-0.2,2.1c0,0.5-0.1,1-0.1,1.5c0,0.2-0.1,0.3-0.3,0.3    c-0.1,0-0.2-0.1-0.3-0.2c0-0.3-0.1-0.7-0.1-1c-0.1-1-0.2-2-0.3-3c-0.1-0.7-0.1-1.4,0-2c0.1-0.7,0.1-1.4,0.2-2    c0-0.6,0.1-1.3,0.2-1.9c0,0,0-0.1,0-0.1c0-0.1,0.1-0.2,0.3-0.2c0.1,0,0.2,0.1,0.2,0.2c0,0.4,0.1,0.8,0.1,1.2    c0.1,0.7,0.1,1.5,0.2,2.2C6.5,21.1,6.6,21.7,6.6,22.2z"/>
		<path class="st1" d="M3.4,22.2c0-0.5,0.1-1,0.1-1.4c0.1-0.6,0.1-1.3,0.2-1.9c0-0.5,0.1-1.1,0.2-1.6c0-0.1,0.1-0.2,0.2-0.2    c0.1,0,0.2,0.1,0.2,0.2c0,0.3,0.1,0.7,0.1,1c0.1,0.8,0.2,1.6,0.2,2.4c0.1,0.5,0.1,1,0.1,1.5c0,0.4-0.1,0.8-0.1,1.2    c-0.1,0.8-0.2,1.6-0.2,2.3c0,0.4-0.1,0.8-0.1,1.3c0,0.1-0.1,0.2-0.2,0.2c-0.2,0-0.2-0.1-0.2-0.3c-0.1-0.9-0.2-1.8-0.3-2.8    c-0.1-0.6-0.1-1.2-0.2-1.8C3.4,22.4,3.4,22.3,3.4,22.2z"/>
		<path class="st1" d="M2.9,22.2c-0.1,0.5-0.1,0.9-0.2,1.3c-0.1,0.8-0.2,1.6-0.3,2.5c0,0.1,0,0.2,0,0.3c0,0.1-0.1,0.2-0.2,0.2    c-0.1,0-0.2-0.1-0.2-0.2c0-0.4-0.1-0.8-0.1-1.2c-0.1-0.8-0.2-1.7-0.3-2.5c-0.1-0.4,0-0.8,0-1.2c0.1-0.7,0.2-1.4,0.2-2.2    c0-0.4,0.1-0.8,0.1-1.2c0-0.1,0.1-0.2,0.2-0.2c0.1,0,0.2,0.1,0.2,0.2c0.1,1.1,0.3,2.2,0.4,3.3C2.8,21.7,2.9,22,2.9,22.2z"/>
		<path class="st1" d="M1.1,22.3C1,22.6,1,23,0.9,23.4c-0.1,0.4-0.1,0.9-0.2,1.3c0,0,0,0.1,0,0.1c0,0.1-0.1,0.1-0.1,0.1    c-0.1,0-0.1-0.1-0.2-0.1c0-0.2-0.1-0.5-0.1-0.7c-0.1-0.6-0.2-1.2-0.2-1.8c0-0.2,0-0.4,0.1-0.7c0.1-0.6,0.2-1.2,0.2-1.9    c0-0.1,0-0.1,0-0.2c0-0.1,0.1-0.1,0.1-0.1c0.1,0,0.1,0.1,0.2,0.1c0,0.2,0.1,0.4,0.1,0.5c0.1,0.6,0.2,1.3,0.3,1.9    C1.1,22.1,1.1,22.2,1.1,22.3z"/>
	</g>
</g>
<style xmlns="" type="text/css" id="YouTubeAdBlocker">body:not(.allowAdsOnThisBody) .ad-container, body:not(.allowAdsOnThisBody) #google_companion_ad_div, body:not(.allowAdsOnThisBody) .iv-promo, body:not(.allowAdsOnThisBody) .iv-promo-video, body:not(.allowAdsOnThisBody) .contains-mute-button, body:not(.allowAdsOnThisBody) .video-annotations, body:not(.allowAdsOnThisBody) .ad-div, body:not(.allowAdsOnThisBody) #masthead-ad, body:not(.allowAdsOnThisBody) #video-masthead, body:not(.allowAdsOnThisBody) .video-masthead-v2, body:not(.allowAdsOnThisBody) ytd-compact-promoted-video-renderer, body:not(.allowAdsOnThisBody) #promotion-shelf, body:not(.allowAdsOnThisBody) .ytp-ad-progress-list, body:not(.allowAdsOnThisBody) .ad-created .annotation, body:not(.allowAdsOnThisBody) .ytp-cards-teaser, body:not(.allowAdsOnThisBody) #player-ads { display:none!important}</style></svg>