<?xml version="1.0" encoding="UTF-8" standalone="no"?>
<svg
   id="Capa_1"
   enable-background="new 0 0 516.657 516.657"
   height="48"
   viewBox="0 0 48.436592 48.436592"
   width="48"
   version="1.1"
   sodipodi:docname="thinking.svg"
   inkscape:version="1.1 (c68e22c387, 2021-05-23)"
   xmlns:inkscape="http://www.inkscape.org/namespaces/inkscape"
   xmlns:sodipodi="http://sodipodi.sourceforge.net/DTD/sodipodi-0.dtd"
   xmlns="http://www.w3.org/2000/svg"
   xmlns:svg="http://www.w3.org/2000/svg">
  <defs
     id="defs9" />
  <sodipodi:namedview
     id="namedview7"
     pagecolor="#ffffff"
     bordercolor="#666666"
     borderopacity="1.0"
     inkscape:pageshadow="2"
     inkscape:pageopacity="0.0"
     inkscape:pagecheckerboard="0"
     showgrid="false"
     units="px"
     width="48mm"
     inkscape:zoom="10.1875"
     inkscape:cx="20.417178"
     inkscape:cy="22.723926"
     inkscape:window-width="1600"
     inkscape:window-height="837"
     inkscape:window-x="-8"
     inkscape:window-y="-8"
     inkscape:window-maximized="1"
     inkscape:current-layer="Capa_1" />
  <path
     d="M 45.534984,12.774556 C 44.088141,11.172089 42.19833,10.108963 40.114362,9.7045258 39.990987,7.9904952 39.301831,6.3776208 38.126675,5.0876213 36.741707,3.5670906 34.847488,2.6770284 32.792958,2.5813098 31.582365,2.524216 30.399708,2.7481847 29.313053,3.2324032 27.597054,1.3671538 25.231648,0.2539668 22.657369,0.13396684 20.448807,0.03140438 18.25262,0.69534163 16.474933,2.0047475 15.100465,3.0172471 14.017559,4.3808403 13.339934,5.930246 12.807809,5.826746 12.267528,5.7617773 11.723309,5.7364648 5.5908431,5.4483711 0.37440749,10.204869 0.08875139,16.33443 c -0.20578116,4.414311 2.22956171,8.515684 6.13265391,10.470371 0.3077812,2.056499 1.5294369,3.823029 3.2419675,4.867592 -0.5649377,0.968906 -0.8902493,2.093905 -0.8902493,3.294092 0,3.618655 2.9439365,6.562498 6.5624975,6.562498 3.23578,0 5.930248,-2.354624 6.464529,-5.440123 0.04538,7.5e-4 0.09084,0.0032 0.136218,0.0032 2.467312,-1.88e-4 4.789593,-1.124344 6.327186,-3.002343 1.191562,0.800343 2.582436,1.26375 4.044467,1.331906 1.900968,0.08859 3.772029,-0.50925 5.267435,-1.683562 1.20675,-0.947719 2.10853,-2.220562 2.603249,-3.653342 4.466248,-0.805969 7.871341,-4.619155 8.087059,-9.244122 0.121688,-2.614218 -0.776999,-5.123623 -2.53078,-7.066029 z M 15.135527,38.716484 c -2.067749,0 -3.749998,-1.682249 -3.749998,-3.749999 0,-2.067749 1.682249,-3.749998 3.749998,-3.749998 2.067749,0 3.749999,1.682249 3.749999,3.749998 0,2.06775 -1.68225,3.749999 -3.749999,3.749999 z M 45.256078,19.70971 c -0.165375,3.548061 -2.95603,6.427779 -6.491153,6.698623 -0.626156,0.048 -1.144688,0.505312 -1.270407,1.120593 -0.241593,1.18228 -0.900842,2.246718 -1.856436,2.997186 -0.964781,0.757594 -2.172561,1.141593 -3.399374,1.086094 -1.319531,-0.0615 -2.549624,-0.6225 -3.463686,-1.579687 -0.314438,-0.32925 -0.768844,-0.485625 -1.219312,-0.420375 -0.450562,0.06543 -0.8415,0.345 -1.049156,0.750187 -0.956624,1.866187 -2.926218,3.007498 -5.018248,2.911499 -0.0044,-1.87e-4 -0.0087,-6.56e-4 -0.01303,-8.44e-4 -0.748781,-2.800218 -3.306749,-4.868998 -6.339748,-4.868998 -1.365749,0 -2.635124,0.419812 -3.686624,1.136531 C 10.001123,28.924113 8.9830922,27.498926 8.9584354,25.843489 8.9499979,25.278552 8.6042483,24.773427 8.0805606,24.561177 4.8167496,23.238365 2.7341879,19.984866 2.8982503,16.465305 3.1118127,11.885056 7.0135926,8.3331513 11.592153,8.5457762 c 0.751969,0.035156 1.493532,0.1707187 2.203969,0.4030311 0.365999,0.1196249 0.765093,0.084 1.104093,-0.098625 0.339,-0.1826249 0.588281,-0.4963123 0.689625,-0.8678434 0.403499,-1.4789057 1.310249,-2.7975927 2.553186,-3.7131549 1.278187,-0.9413434 2.793187,-1.3984682 4.383374,-1.3259058 2.126717,0.099281 4.052717,1.1546246 5.284216,2.8956552 0.439125,0.6209998 1.292437,0.7801872 1.925812,0.3595311 0.869531,-0.5771247 1.881843,-0.8549059 2.925655,-0.8078434 1.304062,0.06075 2.506311,0.625781 3.385405,1.5909369 0.879094,0.9650621 1.32975,2.2146554 1.268906,3.51853 -0.0041,0.08671 -0.01172,0.182532 -0.02343,0.292969 -0.04059,0.382969 0.07753,0.76575 0.326906,1.059187 0.249376,0.293438 0.608156,0.471657 0.992625,0.493312 3.84253,0.21572 6.822841,3.519281 6.643591,7.364154 z"
     id="path2"
     style="stroke-width:0.09375" />
  <path
     d="m 4.7292809,39.185234 c -2.5846865,0 -4.68749824,2.102811 -4.68749824,4.687498 0,2.584687 2.10281174,4.687498 4.68749824,4.687498 2.5846865,0 4.6874986,-2.102811 4.6874986,-4.687498 0,-2.584687 -2.1028121,-4.687498 -4.6874986,-4.687498 z m 0,6.562497 c -1.0338746,0 -1.8749993,-0.841125 -1.8749993,-1.874999 0,-1.033874 0.8411247,-1.874999 1.8749993,-1.874999 1.0338746,0 1.8749993,0.841125 1.8749993,1.874999 0,1.033874 -0.8411247,1.874999 -1.8749993,1.874999 z"
     id="path4"
     style="stroke-width:0.09375" />
</svg>
