<?xml version="1.0" encoding="UTF-8" standalone="no"?>
<svg
   height="48"
   viewBox="-21 -47 36.035191 36.000001"
   width="48"
   version="1.1"
   id="svg10"
   sodipodi:docname="to_watch.svg"
   inkscape:version="1.2.1 (9c6d41e410, 2022-07-14)"
   xml:space="preserve"
   xmlns:inkscape="http://www.inkscape.org/namespaces/inkscape"
   xmlns:sodipodi="http://sodipodi.sourceforge.net/DTD/sodipodi-0.dtd"
   xmlns="http://www.w3.org/2000/svg"
   xmlns:svg="http://www.w3.org/2000/svg"><defs
     id="defs14" /><sodipodi:namedview
     id="namedview12"
     pagecolor="#ffffff"
     bordercolor="#666666"
     borderopacity="1.0"
     inkscape:pageshadow="2"
     inkscape:pageopacity="0.0"
     inkscape:pagecheckerboard="0"
     inkscape:document-units="pt"
     showgrid="false"
     units="px"
     inkscape:zoom="11.472141"
     inkscape:cx="6.0581544"
     inkscape:cy="18.000128"
     inkscape:window-width="2560"
     inkscape:window-height="1351"
     inkscape:window-x="-9"
     inkscape:window-y="-9"
     inkscape:window-maximized="1"
     inkscape:current-layer="svg10"
     inkscape:showpageshadow="0"
     inkscape:deskcolor="#d1d1d1" /><path
     style="fill:#ffffff;stroke-width:0.0531754"
     d="m -14.775514,-12.651869 c -0.470871,-0.08023 -0.901511,-0.418393 -1.168077,-0.91726 l -0.119973,-0.224523 v -13.719253 c 0,-11.381904 0.01228,-13.764556 0.07212,-13.985136 0.278871,-1.028176 0.640374,-1.716691 1.223054,-2.329415 0.700839,-0.736976 1.46092,-1.173426 2.533463,-1.454756 0.354001,-0.09286 0.807059,-0.09764 9.2525209,-0.09764 8.4454657,0 8.8985245,0.0046 9.2525257,0.09764 1.0215339,0.267948 1.6745129,0.626122 2.3843462,1.307865 0.6652927,0.638967 1.0737757,1.376139 1.3721702,2.476306 0.05983,0.22058 0.07212,2.603232 0.07212,13.985136 v 13.719253 l -0.1219455,0.228394 c -0.324152,0.607094 -0.8242318,0.925508 -1.4597118,0.929451 -0.2777251,0.0014 -0.4549048,-0.02818 -0.6323554,-0.106765 -0.1355848,-0.06004 -2.6164725,-1.463695 -5.513089,-3.11924 -2.89661139,-1.655547 -5.3061478,-3.010086 -5.3545285,-3.010086 -0.048375,0 -0.5107465,0.243291 -1.0274862,0.540647 -0.5167398,0.297352 -1.1788161,0.67726 -1.4712791,0.844242 -0.7893973,0.450691 -2.0511781,1.170123 -2.2333691,1.273404 -0.087742,0.04975 -0.4945309,0.282736 -0.9039801,0.517768 -1.0467189,0.600839 -2.2433013,1.282312 -2.5258323,1.4385 -0.131613,0.07275 -0.263224,0.149811 -0.292469,0.171227 -0.02925,0.02143 -0.160856,0.09847 -0.292462,0.171227 -0.131612,0.07275 -0.58626,0.331251 -1.010335,0.574433 -1.210772,0.694313 -1.475717,0.783946 -2.035413,0.688586 z m 2.449366,-4.698005 c 0.225648,-0.128017 0.49402,-0.280277 0.596381,-0.338354 0.102355,-0.05807 1.262916,-0.721532 2.5790047,-1.474362 1.3160935,-0.752825 2.4886095,-1.422735 2.6056007,-1.488686 0.1169811,-0.06596 0.8053777,-0.459518 1.5297645,-0.874587 0.7243869,-0.415069 1.4153505,-0.789345 1.5354766,-0.831733 0.2831764,-0.09991 0.7166803,-0.09821 1.0062387,0.0041 0.1262983,0.04454 0.4104719,0.185253 0.6314965,0.312651 0.2210244,0.127398 0.4856126,0.278917 0.5879736,0.336702 0.44930018,0.253639 5.1120109,2.916969 5.4238959,3.098112 0.1901018,0.110412 0.4293924,0.247897 0.5317535,0.305518 0.1023611,0.05763 0.6090829,0.347491 1.1260477,0.644153 0.5169648,0.29666 0.9536648,0.539382 0.9704481,0.539382 0.016773,0 0.030528,-5.349598 0.030528,-11.888 V -40.892983 L 6.6938951,-41.177442 C 6.5455568,-41.491004 6.2637866,-41.77391 5.9135848,-41.960897 l -0.2283933,-0.121947 h -8.6675947 -8.6675908 l -0.228392,0.121947 c -0.350202,0.186987 -0.631972,0.469893 -0.780311,0.783455 l -0.134567,0.284459 v 11.887996 c 0,6.538402 0.01279,11.888001 0.02844,11.888001 0.01565,0 0.213052,-0.104742 0.438694,-0.232761 z"
     id="path1771" /></svg>
