<?xml version="1.0" encoding="UTF-8" standalone="no"?>
<!-- Created with Inkscape (http://www.inkscape.org/) -->

<svg
   width="32"
   height="32"
   viewBox="0 0 8.4666665 8.4666669"
   version="1.1"
   id="svg5"
   inkscape:version="1.1 (c68e22c387, 2021-05-23)"
   sodipodi:docname="tv.svg"
   xmlns:inkscape="http://www.inkscape.org/namespaces/inkscape"
   xmlns:sodipodi="http://sodipodi.sourceforge.net/DTD/sodipodi-0.dtd"
   xmlns="http://www.w3.org/2000/svg"
   xmlns:svg="http://www.w3.org/2000/svg">
  <sodipodi:namedview
     id="namedview7"
     pagecolor="#ffffff"
     bordercolor="#666666"
     borderopacity="1.0"
     inkscape:pageshadow="2"
     inkscape:pageopacity="0.0"
     inkscape:pagecheckerboard="0"
     inkscape:document-units="mm"
     showgrid="false"
     units="px"
     width="32px"
     inkscape:zoom="13.142821"
     inkscape:cx="13.086992"
     inkscape:cy="20.733752"
     inkscape:window-width="1600"
     inkscape:window-height="837"
     inkscape:window-x="1912"
     inkscape:window-y="174"
     inkscape:window-maximized="1"
     inkscape:current-layer="layer1" />
  <defs
     id="defs2" />
  <g
     inkscape:label="Слой 1"
     inkscape:groupmode="layer"
     id="layer1">
    <path
       style="fill:#000000;stroke-width:0.0133877"
       d="m 2.8260166,7.9056658 c -0.113159,-0.05639 -0.176565,-0.168209 -0.176099,-0.310558 4.5e-4,-0.142688 0.06562,-0.255051 0.179993,-0.310417 0.05146,-0.02491 0.0822,-0.02699 0.39882,-0.02699 0.188684,0 0.3458,-0.0045 0.349147,-0.01004 0.0033,-0.0055 0.0082,-0.04016 0.01083,-0.07698 l 0.0047,-0.06694 -1.486032,-0.0067 -1.48603196,-0.0067 -0.08249,-0.03535 c -0.207237,-0.08883 -0.356805,-0.235591 -0.4536,-0.445089 -0.09215,-0.19945 -0.08764,-0.05908 -0.08349,-2.598721 l 0.0037,-2.289293 0.04119,-0.109317 c 0.108137,-0.286992 0.306806,-0.483817 0.558848,-0.553661 0.09412,-0.02608 0.149526,-0.02649 3.63073396,-0.02649 3.8592243,0 3.5994173,-0.0052 3.7579953,0.07516 0.21179,0.107321 0.357531,0.283796 0.440985,0.533978 l 0.03126,0.09371 v 2.316068 c 0,2.60819 0.0085,2.393277 -0.102886,2.603499 -0.09219,0.174009 -0.211849,0.293084 -0.372376,0.370571 -0.152756,0.07373 -0.09755,0.0713 -1.6183143,0.07147 l -1.410804,1.52e-4 0.0083,0.0502 c 0.0046,0.02761 0.0084,0.06387 0.0084,0.08057 l 1.51e-4,0.03037 0.3271,-9.79e-4 c 0.372571,-0.0011 0.390144,0.0029 0.48191,0.110113 0.147913,0.172803 0.09278,0.451453 -0.107998,0.545829 -0.0573,0.02694 -0.07704,0.02732 -1.421172,0.02732 h -1.363064 z m 4.9827793,-1.44227 c 0.02733,-0.02084 0.06602,-0.06257 0.08598,-0.09273 l 0.03629,-0.05483 0.0035,-2.230663 0.0035,-2.230663 -0.03697,-0.07233 c -0.02033,-0.03978 -0.06012,-0.0907 -0.08842,-0.11316 l -0.05145,-0.04084 -3.4895953,-0.0039 c -2.450754,-0.0028 -3.50436096,3.44e-4 -3.53919496,0.0104 -0.06488,0.01875 -0.125165,0.07057 -0.161843,0.139137 l -0.02953,0.05521 -0.0038,2.208967 c -0.0028,1.617076 2.58e-4,2.223831 0.01138,2.264441 0.0189,0.069 0.07991,0.144516 0.144276,0.178572 0.04811,0.02546 0.110861,0.02586 3.55758596,0.02312 l 3.5086143,-0.0028 z M 2.5157466,4.3124088 v -1.392318 h -0.609139 -0.609139 v -0.180734 -0.180733 h 1.43287 1.43287 l -0.0037,0.177386 -0.0037,0.177387 -0.599099,0.0035 -0.599098,0.0035 v 1.392181 1.392181 h -0.220899 -0.220897 z m 2.890372,1.302276 c -0.01904,-0.04988 -0.1826,-0.458182 -0.363456,-0.907339 -0.180856,-0.449157 -0.449365,-1.116365 -0.596686,-1.482685 l -0.267855,-0.666037 0.23648,2.02e-4 0.23648,2.03e-4 0.05852,0.157103 c 0.03219,0.08641 0.120383,0.316751 0.195994,0.511876 0.07561,0.195125 0.182889,0.472251 0.238395,0.615833 0.05551,0.143583 0.184931,0.477941 0.287611,0.743017 0.10268,0.265076 0.191065,0.496118 0.196412,0.513426 0.0053,0.01731 0.01475,0.02634 0.0209,0.02008 0.0061,-0.0063 0.07217,-0.171037 0.146718,-0.366163 0.07455,-0.195125 0.156778,-0.40873 0.182738,-0.474677 0.02596,-0.06595 0.158694,-0.409341 0.294963,-0.763097 0.13627,-0.353757 0.275152,-0.713981 0.308627,-0.800499 l 0.06086,-0.157305 h 0.232448 c 0.127845,0 0.232447,0.0033 0.232447,0.0074 0,0.004 -0.122917,0.3128 -0.273148,0.686118 -0.150231,0.373318 -0.398016,0.98902 -0.550631,1.368226 -0.152616,0.379206 -0.312361,0.77682 -0.354987,0.883587 l -0.0775,0.194121 -0.205352,0.0037 -0.205353,0.0037 z"
       id="path854" />
  </g>
</svg>
