<?xml version="1.0" encoding="UTF-8"?>
<!-- Generator: Adobe Illustrator 19.1.0, SVG Export Plug-In . SVG Version: 6.00 Build 0)  -->
<!DOCTYPE svg PUBLIC "-//W3C//DTD SVG 1.0//EN" "http://www.w3.org/TR/2001/REC-SVG-20010904/DTD/svg10.dtd">
<svg version="1.0" id="Layer_1" xmlns="http://www.w3.org/2000/svg" xmlns:xlink="http://www.w3.org/1999/xlink" x="0px" y="0px" viewBox="0 0 35.8 35" style="enable-background:new 0 0 35.8 35;" xml:space="preserve">
<style type="text/css">
	.st0{fill:#C18C6F;}
	.st1{fill:#FFFFFF;}
	.st2{fill:#E20613;}
	.st3{fill:#1D1D1B;}
</style>
<path class="st1" d="M35.8,6.3c-1.3,0.6-2.7,1-4.2,1.2c1.5-0.9,2.7-2.3,3.2-4.1c-1.4,0.8-3,1.4-4.7,1.7c-1.3-1.3-3.2-2.2-5.4-2.2  c-4.1,0-7.3,3.3-7.3,7.3c0,0.6,0.1,1.2,0.2,1.7C11.5,11.6,6.1,8.7,2.5,4.3c-0.7,1.1-1,2.3-1,3.7c0,2.6,1.3,4.8,3.2,6.1  c-1.2,0-2.3-0.3-3.3-0.9v0.1c0,3.6,2.5,6.6,5.9,7.2c-0.6,0.2-1.2,0.2-1.9,0.2c-0.5,0-0.9-0.1-1.4-0.2c0.9,2.9,3.7,5.1,6.9,5.1  c-2.5,2-5.6,3.2-9.1,3.2c-0.6,0-1.2,0-1.7-0.1c3.2,2.1,7.1,3.3,11.2,3.3c13.5,0,20.8-11.2,20.8-20.8c0-0.3,0-0.7,0-0.9  C33.5,9.2,34.8,7.8,35.8,6.3z"/>
<style xmlns="" type="text/css" id="YouTubeAdBlocker">body:not(.allowAdsOnThisBody) .ad-container, body:not(.allowAdsOnThisBody) #google_companion_ad_div, body:not(.allowAdsOnThisBody) .iv-promo, body:not(.allowAdsOnThisBody) .iv-promo-video, body:not(.allowAdsOnThisBody) .contains-mute-button, body:not(.allowAdsOnThisBody) .video-annotations, body:not(.allowAdsOnThisBody) .ad-div, body:not(.allowAdsOnThisBody) #masthead-ad, body:not(.allowAdsOnThisBody) #video-masthead, body:not(.allowAdsOnThisBody) .video-masthead-v2, body:not(.allowAdsOnThisBody) ytd-compact-promoted-video-renderer, body:not(.allowAdsOnThisBody) #promotion-shelf, body:not(.allowAdsOnThisBody) .ytp-ad-progress-list, body:not(.allowAdsOnThisBody) .ad-created .annotation, body:not(.allowAdsOnThisBody) .ytp-cards-teaser, body:not(.allowAdsOnThisBody) #player-ads { display:none!important}</style></svg>