<?xml version="1.0" encoding="UTF-8" standalone="no"?>
<!-- Created with Inkscape (http://www.inkscape.org/) -->

<svg
   width="32"
   height="32"
   viewBox="0 0 8.4666659 8.4666659"
   version="1.1"
   id="svg5"
   sodipodi:docname="user_online.svg"
   inkscape:version="1.1 (c68e22c387, 2021-05-23)"
   xmlns:inkscape="http://www.inkscape.org/namespaces/inkscape"
   xmlns:sodipodi="http://sodipodi.sourceforge.net/DTD/sodipodi-0.dtd"
   xmlns="http://www.w3.org/2000/svg"
   xmlns:svg="http://www.w3.org/2000/svg">
  <sodipodi:namedview
     id="namedview7"
     pagecolor="#ffffff"
     bordercolor="#666666"
     borderopacity="1.0"
     inkscape:pageshadow="2"
     inkscape:pageopacity="0.0"
     inkscape:pagecheckerboard="0"
     inkscape:document-units="px"
     showgrid="false"
     units="px"
     inkscape:zoom="4.7179573"
     inkscape:cx="65.494445"
     inkscape:cy="49.91567"
     inkscape:window-width="1600"
     inkscape:window-height="847"
     inkscape:window-x="-8"
     inkscape:window-y="-8"
     inkscape:window-maximized="1"
     inkscape:current-layer="layer1" />
  <defs
     id="defs2">
	
	
</defs>
  <g
     inkscape:label="Слой 1"
     inkscape:groupmode="layer"
     id="layer1">
    <g
       id="g8661"
       transform="translate(-10.569076,0.36917923)"
       style="fill:#ffffff;fill-opacity:1">
      <path
         d="m 14.802408,4.6842918 c -0.942809,0 -1.709796,-0.766987 -1.709796,-1.709797 0,-0.94281 0.766987,-1.709795 1.709796,-1.709795 0.942718,0 1.709798,0.766985 1.709798,1.709795 0,0.94281 -0.76708,1.709797 -1.709798,1.709797 z"
         style="fill:#ffffff;fill-rule:nonzero;stroke:none;stroke-width:0.094074;stroke-linecap:butt;stroke-linejoin:miter;stroke-miterlimit:10;stroke-dasharray:none;fill-opacity:1"
         stroke-linecap="round"
         id="path1128-8" />
      <path
         d="m 14.802408,-0.36917923 c -2.334259,0 -4.233332,1.89907403 -4.233332,4.23333203 0,2.33426 1.899073,4.233333 4.233332,4.233333 2.334261,0 4.233334,-1.899073 4.233334,-4.233333 0,-2.334258 -1.899073,-4.23333203 -4.233334,-4.23333203 z m 2.805384,6.59421503 c -0.333304,-0.494171 -0.795585,-0.9001 -1.331995,-1.160215 -0.212701,-0.103105 -0.461057,-0.101601 -0.681754,0.0044 -0.248168,0.119285 -0.514587,0.179682 -0.791635,0.179682 -0.277048,0 -0.543371,-0.06049 -0.791633,-0.179682 -0.220415,-0.105833 -0.468865,-0.107526 -0.681754,-0.0044 -0.53641,0.260115 -0.998691,0.666044 -1.332089,1.160215 -0.538197,-0.638575 -0.863411,-1.462287 -0.863411,-2.360883 0,-2.023063 1.645825,-3.66888703 3.668887,-3.66888703 2.023064,0 3.668889,1.64582403 3.668889,3.66888703 0,0.898596 -0.325214,1.722308 -0.863505,2.360883 z"
         style="fill:#ffffff;fill-rule:nonzero;stroke:none;stroke-width:0.094074;stroke-linecap:butt;stroke-linejoin:miter;stroke-miterlimit:10;stroke-dasharray:none;fill-opacity:1"
         stroke-linecap="round"
         id="path1130-8" />
    </g>
  </g>
</svg>
