<?xml version="1.0" encoding="UTF-8" standalone="no"?>
<!-- Created with Inkscape (http://www.inkscape.org/) -->

<svg
   width="32"
   height="32"
   viewBox="0 0 8.4666659 8.4666659"
   version="1.1"
   id="svg5"
   inkscape:version="1.1 (c68e22c387, 2021-05-23)"
   sodipodi:docname="user_offline.svg"
   xmlns:inkscape="http://www.inkscape.org/namespaces/inkscape"
   xmlns:sodipodi="http://sodipodi.sourceforge.net/DTD/sodipodi-0.dtd"
   xmlns="http://www.w3.org/2000/svg"
   xmlns:svg="http://www.w3.org/2000/svg">
  <sodipodi:namedview
     id="namedview7"
     pagecolor="#ffffff"
     bordercolor="#666666"
     borderopacity="1.0"
     inkscape:pageshadow="2"
     inkscape:pageopacity="0.0"
     inkscape:pagecheckerboard="0"
     inkscape:document-units="px"
     showgrid="false"
     units="px"
     inkscape:zoom="4.7179573"
     inkscape:cx="65.494445"
     inkscape:cy="49.91567"
     inkscape:window-width="1600"
     inkscape:window-height="847"
     inkscape:window-x="-8"
     inkscape:window-y="-8"
     inkscape:window-maximized="1"
     inkscape:current-layer="layer1" />
  <defs
     id="defs2">
	
	
</defs>
  <g
     inkscape:label="Слой 1"
     inkscape:groupmode="layer"
     id="layer1">
    <g
       id="g8657"
       transform="translate(-0.19138615,0.0326558)"
       style="fill:#ffffff;fill-opacity:1">
      <path
         id="path8075"
         style="fill:#ffffff;fill-rule:nonzero;stroke:none;stroke-width:0.0940739;stroke-linecap:butt;stroke-linejoin:miter;stroke-miterlimit:10;stroke-dasharray:none;fill-opacity:1"
         d="m 4.4247522,1.6011754 c -0.942808,0 -1.709811,0.7670018 -1.709811,1.7098107 0,0.9428094 0.767003,1.7098113 1.709811,1.7098113 0.942717,0 1.709745,-0.7670019 1.709745,-1.7098113 0,-0.9428089 -0.767028,-1.7098107 -1.709745,-1.7098107 z m -0.0236,0.6035241 c 0.01656,-1.004e-4 0.03314,1.391e-4 0.04969,7.212e-4 0.01655,5.947e-4 0.03305,0.00158 0.04956,0.00288 0.01651,0.0013 0.033,0.0029 0.04943,0.0049 0.01644,0.002 0.03284,0.00435 0.04917,0.00706 0.01633,0.00271 0.03258,0.0058 0.04878,0.00922 0.0162,0.00342 0.03235,0.00719 0.04839,0.011312 0.01604,0.00412 0.03202,0.00864 0.04786,0.01347 0.01528,0.00414 0.0304,0.0086 0.04538,0.01347 0.01498,0.00487 0.02974,0.010121 0.0444,0.015693 0.01466,0.00557 0.02916,0.01147 0.04348,0.01772 0.01433,0.00625 0.02852,0.012842 0.0425,0.019747 0.01398,0.0069 0.02777,0.014108 0.04139,0.021643 0.01362,0.00753 0.0271,0.015396 0.04034,0.023539 0.01325,0.00814 0.0263,0.016578 0.03917,0.025305 0.01286,0.00873 0.02553,0.017783 0.03799,0.02707 0.01246,0.00929 0.0247,0.018816 0.03675,0.028639 0.01205,0.00982 0.02389,0.019938 0.0355,0.030274 0.01162,0.010336 0.02302,0.020887 0.0342,0.031713 0.01117,0.010825 0.0221,0.021926 0.03283,0.033216 0.01072,0.01129 0.0212,0.022792 0.03145,0.034524 0.01025,0.011733 0.02031,0.023682 0.03008,0.035833 0.0098,0.012151 0.01924,0.024464 0.02851,0.037009 0.0093,0.012546 0.01832,0.025335 0.02707,0.038251 0.0088,0.012916 0.01721,0.025969 0.02544,0.039233 0.0082,0.013263 0.01624,0.026692 0.02393,0.040278 0.0077,0.013587 0.01509,0.027373 0.02223,0.04126 0.0071,0.013887 0.01396,0.027881 0.02053,0.042044 0.0066,0.014163 0.01284,0.028479 0.01883,0.042894 0.006,0.014415 0.01174,0.028969 0.01713,0.043613 0.0054,0.014644 0.01045,0.029352 0.01524,0.044202 0.0048,0.01485 0.0092,0.029825 0.01341,0.044856 0.0042,0.015031 0.008,0.030124 0.01158,0.045313 0.0035,0.015189 0.0067,0.030448 0.0096,0.045771 0.0029,0.015323 0.0054,0.030729 0.0076,0.046163 0.0022,0.015434 0.0041,0.030904 0.0056,0.046425 0.0015,0.015521 0.0027,0.031103 0.0035,0.046686 8.85e-4,0.015584 0.0014,0.031194 0.0015,0.046817 1.27e-4,0.015624 -1.26e-4,0.031243 -7.59e-4,0.046883 -6.32e-4,0.01564 -0.0015,0.031316 -0.0028,0.046948 -3.79e-4,0.00853 -8.85e-4,0.017013 -0.0016,0.025501 -6.32e-4,0.00849 -0.0014,0.016928 -0.0022,0.02537 -8.85e-4,0.00844 -0.0018,0.016911 -0.0029,0.025305 -0.001,0.00839 -0.0022,0.016766 -0.0035,0.025109 -0.0013,0.00834 -0.0027,0.016625 -0.0042,0.024913 -0.0015,0.00829 -0.0031,0.016551 -0.0048,0.024782 -0.0017,0.00823 -0.0036,0.016415 -0.0055,0.024586 -0.0019,0.00817 -0.0039,0.016347 -0.0061,0.024455 -0.0043,0.016216 -0.009,0.032306 -0.01406,0.048255 -0.0051,0.015949 -0.01055,0.031745 -0.01641,0.047406 -0.0059,0.01566 -0.0121,0.031141 -0.0187,0.04649 -0.0066,0.01535 -0.01359,0.030558 -0.02093,0.045575 -0.0073,0.015017 -0.01498,0.029867 -0.02302,0.044529 -0.008,0.014662 -0.01646,0.029132 -0.02517,0.043417 -0.0087,0.014285 -0.01771,0.028354 -0.02707,0.04224 -0.0094,0.013886 -0.01905,0.027598 -0.02903,0.041063 -0.01,0.013465 -0.02029,0.026733 -0.03086,0.039755 -0.01058,0.013022 -0.02142,0.025825 -0.03256,0.038382 -0.01115,0.012557 -0.02257,0.024874 -0.03426,0.036944 -0.01169,0.01207 -0.02369,0.023879 -0.0359,0.03544 -0.0122,0.011561 -0.02464,0.022841 -0.03733,0.033871 -0.0127,0.01103 -0.02562,0.021824 -0.03878,0.032301 -0.01316,0.010477 -0.02655,0.020634 -0.04015,0.030536 -0.0136,0.0099 -0.02738,0.019531 -0.04139,0.028836 -0.01401,0.0093 -0.02824,0.018319 -0.04263,0.027005 -0.01439,0.00869 -0.02899,0.017064 -0.04374,0.025109 -0.01475,0.00804 -0.02964,0.0157 -0.04472,0.023082 -0.01508,0.00738 -0.03032,0.014489 -0.04571,0.021185 -0.01539,0.0067 -0.03095,0.013038 -0.04662,0.019028 -0.01567,0.00599 -0.03148,0.011609 -0.0474,0.01687 -0.01592,0.00526 -0.03198,0.010138 -0.04812,0.014647 -0.01615,0.00451 -0.03236,0.00862 -0.04871,0.012358 -0.01635,0.00374 -0.03284,0.00706 -0.04937,0.010004 -0.01653,0.00294 -0.03308,0.00553 -0.04976,0.00765 -0.01667,0.00212 -0.03342,0.00382 -0.05022,0.0051 -0.0084,6.453e-4 -0.01682,0.0012 -0.02524,0.00163 -0.0084,4.302e-4 -0.01686,7.086e-4 -0.02531,9.11e-4 -0.01625,0.00109 -0.03247,0.00178 -0.04865,0.00203 -0.01618,2.405e-4 -0.03236,3.36e-5 -0.04845,-5.187e-4 -0.01609,-5.694e-4 -0.03208,-0.00151 -0.04806,-0.00288 -0.01598,-0.00137 -0.03189,-0.00314 -0.04773,-0.0053 -0.01584,-0.00215 -0.03165,-0.00468 -0.04734,-0.00758 -0.01569,-0.00291 -0.0313,-0.00623 -0.04682,-0.00987 -0.01552,-0.00365 -0.03091,-0.00767 -0.04623,-0.012031 -0.01532,-0.00437 -0.03054,-0.00906 -0.04564,-0.014123 -0.0151,-0.00506 -0.03013,-0.010476 -0.04499,-0.016216 -0.01486,-0.00574 -0.0296,-0.011846 -0.0442,-0.018243 -0.0146,-0.0064 -0.02903,-0.013105 -0.04335,-0.020139 -0.01432,-0.00703 -0.02849,-0.014386 -0.0425,-0.022036 -0.01401,-0.00765 -0.02783,-0.015621 -0.04152,-0.023866 -0.01369,-0.00824 -0.02726,-0.016746 -0.04061,-0.025566 -0.01334,-0.00882 -0.02646,-0.017957 -0.03943,-0.027332 -0.01297,-0.00937 -0.0258,-0.018992 -0.03838,-0.028901 -0.01259,-0.00991 -0.02497,-0.020112 -0.03714,-0.030536 -0.01217,-0.010422 -0.02409,-0.021057 -0.03583,-0.031974 -0.01174,-0.010917 -0.02324,-0.022089 -0.03452,-0.033478 -0.01129,-0.011391 -0.02234,-0.023009 -0.03315,-0.034852 -0.0108,-0.011842 -0.0214,-0.023885 -0.03171,-0.036159 -0.01031,-0.012275 -0.02041,-0.02478 -0.03021,-0.037467 -0.0098,-0.012687 -0.01932,-0.025566 -0.02857,-0.038644 -0.0093,-0.013078 -0.01824,-0.026371 -0.02694,-0.039821 -0.0087,-0.013449 -0.01706,-0.027067 -0.02517,-0.040867 -0.0081,-0.0138 -0.01596,-0.027783 -0.02347,-0.041913 -0.0075,-0.01413 -0.01469,-0.028389 -0.02158,-0.042828 -0.0069,-0.01444 -0.01344,-0.029015 -0.01968,-0.043744 -0.0062,-0.014729 -0.01215,-0.029661 -0.01772,-0.04466 -0.0056,-0.014998 -0.01081,-0.030066 -0.01569,-0.045313 -0.0049,-0.015247 -0.0094,-0.030623 -0.0136,-0.046098 -0.0042,-0.015475 -0.008,-0.031069 -0.01144,-0.046752 -0.0026,-0.00981 -0.005,-0.019648 -0.0073,-0.02949 -0.0023,-0.00984 -0.0044,-0.019691 -0.0063,-0.029555 -0.0019,-0.00986 -0.0037,-0.019739 -0.0053,-0.029621 -0.0016,-0.00988 -0.003,-0.019794 -0.0043,-0.029686 -0.0013,-0.00989 -0.0024,-0.019788 -0.0034,-0.029686 -10e-4,-0.0099 -0.0017,-0.019788 -0.0024,-0.029686 -6.33e-4,-0.0099 -0.0011,-0.019794 -0.0014,-0.029686 -3.8e-4,-0.00989 -5.06e-4,-0.019805 -5.06e-4,-0.029686 -2.2e-5,-0.00988 10e-5,-0.019756 3.79e-4,-0.029621 2.53e-4,-0.00986 6.33e-4,-0.019713 0.0013,-0.029555 6.33e-4,-0.00984 0.0014,-0.019675 0.0022,-0.02949 8.86e-4,-0.00981 0.0018,-0.019578 0.003,-0.029359 0.0011,-0.00978 0.0025,-0.019552 0.0039,-0.029293 0.0014,-0.00974 0.0031,-0.019465 0.0048,-0.029163 0.0017,-0.0097 0.0036,-0.019384 0.0056,-0.029032 0.002,-0.00965 0.0041,-0.019244 0.0064,-0.028836 0.0023,-0.00959 0.0047,-0.019174 0.0072,-0.028705 0.0025,-0.00953 0.0052,-0.019045 0.008,-0.028509 0.0028,-0.00946 0.0057,-0.018856 0.0088,-0.028247 0.0031,-0.00939 0.0063,-0.018737 0.0096,-0.028051 0.0033,-0.00931 0.0067,-0.018625 0.01026,-0.027855 0.0036,-0.00923 0.0072,-0.018387 0.01105,-0.027528 0.0038,-0.00914 0.0078,-0.01822 0.01183,-0.027267 0.0041,-0.00905 0.0082,-0.018058 0.01249,-0.027005 0.0043,-0.00895 0.0087,-0.017837 0.01321,-0.026678 0.0045,-0.00884 0.0091,-0.017622 0.01386,-0.026351 0.0047,-0.00873 0.0096,-0.017411 0.01458,-0.026024 0.005,-0.00861 0.01,-0.017207 0.01517,-0.025697 0.0052,-0.00849 0.01049,-0.016877 0.01589,-0.02524 0.0054,-0.00836 0.01087,-0.016684 0.01648,-0.024913 0.0056,-0.00823 0.01132,-0.016365 0.01713,-0.024455 0.0058,-0.00809 0.01172,-0.016117 0.01772,-0.024063 0.006,-0.00794 0.01217,-0.01581 0.01837,-0.023605 0.0062,-0.00779 0.0125,-0.015508 0.0189,-0.023147 0.0064,-0.00764 0.0129,-0.015212 0.01949,-0.022689 0.0066,-0.00748 0.01324,-0.014855 0.02001,-0.022166 0.0068,-0.00731 0.01359,-0.01457 0.02053,-0.021708 0.0069,-0.00714 0.014,-0.01416 0.02112,-0.02112 0.0071,-0.00696 0.01429,-0.01382 0.02158,-0.020597 0.0073,-0.00678 0.01465,-0.013486 0.0221,-0.020074 0.0075,-0.00659 0.01501,-0.013092 0.02262,-0.019486 0.0076,-0.00639 0.01532,-0.012704 0.02308,-0.018897 0.0078,-0.00619 0.01556,-0.012256 0.02347,-0.018243 0.0079,-0.00599 0.01593,-0.011879 0.024,-0.017655 0.0081,-0.00577 0.01618,-0.011442 0.02439,-0.017001 0.0082,-0.00556 0.0165,-0.011011 0.02485,-0.016347 0.0084,-0.00534 0.01676,-0.01052 0.02524,-0.015628 0.0085,-0.00511 0.01702,-0.0101 0.02563,-0.014974 0.0086,-0.00487 0.01729,-0.00968 0.02602,-0.01432 0.0087,-0.00463 0.0175,-0.00915 0.02635,-0.013535 0.0089,-0.00439 0.01778,-0.00861 0.02674,-0.01275 0.009,-0.00414 0.01799,-0.00815 0.02707,-0.012032 0.0091,-0.00388 0.01821,-0.00769 0.0274,-0.011312 0.0092,-0.00362 0.01844,-0.00711 0.02772,-0.010462 0.0093,-0.00336 0.0186,-0.00653 0.02799,-0.00961 0.0094,-0.00308 0.01883,-0.00602 0.02831,-0.00883 0.0095,-0.00281 0.01901,-0.00552 0.02857,-0.00804 0.0096,-0.00252 0.01918,-0.0049 0.02884,-0.00713 0.0097,-0.00223 0.01936,-0.00428 0.0291,-0.00621 0.0097,-0.00194 0.01949,-0.00373 0.02929,-0.00536 0.0098,-0.00164 0.01967,-0.00312 0.02956,-0.00445 0.0099,-0.00133 0.01974,-0.00251 0.02969,-0.00353 0.0099,-0.00101 0.01994,-0.00191 0.02995,-0.00261 0.01001,-6.96e-4 0.02008,-0.00119 0.03014,-0.00157 0.01654,-8.225e-4 0.03307,-0.00133 0.04963,-0.00144 z" />
      <path
         id="path1130-8-6"
         style="fill:#ffffff;fill-rule:nonzero;stroke:none;stroke-width:0.0940739;stroke-linecap:butt;stroke-linejoin:miter;stroke-miterlimit:10;stroke-dasharray:none;fill-opacity:1"
         d="m 4.4247522,-0.0326558 c -2.334255,0 -4.23336605,1.8990454 -4.23336605,4.2333008 0,2.3342559 1.89911105,4.2333009 4.23336605,4.2333009 2.334258,0 4.2333,-1.899045 4.2333,-4.2333009 0,-2.3342554 -1.899042,-4.2333008 -4.2333,-4.2333008 z m 0,0.5644228 c 2.023062,0 3.668879,1.6458182 3.668879,3.668878 0,0.8985953 -0.325214,1.7222976 -0.863504,2.3608711 C 6.8968212,6.067346 6.4345332,5.6614 5.8981232,5.4012855 c -0.2127,-0.1031046 -0.461095,-0.1015696 -0.681793,0.00445 -0.248167,0.1192858 -0.514529,0.1796842 -0.791578,0.1796842 -0.277047,0 -0.543383,-0.060492 -0.791644,-0.1796842 C 3.4126932,5.2998995 3.1642052,5.298176 2.9513162,5.4012855 2.4149062,5.6614 1.9526452,6.067346 1.6192472,6.5615161 1.0810512,5.9229426 0.75580915,5.0992403 0.75580915,4.200645 c 0,-2.0230598 1.64588505,-3.668878 3.66894305,-3.668878 z m -1.124529,5.4127556 c 0.508731,0.2128016 1.080449,0.3223148 1.626573,0.2019815 0.228974,-0.022304 0.421711,-0.1710569 0.649033,-0.1960963 0.511676,0.1795084 0.897578,0.5922533 1.207702,1.0216761 -0.335421,0.285784 -0.723779,0.508578 -1.137999,0.658383 -1.192952,0.445817 -2.608869,0.172792 -3.569097,-0.657402 0.146366,-0.2070736 0.309373,-0.4035742 0.496746,-0.5749496 0.218898,-0.1766587 0.43535,-0.3856638 0.716907,-0.4533964 z" />
    </g>
  </g>
</svg>
