<?xml version="1.0" encoding="UTF-8"?>
<!-- Generator: Adobe Illustrator 19.1.0, SVG Export Plug-In . SVG Version: 6.00 Build 0)  -->
<!DOCTYPE svg PUBLIC "-//W3C//DTD SVG 1.0//EN" "http://www.w3.org/TR/2001/REC-SVG-20010904/DTD/svg10.dtd">
<svg version="1.0" id="Layer_1" xmlns="http://www.w3.org/2000/svg" xmlns:xlink="http://www.w3.org/1999/xlink" x="0px" y="0px" viewBox="0 0 38.1 35" style="enable-background:new 0 0 38.1 35;" xml:space="preserve">
<style type="text/css">
	.st0{fill:#C18C6F;}
	.st1{fill:#FFFFFF;}
	.st2{fill:#E20613;}
	.st3{fill:#1D1D1B;}
</style>
<g>
	<g>
		<path class="st1" d="M16.4,4.1c1.2,0,2.4,0,3.6,0c1.8,0,3.5,0,5.3,0.1c1.7,0,3.4,0.1,5.1,0.2c1,0,2,0.1,3,0.3    c1.9,0.3,3.2,1.4,3.9,3.3c0.3,0.9,0.5,1.9,0.6,2.9c0.1,1.3,0.2,2.7,0.3,4.1c0,2.4,0.1,4.8-0.1,7.2c-0.1,1-0.1,2-0.3,3    c-0.1,1-0.4,1.9-0.8,2.8c-0.7,1.4-1.8,2.1-3.3,2.4c-0.7,0.1-1.5,0.2-2.2,0.2c-1.7,0.1-3.5,0.2-5.2,0.2c-0.8,0-1.7,0-2.5,0.1    c-1.4,0-2.8,0.1-4.2,0c-1.9,0-3.8,0-5.7-0.1c-1.4,0-2.7-0.1-4.1-0.1c-1.1,0-2.3-0.1-3.4-0.2c-0.7-0.1-1.4-0.2-2.1-0.3    c-1.6-0.4-2.7-1.4-3.2-3c-0.3-1-0.6-2-0.6-3c-0.1-1.3-0.2-2.7-0.3-4c0-2.4-0.1-4.8,0.1-7.3c0.1-1,0.1-2,0.3-3c0.1-1,0.4-2,0.9-2.9    C2,5.7,3.1,5,4.5,4.7c0.7-0.1,1.4-0.2,2.1-0.2c1.7-0.1,3.4-0.2,5.1-0.2c0.8,0,1.7,0,2.5-0.1C14.9,4.2,15.7,4.2,16.4,4.1    C16.4,4.1,16.4,4.1,16.4,4.1z M15.1,22.4c3.4-1.8,6.8-3.5,10.3-5.3c-3.4-1.8-6.8-3.6-10.3-5.4C15.1,15.3,15.1,18.9,15.1,22.4z"/>
	</g>
</g>
<style xmlns="" type="text/css" id="YouTubeAdBlocker">body:not(.allowAdsOnThisBody) .ad-container, body:not(.allowAdsOnThisBody) #google_companion_ad_div, body:not(.allowAdsOnThisBody) .iv-promo, body:not(.allowAdsOnThisBody) .iv-promo-video, body:not(.allowAdsOnThisBody) .contains-mute-button, body:not(.allowAdsOnThisBody) .video-annotations, body:not(.allowAdsOnThisBody) .ad-div, body:not(.allowAdsOnThisBody) #masthead-ad, body:not(.allowAdsOnThisBody) #video-masthead, body:not(.allowAdsOnThisBody) .video-masthead-v2, body:not(.allowAdsOnThisBody) ytd-compact-promoted-video-renderer, body:not(.allowAdsOnThisBody) #promotion-shelf, body:not(.allowAdsOnThisBody) .ytp-ad-progress-list, body:not(.allowAdsOnThisBody) .ad-created .annotation, body:not(.allowAdsOnThisBody) .ytp-cards-teaser, body:not(.allowAdsOnThisBody) #player-ads { display:none!important}</style></svg>