<?xml version="1.0" encoding="UTF-8" standalone="no"?>
<!-- Created with Inkscape (http://www.inkscape.org/) -->

<svg
   width="64"
   height="64"
   viewBox="0 0 16.933333 16.933333"
   version="1.1"
   id="svg5"
   xml:space="preserve"
   inkscape:version="1.2.1 (9c6d41e410, 2022-07-14)"
   sodipodi:docname="zrpulselogo.svg"
   xmlns:inkscape="http://www.inkscape.org/namespaces/inkscape"
   xmlns:sodipodi="http://sodipodi.sourceforge.net/DTD/sodipodi-0.dtd"
   xmlns="http://www.w3.org/2000/svg"
   xmlns:svg="http://www.w3.org/2000/svg"><sodipodi:namedview
     id="namedview7"
     pagecolor="#505050"
     bordercolor="#ffffff"
     borderopacity="1"
     inkscape:showpageshadow="0"
     inkscape:pageopacity="0"
     inkscape:pagecheckerboard="1"
     inkscape:deskcolor="#505050"
     inkscape:document-units="mm"
     showgrid="false"
     inkscape:zoom="7.319248"
     inkscape:cx="-11.95478"
     inkscape:cy="61.413413"
     inkscape:window-width="2560"
     inkscape:window-height="1351"
     inkscape:window-x="-9"
     inkscape:window-y="-9"
     inkscape:window-maximized="1"
     inkscape:current-layer="layer1" /><defs
     id="defs2"><pattern
       id="EMFhbasepattern"
       patternUnits="userSpaceOnUse"
       width="6"
       height="6"
       x="0"
       y="0" /></defs><g
     inkscape:label="Слой 1"
     inkscape:groupmode="layer"
     id="layer1"><path
       style="fill:#ffffff;fill-opacity:1;stroke-width:0.00635189"
       d="m 8.7295636,14.829909 c -0.08544,-0.01869 -0.162352,-0.06207 -0.227022,-0.127971 -0.06933,-0.0707 -0.112005,-0.162857 -0.124368,-0.268836 -0.007,-0.06019 -1.101963,-11.7474685 -1.102908,-11.7723195 -4.97e-4,-0.01313 -0.002,-0.01261 -0.006,0.0038 -0.003,0.01051 -0.327739,1.562481 -0.721689,3.448838 -0.39393,1.886349 -0.72324,3.452658 -0.731794,3.480677 -0.02148,0.07033 -0.055,0.125193 -0.11102,0.181471 -0.0549,0.05517 -0.108682,0.08882 -0.180494,0.112899 -0.04526,0.01516 -0.06018,0.01696 -0.139367,0.01696 -0.07917,0 -0.09409,-0.0015 -0.139366,-0.01696 -0.07181,-0.02409 -0.125631,-0.05772 -0.180494,-0.112899 -0.0559,-0.05622 -0.08952,-0.111099 -0.11108,-0.181471 -0.01273,-0.04151 -0.484441,-2.096454 -0.484441,-2.110347 0,-0.0023 -0.131847,0.227923 -0.292976,0.511575 -0.285039,0.501721 -0.294289,0.517032 -0.340798,0.56365 -0.0552,0.05524 -0.104367,0.111096 -0.180245,0.113365 l -0.05073,0.01734 c -1.014808,0.00177 -2.0296175,0.00224 -3.04442656,0.003 v -0.264333 -0.264333 c 0.97001096,-4.504e-4 1.94002076,-0.00152 2.91003056,-0.003 l 0.327121,-0.576394 0.327112,-0.576401 0.05679,-0.05764 c 0.04655,-0.04714 0.06664,-0.06237 0.110691,-0.08402 0.07529,-0.03693 0.122976,-0.04826 0.202714,-0.04826 0.08086,5.2e-5 0.13699,0.01268 0.205878,0.04638 0.08653,0.04233 0.165286,0.121659 0.206145,0.207726 0.02576,0.05419 0.02029,0.03175 0.263207,1.096525 0.114461,0.501803 0.209617,0.912353 0.211457,0.912338 0.002,0 0.330941,-1.568471 0.731317,-3.485458 0.400375,-1.916987 0.734549,-3.51518 0.742605,-3.551538 0.03282,-0.14819 0.117395,-0.261735 0.239804,-0.321983 0.05918,-0.02912 0.108006,-0.04158 0.180792,-0.04616 0.18134,-0.01133 0.350406,0.08443 0.42727,0.241981 0.01572,0.0322 0.03272,0.07545 0.03799,0.09618 0.005,0.02072 0.259646,2.708146 0.565413,5.972031 0.305777,3.2638845 0.556691,5.9336035 0.557586,5.9326945 7.46e-4,-7.5e-4 0.302385,-1.220886 0.669968,-2.711082 0.6431044,-2.6072105 0.6694414,-2.7117335 0.6978284,-2.7699395 0.02447,-0.05021 0.03879,-0.06973 0.08395,-0.115174 0.04496,-0.04526 0.06485,-0.05982 0.114551,-0.08454 0.104465,-0.05186 0.02059,-0.04849 1.200729,-0.04856 l 1.051873,-7.5e-5 0.489275,-0.601268 c 0.269103,-0.3307 0.501927,-0.612983 0.517393,-0.627311 0.06455,-0.05974 0.152605,-0.100943 0.246617,-0.115242 0.117415,-0.01786 0.249899,0.02027 0.347621,0.100088 0.02069,0.01689 0.07539,0.07896 0.124845,0.141698 0.04844,0.0614 0.578391,0.277308 0.495591,0.630727 l 0.407556,0.519074 0.409905,0.0015 0.71459,-0.00599 V 8.50065 8.768368 l -0.771881,0.00519 c -0.413704,0.00278 -0.471183,-0.0038 -0.502036,-0.01276 -0.05679,-0.01726 -0.146339,-0.06575 -0.183707,-0.09932 -0.01929,-0.01734 -0.245264,-0.299842 -0.50679,-0.633579 -0.259567,-0.331231 -0.473988,-0.602393 -0.476504,-0.602581 -0.002,-1.5e-4 -0.215266,0.258321 -0.472774,0.574465 -0.257518,0.316144 -0.479239,0.585115 -0.492717,0.597725 -0.0547,0.05119 -0.109576,0.106716 -0.193056,0.108816 l -0.04685,0.01449 -1.048253,0.003 -1.048253,0.003 -0.7136324,2.8915465 c -0.392498,1.59035 -0.718824,2.906911 -0.72517,2.92569 -0.0192,0.05674 -0.05371,0.109574 -0.10733,0.163885 -0.08643,0.08764 -0.191604,0.1302 -0.319781,0.129359 -0.03302,-2.25e-4 -0.07728,-0.0045 -0.09827,-0.0088 z"
       id="path966"
       sodipodi:nodetypes="csscsssssscssssssccccccccsccsscscssssssssssccscsssscccccsssscscscccsssccc" /></g></svg>
